G75*
G70*
%OFA0B0*%
%FSLAX24Y24*%
%IPPOS*%
%LPD*%
%AMOC8*
5,1,8,0,0,1.08239X$1,22.5*
%
%ADD10C,0.1365*%
%ADD11OC8,0.0740*%
%ADD12C,0.0789*%
%ADD13C,0.0848*%
%ADD14OC8,0.1025*%
D10*
X001150Y001150D03*
X013150Y001150D03*
X013150Y037275D03*
X001150Y037275D03*
D11*
X005150Y036275D03*
X005150Y035275D03*
X006150Y035275D03*
X006150Y036275D03*
X007150Y036275D03*
X007150Y035275D03*
X008150Y035275D03*
X008150Y036275D03*
X009150Y036275D03*
X009150Y035275D03*
D12*
X011650Y031150D03*
X011650Y022150D03*
X011650Y013150D03*
X011650Y004150D03*
X002650Y004150D03*
X002650Y013150D03*
X002650Y022150D03*
X002650Y031150D03*
D13*
X001430Y029930D03*
X001430Y032370D03*
X003870Y032370D03*
X003870Y029930D03*
X003870Y023370D03*
X003870Y020930D03*
X001430Y020930D03*
X001430Y023370D03*
X001430Y014370D03*
X001430Y011930D03*
X003870Y011930D03*
X003870Y014370D03*
X003870Y005370D03*
X003870Y002930D03*
X001430Y002930D03*
X001430Y005370D03*
X010430Y005370D03*
X010430Y002930D03*
X012870Y002930D03*
X012870Y005370D03*
X012870Y011930D03*
X012870Y014370D03*
X012870Y020930D03*
X012870Y023370D03*
X012870Y029930D03*
X012870Y032370D03*
X010430Y032370D03*
X010430Y029930D03*
X010430Y023370D03*
X010430Y020930D03*
X010430Y014370D03*
X010430Y011930D03*
D14*
X007150Y000900D03*
X000900Y034650D03*
X013400Y034650D03*
M02*
