G75*
G70*
%OFA0B0*%
%FSLAX24Y24*%
%IPPOS*%
%LPD*%
%AMOC8*
5,1,8,0,0,1.08239X$1,22.5*
%
%ADD10C,0.0100*%
%ADD11C,0.0000*%
D10*
X000150Y000650D02*
X000150Y037775D01*
X000152Y037819D01*
X000158Y037862D01*
X000167Y037904D01*
X000180Y037946D01*
X000197Y037986D01*
X000217Y038025D01*
X000240Y038062D01*
X000267Y038096D01*
X000296Y038129D01*
X000329Y038158D01*
X000363Y038185D01*
X000400Y038208D01*
X000439Y038228D01*
X000479Y038245D01*
X000521Y038258D01*
X000563Y038267D01*
X000606Y038273D01*
X000650Y038275D01*
X013650Y038275D01*
X013694Y038273D01*
X013737Y038267D01*
X013779Y038258D01*
X013821Y038245D01*
X013861Y038228D01*
X013900Y038208D01*
X013937Y038185D01*
X013971Y038158D01*
X014004Y038129D01*
X014033Y038096D01*
X014060Y038062D01*
X014083Y038025D01*
X014103Y037986D01*
X014120Y037946D01*
X014133Y037904D01*
X014142Y037862D01*
X014148Y037819D01*
X014150Y037775D01*
X014150Y000525D01*
X014148Y000488D01*
X014143Y000452D01*
X014134Y000416D01*
X014121Y000381D01*
X014106Y000348D01*
X014087Y000317D01*
X014065Y000287D01*
X014040Y000260D01*
X014013Y000235D01*
X013983Y000213D01*
X013952Y000194D01*
X013919Y000179D01*
X013884Y000166D01*
X013848Y000157D01*
X013812Y000152D01*
X013775Y000150D01*
X000650Y000150D01*
X000606Y000152D01*
X000563Y000158D01*
X000521Y000167D01*
X000479Y000180D01*
X000439Y000197D01*
X000400Y000217D01*
X000363Y000240D01*
X000329Y000267D01*
X000296Y000296D01*
X000267Y000329D01*
X000240Y000363D01*
X000217Y000400D01*
X000197Y000439D01*
X000180Y000479D01*
X000167Y000521D01*
X000158Y000563D01*
X000152Y000606D01*
X000150Y000650D01*
D11*
X000507Y001150D02*
X000509Y001200D01*
X000515Y001251D01*
X000525Y001300D01*
X000538Y001349D01*
X000556Y001396D01*
X000577Y001442D01*
X000602Y001486D01*
X000630Y001528D01*
X000661Y001568D01*
X000695Y001605D01*
X000732Y001639D01*
X000772Y001670D01*
X000814Y001698D01*
X000858Y001723D01*
X000904Y001744D01*
X000951Y001762D01*
X001000Y001775D01*
X001049Y001785D01*
X001100Y001791D01*
X001150Y001793D01*
X001200Y001791D01*
X001251Y001785D01*
X001300Y001775D01*
X001349Y001762D01*
X001396Y001744D01*
X001442Y001723D01*
X001486Y001698D01*
X001528Y001670D01*
X001568Y001639D01*
X001605Y001605D01*
X001639Y001568D01*
X001670Y001528D01*
X001698Y001486D01*
X001723Y001442D01*
X001744Y001396D01*
X001762Y001349D01*
X001775Y001300D01*
X001785Y001251D01*
X001791Y001200D01*
X001793Y001150D01*
X001791Y001100D01*
X001785Y001049D01*
X001775Y001000D01*
X001762Y000951D01*
X001744Y000904D01*
X001723Y000858D01*
X001698Y000814D01*
X001670Y000772D01*
X001639Y000732D01*
X001605Y000695D01*
X001568Y000661D01*
X001528Y000630D01*
X001486Y000602D01*
X001442Y000577D01*
X001396Y000556D01*
X001349Y000538D01*
X001300Y000525D01*
X001251Y000515D01*
X001200Y000509D01*
X001150Y000507D01*
X001100Y000509D01*
X001049Y000515D01*
X001000Y000525D01*
X000951Y000538D01*
X000904Y000556D01*
X000858Y000577D01*
X000814Y000602D01*
X000772Y000630D01*
X000732Y000661D01*
X000695Y000695D01*
X000661Y000732D01*
X000630Y000772D01*
X000602Y000814D01*
X000577Y000858D01*
X000556Y000904D01*
X000538Y000951D01*
X000525Y001000D01*
X000515Y001049D01*
X000509Y001100D01*
X000507Y001150D01*
X012507Y001150D02*
X012509Y001200D01*
X012515Y001251D01*
X012525Y001300D01*
X012538Y001349D01*
X012556Y001396D01*
X012577Y001442D01*
X012602Y001486D01*
X012630Y001528D01*
X012661Y001568D01*
X012695Y001605D01*
X012732Y001639D01*
X012772Y001670D01*
X012814Y001698D01*
X012858Y001723D01*
X012904Y001744D01*
X012951Y001762D01*
X013000Y001775D01*
X013049Y001785D01*
X013100Y001791D01*
X013150Y001793D01*
X013200Y001791D01*
X013251Y001785D01*
X013300Y001775D01*
X013349Y001762D01*
X013396Y001744D01*
X013442Y001723D01*
X013486Y001698D01*
X013528Y001670D01*
X013568Y001639D01*
X013605Y001605D01*
X013639Y001568D01*
X013670Y001528D01*
X013698Y001486D01*
X013723Y001442D01*
X013744Y001396D01*
X013762Y001349D01*
X013775Y001300D01*
X013785Y001251D01*
X013791Y001200D01*
X013793Y001150D01*
X013791Y001100D01*
X013785Y001049D01*
X013775Y001000D01*
X013762Y000951D01*
X013744Y000904D01*
X013723Y000858D01*
X013698Y000814D01*
X013670Y000772D01*
X013639Y000732D01*
X013605Y000695D01*
X013568Y000661D01*
X013528Y000630D01*
X013486Y000602D01*
X013442Y000577D01*
X013396Y000556D01*
X013349Y000538D01*
X013300Y000525D01*
X013251Y000515D01*
X013200Y000509D01*
X013150Y000507D01*
X013100Y000509D01*
X013049Y000515D01*
X013000Y000525D01*
X012951Y000538D01*
X012904Y000556D01*
X012858Y000577D01*
X012814Y000602D01*
X012772Y000630D01*
X012732Y000661D01*
X012695Y000695D01*
X012661Y000732D01*
X012630Y000772D01*
X012602Y000814D01*
X012577Y000858D01*
X012556Y000904D01*
X012538Y000951D01*
X012525Y001000D01*
X012515Y001049D01*
X012509Y001100D01*
X012507Y001150D01*
X012507Y037275D02*
X012509Y037325D01*
X012515Y037376D01*
X012525Y037425D01*
X012538Y037474D01*
X012556Y037521D01*
X012577Y037567D01*
X012602Y037611D01*
X012630Y037653D01*
X012661Y037693D01*
X012695Y037730D01*
X012732Y037764D01*
X012772Y037795D01*
X012814Y037823D01*
X012858Y037848D01*
X012904Y037869D01*
X012951Y037887D01*
X013000Y037900D01*
X013049Y037910D01*
X013100Y037916D01*
X013150Y037918D01*
X013200Y037916D01*
X013251Y037910D01*
X013300Y037900D01*
X013349Y037887D01*
X013396Y037869D01*
X013442Y037848D01*
X013486Y037823D01*
X013528Y037795D01*
X013568Y037764D01*
X013605Y037730D01*
X013639Y037693D01*
X013670Y037653D01*
X013698Y037611D01*
X013723Y037567D01*
X013744Y037521D01*
X013762Y037474D01*
X013775Y037425D01*
X013785Y037376D01*
X013791Y037325D01*
X013793Y037275D01*
X013791Y037225D01*
X013785Y037174D01*
X013775Y037125D01*
X013762Y037076D01*
X013744Y037029D01*
X013723Y036983D01*
X013698Y036939D01*
X013670Y036897D01*
X013639Y036857D01*
X013605Y036820D01*
X013568Y036786D01*
X013528Y036755D01*
X013486Y036727D01*
X013442Y036702D01*
X013396Y036681D01*
X013349Y036663D01*
X013300Y036650D01*
X013251Y036640D01*
X013200Y036634D01*
X013150Y036632D01*
X013100Y036634D01*
X013049Y036640D01*
X013000Y036650D01*
X012951Y036663D01*
X012904Y036681D01*
X012858Y036702D01*
X012814Y036727D01*
X012772Y036755D01*
X012732Y036786D01*
X012695Y036820D01*
X012661Y036857D01*
X012630Y036897D01*
X012602Y036939D01*
X012577Y036983D01*
X012556Y037029D01*
X012538Y037076D01*
X012525Y037125D01*
X012515Y037174D01*
X012509Y037225D01*
X012507Y037275D01*
X000507Y037275D02*
X000509Y037325D01*
X000515Y037376D01*
X000525Y037425D01*
X000538Y037474D01*
X000556Y037521D01*
X000577Y037567D01*
X000602Y037611D01*
X000630Y037653D01*
X000661Y037693D01*
X000695Y037730D01*
X000732Y037764D01*
X000772Y037795D01*
X000814Y037823D01*
X000858Y037848D01*
X000904Y037869D01*
X000951Y037887D01*
X001000Y037900D01*
X001049Y037910D01*
X001100Y037916D01*
X001150Y037918D01*
X001200Y037916D01*
X001251Y037910D01*
X001300Y037900D01*
X001349Y037887D01*
X001396Y037869D01*
X001442Y037848D01*
X001486Y037823D01*
X001528Y037795D01*
X001568Y037764D01*
X001605Y037730D01*
X001639Y037693D01*
X001670Y037653D01*
X001698Y037611D01*
X001723Y037567D01*
X001744Y037521D01*
X001762Y037474D01*
X001775Y037425D01*
X001785Y037376D01*
X001791Y037325D01*
X001793Y037275D01*
X001791Y037225D01*
X001785Y037174D01*
X001775Y037125D01*
X001762Y037076D01*
X001744Y037029D01*
X001723Y036983D01*
X001698Y036939D01*
X001670Y036897D01*
X001639Y036857D01*
X001605Y036820D01*
X001568Y036786D01*
X001528Y036755D01*
X001486Y036727D01*
X001442Y036702D01*
X001396Y036681D01*
X001349Y036663D01*
X001300Y036650D01*
X001251Y036640D01*
X001200Y036634D01*
X001150Y036632D01*
X001100Y036634D01*
X001049Y036640D01*
X001000Y036650D01*
X000951Y036663D01*
X000904Y036681D01*
X000858Y036702D01*
X000814Y036727D01*
X000772Y036755D01*
X000732Y036786D01*
X000695Y036820D01*
X000661Y036857D01*
X000630Y036897D01*
X000602Y036939D01*
X000577Y036983D01*
X000556Y037029D01*
X000538Y037076D01*
X000525Y037125D01*
X000515Y037174D01*
X000509Y037225D01*
X000507Y037275D01*
M02*
