G75*
G70*
%OFA0B0*%
%FSLAX24Y24*%
%IPPOS*%
%LPD*%
%AMOC8*
5,1,8,0,0,1.08239X$1,22.5*
%
%ADD10C,0.0030*%
%ADD11C,0.0060*%
%ADD12C,0.0050*%
D10*
X005115Y034290D02*
X005067Y034338D01*
X005067Y034532D01*
X005115Y034580D01*
X005260Y034580D01*
X005260Y034290D01*
X005115Y034290D01*
X004385Y035165D02*
X004240Y035165D01*
X004192Y035213D01*
X004192Y035407D01*
X004240Y035455D01*
X004385Y035455D01*
X004385Y035165D01*
X004090Y035165D02*
X004090Y035358D01*
X003994Y035455D01*
X003897Y035358D01*
X003897Y035165D01*
X003796Y035213D02*
X003796Y035407D01*
X003747Y035455D01*
X003651Y035455D01*
X003602Y035407D01*
X003602Y035213D02*
X003651Y035165D01*
X003747Y035165D01*
X003796Y035213D01*
X003897Y035310D02*
X004090Y035310D01*
X004090Y036165D02*
X003945Y036165D01*
X003897Y036213D01*
X003897Y036407D01*
X003945Y036455D01*
X004090Y036455D01*
X004090Y036165D01*
X004192Y036165D02*
X004192Y036358D01*
X004288Y036455D01*
X004385Y036358D01*
X004385Y036165D01*
X004385Y036310D02*
X004192Y036310D01*
X003796Y036213D02*
X003747Y036165D01*
X003651Y036165D01*
X003602Y036213D01*
X003796Y036213D02*
X003796Y036407D01*
X003747Y036455D01*
X003651Y036455D01*
X003602Y036407D01*
X006067Y034532D02*
X006115Y034580D01*
X006212Y034580D01*
X006260Y034532D01*
X006260Y034338D01*
X006212Y034290D01*
X006115Y034290D01*
X006067Y034338D01*
X007067Y034338D02*
X007115Y034290D01*
X007260Y034290D01*
X007260Y034580D01*
X007115Y034580D01*
X007067Y034532D01*
X007067Y034483D01*
X007115Y034435D01*
X007260Y034435D01*
X007115Y034435D02*
X007067Y034387D01*
X007067Y034338D01*
X008067Y034290D02*
X008067Y034483D01*
X008163Y034580D01*
X008260Y034483D01*
X008260Y034290D01*
X008260Y034435D02*
X008067Y034435D01*
X010220Y035236D02*
X010413Y035236D01*
X010510Y035333D01*
X010413Y035430D01*
X010220Y035430D01*
X010268Y035531D02*
X010220Y035579D01*
X010220Y035676D01*
X010268Y035725D01*
X010365Y035725D01*
X010365Y035628D01*
X010462Y035725D02*
X010510Y035676D01*
X010510Y035579D01*
X010462Y035531D01*
X010268Y035531D01*
X010365Y035430D02*
X010365Y035236D01*
X010220Y035826D02*
X010510Y035826D01*
X010220Y036019D01*
X010510Y036019D01*
X010510Y036120D02*
X010510Y036265D01*
X010462Y036314D01*
X010268Y036314D01*
X010220Y036265D01*
X010220Y036120D01*
X010510Y036120D01*
D11*
X010010Y035790D02*
X009985Y035817D01*
X009963Y035847D01*
X009944Y035878D01*
X009929Y035911D01*
X009916Y035946D01*
X009907Y035982D01*
X009902Y036018D01*
X009900Y036055D01*
X009900Y036525D01*
X009898Y036545D01*
X009894Y036564D01*
X009886Y036582D01*
X009876Y036598D01*
X009863Y036613D01*
X009848Y036626D01*
X009832Y036636D01*
X009814Y036644D01*
X009795Y036648D01*
X009775Y036650D01*
X009650Y036525D02*
X009400Y036775D01*
X008900Y036775D01*
X008650Y036525D01*
X008650Y035025D01*
X008400Y034775D01*
X007900Y034775D01*
X007650Y035025D01*
X007650Y036525D01*
X007400Y036775D01*
X006900Y036775D01*
X006650Y036525D01*
X006400Y036775D01*
X005900Y036775D01*
X005650Y036525D01*
X005400Y036775D01*
X004900Y036775D01*
X004650Y036525D01*
X004650Y035025D01*
X004900Y034775D01*
X005400Y034775D01*
X005650Y035025D01*
X005650Y036525D01*
X005650Y037150D02*
X005650Y034275D01*
X005900Y034775D02*
X005650Y035025D01*
X005900Y034775D02*
X006400Y034775D01*
X006650Y035025D01*
X006650Y036525D01*
X006650Y037150D02*
X006650Y034275D01*
X006900Y034775D02*
X006650Y035025D01*
X006900Y034775D02*
X007400Y034775D01*
X007650Y035025D01*
X007650Y034275D02*
X007650Y037150D01*
X007900Y036775D02*
X007650Y036525D01*
X007900Y036775D02*
X008400Y036775D01*
X008650Y036525D01*
X008650Y037150D02*
X008650Y034275D01*
X008900Y034775D02*
X008650Y035025D01*
X008900Y034775D02*
X009400Y034775D01*
X009650Y035025D01*
X009650Y036525D01*
X010010Y035790D02*
X010025Y035775D01*
X010010Y035760D01*
X009900Y035495D02*
X009900Y035025D01*
X009898Y035005D01*
X009894Y034986D01*
X009886Y034968D01*
X009876Y034952D01*
X009863Y034937D01*
X009848Y034924D01*
X009832Y034914D01*
X009814Y034906D01*
X009795Y034902D01*
X009775Y034900D01*
X009900Y035495D02*
X009902Y035532D01*
X009907Y035568D01*
X009916Y035604D01*
X009929Y035639D01*
X009944Y035672D01*
X009963Y035703D01*
X009985Y035733D01*
X010010Y035760D01*
X008650Y035775D02*
X003650Y035775D01*
D12*
X006160Y037500D02*
X006160Y037800D01*
X006235Y037875D01*
X006385Y037875D01*
X006460Y037800D01*
X006460Y037500D01*
X006385Y037425D01*
X006235Y037425D01*
X006160Y037500D01*
X006621Y037875D02*
X006921Y037425D01*
X007078Y037425D02*
X007228Y037425D01*
X007153Y037425D02*
X007153Y037875D01*
X007228Y037875D02*
X007078Y037875D01*
X007388Y037350D02*
X007688Y037350D01*
X007848Y037425D02*
X007848Y037725D01*
X007998Y037875D01*
X008149Y037725D01*
X008149Y037425D01*
X008149Y037650D02*
X007848Y037650D01*
M02*
