%
M48
M72
T01C0.0472
T02C0.0512
T03C0.0630
T04C0.1285
%
T01
X2650Y4150
X2650Y13150
X2650Y22150
X2650Y31150
X11650Y31150
X11650Y22150
X11650Y13150
X11650Y4150
T02
X10430Y2930
X10430Y5370
X12870Y5370
X12870Y2930
X12870Y11930
X12870Y14370
X10430Y14370
X10430Y11930
X10430Y20930
X10430Y23370
X12870Y23370
X12870Y20930
X12870Y29930
X12870Y32370
X10430Y32370
X10430Y29930
X3870Y29930
X3870Y32370
X1430Y32370
X1430Y29930
X1430Y23370
X1430Y20930
X3870Y20930
X3870Y23370
X3870Y14370
X3870Y11930
X1430Y11930
X1430Y14370
X1430Y5370
X1430Y2930
X3870Y2930
X3870Y5370
T03
X7150Y1150
X900Y17650
X7150Y34400
X13400Y17650
T04
X1150Y1150
X13150Y1150
X13150Y34150
X1150Y34150
M30
