G75*
G70*
%OFA0B0*%
%FSLAX24Y24*%
%IPPOS*%
%LPD*%
%AMOC8*
5,1,8,0,0,1.08239X$1,22.5*
%
%ADD10C,0.0709*%
%ADD11C,0.0768*%
%ADD12OC8,0.0945*%
%ADD13C,0.0100*%
D10*
X002650Y004150D03*
X002650Y013150D03*
X002650Y022150D03*
X002650Y031150D03*
X011650Y031150D03*
X011650Y022150D03*
X011650Y013150D03*
X011650Y004150D03*
D11*
X010430Y002930D03*
X010430Y005370D03*
X012870Y005370D03*
X012870Y002930D03*
X012870Y011930D03*
X012870Y014370D03*
X010430Y014370D03*
X010430Y011930D03*
X010430Y020930D03*
X010430Y023370D03*
X012870Y023370D03*
X012870Y020930D03*
X012870Y029930D03*
X012870Y032370D03*
X010430Y032370D03*
X010430Y029930D03*
X003870Y029930D03*
X003870Y032370D03*
X001430Y032370D03*
X001430Y029930D03*
X001430Y023370D03*
X001430Y020930D03*
X003870Y020930D03*
X003870Y023370D03*
X003870Y014370D03*
X003870Y011930D03*
X001430Y011930D03*
X001430Y014370D03*
X001430Y005370D03*
X001430Y002930D03*
X003870Y002930D03*
X003870Y005370D03*
D12*
X007150Y001150D03*
X000900Y017650D03*
X007150Y034400D03*
X013400Y017650D03*
D13*
X000400Y001541D02*
X000400Y033759D01*
X000436Y033673D01*
X000673Y033436D01*
X000982Y033308D01*
X001318Y033308D01*
X001627Y033436D01*
X001864Y033673D01*
X001992Y033982D01*
X001992Y034318D01*
X001864Y034627D01*
X001627Y034864D01*
X001541Y034900D01*
X012759Y034900D01*
X012673Y034864D01*
X012436Y034627D01*
X012308Y034318D01*
X012308Y033982D01*
X012436Y033673D01*
X012673Y033436D01*
X012982Y033308D01*
X013318Y033308D01*
X013627Y033436D01*
X013864Y033673D01*
X013900Y033759D01*
X013900Y001541D01*
X013864Y001627D01*
X013627Y001864D01*
X013318Y001992D01*
X012982Y001992D01*
X012673Y001864D01*
X012436Y001627D01*
X012308Y001318D01*
X012308Y000982D01*
X012436Y000673D01*
X012673Y000436D01*
X012759Y000400D01*
X001541Y000400D01*
X001627Y000436D01*
X001864Y000673D01*
X001992Y000982D01*
X001992Y001318D01*
X001864Y001627D01*
X001627Y001864D01*
X001318Y001992D01*
X000982Y001992D01*
X000673Y001864D01*
X000436Y001627D01*
X000400Y001541D01*
X000400Y001628D02*
X000436Y001628D01*
X000400Y001726D02*
X000535Y001726D01*
X000633Y001825D02*
X000400Y001825D01*
X000400Y001923D02*
X000815Y001923D01*
X001150Y002473D02*
X001082Y002523D01*
X001023Y002582D01*
X000973Y002650D01*
X000935Y002725D01*
X000909Y002805D01*
X000897Y002880D01*
X001380Y002880D01*
X001480Y002880D01*
X001480Y002980D01*
X001963Y002980D01*
X001951Y003055D01*
X001925Y003135D01*
X001887Y003210D01*
X001837Y003278D01*
X001778Y003337D01*
X001710Y003387D01*
X001635Y003425D01*
X001555Y003451D01*
X001480Y003463D01*
X001480Y002980D01*
X001380Y002980D01*
X001380Y003463D01*
X001305Y003451D01*
X001225Y003425D01*
X001150Y003387D01*
X001082Y003337D01*
X001023Y003278D01*
X000973Y003210D01*
X000935Y003135D01*
X000909Y003055D01*
X000897Y002980D01*
X001380Y002980D01*
X001380Y002880D01*
X001380Y002397D01*
X001305Y002409D01*
X001225Y002435D01*
X001150Y002473D01*
X001094Y002514D02*
X000400Y002514D01*
X000400Y002416D02*
X001286Y002416D01*
X001380Y002416D02*
X001480Y002416D01*
X001480Y002397D02*
X001555Y002409D01*
X001635Y002435D01*
X001710Y002473D01*
X001778Y002523D01*
X001837Y002582D01*
X001887Y002650D01*
X001925Y002725D01*
X001951Y002805D01*
X001963Y002880D01*
X001480Y002880D01*
X001480Y002397D01*
X001574Y002416D02*
X003726Y002416D01*
X003745Y002409D02*
X003820Y002397D01*
X003820Y002880D01*
X003920Y002880D01*
X003920Y002980D01*
X004403Y002980D01*
X004391Y003055D01*
X004365Y003135D01*
X004327Y003210D01*
X004277Y003278D01*
X004218Y003337D01*
X004150Y003387D01*
X004075Y003425D01*
X003995Y003451D01*
X003920Y003463D01*
X003920Y002980D01*
X003820Y002980D01*
X003820Y003463D01*
X003745Y003451D01*
X003665Y003425D01*
X003590Y003387D01*
X003522Y003337D01*
X003463Y003278D01*
X003413Y003210D01*
X003375Y003135D01*
X003349Y003055D01*
X003337Y002980D01*
X003820Y002980D01*
X003820Y002880D01*
X003337Y002880D01*
X003349Y002805D01*
X003375Y002725D01*
X003413Y002650D01*
X003463Y002582D01*
X003522Y002523D01*
X003590Y002473D01*
X003665Y002435D01*
X003745Y002409D01*
X003820Y002416D02*
X003920Y002416D01*
X003920Y002397D02*
X003995Y002409D01*
X004075Y002435D01*
X004150Y002473D01*
X004218Y002523D01*
X004277Y002582D01*
X004327Y002650D01*
X004365Y002725D01*
X004391Y002805D01*
X004403Y002880D01*
X003920Y002880D01*
X003920Y002397D01*
X004014Y002416D02*
X010286Y002416D01*
X010305Y002409D02*
X010225Y002435D01*
X010150Y002473D01*
X010082Y002523D01*
X010023Y002582D01*
X009973Y002650D01*
X009935Y002725D01*
X009909Y002805D01*
X009897Y002880D01*
X010380Y002880D01*
X010480Y002880D01*
X010480Y002980D01*
X010963Y002980D01*
X010951Y003055D01*
X010925Y003135D01*
X010887Y003210D01*
X010837Y003278D01*
X010778Y003337D01*
X010710Y003387D01*
X010635Y003425D01*
X010555Y003451D01*
X010480Y003463D01*
X010480Y002980D01*
X010380Y002980D01*
X010380Y003463D01*
X010305Y003451D01*
X010225Y003425D01*
X010150Y003387D01*
X010082Y003337D01*
X010023Y003278D01*
X009973Y003210D01*
X009935Y003135D01*
X009909Y003055D01*
X009897Y002980D01*
X010380Y002980D01*
X010380Y002880D01*
X010380Y002397D01*
X010305Y002409D01*
X010380Y002416D02*
X010480Y002416D01*
X010480Y002397D02*
X010555Y002409D01*
X010635Y002435D01*
X010710Y002473D01*
X010778Y002523D01*
X010837Y002582D01*
X010887Y002650D01*
X010925Y002725D01*
X010951Y002805D01*
X010963Y002880D01*
X010480Y002880D01*
X010480Y002397D01*
X010574Y002416D02*
X012726Y002416D01*
X012745Y002409D02*
X012665Y002435D01*
X012590Y002473D01*
X012522Y002523D01*
X012463Y002582D01*
X012413Y002650D01*
X012375Y002725D01*
X012349Y002805D01*
X012337Y002880D01*
X012820Y002880D01*
X012920Y002880D01*
X012920Y002980D01*
X013403Y002980D01*
X013391Y003055D01*
X013365Y003135D01*
X013327Y003210D01*
X013277Y003278D01*
X013218Y003337D01*
X013150Y003387D01*
X013075Y003425D01*
X012995Y003451D01*
X012920Y003463D01*
X012920Y002980D01*
X012820Y002980D01*
X012820Y003463D01*
X012745Y003451D01*
X012665Y003425D01*
X012590Y003387D01*
X012522Y003337D01*
X012463Y003278D01*
X012413Y003210D01*
X012375Y003135D01*
X012349Y003055D01*
X012337Y002980D01*
X012820Y002980D01*
X012820Y002880D01*
X012820Y002397D01*
X012745Y002409D01*
X012820Y002416D02*
X012920Y002416D01*
X012920Y002397D02*
X012995Y002409D01*
X013075Y002435D01*
X013150Y002473D01*
X013218Y002523D01*
X013277Y002582D01*
X013327Y002650D01*
X013365Y002725D01*
X013391Y002805D01*
X013403Y002880D01*
X012920Y002880D01*
X012920Y002397D01*
X013014Y002416D02*
X013900Y002416D01*
X013900Y002514D02*
X013206Y002514D01*
X013299Y002613D02*
X013900Y002613D01*
X013900Y002711D02*
X013358Y002711D01*
X013391Y002810D02*
X013900Y002810D01*
X013900Y002908D02*
X012920Y002908D01*
X012920Y002810D02*
X012820Y002810D01*
X012820Y002908D02*
X010480Y002908D01*
X010480Y002810D02*
X010380Y002810D01*
X010380Y002908D02*
X003920Y002908D01*
X003920Y002810D02*
X003820Y002810D01*
X003820Y002908D02*
X001480Y002908D01*
X001480Y002810D02*
X001380Y002810D01*
X001380Y002908D02*
X000400Y002908D01*
X000400Y002810D02*
X000909Y002810D01*
X000942Y002711D02*
X000400Y002711D01*
X000400Y002613D02*
X001001Y002613D01*
X000902Y003007D02*
X000400Y003007D01*
X000400Y003105D02*
X000926Y003105D01*
X000970Y003204D02*
X000400Y003204D01*
X000400Y003302D02*
X001047Y003302D01*
X001178Y003401D02*
X000400Y003401D01*
X000400Y003499D02*
X013900Y003499D01*
X013900Y003401D02*
X013122Y003401D01*
X013253Y003302D02*
X013900Y003302D01*
X013900Y003204D02*
X013330Y003204D01*
X013374Y003105D02*
X013900Y003105D01*
X013900Y003007D02*
X013398Y003007D01*
X012920Y003007D02*
X012820Y003007D01*
X012820Y003105D02*
X012920Y003105D01*
X012920Y003204D02*
X012820Y003204D01*
X012820Y003302D02*
X012920Y003302D01*
X012920Y003401D02*
X012820Y003401D01*
X012618Y003401D02*
X010682Y003401D01*
X010813Y003302D02*
X012487Y003302D01*
X012410Y003204D02*
X010890Y003204D01*
X010934Y003105D02*
X012366Y003105D01*
X012342Y003007D02*
X010958Y003007D01*
X010951Y002810D02*
X012349Y002810D01*
X012382Y002711D02*
X010918Y002711D01*
X010859Y002613D02*
X012441Y002613D01*
X012534Y002514D02*
X010766Y002514D01*
X010480Y002514D02*
X010380Y002514D01*
X010380Y002613D02*
X010480Y002613D01*
X010480Y002711D02*
X010380Y002711D01*
X010380Y003007D02*
X010480Y003007D01*
X010480Y003105D02*
X010380Y003105D01*
X010380Y003204D02*
X010480Y003204D01*
X010480Y003302D02*
X010380Y003302D01*
X010380Y003401D02*
X010480Y003401D01*
X010178Y003401D02*
X004122Y003401D01*
X004253Y003302D02*
X010047Y003302D01*
X009970Y003204D02*
X004330Y003204D01*
X004374Y003105D02*
X009926Y003105D01*
X009902Y003007D02*
X004398Y003007D01*
X004391Y002810D02*
X009909Y002810D01*
X009942Y002711D02*
X004358Y002711D01*
X004299Y002613D02*
X010001Y002613D01*
X010094Y002514D02*
X004206Y002514D01*
X003920Y002514D02*
X003820Y002514D01*
X003820Y002613D02*
X003920Y002613D01*
X003920Y002711D02*
X003820Y002711D01*
X003820Y003007D02*
X003920Y003007D01*
X003920Y003105D02*
X003820Y003105D01*
X003820Y003204D02*
X003920Y003204D01*
X003920Y003302D02*
X003820Y003302D01*
X003820Y003401D02*
X003920Y003401D01*
X003618Y003401D02*
X001682Y003401D01*
X001813Y003302D02*
X003487Y003302D01*
X003410Y003204D02*
X001890Y003204D01*
X001934Y003105D02*
X003366Y003105D01*
X003342Y003007D02*
X001958Y003007D01*
X001951Y002810D02*
X003349Y002810D01*
X003382Y002711D02*
X001918Y002711D01*
X001859Y002613D02*
X003441Y002613D01*
X003534Y002514D02*
X001766Y002514D01*
X001480Y002514D02*
X001380Y002514D01*
X001380Y002613D02*
X001480Y002613D01*
X001480Y002711D02*
X001380Y002711D01*
X001380Y003007D02*
X001480Y003007D01*
X001480Y003105D02*
X001380Y003105D01*
X001380Y003204D02*
X001480Y003204D01*
X001480Y003302D02*
X001380Y003302D01*
X001380Y003401D02*
X001480Y003401D01*
X001480Y004837D02*
X001555Y004849D01*
X001635Y004875D01*
X001710Y004913D01*
X001778Y004963D01*
X001837Y005022D01*
X001887Y005090D01*
X001925Y005165D01*
X001951Y005245D01*
X001963Y005320D01*
X001480Y005320D01*
X001480Y005420D01*
X001963Y005420D01*
X001951Y005495D01*
X001925Y005575D01*
X001887Y005650D01*
X001837Y005718D01*
X001778Y005777D01*
X001710Y005827D01*
X001635Y005865D01*
X001555Y005891D01*
X001480Y005903D01*
X001480Y005420D01*
X001380Y005420D01*
X001380Y005903D01*
X001305Y005891D01*
X001225Y005865D01*
X001150Y005827D01*
X001082Y005777D01*
X001023Y005718D01*
X000973Y005650D01*
X000935Y005575D01*
X000909Y005495D01*
X000897Y005420D01*
X001380Y005420D01*
X001380Y005320D01*
X001480Y005320D01*
X001480Y004837D01*
X001480Y004878D02*
X001380Y004878D01*
X001380Y004837D02*
X001380Y005320D01*
X000897Y005320D01*
X000909Y005245D01*
X000935Y005165D01*
X000973Y005090D01*
X001023Y005022D01*
X001082Y004963D01*
X001150Y004913D01*
X001225Y004875D01*
X001305Y004849D01*
X001380Y004837D01*
X001380Y004977D02*
X001480Y004977D01*
X001480Y005075D02*
X001380Y005075D01*
X001380Y005174D02*
X001480Y005174D01*
X001480Y005272D02*
X001380Y005272D01*
X001380Y005371D02*
X000400Y005371D01*
X000400Y005469D02*
X000905Y005469D01*
X000933Y005568D02*
X000400Y005568D01*
X000400Y005666D02*
X000985Y005666D01*
X001070Y005765D02*
X000400Y005765D01*
X000400Y005863D02*
X001222Y005863D01*
X001380Y005863D02*
X001480Y005863D01*
X001480Y005765D02*
X001380Y005765D01*
X001380Y005666D02*
X001480Y005666D01*
X001480Y005568D02*
X001380Y005568D01*
X001380Y005469D02*
X001480Y005469D01*
X001480Y005371D02*
X003820Y005371D01*
X003820Y005420D02*
X003820Y005320D01*
X003920Y005320D01*
X003920Y005420D01*
X004403Y005420D01*
X004391Y005495D01*
X004365Y005575D01*
X004327Y005650D01*
X004277Y005718D01*
X004218Y005777D01*
X004150Y005827D01*
X004075Y005865D01*
X003995Y005891D01*
X003920Y005903D01*
X003920Y005420D01*
X003820Y005420D01*
X003820Y005903D01*
X003745Y005891D01*
X003665Y005865D01*
X003590Y005827D01*
X003522Y005777D01*
X003463Y005718D01*
X003413Y005650D01*
X003375Y005575D01*
X003349Y005495D01*
X003337Y005420D01*
X003820Y005420D01*
X003820Y005469D02*
X003920Y005469D01*
X003920Y005371D02*
X010380Y005371D01*
X010380Y005420D02*
X010380Y005320D01*
X010480Y005320D01*
X010480Y005420D01*
X010963Y005420D01*
X010951Y005495D01*
X010925Y005575D01*
X010887Y005650D01*
X010837Y005718D01*
X010778Y005777D01*
X010710Y005827D01*
X010635Y005865D01*
X010555Y005891D01*
X010480Y005903D01*
X010480Y005420D01*
X010380Y005420D01*
X010380Y005903D01*
X010305Y005891D01*
X010225Y005865D01*
X010150Y005827D01*
X010082Y005777D01*
X010023Y005718D01*
X009973Y005650D01*
X009935Y005575D01*
X009909Y005495D01*
X009897Y005420D01*
X010380Y005420D01*
X010380Y005469D02*
X010480Y005469D01*
X010480Y005371D02*
X012820Y005371D01*
X012820Y005420D02*
X012820Y005320D01*
X012920Y005320D01*
X012920Y005420D01*
X013403Y005420D01*
X013391Y005495D01*
X013365Y005575D01*
X013327Y005650D01*
X013277Y005718D01*
X013218Y005777D01*
X013150Y005827D01*
X013075Y005865D01*
X012995Y005891D01*
X012920Y005903D01*
X012920Y005420D01*
X012820Y005420D01*
X012820Y005903D01*
X012745Y005891D01*
X012665Y005865D01*
X012590Y005827D01*
X012522Y005777D01*
X012463Y005718D01*
X012413Y005650D01*
X012375Y005575D01*
X012349Y005495D01*
X012337Y005420D01*
X012820Y005420D01*
X012820Y005469D02*
X012920Y005469D01*
X012920Y005371D02*
X013900Y005371D01*
X013900Y005469D02*
X013395Y005469D01*
X013367Y005568D02*
X013900Y005568D01*
X013900Y005666D02*
X013315Y005666D01*
X013230Y005765D02*
X013900Y005765D01*
X013900Y005863D02*
X013078Y005863D01*
X012920Y005863D02*
X012820Y005863D01*
X012820Y005765D02*
X012920Y005765D01*
X012920Y005666D02*
X012820Y005666D01*
X012820Y005568D02*
X012920Y005568D01*
X012920Y005320D02*
X013403Y005320D01*
X013391Y005245D01*
X013365Y005165D01*
X013327Y005090D01*
X013277Y005022D01*
X013218Y004963D01*
X013150Y004913D01*
X013075Y004875D01*
X012995Y004849D01*
X012920Y004837D01*
X012920Y005320D01*
X012920Y005272D02*
X012820Y005272D01*
X012820Y005320D02*
X012820Y004837D01*
X012745Y004849D01*
X012665Y004875D01*
X012590Y004913D01*
X012522Y004963D01*
X012463Y005022D01*
X012413Y005090D01*
X012375Y005165D01*
X012349Y005245D01*
X012337Y005320D01*
X012820Y005320D01*
X012820Y005174D02*
X012920Y005174D01*
X012920Y005075D02*
X012820Y005075D01*
X012820Y004977D02*
X012920Y004977D01*
X012920Y004878D02*
X012820Y004878D01*
X012660Y004878D02*
X010640Y004878D01*
X010635Y004875D02*
X010710Y004913D01*
X010778Y004963D01*
X010837Y005022D01*
X010887Y005090D01*
X010925Y005165D01*
X010951Y005245D01*
X010963Y005320D01*
X010480Y005320D01*
X010480Y004837D01*
X010555Y004849D01*
X010635Y004875D01*
X010480Y004878D02*
X010380Y004878D01*
X010380Y004837D02*
X010380Y005320D01*
X009897Y005320D01*
X009909Y005245D01*
X009935Y005165D01*
X009973Y005090D01*
X010023Y005022D01*
X010082Y004963D01*
X010150Y004913D01*
X010225Y004875D01*
X010305Y004849D01*
X010380Y004837D01*
X010380Y004977D02*
X010480Y004977D01*
X010480Y005075D02*
X010380Y005075D01*
X010380Y005174D02*
X010480Y005174D01*
X010480Y005272D02*
X010380Y005272D01*
X010380Y005568D02*
X010480Y005568D01*
X010480Y005666D02*
X010380Y005666D01*
X010380Y005765D02*
X010480Y005765D01*
X010480Y005863D02*
X010380Y005863D01*
X010222Y005863D02*
X004078Y005863D01*
X003920Y005863D02*
X003820Y005863D01*
X003820Y005765D02*
X003920Y005765D01*
X003920Y005666D02*
X003820Y005666D01*
X003820Y005568D02*
X003920Y005568D01*
X003920Y005320D02*
X004403Y005320D01*
X004391Y005245D01*
X004365Y005165D01*
X004327Y005090D01*
X004277Y005022D01*
X004218Y004963D01*
X004150Y004913D01*
X004075Y004875D01*
X003995Y004849D01*
X003920Y004837D01*
X003920Y005320D01*
X003920Y005272D02*
X003820Y005272D01*
X003820Y005320D02*
X003820Y004837D01*
X003745Y004849D01*
X003665Y004875D01*
X003590Y004913D01*
X003522Y004963D01*
X003463Y005022D01*
X003413Y005090D01*
X003375Y005165D01*
X003349Y005245D01*
X003337Y005320D01*
X003820Y005320D01*
X003820Y005174D02*
X003920Y005174D01*
X003920Y005075D02*
X003820Y005075D01*
X003820Y004977D02*
X003920Y004977D01*
X003920Y004878D02*
X003820Y004878D01*
X003660Y004878D02*
X001640Y004878D01*
X001792Y004977D02*
X003508Y004977D01*
X003424Y005075D02*
X001876Y005075D01*
X001927Y005174D02*
X003373Y005174D01*
X003345Y005272D02*
X001955Y005272D01*
X001955Y005469D02*
X003345Y005469D01*
X003373Y005568D02*
X001927Y005568D01*
X001875Y005666D02*
X003425Y005666D01*
X003510Y005765D02*
X001790Y005765D01*
X001638Y005863D02*
X003662Y005863D01*
X004080Y004878D02*
X010220Y004878D01*
X010068Y004977D02*
X004232Y004977D01*
X004316Y005075D02*
X009984Y005075D01*
X009933Y005174D02*
X004367Y005174D01*
X004395Y005272D02*
X009905Y005272D01*
X009905Y005469D02*
X004395Y005469D01*
X004367Y005568D02*
X009933Y005568D01*
X009985Y005666D02*
X004315Y005666D01*
X004230Y005765D02*
X010070Y005765D01*
X010638Y005863D02*
X012662Y005863D01*
X012510Y005765D02*
X010790Y005765D01*
X010875Y005666D02*
X012425Y005666D01*
X012373Y005568D02*
X010927Y005568D01*
X010955Y005469D02*
X012345Y005469D01*
X012345Y005272D02*
X010955Y005272D01*
X010927Y005174D02*
X012373Y005174D01*
X012424Y005075D02*
X010876Y005075D01*
X010792Y004977D02*
X012508Y004977D01*
X012044Y004413D02*
X011913Y004544D01*
X011742Y004614D01*
X011558Y004614D01*
X011387Y004544D01*
X011256Y004413D01*
X011186Y004242D01*
X011186Y004058D01*
X011256Y003887D01*
X011387Y003756D01*
X011558Y003686D01*
X011742Y003686D01*
X011913Y003756D01*
X012044Y003887D01*
X012114Y004058D01*
X012114Y004242D01*
X012044Y004413D01*
X012055Y004386D02*
X013900Y004386D01*
X013900Y004484D02*
X011973Y004484D01*
X011819Y004583D02*
X013900Y004583D01*
X013900Y004681D02*
X000400Y004681D01*
X000400Y004583D02*
X002481Y004583D01*
X002558Y004614D02*
X002387Y004544D01*
X002256Y004413D01*
X002186Y004242D01*
X002186Y004058D01*
X002256Y003887D01*
X002387Y003756D01*
X002558Y003686D01*
X002742Y003686D01*
X002913Y003756D01*
X003044Y003887D01*
X003114Y004058D01*
X003114Y004242D01*
X003044Y004413D01*
X002913Y004544D01*
X002742Y004614D01*
X002558Y004614D01*
X002327Y004484D02*
X000400Y004484D01*
X000400Y004386D02*
X002245Y004386D01*
X002204Y004287D02*
X000400Y004287D01*
X000400Y004189D02*
X002186Y004189D01*
X002186Y004090D02*
X000400Y004090D01*
X000400Y003992D02*
X002213Y003992D01*
X002254Y003893D02*
X000400Y003893D01*
X000400Y003795D02*
X002349Y003795D01*
X002533Y003696D02*
X000400Y003696D01*
X000400Y003598D02*
X013900Y003598D01*
X013900Y003696D02*
X011767Y003696D01*
X011951Y003795D02*
X013900Y003795D01*
X013900Y003893D02*
X012046Y003893D01*
X012087Y003992D02*
X013900Y003992D01*
X013900Y004090D02*
X012114Y004090D01*
X012114Y004189D02*
X013900Y004189D01*
X013900Y004287D02*
X012096Y004287D01*
X011481Y004583D02*
X002819Y004583D01*
X002973Y004484D02*
X011327Y004484D01*
X011245Y004386D02*
X003055Y004386D01*
X003096Y004287D02*
X011204Y004287D01*
X011186Y004189D02*
X003114Y004189D01*
X003114Y004090D02*
X011186Y004090D01*
X011213Y003992D02*
X003087Y003992D01*
X003046Y003893D02*
X011254Y003893D01*
X011349Y003795D02*
X002951Y003795D01*
X002767Y003696D02*
X011533Y003696D01*
X012436Y001628D02*
X001864Y001628D01*
X001905Y001529D02*
X012395Y001529D01*
X012354Y001431D02*
X001946Y001431D01*
X001987Y001332D02*
X012313Y001332D01*
X012308Y001234D02*
X001992Y001234D01*
X001992Y001135D02*
X012308Y001135D01*
X012308Y001037D02*
X001992Y001037D01*
X001974Y000938D02*
X012326Y000938D01*
X012367Y000840D02*
X001933Y000840D01*
X001893Y000741D02*
X012407Y000741D01*
X012466Y000643D02*
X001834Y000643D01*
X001735Y000544D02*
X012565Y000544D01*
X012663Y000446D02*
X001637Y000446D01*
X001765Y001726D02*
X012535Y001726D01*
X012633Y001825D02*
X001667Y001825D01*
X001485Y001923D02*
X012815Y001923D01*
X012820Y002514D02*
X012920Y002514D01*
X012920Y002613D02*
X012820Y002613D01*
X012820Y002711D02*
X012920Y002711D01*
X013485Y001923D02*
X013900Y001923D01*
X013900Y001825D02*
X013667Y001825D01*
X013765Y001726D02*
X013900Y001726D01*
X013900Y001628D02*
X013864Y001628D01*
X013900Y002022D02*
X000400Y002022D01*
X000400Y002120D02*
X013900Y002120D01*
X013900Y002219D02*
X000400Y002219D01*
X000400Y002317D02*
X013900Y002317D01*
X013900Y004780D02*
X000400Y004780D01*
X000400Y004878D02*
X001220Y004878D01*
X001068Y004977D02*
X000400Y004977D01*
X000400Y005075D02*
X000984Y005075D01*
X000933Y005174D02*
X000400Y005174D01*
X000400Y005272D02*
X000905Y005272D01*
X000400Y005962D02*
X013900Y005962D01*
X013900Y006060D02*
X000400Y006060D01*
X000400Y006159D02*
X013900Y006159D01*
X013900Y006257D02*
X000400Y006257D01*
X000400Y006356D02*
X013900Y006356D01*
X013900Y006454D02*
X000400Y006454D01*
X000400Y006553D02*
X013900Y006553D01*
X013900Y006651D02*
X000400Y006651D01*
X000400Y006750D02*
X013900Y006750D01*
X013900Y006848D02*
X000400Y006848D01*
X000400Y006947D02*
X013900Y006947D01*
X013900Y007045D02*
X000400Y007045D01*
X000400Y007144D02*
X013900Y007144D01*
X013900Y007242D02*
X000400Y007242D01*
X000400Y007341D02*
X013900Y007341D01*
X013900Y007439D02*
X000400Y007439D01*
X000400Y007538D02*
X013900Y007538D01*
X013900Y007636D02*
X000400Y007636D01*
X000400Y007735D02*
X013900Y007735D01*
X013900Y007833D02*
X000400Y007833D01*
X000400Y007932D02*
X013900Y007932D01*
X013900Y008030D02*
X000400Y008030D01*
X000400Y008129D02*
X013900Y008129D01*
X013900Y008227D02*
X000400Y008227D01*
X000400Y008326D02*
X013900Y008326D01*
X013900Y008424D02*
X000400Y008424D01*
X000400Y008523D02*
X013900Y008523D01*
X013900Y008621D02*
X000400Y008621D01*
X000400Y008720D02*
X013900Y008720D01*
X013900Y008818D02*
X000400Y008818D01*
X000400Y008917D02*
X013900Y008917D01*
X013900Y009015D02*
X000400Y009015D01*
X000400Y009114D02*
X013900Y009114D01*
X013900Y009212D02*
X000400Y009212D01*
X000400Y009311D02*
X013900Y009311D01*
X013900Y009409D02*
X000400Y009409D01*
X000400Y009508D02*
X013900Y009508D01*
X013900Y009606D02*
X000400Y009606D01*
X000400Y009705D02*
X013900Y009705D01*
X013900Y009803D02*
X000400Y009803D01*
X000400Y009902D02*
X013900Y009902D01*
X013900Y010000D02*
X000400Y010000D01*
X000400Y010099D02*
X013900Y010099D01*
X013900Y010197D02*
X000400Y010197D01*
X000400Y010296D02*
X013900Y010296D01*
X013900Y010394D02*
X000400Y010394D01*
X000400Y010493D02*
X013900Y010493D01*
X013900Y010591D02*
X000400Y010591D01*
X000400Y010690D02*
X013900Y010690D01*
X013900Y010788D02*
X000400Y010788D01*
X000400Y010887D02*
X013900Y010887D01*
X013900Y010985D02*
X000400Y010985D01*
X000400Y011084D02*
X013900Y011084D01*
X013900Y011182D02*
X000400Y011182D01*
X000400Y011281D02*
X013900Y011281D01*
X013900Y011379D02*
X000400Y011379D01*
X000400Y011478D02*
X001145Y011478D01*
X001150Y011473D02*
X001225Y011435D01*
X001305Y011409D01*
X001380Y011397D01*
X001380Y011880D01*
X001480Y011880D01*
X001480Y011980D01*
X001963Y011980D01*
X001951Y012055D01*
X001925Y012135D01*
X001887Y012210D01*
X001837Y012278D01*
X001778Y012337D01*
X001710Y012387D01*
X001635Y012425D01*
X001555Y012451D01*
X001480Y012463D01*
X001480Y011980D01*
X001380Y011980D01*
X001380Y012463D01*
X001305Y012451D01*
X001225Y012425D01*
X001150Y012387D01*
X001082Y012337D01*
X001023Y012278D01*
X000973Y012210D01*
X000935Y012135D01*
X000909Y012055D01*
X000897Y011980D01*
X001380Y011980D01*
X001380Y011880D01*
X000897Y011880D01*
X000909Y011805D01*
X000935Y011725D01*
X000973Y011650D01*
X001023Y011582D01*
X001082Y011523D01*
X001150Y011473D01*
X001029Y011576D02*
X000400Y011576D01*
X000400Y011675D02*
X000961Y011675D01*
X000920Y011773D02*
X000400Y011773D01*
X000400Y011872D02*
X000899Y011872D01*
X000914Y012069D02*
X000400Y012069D01*
X000400Y012167D02*
X000952Y012167D01*
X001014Y012266D02*
X000400Y012266D01*
X000400Y012364D02*
X001119Y012364D01*
X001380Y012364D02*
X001480Y012364D01*
X001480Y012266D02*
X001380Y012266D01*
X001380Y012167D02*
X001480Y012167D01*
X001480Y012069D02*
X001380Y012069D01*
X001380Y011970D02*
X000400Y011970D01*
X000400Y012463D02*
X001380Y012463D01*
X001480Y012463D01*
X003820Y012463D01*
X003745Y012451D01*
X003665Y012425D01*
X003590Y012387D01*
X003522Y012337D01*
X003463Y012278D01*
X003413Y012210D01*
X003375Y012135D01*
X003349Y012055D01*
X003337Y011980D01*
X003820Y011980D01*
X003820Y012463D01*
X003920Y012463D01*
X003995Y012451D01*
X004075Y012425D01*
X004150Y012387D01*
X004218Y012337D01*
X004277Y012278D01*
X004327Y012210D01*
X004365Y012135D01*
X004391Y012055D01*
X004403Y011980D01*
X003920Y011980D01*
X003920Y011880D01*
X004403Y011880D01*
X004391Y011805D01*
X004365Y011725D01*
X004327Y011650D01*
X004277Y011582D01*
X004218Y011523D01*
X004150Y011473D01*
X004075Y011435D01*
X003995Y011409D01*
X003920Y011397D01*
X003920Y011880D01*
X003820Y011880D01*
X003820Y011397D01*
X003745Y011409D01*
X003665Y011435D01*
X003590Y011473D01*
X003522Y011523D01*
X003463Y011582D01*
X003413Y011650D01*
X003375Y011725D01*
X003349Y011805D01*
X003337Y011880D01*
X003820Y011880D01*
X003820Y011980D01*
X003920Y011980D01*
X003920Y012463D01*
X010380Y012463D01*
X010305Y012451D01*
X010225Y012425D01*
X010150Y012387D01*
X010082Y012337D01*
X010023Y012278D01*
X009973Y012210D01*
X009935Y012135D01*
X009909Y012055D01*
X009897Y011980D01*
X010380Y011980D01*
X010380Y012463D01*
X010480Y012463D01*
X010555Y012451D01*
X010635Y012425D01*
X010710Y012387D01*
X010778Y012337D01*
X010837Y012278D01*
X010887Y012210D01*
X010925Y012135D01*
X010951Y012055D01*
X010963Y011980D01*
X010480Y011980D01*
X010480Y011880D01*
X010963Y011880D01*
X010951Y011805D01*
X010925Y011725D01*
X010887Y011650D01*
X010837Y011582D01*
X010778Y011523D01*
X010710Y011473D01*
X010635Y011435D01*
X010555Y011409D01*
X010480Y011397D01*
X010480Y011880D01*
X010380Y011880D01*
X010380Y011397D01*
X010305Y011409D01*
X010225Y011435D01*
X010150Y011473D01*
X010082Y011523D01*
X010023Y011582D01*
X009973Y011650D01*
X009935Y011725D01*
X009909Y011805D01*
X009897Y011880D01*
X010380Y011880D01*
X010380Y011980D01*
X010480Y011980D01*
X010480Y012463D01*
X012820Y012463D01*
X012745Y012451D01*
X012665Y012425D01*
X012590Y012387D01*
X012522Y012337D01*
X012463Y012278D01*
X012413Y012210D01*
X012375Y012135D01*
X012349Y012055D01*
X012337Y011980D01*
X012820Y011980D01*
X012820Y012463D01*
X012920Y012463D01*
X012995Y012451D01*
X013075Y012425D01*
X013150Y012387D01*
X013218Y012337D01*
X013277Y012278D01*
X013327Y012210D01*
X013365Y012135D01*
X013391Y012055D01*
X013403Y011980D01*
X012920Y011980D01*
X012920Y011880D01*
X013403Y011880D01*
X013391Y011805D01*
X013365Y011725D01*
X013327Y011650D01*
X013277Y011582D01*
X013218Y011523D01*
X013150Y011473D01*
X013075Y011435D01*
X012995Y011409D01*
X012920Y011397D01*
X012920Y011880D01*
X012820Y011880D01*
X012820Y011397D01*
X012745Y011409D01*
X012665Y011435D01*
X012590Y011473D01*
X012522Y011523D01*
X012463Y011582D01*
X012413Y011650D01*
X012375Y011725D01*
X012349Y011805D01*
X012337Y011880D01*
X012820Y011880D01*
X012820Y011980D01*
X012920Y011980D01*
X012920Y012463D01*
X013900Y012463D01*
X013900Y012561D02*
X000400Y012561D01*
X000400Y012660D02*
X013900Y012660D01*
X013900Y012758D02*
X011915Y012758D01*
X011913Y012756D02*
X012044Y012887D01*
X012114Y013058D01*
X012114Y013242D01*
X012044Y013413D01*
X011913Y013544D01*
X011742Y013614D01*
X011558Y013614D01*
X011387Y013544D01*
X011256Y013413D01*
X011186Y013242D01*
X011186Y013058D01*
X011256Y012887D01*
X011387Y012756D01*
X011558Y012686D01*
X011742Y012686D01*
X011913Y012756D01*
X012013Y012857D02*
X013900Y012857D01*
X013900Y012955D02*
X012072Y012955D01*
X012113Y013054D02*
X013900Y013054D01*
X013900Y013152D02*
X012114Y013152D01*
X012111Y013251D02*
X013900Y013251D01*
X013900Y013349D02*
X012070Y013349D01*
X012009Y013448D02*
X013900Y013448D01*
X013900Y013546D02*
X011907Y013546D01*
X012463Y014022D02*
X012413Y014090D01*
X012375Y014165D01*
X012349Y014245D01*
X012337Y014320D01*
X012820Y014320D01*
X012920Y014320D01*
X012920Y014420D01*
X013403Y014420D01*
X013391Y014495D01*
X013365Y014575D01*
X013327Y014650D01*
X013277Y014718D01*
X013218Y014777D01*
X013150Y014827D01*
X013075Y014865D01*
X012995Y014891D01*
X012920Y014903D01*
X012920Y014420D01*
X012820Y014420D01*
X012820Y014903D01*
X012745Y014891D01*
X012665Y014865D01*
X012590Y014827D01*
X012522Y014777D01*
X012463Y014718D01*
X012413Y014650D01*
X012375Y014575D01*
X012349Y014495D01*
X012337Y014420D01*
X012820Y014420D01*
X012820Y014320D01*
X012820Y013837D01*
X012745Y013849D01*
X012665Y013875D01*
X012590Y013913D01*
X012522Y013963D01*
X012463Y014022D01*
X012451Y014039D02*
X010849Y014039D01*
X010837Y014022D02*
X010887Y014090D01*
X010925Y014165D01*
X010951Y014245D01*
X010963Y014320D01*
X010480Y014320D01*
X010480Y014420D01*
X010963Y014420D01*
X010951Y014495D01*
X010925Y014575D01*
X010887Y014650D01*
X010837Y014718D01*
X010778Y014777D01*
X010710Y014827D01*
X010635Y014865D01*
X010555Y014891D01*
X010480Y014903D01*
X010480Y014420D01*
X010380Y014420D01*
X010380Y014903D01*
X010305Y014891D01*
X010225Y014865D01*
X010150Y014827D01*
X010082Y014777D01*
X010023Y014718D01*
X009973Y014650D01*
X009935Y014575D01*
X009909Y014495D01*
X009897Y014420D01*
X010380Y014420D01*
X010380Y014320D01*
X010480Y014320D01*
X010480Y013837D01*
X010555Y013849D01*
X010635Y013875D01*
X010710Y013913D01*
X010778Y013963D01*
X010837Y014022D01*
X010746Y013940D02*
X012554Y013940D01*
X012390Y014137D02*
X010910Y014137D01*
X010948Y014236D02*
X012352Y014236D01*
X012339Y014433D02*
X010961Y014433D01*
X010939Y014531D02*
X012361Y014531D01*
X012403Y014630D02*
X010897Y014630D01*
X010827Y014728D02*
X012473Y014728D01*
X012590Y014827D02*
X010710Y014827D01*
X010480Y014827D02*
X010380Y014827D01*
X010380Y014728D02*
X010480Y014728D01*
X010480Y014630D02*
X010380Y014630D01*
X010380Y014531D02*
X010480Y014531D01*
X010480Y014433D02*
X010380Y014433D01*
X010380Y014334D02*
X003920Y014334D01*
X003920Y014320D02*
X003920Y014420D01*
X004403Y014420D01*
X004391Y014495D01*
X004365Y014575D01*
X004327Y014650D01*
X004277Y014718D01*
X004218Y014777D01*
X004150Y014827D01*
X004075Y014865D01*
X003995Y014891D01*
X003920Y014903D01*
X003920Y014420D01*
X003820Y014420D01*
X003820Y014903D01*
X003745Y014891D01*
X003665Y014865D01*
X003590Y014827D01*
X003522Y014777D01*
X003463Y014718D01*
X003413Y014650D01*
X003375Y014575D01*
X003349Y014495D01*
X003337Y014420D01*
X003820Y014420D01*
X003820Y014320D01*
X003920Y014320D01*
X004403Y014320D01*
X004391Y014245D01*
X004365Y014165D01*
X004327Y014090D01*
X004277Y014022D01*
X004218Y013963D01*
X004150Y013913D01*
X004075Y013875D01*
X003995Y013849D01*
X003920Y013837D01*
X003920Y014320D01*
X003920Y014236D02*
X003820Y014236D01*
X003820Y014320D02*
X003820Y013837D01*
X003745Y013849D01*
X003665Y013875D01*
X003590Y013913D01*
X003522Y013963D01*
X003463Y014022D01*
X003413Y014090D01*
X003375Y014165D01*
X003349Y014245D01*
X003337Y014320D01*
X003820Y014320D01*
X003820Y014334D02*
X001480Y014334D01*
X001480Y014320D02*
X001480Y014420D01*
X001963Y014420D01*
X001951Y014495D01*
X001925Y014575D01*
X001887Y014650D01*
X001837Y014718D01*
X001778Y014777D01*
X001710Y014827D01*
X001635Y014865D01*
X001555Y014891D01*
X001480Y014903D01*
X001480Y014420D01*
X001380Y014420D01*
X001380Y014903D01*
X001305Y014891D01*
X001225Y014865D01*
X001150Y014827D01*
X001082Y014777D01*
X001023Y014718D01*
X000973Y014650D01*
X000935Y014575D01*
X000909Y014495D01*
X000897Y014420D01*
X001380Y014420D01*
X001380Y014320D01*
X001480Y014320D01*
X001963Y014320D01*
X001951Y014245D01*
X001925Y014165D01*
X001887Y014090D01*
X001837Y014022D01*
X001778Y013963D01*
X001710Y013913D01*
X001635Y013875D01*
X001555Y013849D01*
X001480Y013837D01*
X001480Y014320D01*
X001480Y014236D02*
X001380Y014236D01*
X001380Y014320D02*
X001380Y013837D01*
X001305Y013849D01*
X001225Y013875D01*
X001150Y013913D01*
X001082Y013963D01*
X001023Y014022D01*
X000973Y014090D01*
X000935Y014165D01*
X000909Y014245D01*
X000897Y014320D01*
X001380Y014320D01*
X001380Y014334D02*
X000400Y014334D01*
X000400Y014236D02*
X000912Y014236D01*
X000950Y014137D02*
X000400Y014137D01*
X000400Y014039D02*
X001011Y014039D01*
X001114Y013940D02*
X000400Y013940D01*
X000400Y013842D02*
X001354Y013842D01*
X001380Y013842D02*
X001480Y013842D01*
X001506Y013842D02*
X003794Y013842D01*
X003820Y013842D02*
X003920Y013842D01*
X003946Y013842D02*
X010354Y013842D01*
X010380Y013842D02*
X010480Y013842D01*
X010506Y013842D02*
X012794Y013842D01*
X012820Y013842D02*
X012920Y013842D01*
X012920Y013837D02*
X012995Y013849D01*
X013075Y013875D01*
X013150Y013913D01*
X013218Y013963D01*
X013277Y014022D01*
X013327Y014090D01*
X013365Y014165D01*
X013391Y014245D01*
X013403Y014320D01*
X012920Y014320D01*
X012920Y013837D01*
X012946Y013842D02*
X013900Y013842D01*
X013900Y013940D02*
X013186Y013940D01*
X013289Y014039D02*
X013900Y014039D01*
X013900Y014137D02*
X013350Y014137D01*
X013388Y014236D02*
X013900Y014236D01*
X013900Y014334D02*
X012920Y014334D01*
X012920Y014236D02*
X012820Y014236D01*
X012820Y014334D02*
X010480Y014334D01*
X010480Y014236D02*
X010380Y014236D01*
X010380Y014320D02*
X010380Y013837D01*
X010305Y013849D01*
X010225Y013875D01*
X010150Y013913D01*
X010082Y013963D01*
X010023Y014022D01*
X009973Y014090D01*
X009935Y014165D01*
X009909Y014245D01*
X009897Y014320D01*
X010380Y014320D01*
X010380Y014137D02*
X010480Y014137D01*
X010480Y014039D02*
X010380Y014039D01*
X010380Y013940D02*
X010480Y013940D01*
X010114Y013940D02*
X004186Y013940D01*
X004289Y014039D02*
X010011Y014039D01*
X009950Y014137D02*
X004350Y014137D01*
X004388Y014236D02*
X009912Y014236D01*
X009899Y014433D02*
X004401Y014433D01*
X004379Y014531D02*
X009921Y014531D01*
X009963Y014630D02*
X004337Y014630D01*
X004267Y014728D02*
X010033Y014728D01*
X010150Y014827D02*
X004150Y014827D01*
X003920Y014827D02*
X003820Y014827D01*
X003820Y014728D02*
X003920Y014728D01*
X003920Y014630D02*
X003820Y014630D01*
X003820Y014531D02*
X003920Y014531D01*
X003920Y014433D02*
X003820Y014433D01*
X003820Y014137D02*
X003920Y014137D01*
X003920Y014039D02*
X003820Y014039D01*
X003820Y013940D02*
X003920Y013940D01*
X003554Y013940D02*
X001746Y013940D01*
X001849Y014039D02*
X003451Y014039D01*
X003390Y014137D02*
X001910Y014137D01*
X001948Y014236D02*
X003352Y014236D01*
X003339Y014433D02*
X001961Y014433D01*
X001939Y014531D02*
X003361Y014531D01*
X003403Y014630D02*
X001897Y014630D01*
X001827Y014728D02*
X003473Y014728D01*
X003590Y014827D02*
X001710Y014827D01*
X001480Y014827D02*
X001380Y014827D01*
X001380Y014728D02*
X001480Y014728D01*
X001480Y014630D02*
X001380Y014630D01*
X001380Y014531D02*
X001480Y014531D01*
X001480Y014433D02*
X001380Y014433D01*
X001380Y014137D02*
X001480Y014137D01*
X001480Y014039D02*
X001380Y014039D01*
X001380Y013940D02*
X001480Y013940D01*
X001033Y014728D02*
X000400Y014728D01*
X000400Y014630D02*
X000963Y014630D01*
X000921Y014531D02*
X000400Y014531D01*
X000400Y014433D02*
X000899Y014433D01*
X001150Y014827D02*
X000400Y014827D01*
X000400Y014925D02*
X013900Y014925D01*
X013900Y014827D02*
X013150Y014827D01*
X013267Y014728D02*
X013900Y014728D01*
X013900Y014630D02*
X013337Y014630D01*
X013379Y014531D02*
X013900Y014531D01*
X013900Y014433D02*
X013401Y014433D01*
X012920Y014433D02*
X012820Y014433D01*
X012820Y014531D02*
X012920Y014531D01*
X012920Y014630D02*
X012820Y014630D01*
X012820Y014728D02*
X012920Y014728D01*
X012920Y014827D02*
X012820Y014827D01*
X012820Y014137D02*
X012920Y014137D01*
X012920Y014039D02*
X012820Y014039D01*
X012820Y013940D02*
X012920Y013940D01*
X012920Y012364D02*
X012820Y012364D01*
X012820Y012266D02*
X012920Y012266D01*
X012920Y012167D02*
X012820Y012167D01*
X012820Y012069D02*
X012920Y012069D01*
X012920Y011970D02*
X013900Y011970D01*
X013900Y011872D02*
X013401Y011872D01*
X013380Y011773D02*
X013900Y011773D01*
X013900Y011675D02*
X013339Y011675D01*
X013271Y011576D02*
X013900Y011576D01*
X013900Y011478D02*
X013155Y011478D01*
X012920Y011478D02*
X012820Y011478D01*
X012820Y011576D02*
X012920Y011576D01*
X012920Y011675D02*
X012820Y011675D01*
X012820Y011773D02*
X012920Y011773D01*
X012920Y011872D02*
X012820Y011872D01*
X012820Y011970D02*
X010480Y011970D01*
X010480Y011872D02*
X010380Y011872D01*
X010380Y011970D02*
X003920Y011970D01*
X003920Y011872D02*
X003820Y011872D01*
X003820Y011970D02*
X001480Y011970D01*
X001480Y011880D02*
X001963Y011880D01*
X001951Y011805D01*
X001925Y011725D01*
X001887Y011650D01*
X001837Y011582D01*
X001778Y011523D01*
X001710Y011473D01*
X001635Y011435D01*
X001555Y011409D01*
X001480Y011397D01*
X001480Y011880D01*
X001480Y011872D02*
X001380Y011872D01*
X001380Y011773D02*
X001480Y011773D01*
X001480Y011675D02*
X001380Y011675D01*
X001380Y011576D02*
X001480Y011576D01*
X001480Y011478D02*
X001380Y011478D01*
X001715Y011478D02*
X003585Y011478D01*
X003469Y011576D02*
X001831Y011576D01*
X001899Y011675D02*
X003401Y011675D01*
X003360Y011773D02*
X001940Y011773D01*
X001961Y011872D02*
X003339Y011872D01*
X003354Y012069D02*
X001946Y012069D01*
X001908Y012167D02*
X003392Y012167D01*
X003454Y012266D02*
X001846Y012266D01*
X001741Y012364D02*
X003559Y012364D01*
X003820Y012364D02*
X003920Y012364D01*
X003920Y012266D02*
X003820Y012266D01*
X003820Y012167D02*
X003920Y012167D01*
X003920Y012069D02*
X003820Y012069D01*
X003820Y011773D02*
X003920Y011773D01*
X003920Y011675D02*
X003820Y011675D01*
X003820Y011576D02*
X003920Y011576D01*
X003920Y011478D02*
X003820Y011478D01*
X004155Y011478D02*
X010145Y011478D01*
X010029Y011576D02*
X004271Y011576D01*
X004339Y011675D02*
X009961Y011675D01*
X009920Y011773D02*
X004380Y011773D01*
X004401Y011872D02*
X009899Y011872D01*
X009914Y012069D02*
X004386Y012069D01*
X004348Y012167D02*
X009952Y012167D01*
X010014Y012266D02*
X004286Y012266D01*
X004181Y012364D02*
X010119Y012364D01*
X010380Y012364D02*
X010480Y012364D01*
X010480Y012266D02*
X010380Y012266D01*
X010380Y012167D02*
X010480Y012167D01*
X010480Y012069D02*
X010380Y012069D01*
X010380Y011773D02*
X010480Y011773D01*
X010480Y011675D02*
X010380Y011675D01*
X010380Y011576D02*
X010480Y011576D01*
X010480Y011478D02*
X010380Y011478D01*
X010715Y011478D02*
X012585Y011478D01*
X012469Y011576D02*
X010831Y011576D01*
X010899Y011675D02*
X012401Y011675D01*
X012360Y011773D02*
X010940Y011773D01*
X010961Y011872D02*
X012339Y011872D01*
X012354Y012069D02*
X010946Y012069D01*
X010908Y012167D02*
X012392Y012167D01*
X012454Y012266D02*
X010846Y012266D01*
X010741Y012364D02*
X012559Y012364D01*
X013181Y012364D02*
X013900Y012364D01*
X013900Y012266D02*
X013286Y012266D01*
X013348Y012167D02*
X013900Y012167D01*
X013900Y012069D02*
X013386Y012069D01*
X013900Y013645D02*
X000400Y013645D01*
X000400Y013743D02*
X013900Y013743D01*
X013900Y015024D02*
X000400Y015024D01*
X000400Y015122D02*
X013900Y015122D01*
X013900Y015221D02*
X000400Y015221D01*
X000400Y015319D02*
X013900Y015319D01*
X013900Y015418D02*
X000400Y015418D01*
X000400Y015516D02*
X013900Y015516D01*
X013900Y015615D02*
X000400Y015615D01*
X000400Y015713D02*
X013900Y015713D01*
X013900Y015812D02*
X000400Y015812D01*
X000400Y015910D02*
X013900Y015910D01*
X013900Y016009D02*
X000400Y016009D01*
X000400Y016107D02*
X013900Y016107D01*
X013900Y016206D02*
X000400Y016206D01*
X000400Y016304D02*
X013900Y016304D01*
X013900Y016403D02*
X000400Y016403D01*
X000400Y016501D02*
X013900Y016501D01*
X013900Y016600D02*
X000400Y016600D01*
X000400Y016698D02*
X013900Y016698D01*
X013900Y016797D02*
X000400Y016797D01*
X000400Y016895D02*
X013900Y016895D01*
X013900Y016994D02*
X000400Y016994D01*
X000400Y017092D02*
X013900Y017092D01*
X013900Y017191D02*
X000400Y017191D01*
X000400Y017289D02*
X013900Y017289D01*
X013900Y017388D02*
X000400Y017388D01*
X000400Y017486D02*
X013900Y017486D01*
X013900Y017585D02*
X000400Y017585D01*
X000400Y017683D02*
X013900Y017683D01*
X013900Y017782D02*
X000400Y017782D01*
X000400Y017880D02*
X013900Y017880D01*
X013900Y017979D02*
X000400Y017979D01*
X000400Y018077D02*
X013900Y018077D01*
X013900Y018176D02*
X000400Y018176D01*
X000400Y018274D02*
X013900Y018274D01*
X013900Y018373D02*
X000400Y018373D01*
X000400Y018471D02*
X013900Y018471D01*
X013900Y018570D02*
X000400Y018570D01*
X000400Y018668D02*
X013900Y018668D01*
X013900Y018767D02*
X000400Y018767D01*
X000400Y018865D02*
X013900Y018865D01*
X013900Y018964D02*
X000400Y018964D01*
X000400Y019062D02*
X013900Y019062D01*
X013900Y019161D02*
X000400Y019161D01*
X000400Y019259D02*
X013900Y019259D01*
X013900Y019358D02*
X000400Y019358D01*
X000400Y019456D02*
X013900Y019456D01*
X013900Y019555D02*
X000400Y019555D01*
X000400Y019653D02*
X013900Y019653D01*
X013900Y019752D02*
X000400Y019752D01*
X000400Y019850D02*
X013900Y019850D01*
X013900Y019949D02*
X000400Y019949D01*
X000400Y020047D02*
X013900Y020047D01*
X013900Y020146D02*
X000400Y020146D01*
X000400Y020244D02*
X013900Y020244D01*
X013900Y020343D02*
X000400Y020343D01*
X000400Y020441D02*
X001214Y020441D01*
X001225Y020435D02*
X001305Y020409D01*
X001380Y020397D01*
X001380Y020880D01*
X001480Y020880D01*
X001480Y020980D01*
X001963Y020980D01*
X001951Y021055D01*
X001925Y021135D01*
X001887Y021210D01*
X001837Y021278D01*
X001778Y021337D01*
X001710Y021387D01*
X001635Y021425D01*
X001555Y021451D01*
X001480Y021463D01*
X001480Y020980D01*
X001380Y020980D01*
X001380Y021463D01*
X001305Y021451D01*
X001225Y021425D01*
X001150Y021387D01*
X001082Y021337D01*
X001023Y021278D01*
X000973Y021210D01*
X000935Y021135D01*
X000909Y021055D01*
X000897Y020980D01*
X001380Y020980D01*
X001380Y020880D01*
X000897Y020880D01*
X000909Y020805D01*
X000935Y020725D01*
X000973Y020650D01*
X001023Y020582D01*
X001082Y020523D01*
X001150Y020473D01*
X001225Y020435D01*
X001380Y020441D02*
X001480Y020441D01*
X001480Y020397D02*
X001555Y020409D01*
X001635Y020435D01*
X001710Y020473D01*
X001778Y020523D01*
X001837Y020582D01*
X001887Y020650D01*
X001925Y020725D01*
X001951Y020805D01*
X001963Y020880D01*
X001480Y020880D01*
X001480Y020397D01*
X001480Y020540D02*
X001380Y020540D01*
X001380Y020638D02*
X001480Y020638D01*
X001480Y020737D02*
X001380Y020737D01*
X001380Y020835D02*
X001480Y020835D01*
X001480Y020934D02*
X003820Y020934D01*
X003820Y020980D02*
X003820Y020880D01*
X003920Y020880D01*
X003920Y020980D01*
X004403Y020980D01*
X004391Y021055D01*
X004365Y021135D01*
X004327Y021210D01*
X004277Y021278D01*
X004218Y021337D01*
X004150Y021387D01*
X004075Y021425D01*
X003995Y021451D01*
X003920Y021463D01*
X003920Y020980D01*
X003820Y020980D01*
X003820Y021463D01*
X003745Y021451D01*
X003665Y021425D01*
X003590Y021387D01*
X003522Y021337D01*
X003463Y021278D01*
X003413Y021210D01*
X003375Y021135D01*
X003349Y021055D01*
X003337Y020980D01*
X003820Y020980D01*
X003820Y021032D02*
X003920Y021032D01*
X003920Y020934D02*
X010380Y020934D01*
X010380Y020980D02*
X010380Y020880D01*
X010480Y020880D01*
X010480Y020980D01*
X010963Y020980D01*
X010951Y021055D01*
X010925Y021135D01*
X010887Y021210D01*
X010837Y021278D01*
X010778Y021337D01*
X010710Y021387D01*
X010635Y021425D01*
X010555Y021451D01*
X010480Y021463D01*
X010480Y020980D01*
X010380Y020980D01*
X010380Y021463D01*
X010305Y021451D01*
X010225Y021425D01*
X010150Y021387D01*
X010082Y021337D01*
X010023Y021278D01*
X009973Y021210D01*
X009935Y021135D01*
X009909Y021055D01*
X009897Y020980D01*
X010380Y020980D01*
X010380Y021032D02*
X010480Y021032D01*
X010480Y020934D02*
X012820Y020934D01*
X012820Y020980D02*
X012820Y020880D01*
X012920Y020880D01*
X012920Y020980D01*
X013403Y020980D01*
X013391Y021055D01*
X013365Y021135D01*
X013327Y021210D01*
X013277Y021278D01*
X013218Y021337D01*
X013150Y021387D01*
X013075Y021425D01*
X012995Y021451D01*
X012920Y021463D01*
X012920Y020980D01*
X012820Y020980D01*
X012820Y021463D01*
X012745Y021451D01*
X012665Y021425D01*
X012590Y021387D01*
X012522Y021337D01*
X012463Y021278D01*
X012413Y021210D01*
X012375Y021135D01*
X012349Y021055D01*
X012337Y020980D01*
X012820Y020980D01*
X012820Y021032D02*
X012920Y021032D01*
X012920Y020934D02*
X013900Y020934D01*
X013900Y021032D02*
X013394Y021032D01*
X013366Y021131D02*
X013900Y021131D01*
X013900Y021229D02*
X013313Y021229D01*
X013227Y021328D02*
X013900Y021328D01*
X013900Y021426D02*
X013071Y021426D01*
X012920Y021426D02*
X012820Y021426D01*
X012820Y021328D02*
X012920Y021328D01*
X012920Y021229D02*
X012820Y021229D01*
X012820Y021131D02*
X012920Y021131D01*
X012920Y020880D02*
X013403Y020880D01*
X013391Y020805D01*
X013365Y020725D01*
X013327Y020650D01*
X013277Y020582D01*
X013218Y020523D01*
X013150Y020473D01*
X013075Y020435D01*
X012995Y020409D01*
X012920Y020397D01*
X012920Y020880D01*
X012920Y020835D02*
X012820Y020835D01*
X012820Y020880D02*
X012820Y020397D01*
X012745Y020409D01*
X012665Y020435D01*
X012590Y020473D01*
X012522Y020523D01*
X012463Y020582D01*
X012413Y020650D01*
X012375Y020725D01*
X012349Y020805D01*
X012337Y020880D01*
X012820Y020880D01*
X012820Y020737D02*
X012920Y020737D01*
X012920Y020638D02*
X012820Y020638D01*
X012820Y020540D02*
X012920Y020540D01*
X012920Y020441D02*
X012820Y020441D01*
X012654Y020441D02*
X010646Y020441D01*
X010635Y020435D02*
X010710Y020473D01*
X010778Y020523D01*
X010837Y020582D01*
X010887Y020650D01*
X010925Y020725D01*
X010951Y020805D01*
X010963Y020880D01*
X010480Y020880D01*
X010480Y020397D01*
X010555Y020409D01*
X010635Y020435D01*
X010480Y020441D02*
X010380Y020441D01*
X010380Y020397D02*
X010380Y020880D01*
X009897Y020880D01*
X009909Y020805D01*
X009935Y020725D01*
X009973Y020650D01*
X010023Y020582D01*
X010082Y020523D01*
X010150Y020473D01*
X010225Y020435D01*
X010305Y020409D01*
X010380Y020397D01*
X010380Y020540D02*
X010480Y020540D01*
X010480Y020638D02*
X010380Y020638D01*
X010380Y020737D02*
X010480Y020737D01*
X010480Y020835D02*
X010380Y020835D01*
X010380Y021131D02*
X010480Y021131D01*
X010480Y021229D02*
X010380Y021229D01*
X010380Y021328D02*
X010480Y021328D01*
X010480Y021426D02*
X010380Y021426D01*
X010229Y021426D02*
X004071Y021426D01*
X003920Y021426D02*
X003820Y021426D01*
X003820Y021328D02*
X003920Y021328D01*
X003920Y021229D02*
X003820Y021229D01*
X003820Y021131D02*
X003920Y021131D01*
X003920Y020880D02*
X004403Y020880D01*
X004391Y020805D01*
X004365Y020725D01*
X004327Y020650D01*
X004277Y020582D01*
X004218Y020523D01*
X004150Y020473D01*
X004075Y020435D01*
X003995Y020409D01*
X003920Y020397D01*
X003920Y020880D01*
X003920Y020835D02*
X003820Y020835D01*
X003820Y020880D02*
X003820Y020397D01*
X003745Y020409D01*
X003665Y020435D01*
X003590Y020473D01*
X003522Y020523D01*
X003463Y020582D01*
X003413Y020650D01*
X003375Y020725D01*
X003349Y020805D01*
X003337Y020880D01*
X003820Y020880D01*
X003820Y020737D02*
X003920Y020737D01*
X003920Y020638D02*
X003820Y020638D01*
X003820Y020540D02*
X003920Y020540D01*
X003920Y020441D02*
X003820Y020441D01*
X003654Y020441D02*
X001646Y020441D01*
X001795Y020540D02*
X003505Y020540D01*
X003422Y020638D02*
X001878Y020638D01*
X001928Y020737D02*
X003372Y020737D01*
X003345Y020835D02*
X001955Y020835D01*
X001954Y021032D02*
X003346Y021032D01*
X003374Y021131D02*
X001926Y021131D01*
X001873Y021229D02*
X003427Y021229D01*
X003513Y021328D02*
X001787Y021328D01*
X001631Y021426D02*
X003669Y021426D01*
X004086Y020441D02*
X010214Y020441D01*
X010065Y020540D02*
X004235Y020540D01*
X004318Y020638D02*
X009982Y020638D01*
X009932Y020737D02*
X004368Y020737D01*
X004395Y020835D02*
X009905Y020835D01*
X009906Y021032D02*
X004394Y021032D01*
X004366Y021131D02*
X009934Y021131D01*
X009987Y021229D02*
X004313Y021229D01*
X004227Y021328D02*
X010073Y021328D01*
X010631Y021426D02*
X012669Y021426D01*
X012513Y021328D02*
X010787Y021328D01*
X010873Y021229D02*
X012427Y021229D01*
X012374Y021131D02*
X010926Y021131D01*
X010954Y021032D02*
X012346Y021032D01*
X012345Y020835D02*
X010955Y020835D01*
X010928Y020737D02*
X012372Y020737D01*
X012422Y020638D02*
X010878Y020638D01*
X010795Y020540D02*
X012505Y020540D01*
X013086Y020441D02*
X013900Y020441D01*
X013900Y020540D02*
X013235Y020540D01*
X013318Y020638D02*
X013900Y020638D01*
X013900Y020737D02*
X013368Y020737D01*
X013395Y020835D02*
X013900Y020835D01*
X013900Y021525D02*
X000400Y021525D01*
X000400Y021623D02*
X013900Y021623D01*
X013900Y021722D02*
X011829Y021722D01*
X011913Y021756D02*
X011742Y021686D01*
X011558Y021686D01*
X011387Y021756D01*
X011256Y021887D01*
X011186Y022058D01*
X011186Y022242D01*
X011256Y022413D01*
X011387Y022544D01*
X011558Y022614D01*
X011742Y022614D01*
X011913Y022544D01*
X012044Y022413D01*
X012114Y022242D01*
X012114Y022058D01*
X012044Y021887D01*
X011913Y021756D01*
X011977Y021820D02*
X013900Y021820D01*
X013900Y021919D02*
X012057Y021919D01*
X012098Y022017D02*
X013900Y022017D01*
X013900Y022116D02*
X012114Y022116D01*
X012114Y022214D02*
X013900Y022214D01*
X013900Y022313D02*
X012085Y022313D01*
X012044Y022411D02*
X013900Y022411D01*
X013900Y022510D02*
X011947Y022510D01*
X011758Y022608D02*
X013900Y022608D01*
X013900Y022707D02*
X000400Y022707D01*
X000400Y022805D02*
X013900Y022805D01*
X013900Y022904D02*
X013130Y022904D01*
X013150Y022913D02*
X013218Y022963D01*
X013277Y023022D01*
X013327Y023090D01*
X013365Y023165D01*
X013391Y023245D01*
X013403Y023320D01*
X012920Y023320D01*
X012920Y023420D01*
X013403Y023420D01*
X013391Y023495D01*
X013365Y023575D01*
X013327Y023650D01*
X013277Y023718D01*
X013218Y023777D01*
X013150Y023827D01*
X013075Y023865D01*
X012995Y023891D01*
X012920Y023903D01*
X012920Y023420D01*
X012820Y023420D01*
X012820Y023903D01*
X012745Y023891D01*
X012665Y023865D01*
X012590Y023827D01*
X012522Y023777D01*
X012463Y023718D01*
X012413Y023650D01*
X012375Y023575D01*
X012349Y023495D01*
X012337Y023420D01*
X012820Y023420D01*
X012820Y023320D01*
X012920Y023320D01*
X012920Y022837D01*
X012995Y022849D01*
X013075Y022875D01*
X013150Y022913D01*
X013257Y023002D02*
X013900Y023002D01*
X013900Y023101D02*
X013332Y023101D01*
X013376Y023199D02*
X013900Y023199D01*
X013900Y023298D02*
X013399Y023298D01*
X013391Y023495D02*
X013900Y023495D01*
X013900Y023593D02*
X013356Y023593D01*
X013296Y023692D02*
X013900Y023692D01*
X013900Y023790D02*
X013200Y023790D01*
X013002Y023889D02*
X013900Y023889D01*
X013900Y023987D02*
X000400Y023987D01*
X000400Y023889D02*
X001298Y023889D01*
X001305Y023891D02*
X001225Y023865D01*
X001150Y023827D01*
X001082Y023777D01*
X001023Y023718D01*
X000973Y023650D01*
X000935Y023575D01*
X000909Y023495D01*
X000897Y023420D01*
X001380Y023420D01*
X001380Y023903D01*
X001305Y023891D01*
X001380Y023889D02*
X001480Y023889D01*
X001480Y023903D02*
X001555Y023891D01*
X001635Y023865D01*
X001710Y023827D01*
X001778Y023777D01*
X001837Y023718D01*
X001887Y023650D01*
X001925Y023575D01*
X001951Y023495D01*
X001963Y023420D01*
X001480Y023420D01*
X001480Y023320D01*
X001963Y023320D01*
X001951Y023245D01*
X001925Y023165D01*
X001887Y023090D01*
X001837Y023022D01*
X001778Y022963D01*
X001710Y022913D01*
X001635Y022875D01*
X001555Y022849D01*
X001480Y022837D01*
X001480Y023320D01*
X001380Y023320D01*
X001380Y022837D01*
X001305Y022849D01*
X001225Y022875D01*
X001150Y022913D01*
X001082Y022963D01*
X001023Y023022D01*
X000973Y023090D01*
X000935Y023165D01*
X000909Y023245D01*
X000897Y023320D01*
X001380Y023320D01*
X001380Y023420D01*
X001480Y023420D01*
X001480Y023903D01*
X001562Y023889D02*
X003738Y023889D01*
X003745Y023891D02*
X003665Y023865D01*
X003590Y023827D01*
X003522Y023777D01*
X003463Y023718D01*
X003413Y023650D01*
X003375Y023575D01*
X003349Y023495D01*
X003337Y023420D01*
X003820Y023420D01*
X003820Y023903D01*
X003745Y023891D01*
X003820Y023889D02*
X003920Y023889D01*
X003920Y023903D02*
X003995Y023891D01*
X004075Y023865D01*
X004150Y023827D01*
X004218Y023777D01*
X004277Y023718D01*
X004327Y023650D01*
X004365Y023575D01*
X004391Y023495D01*
X004403Y023420D01*
X003920Y023420D01*
X003920Y023320D01*
X004403Y023320D01*
X004391Y023245D01*
X004365Y023165D01*
X004327Y023090D01*
X004277Y023022D01*
X004218Y022963D01*
X004150Y022913D01*
X004075Y022875D01*
X003995Y022849D01*
X003920Y022837D01*
X003920Y023320D01*
X003820Y023320D01*
X003820Y022837D01*
X003745Y022849D01*
X003665Y022875D01*
X003590Y022913D01*
X003522Y022963D01*
X003463Y023022D01*
X003413Y023090D01*
X003375Y023165D01*
X003349Y023245D01*
X003337Y023320D01*
X003820Y023320D01*
X003820Y023420D01*
X003920Y023420D01*
X003920Y023903D01*
X004002Y023889D02*
X010298Y023889D01*
X010305Y023891D02*
X010225Y023865D01*
X010150Y023827D01*
X010082Y023777D01*
X010023Y023718D01*
X009973Y023650D01*
X009935Y023575D01*
X009909Y023495D01*
X009897Y023420D01*
X010380Y023420D01*
X010380Y023903D01*
X010305Y023891D01*
X010380Y023889D02*
X010480Y023889D01*
X010480Y023903D02*
X010555Y023891D01*
X010635Y023865D01*
X010710Y023827D01*
X010778Y023777D01*
X010837Y023718D01*
X010887Y023650D01*
X010925Y023575D01*
X010951Y023495D01*
X010963Y023420D01*
X010480Y023420D01*
X010480Y023320D01*
X010963Y023320D01*
X010951Y023245D01*
X010925Y023165D01*
X010887Y023090D01*
X010837Y023022D01*
X010778Y022963D01*
X010710Y022913D01*
X010635Y022875D01*
X010555Y022849D01*
X010480Y022837D01*
X010480Y023320D01*
X010380Y023320D01*
X010380Y022837D01*
X010305Y022849D01*
X010225Y022875D01*
X010150Y022913D01*
X010082Y022963D01*
X010023Y023022D01*
X009973Y023090D01*
X009935Y023165D01*
X009909Y023245D01*
X009897Y023320D01*
X010380Y023320D01*
X010380Y023420D01*
X010480Y023420D01*
X010480Y023903D01*
X010562Y023889D02*
X012738Y023889D01*
X012820Y023889D02*
X012920Y023889D01*
X012920Y023790D02*
X012820Y023790D01*
X012820Y023692D02*
X012920Y023692D01*
X012920Y023593D02*
X012820Y023593D01*
X012820Y023495D02*
X012920Y023495D01*
X012920Y023396D02*
X013900Y023396D01*
X013900Y024086D02*
X000400Y024086D01*
X000400Y024184D02*
X013900Y024184D01*
X013900Y024283D02*
X000400Y024283D01*
X000400Y024381D02*
X013900Y024381D01*
X013900Y024480D02*
X000400Y024480D01*
X000400Y024578D02*
X013900Y024578D01*
X013900Y024677D02*
X000400Y024677D01*
X000400Y024775D02*
X013900Y024775D01*
X013900Y024874D02*
X000400Y024874D01*
X000400Y024972D02*
X013900Y024972D01*
X013900Y025071D02*
X000400Y025071D01*
X000400Y025169D02*
X013900Y025169D01*
X013900Y025268D02*
X000400Y025268D01*
X000400Y025366D02*
X013900Y025366D01*
X013900Y025465D02*
X000400Y025465D01*
X000400Y025563D02*
X013900Y025563D01*
X013900Y025662D02*
X000400Y025662D01*
X000400Y025760D02*
X013900Y025760D01*
X013900Y025859D02*
X000400Y025859D01*
X000400Y025957D02*
X013900Y025957D01*
X013900Y026056D02*
X000400Y026056D01*
X000400Y026154D02*
X013900Y026154D01*
X013900Y026253D02*
X000400Y026253D01*
X000400Y026351D02*
X013900Y026351D01*
X013900Y026450D02*
X000400Y026450D01*
X000400Y026548D02*
X013900Y026548D01*
X013900Y026647D02*
X000400Y026647D01*
X000400Y026745D02*
X013900Y026745D01*
X013900Y026844D02*
X000400Y026844D01*
X000400Y026942D02*
X013900Y026942D01*
X013900Y027041D02*
X000400Y027041D01*
X000400Y027139D02*
X013900Y027139D01*
X013900Y027238D02*
X000400Y027238D01*
X000400Y027336D02*
X013900Y027336D01*
X013900Y027435D02*
X000400Y027435D01*
X000400Y027533D02*
X013900Y027533D01*
X013900Y027632D02*
X000400Y027632D01*
X000400Y027730D02*
X013900Y027730D01*
X013900Y027829D02*
X000400Y027829D01*
X000400Y027927D02*
X013900Y027927D01*
X013900Y028026D02*
X000400Y028026D01*
X000400Y028124D02*
X013900Y028124D01*
X013900Y028223D02*
X000400Y028223D01*
X000400Y028321D02*
X013900Y028321D01*
X013900Y028420D02*
X000400Y028420D01*
X000400Y028518D02*
X013900Y028518D01*
X013900Y028617D02*
X000400Y028617D01*
X000400Y028715D02*
X013900Y028715D01*
X013900Y028814D02*
X000400Y028814D01*
X000400Y028912D02*
X013900Y028912D01*
X013900Y029011D02*
X000400Y029011D01*
X000400Y029109D02*
X013900Y029109D01*
X013900Y029208D02*
X000400Y029208D01*
X000400Y029306D02*
X013900Y029306D01*
X013900Y029405D02*
X012965Y029405D01*
X012995Y029409D02*
X013075Y029435D01*
X013150Y029473D01*
X013218Y029523D01*
X013277Y029582D01*
X013327Y029650D01*
X013365Y029725D01*
X013391Y029805D01*
X013403Y029880D01*
X012920Y029880D01*
X012920Y029980D01*
X013403Y029980D01*
X013391Y030055D01*
X013365Y030135D01*
X013327Y030210D01*
X013277Y030278D01*
X013218Y030337D01*
X013150Y030387D01*
X013075Y030425D01*
X012995Y030451D01*
X012920Y030463D01*
X012920Y029980D01*
X012820Y029980D01*
X012820Y030463D01*
X012745Y030451D01*
X012665Y030425D01*
X012590Y030387D01*
X012522Y030337D01*
X012463Y030278D01*
X012413Y030210D01*
X012375Y030135D01*
X012349Y030055D01*
X012337Y029980D01*
X012820Y029980D01*
X012820Y029880D01*
X012920Y029880D01*
X012920Y029397D01*
X012995Y029409D01*
X012920Y029405D02*
X012820Y029405D01*
X012820Y029397D02*
X012820Y029880D01*
X012337Y029880D01*
X012349Y029805D01*
X012375Y029725D01*
X012413Y029650D01*
X012463Y029582D01*
X012522Y029523D01*
X012590Y029473D01*
X012665Y029435D01*
X012745Y029409D01*
X012820Y029397D01*
X012775Y029405D02*
X010525Y029405D01*
X010555Y029409D02*
X010635Y029435D01*
X010710Y029473D01*
X010778Y029523D01*
X010837Y029582D01*
X010887Y029650D01*
X010925Y029725D01*
X010951Y029805D01*
X010963Y029880D01*
X010480Y029880D01*
X010480Y029980D01*
X010963Y029980D01*
X010951Y030055D01*
X010925Y030135D01*
X010887Y030210D01*
X010837Y030278D01*
X010778Y030337D01*
X010710Y030387D01*
X010635Y030425D01*
X010555Y030451D01*
X010480Y030463D01*
X010480Y029980D01*
X010380Y029980D01*
X010380Y030463D01*
X010305Y030451D01*
X010225Y030425D01*
X010150Y030387D01*
X010082Y030337D01*
X010023Y030278D01*
X009973Y030210D01*
X009935Y030135D01*
X009909Y030055D01*
X009897Y029980D01*
X010380Y029980D01*
X010380Y029880D01*
X010480Y029880D01*
X010480Y029397D01*
X010555Y029409D01*
X010480Y029405D02*
X010380Y029405D01*
X010380Y029397D02*
X010380Y029880D01*
X009897Y029880D01*
X009909Y029805D01*
X009935Y029725D01*
X009973Y029650D01*
X010023Y029582D01*
X010082Y029523D01*
X010150Y029473D01*
X010225Y029435D01*
X010305Y029409D01*
X010380Y029397D01*
X010335Y029405D02*
X003965Y029405D01*
X003995Y029409D02*
X004075Y029435D01*
X004150Y029473D01*
X004218Y029523D01*
X004277Y029582D01*
X004327Y029650D01*
X004365Y029725D01*
X004391Y029805D01*
X004403Y029880D01*
X003920Y029880D01*
X003920Y029980D01*
X004403Y029980D01*
X004391Y030055D01*
X004365Y030135D01*
X004327Y030210D01*
X004277Y030278D01*
X004218Y030337D01*
X004150Y030387D01*
X004075Y030425D01*
X003995Y030451D01*
X003920Y030463D01*
X003920Y029980D01*
X003820Y029980D01*
X003820Y030463D01*
X003745Y030451D01*
X003665Y030425D01*
X003590Y030387D01*
X003522Y030337D01*
X003463Y030278D01*
X003413Y030210D01*
X003375Y030135D01*
X003349Y030055D01*
X003337Y029980D01*
X003820Y029980D01*
X003820Y029880D01*
X003920Y029880D01*
X003920Y029397D01*
X003995Y029409D01*
X003920Y029405D02*
X003820Y029405D01*
X003820Y029397D02*
X003820Y029880D01*
X003337Y029880D01*
X003349Y029805D01*
X003375Y029725D01*
X003413Y029650D01*
X003463Y029582D01*
X003522Y029523D01*
X003590Y029473D01*
X003665Y029435D01*
X003745Y029409D01*
X003820Y029397D01*
X003775Y029405D02*
X001525Y029405D01*
X001555Y029409D02*
X001635Y029435D01*
X001710Y029473D01*
X001778Y029523D01*
X001837Y029582D01*
X001887Y029650D01*
X001925Y029725D01*
X001951Y029805D01*
X001963Y029880D01*
X001480Y029880D01*
X001480Y029980D01*
X001963Y029980D01*
X001951Y030055D01*
X001925Y030135D01*
X001887Y030210D01*
X001837Y030278D01*
X001778Y030337D01*
X001710Y030387D01*
X001635Y030425D01*
X001555Y030451D01*
X001480Y030463D01*
X001480Y029980D01*
X001380Y029980D01*
X001380Y030463D01*
X001305Y030451D01*
X001225Y030425D01*
X001150Y030387D01*
X001082Y030337D01*
X001023Y030278D01*
X000973Y030210D01*
X000935Y030135D01*
X000909Y030055D01*
X000897Y029980D01*
X001380Y029980D01*
X001380Y029880D01*
X001480Y029880D01*
X001480Y029397D01*
X001555Y029409D01*
X001480Y029405D02*
X001380Y029405D01*
X001380Y029397D02*
X001380Y029880D01*
X000897Y029880D01*
X000909Y029805D01*
X000935Y029725D01*
X000973Y029650D01*
X001023Y029582D01*
X001082Y029523D01*
X001150Y029473D01*
X001225Y029435D01*
X001305Y029409D01*
X001380Y029397D01*
X001335Y029405D02*
X000400Y029405D01*
X000400Y029503D02*
X001109Y029503D01*
X001009Y029602D02*
X000400Y029602D01*
X000400Y029700D02*
X000948Y029700D01*
X000911Y029799D02*
X000400Y029799D01*
X000400Y029897D02*
X001380Y029897D01*
X001380Y029799D02*
X001480Y029799D01*
X001480Y029897D02*
X003820Y029897D01*
X003820Y029799D02*
X003920Y029799D01*
X003920Y029897D02*
X010380Y029897D01*
X010380Y029799D02*
X010480Y029799D01*
X010480Y029897D02*
X012820Y029897D01*
X012820Y029799D02*
X012920Y029799D01*
X012920Y029897D02*
X013900Y029897D01*
X013900Y029799D02*
X013389Y029799D01*
X013352Y029700D02*
X013900Y029700D01*
X013900Y029602D02*
X013291Y029602D01*
X013191Y029503D02*
X013900Y029503D01*
X013900Y029996D02*
X013400Y029996D01*
X013378Y030094D02*
X013900Y030094D01*
X013900Y030193D02*
X013335Y030193D01*
X013264Y030291D02*
X013900Y030291D01*
X013900Y030390D02*
X013144Y030390D01*
X012920Y030390D02*
X012820Y030390D01*
X012820Y030291D02*
X012920Y030291D01*
X012920Y030193D02*
X012820Y030193D01*
X012820Y030094D02*
X012920Y030094D01*
X012920Y029996D02*
X012820Y029996D01*
X012820Y029700D02*
X012920Y029700D01*
X012920Y029602D02*
X012820Y029602D01*
X012820Y029503D02*
X012920Y029503D01*
X012549Y029503D02*
X010751Y029503D01*
X010851Y029602D02*
X012449Y029602D01*
X012388Y029700D02*
X010912Y029700D01*
X010949Y029799D02*
X012351Y029799D01*
X012340Y029996D02*
X010960Y029996D01*
X010938Y030094D02*
X012362Y030094D01*
X012405Y030193D02*
X010895Y030193D01*
X010824Y030291D02*
X012476Y030291D01*
X012596Y030390D02*
X010704Y030390D01*
X010480Y030390D02*
X010380Y030390D01*
X010380Y030291D02*
X010480Y030291D01*
X010480Y030193D02*
X010380Y030193D01*
X010380Y030094D02*
X010480Y030094D01*
X010480Y029996D02*
X010380Y029996D01*
X010380Y029700D02*
X010480Y029700D01*
X010480Y029602D02*
X010380Y029602D01*
X010380Y029503D02*
X010480Y029503D01*
X010109Y029503D02*
X004191Y029503D01*
X004291Y029602D02*
X010009Y029602D01*
X009948Y029700D02*
X004352Y029700D01*
X004389Y029799D02*
X009911Y029799D01*
X009900Y029996D02*
X004400Y029996D01*
X004378Y030094D02*
X009922Y030094D01*
X009965Y030193D02*
X004335Y030193D01*
X004264Y030291D02*
X010036Y030291D01*
X010156Y030390D02*
X004144Y030390D01*
X003920Y030390D02*
X003820Y030390D01*
X003820Y030291D02*
X003920Y030291D01*
X003920Y030193D02*
X003820Y030193D01*
X003820Y030094D02*
X003920Y030094D01*
X003920Y029996D02*
X003820Y029996D01*
X003820Y029700D02*
X003920Y029700D01*
X003920Y029602D02*
X003820Y029602D01*
X003820Y029503D02*
X003920Y029503D01*
X003549Y029503D02*
X001751Y029503D01*
X001851Y029602D02*
X003449Y029602D01*
X003388Y029700D02*
X001912Y029700D01*
X001949Y029799D02*
X003351Y029799D01*
X003340Y029996D02*
X001960Y029996D01*
X001938Y030094D02*
X003362Y030094D01*
X003405Y030193D02*
X001895Y030193D01*
X001824Y030291D02*
X003476Y030291D01*
X003596Y030390D02*
X001704Y030390D01*
X001480Y030390D02*
X001380Y030390D01*
X001380Y030291D02*
X001480Y030291D01*
X001480Y030193D02*
X001380Y030193D01*
X001380Y030094D02*
X001480Y030094D01*
X001480Y029996D02*
X001380Y029996D01*
X001380Y029700D02*
X001480Y029700D01*
X001480Y029602D02*
X001380Y029602D01*
X001380Y029503D02*
X001480Y029503D01*
X001036Y030291D02*
X000400Y030291D01*
X000400Y030193D02*
X000965Y030193D01*
X000922Y030094D02*
X000400Y030094D01*
X000400Y029996D02*
X000900Y029996D01*
X001156Y030390D02*
X000400Y030390D01*
X000400Y030488D02*
X013900Y030488D01*
X013900Y030587D02*
X000400Y030587D01*
X000400Y030685D02*
X013900Y030685D01*
X013900Y030784D02*
X011940Y030784D01*
X011913Y030756D02*
X012044Y030887D01*
X012114Y031058D01*
X012114Y031242D01*
X012044Y031413D01*
X011913Y031544D01*
X011742Y031614D01*
X011558Y031614D01*
X011387Y031544D01*
X011256Y031413D01*
X011186Y031242D01*
X011186Y031058D01*
X011256Y030887D01*
X011387Y030756D01*
X011558Y030686D01*
X011742Y030686D01*
X011913Y030756D01*
X012039Y030882D02*
X013900Y030882D01*
X013900Y030981D02*
X012082Y030981D01*
X012114Y031079D02*
X013900Y031079D01*
X013900Y031178D02*
X012114Y031178D01*
X012100Y031276D02*
X013900Y031276D01*
X013900Y031375D02*
X012060Y031375D01*
X011984Y031473D02*
X013900Y031473D01*
X013900Y031572D02*
X011846Y031572D01*
X011454Y031572D02*
X002846Y031572D01*
X002913Y031544D02*
X002742Y031614D01*
X002558Y031614D01*
X002387Y031544D01*
X002256Y031413D01*
X002186Y031242D01*
X002186Y031058D01*
X002256Y030887D01*
X002387Y030756D01*
X002558Y030686D01*
X002742Y030686D01*
X002913Y030756D01*
X003044Y030887D01*
X003114Y031058D01*
X003114Y031242D01*
X003044Y031413D01*
X002913Y031544D01*
X002984Y031473D02*
X011316Y031473D01*
X011240Y031375D02*
X003060Y031375D01*
X003100Y031276D02*
X011200Y031276D01*
X011186Y031178D02*
X003114Y031178D01*
X003114Y031079D02*
X011186Y031079D01*
X011218Y030981D02*
X003082Y030981D01*
X003039Y030882D02*
X011261Y030882D01*
X011360Y030784D02*
X002940Y030784D01*
X002454Y031572D02*
X000400Y031572D01*
X000400Y031670D02*
X013900Y031670D01*
X013900Y031769D02*
X000400Y031769D01*
X000400Y031867D02*
X001250Y031867D01*
X001225Y031875D02*
X001305Y031849D01*
X001380Y031837D01*
X001380Y032320D01*
X001480Y032320D01*
X001480Y032420D01*
X001963Y032420D01*
X001951Y032495D01*
X001925Y032575D01*
X001887Y032650D01*
X001837Y032718D01*
X001778Y032777D01*
X001710Y032827D01*
X001635Y032865D01*
X001555Y032891D01*
X001480Y032903D01*
X001480Y032420D01*
X001380Y032420D01*
X001380Y032903D01*
X001305Y032891D01*
X001225Y032865D01*
X001150Y032827D01*
X001082Y032777D01*
X001023Y032718D01*
X000973Y032650D01*
X000935Y032575D01*
X000909Y032495D01*
X000897Y032420D01*
X001380Y032420D01*
X001380Y032320D01*
X000897Y032320D01*
X000909Y032245D01*
X000935Y032165D01*
X000973Y032090D01*
X001023Y032022D01*
X001082Y031963D01*
X001150Y031913D01*
X001225Y031875D01*
X001380Y031867D02*
X001480Y031867D01*
X001480Y031837D02*
X001555Y031849D01*
X001635Y031875D01*
X001710Y031913D01*
X001778Y031963D01*
X001837Y032022D01*
X001887Y032090D01*
X001925Y032165D01*
X001951Y032245D01*
X001963Y032320D01*
X001480Y032320D01*
X001480Y031837D01*
X001480Y031966D02*
X001380Y031966D01*
X001380Y032064D02*
X001480Y032064D01*
X001480Y032163D02*
X001380Y032163D01*
X001380Y032261D02*
X001480Y032261D01*
X001480Y032360D02*
X003820Y032360D01*
X003820Y032320D02*
X003337Y032320D01*
X003349Y032245D01*
X003375Y032165D01*
X003413Y032090D01*
X003463Y032022D01*
X003522Y031963D01*
X003590Y031913D01*
X003665Y031875D01*
X003745Y031849D01*
X003820Y031837D01*
X003820Y032320D01*
X003920Y032320D01*
X003920Y032420D01*
X004403Y032420D01*
X004391Y032495D01*
X004365Y032575D01*
X004327Y032650D01*
X004277Y032718D01*
X004218Y032777D01*
X004150Y032827D01*
X004075Y032865D01*
X003995Y032891D01*
X003920Y032903D01*
X003920Y032420D01*
X003820Y032420D01*
X003820Y032903D01*
X003745Y032891D01*
X003665Y032865D01*
X003590Y032827D01*
X003522Y032777D01*
X003463Y032718D01*
X003413Y032650D01*
X003375Y032575D01*
X003349Y032495D01*
X003337Y032420D01*
X003820Y032420D01*
X003820Y032320D01*
X003820Y032261D02*
X003920Y032261D01*
X003920Y032320D02*
X003920Y031837D01*
X003995Y031849D01*
X004075Y031875D01*
X004150Y031913D01*
X004218Y031963D01*
X004277Y032022D01*
X004327Y032090D01*
X004365Y032165D01*
X004391Y032245D01*
X004403Y032320D01*
X003920Y032320D01*
X003920Y032360D02*
X010380Y032360D01*
X010380Y032320D02*
X009897Y032320D01*
X009909Y032245D01*
X009935Y032165D01*
X009973Y032090D01*
X010023Y032022D01*
X010082Y031963D01*
X010150Y031913D01*
X010225Y031875D01*
X010305Y031849D01*
X010380Y031837D01*
X010380Y032320D01*
X010480Y032320D01*
X010480Y032420D01*
X010963Y032420D01*
X010951Y032495D01*
X010925Y032575D01*
X010887Y032650D01*
X010837Y032718D01*
X010778Y032777D01*
X010710Y032827D01*
X010635Y032865D01*
X010555Y032891D01*
X010480Y032903D01*
X010480Y032420D01*
X010380Y032420D01*
X010380Y032903D01*
X010305Y032891D01*
X010225Y032865D01*
X010150Y032827D01*
X010082Y032777D01*
X010023Y032718D01*
X009973Y032650D01*
X009935Y032575D01*
X009909Y032495D01*
X009897Y032420D01*
X010380Y032420D01*
X010380Y032320D01*
X010380Y032261D02*
X010480Y032261D01*
X010480Y032320D02*
X010480Y031837D01*
X010555Y031849D01*
X010635Y031875D01*
X010710Y031913D01*
X010778Y031963D01*
X010837Y032022D01*
X010887Y032090D01*
X010925Y032165D01*
X010951Y032245D01*
X010963Y032320D01*
X010480Y032320D01*
X010480Y032360D02*
X012820Y032360D01*
X012820Y032320D02*
X012337Y032320D01*
X012349Y032245D01*
X012375Y032165D01*
X012413Y032090D01*
X012463Y032022D01*
X012522Y031963D01*
X012590Y031913D01*
X012665Y031875D01*
X012745Y031849D01*
X012820Y031837D01*
X012820Y032320D01*
X012920Y032320D01*
X012920Y032420D01*
X013403Y032420D01*
X013391Y032495D01*
X013365Y032575D01*
X013327Y032650D01*
X013277Y032718D01*
X013218Y032777D01*
X013150Y032827D01*
X013075Y032865D01*
X012995Y032891D01*
X012920Y032903D01*
X012920Y032420D01*
X012820Y032420D01*
X012820Y032903D01*
X012745Y032891D01*
X012665Y032865D01*
X012590Y032827D01*
X012522Y032777D01*
X012463Y032718D01*
X012413Y032650D01*
X012375Y032575D01*
X012349Y032495D01*
X012337Y032420D01*
X012820Y032420D01*
X012820Y032320D01*
X012820Y032261D02*
X012920Y032261D01*
X012920Y032320D02*
X012920Y031837D01*
X012995Y031849D01*
X013075Y031875D01*
X013150Y031913D01*
X013218Y031963D01*
X013277Y032022D01*
X013327Y032090D01*
X013365Y032165D01*
X013391Y032245D01*
X013403Y032320D01*
X012920Y032320D01*
X012920Y032360D02*
X013900Y032360D01*
X013900Y032458D02*
X013397Y032458D01*
X013371Y032557D02*
X013900Y032557D01*
X013900Y032655D02*
X013323Y032655D01*
X013241Y032754D02*
X013900Y032754D01*
X013900Y032852D02*
X013100Y032852D01*
X012920Y032852D02*
X012820Y032852D01*
X012820Y032754D02*
X012920Y032754D01*
X012920Y032655D02*
X012820Y032655D01*
X012820Y032557D02*
X012920Y032557D01*
X012920Y032458D02*
X012820Y032458D01*
X012820Y032163D02*
X012920Y032163D01*
X012920Y032064D02*
X012820Y032064D01*
X012820Y031966D02*
X012920Y031966D01*
X012920Y031867D02*
X012820Y031867D01*
X012690Y031867D02*
X010610Y031867D01*
X010480Y031867D02*
X010380Y031867D01*
X010380Y031966D02*
X010480Y031966D01*
X010480Y032064D02*
X010380Y032064D01*
X010380Y032163D02*
X010480Y032163D01*
X010480Y032458D02*
X010380Y032458D01*
X010380Y032557D02*
X010480Y032557D01*
X010480Y032655D02*
X010380Y032655D01*
X010380Y032754D02*
X010480Y032754D01*
X010480Y032852D02*
X010380Y032852D01*
X010200Y032852D02*
X004100Y032852D01*
X004241Y032754D02*
X010059Y032754D01*
X009977Y032655D02*
X004323Y032655D01*
X004371Y032557D02*
X009929Y032557D01*
X009903Y032458D02*
X004397Y032458D01*
X004393Y032261D02*
X009907Y032261D01*
X009937Y032163D02*
X004363Y032163D01*
X004308Y032064D02*
X009992Y032064D01*
X010079Y031966D02*
X004221Y031966D01*
X004050Y031867D02*
X010250Y031867D01*
X010660Y032852D02*
X012640Y032852D01*
X012499Y032754D02*
X010801Y032754D01*
X010883Y032655D02*
X012417Y032655D01*
X012369Y032557D02*
X010931Y032557D01*
X010957Y032458D02*
X012343Y032458D01*
X012347Y032261D02*
X010953Y032261D01*
X010923Y032163D02*
X012377Y032163D01*
X012432Y032064D02*
X010868Y032064D01*
X010781Y031966D02*
X012519Y031966D01*
X013050Y031867D02*
X013900Y031867D01*
X013900Y031966D02*
X013221Y031966D01*
X013308Y032064D02*
X013900Y032064D01*
X013900Y032163D02*
X013363Y032163D01*
X013393Y032261D02*
X013900Y032261D01*
X013900Y032951D02*
X000400Y032951D01*
X000400Y033049D02*
X013900Y033049D01*
X013900Y033148D02*
X000400Y033148D01*
X000400Y033246D02*
X013900Y033246D01*
X013900Y033345D02*
X013407Y033345D01*
X013635Y033443D02*
X013900Y033443D01*
X013900Y033542D02*
X013733Y033542D01*
X013832Y033640D02*
X013900Y033640D01*
X013891Y033739D02*
X013900Y033739D01*
X012893Y033345D02*
X001407Y033345D01*
X001380Y032852D02*
X001480Y032852D01*
X001480Y032754D02*
X001380Y032754D01*
X001380Y032655D02*
X001480Y032655D01*
X001480Y032557D02*
X001380Y032557D01*
X001380Y032458D02*
X001480Y032458D01*
X001380Y032360D02*
X000400Y032360D01*
X000400Y032458D02*
X000903Y032458D01*
X000929Y032557D02*
X000400Y032557D01*
X000400Y032655D02*
X000977Y032655D01*
X001059Y032754D02*
X000400Y032754D01*
X000400Y032852D02*
X001200Y032852D01*
X000893Y033345D02*
X000400Y033345D01*
X000400Y033443D02*
X000665Y033443D01*
X000567Y033542D02*
X000400Y033542D01*
X000400Y033640D02*
X000468Y033640D01*
X000408Y033739D02*
X000400Y033739D01*
X000400Y032261D02*
X000907Y032261D01*
X000937Y032163D02*
X000400Y032163D01*
X000400Y032064D02*
X000992Y032064D01*
X001079Y031966D02*
X000400Y031966D01*
X000400Y031473D02*
X002316Y031473D01*
X002240Y031375D02*
X000400Y031375D01*
X000400Y031276D02*
X002200Y031276D01*
X002186Y031178D02*
X000400Y031178D01*
X000400Y031079D02*
X002186Y031079D01*
X002218Y030981D02*
X000400Y030981D01*
X000400Y030882D02*
X002261Y030882D01*
X002360Y030784D02*
X000400Y030784D01*
X001610Y031867D02*
X003690Y031867D01*
X003820Y031867D02*
X003920Y031867D01*
X003920Y031966D02*
X003820Y031966D01*
X003820Y032064D02*
X003920Y032064D01*
X003920Y032163D02*
X003820Y032163D01*
X003820Y032458D02*
X003920Y032458D01*
X003920Y032557D02*
X003820Y032557D01*
X003820Y032655D02*
X003920Y032655D01*
X003920Y032754D02*
X003820Y032754D01*
X003820Y032852D02*
X003920Y032852D01*
X003640Y032852D02*
X001660Y032852D01*
X001801Y032754D02*
X003499Y032754D01*
X003417Y032655D02*
X001883Y032655D01*
X001931Y032557D02*
X003369Y032557D01*
X003343Y032458D02*
X001957Y032458D01*
X001953Y032261D02*
X003347Y032261D01*
X003377Y032163D02*
X001923Y032163D01*
X001868Y032064D02*
X003432Y032064D01*
X003519Y031966D02*
X001781Y031966D01*
X001635Y033443D02*
X012665Y033443D01*
X012567Y033542D02*
X001733Y033542D01*
X001832Y033640D02*
X012468Y033640D01*
X012408Y033739D02*
X001891Y033739D01*
X001932Y033837D02*
X012368Y033837D01*
X012327Y033936D02*
X001973Y033936D01*
X001992Y034034D02*
X012308Y034034D01*
X012308Y034133D02*
X001992Y034133D01*
X001992Y034231D02*
X012308Y034231D01*
X012312Y034330D02*
X001988Y034330D01*
X001947Y034428D02*
X012353Y034428D01*
X012394Y034527D02*
X001906Y034527D01*
X001865Y034625D02*
X012435Y034625D01*
X012532Y034724D02*
X001768Y034724D01*
X001669Y034822D02*
X012631Y034822D01*
X012540Y023790D02*
X010760Y023790D01*
X010856Y023692D02*
X012444Y023692D01*
X012384Y023593D02*
X010916Y023593D01*
X010951Y023495D02*
X012349Y023495D01*
X012337Y023320D02*
X012349Y023245D01*
X012375Y023165D01*
X012413Y023090D01*
X012463Y023022D01*
X012522Y022963D01*
X012590Y022913D01*
X012665Y022875D01*
X012745Y022849D01*
X012820Y022837D01*
X012820Y023320D01*
X012337Y023320D01*
X012341Y023298D02*
X010959Y023298D01*
X010936Y023199D02*
X012364Y023199D01*
X012408Y023101D02*
X010892Y023101D01*
X010817Y023002D02*
X012483Y023002D01*
X012610Y022904D02*
X010690Y022904D01*
X010480Y022904D02*
X010380Y022904D01*
X010380Y023002D02*
X010480Y023002D01*
X010480Y023101D02*
X010380Y023101D01*
X010380Y023199D02*
X010480Y023199D01*
X010480Y023298D02*
X010380Y023298D01*
X010380Y023396D02*
X003920Y023396D01*
X003920Y023298D02*
X003820Y023298D01*
X003820Y023396D02*
X001480Y023396D01*
X001480Y023298D02*
X001380Y023298D01*
X001380Y023396D02*
X000400Y023396D01*
X000400Y023298D02*
X000901Y023298D01*
X000924Y023199D02*
X000400Y023199D01*
X000400Y023101D02*
X000968Y023101D01*
X001043Y023002D02*
X000400Y023002D01*
X000400Y022904D02*
X001170Y022904D01*
X001380Y022904D02*
X001480Y022904D01*
X001480Y023002D02*
X001380Y023002D01*
X001380Y023101D02*
X001480Y023101D01*
X001480Y023199D02*
X001380Y023199D01*
X001380Y023495D02*
X001480Y023495D01*
X001480Y023593D02*
X001380Y023593D01*
X001380Y023692D02*
X001480Y023692D01*
X001480Y023790D02*
X001380Y023790D01*
X001100Y023790D02*
X000400Y023790D01*
X000400Y023692D02*
X001004Y023692D01*
X000944Y023593D02*
X000400Y023593D01*
X000400Y023495D02*
X000909Y023495D01*
X000400Y022608D02*
X002542Y022608D01*
X002558Y022614D02*
X002387Y022544D01*
X002256Y022413D01*
X002186Y022242D01*
X002186Y022058D01*
X002256Y021887D01*
X002387Y021756D01*
X002558Y021686D01*
X002742Y021686D01*
X002913Y021756D01*
X003044Y021887D01*
X003114Y022058D01*
X003114Y022242D01*
X003044Y022413D01*
X002913Y022544D01*
X002742Y022614D01*
X002558Y022614D01*
X002353Y022510D02*
X000400Y022510D01*
X000400Y022411D02*
X002256Y022411D01*
X002215Y022313D02*
X000400Y022313D01*
X000400Y022214D02*
X002186Y022214D01*
X002186Y022116D02*
X000400Y022116D01*
X000400Y022017D02*
X002202Y022017D01*
X002243Y021919D02*
X000400Y021919D01*
X000400Y021820D02*
X002323Y021820D01*
X002471Y021722D02*
X000400Y021722D01*
X000400Y021426D02*
X001229Y021426D01*
X001380Y021426D02*
X001480Y021426D01*
X001480Y021328D02*
X001380Y021328D01*
X001380Y021229D02*
X001480Y021229D01*
X001480Y021131D02*
X001380Y021131D01*
X001380Y021032D02*
X001480Y021032D01*
X001380Y020934D02*
X000400Y020934D01*
X000400Y021032D02*
X000906Y021032D01*
X000934Y021131D02*
X000400Y021131D01*
X000400Y021229D02*
X000987Y021229D01*
X001073Y021328D02*
X000400Y021328D01*
X000400Y020835D02*
X000905Y020835D01*
X000932Y020737D02*
X000400Y020737D01*
X000400Y020638D02*
X000982Y020638D01*
X001065Y020540D02*
X000400Y020540D01*
X001690Y022904D02*
X003610Y022904D01*
X003483Y023002D02*
X001817Y023002D01*
X001892Y023101D02*
X003408Y023101D01*
X003364Y023199D02*
X001936Y023199D01*
X001959Y023298D02*
X003341Y023298D01*
X003349Y023495D02*
X001951Y023495D01*
X001916Y023593D02*
X003384Y023593D01*
X003444Y023692D02*
X001856Y023692D01*
X001760Y023790D02*
X003540Y023790D01*
X003820Y023790D02*
X003920Y023790D01*
X003920Y023692D02*
X003820Y023692D01*
X003820Y023593D02*
X003920Y023593D01*
X003920Y023495D02*
X003820Y023495D01*
X003820Y023199D02*
X003920Y023199D01*
X003920Y023101D02*
X003820Y023101D01*
X003820Y023002D02*
X003920Y023002D01*
X003920Y022904D02*
X003820Y022904D01*
X004130Y022904D02*
X010170Y022904D01*
X010043Y023002D02*
X004257Y023002D01*
X004332Y023101D02*
X009968Y023101D01*
X009924Y023199D02*
X004376Y023199D01*
X004399Y023298D02*
X009901Y023298D01*
X009909Y023495D02*
X004391Y023495D01*
X004356Y023593D02*
X009944Y023593D01*
X010004Y023692D02*
X004296Y023692D01*
X004200Y023790D02*
X010100Y023790D01*
X010380Y023790D02*
X010480Y023790D01*
X010480Y023692D02*
X010380Y023692D01*
X010380Y023593D02*
X010480Y023593D01*
X010480Y023495D02*
X010380Y023495D01*
X010480Y023396D02*
X012820Y023396D01*
X012820Y023298D02*
X012920Y023298D01*
X012920Y023199D02*
X012820Y023199D01*
X012820Y023101D02*
X012920Y023101D01*
X012920Y023002D02*
X012820Y023002D01*
X012820Y022904D02*
X012920Y022904D01*
X011542Y022608D02*
X002758Y022608D01*
X002947Y022510D02*
X011353Y022510D01*
X011256Y022411D02*
X003044Y022411D01*
X003085Y022313D02*
X011215Y022313D01*
X011186Y022214D02*
X003114Y022214D01*
X003114Y022116D02*
X011186Y022116D01*
X011202Y022017D02*
X003098Y022017D01*
X003057Y021919D02*
X011243Y021919D01*
X011323Y021820D02*
X002977Y021820D01*
X002829Y021722D02*
X011471Y021722D01*
X011393Y013546D02*
X002907Y013546D01*
X002913Y013544D02*
X002742Y013614D01*
X002558Y013614D01*
X002387Y013544D01*
X002256Y013413D01*
X002186Y013242D01*
X002186Y013058D01*
X002256Y012887D01*
X002387Y012756D01*
X002558Y012686D01*
X002742Y012686D01*
X002913Y012756D01*
X003044Y012887D01*
X003114Y013058D01*
X003114Y013242D01*
X003044Y013413D01*
X002913Y013544D01*
X003009Y013448D02*
X011291Y013448D01*
X011230Y013349D02*
X003070Y013349D01*
X003111Y013251D02*
X011189Y013251D01*
X011186Y013152D02*
X003114Y013152D01*
X003113Y013054D02*
X011187Y013054D01*
X011228Y012955D02*
X003072Y012955D01*
X003013Y012857D02*
X011287Y012857D01*
X011385Y012758D02*
X002915Y012758D01*
X002385Y012758D02*
X000400Y012758D01*
X000400Y012857D02*
X002287Y012857D01*
X002228Y012955D02*
X000400Y012955D01*
X000400Y013054D02*
X002187Y013054D01*
X002186Y013152D02*
X000400Y013152D01*
X000400Y013251D02*
X002189Y013251D01*
X002230Y013349D02*
X000400Y013349D01*
X000400Y013448D02*
X002291Y013448D01*
X002393Y013546D02*
X000400Y013546D01*
X013080Y004878D02*
X013900Y004878D01*
X013900Y004977D02*
X013232Y004977D01*
X013316Y005075D02*
X013900Y005075D01*
X013900Y005174D02*
X013367Y005174D01*
X013395Y005272D02*
X013900Y005272D01*
M02*
