G75*
G70*
%OFA0B0*%
%FSLAX24Y24*%
%IPPOS*%
%LPD*%
%AMOC8*
5,1,8,0,0,1.08239X$1,22.5*
%
%ADD10C,0.0100*%
%ADD11C,0.0000*%
D10*
X000150Y000650D02*
X000150Y032150D01*
X000152Y032194D01*
X000158Y032237D01*
X000167Y032279D01*
X000180Y032321D01*
X000197Y032361D01*
X000217Y032400D01*
X000240Y032437D01*
X000267Y032471D01*
X000296Y032504D01*
X000329Y032533D01*
X000363Y032560D01*
X000400Y032583D01*
X000439Y032603D01*
X000479Y032620D01*
X000521Y032633D01*
X000563Y032642D01*
X000606Y032648D01*
X000650Y032650D01*
X011650Y032650D01*
X011694Y032648D01*
X011737Y032642D01*
X011779Y032633D01*
X011821Y032620D01*
X011861Y032603D01*
X011900Y032583D01*
X011937Y032560D01*
X011971Y032533D01*
X012004Y032504D01*
X012033Y032471D01*
X012060Y032437D01*
X012083Y032400D01*
X012103Y032361D01*
X012120Y032321D01*
X012133Y032279D01*
X012142Y032237D01*
X012148Y032194D01*
X012150Y032150D01*
X012150Y000650D01*
X012148Y000606D01*
X012142Y000563D01*
X012133Y000521D01*
X012120Y000479D01*
X012103Y000439D01*
X012083Y000400D01*
X012060Y000363D01*
X012033Y000329D01*
X012004Y000296D01*
X011971Y000267D01*
X011937Y000240D01*
X011900Y000217D01*
X011861Y000197D01*
X011821Y000180D01*
X011779Y000167D01*
X011737Y000158D01*
X011694Y000152D01*
X011650Y000150D01*
X000650Y000150D01*
X000606Y000152D01*
X000563Y000158D01*
X000521Y000167D01*
X000479Y000180D01*
X000439Y000197D01*
X000400Y000217D01*
X000363Y000240D01*
X000329Y000267D01*
X000296Y000296D01*
X000267Y000329D01*
X000240Y000363D01*
X000217Y000400D01*
X000197Y000439D01*
X000180Y000479D01*
X000167Y000521D01*
X000158Y000563D01*
X000152Y000606D01*
X000150Y000650D01*
D11*
X000507Y001150D02*
X000509Y001200D01*
X000515Y001251D01*
X000525Y001300D01*
X000538Y001349D01*
X000556Y001396D01*
X000577Y001442D01*
X000602Y001486D01*
X000630Y001528D01*
X000661Y001568D01*
X000695Y001605D01*
X000732Y001639D01*
X000772Y001670D01*
X000814Y001698D01*
X000858Y001723D01*
X000904Y001744D01*
X000951Y001762D01*
X001000Y001775D01*
X001049Y001785D01*
X001100Y001791D01*
X001150Y001793D01*
X001200Y001791D01*
X001251Y001785D01*
X001300Y001775D01*
X001349Y001762D01*
X001396Y001744D01*
X001442Y001723D01*
X001486Y001698D01*
X001528Y001670D01*
X001568Y001639D01*
X001605Y001605D01*
X001639Y001568D01*
X001670Y001528D01*
X001698Y001486D01*
X001723Y001442D01*
X001744Y001396D01*
X001762Y001349D01*
X001775Y001300D01*
X001785Y001251D01*
X001791Y001200D01*
X001793Y001150D01*
X001791Y001100D01*
X001785Y001049D01*
X001775Y001000D01*
X001762Y000951D01*
X001744Y000904D01*
X001723Y000858D01*
X001698Y000814D01*
X001670Y000772D01*
X001639Y000732D01*
X001605Y000695D01*
X001568Y000661D01*
X001528Y000630D01*
X001486Y000602D01*
X001442Y000577D01*
X001396Y000556D01*
X001349Y000538D01*
X001300Y000525D01*
X001251Y000515D01*
X001200Y000509D01*
X001150Y000507D01*
X001100Y000509D01*
X001049Y000515D01*
X001000Y000525D01*
X000951Y000538D01*
X000904Y000556D01*
X000858Y000577D01*
X000814Y000602D01*
X000772Y000630D01*
X000732Y000661D01*
X000695Y000695D01*
X000661Y000732D01*
X000630Y000772D01*
X000602Y000814D01*
X000577Y000858D01*
X000556Y000904D01*
X000538Y000951D01*
X000525Y001000D01*
X000515Y001049D01*
X000509Y001100D01*
X000507Y001150D01*
X010507Y001150D02*
X010509Y001200D01*
X010515Y001251D01*
X010525Y001300D01*
X010538Y001349D01*
X010556Y001396D01*
X010577Y001442D01*
X010602Y001486D01*
X010630Y001528D01*
X010661Y001568D01*
X010695Y001605D01*
X010732Y001639D01*
X010772Y001670D01*
X010814Y001698D01*
X010858Y001723D01*
X010904Y001744D01*
X010951Y001762D01*
X011000Y001775D01*
X011049Y001785D01*
X011100Y001791D01*
X011150Y001793D01*
X011200Y001791D01*
X011251Y001785D01*
X011300Y001775D01*
X011349Y001762D01*
X011396Y001744D01*
X011442Y001723D01*
X011486Y001698D01*
X011528Y001670D01*
X011568Y001639D01*
X011605Y001605D01*
X011639Y001568D01*
X011670Y001528D01*
X011698Y001486D01*
X011723Y001442D01*
X011744Y001396D01*
X011762Y001349D01*
X011775Y001300D01*
X011785Y001251D01*
X011791Y001200D01*
X011793Y001150D01*
X011791Y001100D01*
X011785Y001049D01*
X011775Y001000D01*
X011762Y000951D01*
X011744Y000904D01*
X011723Y000858D01*
X011698Y000814D01*
X011670Y000772D01*
X011639Y000732D01*
X011605Y000695D01*
X011568Y000661D01*
X011528Y000630D01*
X011486Y000602D01*
X011442Y000577D01*
X011396Y000556D01*
X011349Y000538D01*
X011300Y000525D01*
X011251Y000515D01*
X011200Y000509D01*
X011150Y000507D01*
X011100Y000509D01*
X011049Y000515D01*
X011000Y000525D01*
X010951Y000538D01*
X010904Y000556D01*
X010858Y000577D01*
X010814Y000602D01*
X010772Y000630D01*
X010732Y000661D01*
X010695Y000695D01*
X010661Y000732D01*
X010630Y000772D01*
X010602Y000814D01*
X010577Y000858D01*
X010556Y000904D01*
X010538Y000951D01*
X010525Y001000D01*
X010515Y001049D01*
X010509Y001100D01*
X010507Y001150D01*
X010507Y031650D02*
X010509Y031700D01*
X010515Y031751D01*
X010525Y031800D01*
X010538Y031849D01*
X010556Y031896D01*
X010577Y031942D01*
X010602Y031986D01*
X010630Y032028D01*
X010661Y032068D01*
X010695Y032105D01*
X010732Y032139D01*
X010772Y032170D01*
X010814Y032198D01*
X010858Y032223D01*
X010904Y032244D01*
X010951Y032262D01*
X011000Y032275D01*
X011049Y032285D01*
X011100Y032291D01*
X011150Y032293D01*
X011200Y032291D01*
X011251Y032285D01*
X011300Y032275D01*
X011349Y032262D01*
X011396Y032244D01*
X011442Y032223D01*
X011486Y032198D01*
X011528Y032170D01*
X011568Y032139D01*
X011605Y032105D01*
X011639Y032068D01*
X011670Y032028D01*
X011698Y031986D01*
X011723Y031942D01*
X011744Y031896D01*
X011762Y031849D01*
X011775Y031800D01*
X011785Y031751D01*
X011791Y031700D01*
X011793Y031650D01*
X011791Y031600D01*
X011785Y031549D01*
X011775Y031500D01*
X011762Y031451D01*
X011744Y031404D01*
X011723Y031358D01*
X011698Y031314D01*
X011670Y031272D01*
X011639Y031232D01*
X011605Y031195D01*
X011568Y031161D01*
X011528Y031130D01*
X011486Y031102D01*
X011442Y031077D01*
X011396Y031056D01*
X011349Y031038D01*
X011300Y031025D01*
X011251Y031015D01*
X011200Y031009D01*
X011150Y031007D01*
X011100Y031009D01*
X011049Y031015D01*
X011000Y031025D01*
X010951Y031038D01*
X010904Y031056D01*
X010858Y031077D01*
X010814Y031102D01*
X010772Y031130D01*
X010732Y031161D01*
X010695Y031195D01*
X010661Y031232D01*
X010630Y031272D01*
X010602Y031314D01*
X010577Y031358D01*
X010556Y031404D01*
X010538Y031451D01*
X010525Y031500D01*
X010515Y031549D01*
X010509Y031600D01*
X010507Y031650D01*
X000507Y031650D02*
X000509Y031700D01*
X000515Y031751D01*
X000525Y031800D01*
X000538Y031849D01*
X000556Y031896D01*
X000577Y031942D01*
X000602Y031986D01*
X000630Y032028D01*
X000661Y032068D01*
X000695Y032105D01*
X000732Y032139D01*
X000772Y032170D01*
X000814Y032198D01*
X000858Y032223D01*
X000904Y032244D01*
X000951Y032262D01*
X001000Y032275D01*
X001049Y032285D01*
X001100Y032291D01*
X001150Y032293D01*
X001200Y032291D01*
X001251Y032285D01*
X001300Y032275D01*
X001349Y032262D01*
X001396Y032244D01*
X001442Y032223D01*
X001486Y032198D01*
X001528Y032170D01*
X001568Y032139D01*
X001605Y032105D01*
X001639Y032068D01*
X001670Y032028D01*
X001698Y031986D01*
X001723Y031942D01*
X001744Y031896D01*
X001762Y031849D01*
X001775Y031800D01*
X001785Y031751D01*
X001791Y031700D01*
X001793Y031650D01*
X001791Y031600D01*
X001785Y031549D01*
X001775Y031500D01*
X001762Y031451D01*
X001744Y031404D01*
X001723Y031358D01*
X001698Y031314D01*
X001670Y031272D01*
X001639Y031232D01*
X001605Y031195D01*
X001568Y031161D01*
X001528Y031130D01*
X001486Y031102D01*
X001442Y031077D01*
X001396Y031056D01*
X001349Y031038D01*
X001300Y031025D01*
X001251Y031015D01*
X001200Y031009D01*
X001150Y031007D01*
X001100Y031009D01*
X001049Y031015D01*
X001000Y031025D01*
X000951Y031038D01*
X000904Y031056D01*
X000858Y031077D01*
X000814Y031102D01*
X000772Y031130D01*
X000732Y031161D01*
X000695Y031195D01*
X000661Y031232D01*
X000630Y031272D01*
X000602Y031314D01*
X000577Y031358D01*
X000556Y031404D01*
X000538Y031451D01*
X000525Y031500D01*
X000515Y031549D01*
X000509Y031600D01*
X000507Y031650D01*
M02*
