G75*
G70*
%OFA0B0*%
%FSLAX24Y24*%
%IPPOS*%
%LPD*%
%AMOC8*
5,1,8,0,0,1.08239X$1,22.5*
%
%ADD10C,0.0040*%
%ADD11R,0.0002X0.0002*%
%ADD12R,0.0004X0.0002*%
%ADD13R,0.0066X0.0002*%
%ADD14R,0.0004X0.0002*%
%ADD15R,0.0002X0.0002*%
%ADD16R,0.0002X0.0002*%
%ADD17R,0.0148X0.0002*%
%ADD18R,0.0002X0.0002*%
%ADD19R,0.0200X0.0002*%
%ADD20R,0.0236X0.0002*%
%ADD21R,0.0268X0.0002*%
%ADD22R,0.0300X0.0002*%
%ADD23R,0.0326X0.0002*%
%ADD24R,0.0350X0.0002*%
%ADD25R,0.0374X0.0002*%
%ADD26R,0.0394X0.0002*%
%ADD27R,0.0418X0.0002*%
%ADD28R,0.0432X0.0002*%
%ADD29R,0.0152X0.0002*%
%ADD30R,0.0280X0.0002*%
%ADD31R,0.0136X0.0002*%
%ADD32R,0.0308X0.0002*%
%ADD33R,0.0126X0.0002*%
%ADD34R,0.0328X0.0002*%
%ADD35R,0.0118X0.0002*%
%ADD36R,0.0348X0.0002*%
%ADD37R,0.0112X0.0002*%
%ADD38R,0.0366X0.0002*%
%ADD39R,0.0108X0.0002*%
%ADD40R,0.0382X0.0002*%
%ADD41R,0.0104X0.0002*%
%ADD42R,0.0398X0.0002*%
%ADD43R,0.0098X0.0002*%
%ADD44R,0.0412X0.0002*%
%ADD45R,0.0096X0.0002*%
%ADD46R,0.0426X0.0002*%
%ADD47R,0.0094X0.0002*%
%ADD48R,0.0440X0.0002*%
%ADD49R,0.0090X0.0002*%
%ADD50R,0.0452X0.0002*%
%ADD51R,0.0088X0.0002*%
%ADD52R,0.0466X0.0002*%
%ADD53R,0.0086X0.0002*%
%ADD54R,0.0478X0.0002*%
%ADD55R,0.0082X0.0002*%
%ADD56R,0.0490X0.0002*%
%ADD57R,0.0078X0.0002*%
%ADD58R,0.0502X0.0002*%
%ADD59R,0.0080X0.0002*%
%ADD60R,0.0510X0.0002*%
%ADD61R,0.0078X0.0002*%
%ADD62R,0.0524X0.0002*%
%ADD63R,0.0076X0.0002*%
%ADD64R,0.0534X0.0002*%
%ADD65R,0.0074X0.0002*%
%ADD66R,0.0546X0.0002*%
%ADD67R,0.0074X0.0002*%
%ADD68R,0.0554X0.0002*%
%ADD69R,0.0072X0.0002*%
%ADD70R,0.0566X0.0002*%
%ADD71R,0.0070X0.0002*%
%ADD72R,0.0572X0.0002*%
%ADD73R,0.0070X0.0002*%
%ADD74R,0.0584X0.0002*%
%ADD75R,0.0068X0.0002*%
%ADD76R,0.0592X0.0002*%
%ADD77R,0.0068X0.0002*%
%ADD78R,0.0602X0.0002*%
%ADD79R,0.0612X0.0002*%
%ADD80R,0.0620X0.0002*%
%ADD81R,0.0064X0.0002*%
%ADD82R,0.0628X0.0002*%
%ADD83R,0.0062X0.0002*%
%ADD84R,0.0638X0.0002*%
%ADD85R,0.0062X0.0002*%
%ADD86R,0.0644X0.0002*%
%ADD87R,0.0654X0.0002*%
%ADD88R,0.0060X0.0002*%
%ADD89R,0.0660X0.0002*%
%ADD90R,0.0056X0.0002*%
%ADD91R,0.0670X0.0002*%
%ADD92R,0.0056X0.0002*%
%ADD93R,0.0678X0.0002*%
%ADD94R,0.0058X0.0002*%
%ADD95R,0.0684X0.0002*%
%ADD96R,0.0058X0.0002*%
%ADD97R,0.0692X0.0002*%
%ADD98R,0.0700X0.0002*%
%ADD99R,0.0708X0.0002*%
%ADD100R,0.0716X0.0002*%
%ADD101R,0.0722X0.0002*%
%ADD102R,0.0054X0.0002*%
%ADD103R,0.0730X0.0002*%
%ADD104R,0.0736X0.0002*%
%ADD105R,0.0052X0.0002*%
%ADD106R,0.0744X0.0002*%
%ADD107R,0.0052X0.0002*%
%ADD108R,0.0750X0.0002*%
%ADD109R,0.0052X0.0002*%
%ADD110R,0.0758X0.0002*%
%ADD111R,0.0764X0.0002*%
%ADD112R,0.0050X0.0002*%
%ADD113R,0.0770X0.0002*%
%ADD114R,0.0050X0.0002*%
%ADD115R,0.0778X0.0002*%
%ADD116R,0.0784X0.0002*%
%ADD117R,0.0792X0.0002*%
%ADD118R,0.0796X0.0002*%
%ADD119R,0.0802X0.0002*%
%ADD120R,0.0048X0.0002*%
%ADD121R,0.0808X0.0002*%
%ADD122R,0.0816X0.0002*%
%ADD123R,0.0820X0.0002*%
%ADD124R,0.0048X0.0002*%
%ADD125R,0.0826X0.0002*%
%ADD126R,0.0832X0.0002*%
%ADD127R,0.0046X0.0002*%
%ADD128R,0.0840X0.0002*%
%ADD129R,0.0046X0.0002*%
%ADD130R,0.0844X0.0002*%
%ADD131R,0.0850X0.0002*%
%ADD132R,0.0856X0.0002*%
%ADD133R,0.0864X0.0002*%
%ADD134R,0.0866X0.0002*%
%ADD135R,0.0044X0.0002*%
%ADD136R,0.0874X0.0002*%
%ADD137R,0.0044X0.0002*%
%ADD138R,0.0878X0.0002*%
%ADD139R,0.0884X0.0002*%
%ADD140R,0.0888X0.0002*%
%ADD141R,0.0894X0.0002*%
%ADD142R,0.0042X0.0002*%
%ADD143R,0.0900X0.0002*%
%ADD144R,0.0904X0.0002*%
%ADD145R,0.0910X0.0002*%
%ADD146R,0.0914X0.0002*%
%ADD147R,0.0920X0.0002*%
%ADD148R,0.0926X0.0002*%
%ADD149R,0.0930X0.0002*%
%ADD150R,0.0934X0.0002*%
%ADD151R,0.0940X0.0002*%
%ADD152R,0.0042X0.0002*%
%ADD153R,0.0944X0.0002*%
%ADD154R,0.0950X0.0002*%
%ADD155R,0.0954X0.0002*%
%ADD156R,0.0040X0.0002*%
%ADD157R,0.0960X0.0002*%
%ADD158R,0.0964X0.0002*%
%ADD159R,0.0040X0.0002*%
%ADD160R,0.0968X0.0002*%
%ADD161R,0.0038X0.0002*%
%ADD162R,0.0972X0.0002*%
%ADD163R,0.0976X0.0002*%
%ADD164R,0.0982X0.0002*%
%ADD165R,0.0986X0.0002*%
%ADD166R,0.0990X0.0002*%
%ADD167R,0.0996X0.0002*%
%ADD168R,0.0998X0.0002*%
%ADD169R,0.1004X0.0002*%
%ADD170R,0.1008X0.0002*%
%ADD171R,0.1012X0.0002*%
%ADD172R,0.1016X0.0002*%
%ADD173R,0.0038X0.0002*%
%ADD174R,0.1022X0.0002*%
%ADD175R,0.1024X0.0002*%
%ADD176R,0.1028X0.0002*%
%ADD177R,0.0036X0.0002*%
%ADD178R,0.1034X0.0002*%
%ADD179R,0.0036X0.0002*%
%ADD180R,0.1038X0.0002*%
%ADD181R,0.1042X0.0002*%
%ADD182R,0.1044X0.0002*%
%ADD183R,0.1050X0.0002*%
%ADD184R,0.1054X0.0002*%
%ADD185R,0.1058X0.0002*%
%ADD186R,0.1060X0.0002*%
%ADD187R,0.1066X0.0002*%
%ADD188R,0.1070X0.0002*%
%ADD189R,0.1072X0.0002*%
%ADD190R,0.1076X0.0002*%
%ADD191R,0.1082X0.0002*%
%ADD192R,0.1082X0.0002*%
%ADD193R,0.0034X0.0002*%
%ADD194R,0.1086X0.0002*%
%ADD195R,0.1092X0.0002*%
%ADD196R,0.1094X0.0002*%
%ADD197R,0.1098X0.0002*%
%ADD198R,0.1102X0.0002*%
%ADD199R,0.1104X0.0002*%
%ADD200R,0.0034X0.0002*%
%ADD201R,0.1110X0.0002*%
%ADD202R,0.0034X0.0002*%
%ADD203R,0.1112X0.0002*%
%ADD204R,0.1116X0.0002*%
%ADD205R,0.1120X0.0002*%
%ADD206R,0.1122X0.0002*%
%ADD207R,0.0034X0.0002*%
%ADD208R,0.1126X0.0002*%
%ADD209R,0.1128X0.0002*%
%ADD210R,0.1132X0.0002*%
%ADD211R,0.1136X0.0002*%
%ADD212R,0.1140X0.0002*%
%ADD213R,0.0032X0.0002*%
%ADD214R,0.1142X0.0002*%
%ADD215R,0.1144X0.0002*%
%ADD216R,0.1150X0.0002*%
%ADD217R,0.0032X0.0002*%
%ADD218R,0.1150X0.0002*%
%ADD219R,0.0032X0.0002*%
%ADD220R,0.1156X0.0002*%
%ADD221R,0.1156X0.0002*%
%ADD222R,0.1162X0.0002*%
%ADD223R,0.1166X0.0002*%
%ADD224R,0.1168X0.0002*%
%ADD225R,0.1170X0.0002*%
%ADD226R,0.0032X0.0002*%
%ADD227R,0.1174X0.0002*%
%ADD228R,0.1178X0.0002*%
%ADD229R,0.1178X0.0002*%
%ADD230R,0.1184X0.0002*%
%ADD231R,0.1186X0.0002*%
%ADD232R,0.1190X0.0002*%
%ADD233R,0.1192X0.0002*%
%ADD234R,0.0030X0.0002*%
%ADD235R,0.1192X0.0002*%
%ADD236R,0.1198X0.0002*%
%ADD237R,0.0030X0.0002*%
%ADD238R,0.1204X0.0002*%
%ADD239R,0.1204X0.0002*%
%ADD240R,0.1208X0.0002*%
%ADD241R,0.1212X0.0002*%
%ADD242R,0.1214X0.0002*%
%ADD243R,0.1216X0.0002*%
%ADD244R,0.1218X0.0002*%
%ADD245R,0.1222X0.0002*%
%ADD246R,0.1224X0.0002*%
%ADD247R,0.1228X0.0002*%
%ADD248R,0.1230X0.0002*%
%ADD249R,0.1232X0.0002*%
%ADD250R,0.1234X0.0002*%
%ADD251R,0.1238X0.0002*%
%ADD252R,0.1242X0.0002*%
%ADD253R,0.1246X0.0002*%
%ADD254R,0.1248X0.0002*%
%ADD255R,0.1250X0.0002*%
%ADD256R,0.1256X0.0002*%
%ADD257R,0.1256X0.0002*%
%ADD258R,0.1258X0.0002*%
%ADD259R,0.1262X0.0002*%
%ADD260R,0.1264X0.0002*%
%ADD261R,0.1266X0.0002*%
%ADD262R,0.1270X0.0002*%
%ADD263R,0.1272X0.0002*%
%ADD264R,0.1272X0.0002*%
%ADD265R,0.1276X0.0002*%
%ADD266R,0.1278X0.0002*%
%ADD267R,0.1280X0.0002*%
%ADD268R,0.0028X0.0002*%
%ADD269R,0.1284X0.0002*%
%ADD270R,0.0028X0.0002*%
%ADD271R,0.1284X0.0002*%
%ADD272R,0.1286X0.0002*%
%ADD273R,0.1288X0.0002*%
%ADD274R,0.1292X0.0002*%
%ADD275R,0.0468X0.0002*%
%ADD276R,0.0786X0.0002*%
%ADD277R,0.0454X0.0002*%
%ADD278R,0.0780X0.0002*%
%ADD279R,0.0448X0.0002*%
%ADD280R,0.0774X0.0002*%
%ADD281R,0.0444X0.0002*%
%ADD282R,0.0770X0.0002*%
%ADD283R,0.0438X0.0002*%
%ADD284R,0.0432X0.0002*%
%ADD285R,0.0762X0.0002*%
%ADD286R,0.0428X0.0002*%
%ADD287R,0.0758X0.0002*%
%ADD288R,0.0756X0.0002*%
%ADD289R,0.0424X0.0002*%
%ADD290R,0.0756X0.0002*%
%ADD291R,0.0420X0.0002*%
%ADD292R,0.0754X0.0002*%
%ADD293R,0.0418X0.0002*%
%ADD294R,0.0750X0.0002*%
%ADD295R,0.0416X0.0002*%
%ADD296R,0.0412X0.0002*%
%ADD297R,0.0748X0.0002*%
%ADD298R,0.0410X0.0002*%
%ADD299R,0.0746X0.0002*%
%ADD300R,0.0408X0.0002*%
%ADD301R,0.0746X0.0002*%
%ADD302R,0.0408X0.0002*%
%ADD303R,0.0406X0.0002*%
%ADD304R,0.0402X0.0002*%
%ADD305R,0.0742X0.0002*%
%ADD306R,0.0400X0.0002*%
%ADD307R,0.0742X0.0002*%
%ADD308R,0.0026X0.0002*%
%ADD309R,0.0740X0.0002*%
%ADD310R,0.0396X0.0002*%
%ADD311R,0.0396X0.0002*%
%ADD312R,0.0738X0.0002*%
%ADD313R,0.0740X0.0002*%
%ADD314R,0.0392X0.0002*%
%ADD315R,0.0390X0.0002*%
%ADD316R,0.0390X0.0002*%
%ADD317R,0.0388X0.0002*%
%ADD318R,0.0738X0.0002*%
%ADD319R,0.0386X0.0002*%
%ADD320R,0.0384X0.0002*%
%ADD321R,0.0384X0.0002*%
%ADD322R,0.0026X0.0002*%
%ADD323R,0.0382X0.0002*%
%ADD324R,0.0382X0.0002*%
%ADD325R,0.0380X0.0002*%
%ADD326R,0.0378X0.0002*%
%ADD327R,0.0742X0.0002*%
%ADD328R,0.0378X0.0002*%
%ADD329R,0.0376X0.0002*%
%ADD330R,0.0744X0.0002*%
%ADD331R,0.0744X0.0002*%
%ADD332R,0.0376X0.0002*%
%ADD333R,0.0374X0.0002*%
%ADD334R,0.0372X0.0002*%
%ADD335R,0.0372X0.0002*%
%ADD336R,0.0748X0.0002*%
%ADD337R,0.0374X0.0002*%
%ADD338R,0.0370X0.0002*%
%ADD339R,0.0370X0.0002*%
%ADD340R,0.0752X0.0002*%
%ADD341R,0.0752X0.0002*%
%ADD342R,0.0752X0.0002*%
%ADD343R,0.0760X0.0002*%
%ADD344R,0.0760X0.0002*%
%ADD345R,0.0368X0.0002*%
%ADD346R,0.0766X0.0002*%
%ADD347R,0.0766X0.0002*%
%ADD348R,0.0768X0.0002*%
%ADD349R,0.0768X0.0002*%
%ADD350R,0.0368X0.0002*%
%ADD351R,0.0772X0.0002*%
%ADD352R,0.0772X0.0002*%
%ADD353R,0.0774X0.0002*%
%ADD354R,0.0776X0.0002*%
%ADD355R,0.0024X0.0002*%
%ADD356R,0.0778X0.0002*%
%ADD357R,0.0782X0.0002*%
%ADD358R,0.0782X0.0002*%
%ADD359R,0.0786X0.0002*%
%ADD360R,0.0790X0.0002*%
%ADD361R,0.0790X0.0002*%
%ADD362R,0.0792X0.0002*%
%ADD363R,0.0794X0.0002*%
%ADD364R,0.0798X0.0002*%
%ADD365R,0.0800X0.0002*%
%ADD366R,0.0804X0.0002*%
%ADD367R,0.0804X0.0002*%
%ADD368R,0.0380X0.0002*%
%ADD369R,0.0808X0.0002*%
%ADD370R,0.0812X0.0002*%
%ADD371R,0.0812X0.0002*%
%ADD372R,0.0818X0.0002*%
%ADD373R,0.0818X0.0002*%
%ADD374R,0.0822X0.0002*%
%ADD375R,0.0024X0.0002*%
%ADD376R,0.0822X0.0002*%
%ADD377R,0.0388X0.0002*%
%ADD378R,0.0024X0.0002*%
%ADD379R,0.0828X0.0002*%
%ADD380R,0.0392X0.0002*%
%ADD381R,0.0836X0.0002*%
%ADD382R,0.0394X0.0002*%
%ADD383R,0.0838X0.0002*%
%ADD384R,0.0842X0.0002*%
%ADD385R,0.0844X0.0002*%
%ADD386R,0.0846X0.0002*%
%ADD387R,0.0024X0.0002*%
%ADD388R,0.0852X0.0002*%
%ADD389R,0.0404X0.0002*%
%ADD390R,0.0856X0.0002*%
%ADD391R,0.0860X0.0002*%
%ADD392R,0.0870X0.0002*%
%ADD393R,0.0414X0.0002*%
%ADD394R,0.0872X0.0002*%
%ADD395R,0.0876X0.0002*%
%ADD396R,0.0880X0.0002*%
%ADD397R,0.0422X0.0002*%
%ADD398R,0.0884X0.0002*%
%ADD399R,0.0886X0.0002*%
%ADD400R,0.0430X0.0002*%
%ADD401R,0.0432X0.0002*%
%ADD402R,0.0898X0.0002*%
%ADD403R,0.0436X0.0002*%
%ADD404R,0.0904X0.0002*%
%ADD405R,0.0442X0.0002*%
%ADD406R,0.0908X0.0002*%
%ADD407R,0.0446X0.0002*%
%ADD408R,0.0914X0.0002*%
%ADD409R,0.0452X0.0002*%
%ADD410R,0.0924X0.0002*%
%ADD411R,0.0458X0.0002*%
%ADD412R,0.0932X0.0002*%
%ADD413R,0.0478X0.0002*%
%ADD414R,0.1444X0.0002*%
%ADD415R,0.1442X0.0002*%
%ADD416R,0.1444X0.0002*%
%ADD417R,0.1444X0.0002*%
%ADD418R,0.1446X0.0002*%
%ADD419R,0.1444X0.0002*%
%ADD420R,0.1446X0.0002*%
%ADD421R,0.0022X0.0002*%
%ADD422R,0.1442X0.0002*%
%ADD423R,0.1442X0.0002*%
%ADD424R,0.0022X0.0002*%
%ADD425R,0.1442X0.0002*%
%ADD426R,0.1440X0.0002*%
%ADD427R,0.0022X0.0002*%
%ADD428R,0.1440X0.0002*%
%ADD429R,0.1438X0.0002*%
%ADD430R,0.1438X0.0002*%
%ADD431R,0.1436X0.0002*%
%ADD432R,0.1436X0.0002*%
%ADD433R,0.1434X0.0002*%
%ADD434R,0.1432X0.0002*%
%ADD435R,0.1434X0.0002*%
%ADD436R,0.1432X0.0002*%
%ADD437R,0.1432X0.0002*%
%ADD438R,0.1430X0.0002*%
%ADD439R,0.1430X0.0002*%
%ADD440R,0.1428X0.0002*%
%ADD441R,0.1428X0.0002*%
%ADD442R,0.1426X0.0002*%
%ADD443R,0.1424X0.0002*%
%ADD444R,0.1424X0.0002*%
%ADD445R,0.1422X0.0002*%
%ADD446R,0.1422X0.0002*%
%ADD447R,0.1420X0.0002*%
%ADD448R,0.1422X0.0002*%
%ADD449R,0.1418X0.0002*%
%ADD450R,0.1416X0.0002*%
%ADD451R,0.1416X0.0002*%
%ADD452R,0.1414X0.0002*%
%ADD453R,0.0022X0.0002*%
%ADD454R,0.1412X0.0002*%
%ADD455R,0.1412X0.0002*%
%ADD456R,0.1410X0.0002*%
%ADD457R,0.1410X0.0002*%
%ADD458R,0.1408X0.0002*%
%ADD459R,0.1406X0.0002*%
%ADD460R,0.1406X0.0002*%
%ADD461R,0.1404X0.0002*%
%ADD462R,0.1402X0.0002*%
%ADD463R,0.1400X0.0002*%
%ADD464R,0.1398X0.0002*%
%ADD465R,0.1396X0.0002*%
%ADD466R,0.1394X0.0002*%
%ADD467R,0.1392X0.0002*%
%ADD468R,0.1392X0.0002*%
%ADD469R,0.1392X0.0002*%
%ADD470R,0.1388X0.0002*%
%ADD471R,0.1388X0.0002*%
%ADD472R,0.1386X0.0002*%
%ADD473R,0.1384X0.0002*%
%ADD474R,0.1382X0.0002*%
%ADD475R,0.1380X0.0002*%
%ADD476R,0.1378X0.0002*%
%ADD477R,0.1378X0.0002*%
%ADD478R,0.1374X0.0002*%
%ADD479R,0.1372X0.0002*%
%ADD480R,0.1372X0.0002*%
%ADD481R,0.1368X0.0002*%
%ADD482R,0.1368X0.0002*%
%ADD483R,0.1364X0.0002*%
%ADD484R,0.1362X0.0002*%
%ADD485R,0.1362X0.0002*%
%ADD486R,0.1358X0.0002*%
%ADD487R,0.1358X0.0002*%
%ADD488R,0.1356X0.0002*%
%ADD489R,0.1354X0.0002*%
%ADD490R,0.1352X0.0002*%
%ADD491R,0.1348X0.0002*%
%ADD492R,0.1348X0.0002*%
%ADD493R,0.1346X0.0002*%
%ADD494R,0.1342X0.0002*%
%ADD495R,0.1342X0.0002*%
%ADD496R,0.1338X0.0002*%
%ADD497R,0.1338X0.0002*%
%ADD498R,0.1334X0.0002*%
%ADD499R,0.1332X0.0002*%
%ADD500R,0.1330X0.0002*%
%ADD501R,0.1328X0.0002*%
%ADD502R,0.1324X0.0002*%
%ADD503R,0.1324X0.0002*%
%ADD504R,0.1318X0.0002*%
%ADD505R,0.0020X0.0002*%
%ADD506R,0.1318X0.0002*%
%ADD507R,0.1316X0.0002*%
%ADD508R,0.1312X0.0002*%
%ADD509R,0.1308X0.0002*%
%ADD510R,0.1308X0.0002*%
%ADD511R,0.1304X0.0002*%
%ADD512R,0.1302X0.0002*%
%ADD513R,0.1296X0.0002*%
%ADD514R,0.1294X0.0002*%
%ADD515R,0.1288X0.0002*%
%ADD516R,0.1282X0.0002*%
%ADD517R,0.1276X0.0002*%
%ADD518R,0.1274X0.0002*%
%ADD519R,0.1270X0.0002*%
%ADD520R,0.1266X0.0002*%
%ADD521R,0.1260X0.0002*%
%ADD522R,0.1254X0.0002*%
%ADD523R,0.1244X0.0002*%
%ADD524R,0.1242X0.0002*%
%ADD525R,0.1234X0.0002*%
%ADD526R,0.1232X0.0002*%
%ADD527R,0.1226X0.0002*%
%ADD528R,0.1214X0.0002*%
%ADD529R,0.1206X0.0002*%
%ADD530R,0.1196X0.0002*%
%ADD531R,0.1174X0.0002*%
%ADD532R,0.1166X0.0002*%
%ADD533R,0.1160X0.0002*%
%ADD534R,0.1154X0.0002*%
%ADD535R,0.1144X0.0002*%
%ADD536R,0.1134X0.0002*%
%ADD537R,0.1126X0.0002*%
%ADD538R,0.1088X0.0002*%
%ADD539R,0.0010X0.0002*%
%ADD540R,0.0980X0.0002*%
%ADD541R,0.0964X0.0002*%
%ADD542R,0.0020X0.0002*%
%ADD543R,0.0950X0.0002*%
%ADD544R,0.0938X0.0002*%
%ADD545R,0.0928X0.0002*%
%ADD546R,0.0918X0.0002*%
%ADD547R,0.0908X0.0002*%
%ADD548R,0.0900X0.0002*%
%ADD549R,0.0894X0.0002*%
%ADD550R,0.0880X0.0002*%
%ADD551R,0.0872X0.0002*%
%ADD552R,0.0868X0.0002*%
%ADD553R,0.0854X0.0002*%
%ADD554R,0.0838X0.0002*%
%ADD555R,0.0834X0.0002*%
%ADD556R,0.0828X0.0002*%
%ADD557R,0.0826X0.0002*%
%ADD558R,0.0810X0.0002*%
%ADD559R,0.0802X0.0002*%
%ADD560R,0.0798X0.0002*%
%ADD561R,0.0784X0.0002*%
%ADD562R,0.0776X0.0002*%
%ADD563R,0.0018X0.0002*%
%ADD564R,0.0734X0.0002*%
%ADD565R,0.0042X0.0002*%
%ADD566R,0.0728X0.0002*%
%ADD567R,0.0722X0.0002*%
%ADD568R,0.0062X0.0002*%
%ADD569R,0.0722X0.0002*%
%ADD570R,0.0074X0.0002*%
%ADD571R,0.0718X0.0002*%
%ADD572R,0.0094X0.0002*%
%ADD573R,0.0712X0.0002*%
%ADD574R,0.0104X0.0002*%
%ADD575R,0.0710X0.0002*%
%ADD576R,0.0116X0.0002*%
%ADD577R,0.0706X0.0002*%
%ADD578R,0.0128X0.0002*%
%ADD579R,0.0706X0.0002*%
%ADD580R,0.0138X0.0002*%
%ADD581R,0.0702X0.0002*%
%ADD582R,0.0144X0.0002*%
%ADD583R,0.0700X0.0002*%
%ADD584R,0.0156X0.0002*%
%ADD585R,0.0696X0.0002*%
%ADD586R,0.0160X0.0002*%
%ADD587R,0.0694X0.0002*%
%ADD588R,0.0160X0.0002*%
%ADD589R,0.0690X0.0002*%
%ADD590R,0.0688X0.0002*%
%ADD591R,0.0158X0.0002*%
%ADD592R,0.0686X0.0002*%
%ADD593R,0.0684X0.0002*%
%ADD594R,0.0682X0.0002*%
%ADD595R,0.0678X0.0002*%
%ADD596R,0.0148X0.0002*%
%ADD597R,0.0676X0.0002*%
%ADD598R,0.0142X0.0002*%
%ADD599R,0.0676X0.0002*%
%ADD600R,0.0670X0.0002*%
%ADD601R,0.0668X0.0002*%
%ADD602R,0.0106X0.0002*%
%ADD603R,0.0668X0.0002*%
%ADD604R,0.0664X0.0002*%
%ADD605R,0.0084X0.0002*%
%ADD606R,0.0662X0.0002*%
%ADD607R,0.0074X0.0002*%
%ADD608R,0.0064X0.0002*%
%ADD609R,0.0658X0.0002*%
%ADD610R,0.0054X0.0002*%
%ADD611R,0.0656X0.0002*%
%ADD612R,0.0044X0.0002*%
%ADD613R,0.0652X0.0002*%
%ADD614R,0.0652X0.0002*%
%ADD615R,0.0648X0.0002*%
%ADD616R,0.0646X0.0002*%
%ADD617R,0.0640X0.0002*%
%ADD618R,0.0640X0.0002*%
%ADD619R,0.0636X0.0002*%
%ADD620R,0.0634X0.0002*%
%ADD621R,0.0634X0.0002*%
%ADD622R,0.0626X0.0002*%
%ADD623R,0.0624X0.0002*%
%ADD624R,0.0622X0.0002*%
%ADD625R,0.0616X0.0002*%
%ADD626R,0.0614X0.0002*%
%ADD627R,0.0612X0.0002*%
%ADD628R,0.0610X0.0002*%
%ADD629R,0.0606X0.0002*%
%ADD630R,0.0604X0.0002*%
%ADD631R,0.0604X0.0002*%
%ADD632R,0.0598X0.0002*%
%ADD633R,0.0600X0.0002*%
%ADD634R,0.0596X0.0002*%
%ADD635R,0.0596X0.0002*%
%ADD636R,0.0592X0.0002*%
%ADD637R,0.0592X0.0002*%
%ADD638R,0.0588X0.0002*%
%ADD639R,0.0586X0.0002*%
%ADD640R,0.0584X0.0002*%
%ADD641R,0.0580X0.0002*%
%ADD642R,0.0580X0.0002*%
%ADD643R,0.0578X0.0002*%
%ADD644R,0.0574X0.0002*%
%ADD645R,0.0572X0.0002*%
%ADD646R,0.0568X0.0002*%
%ADD647R,0.0570X0.0002*%
%ADD648R,0.0564X0.0002*%
%ADD649R,0.0564X0.0002*%
%ADD650R,0.0562X0.0002*%
%ADD651R,0.0560X0.0002*%
%ADD652R,0.0558X0.0002*%
%ADD653R,0.0558X0.0002*%
%ADD654R,0.0556X0.0002*%
%ADD655R,0.0552X0.0002*%
%ADD656R,0.0114X0.0002*%
%ADD657R,0.0552X0.0002*%
%ADD658R,0.0110X0.0002*%
%ADD659R,0.0550X0.0002*%
%ADD660R,0.0110X0.0002*%
%ADD661R,0.0548X0.0002*%
%ADD662R,0.0106X0.0002*%
%ADD663R,0.0102X0.0002*%
%ADD664R,0.0544X0.0002*%
%ADD665R,0.0542X0.0002*%
%ADD666R,0.0090X0.0002*%
%ADD667R,0.0540X0.0002*%
%ADD668R,0.0540X0.0002*%
%ADD669R,0.0536X0.0002*%
%ADD670R,0.0536X0.0002*%
%ADD671R,0.0534X0.0002*%
%ADD672R,0.0060X0.0002*%
%ADD673R,0.0532X0.0002*%
%ADD674R,0.0532X0.0002*%
%ADD675R,0.0530X0.0002*%
%ADD676R,0.0012X0.0002*%
%ADD677R,0.0526X0.0002*%
%ADD678R,0.0528X0.0002*%
%ADD679R,0.0522X0.0002*%
%ADD680R,0.0520X0.0002*%
%ADD681R,0.0520X0.0002*%
%ADD682R,0.0516X0.0002*%
%ADD683R,0.0518X0.0002*%
%ADD684R,0.0514X0.0002*%
%ADD685R,0.0514X0.0002*%
%ADD686R,0.0512X0.0002*%
%ADD687R,0.0062X0.0002*%
%ADD688R,0.0510X0.0002*%
%ADD689R,0.0506X0.0002*%
%ADD690R,0.0506X0.0002*%
%ADD691R,0.0502X0.0002*%
%ADD692R,0.0114X0.0002*%
%ADD693R,0.0120X0.0002*%
%ADD694R,0.0498X0.0002*%
%ADD695R,0.0126X0.0002*%
%ADD696R,0.0498X0.0002*%
%ADD697R,0.0132X0.0002*%
%ADD698R,0.0496X0.0002*%
%ADD699R,0.0494X0.0002*%
%ADD700R,0.0082X0.0002*%
%ADD701R,0.0080X0.0002*%
%ADD702R,0.0494X0.0002*%
%ADD703R,0.0490X0.0002*%
%ADD704R,0.0486X0.0002*%
%ADD705R,0.0486X0.0002*%
%ADD706R,0.0484X0.0002*%
%ADD707R,0.0482X0.0002*%
%ADD708R,0.0482X0.0002*%
%ADD709R,0.0480X0.0002*%
%ADD710R,0.0476X0.0002*%
%ADD711R,0.0474X0.0002*%
%ADD712R,0.0472X0.0002*%
%ADD713R,0.0012X0.0002*%
%ADD714R,0.0076X0.0002*%
%ADD715R,0.0472X0.0002*%
%ADD716R,0.0008X0.0002*%
%ADD717R,0.0468X0.0002*%
%ADD718R,0.0118X0.0002*%
%ADD719R,0.0466X0.0002*%
%ADD720R,0.0018X0.0002*%
%ADD721R,0.0464X0.0002*%
%ADD722R,0.0134X0.0002*%
%ADD723R,0.0462X0.0002*%
%ADD724R,0.0140X0.0002*%
%ADD725R,0.0462X0.0002*%
%ADD726R,0.0146X0.0002*%
%ADD727R,0.0460X0.0002*%
%ADD728R,0.0154X0.0002*%
%ADD729R,0.0460X0.0002*%
%ADD730R,0.0158X0.0002*%
%ADD731R,0.0162X0.0002*%
%ADD732R,0.0456X0.0002*%
%ADD733R,0.0008X0.0002*%
%ADD734R,0.0168X0.0002*%
%ADD735R,0.0456X0.0002*%
%ADD736R,0.0014X0.0002*%
%ADD737R,0.0174X0.0002*%
%ADD738R,0.0178X0.0002*%
%ADD739R,0.0452X0.0002*%
%ADD740R,0.0182X0.0002*%
%ADD741R,0.0186X0.0002*%
%ADD742R,0.0450X0.0002*%
%ADD743R,0.0190X0.0002*%
%ADD744R,0.0450X0.0002*%
%ADD745R,0.0194X0.0002*%
%ADD746R,0.0198X0.0002*%
%ADD747R,0.0448X0.0002*%
%ADD748R,0.0202X0.0002*%
%ADD749R,0.0444X0.0002*%
%ADD750R,0.0072X0.0002*%
%ADD751R,0.0206X0.0002*%
%ADD752R,0.0210X0.0002*%
%ADD753R,0.0442X0.0002*%
%ADD754R,0.0214X0.0002*%
%ADD755R,0.0218X0.0002*%
%ADD756R,0.0220X0.0002*%
%ADD757R,0.0438X0.0002*%
%ADD758R,0.0222X0.0002*%
%ADD759R,0.0226X0.0002*%
%ADD760R,0.0226X0.0002*%
%ADD761R,0.0434X0.0002*%
%ADD762R,0.0230X0.0002*%
%ADD763R,0.0434X0.0002*%
%ADD764R,0.0234X0.0002*%
%ADD765R,0.0234X0.0002*%
%ADD766R,0.0238X0.0002*%
%ADD767R,0.0238X0.0002*%
%ADD768R,0.0428X0.0002*%
%ADD769R,0.0240X0.0002*%
%ADD770R,0.0082X0.0002*%
%ADD771R,0.0242X0.0002*%
%ADD772R,0.0426X0.0002*%
%ADD773R,0.0246X0.0002*%
%ADD774R,0.0424X0.0002*%
%ADD775R,0.0248X0.0002*%
%ADD776R,0.0072X0.0002*%
%ADD777R,0.0250X0.0002*%
%ADD778R,0.0422X0.0002*%
%ADD779R,0.0066X0.0002*%
%ADD780R,0.0252X0.0002*%
%ADD781R,0.0420X0.0002*%
%ADD782R,0.0252X0.0002*%
%ADD783R,0.0254X0.0002*%
%ADD784R,0.0254X0.0002*%
%ADD785R,0.0416X0.0002*%
%ADD786R,0.0042X0.0002*%
%ADD787R,0.0256X0.0002*%
%ADD788R,0.0414X0.0002*%
%ADD789R,0.0258X0.0002*%
%ADD790R,0.0258X0.0002*%
%ADD791R,0.0412X0.0002*%
%ADD792R,0.0260X0.0002*%
%ADD793R,0.0262X0.0002*%
%ADD794R,0.0410X0.0002*%
%ADD795R,0.0006X0.0002*%
%ADD796R,0.0262X0.0002*%
%ADD797R,0.0264X0.0002*%
%ADD798R,0.0404X0.0002*%
%ADD799R,0.0406X0.0002*%
%ADD800R,0.0266X0.0002*%
%ADD801R,0.0266X0.0002*%
%ADD802R,0.0404X0.0002*%
%ADD803R,0.0400X0.0002*%
%ADD804R,0.0402X0.0002*%
%ADD805R,0.0092X0.0002*%
%ADD806R,0.0398X0.0002*%
%ADD807R,0.0098X0.0002*%
%ADD808R,0.0268X0.0002*%
%ADD809R,0.0102X0.0002*%
%ADD810R,0.0112X0.0002*%
%ADD811R,0.0392X0.0002*%
%ADD812R,0.0122X0.0002*%
%ADD813R,0.0386X0.0002*%
%ADD814R,0.0372X0.0002*%
%ADD815R,0.0252X0.0002*%
%ADD816R,0.0366X0.0002*%
%ADD817R,0.0246X0.0002*%
%ADD818R,0.0244X0.0002*%
%ADD819R,0.0364X0.0002*%
%ADD820R,0.0242X0.0002*%
%ADD821R,0.0362X0.0002*%
%ADD822R,0.0360X0.0002*%
%ADD823R,0.0360X0.0002*%
%ADD824R,0.0358X0.0002*%
%ADD825R,0.0358X0.0002*%
%ADD826R,0.0064X0.0002*%
%ADD827R,0.0356X0.0002*%
%ADD828R,0.0228X0.0002*%
%ADD829R,0.0356X0.0002*%
%ADD830R,0.0354X0.0002*%
%ADD831R,0.0222X0.0002*%
%ADD832R,0.0352X0.0002*%
%ADD833R,0.0352X0.0002*%
%ADD834R,0.0216X0.0002*%
%ADD835R,0.0352X0.0002*%
%ADD836R,0.0350X0.0002*%
%ADD837R,0.0348X0.0002*%
%ADD838R,0.0204X0.0002*%
%ADD839R,0.0346X0.0002*%
%ADD840R,0.0196X0.0002*%
%ADD841R,0.0344X0.0002*%
%ADD842R,0.0192X0.0002*%
%ADD843R,0.0344X0.0002*%
%ADD844R,0.0054X0.0002*%
%ADD845R,0.0190X0.0002*%
%ADD846R,0.0342X0.0002*%
%ADD847R,0.0054X0.0002*%
%ADD848R,0.0186X0.0002*%
%ADD849R,0.0342X0.0002*%
%ADD850R,0.0180X0.0002*%
%ADD851R,0.0340X0.0002*%
%ADD852R,0.0340X0.0002*%
%ADD853R,0.0170X0.0002*%
%ADD854R,0.0338X0.0002*%
%ADD855R,0.0166X0.0002*%
%ADD856R,0.0338X0.0002*%
%ADD857R,0.0162X0.0002*%
%ADD858R,0.0336X0.0002*%
%ADD859R,0.0334X0.0002*%
%ADD860R,0.0112X0.0002*%
%ADD861R,0.0336X0.0002*%
%ADD862R,0.0100X0.0002*%
%ADD863R,0.0138X0.0002*%
%ADD864R,0.0332X0.0002*%
%ADD865R,0.0092X0.0002*%
%ADD866R,0.0132X0.0002*%
%ADD867R,0.0330X0.0002*%
%ADD868R,0.0084X0.0002*%
%ADD869R,0.0124X0.0002*%
%ADD870R,0.0332X0.0002*%
%ADD871R,0.0116X0.0002*%
%ADD872R,0.0330X0.0002*%
%ADD873R,0.0328X0.0002*%
%ADD874R,0.0052X0.0002*%
%ADD875R,0.0086X0.0002*%
%ADD876R,0.0326X0.0002*%
%ADD877R,0.0324X0.0002*%
%ADD878R,0.0322X0.0002*%
%ADD879R,0.0322X0.0002*%
%ADD880R,0.0320X0.0002*%
%ADD881R,0.0318X0.0002*%
%ADD882R,0.0318X0.0002*%
%ADD883R,0.0316X0.0002*%
%ADD884R,0.0316X0.0002*%
%ADD885R,0.0016X0.0002*%
%ADD886R,0.0096X0.0002*%
%ADD887R,0.0314X0.0002*%
%ADD888R,0.0100X0.0002*%
%ADD889R,0.0312X0.0002*%
%ADD890R,0.0312X0.0002*%
%ADD891R,0.0310X0.0002*%
%ADD892R,0.0310X0.0002*%
%ADD893R,0.0306X0.0002*%
%ADD894R,0.0306X0.0002*%
%ADD895R,0.0304X0.0002*%
%ADD896R,0.0302X0.0002*%
%ADD897R,0.0300X0.0002*%
%ADD898R,0.0298X0.0002*%
%ADD899R,0.0298X0.0002*%
%ADD900R,0.0296X0.0002*%
%ADD901R,0.0294X0.0002*%
%ADD902R,0.0296X0.0002*%
%ADD903R,0.0292X0.0002*%
%ADD904R,0.0294X0.0002*%
%ADD905R,0.0290X0.0002*%
%ADD906R,0.0290X0.0002*%
%ADD907R,0.0288X0.0002*%
%ADD908R,0.0288X0.0002*%
%ADD909R,0.0286X0.0002*%
%ADD910R,0.0286X0.0002*%
%ADD911R,0.0284X0.0002*%
%ADD912R,0.0282X0.0002*%
%ADD913R,0.0282X0.0002*%
%ADD914R,0.0280X0.0002*%
%ADD915R,0.0278X0.0002*%
%ADD916R,0.0276X0.0002*%
%ADD917R,0.0276X0.0002*%
%ADD918R,0.0274X0.0002*%
%ADD919R,0.0272X0.0002*%
%ADD920R,0.0272X0.0002*%
%ADD921R,0.0270X0.0002*%
%ADD922R,0.0270X0.0002*%
%ADD923R,0.0006X0.0002*%
%ADD924R,0.0264X0.0002*%
%ADD925R,0.0010X0.0002*%
%ADD926R,0.0262X0.0002*%
%ADD927R,0.0260X0.0002*%
%ADD928R,0.0256X0.0002*%
%ADD929R,0.0250X0.0002*%
%ADD930R,0.0248X0.0002*%
%ADD931R,0.0244X0.0002*%
%ADD932R,0.0240X0.0002*%
%ADD933R,0.0236X0.0002*%
%ADD934R,0.0234X0.0002*%
%ADD935R,0.0232X0.0002*%
%ADD936R,0.0016X0.0002*%
%ADD937R,0.0232X0.0002*%
%ADD938R,0.0228X0.0002*%
%ADD939R,0.0224X0.0002*%
%ADD940R,0.0222X0.0002*%
%ADD941R,0.0088X0.0002*%
%ADD942R,0.0220X0.0002*%
%ADD943R,0.0104X0.0002*%
%ADD944R,0.0218X0.0002*%
%ADD945R,0.0216X0.0002*%
%ADD946R,0.0214X0.0002*%
%ADD947R,0.0212X0.0002*%
%ADD948R,0.0044X0.0002*%
%ADD949R,0.0212X0.0002*%
%ADD950R,0.0208X0.0002*%
%ADD951R,0.0208X0.0002*%
%ADD952R,0.0206X0.0002*%
%ADD953R,0.0202X0.0002*%
%ADD954R,0.0200X0.0002*%
%ADD955R,0.0198X0.0002*%
%ADD956R,0.0196X0.0002*%
%ADD957R,0.0192X0.0002*%
%ADD958R,0.0192X0.0002*%
%ADD959R,0.0188X0.0002*%
%ADD960R,0.0184X0.0002*%
%ADD961R,0.0184X0.0002*%
%ADD962R,0.0182X0.0002*%
%ADD963R,0.0182X0.0002*%
%ADD964R,0.0180X0.0002*%
%ADD965R,0.0178X0.0002*%
%ADD966R,0.0014X0.0002*%
%ADD967R,0.0176X0.0002*%
%ADD968R,0.0176X0.0002*%
%ADD969R,0.0004X0.0002*%
%ADD970R,0.0174X0.0002*%
%ADD971R,0.0172X0.0002*%
%ADD972R,0.0170X0.0002*%
%ADD973R,0.0166X0.0002*%
%ADD974R,0.0072X0.0002*%
%ADD975R,0.0164X0.0002*%
%ADD976R,0.0164X0.0002*%
%ADD977R,0.0162X0.0002*%
%ADD978R,0.0162X0.0002*%
%ADD979R,0.0156X0.0002*%
%ADD980R,0.0154X0.0002*%
%ADD981R,0.0094X0.0002*%
%ADD982R,0.0154X0.0002*%
%ADD983R,0.0152X0.0002*%
%ADD984R,0.0102X0.0002*%
%ADD985R,0.0152X0.0002*%
%ADD986R,0.0120X0.0002*%
%ADD987R,0.0334X0.0002*%
%ADD988R,0.0172X0.0002*%
%ADD989R,0.0004X0.0002*%
%ADD990R,0.0122X0.0002*%
%ADD991R,0.0084X0.0002*%
%ADD992R,0.0092X0.0002*%
%ADD993R,0.0012X0.0002*%
%ADD994R,0.0104X0.0002*%
%ADD995R,0.0064X0.0002*%
%ADD996R,0.0112X0.0002*%
%ADD997R,0.0108X0.0002*%
%ADD998R,0.0102X0.0002*%
%ADD999R,0.0082X0.0002*%
%ADD1000R,0.0012X0.0002*%
%ADD1001C,0.0020*%
%ADD1002C,0.0120*%
%ADD1003C,0.0100*%
D10*
X001670Y006670D02*
X001670Y006977D01*
X001823Y007130D01*
X001977Y006977D01*
X001977Y006670D01*
X002130Y006747D02*
X002130Y007054D01*
X002207Y007130D01*
X002361Y007130D01*
X002437Y007054D01*
X002437Y006747D01*
X002361Y006670D01*
X002207Y006670D01*
X002130Y006747D01*
X001977Y006900D02*
X001670Y006900D01*
X002591Y006593D02*
X002898Y006593D01*
X003051Y006670D02*
X003051Y006977D01*
X003205Y007130D01*
X003358Y006977D01*
X003358Y006670D01*
X003358Y006900D02*
X003051Y006900D01*
X006448Y002130D02*
X006295Y001977D01*
X006295Y001670D01*
X006295Y001900D02*
X006602Y001900D01*
X006602Y001977D02*
X006602Y001670D01*
X006755Y001747D02*
X006755Y002054D01*
X006832Y002130D01*
X006986Y002130D01*
X007062Y002054D01*
X007062Y001900D02*
X006909Y001900D01*
X007062Y001900D02*
X007062Y001747D01*
X006986Y001670D01*
X006832Y001670D01*
X006755Y001747D01*
X006602Y001977D02*
X006448Y002130D01*
X007216Y002130D02*
X007216Y001670D01*
X007523Y001670D02*
X007216Y002130D01*
X007523Y002130D02*
X007523Y001670D01*
X007676Y001670D02*
X007676Y002130D01*
X007906Y002130D01*
X007983Y002054D01*
X007983Y001747D01*
X007906Y001670D01*
X007676Y001670D01*
X010670Y006670D02*
X010670Y006977D01*
X010823Y007130D01*
X010977Y006977D01*
X010977Y006670D01*
X011130Y006670D02*
X011284Y006670D01*
X011207Y006670D02*
X011207Y007130D01*
X011130Y007130D02*
X011284Y007130D01*
X011437Y006593D02*
X011744Y006593D01*
X011898Y006670D02*
X011898Y006977D01*
X012051Y007130D01*
X012205Y006977D01*
X012205Y006670D01*
X012205Y006900D02*
X011898Y006900D01*
X010977Y006900D02*
X010670Y006900D01*
X011437Y015593D02*
X011744Y015593D01*
X011898Y015670D02*
X011898Y016130D01*
X012128Y016130D01*
X012205Y016054D01*
X012205Y015977D01*
X012128Y015900D01*
X011898Y015900D01*
X012128Y015900D02*
X012205Y015823D01*
X012205Y015747D01*
X012128Y015670D01*
X011898Y015670D01*
X011284Y015670D02*
X011130Y015670D01*
X011207Y015670D02*
X011207Y016130D01*
X011130Y016130D02*
X011284Y016130D01*
X010977Y015977D02*
X010977Y015670D01*
X010977Y015900D02*
X010670Y015900D01*
X010670Y015977D02*
X010823Y016130D01*
X010977Y015977D01*
X010670Y015977D02*
X010670Y015670D01*
X011437Y024593D02*
X011744Y024593D01*
X011898Y024747D02*
X011898Y025054D01*
X011974Y025130D01*
X012128Y025130D01*
X012205Y025054D01*
X012205Y024747D02*
X012128Y024670D01*
X011974Y024670D01*
X011898Y024747D01*
X011284Y024670D02*
X011130Y024670D01*
X011207Y024670D02*
X011207Y025130D01*
X011130Y025130D02*
X011284Y025130D01*
X010977Y024977D02*
X010977Y024670D01*
X010977Y024900D02*
X010670Y024900D01*
X010670Y024977D02*
X010670Y024670D01*
X010670Y024977D02*
X010823Y025130D01*
X010977Y024977D01*
X011437Y033593D02*
X011744Y033593D01*
X011898Y033670D02*
X011898Y034130D01*
X012128Y034130D01*
X012205Y034054D01*
X012205Y033747D01*
X012128Y033670D01*
X011898Y033670D01*
X012170Y035295D02*
X012170Y035602D01*
X012323Y035755D01*
X012477Y035602D01*
X012477Y035295D01*
X012630Y035372D02*
X012707Y035295D01*
X012861Y035295D01*
X012937Y035372D01*
X012937Y035525D01*
X012784Y035525D01*
X012630Y035679D02*
X012630Y035372D01*
X012477Y035525D02*
X012170Y035525D01*
X012630Y035679D02*
X012707Y035755D01*
X012861Y035755D01*
X012937Y035679D01*
X013091Y035755D02*
X013091Y035295D01*
X013398Y035295D02*
X013091Y035755D01*
X013398Y035755D02*
X013398Y035295D01*
X013551Y035295D02*
X013781Y035295D01*
X013858Y035372D01*
X013858Y035679D01*
X013781Y035755D01*
X013551Y035755D01*
X013551Y035295D01*
X011284Y034130D02*
X011130Y034130D01*
X011207Y034130D02*
X011207Y033670D01*
X011130Y033670D02*
X011284Y033670D01*
X010977Y033670D02*
X010977Y033977D01*
X010823Y034130D01*
X010670Y033977D01*
X010670Y033670D01*
X010670Y033900D02*
X010977Y033900D01*
X003358Y033747D02*
X003358Y034054D01*
X003281Y034130D01*
X003051Y034130D01*
X003051Y033670D01*
X003281Y033670D01*
X003358Y033747D01*
X002898Y033593D02*
X002591Y033593D01*
X002437Y033747D02*
X002437Y034054D01*
X002361Y034130D01*
X002207Y034130D01*
X002130Y034054D01*
X002130Y033747D01*
X002207Y033670D01*
X002361Y033670D01*
X002437Y033747D01*
X001977Y033670D02*
X001977Y033977D01*
X001823Y034130D01*
X001670Y033977D01*
X001670Y033670D01*
X001670Y033900D02*
X001977Y033900D01*
X002031Y035295D02*
X001801Y035295D01*
X001801Y035755D01*
X002031Y035755D01*
X002108Y035679D01*
X002108Y035372D01*
X002031Y035295D01*
X001648Y035295D02*
X001648Y035755D01*
X001341Y035755D02*
X001341Y035295D01*
X001187Y035372D02*
X001187Y035525D01*
X001034Y035525D01*
X001187Y035372D02*
X001111Y035295D01*
X000957Y035295D01*
X000880Y035372D01*
X000880Y035679D01*
X000957Y035755D01*
X001111Y035755D01*
X001187Y035679D01*
X001341Y035755D02*
X001648Y035295D01*
X000727Y035295D02*
X000727Y035602D01*
X000573Y035755D01*
X000420Y035602D01*
X000420Y035295D01*
X000420Y035525D02*
X000727Y035525D01*
X001823Y025130D02*
X001670Y024977D01*
X001670Y024670D01*
X001670Y024900D02*
X001977Y024900D01*
X001977Y024977D02*
X001977Y024670D01*
X002130Y024747D02*
X002130Y025054D01*
X002207Y025130D01*
X002361Y025130D01*
X002437Y025054D01*
X002437Y024747D01*
X002361Y024670D01*
X002207Y024670D01*
X002130Y024747D01*
X001977Y024977D02*
X001823Y025130D01*
X002591Y024593D02*
X002898Y024593D01*
X003051Y024747D02*
X003051Y025054D01*
X003128Y025130D01*
X003281Y025130D01*
X003358Y025054D01*
X003358Y024747D02*
X003281Y024670D01*
X003128Y024670D01*
X003051Y024747D01*
X003051Y016130D02*
X003281Y016130D01*
X003358Y016054D01*
X003358Y015977D01*
X003281Y015900D01*
X003051Y015900D01*
X003051Y015670D02*
X003051Y016130D01*
X003281Y015900D02*
X003358Y015823D01*
X003358Y015747D01*
X003281Y015670D01*
X003051Y015670D01*
X002898Y015593D02*
X002591Y015593D01*
X002437Y015747D02*
X002437Y016054D01*
X002361Y016130D01*
X002207Y016130D01*
X002130Y016054D01*
X002130Y015747D01*
X002207Y015670D01*
X002361Y015670D01*
X002437Y015747D01*
X001977Y015670D02*
X001977Y015977D01*
X001823Y016130D01*
X001670Y015977D01*
X001670Y015670D01*
X001670Y015900D02*
X001977Y015900D01*
D11*
X005849Y007436D03*
X005875Y007434D03*
X005899Y007554D03*
X006075Y007654D03*
X006085Y007654D03*
X006089Y007654D03*
X006101Y007656D03*
X006151Y007616D03*
X006229Y007794D03*
X006245Y007790D03*
X006189Y007810D03*
X006185Y007810D03*
X006169Y007944D03*
X006165Y007944D03*
X006379Y008024D03*
X006519Y008344D03*
X006705Y008074D03*
X006729Y008200D03*
X006879Y008166D03*
X006959Y008184D03*
X007039Y008196D03*
X007085Y008200D03*
X006979Y008264D03*
X006919Y008400D03*
X007099Y008414D03*
X007205Y008294D03*
X007215Y008200D03*
X007209Y008176D03*
X007225Y008174D03*
X007279Y008194D03*
X007309Y008190D03*
X007191Y007550D03*
X007155Y007544D03*
X007151Y007544D03*
X007145Y007544D03*
X007109Y007174D03*
X007041Y007164D03*
X006995Y006184D03*
X007045Y006154D03*
X007049Y006154D03*
X007059Y006176D03*
X007085Y006174D03*
X007095Y006174D03*
X007105Y006150D03*
X007111Y006150D03*
X007115Y006150D03*
X007199Y006150D03*
X007255Y006154D03*
X007305Y006160D03*
X005999Y007296D03*
X005949Y007274D03*
X005919Y007280D03*
X005925Y007310D03*
D12*
X006080Y007654D03*
X007070Y008176D03*
X007090Y008200D03*
X007120Y006150D03*
D13*
X007157Y006150D03*
X006799Y006224D03*
X006793Y006226D03*
X006155Y007744D03*
X006251Y007784D03*
X006253Y007786D03*
X006063Y007800D03*
X006057Y007590D03*
X006323Y008064D03*
X006731Y008366D03*
X007213Y008434D03*
D14*
X007158Y007176D03*
X007152Y007176D03*
X007194Y006150D03*
X006158Y007996D03*
X006148Y007964D03*
X006034Y007834D03*
X006142Y007616D03*
D15*
X006147Y007616D03*
X006153Y007644D03*
X006193Y007810D03*
X006157Y007944D03*
X006173Y008104D03*
X006027Y007800D03*
X006053Y007784D03*
X006007Y007484D03*
X005867Y007436D03*
X005897Y007284D03*
X005957Y007304D03*
X006733Y008200D03*
X006873Y008164D03*
X006897Y008246D03*
X006903Y008270D03*
X006907Y008270D03*
X006993Y008190D03*
X007023Y008194D03*
X007017Y008170D03*
X007223Y008270D03*
X007257Y008270D03*
X007263Y008196D03*
X007097Y008444D03*
X007093Y008444D03*
X006937Y008424D03*
X006913Y008424D03*
X006913Y008400D03*
X006733Y008374D03*
X007113Y007806D03*
X007133Y007810D03*
X007127Y007546D03*
X007147Y007176D03*
X007147Y006806D03*
X007153Y006806D03*
X007157Y006806D03*
X007173Y006804D03*
X007127Y006804D03*
X007023Y006180D03*
X007033Y006156D03*
X007203Y006150D03*
X007207Y006150D03*
D16*
X007229Y006152D03*
X007289Y006158D03*
X007075Y006152D03*
X007041Y006178D03*
X007009Y006182D03*
X006971Y006188D03*
X007169Y006542D03*
X007195Y007178D03*
X007189Y008178D03*
X007165Y008202D03*
X007159Y008202D03*
X007155Y008202D03*
X007151Y008202D03*
X007141Y008202D03*
X007131Y008202D03*
X007125Y008202D03*
X007109Y008178D03*
X007101Y008178D03*
X007061Y008198D03*
X007001Y008168D03*
X006981Y008188D03*
X006839Y008358D03*
X006885Y008418D03*
X007049Y008438D03*
X007055Y008438D03*
X007109Y008442D03*
X007225Y008418D03*
X007295Y008192D03*
X007321Y008188D03*
X006735Y008348D03*
X006509Y008088D03*
X006361Y008142D03*
X005951Y007618D03*
X005849Y007468D03*
X005979Y007268D03*
D17*
X007152Y007788D03*
X007152Y006152D03*
D18*
X007233Y006152D03*
X007037Y006178D03*
X006907Y006202D03*
X006793Y006238D03*
X006083Y007572D03*
X005867Y007468D03*
X005863Y007322D03*
X005857Y007292D03*
X005967Y007302D03*
X006353Y008142D03*
X006567Y008258D03*
X006747Y008372D03*
X006913Y008248D03*
X006947Y008182D03*
X006967Y008162D03*
X007007Y008192D03*
X007057Y008198D03*
X007097Y008178D03*
X007137Y008202D03*
X007193Y008178D03*
X007063Y008272D03*
X007203Y008442D03*
X007283Y008498D03*
D19*
X007152Y006154D03*
D20*
X007154Y006156D03*
X007152Y007740D03*
X007666Y007984D03*
X007670Y007980D03*
D21*
X007726Y007918D03*
X007152Y006158D03*
D22*
X007152Y006160D03*
X007772Y007854D03*
X007770Y007856D03*
D23*
X007801Y007802D03*
X007151Y006162D03*
D24*
X007151Y006164D03*
X007821Y007760D03*
D25*
X007839Y007714D03*
X007153Y006166D03*
X006839Y006626D03*
X006837Y006634D03*
X006837Y006636D03*
X006837Y006710D03*
X006837Y006714D03*
D26*
X006853Y006588D03*
X007151Y006168D03*
D27*
X007151Y006170D03*
X006871Y006786D03*
D28*
X007152Y006172D03*
D29*
X007004Y006174D03*
D30*
X007238Y006174D03*
X007744Y007894D03*
X007742Y007896D03*
D31*
X006980Y008174D03*
X006986Y006176D03*
D32*
X007232Y006176D03*
X007780Y007840D03*
D33*
X006971Y006178D03*
D34*
X007230Y006178D03*
D35*
X006961Y006180D03*
X007153Y008200D03*
D36*
X007230Y006180D03*
D37*
X006950Y006182D03*
X006374Y008022D03*
D38*
X007229Y006182D03*
X007833Y007728D03*
D39*
X006936Y008166D03*
X006914Y008404D03*
X006510Y008320D03*
X006374Y008020D03*
X006076Y007674D03*
X006938Y006184D03*
D40*
X006843Y006610D03*
X006843Y006736D03*
X007227Y006184D03*
D41*
X006930Y006186D03*
X006360Y008146D03*
D42*
X006857Y006766D03*
X006855Y006764D03*
X006857Y006580D03*
X007227Y006186D03*
D43*
X006919Y006188D03*
X007151Y007802D03*
X006915Y008162D03*
X006735Y008218D03*
X006165Y007952D03*
X006007Y007502D03*
X005861Y007448D03*
D44*
X007226Y006188D03*
D45*
X006912Y006190D03*
X006734Y008216D03*
X006902Y008266D03*
X007212Y008420D03*
X006512Y008324D03*
X005860Y007450D03*
X005824Y007320D03*
D46*
X006875Y006790D03*
X006875Y006556D03*
X007227Y006190D03*
X007151Y008180D03*
D47*
X006899Y008158D03*
X006729Y008358D03*
X006903Y006192D03*
D48*
X007226Y006192D03*
X007866Y007598D03*
D49*
X007213Y008424D03*
X006939Y008344D03*
X006891Y008156D03*
X006895Y006194D03*
X006009Y007500D03*
D50*
X007226Y006194D03*
X007870Y007580D03*
D51*
X006888Y006196D03*
X006532Y008124D03*
X006734Y008214D03*
X006728Y008360D03*
X006078Y007666D03*
X005860Y007454D03*
D52*
X007227Y006196D03*
X007871Y007556D03*
D53*
X006881Y006198D03*
X006513Y008328D03*
X006011Y007498D03*
D54*
X007227Y006198D03*
X007873Y007538D03*
D55*
X006873Y006200D03*
X006373Y008010D03*
X005967Y007514D03*
D56*
X007227Y006200D03*
X007873Y007520D03*
X007873Y007524D03*
D57*
X006901Y008258D03*
X006943Y008348D03*
X006865Y006202D03*
X006007Y007612D03*
X006061Y007798D03*
D58*
X007227Y006202D03*
X007873Y007502D03*
D59*
X006860Y006204D03*
X006012Y007496D03*
X005950Y007520D03*
X005940Y007524D03*
X005934Y007526D03*
X005860Y007456D03*
X005970Y007626D03*
X005976Y007624D03*
X005986Y007620D03*
X005996Y007616D03*
X006002Y007614D03*
X006012Y007610D03*
X006024Y007606D03*
X006028Y007604D03*
X006038Y007600D03*
X006050Y007596D03*
X006080Y007664D03*
X005962Y007280D03*
X006360Y008154D03*
X006478Y008214D03*
X006514Y008330D03*
D60*
X007227Y006204D03*
X007873Y007494D03*
D61*
X007211Y008284D03*
X006919Y008416D03*
X006855Y008146D03*
X006529Y008120D03*
X006053Y007594D03*
X006853Y006206D03*
D62*
X007228Y006206D03*
X007872Y007474D03*
D63*
X006842Y008142D03*
X006568Y008252D03*
X006374Y008008D03*
X005992Y007618D03*
X006846Y006208D03*
D64*
X007229Y006208D03*
D65*
X006839Y006210D03*
X006167Y007960D03*
X005927Y007530D03*
X006729Y008364D03*
D66*
X007229Y006210D03*
X007869Y007444D03*
X007869Y007446D03*
D67*
X007211Y008282D03*
X006833Y006212D03*
X005859Y007458D03*
D68*
X007229Y006212D03*
D69*
X006828Y006214D03*
X007152Y007806D03*
D70*
X007229Y006214D03*
X007865Y007420D03*
D71*
X007211Y008280D03*
X006823Y008136D03*
X006567Y008254D03*
X006159Y007740D03*
X005859Y007460D03*
X006821Y006216D03*
D72*
X007230Y006216D03*
X007864Y007414D03*
D73*
X007213Y008432D03*
X006829Y008138D03*
X006733Y008208D03*
X006359Y008158D03*
X006815Y006218D03*
D74*
X007230Y006218D03*
D75*
X006810Y006220D03*
X006374Y008006D03*
X006526Y008116D03*
X006534Y008234D03*
X006516Y008334D03*
X006806Y008130D03*
X006818Y008134D03*
X006090Y007784D03*
X006014Y007494D03*
D76*
X007230Y006220D03*
D77*
X006804Y006222D03*
X006156Y007742D03*
X005924Y007532D03*
X006812Y008132D03*
D78*
X007231Y006222D03*
D79*
X007232Y006224D03*
D80*
X007232Y006226D03*
X007850Y007360D03*
D81*
X007152Y007548D03*
X006784Y008122D03*
X006322Y008062D03*
X006152Y007748D03*
X006058Y007588D03*
X006788Y006228D03*
D82*
X007232Y006228D03*
X007848Y007352D03*
D83*
X006903Y008334D03*
X006473Y008206D03*
X006263Y007886D03*
X006773Y006234D03*
X006783Y006230D03*
D84*
X007233Y006230D03*
X007845Y007344D03*
D85*
X006777Y006232D03*
X006527Y008232D03*
D86*
X007234Y006232D03*
D87*
X007233Y006234D03*
D88*
X006768Y006236D03*
X006242Y007774D03*
X006142Y007756D03*
X005960Y007634D03*
X005922Y007534D03*
X006374Y008004D03*
X006322Y008060D03*
X006522Y008230D03*
X006756Y008110D03*
X006764Y008114D03*
X006770Y008116D03*
D89*
X007234Y006236D03*
X007838Y007324D03*
D90*
X007088Y008418D03*
X006898Y008252D03*
X006750Y008108D03*
X006736Y008102D03*
X006554Y008128D03*
X006506Y008222D03*
X006452Y008302D03*
X006444Y008298D03*
X006462Y008308D03*
X006426Y008288D03*
X006320Y008058D03*
X006152Y007838D03*
X006106Y007778D03*
X006134Y007762D03*
X006064Y007802D03*
X006162Y007642D03*
X006154Y007632D03*
X006730Y006252D03*
X006738Y006248D03*
X006762Y006238D03*
D91*
X007235Y006238D03*
D92*
X006758Y006240D03*
X006744Y006246D03*
X006734Y006250D03*
X006152Y007630D03*
X006156Y007634D03*
X006158Y007636D03*
X006060Y007584D03*
X006038Y007684D03*
X006102Y007780D03*
X006136Y007760D03*
X005920Y007536D03*
X006344Y008024D03*
X006558Y008130D03*
X006568Y008136D03*
X006514Y008226D03*
X006510Y008224D03*
X006502Y008220D03*
X006460Y008306D03*
X006456Y008304D03*
X006438Y008294D03*
X006430Y008290D03*
X006732Y008100D03*
X006740Y008104D03*
X006894Y008330D03*
X006882Y008400D03*
X006922Y008420D03*
X007214Y008436D03*
X007212Y008276D03*
D93*
X007235Y006240D03*
D94*
X006753Y006242D03*
X006159Y007638D03*
X006139Y007758D03*
X006097Y007782D03*
X006259Y007892D03*
X006525Y008112D03*
X006517Y008228D03*
X006471Y008312D03*
X006729Y008368D03*
X006969Y008282D03*
X006759Y008112D03*
D95*
X007236Y006242D03*
D96*
X006749Y006244D03*
X006161Y007640D03*
X006059Y007586D03*
X006187Y007816D03*
X006261Y007890D03*
X006473Y008204D03*
X006467Y008310D03*
X006517Y008336D03*
X006733Y008206D03*
X006745Y008106D03*
X006951Y008354D03*
X007061Y008414D03*
X007261Y008416D03*
X007255Y008294D03*
D97*
X007236Y006244D03*
D98*
X007238Y006246D03*
D99*
X007238Y006248D03*
D100*
X007238Y006250D03*
X007816Y007280D03*
D101*
X007239Y006252D03*
D102*
X006727Y006254D03*
X006721Y006256D03*
X006149Y007626D03*
X006131Y007764D03*
X006127Y007766D03*
X006121Y007770D03*
X006111Y007776D03*
X006257Y007894D03*
X006257Y007896D03*
X006017Y007490D03*
X005957Y007636D03*
X006523Y008110D03*
X006551Y008126D03*
X006597Y008234D03*
X006447Y008300D03*
X006441Y008296D03*
X006719Y008094D03*
X006723Y008096D03*
X006971Y008284D03*
X007087Y008416D03*
X007089Y008420D03*
X007091Y008424D03*
X007091Y008426D03*
D103*
X007809Y007270D03*
X007239Y006254D03*
D104*
X007240Y006256D03*
X007806Y007266D03*
D105*
X006718Y006258D03*
X006242Y007772D03*
X006048Y007812D03*
X006578Y008142D03*
D106*
X007240Y006258D03*
X007610Y006572D03*
X007650Y006632D03*
D107*
X007264Y008414D03*
X006956Y008356D03*
X006970Y008286D03*
X006886Y008326D03*
X006710Y008090D03*
X006424Y008286D03*
X006320Y008056D03*
X006146Y007624D03*
X006034Y007686D03*
X006704Y006264D03*
X006714Y006260D03*
D108*
X007241Y006260D03*
X007601Y006564D03*
X007655Y006644D03*
D109*
X006710Y006262D03*
X006150Y007628D03*
X006080Y007658D03*
X006056Y007808D03*
X006374Y008002D03*
X006390Y008142D03*
X006360Y008162D03*
X006516Y008338D03*
X006706Y008088D03*
X006716Y008092D03*
D110*
X007241Y006262D03*
D111*
X007242Y006264D03*
X007584Y006550D03*
X007666Y006674D03*
X007666Y006676D03*
D112*
X007257Y008296D03*
X007093Y008430D03*
X006733Y008204D03*
X006703Y008086D03*
X006691Y008080D03*
X006583Y008146D03*
X006581Y008144D03*
X006423Y008284D03*
X006319Y008054D03*
X006339Y008026D03*
X006047Y007814D03*
X005895Y007436D03*
X005859Y007464D03*
X006673Y006280D03*
X006681Y006276D03*
X006685Y006274D03*
X006693Y006270D03*
X006701Y006266D03*
D113*
X007243Y006266D03*
X007669Y006686D03*
D114*
X007265Y008412D03*
X007213Y008438D03*
X007095Y008432D03*
X007057Y008412D03*
X006695Y008082D03*
X006687Y008078D03*
X006587Y008148D03*
X006521Y008108D03*
X006251Y007902D03*
X006201Y007942D03*
X006143Y007842D03*
X006031Y007688D03*
X006061Y007582D03*
X005917Y007538D03*
X006689Y006272D03*
X006697Y006268D03*
D115*
X007243Y006268D03*
X007671Y006698D03*
D116*
X007672Y006706D03*
X007244Y006270D03*
D117*
X007244Y006272D03*
D118*
X007244Y006274D03*
X007674Y006720D03*
D119*
X007245Y006276D03*
D120*
X006678Y006278D03*
X006670Y006282D03*
X006650Y008058D03*
X006668Y008068D03*
X006674Y008072D03*
X006602Y008232D03*
X006762Y008348D03*
X006876Y008398D03*
X006956Y008358D03*
X006972Y008288D03*
X007260Y008298D03*
X006336Y008028D03*
X005954Y007638D03*
D121*
X007246Y006278D03*
X007674Y006732D03*
D122*
X007674Y006740D03*
X007246Y006280D03*
D123*
X007246Y006282D03*
D124*
X006666Y006284D03*
X006662Y006286D03*
X006062Y007580D03*
X006028Y007690D03*
X006026Y007784D03*
X006176Y007734D03*
X006242Y007770D03*
X006250Y007904D03*
X006248Y007906D03*
X006206Y007940D03*
X006176Y007964D03*
X006394Y008140D03*
X006470Y008200D03*
X006590Y008150D03*
X006660Y008064D03*
X006672Y008070D03*
X006678Y008074D03*
X006682Y008076D03*
X006702Y008226D03*
X006876Y008270D03*
X006884Y008324D03*
X006946Y008400D03*
X007096Y008434D03*
X007096Y008436D03*
X007266Y008410D03*
X007212Y008274D03*
X005976Y007274D03*
D125*
X007247Y006284D03*
X007673Y006750D03*
D126*
X007672Y006754D03*
X007672Y006756D03*
X007248Y006286D03*
D127*
X006659Y006288D03*
X006651Y006292D03*
X006641Y006298D03*
X006017Y007488D03*
X006025Y007692D03*
X006135Y007848D03*
X006209Y007938D03*
X006245Y007908D03*
X006319Y008052D03*
X006327Y008142D03*
X006593Y008152D03*
X006639Y008052D03*
X006657Y008062D03*
D128*
X007248Y006288D03*
D129*
X006655Y006290D03*
X006649Y006294D03*
X006645Y006296D03*
X006631Y006304D03*
X006173Y007736D03*
X006187Y007814D03*
X006141Y007844D03*
X006139Y007846D03*
X006131Y007944D03*
X006239Y007914D03*
X006243Y007910D03*
X006409Y008024D03*
X006545Y008314D03*
X006595Y008154D03*
X006645Y008056D03*
X006643Y008054D03*
X006629Y008046D03*
X006663Y008066D03*
X006765Y008346D03*
X006933Y008270D03*
X006971Y008290D03*
X007055Y008410D03*
X007261Y008300D03*
D130*
X007248Y006290D03*
D131*
X007249Y006292D03*
X007669Y006768D03*
X007753Y007208D03*
D132*
X007250Y006294D03*
D133*
X007250Y006296D03*
D134*
X007251Y006298D03*
X007665Y006778D03*
D135*
X007268Y008406D03*
X006958Y008360D03*
X006872Y008396D03*
X006898Y008250D03*
X006606Y008230D03*
X006598Y008156D03*
X006652Y008060D03*
X006636Y008050D03*
X006626Y008044D03*
X006334Y008030D03*
X006212Y007936D03*
X006176Y007966D03*
X006134Y007850D03*
X006044Y007816D03*
X006022Y007694D03*
X005916Y007540D03*
X006614Y006314D03*
X006628Y006306D03*
X006638Y006300D03*
D136*
X007251Y006300D03*
D137*
X006634Y006302D03*
X006624Y006308D03*
X006618Y006312D03*
X006608Y006318D03*
X006602Y006322D03*
X006146Y007622D03*
X006178Y007732D03*
X006242Y007912D03*
X006218Y007932D03*
X006396Y008138D03*
X006468Y008198D03*
X006422Y008282D03*
X006694Y008348D03*
X006698Y008228D03*
X006632Y008048D03*
X006622Y008042D03*
X006606Y008032D03*
X006972Y008292D03*
X006924Y008422D03*
X007054Y008408D03*
X007184Y008418D03*
X007268Y008408D03*
X007262Y008302D03*
D138*
X007251Y006302D03*
D139*
X007252Y006304D03*
D140*
X007252Y006306D03*
D141*
X007253Y006308D03*
X007657Y006792D03*
D142*
X007151Y007546D03*
X007269Y008404D03*
X007181Y008416D03*
X006689Y008346D03*
X006695Y008230D03*
X006619Y008040D03*
X006609Y008034D03*
X006359Y008164D03*
X006195Y008064D03*
X006185Y008074D03*
X006179Y008080D03*
X006165Y007974D03*
X006171Y007970D03*
X006215Y007934D03*
X006221Y007930D03*
X006225Y007926D03*
X006275Y007884D03*
X006269Y007790D03*
X006181Y007730D03*
X006129Y007854D03*
X006021Y007696D03*
X005899Y007434D03*
X005825Y007436D03*
X006589Y006330D03*
X006595Y006326D03*
X006599Y006324D03*
X006605Y006320D03*
X006611Y006316D03*
X006621Y006310D03*
D143*
X007254Y006310D03*
D144*
X007254Y006312D03*
D145*
X007255Y006314D03*
D146*
X007255Y006316D03*
D147*
X007256Y006318D03*
D148*
X007257Y006320D03*
D149*
X007257Y006322D03*
D150*
X007257Y006324D03*
D151*
X007258Y006326D03*
D152*
X006593Y006328D03*
X006587Y006332D03*
X006183Y007728D03*
X006277Y007882D03*
X006223Y007928D03*
X006173Y007968D03*
X006607Y008228D03*
X007097Y008438D03*
D153*
X007258Y006328D03*
D154*
X007259Y006330D03*
X007635Y006806D03*
D155*
X007259Y006332D03*
D156*
X006584Y006334D03*
X006580Y006336D03*
X006566Y006346D03*
X006552Y006356D03*
X005904Y007430D03*
X005858Y007466D03*
X006016Y007700D03*
X006126Y007856D03*
X006278Y007880D03*
X006316Y007944D03*
X006314Y007946D03*
X006310Y007950D03*
X006306Y007954D03*
X006304Y007956D03*
X006300Y007960D03*
X006296Y007964D03*
X006294Y007966D03*
X006290Y007970D03*
X006286Y007974D03*
X006284Y007976D03*
X006280Y007980D03*
X006276Y007984D03*
X006274Y007986D03*
X006270Y007990D03*
X006266Y007994D03*
X006264Y007996D03*
X006260Y008000D03*
X006256Y008004D03*
X006254Y008006D03*
X006250Y008010D03*
X006246Y008014D03*
X006244Y008016D03*
X006240Y008020D03*
X006236Y008024D03*
X006234Y008026D03*
X006230Y008030D03*
X006226Y008034D03*
X006224Y008036D03*
X006220Y008040D03*
X006216Y008044D03*
X006214Y008046D03*
X006210Y008050D03*
X006206Y008054D03*
X006200Y008060D03*
X006194Y008066D03*
X006190Y008070D03*
X006184Y008076D03*
X006176Y008084D03*
X006174Y008086D03*
X006326Y008036D03*
X006328Y008034D03*
X006414Y008026D03*
X006406Y008130D03*
X006402Y008134D03*
X006468Y008196D03*
X006420Y008280D03*
X006520Y008104D03*
X006578Y008014D03*
X006582Y008016D03*
X006588Y008020D03*
X006568Y008006D03*
X006564Y008004D03*
X006558Y008000D03*
X006550Y007994D03*
X006610Y008226D03*
X006772Y008340D03*
X006876Y008320D03*
X007052Y008404D03*
X007182Y008294D03*
X007264Y008304D03*
D157*
X007260Y006334D03*
D158*
X007260Y006336D03*
D159*
X006578Y006338D03*
X006572Y006342D03*
X006564Y006348D03*
X006558Y006352D03*
X006550Y006358D03*
X006018Y007698D03*
X006020Y007782D03*
X006044Y007818D03*
X006222Y007838D03*
X006280Y007878D03*
X006312Y007948D03*
X006308Y007952D03*
X006302Y007958D03*
X006298Y007962D03*
X006292Y007968D03*
X006288Y007972D03*
X006282Y007978D03*
X006278Y007982D03*
X006272Y007988D03*
X006268Y007992D03*
X006262Y007998D03*
X006258Y008002D03*
X006252Y008008D03*
X006248Y008012D03*
X006242Y008018D03*
X006238Y008022D03*
X006232Y008028D03*
X006228Y008032D03*
X006222Y008038D03*
X006218Y008042D03*
X006212Y008048D03*
X006208Y008052D03*
X006202Y008058D03*
X006198Y008062D03*
X006192Y008068D03*
X006182Y008078D03*
X006162Y007978D03*
X006324Y008038D03*
X006408Y008128D03*
X006404Y008132D03*
X006562Y008002D03*
X006570Y008008D03*
X006576Y008012D03*
X006548Y008312D03*
X006770Y008342D03*
X006874Y008318D03*
X006872Y008272D03*
X006938Y008272D03*
X006952Y008398D03*
X007270Y008402D03*
X006240Y007768D03*
D160*
X007260Y006338D03*
D161*
X006575Y006340D03*
X006569Y006344D03*
X006561Y006350D03*
X006555Y006354D03*
X006547Y006360D03*
X006541Y006364D03*
X006539Y006366D03*
X006521Y006380D03*
X006513Y006386D03*
X006045Y007514D03*
X006079Y007656D03*
X006147Y007620D03*
X006175Y007644D03*
X006187Y007724D03*
X006185Y007726D03*
X006123Y007860D03*
X006161Y007980D03*
X006203Y008056D03*
X006317Y008046D03*
X006319Y008044D03*
X006321Y008040D03*
X006351Y008074D03*
X006375Y008094D03*
X006377Y008096D03*
X006383Y008100D03*
X006387Y008104D03*
X006395Y008110D03*
X006399Y008114D03*
X006403Y008116D03*
X006407Y008120D03*
X006411Y008124D03*
X006411Y008126D03*
X006323Y008140D03*
X006525Y007974D03*
X006537Y007984D03*
X006539Y007986D03*
X006545Y007990D03*
X006553Y007996D03*
X006573Y008010D03*
X006607Y008164D03*
X006611Y008224D03*
X006689Y008236D03*
X006691Y008234D03*
X006685Y008344D03*
X006551Y008310D03*
X006283Y007876D03*
X006285Y007874D03*
X005823Y007434D03*
X006869Y008274D03*
X006973Y008300D03*
X007179Y008296D03*
X007265Y008306D03*
X007271Y008400D03*
X007213Y008440D03*
D162*
X007262Y006340D03*
D163*
X007262Y006342D03*
D164*
X007263Y006344D03*
D165*
X007263Y006346D03*
D166*
X007263Y006348D03*
D167*
X007264Y006350D03*
D168*
X007265Y006352D03*
D169*
X007264Y006354D03*
X007676Y007176D03*
D170*
X007266Y006356D03*
D171*
X007266Y006358D03*
D172*
X007266Y006360D03*
D173*
X006545Y006362D03*
X006531Y006372D03*
X005905Y007428D03*
X005913Y007542D03*
X006125Y007858D03*
X006127Y007942D03*
X006187Y008072D03*
X006177Y008082D03*
X006317Y008048D03*
X006321Y008042D03*
X006347Y008072D03*
X006355Y008078D03*
X006359Y008082D03*
X006367Y008088D03*
X006397Y008112D03*
X006317Y007942D03*
X006529Y007978D03*
X006543Y007988D03*
X006557Y007998D03*
X006693Y008232D03*
X006775Y008338D03*
X006961Y008362D03*
X006973Y008298D03*
X007051Y008398D03*
X007051Y008402D03*
X007177Y008412D03*
X007271Y008398D03*
X007177Y008298D03*
D174*
X007267Y006362D03*
D175*
X007268Y006364D03*
D176*
X007268Y006366D03*
D177*
X006536Y006368D03*
X006524Y006378D03*
X006518Y006382D03*
X006510Y006388D03*
X006506Y006392D03*
X006498Y006398D03*
X006494Y006402D03*
X006482Y006412D03*
X005950Y007642D03*
X006014Y007702D03*
X006122Y007862D03*
X006188Y007812D03*
X006272Y007792D03*
X006290Y007868D03*
X006286Y007872D03*
X006342Y008068D03*
X006372Y008092D03*
X006380Y008098D03*
X006384Y008102D03*
X006392Y008108D03*
X006404Y008118D03*
X006410Y008122D03*
X006484Y008162D03*
X006490Y008152D03*
X006492Y008148D03*
X006498Y008138D03*
X006504Y008128D03*
X006518Y008102D03*
X006470Y008188D03*
X006450Y008222D03*
X006448Y008228D03*
X006442Y008238D03*
X006440Y008242D03*
X006436Y008248D03*
X006430Y008258D03*
X006428Y008262D03*
X006552Y008308D03*
X006612Y008222D03*
X006614Y008218D03*
X006684Y008242D03*
X006780Y008232D03*
X006866Y008392D03*
X007212Y008272D03*
X007266Y008308D03*
X006548Y007992D03*
X006534Y007982D03*
X006522Y007972D03*
X006516Y007968D03*
X006510Y007962D03*
X006504Y007958D03*
X006492Y007948D03*
X006418Y008028D03*
X006318Y008138D03*
X005820Y007432D03*
D178*
X007269Y006368D03*
D179*
X006534Y006370D03*
X006528Y006374D03*
X006526Y006376D03*
X006516Y006384D03*
X006508Y006390D03*
X006504Y006394D03*
X006496Y006400D03*
X006480Y006414D03*
X006120Y007684D03*
X006012Y007704D03*
X006010Y007706D03*
X006016Y007780D03*
X006042Y007820D03*
X006118Y007866D03*
X006120Y007864D03*
X006224Y007840D03*
X006288Y007870D03*
X006346Y008070D03*
X006352Y008076D03*
X006358Y008080D03*
X006362Y008084D03*
X006366Y008086D03*
X006370Y008090D03*
X006390Y008106D03*
X006482Y008166D03*
X006480Y008170D03*
X006478Y008174D03*
X006476Y008176D03*
X006474Y008180D03*
X006472Y008184D03*
X006488Y008156D03*
X006500Y008134D03*
X006504Y008126D03*
X006452Y008220D03*
X006446Y008230D03*
X006444Y008234D03*
X006438Y008244D03*
X006432Y008256D03*
X006426Y008266D03*
X006420Y008276D03*
X006532Y007980D03*
X006526Y007976D03*
X006518Y007970D03*
X006514Y007966D03*
X006512Y007964D03*
X006506Y007960D03*
X006488Y007944D03*
X006478Y007936D03*
X006610Y008166D03*
X006612Y008170D03*
X006614Y008220D03*
X006682Y008340D03*
X006776Y008336D03*
X006778Y008334D03*
X006870Y008316D03*
X006868Y008276D03*
X006778Y008230D03*
X006868Y008394D03*
X006954Y008396D03*
X006974Y008304D03*
X007096Y008440D03*
X007178Y008414D03*
X007272Y008396D03*
X007266Y008310D03*
X005818Y007430D03*
D180*
X007269Y006370D03*
D181*
X007269Y006372D03*
D182*
X007270Y006374D03*
D183*
X007271Y006376D03*
D184*
X007271Y006378D03*
D185*
X007271Y006380D03*
D186*
X007272Y006382D03*
D187*
X007273Y006384D03*
X007645Y007174D03*
D188*
X007273Y006386D03*
D189*
X007274Y006388D03*
D190*
X007274Y006390D03*
D191*
X007275Y006392D03*
D192*
X007275Y006394D03*
D193*
X006501Y006396D03*
X006491Y006404D03*
X006489Y006406D03*
X006477Y006416D03*
X006473Y006420D03*
X006469Y006424D03*
X006467Y006426D03*
X006463Y006430D03*
X006451Y006440D03*
X006447Y006444D03*
X006441Y006450D03*
X006427Y006464D03*
X005907Y007424D03*
X005907Y007426D03*
X006019Y007486D03*
X006049Y007516D03*
X006123Y007686D03*
X006191Y007720D03*
X006291Y007866D03*
X006123Y007940D03*
X006007Y007710D03*
X006419Y008030D03*
X006499Y007954D03*
X006503Y007956D03*
X006483Y007940D03*
X006477Y007934D03*
X006467Y007926D03*
X006461Y007920D03*
X006457Y007916D03*
X006451Y007910D03*
X006503Y008130D03*
X006499Y008136D03*
X006497Y008140D03*
X006493Y008146D03*
X006491Y008150D03*
X006489Y008154D03*
X006483Y008164D03*
X006471Y008186D03*
X006469Y008190D03*
X006467Y008194D03*
X006449Y008224D03*
X006449Y008226D03*
X006443Y008236D03*
X006441Y008240D03*
X006437Y008246D03*
X006433Y008254D03*
X006429Y008260D03*
X006427Y008264D03*
X006423Y008270D03*
X006421Y008274D03*
X006553Y008306D03*
X006617Y008216D03*
X006617Y008214D03*
X006681Y008246D03*
X006683Y008244D03*
X006783Y008234D03*
X006783Y008326D03*
X006781Y008330D03*
X006869Y008314D03*
X006863Y008390D03*
X006973Y008314D03*
X006973Y008310D03*
X006973Y008306D03*
X006943Y008274D03*
X007049Y008384D03*
X007049Y008394D03*
X007051Y008396D03*
X007051Y008400D03*
X007171Y008406D03*
X007271Y008394D03*
X007171Y008304D03*
X006317Y008136D03*
D194*
X007275Y006396D03*
D195*
X007276Y006398D03*
D196*
X007277Y006400D03*
D197*
X007277Y006402D03*
D198*
X007277Y006404D03*
D199*
X007278Y006406D03*
X007626Y007170D03*
D200*
X007267Y008312D03*
X007273Y008392D03*
X007173Y008408D03*
X007173Y008302D03*
X006973Y008302D03*
X006973Y008308D03*
X006957Y008392D03*
X006867Y008278D03*
X006779Y008332D03*
X006683Y008342D03*
X006687Y008238D03*
X006731Y008202D03*
X006619Y008208D03*
X006617Y008212D03*
X006611Y008168D03*
X006501Y008132D03*
X006487Y008158D03*
X006481Y008168D03*
X006479Y008172D03*
X006473Y008182D03*
X006467Y008192D03*
X006433Y008252D03*
X006423Y008272D03*
X006419Y008278D03*
X006423Y008032D03*
X006497Y007952D03*
X006481Y007938D03*
X006473Y007932D03*
X006469Y007928D03*
X006463Y007922D03*
X006227Y007842D03*
X006117Y007868D03*
X006189Y007722D03*
X006009Y007708D03*
X005909Y007422D03*
X006439Y006452D03*
X006471Y006422D03*
X006487Y006408D03*
D201*
X007279Y006408D03*
D202*
X006485Y006410D03*
X006275Y007794D03*
X006115Y007870D03*
X006495Y007950D03*
X006495Y008144D03*
X006485Y008160D03*
X006435Y008250D03*
X006555Y008304D03*
X006615Y008174D03*
X006685Y008240D03*
X006785Y008236D03*
X006865Y008280D03*
X006955Y008394D03*
X007175Y008410D03*
X007175Y008300D03*
D203*
X007278Y006410D03*
D204*
X007280Y006412D03*
X007620Y007168D03*
D205*
X007280Y006414D03*
D206*
X007281Y006416D03*
D207*
X006475Y006418D03*
X006485Y007942D03*
X006495Y008142D03*
X006475Y008178D03*
X006445Y008232D03*
X006425Y008268D03*
X006555Y008302D03*
X006615Y008172D03*
X005795Y007332D03*
D208*
X007281Y006418D03*
D209*
X007282Y006420D03*
D210*
X007282Y006422D03*
D211*
X007282Y006424D03*
D212*
X007284Y006426D03*
D213*
X006464Y006428D03*
X006460Y006432D03*
X006454Y006438D03*
X006450Y006442D03*
X006434Y006458D03*
X006424Y006468D03*
X006420Y006472D03*
X006414Y006478D03*
X006410Y006482D03*
X006400Y006492D03*
X006050Y007518D03*
X006124Y007688D03*
X006006Y007712D03*
X006014Y007778D03*
X006114Y007872D03*
X006160Y007982D03*
X006174Y008088D03*
X006304Y008068D03*
X006294Y007862D03*
X006280Y007798D03*
X006400Y007858D03*
X006620Y008198D03*
X006620Y008202D03*
X006680Y008248D03*
X006676Y008258D03*
X006674Y008262D03*
X006674Y008332D03*
X006786Y008322D03*
X006790Y008312D03*
X006786Y008238D03*
X006864Y008282D03*
X007050Y008388D03*
X007050Y008392D03*
X007164Y008392D03*
X007166Y008312D03*
X007274Y008388D03*
X005816Y007428D03*
D214*
X007283Y006428D03*
D215*
X007284Y006430D03*
D216*
X007285Y006432D03*
D217*
X007152Y007810D03*
X007268Y008314D03*
X007268Y008316D03*
X007272Y008390D03*
X006962Y008364D03*
X006958Y008390D03*
X006862Y008290D03*
X006792Y008306D03*
X006788Y008316D03*
X006788Y008240D03*
X006678Y008336D03*
X006618Y008210D03*
X006618Y008180D03*
X006472Y007930D03*
X006292Y007864D03*
X006282Y007800D03*
X006278Y007796D03*
X006178Y007646D03*
X006052Y007520D03*
X005912Y007414D03*
X006012Y007776D03*
X006112Y007876D03*
X006118Y007936D03*
X006402Y006490D03*
X006408Y006484D03*
X006432Y006460D03*
X006438Y006454D03*
X006458Y006434D03*
D218*
X007285Y006434D03*
D219*
X006456Y006436D03*
X006446Y006446D03*
X006434Y006456D03*
X006416Y006476D03*
X006406Y006486D03*
X005910Y007420D03*
X005814Y007424D03*
X005910Y007544D03*
X006004Y007714D03*
X006174Y008090D03*
X006314Y008134D03*
X006426Y008036D03*
X006490Y007946D03*
X006466Y007924D03*
X006454Y007914D03*
X006446Y007906D03*
X006444Y007904D03*
X006440Y007900D03*
X006436Y007896D03*
X006434Y007894D03*
X006426Y007886D03*
X006420Y007880D03*
X006414Y007874D03*
X006410Y007870D03*
X006316Y007940D03*
X006556Y008300D03*
X006620Y008204D03*
X006620Y008194D03*
X006620Y008190D03*
X006620Y008186D03*
X006616Y008176D03*
X006680Y008250D03*
X006676Y008256D03*
X006674Y008260D03*
X006676Y008334D03*
X006784Y008324D03*
X006786Y008320D03*
X006790Y008310D03*
X006864Y008306D03*
X006866Y008310D03*
X006864Y008284D03*
X006946Y008276D03*
X006986Y008276D03*
X006986Y008274D03*
X006990Y008270D03*
X006964Y008366D03*
X007050Y008390D03*
X007170Y008404D03*
X007164Y008316D03*
X007170Y008306D03*
X007270Y008320D03*
X007274Y008384D03*
D220*
X007286Y006436D03*
D221*
X007286Y006438D03*
D222*
X007287Y006440D03*
D223*
X007287Y006442D03*
D224*
X007288Y006444D03*
D225*
X007289Y006446D03*
D226*
X006442Y006448D03*
X006178Y007648D03*
X006192Y007718D03*
X006042Y007822D03*
X006122Y007938D03*
X006312Y008132D03*
X006458Y007918D03*
X006452Y007912D03*
X006448Y007908D03*
X006442Y007902D03*
X006438Y007898D03*
X006432Y007892D03*
X006428Y007888D03*
X006422Y007882D03*
X006418Y007878D03*
X006368Y007822D03*
X006618Y008178D03*
X006618Y008182D03*
X006678Y008252D03*
X006678Y008338D03*
X006782Y008328D03*
X006868Y008312D03*
X006862Y008388D03*
X006958Y008388D03*
X006988Y008272D03*
X007168Y008308D03*
X007168Y008402D03*
D227*
X007289Y006448D03*
D228*
X007289Y006450D03*
D229*
X007289Y006452D03*
X007587Y007152D03*
D230*
X007290Y006454D03*
D231*
X007291Y006456D03*
X007585Y007150D03*
D232*
X007291Y006458D03*
D233*
X007292Y006460D03*
D234*
X006439Y008078D03*
X006439Y008082D03*
X006437Y008088D03*
X006431Y008042D03*
X006429Y008038D03*
X006303Y008072D03*
X006309Y008128D03*
X006317Y007938D03*
X006295Y007858D03*
X006283Y007802D03*
X006337Y007782D03*
X006345Y007792D03*
X006365Y007818D03*
X006373Y007828D03*
X006377Y007832D03*
X006381Y007838D03*
X006385Y007842D03*
X006391Y007848D03*
X006395Y007852D03*
X006403Y007862D03*
X006409Y007868D03*
X006413Y007872D03*
X006315Y007752D03*
X006195Y007712D03*
X006183Y007652D03*
X006111Y007878D03*
X006109Y007882D03*
X006107Y007888D03*
X006115Y007932D03*
X006001Y007722D03*
X005911Y007418D03*
X005913Y007412D03*
X005813Y007422D03*
X006323Y006588D03*
X006345Y006558D03*
X006353Y006548D03*
X006361Y006538D03*
X006369Y006528D03*
X006375Y006522D03*
X006377Y006518D03*
X006383Y006512D03*
X006387Y006508D03*
X006391Y006502D03*
X006395Y006498D03*
X006405Y006488D03*
X006429Y006462D03*
X006621Y008188D03*
X006621Y008192D03*
X006671Y008268D03*
X006671Y008272D03*
X006669Y008278D03*
X006667Y008282D03*
X006667Y008288D03*
X006669Y008322D03*
X006671Y008328D03*
X006787Y008318D03*
X006791Y008308D03*
X006793Y008302D03*
X006795Y008298D03*
X006795Y008292D03*
X006797Y008288D03*
X006797Y008262D03*
X006797Y008258D03*
X006793Y008248D03*
X006789Y008242D03*
X006863Y008288D03*
X006863Y008292D03*
X006861Y008298D03*
X006863Y008302D03*
X006865Y008308D03*
X006853Y008362D03*
X006857Y008382D03*
X006961Y008382D03*
X006963Y008372D03*
X006971Y008332D03*
X006971Y008328D03*
X006971Y008322D03*
X006973Y008318D03*
X006973Y008312D03*
X006985Y008278D03*
X007055Y008278D03*
X007053Y008298D03*
X007053Y008302D03*
X007051Y008332D03*
X007051Y008342D03*
X007049Y008358D03*
X007049Y008368D03*
X007049Y008372D03*
X007049Y008378D03*
X007049Y008382D03*
X007157Y008362D03*
X007157Y008352D03*
X007157Y008348D03*
X007159Y008332D03*
X007161Y008322D03*
X007163Y008318D03*
X007159Y008372D03*
X007159Y008378D03*
X007161Y008382D03*
X007163Y008388D03*
X007167Y008398D03*
X007273Y008382D03*
X007277Y008428D03*
X007279Y008452D03*
X007281Y008482D03*
X007269Y008318D03*
X006895Y008248D03*
X006557Y008298D03*
D235*
X007292Y006462D03*
X007582Y007148D03*
D236*
X007293Y006466D03*
X007293Y006464D03*
D237*
X007055Y008274D03*
X007053Y008294D03*
X007053Y008306D03*
X007053Y008310D03*
X007051Y008326D03*
X007051Y008334D03*
X007049Y008364D03*
X007049Y008374D03*
X007049Y008376D03*
X007049Y008380D03*
X007049Y008386D03*
X006963Y008374D03*
X006961Y008380D03*
X006961Y008384D03*
X006959Y008386D03*
X006969Y008340D03*
X006969Y008336D03*
X006971Y008334D03*
X006971Y008330D03*
X006971Y008326D03*
X006973Y008324D03*
X006973Y008320D03*
X006973Y008316D03*
X006951Y008280D03*
X006863Y008286D03*
X006861Y008294D03*
X006863Y008296D03*
X006863Y008300D03*
X006797Y008286D03*
X006797Y008284D03*
X006797Y008280D03*
X006797Y008274D03*
X006797Y008266D03*
X006795Y008256D03*
X006795Y008254D03*
X006791Y008246D03*
X006791Y008244D03*
X006795Y008294D03*
X006795Y008296D03*
X006793Y008300D03*
X006793Y008304D03*
X006789Y008314D03*
X006855Y008374D03*
X006857Y008380D03*
X006859Y008384D03*
X006859Y008386D03*
X006673Y008330D03*
X006671Y008326D03*
X006671Y008324D03*
X006667Y008316D03*
X006665Y008306D03*
X006665Y008300D03*
X006665Y008296D03*
X006667Y008286D03*
X006667Y008284D03*
X006669Y008276D03*
X006669Y008274D03*
X006671Y008270D03*
X006673Y008266D03*
X006673Y008264D03*
X006677Y008254D03*
X006619Y008206D03*
X006621Y008200D03*
X006621Y008196D03*
X006619Y008184D03*
X006559Y008294D03*
X006557Y008296D03*
X006517Y008100D03*
X006437Y008086D03*
X006437Y008084D03*
X006425Y008034D03*
X006303Y008070D03*
X006301Y008074D03*
X006301Y008076D03*
X006299Y008080D03*
X006307Y008126D03*
X006311Y008130D03*
X006429Y007890D03*
X006423Y007884D03*
X006417Y007876D03*
X006407Y007866D03*
X006405Y007864D03*
X006401Y007860D03*
X006397Y007856D03*
X006395Y007854D03*
X006389Y007846D03*
X006387Y007844D03*
X006383Y007840D03*
X006381Y007836D03*
X006375Y007830D03*
X006371Y007826D03*
X006359Y007810D03*
X006355Y007806D03*
X006347Y007796D03*
X006321Y007760D03*
X006285Y007804D03*
X006289Y007810D03*
X006297Y007856D03*
X006295Y007860D03*
X006231Y007846D03*
X006231Y007844D03*
X006241Y007766D03*
X006193Y007716D03*
X006195Y007714D03*
X006185Y007654D03*
X006181Y007650D03*
X006127Y007690D03*
X006003Y007716D03*
X006001Y007720D03*
X005999Y007726D03*
X006009Y007774D03*
X005947Y007644D03*
X005911Y007416D03*
X005913Y007410D03*
X005913Y007406D03*
X005909Y007360D03*
X005801Y007374D03*
X005805Y007394D03*
X005811Y007420D03*
X005815Y007426D03*
X005795Y007344D03*
X005985Y007270D03*
X006113Y007874D03*
X006109Y007880D03*
X006117Y007934D03*
X006341Y006564D03*
X006347Y006556D03*
X006351Y006550D03*
X006355Y006546D03*
X006367Y006530D03*
X006371Y006526D03*
X006373Y006524D03*
X006375Y006520D03*
X006379Y006516D03*
X006381Y006514D03*
X006385Y006510D03*
X006387Y006506D03*
X006389Y006504D03*
X006393Y006500D03*
X006397Y006496D03*
X006399Y006494D03*
X006411Y006480D03*
X006417Y006474D03*
X006421Y006470D03*
X006425Y006466D03*
X007167Y008310D03*
X007165Y008314D03*
X007161Y008324D03*
X007161Y008326D03*
X007159Y008330D03*
X007159Y008334D03*
X007157Y008344D03*
X007157Y008354D03*
X007157Y008360D03*
X007159Y008366D03*
X007159Y008374D03*
X007161Y008380D03*
X007161Y008384D03*
X007163Y008390D03*
X007165Y008394D03*
X007165Y008396D03*
X007167Y008400D03*
X007273Y008386D03*
X007277Y008424D03*
X007279Y008464D03*
X007271Y008326D03*
D238*
X007294Y006468D03*
D239*
X007294Y006470D03*
X007576Y007144D03*
D240*
X007294Y006472D03*
D241*
X007296Y006474D03*
D242*
X007295Y006476D03*
D243*
X007296Y006478D03*
X007568Y007138D03*
D244*
X007297Y006480D03*
D245*
X007297Y006482D03*
D246*
X007298Y006484D03*
X007566Y007136D03*
D247*
X007298Y006486D03*
D248*
X007299Y006488D03*
D249*
X007300Y006490D03*
D250*
X007299Y006492D03*
D251*
X007301Y006494D03*
X007301Y006496D03*
D252*
X007301Y006498D03*
D253*
X007301Y006500D03*
X007553Y007124D03*
D254*
X007302Y006502D03*
D255*
X007303Y006504D03*
X007303Y006506D03*
D256*
X007304Y006508D03*
D257*
X007304Y006510D03*
X007548Y007120D03*
D258*
X007305Y006512D03*
D259*
X007305Y006514D03*
X007545Y007116D03*
D260*
X007306Y006516D03*
D261*
X007307Y006518D03*
D262*
X007307Y006520D03*
D263*
X007308Y006522D03*
D264*
X007308Y006524D03*
D265*
X007308Y006526D03*
D266*
X007309Y006528D03*
D267*
X007310Y006530D03*
X007536Y007106D03*
D268*
X007270Y008322D03*
X007270Y008328D03*
X007272Y008332D03*
X007274Y008372D03*
X007274Y008378D03*
X007278Y008422D03*
X007278Y008432D03*
X007278Y008438D03*
X007278Y008442D03*
X007278Y008448D03*
X007278Y008458D03*
X007280Y008462D03*
X007280Y008468D03*
X007280Y008472D03*
X007280Y008488D03*
X007282Y008492D03*
X007158Y008368D03*
X007158Y008358D03*
X007158Y008342D03*
X007158Y008338D03*
X007160Y008328D03*
X007052Y008322D03*
X007052Y008318D03*
X007052Y008312D03*
X007052Y008308D03*
X007054Y008292D03*
X007054Y008288D03*
X007054Y008282D03*
X007050Y008338D03*
X007050Y008348D03*
X007050Y008352D03*
X007050Y008362D03*
X006970Y008338D03*
X006968Y008342D03*
X006964Y008368D03*
X006962Y008378D03*
X006948Y008278D03*
X006854Y008368D03*
X006854Y008372D03*
X006856Y008378D03*
X006798Y008282D03*
X006798Y008278D03*
X006798Y008272D03*
X006798Y008268D03*
X006794Y008252D03*
X006666Y008292D03*
X006666Y008298D03*
X006666Y008302D03*
X006666Y008308D03*
X006666Y008312D03*
X006668Y008318D03*
X006730Y008372D03*
X006558Y008292D03*
X006550Y008258D03*
X006518Y008342D03*
X006440Y008072D03*
X006440Y008068D03*
X006438Y008062D03*
X006436Y008052D03*
X006434Y008048D03*
X006300Y008078D03*
X006300Y008082D03*
X006298Y008088D03*
X006298Y008092D03*
X006298Y008098D03*
X006300Y008112D03*
X006174Y008092D03*
X006112Y007928D03*
X006108Y007918D03*
X006106Y007898D03*
X006106Y007892D03*
X006234Y007848D03*
X006298Y007852D03*
X006294Y007818D03*
X006288Y007808D03*
X006334Y007778D03*
X006330Y007772D03*
X006326Y007768D03*
X006322Y007762D03*
X006308Y007742D03*
X006306Y007738D03*
X006342Y007788D03*
X006350Y007798D03*
X006352Y007802D03*
X006356Y007808D03*
X006360Y007812D03*
X006190Y007662D03*
X006186Y007658D03*
X006146Y007618D03*
X006128Y007692D03*
X006002Y007718D03*
X005998Y007732D03*
X006008Y007772D03*
X006054Y007522D03*
X005914Y007408D03*
X005914Y007402D03*
X005914Y007398D03*
X005914Y007392D03*
X005912Y007382D03*
X005912Y007378D03*
X005912Y007372D03*
X005910Y007368D03*
X005908Y007352D03*
X005906Y007348D03*
X005906Y007342D03*
X005904Y007338D03*
X005904Y007332D03*
X005902Y007328D03*
X005902Y007322D03*
X005900Y007318D03*
X005794Y007338D03*
X005796Y007348D03*
X005796Y007352D03*
X005798Y007358D03*
X005798Y007362D03*
X005800Y007372D03*
X005802Y007378D03*
X005802Y007382D03*
X005804Y007392D03*
X005806Y007398D03*
X005806Y007402D03*
X005808Y007408D03*
X005808Y007412D03*
X005812Y007418D03*
X006258Y006692D03*
X006264Y006682D03*
X006266Y006678D03*
X006272Y006668D03*
X006290Y006638D03*
X006294Y006632D03*
X006296Y006628D03*
X006300Y006622D03*
X006314Y006602D03*
X006316Y006598D03*
X006320Y006592D03*
X006328Y006582D03*
X006330Y006578D03*
X006334Y006572D03*
X006338Y006568D03*
X006342Y006562D03*
X006350Y006552D03*
X006358Y006542D03*
X006366Y006532D03*
D269*
X007310Y006532D03*
D270*
X007270Y008284D03*
X007270Y008324D03*
X007272Y008330D03*
X007272Y008336D03*
X007274Y008350D03*
X007274Y008356D03*
X007274Y008364D03*
X007274Y008366D03*
X007274Y008370D03*
X007274Y008374D03*
X007274Y008376D03*
X007274Y008380D03*
X007276Y008420D03*
X007278Y008430D03*
X007278Y008434D03*
X007278Y008436D03*
X007278Y008440D03*
X007278Y008444D03*
X007278Y008446D03*
X007278Y008454D03*
X007280Y008456D03*
X007280Y008460D03*
X007280Y008466D03*
X007280Y008470D03*
X007280Y008474D03*
X007280Y008476D03*
X007280Y008480D03*
X007280Y008484D03*
X007282Y008486D03*
X007282Y008490D03*
X007282Y008494D03*
X007282Y008496D03*
X007162Y008386D03*
X007160Y008376D03*
X007158Y008370D03*
X007158Y008364D03*
X007158Y008356D03*
X007158Y008350D03*
X007158Y008346D03*
X007158Y008340D03*
X007158Y008336D03*
X007162Y008320D03*
X007054Y008300D03*
X007054Y008290D03*
X007054Y008286D03*
X007054Y008284D03*
X007054Y008280D03*
X007054Y008276D03*
X007052Y008314D03*
X007052Y008316D03*
X007052Y008320D03*
X007052Y008324D03*
X007052Y008330D03*
X007052Y008336D03*
X007050Y008340D03*
X007050Y008344D03*
X007050Y008346D03*
X007050Y008350D03*
X007050Y008354D03*
X007050Y008356D03*
X007050Y008360D03*
X007048Y008366D03*
X007050Y008370D03*
X006964Y008370D03*
X006962Y008376D03*
X006984Y008280D03*
X006864Y008304D03*
X006854Y008370D03*
X006854Y008376D03*
X006796Y008290D03*
X006798Y008276D03*
X006798Y008270D03*
X006798Y008264D03*
X006796Y008260D03*
X006794Y008250D03*
X006668Y008280D03*
X006666Y008290D03*
X006666Y008294D03*
X006666Y008304D03*
X006666Y008310D03*
X006668Y008314D03*
X006668Y008320D03*
X006560Y008290D03*
X006560Y008286D03*
X006560Y008284D03*
X006438Y008090D03*
X006438Y008080D03*
X006440Y008076D03*
X006438Y008074D03*
X006440Y008070D03*
X006438Y008060D03*
X006438Y008056D03*
X006436Y008050D03*
X006434Y008046D03*
X006432Y008044D03*
X006430Y008040D03*
X006298Y008084D03*
X006298Y008086D03*
X006302Y008116D03*
X006306Y008124D03*
X006160Y007984D03*
X006114Y007930D03*
X006110Y007924D03*
X006106Y007894D03*
X006108Y007884D03*
X006234Y007850D03*
X006298Y007850D03*
X006298Y007854D03*
X006292Y007814D03*
X006338Y007784D03*
X006340Y007786D03*
X006342Y007790D03*
X006346Y007794D03*
X006350Y007800D03*
X006354Y007804D03*
X006362Y007814D03*
X006364Y007816D03*
X006366Y007820D03*
X006370Y007824D03*
X006378Y007834D03*
X006392Y007850D03*
X006336Y007780D03*
X006332Y007776D03*
X006328Y007770D03*
X006326Y007766D03*
X006318Y007756D03*
X006314Y007750D03*
X006312Y007746D03*
X006310Y007744D03*
X006304Y007736D03*
X006300Y007730D03*
X006298Y007726D03*
X006294Y007720D03*
X006292Y007716D03*
X006290Y007714D03*
X006288Y007710D03*
X006284Y007704D03*
X006276Y007690D03*
X006198Y007704D03*
X006198Y007706D03*
X006196Y007710D03*
X006186Y007656D03*
X006130Y007694D03*
X006000Y007724D03*
X005998Y007730D03*
X006004Y007766D03*
X006006Y007770D03*
X006054Y007524D03*
X005914Y007404D03*
X005914Y007396D03*
X005914Y007394D03*
X005914Y007390D03*
X005914Y007386D03*
X005912Y007380D03*
X005912Y007376D03*
X005910Y007366D03*
X005910Y007364D03*
X005908Y007356D03*
X005908Y007354D03*
X005906Y007350D03*
X005906Y007344D03*
X005904Y007340D03*
X005904Y007336D03*
X005904Y007334D03*
X005902Y007326D03*
X005902Y007324D03*
X005796Y007350D03*
X005796Y007354D03*
X005798Y007360D03*
X005798Y007364D03*
X005800Y007366D03*
X005800Y007370D03*
X005802Y007380D03*
X005802Y007386D03*
X005804Y007390D03*
X005806Y007400D03*
X005808Y007406D03*
X005808Y007410D03*
X005810Y007414D03*
X005810Y007416D03*
X005794Y007340D03*
X005792Y007336D03*
X006280Y006654D03*
X006282Y006650D03*
X006286Y006644D03*
X006288Y006640D03*
X006292Y006636D03*
X006292Y006634D03*
X006298Y006624D03*
X006304Y006616D03*
X006308Y006610D03*
X006310Y006606D03*
X006312Y006604D03*
X006314Y006600D03*
X006318Y006596D03*
X006318Y006594D03*
X006322Y006590D03*
X006324Y006586D03*
X006326Y006584D03*
X006332Y006576D03*
X006334Y006574D03*
X006336Y006570D03*
X006340Y006566D03*
X006344Y006560D03*
X006348Y006554D03*
X006356Y006544D03*
X006360Y006540D03*
X006362Y006536D03*
X006364Y006534D03*
D271*
X007310Y006534D03*
D272*
X007311Y006536D03*
D273*
X007312Y006538D03*
X007532Y007102D03*
D274*
X007312Y006540D03*
D275*
X006900Y006542D03*
X007872Y007552D03*
D276*
X007673Y006708D03*
X007565Y006542D03*
D277*
X007869Y007576D03*
X006893Y006544D03*
D278*
X007570Y006544D03*
X007672Y006700D03*
X007786Y007240D03*
D279*
X007868Y007586D03*
X006888Y006546D03*
D280*
X007575Y006546D03*
D281*
X007868Y007592D03*
X006886Y006548D03*
D282*
X007579Y006548D03*
D283*
X007867Y007600D03*
X006883Y006550D03*
D284*
X006880Y006552D03*
X007864Y007612D03*
D285*
X007665Y006672D03*
X007585Y006552D03*
D286*
X007864Y007616D03*
X007864Y007620D03*
X006878Y006554D03*
D287*
X007589Y006554D03*
X007663Y006664D03*
X007663Y006666D03*
D288*
X007662Y006660D03*
X007592Y006556D03*
D289*
X007862Y007628D03*
X006874Y006558D03*
D290*
X007594Y006558D03*
X007660Y006658D03*
X007662Y006662D03*
D291*
X007860Y007634D03*
X006872Y006560D03*
D292*
X007597Y006560D03*
X007659Y006654D03*
D293*
X006869Y006562D03*
D294*
X007599Y006562D03*
X007657Y006648D03*
D295*
X007860Y007636D03*
X006870Y006784D03*
X006868Y006564D03*
D296*
X006866Y006566D03*
X006866Y006780D03*
D297*
X007604Y006566D03*
X007654Y006640D03*
X007656Y006646D03*
D298*
X007857Y007648D03*
X006865Y006568D03*
D299*
X007605Y006568D03*
X007653Y006638D03*
D300*
X007856Y007654D03*
X006864Y006570D03*
D301*
X007607Y006570D03*
X007611Y006574D03*
X007651Y006634D03*
D302*
X007856Y007652D03*
X006864Y006778D03*
X006862Y006572D03*
D303*
X006861Y006574D03*
X006861Y006774D03*
X006863Y006776D03*
D304*
X006859Y006770D03*
X006859Y006576D03*
D305*
X007613Y006576D03*
X007647Y006626D03*
D306*
X006858Y006578D03*
X006858Y006768D03*
D307*
X007615Y006578D03*
X007619Y006582D03*
X007645Y006622D03*
D308*
X007269Y008274D03*
X007269Y008276D03*
X007269Y008280D03*
X007269Y008286D03*
X007273Y008334D03*
X007273Y008340D03*
X007273Y008344D03*
X007273Y008346D03*
X007273Y008354D03*
X007273Y008360D03*
X007277Y008426D03*
X007279Y008450D03*
X007045Y008424D03*
X007043Y008426D03*
X007043Y008430D03*
X007043Y008434D03*
X007045Y008420D03*
X007045Y008416D03*
X007053Y008304D03*
X007053Y008296D03*
X006853Y008360D03*
X006853Y008364D03*
X006853Y008366D03*
X006559Y008280D03*
X006559Y008276D03*
X006559Y008274D03*
X006551Y008260D03*
X006361Y008166D03*
X006303Y008120D03*
X006301Y008114D03*
X006299Y008110D03*
X006299Y008106D03*
X006299Y008104D03*
X006297Y008100D03*
X006297Y008096D03*
X006297Y008094D03*
X006439Y008066D03*
X006439Y008064D03*
X006437Y008054D03*
X006317Y007936D03*
X006299Y007846D03*
X006299Y007844D03*
X006299Y007836D03*
X006297Y007826D03*
X006297Y007824D03*
X006295Y007820D03*
X006293Y007816D03*
X006287Y007806D03*
X006331Y007774D03*
X006323Y007764D03*
X006317Y007754D03*
X006307Y007740D03*
X006303Y007734D03*
X006297Y007724D03*
X006285Y007706D03*
X006281Y007700D03*
X006279Y007696D03*
X006273Y007686D03*
X006273Y007684D03*
X006269Y007680D03*
X006267Y007676D03*
X006267Y007674D03*
X006265Y007670D03*
X006261Y007666D03*
X006261Y007664D03*
X006259Y007660D03*
X006257Y007656D03*
X006255Y007654D03*
X006253Y007650D03*
X006251Y007646D03*
X006247Y007636D03*
X006245Y007634D03*
X006243Y007630D03*
X006241Y007626D03*
X006241Y007624D03*
X006235Y007614D03*
X006233Y007610D03*
X006231Y007606D03*
X006229Y007600D03*
X006219Y007580D03*
X006217Y007574D03*
X006213Y007564D03*
X006211Y007560D03*
X006205Y007544D03*
X006201Y007534D03*
X006197Y007524D03*
X006189Y007500D03*
X006057Y007530D03*
X006055Y007526D03*
X006131Y007696D03*
X006133Y007700D03*
X006199Y007700D03*
X006199Y007694D03*
X006199Y007690D03*
X006199Y007686D03*
X006195Y007674D03*
X006191Y007666D03*
X006191Y007664D03*
X006189Y007660D03*
X006237Y007854D03*
X006107Y007886D03*
X006107Y007890D03*
X006105Y007896D03*
X006105Y007900D03*
X006105Y007904D03*
X006105Y007906D03*
X006105Y007910D03*
X006107Y007914D03*
X006107Y007916D03*
X006109Y007920D03*
X006111Y007926D03*
X006041Y007824D03*
X006003Y007764D03*
X006001Y007760D03*
X005999Y007756D03*
X005999Y007754D03*
X005997Y007746D03*
X005997Y007744D03*
X005997Y007740D03*
X005997Y007736D03*
X005997Y007734D03*
X005913Y007400D03*
X005913Y007384D03*
X005911Y007374D03*
X005911Y007370D03*
X005907Y007346D03*
X005903Y007330D03*
X005901Y007320D03*
X005793Y007334D03*
X005795Y007346D03*
X005797Y007356D03*
X005801Y007376D03*
X005803Y007384D03*
X005805Y007396D03*
X005807Y007404D03*
X006181Y006876D03*
X006183Y006870D03*
X006195Y006834D03*
X006213Y006786D03*
X006217Y006776D03*
X006223Y006764D03*
X006225Y006760D03*
X006227Y006754D03*
X006229Y006750D03*
X006231Y006746D03*
X006233Y006740D03*
X006235Y006736D03*
X006237Y006734D03*
X006239Y006730D03*
X006241Y006726D03*
X006241Y006724D03*
X006243Y006720D03*
X006247Y006714D03*
X006249Y006710D03*
X006251Y006706D03*
X006255Y006700D03*
X006257Y006694D03*
X006259Y006690D03*
X006261Y006686D03*
X006263Y006684D03*
X006265Y006680D03*
X006267Y006676D03*
X006269Y006674D03*
X006271Y006670D03*
X006273Y006666D03*
X006273Y006664D03*
X006277Y006660D03*
X006279Y006656D03*
X006285Y006646D03*
X006295Y006630D03*
X006297Y006626D03*
X006301Y006620D03*
X006305Y006614D03*
X006329Y006580D03*
D309*
X007616Y006580D03*
X007620Y006584D03*
X007624Y006590D03*
X007628Y006594D03*
X007632Y006600D03*
X007634Y006604D03*
X007636Y006606D03*
X007638Y006610D03*
X007640Y006614D03*
X007642Y006616D03*
X007644Y006620D03*
X007804Y007264D03*
D310*
X007852Y007672D03*
X006854Y006762D03*
X006856Y006582D03*
D311*
X006854Y006584D03*
X006854Y006586D03*
X007850Y007674D03*
D312*
X007629Y006596D03*
X007621Y006586D03*
D313*
X007624Y006588D03*
X007626Y006592D03*
X007634Y006602D03*
X007636Y006608D03*
X007640Y006612D03*
D314*
X006852Y006590D03*
D315*
X006851Y006592D03*
X006849Y006752D03*
X007849Y007682D03*
D316*
X007847Y007684D03*
X006851Y006756D03*
X006851Y006754D03*
X006849Y006596D03*
X006849Y006594D03*
D317*
X006848Y006598D03*
X006848Y006748D03*
X007846Y007688D03*
D318*
X007631Y006598D03*
D319*
X007847Y007690D03*
X006847Y006746D03*
X006847Y006600D03*
D320*
X006846Y006602D03*
D321*
X006846Y006604D03*
X006844Y006606D03*
X006844Y006740D03*
X006846Y006744D03*
X007844Y007696D03*
X007846Y007694D03*
D322*
X007269Y008272D03*
X007269Y008278D03*
X007269Y008282D03*
X007273Y008338D03*
X007273Y008342D03*
X007273Y008348D03*
X007275Y008358D03*
X007275Y008362D03*
X007275Y008368D03*
X007281Y008478D03*
X007051Y008328D03*
X006987Y008268D03*
X006559Y008288D03*
X006553Y008262D03*
X006439Y008058D03*
X006305Y008122D03*
X006303Y008118D03*
X006299Y008108D03*
X006297Y008102D03*
X006299Y007848D03*
X006299Y007842D03*
X006299Y007838D03*
X006299Y007832D03*
X006295Y007822D03*
X006291Y007812D03*
X006319Y007758D03*
X006313Y007748D03*
X006303Y007732D03*
X006299Y007728D03*
X006295Y007722D03*
X006293Y007718D03*
X006289Y007712D03*
X006287Y007708D03*
X006283Y007702D03*
X006281Y007698D03*
X006277Y007692D03*
X006275Y007688D03*
X006271Y007682D03*
X006269Y007678D03*
X006265Y007672D03*
X006263Y007668D03*
X006261Y007662D03*
X006257Y007658D03*
X006253Y007648D03*
X006249Y007642D03*
X006247Y007638D03*
X006239Y007622D03*
X006237Y007618D03*
X006233Y007608D03*
X006225Y007592D03*
X006223Y007588D03*
X006221Y007582D03*
X006219Y007578D03*
X006193Y007668D03*
X006195Y007672D03*
X006197Y007678D03*
X006199Y007698D03*
X006199Y007702D03*
X006197Y007708D03*
X006135Y007702D03*
X006133Y007698D03*
X005999Y007728D03*
X005997Y007738D03*
X005997Y007742D03*
X005997Y007748D03*
X006001Y007762D03*
X006005Y007768D03*
X006105Y007902D03*
X006105Y007908D03*
X006109Y007922D03*
X006237Y007852D03*
X006057Y007528D03*
X006183Y007482D03*
X005913Y007388D03*
X005909Y007362D03*
X005909Y007358D03*
X005803Y007388D03*
X005799Y007368D03*
X005795Y007342D03*
X006187Y006858D03*
X006197Y006828D03*
X006199Y006822D03*
X006201Y006818D03*
X006207Y006802D03*
X006215Y006782D03*
X006217Y006778D03*
X006219Y006772D03*
X006221Y006768D03*
X006223Y006762D03*
X006233Y006742D03*
X006235Y006738D03*
X006237Y006732D03*
X006239Y006728D03*
X006243Y006722D03*
X006245Y006718D03*
X006247Y006712D03*
X006249Y006708D03*
X006253Y006702D03*
X006255Y006698D03*
X006261Y006688D03*
X006269Y006672D03*
X006275Y006662D03*
X006277Y006658D03*
X006281Y006652D03*
X006283Y006648D03*
X006287Y006642D03*
X006303Y006618D03*
X006307Y006612D03*
X006309Y006608D03*
D323*
X006845Y006608D03*
X006845Y006738D03*
X006845Y006742D03*
D324*
X006843Y006612D03*
X007843Y007698D03*
D325*
X007844Y007700D03*
X007842Y007704D03*
X007152Y008184D03*
X006842Y006734D03*
X006842Y006616D03*
X006842Y006614D03*
D326*
X006841Y006618D03*
X006839Y006722D03*
X006841Y006728D03*
X007841Y007708D03*
D327*
X007803Y007262D03*
X007643Y006618D03*
D328*
X007841Y007706D03*
X006841Y006730D03*
X006839Y006624D03*
X006841Y006620D03*
D329*
X006840Y006622D03*
X006838Y006628D03*
D330*
X007646Y006624D03*
X007648Y006630D03*
X007652Y006636D03*
X007802Y007260D03*
D331*
X007648Y006628D03*
D332*
X007840Y007710D03*
X006840Y006726D03*
X006840Y006724D03*
X006838Y006720D03*
X006838Y006716D03*
X006838Y006630D03*
D333*
X006837Y006632D03*
X006837Y006638D03*
X006837Y006712D03*
X006839Y006718D03*
X007839Y007712D03*
D334*
X006836Y006706D03*
X006836Y006704D03*
X006834Y006694D03*
X006836Y006644D03*
X006836Y006640D03*
D335*
X006836Y006642D03*
X006834Y006652D03*
X006834Y006688D03*
X006834Y006692D03*
X006834Y006698D03*
X006836Y006702D03*
X006836Y006708D03*
D336*
X007654Y006642D03*
X007800Y007258D03*
D337*
X006835Y006646D03*
D338*
X006835Y006648D03*
X006835Y006658D03*
X006833Y006662D03*
X006833Y006668D03*
X006833Y006678D03*
X007837Y007718D03*
X007835Y007722D03*
D339*
X007837Y007720D03*
X006835Y006700D03*
X006835Y006696D03*
X006833Y006684D03*
X006833Y006680D03*
X006833Y006676D03*
X006833Y006674D03*
X006833Y006670D03*
X006833Y006666D03*
X006835Y006664D03*
X006833Y006660D03*
X006833Y006656D03*
X006835Y006654D03*
X006835Y006650D03*
D340*
X007658Y006650D03*
X007798Y007254D03*
X007798Y007256D03*
D341*
X007658Y006652D03*
D342*
X007660Y006656D03*
D343*
X007664Y006668D03*
X007796Y007252D03*
D344*
X007794Y007250D03*
X007664Y006670D03*
D345*
X006834Y006672D03*
X006834Y006682D03*
D346*
X007667Y006678D03*
X007793Y007248D03*
D347*
X007667Y006680D03*
D348*
X007668Y006682D03*
D349*
X007668Y006684D03*
X007792Y007246D03*
D350*
X007834Y007726D03*
X006834Y006690D03*
X006834Y006686D03*
D351*
X007670Y006688D03*
D352*
X007670Y006690D03*
X007790Y007244D03*
D353*
X007669Y006692D03*
D354*
X007670Y006694D03*
D355*
X007044Y008436D03*
X006558Y008270D03*
X006556Y008266D03*
X006554Y008264D03*
X006298Y008090D03*
X006242Y007866D03*
X006238Y007856D03*
X006298Y007830D03*
X006278Y007694D03*
X006248Y007640D03*
X006238Y007620D03*
X006236Y007616D03*
X006226Y007596D03*
X006226Y007594D03*
X006224Y007590D03*
X006222Y007586D03*
X006222Y007584D03*
X006218Y007576D03*
X006216Y007570D03*
X006214Y007566D03*
X006208Y007554D03*
X006208Y007550D03*
X006206Y007546D03*
X006204Y007540D03*
X006202Y007536D03*
X006198Y007526D03*
X006196Y007520D03*
X006194Y007516D03*
X006194Y007514D03*
X006192Y007510D03*
X006188Y007496D03*
X006186Y007494D03*
X006186Y007490D03*
X006184Y007486D03*
X006184Y007484D03*
X006182Y007480D03*
X006182Y007476D03*
X006178Y007466D03*
X006178Y007464D03*
X006176Y007460D03*
X006174Y007454D03*
X006174Y007450D03*
X006172Y007444D03*
X006168Y007434D03*
X006168Y007430D03*
X006166Y007426D03*
X006166Y007420D03*
X006164Y007416D03*
X006164Y007414D03*
X006162Y007406D03*
X006162Y007404D03*
X006158Y007390D03*
X006158Y007386D03*
X006156Y007380D03*
X006156Y007374D03*
X006154Y007370D03*
X006154Y007364D03*
X006152Y007356D03*
X006148Y007336D03*
X006148Y007334D03*
X006146Y007324D03*
X006146Y007320D03*
X006146Y007316D03*
X006144Y007306D03*
X006144Y007300D03*
X006142Y007294D03*
X006142Y007290D03*
X006142Y007284D03*
X006138Y007250D03*
X006138Y007246D03*
X006138Y007240D03*
X006138Y007236D03*
X006136Y007210D03*
X006136Y007200D03*
X006136Y007196D03*
X006136Y007194D03*
X006136Y007190D03*
X006136Y007184D03*
X006136Y007174D03*
X006136Y007170D03*
X006136Y007156D03*
X006136Y007144D03*
X006136Y007140D03*
X006136Y007134D03*
X006138Y007114D03*
X006138Y007110D03*
X006138Y007106D03*
X006142Y007066D03*
X006142Y007064D03*
X006144Y007050D03*
X006144Y007046D03*
X006144Y007044D03*
X006146Y007036D03*
X006146Y007030D03*
X006146Y007024D03*
X006148Y007020D03*
X006148Y007016D03*
X006152Y006996D03*
X006152Y006994D03*
X006154Y006984D03*
X006156Y006976D03*
X006156Y006974D03*
X006156Y006970D03*
X006158Y006966D03*
X006158Y006964D03*
X006162Y006950D03*
X006162Y006946D03*
X006164Y006940D03*
X006164Y006936D03*
X006166Y006930D03*
X006168Y006924D03*
X006168Y006920D03*
X006172Y006906D03*
X006172Y006904D03*
X006174Y006900D03*
X006176Y006894D03*
X006176Y006890D03*
X006178Y006886D03*
X006178Y006884D03*
X006184Y006866D03*
X006184Y006864D03*
X006186Y006860D03*
X006188Y006854D03*
X006192Y006844D03*
X006192Y006840D03*
X006194Y006836D03*
X006196Y006830D03*
X006198Y006826D03*
X006198Y006824D03*
X006202Y006816D03*
X006202Y006814D03*
X006204Y006810D03*
X006206Y006806D03*
X006206Y006804D03*
X006208Y006800D03*
X006212Y006790D03*
X006214Y006784D03*
X006216Y006780D03*
X006218Y006774D03*
X006222Y006766D03*
X006226Y006756D03*
X006232Y006744D03*
X006246Y006716D03*
X006252Y006704D03*
X006256Y006696D03*
X006058Y007534D03*
X005908Y007546D03*
X005946Y007646D03*
X005998Y007750D03*
X006138Y007716D03*
X006136Y007706D03*
X006198Y007684D03*
X006198Y007680D03*
X006196Y007676D03*
X006194Y007670D03*
D356*
X007671Y006696D03*
D357*
X007671Y006702D03*
D358*
X007671Y006704D03*
D359*
X007673Y006710D03*
X007783Y007236D03*
D360*
X007673Y006712D03*
D361*
X007673Y006714D03*
X007781Y007234D03*
D362*
X007674Y006716D03*
D363*
X007673Y006718D03*
X007779Y007232D03*
D364*
X007673Y006722D03*
D365*
X007674Y006724D03*
X007674Y006726D03*
D366*
X007674Y006728D03*
D367*
X007674Y006730D03*
D368*
X007842Y007702D03*
X006842Y006732D03*
D369*
X007674Y006734D03*
X007774Y007226D03*
D370*
X007674Y006736D03*
D371*
X007674Y006738D03*
D372*
X007673Y006742D03*
X007769Y007222D03*
D373*
X007767Y007220D03*
X007673Y006744D03*
D374*
X007673Y006746D03*
D375*
X007270Y008288D03*
X006560Y008282D03*
X006560Y008278D03*
X006200Y007692D03*
X006230Y007602D03*
X006210Y007558D03*
X006200Y007532D03*
X006190Y007502D03*
X006180Y007472D03*
X006170Y007438D03*
X006160Y007398D03*
X006150Y007348D03*
X006150Y007342D03*
X006140Y007272D03*
X006140Y007262D03*
X006140Y007088D03*
X006140Y007082D03*
X006140Y007078D03*
X006160Y006958D03*
X006170Y006912D03*
X006180Y006878D03*
X006190Y006848D03*
X006210Y006792D03*
X006230Y006748D03*
X006060Y007538D03*
X006060Y007542D03*
X006000Y007758D03*
D376*
X007673Y006748D03*
D377*
X007848Y007686D03*
X006848Y006750D03*
D378*
X006298Y007828D03*
X006238Y007858D03*
X006106Y007912D03*
X005998Y007752D03*
X006136Y007708D03*
X006198Y007682D03*
X006254Y007652D03*
X006244Y007632D03*
X006242Y007628D03*
X006234Y007612D03*
X006228Y007598D03*
X006216Y007572D03*
X006214Y007568D03*
X006212Y007562D03*
X006208Y007552D03*
X006206Y007548D03*
X006204Y007542D03*
X006202Y007538D03*
X006198Y007528D03*
X006196Y007522D03*
X006196Y007518D03*
X006192Y007512D03*
X006192Y007508D03*
X006188Y007498D03*
X006186Y007492D03*
X006182Y007478D03*
X006178Y007468D03*
X006176Y007458D03*
X006174Y007452D03*
X006172Y007448D03*
X006172Y007442D03*
X006168Y007428D03*
X006166Y007422D03*
X006164Y007412D03*
X006162Y007408D03*
X006158Y007388D03*
X006158Y007382D03*
X006156Y007378D03*
X006154Y007368D03*
X006152Y007358D03*
X006152Y007352D03*
X006148Y007338D03*
X006148Y007332D03*
X006144Y007308D03*
X006142Y007288D03*
X006136Y007218D03*
X006136Y007202D03*
X006136Y007188D03*
X006136Y007178D03*
X006136Y007158D03*
X006136Y007148D03*
X006136Y007128D03*
X006138Y007118D03*
X006142Y007062D03*
X006142Y007058D03*
X006146Y007032D03*
X006148Y007018D03*
X006152Y006998D03*
X006152Y006992D03*
X006154Y006988D03*
X006154Y006982D03*
X006156Y006972D03*
X006158Y006962D03*
X006162Y006948D03*
X006162Y006942D03*
X006164Y006938D03*
X006166Y006932D03*
X006166Y006928D03*
X006168Y006922D03*
X006172Y006908D03*
X006174Y006902D03*
X006174Y006898D03*
X006176Y006892D03*
X006178Y006888D03*
X006182Y006872D03*
X006184Y006868D03*
X006186Y006862D03*
X006188Y006852D03*
X006192Y006842D03*
X006194Y006838D03*
X006196Y006832D03*
X006204Y006812D03*
X006204Y006808D03*
X006208Y006798D03*
X006212Y006788D03*
X006226Y006758D03*
X006228Y006752D03*
X006058Y007532D03*
X006374Y007998D03*
X006516Y008098D03*
X006556Y008268D03*
X006558Y008272D03*
X007044Y008418D03*
X007044Y008422D03*
X007044Y008428D03*
X007044Y008432D03*
X007094Y008442D03*
X007274Y008352D03*
D379*
X007672Y006752D03*
D380*
X006852Y006758D03*
D381*
X007672Y006758D03*
D382*
X007851Y007676D03*
X007849Y007680D03*
X006853Y006760D03*
D383*
X007671Y006760D03*
D384*
X007671Y006762D03*
D385*
X007670Y006764D03*
D386*
X007669Y006766D03*
X007755Y007210D03*
D387*
X006300Y007834D03*
X006300Y007840D03*
X006240Y007860D03*
X006160Y007986D03*
X006200Y007696D03*
X006250Y007644D03*
X006230Y007604D03*
X006210Y007556D03*
X006200Y007530D03*
X006190Y007504D03*
X006180Y007474D03*
X006170Y007440D03*
X006170Y007436D03*
X006160Y007396D03*
X006160Y007394D03*
X006140Y007276D03*
X006140Y007270D03*
X006140Y007076D03*
X006150Y007010D03*
X006150Y007006D03*
X006150Y007004D03*
X006160Y006956D03*
X006160Y006954D03*
X006170Y006916D03*
X006170Y006914D03*
X006180Y006880D03*
X006190Y006850D03*
X006190Y006846D03*
X006200Y006820D03*
X006210Y006796D03*
X006210Y006794D03*
X006220Y006770D03*
X006060Y007536D03*
X006060Y007540D03*
X006060Y007544D03*
D388*
X007668Y006770D03*
D389*
X006860Y006772D03*
D390*
X007668Y006772D03*
D391*
X007668Y006774D03*
X007666Y006776D03*
X007748Y007204D03*
D392*
X007665Y006780D03*
D393*
X007859Y007642D03*
X006867Y006782D03*
D394*
X007664Y006782D03*
D395*
X007662Y006784D03*
D396*
X007662Y006786D03*
D397*
X006873Y006788D03*
D398*
X007660Y006788D03*
D399*
X007659Y006790D03*
X007735Y007196D03*
D400*
X006877Y006792D03*
D401*
X006880Y006794D03*
X007864Y007614D03*
D402*
X007655Y006794D03*
D403*
X007866Y007604D03*
X007866Y007606D03*
X006882Y006796D03*
D404*
X007654Y006796D03*
D405*
X006885Y006798D03*
D406*
X007652Y006798D03*
D407*
X006887Y006800D03*
D408*
X007649Y006800D03*
D409*
X006892Y006802D03*
D410*
X007646Y006802D03*
D411*
X007871Y007570D03*
X006895Y006804D03*
D412*
X007642Y006804D03*
D413*
X007873Y007540D03*
X006905Y006806D03*
D414*
X007388Y006808D03*
X007392Y006818D03*
X007394Y006822D03*
X007398Y006838D03*
X007402Y006848D03*
X007404Y006852D03*
X007406Y006858D03*
D415*
X007409Y006866D03*
X007391Y006816D03*
X007389Y006810D03*
D416*
X007390Y006812D03*
X007400Y006842D03*
X007410Y006868D03*
D417*
X007410Y006870D03*
X007400Y006840D03*
X007390Y006814D03*
D418*
X007393Y006820D03*
X007401Y006844D03*
X007405Y006854D03*
D419*
X007404Y006856D03*
X007406Y006860D03*
X007408Y006864D03*
X007412Y006874D03*
X007402Y006850D03*
X007402Y006846D03*
X007398Y006836D03*
X007398Y006834D03*
X007396Y006830D03*
X007394Y006826D03*
X007394Y006824D03*
D420*
X007395Y006828D03*
X007397Y006832D03*
D421*
X006187Y006856D03*
X006167Y006926D03*
X006163Y006944D03*
X006153Y006986D03*
X006153Y006990D03*
X006147Y007026D03*
X006143Y007054D03*
X006143Y007056D03*
X006143Y007060D03*
X006137Y007116D03*
X006137Y007120D03*
X006137Y007124D03*
X006137Y007126D03*
X006137Y007130D03*
X006137Y007136D03*
X006137Y007146D03*
X006137Y007150D03*
X006137Y007154D03*
X006137Y007166D03*
X006137Y007204D03*
X006137Y007214D03*
X006137Y007216D03*
X006137Y007220D03*
X006137Y007224D03*
X006137Y007226D03*
X006137Y007230D03*
X006137Y007234D03*
X006143Y007296D03*
X006147Y007326D03*
X006147Y007330D03*
X006153Y007360D03*
X006153Y007366D03*
X006157Y007384D03*
X006163Y007410D03*
X006167Y007424D03*
X006173Y007446D03*
X006137Y007710D03*
X006137Y007714D03*
X006137Y007720D03*
X006243Y007874D03*
D422*
X007413Y006878D03*
X007407Y006862D03*
D423*
X007411Y006872D03*
X007415Y006882D03*
D424*
X007271Y008270D03*
X006515Y008096D03*
X006241Y007864D03*
X006135Y007704D03*
X006039Y007826D03*
X006061Y007554D03*
X006061Y007550D03*
X006061Y007546D03*
X006191Y007506D03*
X006179Y007470D03*
X006175Y007456D03*
X006161Y007400D03*
X006155Y007376D03*
X006151Y007354D03*
X006151Y007350D03*
X006151Y007346D03*
X006149Y007344D03*
X006149Y007340D03*
X006145Y007314D03*
X006145Y007310D03*
X006145Y007304D03*
X006141Y007286D03*
X006141Y007280D03*
X006141Y007274D03*
X006141Y007266D03*
X006139Y007264D03*
X006139Y007260D03*
X006139Y007256D03*
X006139Y007254D03*
X006139Y007244D03*
X006135Y007206D03*
X006135Y007186D03*
X006135Y007180D03*
X006135Y007176D03*
X006135Y007164D03*
X006135Y007160D03*
X006139Y007104D03*
X006139Y007100D03*
X006139Y007096D03*
X006139Y007094D03*
X006139Y007090D03*
X006139Y007086D03*
X006141Y007084D03*
X006141Y007074D03*
X006141Y007070D03*
X006145Y007040D03*
X006145Y007034D03*
X006149Y007014D03*
X006151Y007000D03*
X006155Y006980D03*
X006159Y006960D03*
X006165Y006934D03*
X006171Y006910D03*
X006175Y006896D03*
X006181Y006874D03*
D425*
X007413Y006876D03*
D426*
X007414Y006880D03*
X007416Y006884D03*
X007416Y006886D03*
X007418Y006890D03*
X007420Y006896D03*
D427*
X006439Y008092D03*
X006159Y007988D03*
X006241Y007862D03*
X006199Y007688D03*
X006075Y007578D03*
X006059Y007562D03*
X006059Y007558D03*
X006061Y007552D03*
X006061Y007548D03*
X006185Y007488D03*
X006169Y007432D03*
X006165Y007418D03*
X006161Y007402D03*
X006159Y007392D03*
X006155Y007372D03*
X006145Y007318D03*
X006145Y007312D03*
X006141Y007282D03*
X006141Y007278D03*
X006139Y007268D03*
X006139Y007258D03*
X006139Y007252D03*
X006139Y007248D03*
X006135Y007172D03*
X006135Y007168D03*
X006135Y007152D03*
X006139Y007108D03*
X006139Y007102D03*
X006139Y007098D03*
X006139Y007092D03*
X006141Y007072D03*
X006141Y007068D03*
X006145Y007042D03*
X006145Y007038D03*
X006149Y007012D03*
X006149Y007008D03*
X006151Y007002D03*
X006155Y006978D03*
X006161Y006952D03*
X006169Y006918D03*
X006179Y006882D03*
D428*
X007416Y006888D03*
X007418Y006892D03*
D429*
X007419Y006894D03*
X007421Y006900D03*
D430*
X007421Y006898D03*
D431*
X007422Y006902D03*
X007424Y006908D03*
X007426Y006912D03*
D432*
X007426Y006910D03*
X007424Y006906D03*
X007424Y006904D03*
D433*
X007427Y006914D03*
D434*
X007428Y006916D03*
X007432Y006926D03*
D435*
X007429Y006918D03*
D436*
X007430Y006920D03*
D437*
X007430Y006922D03*
D438*
X007431Y006924D03*
D439*
X007433Y006928D03*
D440*
X007434Y006930D03*
X007436Y006934D03*
X007436Y006936D03*
D441*
X007434Y006932D03*
D442*
X007437Y006938D03*
X007439Y006942D03*
D443*
X007438Y006940D03*
D444*
X007440Y006944D03*
D445*
X007441Y006946D03*
D446*
X007441Y006948D03*
D447*
X007442Y006950D03*
X007444Y006954D03*
D448*
X007443Y006952D03*
D449*
X007445Y006956D03*
D450*
X007446Y006958D03*
X007448Y006962D03*
D451*
X007446Y006960D03*
X007450Y006966D03*
D452*
X007449Y006964D03*
D453*
X006157Y006968D03*
X006147Y007022D03*
X006147Y007028D03*
X006143Y007048D03*
X006143Y007052D03*
X006137Y007112D03*
X006137Y007122D03*
X006137Y007132D03*
X006137Y007138D03*
X006137Y007142D03*
X006137Y007162D03*
X006137Y007208D03*
X006137Y007212D03*
X006137Y007222D03*
X006137Y007228D03*
X006137Y007232D03*
X006137Y007238D03*
X006137Y007242D03*
X006143Y007292D03*
X006143Y007298D03*
X006143Y007302D03*
X006147Y007322D03*
X006147Y007328D03*
X006153Y007362D03*
X006177Y007462D03*
X006137Y007712D03*
X006137Y007728D03*
X006243Y007878D03*
D454*
X007450Y006968D03*
D455*
X007452Y006970D03*
D456*
X007453Y006972D03*
D457*
X007453Y006974D03*
D458*
X007454Y006976D03*
D459*
X007455Y006978D03*
X007457Y006982D03*
D460*
X007457Y006980D03*
D461*
X007458Y006984D03*
D462*
X007459Y006986D03*
D463*
X007460Y006988D03*
X007462Y006992D03*
D464*
X007463Y006994D03*
X007461Y006990D03*
D465*
X007464Y006996D03*
D466*
X007465Y006998D03*
D467*
X007466Y007000D03*
D468*
X007468Y007002D03*
D469*
X007468Y007004D03*
D470*
X007470Y007006D03*
D471*
X007470Y007008D03*
D472*
X007471Y007010D03*
X007473Y007014D03*
D473*
X007472Y007012D03*
D474*
X007475Y007016D03*
D475*
X007476Y007018D03*
D476*
X007477Y007020D03*
D477*
X007479Y007022D03*
D478*
X007479Y007024D03*
X007479Y007026D03*
D479*
X007482Y007028D03*
D480*
X007482Y007030D03*
D481*
X007484Y007032D03*
D482*
X007484Y007034D03*
D483*
X007486Y007036D03*
D484*
X007487Y007038D03*
D485*
X007489Y007040D03*
D486*
X007489Y007042D03*
D487*
X007491Y007044D03*
D488*
X007492Y007046D03*
D489*
X007493Y007048D03*
D490*
X007494Y007050D03*
D491*
X007496Y007052D03*
D492*
X007496Y007054D03*
D493*
X007499Y007056D03*
D494*
X007499Y007058D03*
D495*
X007501Y007060D03*
D496*
X007503Y007062D03*
D497*
X007503Y007064D03*
D498*
X007505Y007066D03*
D499*
X007506Y007068D03*
D500*
X007507Y007070D03*
D501*
X007510Y007072D03*
D502*
X007510Y007074D03*
D503*
X007512Y007076D03*
D504*
X007513Y007078D03*
D505*
X006440Y008094D03*
X006316Y007934D03*
X006242Y007884D03*
X006242Y007880D03*
X006242Y007876D03*
X006242Y007870D03*
X006136Y007736D03*
X006136Y007734D03*
X006138Y007730D03*
X006138Y007726D03*
X006138Y007724D03*
X006052Y007576D03*
X006054Y007574D03*
X006056Y007570D03*
X006058Y007566D03*
X006058Y007564D03*
X006060Y007556D03*
X006020Y007484D03*
X006140Y007080D03*
X006174Y008094D03*
X006174Y008096D03*
D506*
X007515Y007080D03*
D507*
X007516Y007082D03*
D508*
X007518Y007084D03*
D509*
X007520Y007086D03*
D510*
X007520Y007088D03*
D511*
X007522Y007090D03*
D512*
X007523Y007092D03*
D513*
X007526Y007094D03*
X007526Y007096D03*
D514*
X007529Y007098D03*
D515*
X007530Y007100D03*
D516*
X007533Y007104D03*
D517*
X007538Y007108D03*
D518*
X007539Y007110D03*
D519*
X007541Y007112D03*
D520*
X007543Y007114D03*
D521*
X007546Y007118D03*
D522*
X007551Y007122D03*
D523*
X007554Y007126D03*
D524*
X007557Y007128D03*
D525*
X007559Y007130D03*
D526*
X007562Y007132D03*
D527*
X007563Y007134D03*
D528*
X007571Y007140D03*
D529*
X007573Y007142D03*
D530*
X007578Y007146D03*
D531*
X007591Y007154D03*
D532*
X007595Y007156D03*
D533*
X007598Y007158D03*
D534*
X007601Y007160D03*
D535*
X007606Y007162D03*
D536*
X007611Y007164D03*
D537*
X007615Y007166D03*
D538*
X007634Y007172D03*
D539*
X007167Y007176D03*
X005995Y007266D03*
D540*
X007688Y007178D03*
D541*
X007696Y007180D03*
D542*
X006242Y007868D03*
X006242Y007872D03*
X006242Y007882D03*
X006136Y007732D03*
X006138Y007722D03*
X006138Y007718D03*
X006050Y007578D03*
X006054Y007572D03*
X006056Y007568D03*
X005906Y007548D03*
X006136Y007198D03*
X006136Y007192D03*
X006136Y007182D03*
D543*
X007703Y007182D03*
D544*
X007709Y007184D03*
D545*
X007714Y007186D03*
D546*
X007719Y007188D03*
D547*
X007724Y007190D03*
D548*
X007726Y007192D03*
D549*
X007731Y007194D03*
D550*
X007738Y007198D03*
D551*
X007740Y007200D03*
D552*
X007744Y007202D03*
D553*
X007749Y007206D03*
D554*
X007757Y007212D03*
D555*
X007761Y007214D03*
D556*
X007762Y007216D03*
D557*
X007765Y007218D03*
D558*
X007771Y007224D03*
D559*
X007775Y007228D03*
D560*
X007777Y007230D03*
D561*
X007784Y007238D03*
D562*
X007788Y007242D03*
D563*
X006579Y008258D03*
X006317Y007932D03*
X005943Y007648D03*
X005991Y007268D03*
D564*
X007807Y007268D03*
D565*
X006775Y008228D03*
X006605Y008162D03*
X006601Y008158D03*
X006615Y008038D03*
X006599Y008028D03*
X006591Y008022D03*
X006585Y008018D03*
X006235Y007918D03*
X006231Y007922D03*
X006169Y007972D03*
X006131Y007852D03*
X006115Y007682D03*
X005901Y007432D03*
X005979Y007272D03*
D566*
X007810Y007272D03*
D567*
X007811Y007274D03*
D568*
X006779Y008120D03*
X006565Y008256D03*
X006475Y008314D03*
X006359Y008160D03*
X006525Y008114D03*
X006149Y007750D03*
X006145Y007754D03*
X005971Y007276D03*
D569*
X007813Y007276D03*
D570*
X006515Y008332D03*
X005965Y007278D03*
D571*
X007813Y007278D03*
D572*
X005955Y007282D03*
D573*
X007816Y007282D03*
D574*
X006914Y008406D03*
X006728Y008354D03*
X006062Y007790D03*
X005952Y007284D03*
D575*
X007817Y007284D03*
D576*
X006508Y008316D03*
X006062Y007786D03*
X005946Y007286D03*
D577*
X007819Y007286D03*
D578*
X006968Y008172D03*
X005940Y007288D03*
D579*
X007819Y007288D03*
D580*
X005935Y007290D03*
X005845Y007314D03*
X005845Y007316D03*
D581*
X007821Y007290D03*
D582*
X005932Y007292D03*
D583*
X007822Y007292D03*
D584*
X007414Y008144D03*
X005926Y007294D03*
D585*
X007824Y007294D03*
D586*
X007448Y008130D03*
X005916Y007296D03*
X005896Y007300D03*
X005874Y007304D03*
X005864Y007306D03*
D587*
X007823Y007296D03*
D588*
X005906Y007298D03*
X005856Y007308D03*
D589*
X007825Y007298D03*
D590*
X007826Y007300D03*
D591*
X007445Y008132D03*
X007335Y008168D03*
X005885Y007302D03*
D592*
X007827Y007302D03*
D593*
X007828Y007304D03*
D594*
X007829Y007306D03*
D595*
X007831Y007308D03*
D596*
X005848Y007310D03*
D597*
X007830Y007310D03*
D598*
X005845Y007312D03*
D599*
X007832Y007312D03*
D600*
X007833Y007314D03*
D601*
X007834Y007316D03*
D602*
X006735Y008222D03*
X006167Y007948D03*
X006183Y007832D03*
X005829Y007318D03*
D603*
X007834Y007318D03*
D604*
X007836Y007320D03*
D605*
X006876Y008152D03*
X005818Y007322D03*
D606*
X007835Y007322D03*
D607*
X006185Y007820D03*
X005815Y007324D03*
D608*
X005810Y007326D03*
X006080Y007660D03*
X006790Y008124D03*
X006900Y008254D03*
D609*
X007839Y007326D03*
D610*
X006255Y007898D03*
X006125Y007768D03*
X005805Y007328D03*
D611*
X007838Y007328D03*
D612*
X006770Y008226D03*
X006730Y008370D03*
X006520Y008106D03*
X006400Y008136D03*
X005800Y007330D03*
D613*
X007840Y007330D03*
D614*
X007840Y007332D03*
D615*
X007842Y007334D03*
X007842Y007336D03*
D616*
X007843Y007338D03*
D617*
X007844Y007340D03*
D618*
X007844Y007342D03*
D619*
X007846Y007346D03*
D620*
X007847Y007348D03*
D621*
X007847Y007350D03*
D622*
X007849Y007354D03*
X007849Y007356D03*
D623*
X007850Y007358D03*
D624*
X007851Y007362D03*
D625*
X007852Y007364D03*
X007852Y007366D03*
D626*
X007853Y007368D03*
D627*
X007854Y007370D03*
D628*
X007855Y007372D03*
D629*
X007855Y007374D03*
X007855Y007376D03*
D630*
X007856Y007378D03*
D631*
X007856Y007380D03*
D632*
X007857Y007382D03*
D633*
X007858Y007384D03*
D634*
X007858Y007386D03*
D635*
X007858Y007388D03*
D636*
X007858Y007390D03*
D637*
X007860Y007392D03*
D638*
X007860Y007394D03*
X007860Y007396D03*
D639*
X007861Y007398D03*
D640*
X007862Y007400D03*
D641*
X007862Y007402D03*
D642*
X007862Y007404D03*
X007862Y007406D03*
D643*
X007863Y007408D03*
D644*
X007863Y007410D03*
D645*
X007864Y007412D03*
D646*
X007864Y007416D03*
D647*
X007865Y007418D03*
D648*
X007866Y007422D03*
D649*
X007866Y007424D03*
D650*
X007867Y007426D03*
D651*
X007866Y007428D03*
D652*
X007867Y007430D03*
D653*
X007867Y007432D03*
D654*
X007868Y007434D03*
D655*
X007868Y007436D03*
D656*
X005861Y007438D03*
D657*
X007868Y007438D03*
D658*
X007151Y007556D03*
X007151Y007800D03*
X006565Y008240D03*
X006183Y007834D03*
X005861Y007440D03*
D659*
X007869Y007440D03*
D660*
X006943Y008168D03*
X005861Y007442D03*
D661*
X007868Y007442D03*
D662*
X006735Y008220D03*
X006361Y008144D03*
X006005Y007504D03*
X005861Y007444D03*
D663*
X005861Y007446D03*
X007151Y007554D03*
D664*
X007870Y007448D03*
D665*
X007869Y007450D03*
D666*
X007151Y007552D03*
X006917Y008412D03*
X006481Y008218D03*
X005861Y007452D03*
D667*
X007870Y007452D03*
D668*
X007870Y007454D03*
D669*
X007870Y007456D03*
D670*
X007870Y007458D03*
D671*
X007871Y007460D03*
D672*
X007150Y007808D03*
X006898Y008332D03*
X006774Y008118D03*
X006262Y007888D03*
X006146Y007752D03*
X006042Y007682D03*
X005860Y007462D03*
D673*
X007870Y007462D03*
D674*
X007872Y007464D03*
D675*
X007871Y007466D03*
D676*
X006512Y008092D03*
X006442Y008098D03*
X006158Y007992D03*
X005858Y007468D03*
D677*
X007871Y007468D03*
X007871Y007472D03*
D678*
X007872Y007470D03*
D679*
X007873Y007476D03*
D680*
X007872Y007478D03*
D681*
X007872Y007480D03*
D682*
X007872Y007482D03*
D683*
X007873Y007484D03*
D684*
X007873Y007486D03*
D685*
X007873Y007488D03*
D686*
X007872Y007490D03*
D687*
X007211Y008278D03*
X006919Y008342D03*
X006015Y007492D03*
D688*
X007873Y007492D03*
D689*
X007873Y007496D03*
X007873Y007500D03*
D690*
X007873Y007498D03*
D691*
X007873Y007504D03*
X007873Y007506D03*
D692*
X006183Y007836D03*
X006003Y007506D03*
D693*
X006002Y007508D03*
D694*
X007873Y007508D03*
D695*
X007151Y007560D03*
X005999Y007510D03*
D696*
X007873Y007510D03*
D697*
X005998Y007512D03*
D698*
X007874Y007512D03*
D699*
X007873Y007514D03*
X007873Y007516D03*
D700*
X007211Y008286D03*
X006941Y008346D03*
X006901Y008260D03*
X006869Y008150D03*
X005961Y007516D03*
D701*
X005956Y007518D03*
X005944Y007522D03*
X005928Y007528D03*
X005966Y007628D03*
X006018Y007608D03*
X006034Y007602D03*
X006044Y007598D03*
X006166Y007958D03*
X006530Y008122D03*
X006478Y008212D03*
X006862Y008148D03*
D702*
X007873Y007518D03*
D703*
X007873Y007522D03*
D704*
X007873Y007526D03*
D705*
X007873Y007528D03*
D706*
X007874Y007530D03*
D707*
X007873Y007532D03*
D708*
X007873Y007534D03*
D709*
X007872Y007536D03*
D710*
X007872Y007542D03*
D711*
X007871Y007544D03*
X007873Y007546D03*
D712*
X007872Y007548D03*
D713*
X006316Y007930D03*
X006174Y008100D03*
X005904Y007550D03*
D714*
X006360Y008156D03*
X006734Y008210D03*
X006836Y008140D03*
X006848Y008144D03*
X007212Y008430D03*
X007150Y007550D03*
D715*
X007872Y007550D03*
D716*
X006232Y007792D03*
X006036Y007832D03*
X005902Y007552D03*
D717*
X007872Y007554D03*
D718*
X007151Y007558D03*
X007223Y008292D03*
X006075Y007678D03*
D719*
X007871Y007558D03*
D720*
X006925Y008424D03*
X006233Y007790D03*
X006241Y007764D03*
X006059Y007560D03*
D721*
X007872Y007560D03*
D722*
X007151Y007562D03*
D723*
X007871Y007562D03*
D724*
X007150Y007564D03*
D725*
X007871Y007564D03*
D726*
X007151Y007566D03*
X007151Y007790D03*
X006993Y008176D03*
D727*
X007870Y007566D03*
D728*
X007403Y008148D03*
X007391Y008152D03*
X007151Y007568D03*
D729*
X007870Y007568D03*
D730*
X007439Y008134D03*
X007435Y008136D03*
X007425Y008140D03*
X007327Y008170D03*
X007151Y007786D03*
X007151Y007570D03*
D731*
X007151Y007572D03*
D732*
X007870Y007572D03*
D733*
X006444Y008100D03*
X006158Y007994D03*
X006140Y007644D03*
X006080Y007574D03*
D734*
X007150Y007574D03*
X007296Y008176D03*
X007480Y008116D03*
D735*
X007870Y007574D03*
D736*
X006077Y007576D03*
X005941Y007650D03*
X006037Y007830D03*
D737*
X007151Y007576D03*
X007503Y008104D03*
D738*
X007151Y007778D03*
X007151Y007578D03*
D739*
X007870Y007578D03*
D740*
X007535Y008086D03*
X007151Y007580D03*
D741*
X007151Y007582D03*
X007547Y008078D03*
D742*
X007869Y007582D03*
D743*
X007559Y008070D03*
X007151Y007584D03*
D744*
X007869Y007584D03*
D745*
X007151Y007586D03*
D746*
X007151Y007588D03*
X007577Y008058D03*
D747*
X007868Y007588D03*
D748*
X007589Y008050D03*
X007151Y007766D03*
X007151Y007590D03*
D749*
X007868Y007590D03*
D750*
X006160Y007738D03*
X006080Y007662D03*
X006054Y007592D03*
D751*
X007151Y007592D03*
X007151Y007762D03*
X007599Y008042D03*
D752*
X007609Y008034D03*
X007151Y007760D03*
X007151Y007596D03*
X007151Y007594D03*
D753*
X007867Y007594D03*
X007867Y007596D03*
D754*
X007617Y008028D03*
X007151Y007758D03*
X007151Y007598D03*
D755*
X007151Y007600D03*
X007151Y007754D03*
X007151Y008196D03*
X007631Y008016D03*
D756*
X007636Y008012D03*
X007152Y007602D03*
D757*
X007867Y007602D03*
D758*
X007151Y007604D03*
D759*
X007151Y007606D03*
X007151Y007750D03*
X007645Y008004D03*
X007649Y008000D03*
D760*
X007647Y008002D03*
X007151Y007608D03*
D761*
X007865Y007608D03*
D762*
X007655Y007994D03*
X007151Y007746D03*
X007151Y007744D03*
X007151Y007610D03*
D763*
X007865Y007610D03*
D764*
X007151Y007612D03*
X007151Y007742D03*
D765*
X007151Y007614D03*
D766*
X007151Y007616D03*
D767*
X007151Y007618D03*
X007151Y007738D03*
X007673Y007978D03*
D768*
X007864Y007618D03*
D769*
X007676Y007974D03*
X007674Y007976D03*
X007150Y007620D03*
D770*
X006735Y008212D03*
X006729Y008362D03*
X006185Y007822D03*
X005981Y007622D03*
D771*
X007151Y007622D03*
D772*
X007863Y007622D03*
D773*
X007151Y007624D03*
X007151Y007626D03*
X007151Y007730D03*
D774*
X007862Y007626D03*
X007862Y007624D03*
D775*
X007692Y007958D03*
X007152Y007628D03*
D776*
X006900Y008256D03*
X006946Y008350D03*
X006476Y008210D03*
X006324Y008066D03*
X005964Y007630D03*
D777*
X007151Y007630D03*
X007151Y007724D03*
X007151Y007726D03*
X007151Y008194D03*
X007693Y007956D03*
X007695Y007954D03*
D778*
X007861Y007630D03*
D779*
X006949Y008352D03*
X006921Y008418D03*
X006801Y008128D03*
X006475Y008208D03*
X006169Y007962D03*
X006185Y007818D03*
X006245Y007778D03*
X006249Y007782D03*
X006255Y007788D03*
X005961Y007632D03*
D780*
X007150Y007632D03*
D781*
X007862Y007632D03*
D782*
X007698Y007950D03*
X007152Y007634D03*
D783*
X007151Y007636D03*
X007151Y007720D03*
X007703Y007944D03*
X007703Y007946D03*
D784*
X007701Y007948D03*
X007151Y007718D03*
X007151Y007638D03*
D785*
X007860Y007638D03*
D786*
X007053Y008406D03*
X006973Y008296D03*
X006973Y008294D03*
X006767Y008344D03*
X006603Y008160D03*
X006613Y008036D03*
X006603Y008030D03*
X006597Y008026D03*
X006593Y008024D03*
X006517Y008340D03*
X006317Y008050D03*
X006373Y008000D03*
X006237Y007916D03*
X006233Y007920D03*
X006227Y007924D03*
X006163Y007976D03*
X005953Y007640D03*
D787*
X007152Y007640D03*
X007152Y007716D03*
X007708Y007940D03*
D788*
X007859Y007640D03*
D789*
X007709Y007938D03*
X007151Y007712D03*
X007151Y007642D03*
D790*
X007151Y007644D03*
X007151Y007646D03*
X007151Y007710D03*
X007151Y007714D03*
D791*
X007858Y007646D03*
X007858Y007644D03*
D792*
X007714Y007932D03*
X007152Y007708D03*
X007152Y007648D03*
D793*
X007151Y007650D03*
X007151Y007654D03*
X007151Y007704D03*
X007151Y007706D03*
D794*
X007857Y007650D03*
D795*
X007111Y008412D03*
X005939Y007652D03*
D796*
X007151Y007652D03*
X007151Y007658D03*
X007151Y007698D03*
X007151Y007702D03*
D797*
X007152Y007700D03*
X007152Y007694D03*
X007152Y007656D03*
X007716Y007930D03*
D798*
X007854Y007660D03*
X007856Y007656D03*
D799*
X007855Y007658D03*
D800*
X007721Y007924D03*
X007151Y007696D03*
X007151Y007690D03*
X007151Y007686D03*
X007151Y007684D03*
X007151Y007676D03*
X007151Y007674D03*
X007151Y007666D03*
X007151Y007664D03*
X007151Y007660D03*
D801*
X007151Y007662D03*
X007151Y007668D03*
X007151Y007672D03*
X007151Y007678D03*
X007151Y007682D03*
X007151Y007688D03*
X007151Y007692D03*
X007723Y007922D03*
D802*
X007854Y007662D03*
X007152Y008182D03*
D803*
X007852Y007670D03*
X007854Y007664D03*
D804*
X007853Y007666D03*
D805*
X007212Y008422D03*
X006078Y007668D03*
D806*
X007853Y007668D03*
D807*
X006915Y008410D03*
X006729Y008356D03*
X006077Y007670D03*
D808*
X007152Y007670D03*
X007152Y007680D03*
X007724Y007920D03*
D809*
X006077Y007672D03*
D810*
X006076Y007676D03*
X006166Y007946D03*
X006736Y008224D03*
D811*
X007850Y007678D03*
D812*
X006075Y007680D03*
D813*
X007845Y007692D03*
D814*
X007838Y007716D03*
D815*
X007152Y007722D03*
D816*
X007833Y007730D03*
X007835Y007724D03*
D817*
X007687Y007962D03*
X007151Y007728D03*
D818*
X007152Y007732D03*
X007682Y007968D03*
D819*
X007832Y007732D03*
D820*
X007681Y007970D03*
X007151Y007736D03*
X007151Y007734D03*
D821*
X007831Y007734D03*
X007831Y007736D03*
D822*
X007830Y007738D03*
D823*
X007828Y007740D03*
X007150Y008186D03*
D824*
X007829Y007742D03*
D825*
X007827Y007744D03*
D826*
X006914Y008340D03*
X006906Y008336D03*
X006796Y008126D03*
X006246Y007780D03*
X006242Y007776D03*
X006154Y007746D03*
D827*
X007826Y007746D03*
D828*
X007652Y007998D03*
X007152Y007748D03*
D829*
X007826Y007748D03*
D830*
X007825Y007750D03*
D831*
X007641Y008008D03*
X007151Y007752D03*
D832*
X007824Y007752D03*
D833*
X007824Y007754D03*
D834*
X007626Y008020D03*
X007152Y007756D03*
D835*
X007822Y007756D03*
D836*
X007821Y007758D03*
D837*
X007820Y007762D03*
D838*
X007596Y008044D03*
X007594Y008046D03*
X007152Y007764D03*
D839*
X007817Y007766D03*
X007819Y007764D03*
D840*
X007572Y008062D03*
X007152Y007768D03*
D841*
X007818Y007768D03*
D842*
X007568Y008064D03*
X007152Y007770D03*
D843*
X007816Y007770D03*
D844*
X007089Y008422D03*
X007091Y008428D03*
X006891Y008328D03*
X006727Y008098D03*
X006571Y008138D03*
X006561Y008132D03*
X006471Y008202D03*
X006433Y008292D03*
X006117Y007772D03*
D845*
X007151Y007772D03*
X007557Y008072D03*
D846*
X007815Y007772D03*
D847*
X006575Y008140D03*
X006565Y008134D03*
X006115Y007774D03*
D848*
X007151Y007774D03*
X007545Y008080D03*
D849*
X007815Y007774D03*
D850*
X007152Y007776D03*
D851*
X007814Y007776D03*
D852*
X007812Y007778D03*
D853*
X007491Y008110D03*
X007151Y007780D03*
D854*
X007811Y007780D03*
D855*
X007475Y008118D03*
X007151Y007782D03*
D856*
X007811Y007782D03*
D857*
X007309Y008174D03*
X007151Y007784D03*
D858*
X007810Y007784D03*
D859*
X007809Y007786D03*
X007807Y007790D03*
D860*
X006912Y008402D03*
X006508Y008318D03*
X006062Y007788D03*
D861*
X007808Y007788D03*
D862*
X006904Y008268D03*
X006060Y007792D03*
D863*
X007151Y007792D03*
D864*
X007806Y007792D03*
D865*
X006374Y008014D03*
X006166Y007954D03*
X006186Y007826D03*
X006060Y007794D03*
D866*
X007150Y007794D03*
D867*
X007805Y007794D03*
D868*
X006060Y007796D03*
D869*
X007152Y007796D03*
D870*
X007804Y007796D03*
D871*
X007152Y007798D03*
X006564Y008238D03*
D872*
X007803Y007798D03*
D873*
X007802Y007800D03*
D874*
X006698Y008084D03*
X006252Y007900D03*
X006198Y007944D03*
X006148Y007840D03*
X006062Y007804D03*
X006058Y007806D03*
X006052Y007810D03*
D875*
X006185Y007824D03*
X006167Y007956D03*
X006479Y008216D03*
X006883Y008154D03*
X007213Y008426D03*
X007151Y007804D03*
D876*
X007799Y007804D03*
X007799Y007806D03*
D877*
X007798Y007808D03*
D878*
X007797Y007810D03*
D879*
X007795Y007812D03*
D880*
X007794Y007814D03*
X007794Y007816D03*
D881*
X007793Y007818D03*
D882*
X007791Y007820D03*
D883*
X007790Y007822D03*
D884*
X007790Y007824D03*
X007788Y007826D03*
D885*
X007214Y008442D03*
X006038Y007828D03*
D886*
X006184Y007828D03*
X006360Y008148D03*
D887*
X007787Y007828D03*
D888*
X006566Y008244D03*
X006374Y008016D03*
X006166Y007950D03*
X006184Y007830D03*
D889*
X007786Y007830D03*
D890*
X007784Y007832D03*
D891*
X007783Y007834D03*
X007783Y007836D03*
X007151Y008190D03*
D892*
X007781Y007838D03*
D893*
X007779Y007842D03*
D894*
X007777Y007844D03*
D895*
X007776Y007846D03*
X007774Y007850D03*
D896*
X007775Y007848D03*
D897*
X007772Y007852D03*
D898*
X007769Y007858D03*
D899*
X007767Y007860D03*
D900*
X007766Y007862D03*
D901*
X007765Y007864D03*
D902*
X007764Y007866D03*
D903*
X007762Y007868D03*
D904*
X007761Y007870D03*
D905*
X007759Y007872D03*
D906*
X007759Y007874D03*
X007757Y007876D03*
D907*
X007756Y007878D03*
D908*
X007754Y007880D03*
D909*
X007753Y007882D03*
D910*
X007751Y007884D03*
D911*
X007750Y007886D03*
D912*
X007749Y007888D03*
X007151Y008192D03*
D913*
X007747Y007890D03*
D914*
X007746Y007892D03*
D915*
X007741Y007898D03*
D916*
X007740Y007900D03*
X007736Y007904D03*
D917*
X007738Y007902D03*
D918*
X007735Y007906D03*
D919*
X007734Y007908D03*
D920*
X007732Y007910D03*
D921*
X007731Y007912D03*
D922*
X007729Y007914D03*
X007727Y007916D03*
D923*
X007217Y008270D03*
X007209Y008270D03*
X006511Y008090D03*
X006317Y007926D03*
D924*
X007720Y007926D03*
D925*
X006317Y007928D03*
D926*
X007717Y007928D03*
D927*
X007712Y007934D03*
X007712Y007936D03*
D928*
X007706Y007942D03*
D929*
X007697Y007952D03*
D930*
X007690Y007960D03*
D931*
X007686Y007964D03*
X007684Y007966D03*
D932*
X007678Y007972D03*
D933*
X007668Y007982D03*
D934*
X007665Y007986D03*
D935*
X007662Y007988D03*
X007658Y007992D03*
D936*
X006514Y008094D03*
X006442Y008096D03*
X006158Y007990D03*
D937*
X007660Y007990D03*
D938*
X007654Y007996D03*
D939*
X007642Y008006D03*
D940*
X007637Y008010D03*
D941*
X007210Y008288D03*
X006902Y008262D03*
X006568Y008248D03*
X006360Y008152D03*
X006374Y008012D03*
D942*
X007634Y008014D03*
D943*
X006566Y008242D03*
X006374Y008018D03*
D944*
X007629Y008018D03*
D945*
X007624Y008022D03*
D946*
X007621Y008024D03*
X007619Y008026D03*
D947*
X007614Y008030D03*
D948*
X006880Y008322D03*
X006330Y008032D03*
D949*
X007612Y008032D03*
D950*
X007606Y008036D03*
D951*
X007604Y008038D03*
D952*
X007601Y008040D03*
D953*
X007591Y008048D03*
D954*
X007586Y008052D03*
D955*
X007583Y008054D03*
X007579Y008056D03*
D956*
X007574Y008060D03*
D957*
X007566Y008066D03*
D958*
X007562Y008068D03*
D959*
X007554Y008074D03*
X007550Y008076D03*
D960*
X007540Y008082D03*
D961*
X007538Y008084D03*
D962*
X007531Y008088D03*
D963*
X007527Y008090D03*
D964*
X007524Y008092D03*
D965*
X007521Y008094D03*
X007517Y008096D03*
D966*
X007047Y008272D03*
X006173Y008098D03*
D967*
X007284Y008178D03*
X007514Y008098D03*
D968*
X007510Y008100D03*
D969*
X007146Y008202D03*
X007058Y008272D03*
X006446Y008102D03*
X006174Y008102D03*
D970*
X007507Y008102D03*
D971*
X007498Y008106D03*
D972*
X007495Y008108D03*
X007487Y008112D03*
D973*
X007483Y008114D03*
X007471Y008120D03*
D974*
X006528Y008118D03*
D975*
X007012Y008178D03*
X007466Y008122D03*
D976*
X007462Y008124D03*
D977*
X007457Y008126D03*
D978*
X007453Y008128D03*
X007317Y008172D03*
D979*
X007420Y008142D03*
X007430Y008138D03*
D980*
X007409Y008146D03*
X007397Y008150D03*
X007379Y008156D03*
D981*
X006907Y008160D03*
X006567Y008246D03*
X006359Y008150D03*
D982*
X007345Y008166D03*
X007365Y008160D03*
X007385Y008154D03*
D983*
X007372Y008158D03*
X007358Y008162D03*
D984*
X006927Y008164D03*
D985*
X007352Y008164D03*
D986*
X007224Y008290D03*
X006954Y008170D03*
D987*
X007151Y008188D03*
D988*
X007150Y008198D03*
D989*
X007240Y008198D03*
D990*
X006563Y008236D03*
D991*
X006568Y008250D03*
X006918Y008414D03*
D992*
X006902Y008264D03*
X006512Y008326D03*
D993*
X006982Y008266D03*
X007108Y008414D03*
D994*
X006510Y008322D03*
D995*
X006910Y008338D03*
X007260Y008418D03*
D996*
X006728Y008350D03*
D997*
X006728Y008352D03*
D998*
X006915Y008408D03*
D999*
X007213Y008428D03*
D1000*
X007274Y008498D03*
D1001*
X007123Y005995D02*
X007123Y005775D01*
X007086Y005775D02*
X007160Y005775D01*
X007234Y005812D02*
X007234Y005885D01*
X007270Y005922D01*
X007344Y005922D01*
X007380Y005885D01*
X007380Y005848D01*
X007234Y005848D01*
X007234Y005812D02*
X007270Y005775D01*
X007344Y005775D01*
X007455Y005775D02*
X007565Y005775D01*
X007601Y005812D01*
X007601Y005848D01*
X007565Y005885D01*
X007455Y005885D01*
X007565Y005885D02*
X007601Y005922D01*
X007601Y005958D01*
X007565Y005995D01*
X007455Y005995D01*
X007455Y005775D01*
X007676Y005812D02*
X007712Y005775D01*
X007786Y005775D01*
X007822Y005812D01*
X007822Y005958D01*
X007786Y005995D01*
X007712Y005995D01*
X007676Y005958D01*
X007676Y005812D01*
X007712Y005562D02*
X007749Y005525D01*
X007749Y005415D01*
X007675Y005415D02*
X007675Y005525D01*
X007712Y005562D01*
X007675Y005525D02*
X007639Y005562D01*
X007602Y005562D01*
X007602Y005415D01*
X007528Y005452D02*
X007528Y005562D01*
X007528Y005452D02*
X007491Y005415D01*
X007454Y005452D01*
X007418Y005415D01*
X007381Y005452D01*
X007381Y005562D01*
X007307Y005525D02*
X007307Y005488D01*
X007160Y005488D01*
X007160Y005452D02*
X007160Y005525D01*
X007197Y005562D01*
X007270Y005562D01*
X007307Y005525D01*
X007270Y005415D02*
X007197Y005415D01*
X007160Y005452D01*
X007086Y005415D02*
X007086Y005635D01*
X007012Y005738D02*
X007012Y005922D01*
X006902Y005922D01*
X006865Y005885D01*
X006865Y005812D01*
X006902Y005775D01*
X007012Y005775D01*
X007012Y005738D02*
X006975Y005702D01*
X006939Y005702D01*
X006939Y005635D02*
X007086Y005415D01*
X007068Y005275D02*
X006994Y005202D01*
X006920Y005202D02*
X006847Y005055D01*
X006773Y005202D01*
X006644Y005415D02*
X006644Y005525D01*
X006607Y005562D01*
X006497Y005562D01*
X006497Y005415D01*
X006423Y005452D02*
X006423Y005525D01*
X006386Y005562D01*
X006313Y005562D01*
X006276Y005525D01*
X006276Y005452D01*
X006313Y005415D01*
X006386Y005415D01*
X006423Y005452D01*
X006165Y005452D02*
X006165Y005635D01*
X006128Y005635D02*
X006202Y005635D01*
X006202Y005775D02*
X006202Y005995D01*
X006312Y005995D01*
X006349Y005958D01*
X006349Y005885D01*
X006312Y005848D01*
X006202Y005848D01*
X006423Y005812D02*
X006460Y005775D01*
X006570Y005775D01*
X006570Y005922D01*
X006644Y005885D02*
X006644Y005812D01*
X006681Y005775D01*
X006791Y005775D01*
X006791Y005738D02*
X006791Y005922D01*
X006681Y005922D01*
X006644Y005885D01*
X006718Y005702D02*
X006754Y005702D01*
X006791Y005738D01*
X006939Y005635D02*
X006939Y005415D01*
X007068Y005275D02*
X007068Y005055D01*
X007141Y005055D02*
X006994Y005055D01*
X007215Y005055D02*
X007252Y005055D01*
X007252Y005092D01*
X007215Y005092D01*
X007215Y005055D01*
X007326Y005092D02*
X007473Y005238D01*
X007473Y005092D01*
X007436Y005055D01*
X007362Y005055D01*
X007326Y005092D01*
X007326Y005238D01*
X007362Y005275D01*
X007436Y005275D01*
X007473Y005238D01*
X007823Y005452D02*
X007860Y005488D01*
X007970Y005488D01*
X007970Y005525D02*
X007970Y005415D01*
X007860Y005415D01*
X007823Y005452D01*
X007860Y005562D02*
X007933Y005562D01*
X007970Y005525D01*
X008044Y005562D02*
X008154Y005562D01*
X008191Y005525D01*
X008191Y005415D01*
X008044Y005415D02*
X008044Y005562D01*
X008007Y005775D02*
X007897Y005775D01*
X007897Y005995D01*
X008007Y005995D01*
X008043Y005958D01*
X008043Y005922D01*
X008007Y005885D01*
X007897Y005885D01*
X008007Y005885D02*
X008043Y005848D01*
X008043Y005812D01*
X008007Y005775D01*
X007123Y005995D02*
X007086Y005995D01*
X006423Y005922D02*
X006423Y005812D01*
X006165Y005452D02*
X006128Y005415D01*
X006092Y005415D01*
X006055Y005452D01*
D1002*
X003240Y003953D02*
X003223Y003908D01*
X003202Y003864D01*
X003178Y003822D01*
X003151Y003782D01*
X003121Y003744D01*
X003088Y003708D01*
X003052Y003675D01*
X003014Y003645D01*
X002973Y003619D01*
X002931Y003595D01*
X002887Y003575D01*
X002841Y003558D01*
X002794Y003545D01*
X002747Y003536D01*
X002699Y003530D01*
X002650Y003528D01*
X002601Y003530D01*
X002553Y003536D01*
X002506Y003545D01*
X002459Y003558D01*
X002413Y003575D01*
X002369Y003595D01*
X002327Y003619D01*
X002286Y003645D01*
X002248Y003675D01*
X002212Y003708D01*
X002179Y003744D01*
X002149Y003782D01*
X002122Y003822D01*
X002098Y003864D01*
X002077Y003908D01*
X002060Y003953D01*
X002060Y004347D02*
X002077Y004392D01*
X002098Y004436D01*
X002122Y004478D01*
X002149Y004518D01*
X002179Y004556D01*
X002212Y004592D01*
X002248Y004625D01*
X002286Y004655D01*
X002327Y004681D01*
X002369Y004705D01*
X002413Y004725D01*
X002459Y004742D01*
X002506Y004755D01*
X002553Y004764D01*
X002601Y004770D01*
X002650Y004772D01*
X002699Y004770D01*
X002747Y004764D01*
X002794Y004755D01*
X002841Y004742D01*
X002887Y004725D01*
X002931Y004705D01*
X002973Y004681D01*
X003014Y004655D01*
X003052Y004625D01*
X003088Y004592D01*
X003121Y004556D01*
X003151Y004518D01*
X003178Y004478D01*
X003202Y004436D01*
X003223Y004392D01*
X003240Y004347D01*
X003240Y013347D02*
X003223Y013392D01*
X003202Y013436D01*
X003178Y013478D01*
X003151Y013518D01*
X003121Y013556D01*
X003088Y013592D01*
X003052Y013625D01*
X003014Y013655D01*
X002973Y013681D01*
X002931Y013705D01*
X002887Y013725D01*
X002841Y013742D01*
X002794Y013755D01*
X002747Y013764D01*
X002699Y013770D01*
X002650Y013772D01*
X002601Y013770D01*
X002553Y013764D01*
X002506Y013755D01*
X002459Y013742D01*
X002413Y013725D01*
X002369Y013705D01*
X002327Y013681D01*
X002286Y013655D01*
X002248Y013625D01*
X002212Y013592D01*
X002179Y013556D01*
X002149Y013518D01*
X002122Y013478D01*
X002098Y013436D01*
X002077Y013392D01*
X002060Y013347D01*
X002060Y012953D02*
X002077Y012908D01*
X002098Y012864D01*
X002122Y012822D01*
X002149Y012782D01*
X002179Y012744D01*
X002212Y012708D01*
X002248Y012675D01*
X002286Y012645D01*
X002327Y012619D01*
X002369Y012595D01*
X002413Y012575D01*
X002459Y012558D01*
X002506Y012545D01*
X002553Y012536D01*
X002601Y012530D01*
X002650Y012528D01*
X002699Y012530D01*
X002747Y012536D01*
X002794Y012545D01*
X002841Y012558D01*
X002887Y012575D01*
X002931Y012595D01*
X002973Y012619D01*
X003014Y012645D01*
X003052Y012675D01*
X003088Y012708D01*
X003121Y012744D01*
X003151Y012782D01*
X003178Y012822D01*
X003202Y012864D01*
X003223Y012908D01*
X003240Y012953D01*
X003240Y022347D02*
X003223Y022392D01*
X003202Y022436D01*
X003178Y022478D01*
X003151Y022518D01*
X003121Y022556D01*
X003088Y022592D01*
X003052Y022625D01*
X003014Y022655D01*
X002973Y022681D01*
X002931Y022705D01*
X002887Y022725D01*
X002841Y022742D01*
X002794Y022755D01*
X002747Y022764D01*
X002699Y022770D01*
X002650Y022772D01*
X002601Y022770D01*
X002553Y022764D01*
X002506Y022755D01*
X002459Y022742D01*
X002413Y022725D01*
X002369Y022705D01*
X002327Y022681D01*
X002286Y022655D01*
X002248Y022625D01*
X002212Y022592D01*
X002179Y022556D01*
X002149Y022518D01*
X002122Y022478D01*
X002098Y022436D01*
X002077Y022392D01*
X002060Y022347D01*
X002060Y021953D02*
X002077Y021908D01*
X002098Y021864D01*
X002122Y021822D01*
X002149Y021782D01*
X002179Y021744D01*
X002212Y021708D01*
X002248Y021675D01*
X002286Y021645D01*
X002327Y021619D01*
X002369Y021595D01*
X002413Y021575D01*
X002459Y021558D01*
X002506Y021545D01*
X002553Y021536D01*
X002601Y021530D01*
X002650Y021528D01*
X002699Y021530D01*
X002747Y021536D01*
X002794Y021545D01*
X002841Y021558D01*
X002887Y021575D01*
X002931Y021595D01*
X002973Y021619D01*
X003014Y021645D01*
X003052Y021675D01*
X003088Y021708D01*
X003121Y021744D01*
X003151Y021782D01*
X003178Y021822D01*
X003202Y021864D01*
X003223Y021908D01*
X003240Y021953D01*
X003240Y031347D02*
X003223Y031392D01*
X003202Y031436D01*
X003178Y031478D01*
X003151Y031518D01*
X003121Y031556D01*
X003088Y031592D01*
X003052Y031625D01*
X003014Y031655D01*
X002973Y031681D01*
X002931Y031705D01*
X002887Y031725D01*
X002841Y031742D01*
X002794Y031755D01*
X002747Y031764D01*
X002699Y031770D01*
X002650Y031772D01*
X002601Y031770D01*
X002553Y031764D01*
X002506Y031755D01*
X002459Y031742D01*
X002413Y031725D01*
X002369Y031705D01*
X002327Y031681D01*
X002286Y031655D01*
X002248Y031625D01*
X002212Y031592D01*
X002179Y031556D01*
X002149Y031518D01*
X002122Y031478D01*
X002098Y031436D01*
X002077Y031392D01*
X002060Y031347D01*
X002060Y030953D02*
X002077Y030908D01*
X002098Y030864D01*
X002122Y030822D01*
X002149Y030782D01*
X002179Y030744D01*
X002212Y030708D01*
X002248Y030675D01*
X002286Y030645D01*
X002327Y030619D01*
X002369Y030595D01*
X002413Y030575D01*
X002459Y030558D01*
X002506Y030545D01*
X002553Y030536D01*
X002601Y030530D01*
X002650Y030528D01*
X002699Y030530D01*
X002747Y030536D01*
X002794Y030545D01*
X002841Y030558D01*
X002887Y030575D01*
X002931Y030595D01*
X002973Y030619D01*
X003014Y030645D01*
X003052Y030675D01*
X003088Y030708D01*
X003121Y030744D01*
X003151Y030782D01*
X003178Y030822D01*
X003202Y030864D01*
X003223Y030908D01*
X003240Y030953D01*
X011060Y030953D02*
X011077Y030908D01*
X011098Y030864D01*
X011122Y030822D01*
X011149Y030782D01*
X011179Y030744D01*
X011212Y030708D01*
X011248Y030675D01*
X011286Y030645D01*
X011327Y030619D01*
X011369Y030595D01*
X011413Y030575D01*
X011459Y030558D01*
X011506Y030545D01*
X011553Y030536D01*
X011601Y030530D01*
X011650Y030528D01*
X011699Y030530D01*
X011747Y030536D01*
X011794Y030545D01*
X011841Y030558D01*
X011887Y030575D01*
X011931Y030595D01*
X011973Y030619D01*
X012014Y030645D01*
X012052Y030675D01*
X012088Y030708D01*
X012121Y030744D01*
X012151Y030782D01*
X012178Y030822D01*
X012202Y030864D01*
X012223Y030908D01*
X012240Y030953D01*
X012240Y031347D02*
X012223Y031392D01*
X012202Y031436D01*
X012178Y031478D01*
X012151Y031518D01*
X012121Y031556D01*
X012088Y031592D01*
X012052Y031625D01*
X012014Y031655D01*
X011973Y031681D01*
X011931Y031705D01*
X011887Y031725D01*
X011841Y031742D01*
X011794Y031755D01*
X011747Y031764D01*
X011699Y031770D01*
X011650Y031772D01*
X011601Y031770D01*
X011553Y031764D01*
X011506Y031755D01*
X011459Y031742D01*
X011413Y031725D01*
X011369Y031705D01*
X011327Y031681D01*
X011286Y031655D01*
X011248Y031625D01*
X011212Y031592D01*
X011179Y031556D01*
X011149Y031518D01*
X011122Y031478D01*
X011098Y031436D01*
X011077Y031392D01*
X011060Y031347D01*
X011060Y021953D02*
X011077Y021908D01*
X011098Y021864D01*
X011122Y021822D01*
X011149Y021782D01*
X011179Y021744D01*
X011212Y021708D01*
X011248Y021675D01*
X011286Y021645D01*
X011327Y021619D01*
X011369Y021595D01*
X011413Y021575D01*
X011459Y021558D01*
X011506Y021545D01*
X011553Y021536D01*
X011601Y021530D01*
X011650Y021528D01*
X011699Y021530D01*
X011747Y021536D01*
X011794Y021545D01*
X011841Y021558D01*
X011887Y021575D01*
X011931Y021595D01*
X011973Y021619D01*
X012014Y021645D01*
X012052Y021675D01*
X012088Y021708D01*
X012121Y021744D01*
X012151Y021782D01*
X012178Y021822D01*
X012202Y021864D01*
X012223Y021908D01*
X012240Y021953D01*
X012240Y022347D02*
X012223Y022392D01*
X012202Y022436D01*
X012178Y022478D01*
X012151Y022518D01*
X012121Y022556D01*
X012088Y022592D01*
X012052Y022625D01*
X012014Y022655D01*
X011973Y022681D01*
X011931Y022705D01*
X011887Y022725D01*
X011841Y022742D01*
X011794Y022755D01*
X011747Y022764D01*
X011699Y022770D01*
X011650Y022772D01*
X011601Y022770D01*
X011553Y022764D01*
X011506Y022755D01*
X011459Y022742D01*
X011413Y022725D01*
X011369Y022705D01*
X011327Y022681D01*
X011286Y022655D01*
X011248Y022625D01*
X011212Y022592D01*
X011179Y022556D01*
X011149Y022518D01*
X011122Y022478D01*
X011098Y022436D01*
X011077Y022392D01*
X011060Y022347D01*
X011060Y012953D02*
X011077Y012908D01*
X011098Y012864D01*
X011122Y012822D01*
X011149Y012782D01*
X011179Y012744D01*
X011212Y012708D01*
X011248Y012675D01*
X011286Y012645D01*
X011327Y012619D01*
X011369Y012595D01*
X011413Y012575D01*
X011459Y012558D01*
X011506Y012545D01*
X011553Y012536D01*
X011601Y012530D01*
X011650Y012528D01*
X011699Y012530D01*
X011747Y012536D01*
X011794Y012545D01*
X011841Y012558D01*
X011887Y012575D01*
X011931Y012595D01*
X011973Y012619D01*
X012014Y012645D01*
X012052Y012675D01*
X012088Y012708D01*
X012121Y012744D01*
X012151Y012782D01*
X012178Y012822D01*
X012202Y012864D01*
X012223Y012908D01*
X012240Y012953D01*
X012240Y013347D02*
X012223Y013392D01*
X012202Y013436D01*
X012178Y013478D01*
X012151Y013518D01*
X012121Y013556D01*
X012088Y013592D01*
X012052Y013625D01*
X012014Y013655D01*
X011973Y013681D01*
X011931Y013705D01*
X011887Y013725D01*
X011841Y013742D01*
X011794Y013755D01*
X011747Y013764D01*
X011699Y013770D01*
X011650Y013772D01*
X011601Y013770D01*
X011553Y013764D01*
X011506Y013755D01*
X011459Y013742D01*
X011413Y013725D01*
X011369Y013705D01*
X011327Y013681D01*
X011286Y013655D01*
X011248Y013625D01*
X011212Y013592D01*
X011179Y013556D01*
X011149Y013518D01*
X011122Y013478D01*
X011098Y013436D01*
X011077Y013392D01*
X011060Y013347D01*
X011060Y003953D02*
X011077Y003908D01*
X011098Y003864D01*
X011122Y003822D01*
X011149Y003782D01*
X011179Y003744D01*
X011212Y003708D01*
X011248Y003675D01*
X011286Y003645D01*
X011327Y003619D01*
X011369Y003595D01*
X011413Y003575D01*
X011459Y003558D01*
X011506Y003545D01*
X011553Y003536D01*
X011601Y003530D01*
X011650Y003528D01*
X011699Y003530D01*
X011747Y003536D01*
X011794Y003545D01*
X011841Y003558D01*
X011887Y003575D01*
X011931Y003595D01*
X011973Y003619D01*
X012014Y003645D01*
X012052Y003675D01*
X012088Y003708D01*
X012121Y003744D01*
X012151Y003782D01*
X012178Y003822D01*
X012202Y003864D01*
X012223Y003908D01*
X012240Y003953D01*
X012240Y004347D02*
X012223Y004392D01*
X012202Y004436D01*
X012178Y004478D01*
X012151Y004518D01*
X012121Y004556D01*
X012088Y004592D01*
X012052Y004625D01*
X012014Y004655D01*
X011973Y004681D01*
X011931Y004705D01*
X011887Y004725D01*
X011841Y004742D01*
X011794Y004755D01*
X011747Y004764D01*
X011699Y004770D01*
X011650Y004772D01*
X011601Y004770D01*
X011553Y004764D01*
X011506Y004755D01*
X011459Y004742D01*
X011413Y004725D01*
X011369Y004705D01*
X011327Y004681D01*
X011286Y004655D01*
X011248Y004625D01*
X011212Y004592D01*
X011179Y004556D01*
X011149Y004518D01*
X011122Y004478D01*
X011098Y004436D01*
X011077Y004392D01*
X011060Y004347D01*
D1003*
X000850Y003750D02*
X000500Y003750D01*
X000500Y004550D01*
X000850Y004550D01*
X001035Y004977D02*
X000998Y004900D01*
X000965Y004821D01*
X000935Y004740D01*
X000909Y004658D01*
X000887Y004575D01*
X000868Y004491D01*
X000854Y004407D01*
X000844Y004321D01*
X000838Y004236D01*
X000836Y004150D01*
X000838Y004064D01*
X000844Y003979D01*
X000854Y003893D01*
X000868Y003809D01*
X000887Y003725D01*
X000909Y003642D01*
X000935Y003560D01*
X000965Y003479D01*
X000998Y003400D01*
X001035Y003323D01*
X001823Y002535D02*
X001900Y002498D01*
X001979Y002465D01*
X002060Y002435D01*
X002142Y002409D01*
X002225Y002387D01*
X002309Y002368D01*
X002393Y002354D01*
X002479Y002344D01*
X002564Y002338D01*
X002650Y002336D01*
X002736Y002338D01*
X002821Y002344D01*
X002907Y002354D01*
X002991Y002368D01*
X003075Y002387D01*
X003158Y002409D01*
X003240Y002435D01*
X003321Y002465D01*
X003400Y002498D01*
X003477Y002535D01*
X003477Y005765D02*
X003400Y005802D01*
X003321Y005835D01*
X003240Y005865D01*
X003158Y005891D01*
X003075Y005913D01*
X002991Y005932D01*
X002907Y005946D01*
X002821Y005956D01*
X002736Y005962D01*
X002650Y005964D01*
X002564Y005962D01*
X002479Y005956D01*
X002393Y005946D01*
X002309Y005932D01*
X002225Y005913D01*
X002142Y005891D01*
X002060Y005865D01*
X001979Y005835D01*
X001900Y005802D01*
X001823Y005765D01*
X004265Y004977D02*
X004302Y004900D01*
X004335Y004821D01*
X004365Y004740D01*
X004391Y004658D01*
X004413Y004575D01*
X004432Y004491D01*
X004446Y004407D01*
X004456Y004321D01*
X004462Y004236D01*
X004464Y004150D01*
X004462Y004064D01*
X004456Y003979D01*
X004446Y003893D01*
X004432Y003809D01*
X004413Y003725D01*
X004391Y003642D01*
X004365Y003560D01*
X004335Y003479D01*
X004302Y003400D01*
X004265Y003323D01*
X004450Y003750D02*
X004800Y003750D01*
X004800Y004550D01*
X004450Y004550D01*
X004450Y012750D02*
X004800Y012750D01*
X004800Y013550D01*
X004450Y013550D01*
X003477Y014765D02*
X003400Y014802D01*
X003321Y014835D01*
X003240Y014865D01*
X003158Y014891D01*
X003075Y014913D01*
X002991Y014932D01*
X002907Y014946D01*
X002821Y014956D01*
X002736Y014962D01*
X002650Y014964D01*
X002564Y014962D01*
X002479Y014956D01*
X002393Y014946D01*
X002309Y014932D01*
X002225Y014913D01*
X002142Y014891D01*
X002060Y014865D01*
X001979Y014835D01*
X001900Y014802D01*
X001823Y014765D01*
X001035Y013977D02*
X000998Y013900D01*
X000965Y013821D01*
X000935Y013740D01*
X000909Y013658D01*
X000887Y013575D01*
X000868Y013491D01*
X000854Y013407D01*
X000844Y013321D01*
X000838Y013236D01*
X000836Y013150D01*
X000838Y013064D01*
X000844Y012979D01*
X000854Y012893D01*
X000868Y012809D01*
X000887Y012725D01*
X000909Y012642D01*
X000935Y012560D01*
X000965Y012479D01*
X000998Y012400D01*
X001035Y012323D01*
X000850Y012750D02*
X000500Y012750D01*
X000500Y013550D01*
X000850Y013550D01*
X004265Y013977D02*
X004302Y013900D01*
X004335Y013821D01*
X004365Y013740D01*
X004391Y013658D01*
X004413Y013575D01*
X004432Y013491D01*
X004446Y013407D01*
X004456Y013321D01*
X004462Y013236D01*
X004464Y013150D01*
X004462Y013064D01*
X004456Y012979D01*
X004446Y012893D01*
X004432Y012809D01*
X004413Y012725D01*
X004391Y012642D01*
X004365Y012560D01*
X004335Y012479D01*
X004302Y012400D01*
X004265Y012323D01*
X003477Y011535D02*
X003400Y011498D01*
X003321Y011465D01*
X003240Y011435D01*
X003158Y011409D01*
X003075Y011387D01*
X002991Y011368D01*
X002907Y011354D01*
X002821Y011344D01*
X002736Y011338D01*
X002650Y011336D01*
X002564Y011338D01*
X002479Y011344D01*
X002393Y011354D01*
X002309Y011368D01*
X002225Y011387D01*
X002142Y011409D01*
X002060Y011435D01*
X001979Y011465D01*
X001900Y011498D01*
X001823Y011535D01*
X000850Y021750D02*
X000500Y021750D01*
X000500Y022550D01*
X000850Y022550D01*
X001035Y022977D02*
X000998Y022900D01*
X000965Y022821D01*
X000935Y022740D01*
X000909Y022658D01*
X000887Y022575D01*
X000868Y022491D01*
X000854Y022407D01*
X000844Y022321D01*
X000838Y022236D01*
X000836Y022150D01*
X000838Y022064D01*
X000844Y021979D01*
X000854Y021893D01*
X000868Y021809D01*
X000887Y021725D01*
X000909Y021642D01*
X000935Y021560D01*
X000965Y021479D01*
X000998Y021400D01*
X001035Y021323D01*
X001823Y020535D02*
X001900Y020498D01*
X001979Y020465D01*
X002060Y020435D01*
X002142Y020409D01*
X002225Y020387D01*
X002309Y020368D01*
X002393Y020354D01*
X002479Y020344D01*
X002564Y020338D01*
X002650Y020336D01*
X002736Y020338D01*
X002821Y020344D01*
X002907Y020354D01*
X002991Y020368D01*
X003075Y020387D01*
X003158Y020409D01*
X003240Y020435D01*
X003321Y020465D01*
X003400Y020498D01*
X003477Y020535D01*
X003477Y023765D02*
X003400Y023802D01*
X003321Y023835D01*
X003240Y023865D01*
X003158Y023891D01*
X003075Y023913D01*
X002991Y023932D01*
X002907Y023946D01*
X002821Y023956D01*
X002736Y023962D01*
X002650Y023964D01*
X002564Y023962D01*
X002479Y023956D01*
X002393Y023946D01*
X002309Y023932D01*
X002225Y023913D01*
X002142Y023891D01*
X002060Y023865D01*
X001979Y023835D01*
X001900Y023802D01*
X001823Y023765D01*
X004265Y022977D02*
X004302Y022900D01*
X004335Y022821D01*
X004365Y022740D01*
X004391Y022658D01*
X004413Y022575D01*
X004432Y022491D01*
X004446Y022407D01*
X004456Y022321D01*
X004462Y022236D01*
X004464Y022150D01*
X004462Y022064D01*
X004456Y021979D01*
X004446Y021893D01*
X004432Y021809D01*
X004413Y021725D01*
X004391Y021642D01*
X004365Y021560D01*
X004335Y021479D01*
X004302Y021400D01*
X004265Y021323D01*
X004450Y021750D02*
X004800Y021750D01*
X004800Y022550D01*
X004450Y022550D01*
X004450Y030750D02*
X004800Y030750D01*
X004800Y031550D01*
X004450Y031550D01*
X003477Y032765D02*
X003400Y032802D01*
X003321Y032835D01*
X003240Y032865D01*
X003158Y032891D01*
X003075Y032913D01*
X002991Y032932D01*
X002907Y032946D01*
X002821Y032956D01*
X002736Y032962D01*
X002650Y032964D01*
X002564Y032962D01*
X002479Y032956D01*
X002393Y032946D01*
X002309Y032932D01*
X002225Y032913D01*
X002142Y032891D01*
X002060Y032865D01*
X001979Y032835D01*
X001900Y032802D01*
X001823Y032765D01*
X001035Y031977D02*
X000998Y031900D01*
X000965Y031821D01*
X000935Y031740D01*
X000909Y031658D01*
X000887Y031575D01*
X000868Y031491D01*
X000854Y031407D01*
X000844Y031321D01*
X000838Y031236D01*
X000836Y031150D01*
X000838Y031064D01*
X000844Y030979D01*
X000854Y030893D01*
X000868Y030809D01*
X000887Y030725D01*
X000909Y030642D01*
X000935Y030560D01*
X000965Y030479D01*
X000998Y030400D01*
X001035Y030323D01*
X000850Y030750D02*
X000500Y030750D01*
X000500Y031550D01*
X000850Y031550D01*
X004265Y031977D02*
X004302Y031900D01*
X004335Y031821D01*
X004365Y031740D01*
X004391Y031658D01*
X004413Y031575D01*
X004432Y031491D01*
X004446Y031407D01*
X004456Y031321D01*
X004462Y031236D01*
X004464Y031150D01*
X004462Y031064D01*
X004456Y030979D01*
X004446Y030893D01*
X004432Y030809D01*
X004413Y030725D01*
X004391Y030642D01*
X004365Y030560D01*
X004335Y030479D01*
X004302Y030400D01*
X004265Y030323D01*
X003477Y029535D02*
X003400Y029498D01*
X003321Y029465D01*
X003240Y029435D01*
X003158Y029409D01*
X003075Y029387D01*
X002991Y029368D01*
X002907Y029354D01*
X002821Y029344D01*
X002736Y029338D01*
X002650Y029336D01*
X002564Y029338D01*
X002479Y029344D01*
X002393Y029354D01*
X002309Y029368D01*
X002225Y029387D01*
X002142Y029409D01*
X002060Y029435D01*
X001979Y029465D01*
X001900Y029498D01*
X001823Y029535D01*
X009500Y030750D02*
X009850Y030750D01*
X009500Y030750D02*
X009500Y031550D01*
X009850Y031550D01*
X010035Y031977D02*
X009998Y031900D01*
X009965Y031821D01*
X009935Y031740D01*
X009909Y031658D01*
X009887Y031575D01*
X009868Y031491D01*
X009854Y031407D01*
X009844Y031321D01*
X009838Y031236D01*
X009836Y031150D01*
X009838Y031064D01*
X009844Y030979D01*
X009854Y030893D01*
X009868Y030809D01*
X009887Y030725D01*
X009909Y030642D01*
X009935Y030560D01*
X009965Y030479D01*
X009998Y030400D01*
X010035Y030323D01*
X010823Y029535D02*
X010900Y029498D01*
X010979Y029465D01*
X011060Y029435D01*
X011142Y029409D01*
X011225Y029387D01*
X011309Y029368D01*
X011393Y029354D01*
X011479Y029344D01*
X011564Y029338D01*
X011650Y029336D01*
X011736Y029338D01*
X011821Y029344D01*
X011907Y029354D01*
X011991Y029368D01*
X012075Y029387D01*
X012158Y029409D01*
X012240Y029435D01*
X012321Y029465D01*
X012400Y029498D01*
X012477Y029535D01*
X012477Y032765D02*
X012400Y032802D01*
X012321Y032835D01*
X012240Y032865D01*
X012158Y032891D01*
X012075Y032913D01*
X011991Y032932D01*
X011907Y032946D01*
X011821Y032956D01*
X011736Y032962D01*
X011650Y032964D01*
X011564Y032962D01*
X011479Y032956D01*
X011393Y032946D01*
X011309Y032932D01*
X011225Y032913D01*
X011142Y032891D01*
X011060Y032865D01*
X010979Y032835D01*
X010900Y032802D01*
X010823Y032765D01*
X013265Y031977D02*
X013302Y031900D01*
X013335Y031821D01*
X013365Y031740D01*
X013391Y031658D01*
X013413Y031575D01*
X013432Y031491D01*
X013446Y031407D01*
X013456Y031321D01*
X013462Y031236D01*
X013464Y031150D01*
X013462Y031064D01*
X013456Y030979D01*
X013446Y030893D01*
X013432Y030809D01*
X013413Y030725D01*
X013391Y030642D01*
X013365Y030560D01*
X013335Y030479D01*
X013302Y030400D01*
X013265Y030323D01*
X013450Y030750D02*
X013800Y030750D01*
X013800Y031550D01*
X013450Y031550D01*
X013450Y022550D02*
X013800Y022550D01*
X013800Y021750D01*
X013450Y021750D01*
X012477Y020535D02*
X012400Y020498D01*
X012321Y020465D01*
X012240Y020435D01*
X012158Y020409D01*
X012075Y020387D01*
X011991Y020368D01*
X011907Y020354D01*
X011821Y020344D01*
X011736Y020338D01*
X011650Y020336D01*
X011564Y020338D01*
X011479Y020344D01*
X011393Y020354D01*
X011309Y020368D01*
X011225Y020387D01*
X011142Y020409D01*
X011060Y020435D01*
X010979Y020465D01*
X010900Y020498D01*
X010823Y020535D01*
X010035Y021323D02*
X009998Y021400D01*
X009965Y021479D01*
X009935Y021560D01*
X009909Y021642D01*
X009887Y021725D01*
X009868Y021809D01*
X009854Y021893D01*
X009844Y021979D01*
X009838Y022064D01*
X009836Y022150D01*
X009838Y022236D01*
X009844Y022321D01*
X009854Y022407D01*
X009868Y022491D01*
X009887Y022575D01*
X009909Y022658D01*
X009935Y022740D01*
X009965Y022821D01*
X009998Y022900D01*
X010035Y022977D01*
X009850Y022550D02*
X009500Y022550D01*
X009500Y021750D01*
X009850Y021750D01*
X010823Y023765D02*
X010900Y023802D01*
X010979Y023835D01*
X011060Y023865D01*
X011142Y023891D01*
X011225Y023913D01*
X011309Y023932D01*
X011393Y023946D01*
X011479Y023956D01*
X011564Y023962D01*
X011650Y023964D01*
X011736Y023962D01*
X011821Y023956D01*
X011907Y023946D01*
X011991Y023932D01*
X012075Y023913D01*
X012158Y023891D01*
X012240Y023865D01*
X012321Y023835D01*
X012400Y023802D01*
X012477Y023765D01*
X013265Y022977D02*
X013302Y022900D01*
X013335Y022821D01*
X013365Y022740D01*
X013391Y022658D01*
X013413Y022575D01*
X013432Y022491D01*
X013446Y022407D01*
X013456Y022321D01*
X013462Y022236D01*
X013464Y022150D01*
X013462Y022064D01*
X013456Y021979D01*
X013446Y021893D01*
X013432Y021809D01*
X013413Y021725D01*
X013391Y021642D01*
X013365Y021560D01*
X013335Y021479D01*
X013302Y021400D01*
X013265Y021323D01*
X013450Y013550D02*
X013800Y013550D01*
X013800Y012750D01*
X013450Y012750D01*
X012477Y011535D02*
X012400Y011498D01*
X012321Y011465D01*
X012240Y011435D01*
X012158Y011409D01*
X012075Y011387D01*
X011991Y011368D01*
X011907Y011354D01*
X011821Y011344D01*
X011736Y011338D01*
X011650Y011336D01*
X011564Y011338D01*
X011479Y011344D01*
X011393Y011354D01*
X011309Y011368D01*
X011225Y011387D01*
X011142Y011409D01*
X011060Y011435D01*
X010979Y011465D01*
X010900Y011498D01*
X010823Y011535D01*
X010035Y012323D02*
X009998Y012400D01*
X009965Y012479D01*
X009935Y012560D01*
X009909Y012642D01*
X009887Y012725D01*
X009868Y012809D01*
X009854Y012893D01*
X009844Y012979D01*
X009838Y013064D01*
X009836Y013150D01*
X009838Y013236D01*
X009844Y013321D01*
X009854Y013407D01*
X009868Y013491D01*
X009887Y013575D01*
X009909Y013658D01*
X009935Y013740D01*
X009965Y013821D01*
X009998Y013900D01*
X010035Y013977D01*
X009850Y013550D02*
X009500Y013550D01*
X009500Y012750D01*
X009850Y012750D01*
X010823Y014765D02*
X010900Y014802D01*
X010979Y014835D01*
X011060Y014865D01*
X011142Y014891D01*
X011225Y014913D01*
X011309Y014932D01*
X011393Y014946D01*
X011479Y014956D01*
X011564Y014962D01*
X011650Y014964D01*
X011736Y014962D01*
X011821Y014956D01*
X011907Y014946D01*
X011991Y014932D01*
X012075Y014913D01*
X012158Y014891D01*
X012240Y014865D01*
X012321Y014835D01*
X012400Y014802D01*
X012477Y014765D01*
X013265Y013977D02*
X013302Y013900D01*
X013335Y013821D01*
X013365Y013740D01*
X013391Y013658D01*
X013413Y013575D01*
X013432Y013491D01*
X013446Y013407D01*
X013456Y013321D01*
X013462Y013236D01*
X013464Y013150D01*
X013462Y013064D01*
X013456Y012979D01*
X013446Y012893D01*
X013432Y012809D01*
X013413Y012725D01*
X013391Y012642D01*
X013365Y012560D01*
X013335Y012479D01*
X013302Y012400D01*
X013265Y012323D01*
X013450Y004550D02*
X013800Y004550D01*
X013800Y003750D01*
X013450Y003750D01*
X012477Y002535D02*
X012400Y002498D01*
X012321Y002465D01*
X012240Y002435D01*
X012158Y002409D01*
X012075Y002387D01*
X011991Y002368D01*
X011907Y002354D01*
X011821Y002344D01*
X011736Y002338D01*
X011650Y002336D01*
X011564Y002338D01*
X011479Y002344D01*
X011393Y002354D01*
X011309Y002368D01*
X011225Y002387D01*
X011142Y002409D01*
X011060Y002435D01*
X010979Y002465D01*
X010900Y002498D01*
X010823Y002535D01*
X010035Y003323D02*
X009998Y003400D01*
X009965Y003479D01*
X009935Y003560D01*
X009909Y003642D01*
X009887Y003725D01*
X009868Y003809D01*
X009854Y003893D01*
X009844Y003979D01*
X009838Y004064D01*
X009836Y004150D01*
X009838Y004236D01*
X009844Y004321D01*
X009854Y004407D01*
X009868Y004491D01*
X009887Y004575D01*
X009909Y004658D01*
X009935Y004740D01*
X009965Y004821D01*
X009998Y004900D01*
X010035Y004977D01*
X009850Y004550D02*
X009500Y004550D01*
X009500Y003750D01*
X009850Y003750D01*
X010823Y005765D02*
X010900Y005802D01*
X010979Y005835D01*
X011060Y005865D01*
X011142Y005891D01*
X011225Y005913D01*
X011309Y005932D01*
X011393Y005946D01*
X011479Y005956D01*
X011564Y005962D01*
X011650Y005964D01*
X011736Y005962D01*
X011821Y005956D01*
X011907Y005946D01*
X011991Y005932D01*
X012075Y005913D01*
X012158Y005891D01*
X012240Y005865D01*
X012321Y005835D01*
X012400Y005802D01*
X012477Y005765D01*
X013265Y004977D02*
X013302Y004900D01*
X013335Y004821D01*
X013365Y004740D01*
X013391Y004658D01*
X013413Y004575D01*
X013432Y004491D01*
X013446Y004407D01*
X013456Y004321D01*
X013462Y004236D01*
X013464Y004150D01*
X013462Y004064D01*
X013456Y003979D01*
X013446Y003893D01*
X013432Y003809D01*
X013413Y003725D01*
X013391Y003642D01*
X013365Y003560D01*
X013335Y003479D01*
X013302Y003400D01*
X013265Y003323D01*
M02*
