G75*
G70*
%OFA0B0*%
%FSLAX24Y24*%
%IPPOS*%
%LPD*%
%AMOC8*
5,1,8,0,0,1.08239X$1,22.5*
%
%ADD10OC8,0.0600*%
%ADD11C,0.0709*%
%ADD12C,0.0768*%
%ADD13C,0.0100*%
%ADD14OC8,0.1360*%
D10*
X004150Y029150D03*
X004150Y030150D03*
X005150Y030150D03*
X005150Y029150D03*
X006150Y029150D03*
X006150Y030150D03*
X007150Y030150D03*
X007150Y029150D03*
X008150Y029150D03*
X008150Y030150D03*
D11*
X009650Y025150D03*
X009650Y018150D03*
X009650Y011150D03*
X009650Y004150D03*
X002650Y004150D03*
X002650Y011150D03*
X002650Y018150D03*
X002650Y025150D03*
D12*
X001430Y023930D03*
X001430Y026370D03*
X003870Y026370D03*
X003870Y023930D03*
X003870Y019370D03*
X003870Y016930D03*
X003870Y012370D03*
X003870Y009930D03*
X003870Y005370D03*
X003870Y002930D03*
X001430Y002930D03*
X001430Y005370D03*
X001430Y009930D03*
X001430Y012370D03*
X001430Y016930D03*
X001430Y019370D03*
X008430Y019370D03*
X008430Y016930D03*
X008430Y012370D03*
X008430Y009930D03*
X008430Y005370D03*
X008430Y002930D03*
X010870Y002930D03*
X010870Y005370D03*
X010870Y009930D03*
X010870Y012370D03*
X010870Y016930D03*
X010870Y019370D03*
X010870Y023930D03*
X010870Y026370D03*
X008430Y026370D03*
X008430Y023930D03*
D13*
X000400Y031259D02*
X000400Y001541D01*
X000436Y001627D01*
X000673Y001864D01*
X000982Y001992D01*
X001318Y001992D01*
X001627Y001864D01*
X001864Y001627D01*
X001992Y001318D01*
X001992Y000982D01*
X001864Y000673D01*
X001627Y000436D01*
X001541Y000400D01*
X010759Y000400D01*
X010673Y000436D01*
X010436Y000673D01*
X010308Y000982D01*
X010308Y001318D01*
X010436Y001627D01*
X010673Y001864D01*
X010982Y001992D01*
X011318Y001992D01*
X011627Y001864D01*
X011864Y001627D01*
X011900Y001541D01*
X011900Y031259D01*
X011864Y031173D01*
X011627Y030936D01*
X011318Y030808D01*
X010982Y030808D01*
X010673Y030936D01*
X010436Y031173D01*
X010308Y031482D01*
X010308Y031818D01*
X010436Y032127D01*
X010673Y032364D01*
X010759Y032400D01*
X001541Y032400D01*
X001627Y032364D01*
X001864Y032127D01*
X001992Y031818D01*
X001992Y031482D01*
X001864Y031173D01*
X001627Y030936D01*
X001318Y030808D01*
X000982Y030808D01*
X000673Y030936D01*
X000436Y031173D01*
X000400Y031259D01*
X000400Y031178D02*
X000434Y031178D01*
X000400Y031079D02*
X000529Y031079D01*
X000628Y030981D02*
X000400Y030981D01*
X000400Y030882D02*
X000802Y030882D01*
X000400Y030784D02*
X011900Y030784D01*
X011900Y030882D02*
X011498Y030882D01*
X011672Y030981D02*
X011900Y030981D01*
X011900Y031079D02*
X011771Y031079D01*
X011866Y031178D02*
X011900Y031178D01*
X011900Y030685D02*
X000400Y030685D01*
X000400Y030587D02*
X003950Y030587D01*
X003964Y030600D02*
X003700Y030336D01*
X003700Y030200D01*
X004100Y030200D01*
X004100Y030600D01*
X003964Y030600D01*
X004100Y030587D02*
X004200Y030587D01*
X004200Y030600D02*
X004336Y030600D01*
X004600Y030336D01*
X004600Y030200D01*
X004200Y030200D01*
X004200Y030100D01*
X004600Y030100D01*
X004600Y029964D01*
X004336Y029700D01*
X004200Y029700D01*
X004200Y030100D01*
X004100Y030100D01*
X004100Y029700D01*
X003964Y029700D01*
X003700Y029964D01*
X003700Y030100D01*
X004100Y030100D01*
X004100Y030200D01*
X004200Y030200D01*
X004200Y030600D01*
X004200Y030488D02*
X004100Y030488D01*
X004100Y030390D02*
X004200Y030390D01*
X004200Y030291D02*
X004100Y030291D01*
X004100Y030193D02*
X000400Y030193D01*
X000400Y030291D02*
X003700Y030291D01*
X003753Y030390D02*
X000400Y030390D01*
X000400Y030488D02*
X003852Y030488D01*
X003700Y030094D02*
X000400Y030094D01*
X000400Y029996D02*
X003700Y029996D01*
X003767Y029897D02*
X000400Y029897D01*
X000400Y029799D02*
X003865Y029799D01*
X003964Y029700D02*
X000400Y029700D01*
X000400Y029602D02*
X011900Y029602D01*
X011900Y029700D02*
X004336Y029700D01*
X004336Y029600D02*
X004200Y029600D01*
X004200Y029200D01*
X004600Y029200D01*
X004600Y029336D01*
X004336Y029600D01*
X004433Y029503D02*
X004923Y029503D01*
X004980Y029560D02*
X004740Y029320D01*
X004740Y028980D01*
X004980Y028740D01*
X005320Y028740D01*
X005560Y028980D01*
X005560Y029320D01*
X005320Y029560D01*
X004980Y029560D01*
X004980Y029740D02*
X005320Y029740D01*
X005560Y029980D01*
X005560Y030320D01*
X005320Y030560D01*
X004980Y030560D01*
X004740Y030320D01*
X004740Y029980D01*
X004980Y029740D01*
X004922Y029799D02*
X004435Y029799D01*
X004533Y029897D02*
X004823Y029897D01*
X004740Y029996D02*
X004600Y029996D01*
X004600Y030094D02*
X004740Y030094D01*
X004740Y030193D02*
X004200Y030193D01*
X004200Y030094D02*
X004100Y030094D01*
X004100Y029996D02*
X004200Y029996D01*
X004200Y029897D02*
X004100Y029897D01*
X004100Y029799D02*
X004200Y029799D01*
X004200Y029700D02*
X004100Y029700D01*
X004100Y029600D02*
X003964Y029600D01*
X003700Y029336D01*
X003700Y029200D01*
X004100Y029200D01*
X004100Y029600D01*
X004100Y029503D02*
X004200Y029503D01*
X004200Y029405D02*
X004100Y029405D01*
X004100Y029306D02*
X004200Y029306D01*
X004200Y029208D02*
X004100Y029208D01*
X004100Y029200D02*
X004200Y029200D01*
X004200Y029100D01*
X004600Y029100D01*
X004600Y028964D01*
X004336Y028700D01*
X004200Y028700D01*
X004200Y029100D01*
X004100Y029100D01*
X004100Y028700D01*
X003964Y028700D01*
X003700Y028964D01*
X003700Y029100D01*
X004100Y029100D01*
X004100Y029200D01*
X004100Y029109D02*
X000400Y029109D01*
X000400Y029011D02*
X003700Y029011D01*
X003752Y028912D02*
X000400Y028912D01*
X000400Y028814D02*
X003850Y028814D01*
X003949Y028715D02*
X000400Y028715D01*
X000400Y028617D02*
X011900Y028617D01*
X011900Y028715D02*
X004351Y028715D01*
X004450Y028814D02*
X004907Y028814D01*
X004808Y028912D02*
X004548Y028912D01*
X004600Y029011D02*
X004740Y029011D01*
X004740Y029109D02*
X004200Y029109D01*
X004200Y029011D02*
X004100Y029011D01*
X004100Y028912D02*
X004200Y028912D01*
X004200Y028814D02*
X004100Y028814D01*
X004100Y028715D02*
X004200Y028715D01*
X004532Y029405D02*
X004825Y029405D01*
X004740Y029306D02*
X004600Y029306D01*
X004600Y029208D02*
X004740Y029208D01*
X004740Y030291D02*
X004600Y030291D01*
X004547Y030390D02*
X004810Y030390D01*
X004908Y030488D02*
X004448Y030488D01*
X004350Y030587D02*
X011900Y030587D01*
X011900Y030488D02*
X008392Y030488D01*
X008320Y030560D02*
X007980Y030560D01*
X007740Y030320D01*
X007740Y029980D01*
X007980Y029740D01*
X008320Y029740D01*
X008560Y029980D01*
X008560Y030320D01*
X008320Y030560D01*
X008490Y030390D02*
X011900Y030390D01*
X011900Y030291D02*
X008560Y030291D01*
X008560Y030193D02*
X011900Y030193D01*
X011900Y030094D02*
X008560Y030094D01*
X008560Y029996D02*
X011900Y029996D01*
X011900Y029897D02*
X008477Y029897D01*
X008378Y029799D02*
X011900Y029799D01*
X011900Y029503D02*
X008377Y029503D01*
X008320Y029560D02*
X007980Y029560D01*
X007740Y029320D01*
X007740Y028980D01*
X007980Y028740D01*
X008320Y028740D01*
X008560Y028980D01*
X008560Y029320D01*
X008320Y029560D01*
X008475Y029405D02*
X011900Y029405D01*
X011900Y029306D02*
X008560Y029306D01*
X008560Y029208D02*
X011900Y029208D01*
X011900Y029109D02*
X008560Y029109D01*
X008560Y029011D02*
X011900Y029011D01*
X011900Y028912D02*
X008492Y028912D01*
X008393Y028814D02*
X011900Y028814D01*
X011900Y028518D02*
X000400Y028518D01*
X000400Y028420D02*
X011900Y028420D01*
X011900Y028321D02*
X000400Y028321D01*
X000400Y028223D02*
X011900Y028223D01*
X011900Y028124D02*
X000400Y028124D01*
X000400Y028026D02*
X011900Y028026D01*
X011900Y027927D02*
X000400Y027927D01*
X000400Y027829D02*
X011900Y027829D01*
X011900Y027730D02*
X000400Y027730D01*
X000400Y027632D02*
X011900Y027632D01*
X011900Y027533D02*
X000400Y027533D01*
X000400Y027435D02*
X011900Y027435D01*
X011900Y027336D02*
X000400Y027336D01*
X000400Y027238D02*
X011900Y027238D01*
X011900Y027139D02*
X000400Y027139D01*
X000400Y027041D02*
X011900Y027041D01*
X011900Y026942D02*
X000400Y026942D01*
X000400Y026844D02*
X001184Y026844D01*
X001150Y026827D02*
X001082Y026777D01*
X001023Y026718D01*
X000973Y026650D01*
X000935Y026575D01*
X000909Y026495D01*
X000897Y026420D01*
X001380Y026420D01*
X001380Y026903D01*
X001305Y026891D01*
X001225Y026865D01*
X001150Y026827D01*
X001050Y026745D02*
X000400Y026745D01*
X000400Y026647D02*
X000972Y026647D01*
X000927Y026548D02*
X000400Y026548D01*
X000400Y026450D02*
X000902Y026450D01*
X000897Y026320D02*
X000909Y026245D01*
X000935Y026165D01*
X000973Y026090D01*
X001023Y026022D01*
X001082Y025963D01*
X001150Y025913D01*
X001225Y025875D01*
X001305Y025849D01*
X001380Y025837D01*
X001380Y026320D01*
X001480Y026320D01*
X001480Y026420D01*
X001963Y026420D01*
X001951Y026495D01*
X001925Y026575D01*
X001887Y026650D01*
X001837Y026718D01*
X001778Y026777D01*
X001710Y026827D01*
X001635Y026865D01*
X001555Y026891D01*
X001480Y026903D01*
X001480Y026420D01*
X001380Y026420D01*
X001380Y026320D01*
X000897Y026320D01*
X000908Y026253D02*
X000400Y026253D01*
X000400Y026351D02*
X001380Y026351D01*
X001380Y026253D02*
X001480Y026253D01*
X001480Y026320D02*
X001480Y025837D01*
X001555Y025849D01*
X001635Y025875D01*
X001710Y025913D01*
X001778Y025963D01*
X001837Y026022D01*
X001887Y026090D01*
X001925Y026165D01*
X001951Y026245D01*
X001963Y026320D01*
X001480Y026320D01*
X001480Y026351D02*
X003820Y026351D01*
X003820Y026320D02*
X003337Y026320D01*
X003349Y026245D01*
X003375Y026165D01*
X003413Y026090D01*
X003463Y026022D01*
X003522Y025963D01*
X003590Y025913D01*
X003665Y025875D01*
X003745Y025849D01*
X003820Y025837D01*
X003820Y026320D01*
X003920Y026320D01*
X003920Y026420D01*
X004403Y026420D01*
X004391Y026495D01*
X004365Y026575D01*
X004327Y026650D01*
X004277Y026718D01*
X004218Y026777D01*
X004150Y026827D01*
X004075Y026865D01*
X003995Y026891D01*
X003920Y026903D01*
X003920Y026420D01*
X003820Y026420D01*
X003820Y026903D01*
X003745Y026891D01*
X003665Y026865D01*
X003590Y026827D01*
X003522Y026777D01*
X003463Y026718D01*
X003413Y026650D01*
X003375Y026575D01*
X003349Y026495D01*
X003337Y026420D01*
X003820Y026420D01*
X003820Y026320D01*
X003820Y026253D02*
X003920Y026253D01*
X003920Y026320D02*
X003920Y025837D01*
X003995Y025849D01*
X004075Y025875D01*
X004150Y025913D01*
X004218Y025963D01*
X004277Y026022D01*
X004327Y026090D01*
X004365Y026165D01*
X004391Y026245D01*
X004403Y026320D01*
X003920Y026320D01*
X003920Y026351D02*
X008380Y026351D01*
X008380Y026320D02*
X007897Y026320D01*
X007909Y026245D01*
X007935Y026165D01*
X007973Y026090D01*
X008023Y026022D01*
X008082Y025963D01*
X008150Y025913D01*
X008225Y025875D01*
X008305Y025849D01*
X008380Y025837D01*
X008380Y026320D01*
X008480Y026320D01*
X008480Y026420D01*
X008963Y026420D01*
X008951Y026495D01*
X008925Y026575D01*
X008887Y026650D01*
X008837Y026718D01*
X008778Y026777D01*
X008710Y026827D01*
X008635Y026865D01*
X008555Y026891D01*
X008480Y026903D01*
X008480Y026420D01*
X008380Y026420D01*
X008380Y026903D01*
X008305Y026891D01*
X008225Y026865D01*
X008150Y026827D01*
X008082Y026777D01*
X008023Y026718D01*
X007973Y026650D01*
X007935Y026575D01*
X007909Y026495D01*
X007897Y026420D01*
X008380Y026420D01*
X008380Y026320D01*
X008380Y026253D02*
X008480Y026253D01*
X008480Y026320D02*
X008480Y025837D01*
X008555Y025849D01*
X008635Y025875D01*
X008710Y025913D01*
X008778Y025963D01*
X008837Y026022D01*
X008887Y026090D01*
X008925Y026165D01*
X008951Y026245D01*
X008963Y026320D01*
X008480Y026320D01*
X008480Y026351D02*
X010820Y026351D01*
X010820Y026320D02*
X010337Y026320D01*
X010349Y026245D01*
X010375Y026165D01*
X010413Y026090D01*
X010463Y026022D01*
X010522Y025963D01*
X010590Y025913D01*
X010665Y025875D01*
X010745Y025849D01*
X010820Y025837D01*
X010820Y026320D01*
X010920Y026320D01*
X010920Y026420D01*
X011403Y026420D01*
X011391Y026495D01*
X011365Y026575D01*
X011327Y026650D01*
X011277Y026718D01*
X011218Y026777D01*
X011150Y026827D01*
X011075Y026865D01*
X010995Y026891D01*
X010920Y026903D01*
X010920Y026420D01*
X010820Y026420D01*
X010820Y026903D01*
X010745Y026891D01*
X010665Y026865D01*
X010590Y026827D01*
X010522Y026777D01*
X010463Y026718D01*
X010413Y026650D01*
X010375Y026575D01*
X010349Y026495D01*
X010337Y026420D01*
X010820Y026420D01*
X010820Y026320D01*
X010820Y026253D02*
X010920Y026253D01*
X010920Y026320D02*
X010920Y025837D01*
X010995Y025849D01*
X011075Y025875D01*
X011150Y025913D01*
X011218Y025963D01*
X011277Y026022D01*
X011327Y026090D01*
X011365Y026165D01*
X011391Y026245D01*
X011403Y026320D01*
X010920Y026320D01*
X010920Y026351D02*
X011900Y026351D01*
X011900Y026253D02*
X011392Y026253D01*
X011359Y026154D02*
X011900Y026154D01*
X011900Y026056D02*
X011301Y026056D01*
X011210Y025957D02*
X011900Y025957D01*
X011900Y025859D02*
X011024Y025859D01*
X010920Y025859D02*
X010820Y025859D01*
X010820Y025957D02*
X010920Y025957D01*
X010920Y026056D02*
X010820Y026056D01*
X010820Y026154D02*
X010920Y026154D01*
X010920Y026450D02*
X010820Y026450D01*
X010820Y026548D02*
X010920Y026548D01*
X010920Y026647D02*
X010820Y026647D01*
X010820Y026745D02*
X010920Y026745D01*
X010920Y026844D02*
X010820Y026844D01*
X010624Y026844D02*
X008676Y026844D01*
X008810Y026745D02*
X010490Y026745D01*
X010412Y026647D02*
X008888Y026647D01*
X008933Y026548D02*
X010367Y026548D01*
X010342Y026450D02*
X008958Y026450D01*
X008952Y026253D02*
X010348Y026253D01*
X010381Y026154D02*
X008919Y026154D01*
X008861Y026056D02*
X010439Y026056D01*
X010530Y025957D02*
X008770Y025957D01*
X008584Y025859D02*
X010716Y025859D01*
X011116Y026844D02*
X011900Y026844D01*
X011900Y026745D02*
X011250Y026745D01*
X011328Y026647D02*
X011900Y026647D01*
X011900Y026548D02*
X011373Y026548D01*
X011398Y026450D02*
X011900Y026450D01*
X011900Y025760D02*
X000400Y025760D01*
X000400Y025662D02*
X011900Y025662D01*
X011900Y025563D02*
X009866Y025563D01*
X009913Y025544D02*
X009742Y025614D01*
X009558Y025614D01*
X009387Y025544D01*
X009256Y025413D01*
X009186Y025242D01*
X009186Y025058D01*
X009256Y024887D01*
X009387Y024756D01*
X009558Y024686D01*
X009742Y024686D01*
X009913Y024756D01*
X010044Y024887D01*
X010114Y025058D01*
X010114Y025242D01*
X010044Y025413D01*
X009913Y025544D01*
X009992Y025465D02*
X011900Y025465D01*
X011900Y025366D02*
X010063Y025366D01*
X010104Y025268D02*
X011900Y025268D01*
X011900Y025169D02*
X010114Y025169D01*
X010114Y025071D02*
X011900Y025071D01*
X011900Y024972D02*
X010079Y024972D01*
X010030Y024874D02*
X011900Y024874D01*
X011900Y024775D02*
X009932Y024775D01*
X009368Y024775D02*
X002932Y024775D01*
X002913Y024756D02*
X003044Y024887D01*
X003114Y025058D01*
X003114Y025242D01*
X003044Y025413D01*
X002913Y025544D01*
X002742Y025614D01*
X002558Y025614D01*
X002387Y025544D01*
X002256Y025413D01*
X002186Y025242D01*
X002186Y025058D01*
X002256Y024887D01*
X002387Y024756D01*
X002558Y024686D01*
X002742Y024686D01*
X002913Y024756D01*
X003030Y024874D02*
X009270Y024874D01*
X009221Y024972D02*
X003079Y024972D01*
X003114Y025071D02*
X009186Y025071D01*
X009186Y025169D02*
X003114Y025169D01*
X003104Y025268D02*
X009196Y025268D01*
X009237Y025366D02*
X003063Y025366D01*
X002992Y025465D02*
X009308Y025465D01*
X009434Y025563D02*
X002866Y025563D01*
X002434Y025563D02*
X000400Y025563D01*
X000400Y025465D02*
X002308Y025465D01*
X002237Y025366D02*
X000400Y025366D01*
X000400Y025268D02*
X002196Y025268D01*
X002186Y025169D02*
X000400Y025169D01*
X000400Y025071D02*
X002186Y025071D01*
X002221Y024972D02*
X000400Y024972D01*
X000400Y024874D02*
X002270Y024874D01*
X002368Y024775D02*
X000400Y024775D01*
X000400Y024677D02*
X011900Y024677D01*
X011900Y024578D02*
X000400Y024578D01*
X000400Y024480D02*
X011900Y024480D01*
X011900Y024381D02*
X011157Y024381D01*
X011150Y024387D02*
X011075Y024425D01*
X010995Y024451D01*
X010920Y024463D01*
X010920Y023980D01*
X011403Y023980D01*
X011391Y024055D01*
X011365Y024135D01*
X011327Y024210D01*
X011277Y024278D01*
X011218Y024337D01*
X011150Y024387D01*
X011272Y024283D02*
X011900Y024283D01*
X011900Y024184D02*
X011340Y024184D01*
X011381Y024086D02*
X011900Y024086D01*
X011900Y023987D02*
X011401Y023987D01*
X011403Y023880D02*
X010920Y023880D01*
X010920Y023980D01*
X010820Y023980D01*
X010820Y024463D01*
X010745Y024451D01*
X010665Y024425D01*
X010590Y024387D01*
X010522Y024337D01*
X010463Y024278D01*
X010413Y024210D01*
X010375Y024135D01*
X010349Y024055D01*
X010337Y023980D01*
X010820Y023980D01*
X010820Y023880D01*
X010920Y023880D01*
X010920Y023397D01*
X010995Y023409D01*
X011075Y023435D01*
X011150Y023473D01*
X011218Y023523D01*
X011277Y023582D01*
X011327Y023650D01*
X011365Y023725D01*
X011391Y023805D01*
X011403Y023880D01*
X011386Y023790D02*
X011900Y023790D01*
X011900Y023692D02*
X011348Y023692D01*
X011285Y023593D02*
X011900Y023593D01*
X011900Y023495D02*
X011179Y023495D01*
X010920Y023495D02*
X010820Y023495D01*
X010820Y023397D02*
X010820Y023880D01*
X010337Y023880D01*
X010349Y023805D01*
X010375Y023725D01*
X010413Y023650D01*
X010463Y023582D01*
X010522Y023523D01*
X010590Y023473D01*
X010665Y023435D01*
X010745Y023409D01*
X010820Y023397D01*
X010820Y023593D02*
X010920Y023593D01*
X010920Y023692D02*
X010820Y023692D01*
X010820Y023790D02*
X010920Y023790D01*
X010920Y023889D02*
X011900Y023889D01*
X011900Y023396D02*
X000400Y023396D01*
X000400Y023298D02*
X011900Y023298D01*
X011900Y023199D02*
X000400Y023199D01*
X000400Y023101D02*
X011900Y023101D01*
X011900Y023002D02*
X000400Y023002D01*
X000400Y022904D02*
X011900Y022904D01*
X011900Y022805D02*
X000400Y022805D01*
X000400Y022707D02*
X011900Y022707D01*
X011900Y022608D02*
X000400Y022608D01*
X000400Y022510D02*
X011900Y022510D01*
X011900Y022411D02*
X000400Y022411D01*
X000400Y022313D02*
X011900Y022313D01*
X011900Y022214D02*
X000400Y022214D01*
X000400Y022116D02*
X011900Y022116D01*
X011900Y022017D02*
X000400Y022017D01*
X000400Y021919D02*
X011900Y021919D01*
X011900Y021820D02*
X000400Y021820D01*
X000400Y021722D02*
X011900Y021722D01*
X011900Y021623D02*
X000400Y021623D01*
X000400Y021525D02*
X011900Y021525D01*
X011900Y021426D02*
X000400Y021426D01*
X000400Y021328D02*
X011900Y021328D01*
X011900Y021229D02*
X000400Y021229D01*
X000400Y021131D02*
X011900Y021131D01*
X011900Y021032D02*
X000400Y021032D01*
X000400Y020934D02*
X011900Y020934D01*
X011900Y020835D02*
X000400Y020835D01*
X000400Y020737D02*
X011900Y020737D01*
X011900Y020638D02*
X000400Y020638D01*
X000400Y020540D02*
X011900Y020540D01*
X011900Y020441D02*
X000400Y020441D01*
X000400Y020343D02*
X011900Y020343D01*
X011900Y020244D02*
X000400Y020244D01*
X000400Y020146D02*
X011900Y020146D01*
X011900Y020047D02*
X000400Y020047D01*
X000400Y019949D02*
X011900Y019949D01*
X011900Y019850D02*
X011104Y019850D01*
X011075Y019865D02*
X010995Y019891D01*
X010920Y019903D01*
X010920Y019420D01*
X011403Y019420D01*
X011391Y019495D01*
X011365Y019575D01*
X011327Y019650D01*
X011277Y019718D01*
X011218Y019777D01*
X011150Y019827D01*
X011075Y019865D01*
X011243Y019752D02*
X011900Y019752D01*
X011900Y019653D02*
X011324Y019653D01*
X011371Y019555D02*
X011900Y019555D01*
X011900Y019456D02*
X011397Y019456D01*
X011403Y019320D02*
X010920Y019320D01*
X010920Y019420D01*
X010820Y019420D01*
X010820Y019903D01*
X010745Y019891D01*
X010665Y019865D01*
X010590Y019827D01*
X010522Y019777D01*
X010463Y019718D01*
X010413Y019650D01*
X010375Y019575D01*
X010349Y019495D01*
X010337Y019420D01*
X010820Y019420D01*
X010820Y019320D01*
X010920Y019320D01*
X010920Y018837D01*
X010995Y018849D01*
X011075Y018875D01*
X011150Y018913D01*
X011218Y018963D01*
X011277Y019022D01*
X011327Y019090D01*
X011365Y019165D01*
X011391Y019245D01*
X011403Y019320D01*
X011393Y019259D02*
X011900Y019259D01*
X011900Y019161D02*
X011362Y019161D01*
X011306Y019062D02*
X011900Y019062D01*
X011900Y018964D02*
X011219Y018964D01*
X011044Y018865D02*
X011900Y018865D01*
X011900Y018767D02*
X000400Y018767D01*
X000400Y018865D02*
X001256Y018865D01*
X001225Y018875D02*
X001305Y018849D01*
X001380Y018837D01*
X001380Y019320D01*
X001480Y019320D01*
X001480Y019420D01*
X001963Y019420D01*
X001951Y019495D01*
X001925Y019575D01*
X001887Y019650D01*
X001837Y019718D01*
X001778Y019777D01*
X001710Y019827D01*
X001635Y019865D01*
X001555Y019891D01*
X001480Y019903D01*
X001480Y019420D01*
X001380Y019420D01*
X001380Y019903D01*
X001305Y019891D01*
X001225Y019865D01*
X001150Y019827D01*
X001082Y019777D01*
X001023Y019718D01*
X000973Y019650D01*
X000935Y019575D01*
X000909Y019495D01*
X000897Y019420D01*
X001380Y019420D01*
X001380Y019320D01*
X000897Y019320D01*
X000909Y019245D01*
X000935Y019165D01*
X000973Y019090D01*
X001023Y019022D01*
X001082Y018963D01*
X001150Y018913D01*
X001225Y018875D01*
X001081Y018964D02*
X000400Y018964D01*
X000400Y019062D02*
X000994Y019062D01*
X000938Y019161D02*
X000400Y019161D01*
X000400Y019259D02*
X000907Y019259D01*
X000903Y019456D02*
X000400Y019456D01*
X000400Y019358D02*
X001380Y019358D01*
X001380Y019456D02*
X001480Y019456D01*
X001480Y019358D02*
X003820Y019358D01*
X003820Y019320D02*
X003820Y019420D01*
X003820Y019903D01*
X003745Y019891D01*
X003665Y019865D01*
X003590Y019827D01*
X003522Y019777D01*
X003463Y019718D01*
X003413Y019650D01*
X003375Y019575D01*
X003349Y019495D01*
X003337Y019420D01*
X003820Y019420D01*
X003920Y019420D01*
X004403Y019420D01*
X004391Y019495D01*
X004365Y019575D01*
X004327Y019650D01*
X004277Y019718D01*
X004218Y019777D01*
X004150Y019827D01*
X004075Y019865D01*
X003995Y019891D01*
X003920Y019903D01*
X003920Y019420D01*
X003920Y019320D01*
X004403Y019320D01*
X004391Y019245D01*
X004365Y019165D01*
X004327Y019090D01*
X004277Y019022D01*
X004218Y018963D01*
X004150Y018913D01*
X004075Y018875D01*
X003995Y018849D01*
X003920Y018837D01*
X003920Y019320D01*
X003820Y019320D01*
X003820Y018837D01*
X003745Y018849D01*
X003665Y018875D01*
X003590Y018913D01*
X003522Y018963D01*
X003463Y019022D01*
X003413Y019090D01*
X003375Y019165D01*
X003349Y019245D01*
X003337Y019320D01*
X003820Y019320D01*
X003820Y019259D02*
X003920Y019259D01*
X003920Y019161D02*
X003820Y019161D01*
X003820Y019062D02*
X003920Y019062D01*
X003920Y018964D02*
X003820Y018964D01*
X003820Y018865D02*
X003920Y018865D01*
X004044Y018865D02*
X008256Y018865D01*
X008225Y018875D02*
X008305Y018849D01*
X008380Y018837D01*
X008380Y019320D01*
X008480Y019320D01*
X008480Y019420D01*
X008963Y019420D01*
X008951Y019495D01*
X008925Y019575D01*
X008887Y019650D01*
X008837Y019718D01*
X008778Y019777D01*
X008710Y019827D01*
X008635Y019865D01*
X008555Y019891D01*
X008480Y019903D01*
X008480Y019420D01*
X008380Y019420D01*
X008380Y019903D01*
X008305Y019891D01*
X008225Y019865D01*
X008150Y019827D01*
X008082Y019777D01*
X008023Y019718D01*
X007973Y019650D01*
X007935Y019575D01*
X007909Y019495D01*
X007897Y019420D01*
X008380Y019420D01*
X008380Y019320D01*
X007897Y019320D01*
X007909Y019245D01*
X007935Y019165D01*
X007973Y019090D01*
X008023Y019022D01*
X008082Y018963D01*
X008150Y018913D01*
X008225Y018875D01*
X008081Y018964D02*
X004219Y018964D01*
X004306Y019062D02*
X007994Y019062D01*
X007938Y019161D02*
X004362Y019161D01*
X004393Y019259D02*
X007907Y019259D01*
X007903Y019456D02*
X004397Y019456D01*
X004371Y019555D02*
X007929Y019555D01*
X007976Y019653D02*
X004324Y019653D01*
X004243Y019752D02*
X008057Y019752D01*
X008196Y019850D02*
X004104Y019850D01*
X003920Y019850D02*
X003820Y019850D01*
X003820Y019752D02*
X003920Y019752D01*
X003920Y019653D02*
X003820Y019653D01*
X003820Y019555D02*
X003920Y019555D01*
X003920Y019456D02*
X003820Y019456D01*
X003920Y019358D02*
X008380Y019358D01*
X008380Y019456D02*
X008480Y019456D01*
X008480Y019358D02*
X010820Y019358D01*
X010820Y019320D02*
X010337Y019320D01*
X010349Y019245D01*
X010375Y019165D01*
X010413Y019090D01*
X010463Y019022D01*
X010522Y018963D01*
X010590Y018913D01*
X010665Y018875D01*
X010745Y018849D01*
X010820Y018837D01*
X010820Y019320D01*
X010820Y019259D02*
X010920Y019259D01*
X010920Y019161D02*
X010820Y019161D01*
X010820Y019062D02*
X010920Y019062D01*
X010920Y018964D02*
X010820Y018964D01*
X010820Y018865D02*
X010920Y018865D01*
X010696Y018865D02*
X008604Y018865D01*
X008635Y018875D02*
X008555Y018849D01*
X008480Y018837D01*
X008480Y019320D01*
X008963Y019320D01*
X008951Y019245D01*
X008925Y019165D01*
X008887Y019090D01*
X008837Y019022D01*
X008778Y018963D01*
X008710Y018913D01*
X008635Y018875D01*
X008779Y018964D02*
X010521Y018964D01*
X010434Y019062D02*
X008866Y019062D01*
X008922Y019161D02*
X010378Y019161D01*
X010347Y019259D02*
X008953Y019259D01*
X008957Y019456D02*
X010343Y019456D01*
X010369Y019555D02*
X008931Y019555D01*
X008884Y019653D02*
X010416Y019653D01*
X010497Y019752D02*
X008803Y019752D01*
X008664Y019850D02*
X010636Y019850D01*
X010820Y019850D02*
X010920Y019850D01*
X010920Y019752D02*
X010820Y019752D01*
X010820Y019653D02*
X010920Y019653D01*
X010920Y019555D02*
X010820Y019555D01*
X010820Y019456D02*
X010920Y019456D01*
X010920Y019358D02*
X011900Y019358D01*
X011900Y018668D02*
X000400Y018668D01*
X000400Y018570D02*
X002450Y018570D01*
X002387Y018544D02*
X002256Y018413D01*
X002186Y018242D01*
X002186Y018058D01*
X002256Y017887D01*
X002387Y017756D01*
X002558Y017686D01*
X002742Y017686D01*
X002913Y017756D01*
X003044Y017887D01*
X003114Y018058D01*
X003114Y018242D01*
X003044Y018413D01*
X002913Y018544D01*
X002742Y018614D01*
X002558Y018614D01*
X002387Y018544D01*
X002314Y018471D02*
X000400Y018471D01*
X000400Y018373D02*
X002240Y018373D01*
X002199Y018274D02*
X000400Y018274D01*
X000400Y018176D02*
X002186Y018176D01*
X002186Y018077D02*
X000400Y018077D01*
X000400Y017979D02*
X002218Y017979D01*
X002263Y017880D02*
X000400Y017880D01*
X000400Y017782D02*
X002362Y017782D01*
X002938Y017782D02*
X009362Y017782D01*
X009387Y017756D02*
X009558Y017686D01*
X009742Y017686D01*
X009913Y017756D01*
X010044Y017887D01*
X010114Y018058D01*
X010114Y018242D01*
X010044Y018413D01*
X009913Y018544D01*
X009742Y018614D01*
X009558Y018614D01*
X009387Y018544D01*
X009256Y018413D01*
X009186Y018242D01*
X009186Y018058D01*
X009256Y017887D01*
X009387Y017756D01*
X009263Y017880D02*
X003037Y017880D01*
X003082Y017979D02*
X009218Y017979D01*
X009186Y018077D02*
X003114Y018077D01*
X003114Y018176D02*
X009186Y018176D01*
X009199Y018274D02*
X003101Y018274D01*
X003060Y018373D02*
X009240Y018373D01*
X009314Y018471D02*
X002986Y018471D01*
X002850Y018570D02*
X009450Y018570D01*
X009850Y018570D02*
X011900Y018570D01*
X011900Y018471D02*
X009986Y018471D01*
X010060Y018373D02*
X011900Y018373D01*
X011900Y018274D02*
X010101Y018274D01*
X010114Y018176D02*
X011900Y018176D01*
X011900Y018077D02*
X010114Y018077D01*
X010082Y017979D02*
X011900Y017979D01*
X011900Y017880D02*
X010037Y017880D01*
X009938Y017782D02*
X011900Y017782D01*
X011900Y017683D02*
X000400Y017683D01*
X000400Y017585D02*
X011900Y017585D01*
X011900Y017486D02*
X000400Y017486D01*
X000400Y017388D02*
X001152Y017388D01*
X001150Y017387D02*
X001082Y017337D01*
X001023Y017278D01*
X000973Y017210D01*
X000935Y017135D01*
X000909Y017055D01*
X000897Y016980D01*
X001380Y016980D01*
X001380Y017463D01*
X001305Y017451D01*
X001225Y017425D01*
X001150Y017387D01*
X001034Y017289D02*
X000400Y017289D01*
X000400Y017191D02*
X000964Y017191D01*
X000921Y017092D02*
X000400Y017092D01*
X000400Y016994D02*
X000900Y016994D01*
X000897Y016880D02*
X000909Y016805D01*
X000935Y016725D01*
X000973Y016650D01*
X001023Y016582D01*
X001082Y016523D01*
X001150Y016473D01*
X001225Y016435D01*
X001305Y016409D01*
X001380Y016397D01*
X001380Y016880D01*
X001480Y016880D01*
X001480Y016980D01*
X001963Y016980D01*
X001951Y017055D01*
X001925Y017135D01*
X001887Y017210D01*
X001837Y017278D01*
X001778Y017337D01*
X001710Y017387D01*
X001635Y017425D01*
X001555Y017451D01*
X001480Y017463D01*
X001480Y016980D01*
X001380Y016980D01*
X001380Y016880D01*
X000897Y016880D01*
X000912Y016797D02*
X000400Y016797D01*
X000400Y016895D02*
X001380Y016895D01*
X001380Y016797D02*
X001480Y016797D01*
X001480Y016880D02*
X001480Y016397D01*
X001555Y016409D01*
X001635Y016435D01*
X001710Y016473D01*
X001778Y016523D01*
X001837Y016582D01*
X001887Y016650D01*
X001925Y016725D01*
X001951Y016805D01*
X001963Y016880D01*
X001480Y016880D01*
X001480Y016895D02*
X003820Y016895D01*
X003820Y016880D02*
X003337Y016880D01*
X003349Y016805D01*
X003375Y016725D01*
X003413Y016650D01*
X003463Y016582D01*
X003522Y016523D01*
X003590Y016473D01*
X003665Y016435D01*
X003745Y016409D01*
X003820Y016397D01*
X003820Y016880D01*
X003920Y016880D01*
X003920Y016980D01*
X004403Y016980D01*
X004391Y017055D01*
X004365Y017135D01*
X004327Y017210D01*
X004277Y017278D01*
X004218Y017337D01*
X004150Y017387D01*
X004075Y017425D01*
X003995Y017451D01*
X003920Y017463D01*
X003920Y016980D01*
X003820Y016980D01*
X003820Y017463D01*
X003745Y017451D01*
X003665Y017425D01*
X003590Y017387D01*
X003522Y017337D01*
X003463Y017278D01*
X003413Y017210D01*
X003375Y017135D01*
X003349Y017055D01*
X003337Y016980D01*
X003820Y016980D01*
X003820Y016880D01*
X003820Y016797D02*
X003920Y016797D01*
X003920Y016880D02*
X003920Y016397D01*
X003995Y016409D01*
X004075Y016435D01*
X004150Y016473D01*
X004218Y016523D01*
X004277Y016582D01*
X004327Y016650D01*
X004365Y016725D01*
X004391Y016805D01*
X004403Y016880D01*
X003920Y016880D01*
X003920Y016895D02*
X008380Y016895D01*
X008380Y016880D02*
X007897Y016880D01*
X007909Y016805D01*
X007935Y016725D01*
X007973Y016650D01*
X008023Y016582D01*
X008082Y016523D01*
X008150Y016473D01*
X008225Y016435D01*
X008305Y016409D01*
X008380Y016397D01*
X008380Y016880D01*
X008480Y016880D01*
X008480Y016980D01*
X008963Y016980D01*
X008951Y017055D01*
X008925Y017135D01*
X008887Y017210D01*
X008837Y017278D01*
X008778Y017337D01*
X008710Y017387D01*
X008635Y017425D01*
X008555Y017451D01*
X008480Y017463D01*
X008480Y016980D01*
X008380Y016980D01*
X008380Y017463D01*
X008305Y017451D01*
X008225Y017425D01*
X008150Y017387D01*
X008082Y017337D01*
X008023Y017278D01*
X007973Y017210D01*
X007935Y017135D01*
X007909Y017055D01*
X007897Y016980D01*
X008380Y016980D01*
X008380Y016880D01*
X008380Y016797D02*
X008480Y016797D01*
X008480Y016880D02*
X008480Y016397D01*
X008555Y016409D01*
X008635Y016435D01*
X008710Y016473D01*
X008778Y016523D01*
X008837Y016582D01*
X008887Y016650D01*
X008925Y016725D01*
X008951Y016805D01*
X008963Y016880D01*
X008480Y016880D01*
X008480Y016895D02*
X010820Y016895D01*
X010820Y016880D02*
X010337Y016880D01*
X010349Y016805D01*
X010375Y016725D01*
X010413Y016650D01*
X010463Y016582D01*
X010522Y016523D01*
X010590Y016473D01*
X010665Y016435D01*
X010745Y016409D01*
X010820Y016397D01*
X010820Y016880D01*
X010920Y016880D01*
X010920Y016980D01*
X011403Y016980D01*
X011391Y017055D01*
X011365Y017135D01*
X011327Y017210D01*
X011277Y017278D01*
X011218Y017337D01*
X011150Y017387D01*
X011075Y017425D01*
X010995Y017451D01*
X010920Y017463D01*
X010920Y016980D01*
X010820Y016980D01*
X010820Y017463D01*
X010745Y017451D01*
X010665Y017425D01*
X010590Y017387D01*
X010522Y017337D01*
X010463Y017278D01*
X010413Y017210D01*
X010375Y017135D01*
X010349Y017055D01*
X010337Y016980D01*
X010820Y016980D01*
X010820Y016880D01*
X010820Y016797D02*
X010920Y016797D01*
X010920Y016880D02*
X010920Y016397D01*
X010995Y016409D01*
X011075Y016435D01*
X011150Y016473D01*
X011218Y016523D01*
X011277Y016582D01*
X011327Y016650D01*
X011365Y016725D01*
X011391Y016805D01*
X011403Y016880D01*
X010920Y016880D01*
X010920Y016895D02*
X011900Y016895D01*
X011900Y016797D02*
X011388Y016797D01*
X011351Y016698D02*
X011900Y016698D01*
X011900Y016600D02*
X011290Y016600D01*
X011188Y016501D02*
X011900Y016501D01*
X011900Y016403D02*
X010952Y016403D01*
X010920Y016403D02*
X010820Y016403D01*
X010788Y016403D02*
X008512Y016403D01*
X008480Y016403D02*
X008380Y016403D01*
X008348Y016403D02*
X003952Y016403D01*
X003920Y016403D02*
X003820Y016403D01*
X003788Y016403D02*
X001512Y016403D01*
X001480Y016403D02*
X001380Y016403D01*
X001348Y016403D02*
X000400Y016403D01*
X000400Y016501D02*
X001112Y016501D01*
X001010Y016600D02*
X000400Y016600D01*
X000400Y016698D02*
X000949Y016698D01*
X001380Y016698D02*
X001480Y016698D01*
X001480Y016600D02*
X001380Y016600D01*
X001380Y016501D02*
X001480Y016501D01*
X001480Y016994D02*
X001380Y016994D01*
X001380Y017092D02*
X001480Y017092D01*
X001480Y017191D02*
X001380Y017191D01*
X001380Y017289D02*
X001480Y017289D01*
X001480Y017388D02*
X001380Y017388D01*
X001708Y017388D02*
X003592Y017388D01*
X003474Y017289D02*
X001826Y017289D01*
X001896Y017191D02*
X003404Y017191D01*
X003361Y017092D02*
X001939Y017092D01*
X001960Y016994D02*
X003340Y016994D01*
X003352Y016797D02*
X001948Y016797D01*
X001911Y016698D02*
X003389Y016698D01*
X003450Y016600D02*
X001850Y016600D01*
X001748Y016501D02*
X003552Y016501D01*
X003820Y016501D02*
X003920Y016501D01*
X003920Y016600D02*
X003820Y016600D01*
X003820Y016698D02*
X003920Y016698D01*
X003920Y016994D02*
X003820Y016994D01*
X003820Y017092D02*
X003920Y017092D01*
X003920Y017191D02*
X003820Y017191D01*
X003820Y017289D02*
X003920Y017289D01*
X003920Y017388D02*
X003820Y017388D01*
X004148Y017388D02*
X008152Y017388D01*
X008034Y017289D02*
X004266Y017289D01*
X004336Y017191D02*
X007964Y017191D01*
X007921Y017092D02*
X004379Y017092D01*
X004400Y016994D02*
X007900Y016994D01*
X007912Y016797D02*
X004388Y016797D01*
X004351Y016698D02*
X007949Y016698D01*
X008010Y016600D02*
X004290Y016600D01*
X004188Y016501D02*
X008112Y016501D01*
X008380Y016501D02*
X008480Y016501D01*
X008480Y016600D02*
X008380Y016600D01*
X008380Y016698D02*
X008480Y016698D01*
X008480Y016994D02*
X008380Y016994D01*
X008380Y017092D02*
X008480Y017092D01*
X008480Y017191D02*
X008380Y017191D01*
X008380Y017289D02*
X008480Y017289D01*
X008480Y017388D02*
X008380Y017388D01*
X008708Y017388D02*
X010592Y017388D01*
X010474Y017289D02*
X008826Y017289D01*
X008896Y017191D02*
X010404Y017191D01*
X010361Y017092D02*
X008939Y017092D01*
X008960Y016994D02*
X010340Y016994D01*
X010352Y016797D02*
X008948Y016797D01*
X008911Y016698D02*
X010389Y016698D01*
X010450Y016600D02*
X008850Y016600D01*
X008748Y016501D02*
X010552Y016501D01*
X010820Y016501D02*
X010920Y016501D01*
X010920Y016600D02*
X010820Y016600D01*
X010820Y016698D02*
X010920Y016698D01*
X010920Y016994D02*
X010820Y016994D01*
X010820Y017092D02*
X010920Y017092D01*
X010920Y017191D02*
X010820Y017191D01*
X010820Y017289D02*
X010920Y017289D01*
X010920Y017388D02*
X010820Y017388D01*
X011148Y017388D02*
X011900Y017388D01*
X011900Y017289D02*
X011266Y017289D01*
X011336Y017191D02*
X011900Y017191D01*
X011900Y017092D02*
X011379Y017092D01*
X011400Y016994D02*
X011900Y016994D01*
X011900Y016304D02*
X000400Y016304D01*
X000400Y016206D02*
X011900Y016206D01*
X011900Y016107D02*
X000400Y016107D01*
X000400Y016009D02*
X011900Y016009D01*
X011900Y015910D02*
X000400Y015910D01*
X000400Y015812D02*
X011900Y015812D01*
X011900Y015713D02*
X000400Y015713D01*
X000400Y015615D02*
X011900Y015615D01*
X011900Y015516D02*
X000400Y015516D01*
X000400Y015418D02*
X011900Y015418D01*
X011900Y015319D02*
X000400Y015319D01*
X000400Y015221D02*
X011900Y015221D01*
X011900Y015122D02*
X000400Y015122D01*
X000400Y015024D02*
X011900Y015024D01*
X011900Y014925D02*
X000400Y014925D01*
X000400Y014827D02*
X011900Y014827D01*
X011900Y014728D02*
X000400Y014728D01*
X000400Y014630D02*
X011900Y014630D01*
X011900Y014531D02*
X000400Y014531D01*
X000400Y014433D02*
X011900Y014433D01*
X011900Y014334D02*
X000400Y014334D01*
X000400Y014236D02*
X011900Y014236D01*
X011900Y014137D02*
X000400Y014137D01*
X000400Y014039D02*
X011900Y014039D01*
X011900Y013940D02*
X000400Y013940D01*
X000400Y013842D02*
X011900Y013842D01*
X011900Y013743D02*
X000400Y013743D01*
X000400Y013645D02*
X011900Y013645D01*
X011900Y013546D02*
X000400Y013546D01*
X000400Y013448D02*
X011900Y013448D01*
X011900Y013349D02*
X000400Y013349D01*
X000400Y013251D02*
X011900Y013251D01*
X011900Y013152D02*
X000400Y013152D01*
X000400Y013054D02*
X011900Y013054D01*
X011900Y012955D02*
X000400Y012955D01*
X000400Y012857D02*
X001209Y012857D01*
X001225Y012865D02*
X001150Y012827D01*
X001082Y012777D01*
X001023Y012718D01*
X000973Y012650D01*
X000935Y012575D01*
X000909Y012495D01*
X000897Y012420D01*
X001380Y012420D01*
X001380Y012903D01*
X001305Y012891D01*
X001225Y012865D01*
X001063Y012758D02*
X000400Y012758D01*
X000400Y012660D02*
X000980Y012660D01*
X000931Y012561D02*
X000400Y012561D01*
X000400Y012463D02*
X000904Y012463D01*
X000897Y012320D02*
X000909Y012245D01*
X000935Y012165D01*
X000973Y012090D01*
X001023Y012022D01*
X001082Y011963D01*
X001150Y011913D01*
X001225Y011875D01*
X001305Y011849D01*
X001380Y011837D01*
X001380Y012320D01*
X001480Y012320D01*
X001480Y012420D01*
X001963Y012420D01*
X001951Y012495D01*
X001925Y012575D01*
X001887Y012650D01*
X001837Y012718D01*
X001778Y012777D01*
X001710Y012827D01*
X001635Y012865D01*
X001555Y012891D01*
X001480Y012903D01*
X001480Y012420D01*
X001380Y012420D01*
X001380Y012320D01*
X000897Y012320D01*
X000906Y012266D02*
X000400Y012266D01*
X000400Y012364D02*
X001380Y012364D01*
X001380Y012266D02*
X001480Y012266D01*
X001480Y012320D02*
X001480Y011837D01*
X001555Y011849D01*
X001635Y011875D01*
X001710Y011913D01*
X001778Y011963D01*
X001837Y012022D01*
X001887Y012090D01*
X001925Y012165D01*
X001951Y012245D01*
X001963Y012320D01*
X001480Y012320D01*
X001480Y012364D02*
X003820Y012364D01*
X003820Y012320D02*
X003337Y012320D01*
X003349Y012245D01*
X003375Y012165D01*
X003413Y012090D01*
X003463Y012022D01*
X003522Y011963D01*
X003590Y011913D01*
X003665Y011875D01*
X003745Y011849D01*
X003820Y011837D01*
X003820Y012320D01*
X003920Y012320D01*
X003920Y012420D01*
X004403Y012420D01*
X004391Y012495D01*
X004365Y012575D01*
X004327Y012650D01*
X004277Y012718D01*
X004218Y012777D01*
X004150Y012827D01*
X004075Y012865D01*
X003995Y012891D01*
X003920Y012903D01*
X003920Y012420D01*
X003820Y012420D01*
X003820Y012903D01*
X003745Y012891D01*
X003665Y012865D01*
X003590Y012827D01*
X003522Y012777D01*
X003463Y012718D01*
X003413Y012650D01*
X003375Y012575D01*
X003349Y012495D01*
X003337Y012420D01*
X003820Y012420D01*
X003820Y012320D01*
X003820Y012266D02*
X003920Y012266D01*
X003920Y012320D02*
X003920Y011837D01*
X003995Y011849D01*
X004075Y011875D01*
X004150Y011913D01*
X004218Y011963D01*
X004277Y012022D01*
X004327Y012090D01*
X004365Y012165D01*
X004391Y012245D01*
X004403Y012320D01*
X003920Y012320D01*
X003920Y012364D02*
X008380Y012364D01*
X008380Y012320D02*
X007897Y012320D01*
X007909Y012245D01*
X007935Y012165D01*
X007973Y012090D01*
X008023Y012022D01*
X008082Y011963D01*
X008150Y011913D01*
X008225Y011875D01*
X008305Y011849D01*
X008380Y011837D01*
X008380Y012320D01*
X008480Y012320D01*
X008480Y012420D01*
X008963Y012420D01*
X008951Y012495D01*
X008925Y012575D01*
X008887Y012650D01*
X008837Y012718D01*
X008778Y012777D01*
X008710Y012827D01*
X008635Y012865D01*
X008555Y012891D01*
X008480Y012903D01*
X008480Y012420D01*
X008380Y012420D01*
X008380Y012903D01*
X008305Y012891D01*
X008225Y012865D01*
X008150Y012827D01*
X008082Y012777D01*
X008023Y012718D01*
X007973Y012650D01*
X007935Y012575D01*
X007909Y012495D01*
X007897Y012420D01*
X008380Y012420D01*
X008380Y012320D01*
X008380Y012266D02*
X008480Y012266D01*
X008480Y012320D02*
X008480Y011837D01*
X008555Y011849D01*
X008635Y011875D01*
X008710Y011913D01*
X008778Y011963D01*
X008837Y012022D01*
X008887Y012090D01*
X008925Y012165D01*
X008951Y012245D01*
X008963Y012320D01*
X008480Y012320D01*
X008480Y012364D02*
X010820Y012364D01*
X010820Y012320D02*
X010337Y012320D01*
X010349Y012245D01*
X010375Y012165D01*
X010413Y012090D01*
X010463Y012022D01*
X010522Y011963D01*
X010590Y011913D01*
X010665Y011875D01*
X010745Y011849D01*
X010820Y011837D01*
X010820Y012320D01*
X010920Y012320D01*
X010920Y012420D01*
X011403Y012420D01*
X011391Y012495D01*
X011365Y012575D01*
X011327Y012650D01*
X011277Y012718D01*
X011218Y012777D01*
X011150Y012827D01*
X011075Y012865D01*
X010995Y012891D01*
X010920Y012903D01*
X010920Y012420D01*
X010820Y012420D01*
X010820Y012903D01*
X010745Y012891D01*
X010665Y012865D01*
X010590Y012827D01*
X010522Y012777D01*
X010463Y012718D01*
X010413Y012650D01*
X010375Y012575D01*
X010349Y012495D01*
X010337Y012420D01*
X010820Y012420D01*
X010820Y012320D01*
X010820Y012266D02*
X010920Y012266D01*
X010920Y012320D02*
X010920Y011837D01*
X010995Y011849D01*
X011075Y011875D01*
X011150Y011913D01*
X011218Y011963D01*
X011277Y012022D01*
X011327Y012090D01*
X011365Y012165D01*
X011391Y012245D01*
X011403Y012320D01*
X010920Y012320D01*
X010920Y012364D02*
X011900Y012364D01*
X011900Y012266D02*
X011394Y012266D01*
X011365Y012167D02*
X011900Y012167D01*
X011900Y012069D02*
X011311Y012069D01*
X011225Y011970D02*
X011900Y011970D01*
X011900Y011872D02*
X011063Y011872D01*
X010920Y011872D02*
X010820Y011872D01*
X010820Y011970D02*
X010920Y011970D01*
X010920Y012069D02*
X010820Y012069D01*
X010820Y012167D02*
X010920Y012167D01*
X010920Y012463D02*
X010820Y012463D01*
X010820Y012561D02*
X010920Y012561D01*
X010920Y012660D02*
X010820Y012660D01*
X010820Y012758D02*
X010920Y012758D01*
X010920Y012857D02*
X010820Y012857D01*
X010649Y012857D02*
X008651Y012857D01*
X008797Y012758D02*
X010503Y012758D01*
X010420Y012660D02*
X008880Y012660D01*
X008929Y012561D02*
X010371Y012561D01*
X010344Y012463D02*
X008956Y012463D01*
X008954Y012266D02*
X010346Y012266D01*
X010375Y012167D02*
X008925Y012167D01*
X008871Y012069D02*
X010429Y012069D01*
X010515Y011970D02*
X008785Y011970D01*
X008623Y011872D02*
X010677Y011872D01*
X010044Y011413D02*
X010114Y011242D01*
X010114Y011058D01*
X010044Y010887D01*
X009913Y010756D01*
X009742Y010686D01*
X009558Y010686D01*
X009387Y010756D01*
X009256Y010887D01*
X009186Y011058D01*
X009186Y011242D01*
X009256Y011413D01*
X009387Y011544D01*
X009558Y011614D01*
X009742Y011614D01*
X009913Y011544D01*
X010044Y011413D01*
X010058Y011379D02*
X011900Y011379D01*
X011900Y011281D02*
X010099Y011281D01*
X010114Y011182D02*
X011900Y011182D01*
X011900Y011084D02*
X010114Y011084D01*
X010084Y010985D02*
X011900Y010985D01*
X011900Y010887D02*
X010043Y010887D01*
X009945Y010788D02*
X011900Y010788D01*
X011900Y010690D02*
X009752Y010690D01*
X009548Y010690D02*
X002752Y010690D01*
X002742Y010686D02*
X002913Y010756D01*
X003044Y010887D01*
X003114Y011058D01*
X003114Y011242D01*
X003044Y011413D01*
X002913Y011544D01*
X002742Y011614D01*
X002558Y011614D01*
X002387Y011544D01*
X002256Y011413D01*
X002186Y011242D01*
X002186Y011058D01*
X002256Y010887D01*
X002387Y010756D01*
X002558Y010686D01*
X002742Y010686D01*
X002945Y010788D02*
X009355Y010788D01*
X009257Y010887D02*
X003043Y010887D01*
X003084Y010985D02*
X009216Y010985D01*
X009186Y011084D02*
X003114Y011084D01*
X003114Y011182D02*
X009186Y011182D01*
X009201Y011281D02*
X003099Y011281D01*
X003058Y011379D02*
X009242Y011379D01*
X009321Y011478D02*
X002979Y011478D01*
X002835Y011576D02*
X009465Y011576D01*
X009835Y011576D02*
X011900Y011576D01*
X011900Y011478D02*
X009979Y011478D01*
X010463Y010278D02*
X010413Y010210D01*
X010375Y010135D01*
X010349Y010055D01*
X010337Y009980D01*
X010820Y009980D01*
X010820Y010463D01*
X010745Y010451D01*
X010665Y010425D01*
X010590Y010387D01*
X010522Y010337D01*
X010463Y010278D01*
X010481Y010296D02*
X008819Y010296D01*
X008837Y010278D02*
X008778Y010337D01*
X008710Y010387D01*
X008635Y010425D01*
X008555Y010451D01*
X008480Y010463D01*
X008480Y009980D01*
X008963Y009980D01*
X008951Y010055D01*
X008925Y010135D01*
X008887Y010210D01*
X008837Y010278D01*
X008893Y010197D02*
X010407Y010197D01*
X010363Y010099D02*
X008937Y010099D01*
X008959Y010000D02*
X010341Y010000D01*
X010337Y009880D02*
X010349Y009805D01*
X010375Y009725D01*
X010413Y009650D01*
X010463Y009582D01*
X010522Y009523D01*
X010590Y009473D01*
X010665Y009435D01*
X010745Y009409D01*
X010820Y009397D01*
X010820Y009880D01*
X010920Y009880D01*
X010920Y009980D01*
X011403Y009980D01*
X011391Y010055D01*
X011365Y010135D01*
X011327Y010210D01*
X011277Y010278D01*
X011218Y010337D01*
X011150Y010387D01*
X011075Y010425D01*
X010995Y010451D01*
X010920Y010463D01*
X010920Y009980D01*
X010820Y009980D01*
X010820Y009880D01*
X010337Y009880D01*
X010350Y009803D02*
X008950Y009803D01*
X008951Y009805D02*
X008963Y009880D01*
X008480Y009880D01*
X008480Y009980D01*
X008380Y009980D01*
X008380Y010463D01*
X008305Y010451D01*
X008225Y010425D01*
X008150Y010387D01*
X008082Y010337D01*
X008023Y010278D01*
X007973Y010210D01*
X007935Y010135D01*
X007909Y010055D01*
X007897Y009980D01*
X008380Y009980D01*
X008380Y009880D01*
X008480Y009880D01*
X008480Y009397D01*
X008555Y009409D01*
X008635Y009435D01*
X008710Y009473D01*
X008778Y009523D01*
X008837Y009582D01*
X008887Y009650D01*
X008925Y009725D01*
X008951Y009805D01*
X008914Y009705D02*
X010386Y009705D01*
X010445Y009606D02*
X008855Y009606D01*
X008757Y009508D02*
X010543Y009508D01*
X010747Y009409D02*
X008553Y009409D01*
X008480Y009409D02*
X008380Y009409D01*
X008380Y009397D02*
X008380Y009880D01*
X007897Y009880D01*
X007909Y009805D01*
X007935Y009725D01*
X007973Y009650D01*
X008023Y009582D01*
X008082Y009523D01*
X008150Y009473D01*
X008225Y009435D01*
X008305Y009409D01*
X008380Y009397D01*
X008307Y009409D02*
X003993Y009409D01*
X003995Y009409D02*
X004075Y009435D01*
X004150Y009473D01*
X004218Y009523D01*
X004277Y009582D01*
X004327Y009650D01*
X004365Y009725D01*
X004391Y009805D01*
X004403Y009880D01*
X003920Y009880D01*
X003920Y009980D01*
X004403Y009980D01*
X004391Y010055D01*
X004365Y010135D01*
X004327Y010210D01*
X004277Y010278D01*
X004218Y010337D01*
X004150Y010387D01*
X004075Y010425D01*
X003995Y010451D01*
X003920Y010463D01*
X003920Y009980D01*
X003820Y009980D01*
X003820Y010463D01*
X003745Y010451D01*
X003665Y010425D01*
X003590Y010387D01*
X003522Y010337D01*
X003463Y010278D01*
X003413Y010210D01*
X003375Y010135D01*
X003349Y010055D01*
X003337Y009980D01*
X003820Y009980D01*
X003820Y009880D01*
X003920Y009880D01*
X003920Y009397D01*
X003995Y009409D01*
X003920Y009409D02*
X003820Y009409D01*
X003820Y009397D02*
X003820Y009880D01*
X003337Y009880D01*
X003349Y009805D01*
X003375Y009725D01*
X003413Y009650D01*
X003463Y009582D01*
X003522Y009523D01*
X003590Y009473D01*
X003665Y009435D01*
X003745Y009409D01*
X003820Y009397D01*
X003747Y009409D02*
X001553Y009409D01*
X001555Y009409D02*
X001635Y009435D01*
X001710Y009473D01*
X001778Y009523D01*
X001837Y009582D01*
X001887Y009650D01*
X001925Y009725D01*
X001951Y009805D01*
X001963Y009880D01*
X001480Y009880D01*
X001480Y009980D01*
X001963Y009980D01*
X001951Y010055D01*
X001925Y010135D01*
X001887Y010210D01*
X001837Y010278D01*
X001778Y010337D01*
X001710Y010387D01*
X001635Y010425D01*
X001555Y010451D01*
X001480Y010463D01*
X001480Y009980D01*
X001380Y009980D01*
X001380Y010463D01*
X001305Y010451D01*
X001225Y010425D01*
X001150Y010387D01*
X001082Y010337D01*
X001023Y010278D01*
X000973Y010210D01*
X000935Y010135D01*
X000909Y010055D01*
X000897Y009980D01*
X001380Y009980D01*
X001380Y009880D01*
X001480Y009880D01*
X001480Y009397D01*
X001555Y009409D01*
X001480Y009409D02*
X001380Y009409D01*
X001380Y009397D02*
X001380Y009880D01*
X000897Y009880D01*
X000909Y009805D01*
X000935Y009725D01*
X000973Y009650D01*
X001023Y009582D01*
X001082Y009523D01*
X001150Y009473D01*
X001225Y009435D01*
X001305Y009409D01*
X001380Y009397D01*
X001307Y009409D02*
X000400Y009409D01*
X000400Y009311D02*
X011900Y009311D01*
X011900Y009409D02*
X010993Y009409D01*
X010995Y009409D02*
X011075Y009435D01*
X011150Y009473D01*
X011218Y009523D01*
X011277Y009582D01*
X011327Y009650D01*
X011365Y009725D01*
X011391Y009805D01*
X011403Y009880D01*
X010920Y009880D01*
X010920Y009397D01*
X010995Y009409D01*
X010920Y009409D02*
X010820Y009409D01*
X010820Y009508D02*
X010920Y009508D01*
X010920Y009606D02*
X010820Y009606D01*
X010820Y009705D02*
X010920Y009705D01*
X010920Y009803D02*
X010820Y009803D01*
X010820Y009902D02*
X008480Y009902D01*
X008480Y010000D02*
X008380Y010000D01*
X008380Y009902D02*
X003920Y009902D01*
X003920Y010000D02*
X003820Y010000D01*
X003820Y009902D02*
X001480Y009902D01*
X001480Y010000D02*
X001380Y010000D01*
X001380Y009902D02*
X000400Y009902D01*
X000400Y010000D02*
X000901Y010000D01*
X000923Y010099D02*
X000400Y010099D01*
X000400Y010197D02*
X000967Y010197D01*
X001041Y010296D02*
X000400Y010296D01*
X000400Y010394D02*
X001165Y010394D01*
X001380Y010394D02*
X001480Y010394D01*
X001480Y010296D02*
X001380Y010296D01*
X001380Y010197D02*
X001480Y010197D01*
X001480Y010099D02*
X001380Y010099D01*
X001380Y009803D02*
X001480Y009803D01*
X001480Y009705D02*
X001380Y009705D01*
X001380Y009606D02*
X001480Y009606D01*
X001480Y009508D02*
X001380Y009508D01*
X001103Y009508D02*
X000400Y009508D01*
X000400Y009606D02*
X001005Y009606D01*
X000946Y009705D02*
X000400Y009705D01*
X000400Y009803D02*
X000910Y009803D01*
X000400Y009212D02*
X011900Y009212D01*
X011900Y009114D02*
X000400Y009114D01*
X000400Y009015D02*
X011900Y009015D01*
X011900Y008917D02*
X000400Y008917D01*
X000400Y008818D02*
X011900Y008818D01*
X011900Y008720D02*
X000400Y008720D01*
X000400Y008621D02*
X011900Y008621D01*
X011900Y008523D02*
X000400Y008523D01*
X000400Y008424D02*
X011900Y008424D01*
X011900Y008326D02*
X000400Y008326D01*
X000400Y008227D02*
X011900Y008227D01*
X011900Y008129D02*
X000400Y008129D01*
X000400Y008030D02*
X011900Y008030D01*
X011900Y007932D02*
X000400Y007932D01*
X000400Y007833D02*
X011900Y007833D01*
X011900Y007735D02*
X000400Y007735D01*
X000400Y007636D02*
X011900Y007636D01*
X011900Y007538D02*
X000400Y007538D01*
X000400Y007439D02*
X011900Y007439D01*
X011900Y007341D02*
X000400Y007341D01*
X000400Y007242D02*
X011900Y007242D01*
X011900Y007144D02*
X000400Y007144D01*
X000400Y007045D02*
X011900Y007045D01*
X011900Y006947D02*
X000400Y006947D01*
X000400Y006848D02*
X011900Y006848D01*
X011900Y006750D02*
X000400Y006750D01*
X000400Y006651D02*
X011900Y006651D01*
X011900Y006553D02*
X000400Y006553D01*
X000400Y006454D02*
X011900Y006454D01*
X011900Y006356D02*
X000400Y006356D01*
X000400Y006257D02*
X011900Y006257D01*
X011900Y006159D02*
X000400Y006159D01*
X000400Y006060D02*
X011900Y006060D01*
X011900Y005962D02*
X000400Y005962D01*
X000400Y005863D02*
X001222Y005863D01*
X001225Y005865D02*
X001150Y005827D01*
X001082Y005777D01*
X001023Y005718D01*
X000973Y005650D01*
X000935Y005575D01*
X000909Y005495D01*
X000897Y005420D01*
X001380Y005420D01*
X001380Y005903D01*
X001305Y005891D01*
X001225Y005865D01*
X001070Y005765D02*
X000400Y005765D01*
X000400Y005666D02*
X000985Y005666D01*
X000933Y005568D02*
X000400Y005568D01*
X000400Y005469D02*
X000905Y005469D01*
X000897Y005320D02*
X000909Y005245D01*
X000935Y005165D01*
X000973Y005090D01*
X001023Y005022D01*
X001082Y004963D01*
X001150Y004913D01*
X001225Y004875D01*
X001305Y004849D01*
X001380Y004837D01*
X001380Y005320D01*
X001480Y005320D01*
X001480Y005420D01*
X001963Y005420D01*
X001951Y005495D01*
X001925Y005575D01*
X001887Y005650D01*
X001837Y005718D01*
X001778Y005777D01*
X001710Y005827D01*
X001635Y005865D01*
X001555Y005891D01*
X001480Y005903D01*
X001480Y005420D01*
X001380Y005420D01*
X001380Y005320D01*
X000897Y005320D01*
X000905Y005272D02*
X000400Y005272D01*
X000400Y005174D02*
X000933Y005174D01*
X000984Y005075D02*
X000400Y005075D01*
X000400Y004977D02*
X001068Y004977D01*
X001220Y004878D02*
X000400Y004878D01*
X000400Y004780D02*
X011900Y004780D01*
X011900Y004878D02*
X011080Y004878D01*
X011075Y004875D02*
X011150Y004913D01*
X011218Y004963D01*
X011277Y005022D01*
X011327Y005090D01*
X011365Y005165D01*
X011391Y005245D01*
X011403Y005320D01*
X010920Y005320D01*
X010920Y005420D01*
X011403Y005420D01*
X011391Y005495D01*
X011365Y005575D01*
X011327Y005650D01*
X011277Y005718D01*
X011218Y005777D01*
X011150Y005827D01*
X011075Y005865D01*
X010995Y005891D01*
X010920Y005903D01*
X010920Y005420D01*
X010820Y005420D01*
X010820Y005903D01*
X010745Y005891D01*
X010665Y005865D01*
X010590Y005827D01*
X010522Y005777D01*
X010463Y005718D01*
X010413Y005650D01*
X010375Y005575D01*
X010349Y005495D01*
X010337Y005420D01*
X010820Y005420D01*
X010820Y005320D01*
X010920Y005320D01*
X010920Y004837D01*
X010995Y004849D01*
X011075Y004875D01*
X011232Y004977D02*
X011900Y004977D01*
X011900Y005075D02*
X011316Y005075D01*
X011367Y005174D02*
X011900Y005174D01*
X011900Y005272D02*
X011395Y005272D01*
X011395Y005469D02*
X011900Y005469D01*
X011900Y005371D02*
X010920Y005371D01*
X010920Y005469D02*
X010820Y005469D01*
X010820Y005371D02*
X008480Y005371D01*
X008480Y005420D02*
X008963Y005420D01*
X008951Y005495D01*
X008925Y005575D01*
X008887Y005650D01*
X008837Y005718D01*
X008778Y005777D01*
X008710Y005827D01*
X008635Y005865D01*
X008555Y005891D01*
X008480Y005903D01*
X008480Y005420D01*
X008480Y005320D01*
X008963Y005320D01*
X008951Y005245D01*
X008925Y005165D01*
X008887Y005090D01*
X008837Y005022D01*
X008778Y004963D01*
X008710Y004913D01*
X008635Y004875D01*
X008555Y004849D01*
X008480Y004837D01*
X008480Y005320D01*
X008380Y005320D01*
X008380Y004837D01*
X008305Y004849D01*
X008225Y004875D01*
X008150Y004913D01*
X008082Y004963D01*
X008023Y005022D01*
X007973Y005090D01*
X007935Y005165D01*
X007909Y005245D01*
X007897Y005320D01*
X008380Y005320D01*
X008380Y005420D01*
X008380Y005903D01*
X008305Y005891D01*
X008225Y005865D01*
X008150Y005827D01*
X008082Y005777D01*
X008023Y005718D01*
X007973Y005650D01*
X007935Y005575D01*
X007909Y005495D01*
X007897Y005420D01*
X008380Y005420D01*
X008480Y005420D01*
X008480Y005469D02*
X008380Y005469D01*
X008380Y005371D02*
X003920Y005371D01*
X003920Y005420D02*
X004403Y005420D01*
X004391Y005495D01*
X004365Y005575D01*
X004327Y005650D01*
X004277Y005718D01*
X004218Y005777D01*
X004150Y005827D01*
X004075Y005865D01*
X003995Y005891D01*
X003920Y005903D01*
X003920Y005420D01*
X003920Y005320D01*
X004403Y005320D01*
X004391Y005245D01*
X004365Y005165D01*
X004327Y005090D01*
X004277Y005022D01*
X004218Y004963D01*
X004150Y004913D01*
X004075Y004875D01*
X003995Y004849D01*
X003920Y004837D01*
X003920Y005320D01*
X003820Y005320D01*
X003820Y004837D01*
X003745Y004849D01*
X003665Y004875D01*
X003590Y004913D01*
X003522Y004963D01*
X003463Y005022D01*
X003413Y005090D01*
X003375Y005165D01*
X003349Y005245D01*
X003337Y005320D01*
X003820Y005320D01*
X003820Y005420D01*
X003820Y005903D01*
X003745Y005891D01*
X003665Y005865D01*
X003590Y005827D01*
X003522Y005777D01*
X003463Y005718D01*
X003413Y005650D01*
X003375Y005575D01*
X003349Y005495D01*
X003337Y005420D01*
X003820Y005420D01*
X003920Y005420D01*
X003920Y005469D02*
X003820Y005469D01*
X003820Y005371D02*
X001480Y005371D01*
X001480Y005320D02*
X001963Y005320D01*
X001951Y005245D01*
X001925Y005165D01*
X001887Y005090D01*
X001837Y005022D01*
X001778Y004963D01*
X001710Y004913D01*
X001635Y004875D01*
X001555Y004849D01*
X001480Y004837D01*
X001480Y005320D01*
X001480Y005272D02*
X001380Y005272D01*
X001380Y005174D02*
X001480Y005174D01*
X001480Y005075D02*
X001380Y005075D01*
X001380Y004977D02*
X001480Y004977D01*
X001480Y004878D02*
X001380Y004878D01*
X001640Y004878D02*
X003660Y004878D01*
X003508Y004977D02*
X001792Y004977D01*
X001876Y005075D02*
X003424Y005075D01*
X003373Y005174D02*
X001927Y005174D01*
X001955Y005272D02*
X003345Y005272D01*
X003345Y005469D02*
X001955Y005469D01*
X001927Y005568D02*
X003373Y005568D01*
X003425Y005666D02*
X001875Y005666D01*
X001790Y005765D02*
X003510Y005765D01*
X003662Y005863D02*
X001638Y005863D01*
X001480Y005863D02*
X001380Y005863D01*
X001380Y005765D02*
X001480Y005765D01*
X001480Y005666D02*
X001380Y005666D01*
X001380Y005568D02*
X001480Y005568D01*
X001480Y005469D02*
X001380Y005469D01*
X001380Y005371D02*
X000400Y005371D01*
X000400Y004681D02*
X011900Y004681D01*
X011900Y004583D02*
X009819Y004583D01*
X009742Y004614D02*
X009558Y004614D01*
X009387Y004544D01*
X009256Y004413D01*
X009186Y004242D01*
X009186Y004058D01*
X009256Y003887D01*
X009387Y003756D01*
X009558Y003686D01*
X009742Y003686D01*
X009913Y003756D01*
X010044Y003887D01*
X010114Y004058D01*
X010114Y004242D01*
X010044Y004413D01*
X009913Y004544D01*
X009742Y004614D01*
X009481Y004583D02*
X002819Y004583D01*
X002742Y004614D02*
X002558Y004614D01*
X002387Y004544D01*
X002256Y004413D01*
X002186Y004242D01*
X002186Y004058D01*
X002256Y003887D01*
X002387Y003756D01*
X002558Y003686D01*
X002742Y003686D01*
X002913Y003756D01*
X003044Y003887D01*
X003114Y004058D01*
X003114Y004242D01*
X003044Y004413D01*
X002913Y004544D01*
X002742Y004614D01*
X002481Y004583D02*
X000400Y004583D01*
X000400Y004484D02*
X002327Y004484D01*
X002245Y004386D02*
X000400Y004386D01*
X000400Y004287D02*
X002204Y004287D01*
X002186Y004189D02*
X000400Y004189D01*
X000400Y004090D02*
X002186Y004090D01*
X002213Y003992D02*
X000400Y003992D01*
X000400Y003893D02*
X002254Y003893D01*
X002349Y003795D02*
X000400Y003795D01*
X000400Y003696D02*
X002533Y003696D01*
X002767Y003696D02*
X009533Y003696D01*
X009349Y003795D02*
X002951Y003795D01*
X003046Y003893D02*
X009254Y003893D01*
X009213Y003992D02*
X003087Y003992D01*
X003114Y004090D02*
X009186Y004090D01*
X009186Y004189D02*
X003114Y004189D01*
X003096Y004287D02*
X009204Y004287D01*
X009245Y004386D02*
X003055Y004386D01*
X002973Y004484D02*
X009327Y004484D01*
X008876Y005075D02*
X010424Y005075D01*
X010413Y005090D02*
X010463Y005022D01*
X010522Y004963D01*
X010590Y004913D01*
X010665Y004875D01*
X010745Y004849D01*
X010820Y004837D01*
X010820Y005320D01*
X010337Y005320D01*
X010349Y005245D01*
X010375Y005165D01*
X010413Y005090D01*
X010373Y005174D02*
X008927Y005174D01*
X008955Y005272D02*
X010345Y005272D01*
X010345Y005469D02*
X008955Y005469D01*
X008927Y005568D02*
X010373Y005568D01*
X010425Y005666D02*
X008875Y005666D01*
X008790Y005765D02*
X010510Y005765D01*
X010662Y005863D02*
X008638Y005863D01*
X008480Y005863D02*
X008380Y005863D01*
X008380Y005765D02*
X008480Y005765D01*
X008480Y005666D02*
X008380Y005666D01*
X008380Y005568D02*
X008480Y005568D01*
X008480Y005272D02*
X008380Y005272D01*
X008380Y005174D02*
X008480Y005174D01*
X008480Y005075D02*
X008380Y005075D01*
X008380Y004977D02*
X008480Y004977D01*
X008480Y004878D02*
X008380Y004878D01*
X008220Y004878D02*
X004080Y004878D01*
X004232Y004977D02*
X008068Y004977D01*
X007984Y005075D02*
X004316Y005075D01*
X004367Y005174D02*
X007933Y005174D01*
X007905Y005272D02*
X004395Y005272D01*
X004395Y005469D02*
X007905Y005469D01*
X007933Y005568D02*
X004367Y005568D01*
X004315Y005666D02*
X007985Y005666D01*
X008070Y005765D02*
X004230Y005765D01*
X004078Y005863D02*
X008222Y005863D01*
X008640Y004878D02*
X010660Y004878D01*
X010820Y004878D02*
X010920Y004878D01*
X010920Y004977D02*
X010820Y004977D01*
X010820Y005075D02*
X010920Y005075D01*
X010920Y005174D02*
X010820Y005174D01*
X010820Y005272D02*
X010920Y005272D01*
X010920Y005568D02*
X010820Y005568D01*
X010820Y005666D02*
X010920Y005666D01*
X010920Y005765D02*
X010820Y005765D01*
X010820Y005863D02*
X010920Y005863D01*
X011078Y005863D02*
X011900Y005863D01*
X011900Y005765D02*
X011230Y005765D01*
X011315Y005666D02*
X011900Y005666D01*
X011900Y005568D02*
X011367Y005568D01*
X011900Y004484D02*
X009973Y004484D01*
X010055Y004386D02*
X011900Y004386D01*
X011900Y004287D02*
X010096Y004287D01*
X010114Y004189D02*
X011900Y004189D01*
X011900Y004090D02*
X010114Y004090D01*
X010087Y003992D02*
X011900Y003992D01*
X011900Y003893D02*
X010046Y003893D01*
X009951Y003795D02*
X011900Y003795D01*
X011900Y003696D02*
X009767Y003696D01*
X010413Y003210D02*
X010375Y003135D01*
X010349Y003055D01*
X010337Y002980D01*
X010820Y002980D01*
X010820Y003463D01*
X010745Y003451D01*
X010665Y003425D01*
X010590Y003387D01*
X010522Y003337D01*
X010463Y003278D01*
X010413Y003210D01*
X010410Y003204D02*
X008890Y003204D01*
X008887Y003210D02*
X008837Y003278D01*
X008778Y003337D01*
X008710Y003387D01*
X008635Y003425D01*
X008555Y003451D01*
X008480Y003463D01*
X008480Y002980D01*
X008963Y002980D01*
X008951Y003055D01*
X008925Y003135D01*
X008887Y003210D01*
X008934Y003105D02*
X010366Y003105D01*
X010342Y003007D02*
X008958Y003007D01*
X008963Y002880D02*
X008480Y002880D01*
X008480Y002980D01*
X008380Y002980D01*
X008380Y003463D01*
X008305Y003451D01*
X008225Y003425D01*
X008150Y003387D01*
X008082Y003337D01*
X008023Y003278D01*
X007973Y003210D01*
X007935Y003135D01*
X007909Y003055D01*
X007897Y002980D01*
X008380Y002980D01*
X008380Y002880D01*
X008480Y002880D01*
X008480Y002397D01*
X008555Y002409D01*
X008635Y002435D01*
X008710Y002473D01*
X008778Y002523D01*
X008837Y002582D01*
X008887Y002650D01*
X008925Y002725D01*
X008951Y002805D01*
X008963Y002880D01*
X008951Y002810D02*
X010349Y002810D01*
X010349Y002805D02*
X010375Y002725D01*
X010413Y002650D01*
X010463Y002582D01*
X010522Y002523D01*
X010590Y002473D01*
X010665Y002435D01*
X010745Y002409D01*
X010820Y002397D01*
X010820Y002880D01*
X010920Y002880D01*
X010920Y002980D01*
X011403Y002980D01*
X011391Y003055D01*
X011365Y003135D01*
X011327Y003210D01*
X011277Y003278D01*
X011218Y003337D01*
X011150Y003387D01*
X011075Y003425D01*
X010995Y003451D01*
X010920Y003463D01*
X010920Y002980D01*
X010820Y002980D01*
X010820Y002880D01*
X010337Y002880D01*
X010349Y002805D01*
X010382Y002711D02*
X008918Y002711D01*
X008859Y002613D02*
X010441Y002613D01*
X010534Y002514D02*
X008766Y002514D01*
X008574Y002416D02*
X010726Y002416D01*
X010820Y002416D02*
X010920Y002416D01*
X010920Y002397D02*
X010995Y002409D01*
X011075Y002435D01*
X011150Y002473D01*
X011218Y002523D01*
X011277Y002582D01*
X011327Y002650D01*
X011365Y002725D01*
X011391Y002805D01*
X011403Y002880D01*
X010920Y002880D01*
X010920Y002397D01*
X011014Y002416D02*
X011900Y002416D01*
X011900Y002514D02*
X011206Y002514D01*
X011299Y002613D02*
X011900Y002613D01*
X011900Y002711D02*
X011358Y002711D01*
X011391Y002810D02*
X011900Y002810D01*
X011900Y002908D02*
X010920Y002908D01*
X010920Y002810D02*
X010820Y002810D01*
X010820Y002908D02*
X008480Y002908D01*
X008480Y002810D02*
X008380Y002810D01*
X008380Y002880D02*
X008380Y002397D01*
X008305Y002409D01*
X008225Y002435D01*
X008150Y002473D01*
X008082Y002523D01*
X008023Y002582D01*
X007973Y002650D01*
X007935Y002725D01*
X007909Y002805D01*
X007897Y002880D01*
X008380Y002880D01*
X008380Y002908D02*
X003920Y002908D01*
X003920Y002880D02*
X003920Y002980D01*
X004403Y002980D01*
X004391Y003055D01*
X004365Y003135D01*
X004327Y003210D01*
X004277Y003278D01*
X004218Y003337D01*
X004150Y003387D01*
X004075Y003425D01*
X003995Y003451D01*
X003920Y003463D01*
X003920Y002980D01*
X003820Y002980D01*
X003820Y003463D01*
X003745Y003451D01*
X003665Y003425D01*
X003590Y003387D01*
X003522Y003337D01*
X003463Y003278D01*
X003413Y003210D01*
X003375Y003135D01*
X003349Y003055D01*
X003337Y002980D01*
X003820Y002980D01*
X003820Y002880D01*
X003920Y002880D01*
X004403Y002880D01*
X004391Y002805D01*
X004365Y002725D01*
X004327Y002650D01*
X004277Y002582D01*
X004218Y002523D01*
X004150Y002473D01*
X004075Y002435D01*
X003995Y002409D01*
X003920Y002397D01*
X003920Y002880D01*
X003920Y002810D02*
X003820Y002810D01*
X003820Y002880D02*
X003820Y002397D01*
X003745Y002409D01*
X003665Y002435D01*
X003590Y002473D01*
X003522Y002523D01*
X003463Y002582D01*
X003413Y002650D01*
X003375Y002725D01*
X003349Y002805D01*
X003337Y002880D01*
X003820Y002880D01*
X003820Y002908D02*
X001480Y002908D01*
X001480Y002880D02*
X001480Y002980D01*
X001963Y002980D01*
X001951Y003055D01*
X001925Y003135D01*
X001887Y003210D01*
X001837Y003278D01*
X001778Y003337D01*
X001710Y003387D01*
X001635Y003425D01*
X001555Y003451D01*
X001480Y003463D01*
X001480Y002980D01*
X001380Y002980D01*
X001380Y003463D01*
X001305Y003451D01*
X001225Y003425D01*
X001150Y003387D01*
X001082Y003337D01*
X001023Y003278D01*
X000973Y003210D01*
X000935Y003135D01*
X000909Y003055D01*
X000897Y002980D01*
X001380Y002980D01*
X001380Y002880D01*
X001480Y002880D01*
X001963Y002880D01*
X001951Y002805D01*
X001925Y002725D01*
X001887Y002650D01*
X001837Y002582D01*
X001778Y002523D01*
X001710Y002473D01*
X001635Y002435D01*
X001555Y002409D01*
X001480Y002397D01*
X001480Y002880D01*
X001480Y002810D02*
X001380Y002810D01*
X001380Y002880D02*
X001380Y002397D01*
X001305Y002409D01*
X001225Y002435D01*
X001150Y002473D01*
X001082Y002523D01*
X001023Y002582D01*
X000973Y002650D01*
X000935Y002725D01*
X000909Y002805D01*
X000897Y002880D01*
X001380Y002880D01*
X001380Y002908D02*
X000400Y002908D01*
X000400Y002810D02*
X000909Y002810D01*
X000942Y002711D02*
X000400Y002711D01*
X000400Y002613D02*
X001001Y002613D01*
X001094Y002514D02*
X000400Y002514D01*
X000400Y002416D02*
X001286Y002416D01*
X001380Y002416D02*
X001480Y002416D01*
X001574Y002416D02*
X003726Y002416D01*
X003820Y002416D02*
X003920Y002416D01*
X004014Y002416D02*
X008286Y002416D01*
X008380Y002416D02*
X008480Y002416D01*
X008480Y002514D02*
X008380Y002514D01*
X008380Y002613D02*
X008480Y002613D01*
X008480Y002711D02*
X008380Y002711D01*
X008380Y003007D02*
X008480Y003007D01*
X008480Y003105D02*
X008380Y003105D01*
X008380Y003204D02*
X008480Y003204D01*
X008480Y003302D02*
X008380Y003302D01*
X008380Y003401D02*
X008480Y003401D01*
X008682Y003401D02*
X010618Y003401D01*
X010487Y003302D02*
X008813Y003302D01*
X008178Y003401D02*
X004122Y003401D01*
X004253Y003302D02*
X008047Y003302D01*
X007970Y003204D02*
X004330Y003204D01*
X004374Y003105D02*
X007926Y003105D01*
X007902Y003007D02*
X004398Y003007D01*
X004391Y002810D02*
X007909Y002810D01*
X007942Y002711D02*
X004358Y002711D01*
X004299Y002613D02*
X008001Y002613D01*
X008094Y002514D02*
X004206Y002514D01*
X003920Y002514D02*
X003820Y002514D01*
X003820Y002613D02*
X003920Y002613D01*
X003920Y002711D02*
X003820Y002711D01*
X003820Y003007D02*
X003920Y003007D01*
X003920Y003105D02*
X003820Y003105D01*
X003820Y003204D02*
X003920Y003204D01*
X003920Y003302D02*
X003820Y003302D01*
X003820Y003401D02*
X003920Y003401D01*
X003618Y003401D02*
X001682Y003401D01*
X001813Y003302D02*
X003487Y003302D01*
X003410Y003204D02*
X001890Y003204D01*
X001934Y003105D02*
X003366Y003105D01*
X003342Y003007D02*
X001958Y003007D01*
X001951Y002810D02*
X003349Y002810D01*
X003382Y002711D02*
X001918Y002711D01*
X001859Y002613D02*
X003441Y002613D01*
X003534Y002514D02*
X001766Y002514D01*
X001480Y002514D02*
X001380Y002514D01*
X001380Y002613D02*
X001480Y002613D01*
X001480Y002711D02*
X001380Y002711D01*
X001380Y003007D02*
X001480Y003007D01*
X001480Y003105D02*
X001380Y003105D01*
X001380Y003204D02*
X001480Y003204D01*
X001480Y003302D02*
X001380Y003302D01*
X001380Y003401D02*
X001480Y003401D01*
X001178Y003401D02*
X000400Y003401D01*
X000400Y003499D02*
X011900Y003499D01*
X011900Y003401D02*
X011122Y003401D01*
X011253Y003302D02*
X011900Y003302D01*
X011900Y003204D02*
X011330Y003204D01*
X011374Y003105D02*
X011900Y003105D01*
X011900Y003007D02*
X011398Y003007D01*
X010920Y003007D02*
X010820Y003007D01*
X010820Y003105D02*
X010920Y003105D01*
X010920Y003204D02*
X010820Y003204D01*
X010820Y003302D02*
X010920Y003302D01*
X010920Y003401D02*
X010820Y003401D01*
X010820Y002711D02*
X010920Y002711D01*
X010920Y002613D02*
X010820Y002613D01*
X010820Y002514D02*
X010920Y002514D01*
X010815Y001923D02*
X001485Y001923D01*
X001667Y001825D02*
X010633Y001825D01*
X010535Y001726D02*
X001765Y001726D01*
X001864Y001628D02*
X010436Y001628D01*
X010395Y001529D02*
X001905Y001529D01*
X001946Y001431D02*
X010354Y001431D01*
X010313Y001332D02*
X001987Y001332D01*
X001992Y001234D02*
X010308Y001234D01*
X010308Y001135D02*
X001992Y001135D01*
X001992Y001037D02*
X010308Y001037D01*
X010326Y000938D02*
X001974Y000938D01*
X001933Y000840D02*
X010367Y000840D01*
X010407Y000741D02*
X001893Y000741D01*
X001834Y000643D02*
X010466Y000643D01*
X010565Y000544D02*
X001735Y000544D01*
X001637Y000446D02*
X010663Y000446D01*
X011485Y001923D02*
X011900Y001923D01*
X011900Y001825D02*
X011667Y001825D01*
X011765Y001726D02*
X011900Y001726D01*
X011900Y001628D02*
X011864Y001628D01*
X011900Y002022D02*
X000400Y002022D01*
X000400Y002120D02*
X011900Y002120D01*
X011900Y002219D02*
X000400Y002219D01*
X000400Y002317D02*
X011900Y002317D01*
X011900Y003598D02*
X000400Y003598D01*
X000400Y003302D02*
X001047Y003302D01*
X000970Y003204D02*
X000400Y003204D01*
X000400Y003105D02*
X000926Y003105D01*
X000902Y003007D02*
X000400Y003007D01*
X000400Y001923D02*
X000815Y001923D01*
X000633Y001825D02*
X000400Y001825D01*
X000400Y001726D02*
X000535Y001726D01*
X000436Y001628D02*
X000400Y001628D01*
X001757Y009508D02*
X003543Y009508D01*
X003445Y009606D02*
X001855Y009606D01*
X001914Y009705D02*
X003386Y009705D01*
X003350Y009803D02*
X001950Y009803D01*
X001959Y010000D02*
X003341Y010000D01*
X003363Y010099D02*
X001937Y010099D01*
X001893Y010197D02*
X003407Y010197D01*
X003481Y010296D02*
X001819Y010296D01*
X001695Y010394D02*
X003605Y010394D01*
X003820Y010394D02*
X003920Y010394D01*
X003920Y010296D02*
X003820Y010296D01*
X003820Y010197D02*
X003920Y010197D01*
X003920Y010099D02*
X003820Y010099D01*
X003820Y009803D02*
X003920Y009803D01*
X003920Y009705D02*
X003820Y009705D01*
X003820Y009606D02*
X003920Y009606D01*
X003920Y009508D02*
X003820Y009508D01*
X004197Y009508D02*
X008103Y009508D01*
X008005Y009606D02*
X004295Y009606D01*
X004354Y009705D02*
X007946Y009705D01*
X007910Y009803D02*
X004390Y009803D01*
X004399Y010000D02*
X007901Y010000D01*
X007923Y010099D02*
X004377Y010099D01*
X004333Y010197D02*
X007967Y010197D01*
X008041Y010296D02*
X004259Y010296D01*
X004135Y010394D02*
X008165Y010394D01*
X008380Y010394D02*
X008480Y010394D01*
X008480Y010296D02*
X008380Y010296D01*
X008380Y010197D02*
X008480Y010197D01*
X008480Y010099D02*
X008380Y010099D01*
X008380Y009803D02*
X008480Y009803D01*
X008480Y009705D02*
X008380Y009705D01*
X008380Y009606D02*
X008480Y009606D01*
X008480Y009508D02*
X008380Y009508D01*
X008695Y010394D02*
X010605Y010394D01*
X010820Y010394D02*
X010920Y010394D01*
X010920Y010296D02*
X010820Y010296D01*
X010820Y010197D02*
X010920Y010197D01*
X010920Y010099D02*
X010820Y010099D01*
X010820Y010000D02*
X010920Y010000D01*
X010920Y009902D02*
X011900Y009902D01*
X011900Y010000D02*
X011399Y010000D01*
X011377Y010099D02*
X011900Y010099D01*
X011900Y010197D02*
X011333Y010197D01*
X011259Y010296D02*
X011900Y010296D01*
X011900Y010394D02*
X011135Y010394D01*
X011390Y009803D02*
X011900Y009803D01*
X011900Y009705D02*
X011354Y009705D01*
X011295Y009606D02*
X011900Y009606D01*
X011900Y009508D02*
X011197Y009508D01*
X011900Y010493D02*
X000400Y010493D01*
X000400Y010591D02*
X011900Y010591D01*
X011900Y011675D02*
X000400Y011675D01*
X000400Y011773D02*
X011900Y011773D01*
X011900Y012463D02*
X011396Y012463D01*
X011369Y012561D02*
X011900Y012561D01*
X011900Y012660D02*
X011320Y012660D01*
X011237Y012758D02*
X011900Y012758D01*
X011900Y012857D02*
X011091Y012857D01*
X008480Y012857D02*
X008380Y012857D01*
X008380Y012758D02*
X008480Y012758D01*
X008480Y012660D02*
X008380Y012660D01*
X008380Y012561D02*
X008480Y012561D01*
X008480Y012463D02*
X008380Y012463D01*
X008380Y012167D02*
X008480Y012167D01*
X008480Y012069D02*
X008380Y012069D01*
X008380Y011970D02*
X008480Y011970D01*
X008480Y011872D02*
X008380Y011872D01*
X008237Y011872D02*
X004063Y011872D01*
X004225Y011970D02*
X008075Y011970D01*
X007989Y012069D02*
X004311Y012069D01*
X004365Y012167D02*
X007935Y012167D01*
X007906Y012266D02*
X004394Y012266D01*
X004396Y012463D02*
X007904Y012463D01*
X007931Y012561D02*
X004369Y012561D01*
X004320Y012660D02*
X007980Y012660D01*
X008063Y012758D02*
X004237Y012758D01*
X004091Y012857D02*
X008209Y012857D01*
X008380Y018865D02*
X008480Y018865D01*
X008480Y018964D02*
X008380Y018964D01*
X008380Y019062D02*
X008480Y019062D01*
X008480Y019161D02*
X008380Y019161D01*
X008380Y019259D02*
X008480Y019259D01*
X008480Y019555D02*
X008380Y019555D01*
X008380Y019653D02*
X008480Y019653D01*
X008480Y019752D02*
X008380Y019752D01*
X008380Y019850D02*
X008480Y019850D01*
X008480Y023397D02*
X008555Y023409D01*
X008635Y023435D01*
X008710Y023473D01*
X008778Y023523D01*
X008837Y023582D01*
X008887Y023650D01*
X008925Y023725D01*
X008951Y023805D01*
X008963Y023880D01*
X008480Y023880D01*
X008480Y023980D01*
X008963Y023980D01*
X008951Y024055D01*
X008925Y024135D01*
X008887Y024210D01*
X008837Y024278D01*
X008778Y024337D01*
X008710Y024387D01*
X008635Y024425D01*
X008555Y024451D01*
X008480Y024463D01*
X008480Y023980D01*
X008380Y023980D01*
X008380Y024463D01*
X008305Y024451D01*
X008225Y024425D01*
X008150Y024387D01*
X008082Y024337D01*
X008023Y024278D01*
X007973Y024210D01*
X007935Y024135D01*
X007909Y024055D01*
X007897Y023980D01*
X008380Y023980D01*
X008380Y023880D01*
X008480Y023880D01*
X008480Y023397D01*
X008480Y023495D02*
X008380Y023495D01*
X008380Y023397D02*
X008380Y023880D01*
X007897Y023880D01*
X007909Y023805D01*
X007935Y023725D01*
X007973Y023650D01*
X008023Y023582D01*
X008082Y023523D01*
X008150Y023473D01*
X008225Y023435D01*
X008305Y023409D01*
X008380Y023397D01*
X008380Y023593D02*
X008480Y023593D01*
X008480Y023692D02*
X008380Y023692D01*
X008380Y023790D02*
X008480Y023790D01*
X008480Y023889D02*
X010820Y023889D01*
X010820Y023987D02*
X010920Y023987D01*
X010920Y024086D02*
X010820Y024086D01*
X010820Y024184D02*
X010920Y024184D01*
X010920Y024283D02*
X010820Y024283D01*
X010820Y024381D02*
X010920Y024381D01*
X010583Y024381D02*
X008717Y024381D01*
X008832Y024283D02*
X010468Y024283D01*
X010400Y024184D02*
X008900Y024184D01*
X008941Y024086D02*
X010359Y024086D01*
X010339Y023987D02*
X008961Y023987D01*
X008946Y023790D02*
X010354Y023790D01*
X010392Y023692D02*
X008908Y023692D01*
X008845Y023593D02*
X010455Y023593D01*
X010561Y023495D02*
X008739Y023495D01*
X008380Y023889D02*
X003920Y023889D01*
X003920Y023880D02*
X003920Y023980D01*
X004403Y023980D01*
X004391Y024055D01*
X004365Y024135D01*
X004327Y024210D01*
X004277Y024278D01*
X004218Y024337D01*
X004150Y024387D01*
X004075Y024425D01*
X003995Y024451D01*
X003920Y024463D01*
X003920Y023980D01*
X003820Y023980D01*
X003820Y024463D01*
X003745Y024451D01*
X003665Y024425D01*
X003590Y024387D01*
X003522Y024337D01*
X003463Y024278D01*
X003413Y024210D01*
X003375Y024135D01*
X003349Y024055D01*
X003337Y023980D01*
X003820Y023980D01*
X003820Y023880D01*
X003920Y023880D01*
X004403Y023880D01*
X004391Y023805D01*
X004365Y023725D01*
X004327Y023650D01*
X004277Y023582D01*
X004218Y023523D01*
X004150Y023473D01*
X004075Y023435D01*
X003995Y023409D01*
X003920Y023397D01*
X003920Y023880D01*
X003920Y023790D02*
X003820Y023790D01*
X003820Y023880D02*
X003820Y023397D01*
X003745Y023409D01*
X003665Y023435D01*
X003590Y023473D01*
X003522Y023523D01*
X003463Y023582D01*
X003413Y023650D01*
X003375Y023725D01*
X003349Y023805D01*
X003337Y023880D01*
X003820Y023880D01*
X003820Y023889D02*
X001480Y023889D01*
X001480Y023880D02*
X001480Y023980D01*
X001963Y023980D01*
X001951Y024055D01*
X001925Y024135D01*
X001887Y024210D01*
X001837Y024278D01*
X001778Y024337D01*
X001710Y024387D01*
X001635Y024425D01*
X001555Y024451D01*
X001480Y024463D01*
X001480Y023980D01*
X001380Y023980D01*
X001380Y024463D01*
X001305Y024451D01*
X001225Y024425D01*
X001150Y024387D01*
X001082Y024337D01*
X001023Y024278D01*
X000973Y024210D01*
X000935Y024135D01*
X000909Y024055D01*
X000897Y023980D01*
X001380Y023980D01*
X001380Y023880D01*
X001480Y023880D01*
X001963Y023880D01*
X001951Y023805D01*
X001925Y023725D01*
X001887Y023650D01*
X001837Y023582D01*
X001778Y023523D01*
X001710Y023473D01*
X001635Y023435D01*
X001555Y023409D01*
X001480Y023397D01*
X001480Y023880D01*
X001480Y023790D02*
X001380Y023790D01*
X001380Y023880D02*
X001380Y023397D01*
X001305Y023409D01*
X001225Y023435D01*
X001150Y023473D01*
X001082Y023523D01*
X001023Y023582D01*
X000973Y023650D01*
X000935Y023725D01*
X000909Y023805D01*
X000897Y023880D01*
X001380Y023880D01*
X001380Y023889D02*
X000400Y023889D01*
X000400Y023987D02*
X000899Y023987D01*
X000919Y024086D02*
X000400Y024086D01*
X000400Y024184D02*
X000960Y024184D01*
X001028Y024283D02*
X000400Y024283D01*
X000400Y024381D02*
X001143Y024381D01*
X001380Y024381D02*
X001480Y024381D01*
X001480Y024283D02*
X001380Y024283D01*
X001380Y024184D02*
X001480Y024184D01*
X001480Y024086D02*
X001380Y024086D01*
X001380Y023987D02*
X001480Y023987D01*
X001480Y023692D02*
X001380Y023692D01*
X001380Y023593D02*
X001480Y023593D01*
X001480Y023495D02*
X001380Y023495D01*
X001121Y023495D02*
X000400Y023495D01*
X000400Y023593D02*
X001015Y023593D01*
X000952Y023692D02*
X000400Y023692D01*
X000400Y023790D02*
X000914Y023790D01*
X001717Y024381D02*
X003583Y024381D01*
X003468Y024283D02*
X001832Y024283D01*
X001900Y024184D02*
X003400Y024184D01*
X003359Y024086D02*
X001941Y024086D01*
X001961Y023987D02*
X003339Y023987D01*
X003354Y023790D02*
X001946Y023790D01*
X001908Y023692D02*
X003392Y023692D01*
X003455Y023593D02*
X001845Y023593D01*
X001739Y023495D02*
X003561Y023495D01*
X003820Y023495D02*
X003920Y023495D01*
X003920Y023593D02*
X003820Y023593D01*
X003820Y023692D02*
X003920Y023692D01*
X003920Y023987D02*
X003820Y023987D01*
X003820Y024086D02*
X003920Y024086D01*
X003920Y024184D02*
X003820Y024184D01*
X003820Y024283D02*
X003920Y024283D01*
X003920Y024381D02*
X003820Y024381D01*
X004157Y024381D02*
X008143Y024381D01*
X008028Y024283D02*
X004272Y024283D01*
X004340Y024184D02*
X007960Y024184D01*
X007919Y024086D02*
X004381Y024086D01*
X004401Y023987D02*
X007899Y023987D01*
X007914Y023790D02*
X004386Y023790D01*
X004348Y023692D02*
X007952Y023692D01*
X008015Y023593D02*
X004285Y023593D01*
X004179Y023495D02*
X008121Y023495D01*
X008380Y023987D02*
X008480Y023987D01*
X008480Y024086D02*
X008380Y024086D01*
X008380Y024184D02*
X008480Y024184D01*
X008480Y024283D02*
X008380Y024283D01*
X008380Y024381D02*
X008480Y024381D01*
X008480Y025859D02*
X008380Y025859D01*
X008380Y025957D02*
X008480Y025957D01*
X008480Y026056D02*
X008380Y026056D01*
X008380Y026154D02*
X008480Y026154D01*
X008480Y026450D02*
X008380Y026450D01*
X008380Y026548D02*
X008480Y026548D01*
X008480Y026647D02*
X008380Y026647D01*
X008380Y026745D02*
X008480Y026745D01*
X008480Y026844D02*
X008380Y026844D01*
X008184Y026844D02*
X004116Y026844D01*
X004250Y026745D02*
X008050Y026745D01*
X007972Y026647D02*
X004328Y026647D01*
X004373Y026548D02*
X007927Y026548D01*
X007902Y026450D02*
X004398Y026450D01*
X004392Y026253D02*
X007908Y026253D01*
X007941Y026154D02*
X004359Y026154D01*
X004301Y026056D02*
X007999Y026056D01*
X008090Y025957D02*
X004210Y025957D01*
X004024Y025859D02*
X008276Y025859D01*
X007907Y028814D02*
X007393Y028814D01*
X007320Y028740D02*
X007560Y028980D01*
X007560Y029320D01*
X007320Y029560D01*
X006980Y029560D01*
X006740Y029320D01*
X006740Y028980D01*
X006980Y028740D01*
X007320Y028740D01*
X007492Y028912D02*
X007808Y028912D01*
X007740Y029011D02*
X007560Y029011D01*
X007560Y029109D02*
X007740Y029109D01*
X007740Y029208D02*
X007560Y029208D01*
X007560Y029306D02*
X007740Y029306D01*
X007825Y029405D02*
X007475Y029405D01*
X007377Y029503D02*
X007923Y029503D01*
X007922Y029799D02*
X007378Y029799D01*
X007320Y029740D02*
X007560Y029980D01*
X007560Y030320D01*
X007320Y030560D01*
X006980Y030560D01*
X006740Y030320D01*
X006740Y029980D01*
X006980Y029740D01*
X007320Y029740D01*
X007477Y029897D02*
X007823Y029897D01*
X007740Y029996D02*
X007560Y029996D01*
X007560Y030094D02*
X007740Y030094D01*
X007740Y030193D02*
X007560Y030193D01*
X007560Y030291D02*
X007740Y030291D01*
X007810Y030390D02*
X007490Y030390D01*
X007392Y030488D02*
X007908Y030488D01*
X006908Y030488D02*
X006392Y030488D01*
X006320Y030560D02*
X005980Y030560D01*
X005740Y030320D01*
X005740Y029980D01*
X005980Y029740D01*
X006320Y029740D01*
X006560Y029980D01*
X006560Y030320D01*
X006320Y030560D01*
X006490Y030390D02*
X006810Y030390D01*
X006740Y030291D02*
X006560Y030291D01*
X006560Y030193D02*
X006740Y030193D01*
X006740Y030094D02*
X006560Y030094D01*
X006560Y029996D02*
X006740Y029996D01*
X006823Y029897D02*
X006477Y029897D01*
X006378Y029799D02*
X006922Y029799D01*
X006923Y029503D02*
X006377Y029503D01*
X006320Y029560D02*
X005980Y029560D01*
X005740Y029320D01*
X005740Y028980D01*
X005980Y028740D01*
X006320Y028740D01*
X006560Y028980D01*
X006560Y029320D01*
X006320Y029560D01*
X006475Y029405D02*
X006825Y029405D01*
X006740Y029306D02*
X006560Y029306D01*
X006560Y029208D02*
X006740Y029208D01*
X006740Y029109D02*
X006560Y029109D01*
X006560Y029011D02*
X006740Y029011D01*
X006808Y028912D02*
X006492Y028912D01*
X006393Y028814D02*
X006907Y028814D01*
X005907Y028814D02*
X005393Y028814D01*
X005492Y028912D02*
X005808Y028912D01*
X005740Y029011D02*
X005560Y029011D01*
X005560Y029109D02*
X005740Y029109D01*
X005740Y029208D02*
X005560Y029208D01*
X005560Y029306D02*
X005740Y029306D01*
X005825Y029405D02*
X005475Y029405D01*
X005377Y029503D02*
X005923Y029503D01*
X005922Y029799D02*
X005378Y029799D01*
X005477Y029897D02*
X005823Y029897D01*
X005740Y029996D02*
X005560Y029996D01*
X005560Y030094D02*
X005740Y030094D01*
X005740Y030193D02*
X005560Y030193D01*
X005560Y030291D02*
X005740Y030291D01*
X005810Y030390D02*
X005490Y030390D01*
X005392Y030488D02*
X005908Y030488D01*
X003867Y029503D02*
X000400Y029503D01*
X000400Y029405D02*
X003768Y029405D01*
X003700Y029306D02*
X000400Y029306D01*
X000400Y029208D02*
X003700Y029208D01*
X003624Y026844D02*
X001676Y026844D01*
X001810Y026745D02*
X003490Y026745D01*
X003412Y026647D02*
X001888Y026647D01*
X001933Y026548D02*
X003367Y026548D01*
X003342Y026450D02*
X001958Y026450D01*
X001952Y026253D02*
X003348Y026253D01*
X003381Y026154D02*
X001919Y026154D01*
X001861Y026056D02*
X003439Y026056D01*
X003530Y025957D02*
X001770Y025957D01*
X001584Y025859D02*
X003716Y025859D01*
X003820Y025859D02*
X003920Y025859D01*
X003920Y025957D02*
X003820Y025957D01*
X003820Y026056D02*
X003920Y026056D01*
X003920Y026154D02*
X003820Y026154D01*
X003820Y026450D02*
X003920Y026450D01*
X003920Y026548D02*
X003820Y026548D01*
X003820Y026647D02*
X003920Y026647D01*
X003920Y026745D02*
X003820Y026745D01*
X003820Y026844D02*
X003920Y026844D01*
X001989Y031473D02*
X010311Y031473D01*
X010308Y031572D02*
X001992Y031572D01*
X001992Y031670D02*
X010308Y031670D01*
X010308Y031769D02*
X001992Y031769D01*
X001972Y031867D02*
X010328Y031867D01*
X010369Y031966D02*
X001931Y031966D01*
X001890Y032064D02*
X010410Y032064D01*
X010471Y032163D02*
X001829Y032163D01*
X001730Y032261D02*
X010570Y032261D01*
X010668Y032360D02*
X001632Y032360D01*
X001948Y031375D02*
X010352Y031375D01*
X010393Y031276D02*
X001907Y031276D01*
X001866Y031178D02*
X010434Y031178D01*
X010529Y031079D02*
X001771Y031079D01*
X001672Y030981D02*
X010628Y030981D01*
X010802Y030882D02*
X001498Y030882D01*
X001480Y026844D02*
X001380Y026844D01*
X001380Y026745D02*
X001480Y026745D01*
X001480Y026647D02*
X001380Y026647D01*
X001380Y026548D02*
X001480Y026548D01*
X001480Y026450D02*
X001380Y026450D01*
X001380Y026154D02*
X001480Y026154D01*
X001480Y026056D02*
X001380Y026056D01*
X001380Y025957D02*
X001480Y025957D01*
X001480Y025859D02*
X001380Y025859D01*
X001276Y025859D02*
X000400Y025859D01*
X000400Y025957D02*
X001090Y025957D01*
X000999Y026056D02*
X000400Y026056D01*
X000400Y026154D02*
X000941Y026154D01*
X001196Y019850D02*
X000400Y019850D01*
X000400Y019752D02*
X001057Y019752D01*
X000976Y019653D02*
X000400Y019653D01*
X000400Y019555D02*
X000929Y019555D01*
X001380Y019555D02*
X001480Y019555D01*
X001480Y019653D02*
X001380Y019653D01*
X001380Y019752D02*
X001480Y019752D01*
X001480Y019850D02*
X001380Y019850D01*
X001664Y019850D02*
X003636Y019850D01*
X003497Y019752D02*
X001803Y019752D01*
X001884Y019653D02*
X003416Y019653D01*
X003369Y019555D02*
X001931Y019555D01*
X001957Y019456D02*
X003343Y019456D01*
X003347Y019259D02*
X001953Y019259D01*
X001951Y019245D02*
X001963Y019320D01*
X001480Y019320D01*
X001480Y018837D01*
X001555Y018849D01*
X001635Y018875D01*
X001710Y018913D01*
X001778Y018963D01*
X001837Y019022D01*
X001887Y019090D01*
X001925Y019165D01*
X001951Y019245D01*
X001922Y019161D02*
X003378Y019161D01*
X003434Y019062D02*
X001866Y019062D01*
X001779Y018964D02*
X003521Y018964D01*
X003696Y018865D02*
X001604Y018865D01*
X001480Y018865D02*
X001380Y018865D01*
X001380Y018964D02*
X001480Y018964D01*
X001480Y019062D02*
X001380Y019062D01*
X001380Y019161D02*
X001480Y019161D01*
X001480Y019259D02*
X001380Y019259D01*
X001380Y012857D02*
X001480Y012857D01*
X001480Y012758D02*
X001380Y012758D01*
X001380Y012660D02*
X001480Y012660D01*
X001480Y012561D02*
X001380Y012561D01*
X001380Y012463D02*
X001480Y012463D01*
X001480Y012167D02*
X001380Y012167D01*
X001380Y012069D02*
X001480Y012069D01*
X001480Y011970D02*
X001380Y011970D01*
X001380Y011872D02*
X001480Y011872D01*
X001623Y011872D02*
X003677Y011872D01*
X003515Y011970D02*
X001785Y011970D01*
X001871Y012069D02*
X003429Y012069D01*
X003375Y012167D02*
X001925Y012167D01*
X001954Y012266D02*
X003346Y012266D01*
X003344Y012463D02*
X001956Y012463D01*
X001929Y012561D02*
X003371Y012561D01*
X003420Y012660D02*
X001880Y012660D01*
X001797Y012758D02*
X003503Y012758D01*
X003649Y012857D02*
X001651Y012857D01*
X001237Y011872D02*
X000400Y011872D01*
X000400Y011970D02*
X001075Y011970D01*
X000989Y012069D02*
X000400Y012069D01*
X000400Y012167D02*
X000935Y012167D01*
X000400Y011576D02*
X002465Y011576D01*
X002321Y011478D02*
X000400Y011478D01*
X000400Y011379D02*
X002242Y011379D01*
X002201Y011281D02*
X000400Y011281D01*
X000400Y011182D02*
X002186Y011182D01*
X002186Y011084D02*
X000400Y011084D01*
X000400Y010985D02*
X002216Y010985D01*
X002257Y010887D02*
X000400Y010887D01*
X000400Y010788D02*
X002355Y010788D01*
X002548Y010690D02*
X000400Y010690D01*
X003820Y011872D02*
X003920Y011872D01*
X003920Y011970D02*
X003820Y011970D01*
X003820Y012069D02*
X003920Y012069D01*
X003920Y012167D02*
X003820Y012167D01*
X003820Y012463D02*
X003920Y012463D01*
X003920Y012561D02*
X003820Y012561D01*
X003820Y012660D02*
X003920Y012660D01*
X003920Y012758D02*
X003820Y012758D01*
X003820Y012857D02*
X003920Y012857D01*
X003820Y005863D02*
X003920Y005863D01*
X003920Y005765D02*
X003820Y005765D01*
X003820Y005666D02*
X003920Y005666D01*
X003920Y005568D02*
X003820Y005568D01*
X003820Y005272D02*
X003920Y005272D01*
X003920Y005174D02*
X003820Y005174D01*
X003820Y005075D02*
X003920Y005075D01*
X003920Y004977D02*
X003820Y004977D01*
X003820Y004878D02*
X003920Y004878D01*
X008792Y004977D02*
X010508Y004977D01*
D14*
X006150Y001400D03*
X001150Y029150D03*
X011150Y029150D03*
M02*
