%
M48
M72
T01C0.0400
T02C0.0472
T03C0.0512
T04C0.0960
T05C0.1285
%
T01
X4150Y29150
X4150Y30150
X5150Y30150
X5150Y29150
X6150Y29150
X6150Y30150
X7150Y30150
X7150Y29150
X8150Y29150
X8150Y30150
T02
X9650Y25150
X9650Y18150
X9650Y11150
X9650Y4150
X2650Y4150
X2650Y11150
X2650Y18150
X2650Y25150
T03
X1430Y23930
X1430Y26370
X3870Y26370
X3870Y23930
X3870Y19370
X3870Y16930
X3870Y12370
X3870Y9930
X3870Y5370
X3870Y2930
X1430Y2930
X1430Y5370
X1430Y9930
X1430Y12370
X1430Y16930
X1430Y19370
X8430Y19370
X8430Y16930
X8430Y12370
X8430Y9930
X8430Y5370
X8430Y2930
X10870Y2930
X10870Y5370
X10870Y9930
X10870Y12370
X10870Y16930
X10870Y19370
X10870Y23930
X10870Y26370
X8430Y26370
X8430Y23930
T04
X11150Y29150
X1150Y29150
X6150Y1400
T05
X1150Y1150
X11150Y1150
X11150Y31650
X1150Y31650
M30
