<?xml version="1.0" encoding="UTF-8" standalone="no"?>
<!-- Created with Inkscape (http://www.inkscape.org/) -->

<svg
   xmlns:dc="http://purl.org/dc/elements/1.1/"
   xmlns:cc="http://creativecommons.org/ns#"
   xmlns:rdf="http://www.w3.org/1999/02/22-rdf-syntax-ns#"
   xmlns:svg="http://www.w3.org/2000/svg"
   xmlns="http://www.w3.org/2000/svg"
   xmlns:sodipodi="http://sodipodi.sourceforge.net/DTD/sodipodi-0.dtd"
   xmlns:inkscape="http://www.inkscape.org/namespaces/inkscape"
   width="313.60031"
   height="402.53873"
   id="svg5801"
   version="1.1"
   inkscape:version="0.48.2 r9819"
   sodipodi:docname="bb_pg_pb_case_simple.pdf">
  <defs
     id="defs5803">
    <clipPath
       id="clipPath6987"
       clipPathUnits="userSpaceOnUse">
      <path
         id="path6989"
         clip-rule="evenodd"
         d="m 3781,4414 2638,0 0,4135 -2638,0 0,-4135 z"
         inkscape:connector-curvature="0" />
    </clipPath>
    <clipPath
       id="clipPath6981"
       clipPathUnits="userSpaceOnUse">
      <path
         id="path6983"
         clip-rule="evenodd"
         d="m 402,402 9396,0 0,12396 -9396,0 0,-12396 z"
         inkscape:connector-curvature="0" />
    </clipPath>
    <clipPath
       id="clipPath6963"
       clipPathUnits="userSpaceOnUse">
      <path
         id="path6965"
         clip-rule="evenodd"
         d="m 402,402 9396,0 0,12396 -9396,0 0,-12396 z"
         inkscape:connector-curvature="0" />
    </clipPath>
    <clipPath
       id="clipPath6987-2"
       clipPathUnits="userSpaceOnUse">
      <path
         inkscape:connector-curvature="0"
         id="path6989-8"
         clip-rule="evenodd"
         d="m 3781,4414 2638,0 0,4135 -2638,0 0,-4135 z" />
    </clipPath>
    <clipPath
       id="clipPath7520"
       clipPathUnits="userSpaceOnUse">
      <path
         id="path7522"
         clip-rule="evenodd"
         d="m 4254,4188 1692,0 0,4587 -1692,0 0,-4587 z" />
    </clipPath>
    <clipPath
       id="clipPath7514"
       clipPathUnits="userSpaceOnUse">
      <path
         id="path7516"
         clip-rule="evenodd"
         d="m 402,402 9396,0 0,12396 -9396,0 0,-12396 z" />
    </clipPath>
    <clipPath
       id="clipPath7496"
       clipPathUnits="userSpaceOnUse">
      <path
         id="path7498"
         clip-rule="evenodd"
         d="m 402,402 9396,0 0,12396 -9396,0 0,-12396 z" />
    </clipPath>
  </defs>
  <sodipodi:namedview
     id="base"
     pagecolor="#ffffff"
     bordercolor="#666666"
     borderopacity="1.0"
     inkscape:pageopacity="0.0"
     inkscape:pageshadow="2"
     inkscape:zoom="0.98994949"
     inkscape:cx="238.23332"
     inkscape:cy="197.57193"
     inkscape:document-units="px"
     inkscape:current-layer="layer1"
     showgrid="false"
     inkscape:window-width="1680"
     inkscape:window-height="1028"
     inkscape:window-x="1672"
     inkscape:window-y="-8"
     inkscape:window-maximized="1"
     units="mm"
     fit-margin-top="1"
     fit-margin-left="1"
     fit-margin-bottom="1"
     fit-margin-right="1" />
  <metadata
     id="metadata5806">
    <rdf:RDF>
      <cc:Work
         rdf:about="">
        <dc:format>image/svg+xml</dc:format>
        <dc:type
           rdf:resource="http://purl.org/dc/dcmitype/StillImage" />
        <dc:title></dc:title>
      </cc:Work>
    </rdf:RDF>
  </metadata>
  <g
     inkscape:label="Layer 1"
     inkscape:groupmode="layer"
     id="layer1"
     transform="translate(-391.56734,-300.90708)">
    <g
       id="g7284"
       style="stroke-width:0.27;stroke-miterlimit:3.73994064;stroke-dasharray:none">
      <g
         id="g7259"
         style="stroke-width:0.27;stroke-miterlimit:3.73994064;stroke-dasharray:none">
        <path
           id="path6251"
           style="fill:none;stroke:#231f20;stroke-width:0.27;stroke-linecap:butt;stroke-linejoin:miter;stroke-miterlimit:3.73994064;stroke-opacity:1;stroke-dasharray:none"
           d="m 446.97356,683.36472 c 2.9325,0 5.31,2.37875 5.31,5.31 0,2.9325 -2.3775,5.31 -5.31,5.31 -2.9325,0 -5.31,-2.3775 -5.31,-5.31 0,-2.93125 2.3775,-5.31 5.31,-5.31 z"
           inkscape:connector-curvature="0" />
        <path
           id="path6253"
           style="fill:none;stroke:#231f20;stroke-width:0.27;stroke-linecap:butt;stroke-linejoin:miter;stroke-miterlimit:3.73994064;stroke-opacity:1;stroke-dasharray:none"
           d="m 446.97356,522.62222 c 2.9325,0 5.31,-2.37875 5.31,-5.31 0,-2.9325 -2.3775,-5.31 -5.31,-5.31 -2.9325,0 -5.31,2.3775 -5.31,5.31 0,2.93125 2.3775,5.31 5.31,5.31 z"
           inkscape:connector-curvature="0" />
      </g>
      <path
         inkscape:connector-curvature="0"
         d="m 680.67606,671.58222 c 2.93125,0 5.31,2.3775 5.31,5.31 0,2.93125 -2.37875,5.31 -5.31,5.31 -2.9325,0 -5.31,-2.37875 -5.31,-5.31 0,-2.9325 2.3775,-5.31 5.31,-5.31 z"
         style="fill:none;stroke:#231f20;stroke-width:0.27;stroke-linecap:butt;stroke-linejoin:miter;stroke-miterlimit:3.73994064;stroke-opacity:1;stroke-dasharray:none"
         id="path6255" />
      <path
         inkscape:connector-curvature="0"
         d="m 680.67606,534.40597 c 2.93125,0 5.31,-2.37875 5.31,-5.31 0,-2.9325 -2.37875,-5.31 -5.31,-5.31 -2.9325,0 -5.31,2.3775 -5.31,5.31 0,2.93125 2.3775,5.31 5.31,5.31 z"
         style="fill:none;stroke:#231f20;stroke-width:0.27;stroke-linecap:butt;stroke-linejoin:miter;stroke-miterlimit:3.73994064;stroke-opacity:1;stroke-dasharray:none"
         id="path6257" />
    </g>
    <g
       id="g6967"
       transform="matrix(0.075,0,0,0.075,-203.6916,76.6915)" />
    <g
       id="g7163">
      <g
         transform="matrix(0.075,0,0,0.075,-203.6916,76.6915)"
         id="g6985"
         clip-path="url(#clipPath6987)">
        <g
           id="g6991" />
        <g
           id="g6993" />
      </g>
    </g>
    <g
       id="g7256"
       transform="matrix(0,1,-1,0,1109.7488,422.83507)"
       style="stroke-width:0.27;stroke-miterlimit:3.73994064;stroke-dasharray:none">
      <path
         d="m 254.3334,714.1915 2.55,-0.15 2.475,-0.45 2.475,-0.675 2.325,-0.975 2.175,-1.2 2.025,-1.425 1.875,-1.725 1.725,-1.875 1.425,-2.025 1.275,-2.25 0.9,-2.325 0.75,-2.4 0.375,-2.475 0.15,-2.55 m -193.35,-238.425 0,240.075 m 45,-285 103.425,0 m 44.925,44.925 -0.15,-3.525 -0.375,-3.45 -0.675,-3.525 -0.975,-3.375 -1.2,-3.3 -1.5,-3.225 -1.725,-3.075 -1.95,-2.925 -2.175,-2.775 -2.4,-2.625 -2.625,-2.4 -2.775,-2.175 -2.925,-1.95 -3.075,-1.725 -3.225,-1.5 -3.3,-1.2 -3.375,-0.975 -3.525,-0.675 -3.45,-0.45 -3.525,-0.075 m -103.425,0 -3.525,0.075 -3.525,0.45 -3.45,0.675 -3.45,0.975 -3.3,1.2 -3.225,1.5 -3.075,1.725 -2.925,1.95 -2.775,2.175 -2.55,2.4 -2.4,2.625 -2.175,2.775 -2.025,2.925 -1.725,3.075 -1.425,3.225 -1.275,3.3 -0.9,3.375 -0.75,3.525 -0.375,3.45 -0.15,3.525 m 193.35,0 0,238.425 m -193.35,0 0.15,2.55 0.375,2.475 0.75,2.4 0.9,2.325 1.275,2.25 1.425,2.025 1.725004,1.875 1.875,1.725 2.025,1.425 2.175,1.2 2.325,0.975 2.474996,0.675 2.475,0.45 2.55,0.15 148.35,0"
         style="fill:none;stroke:#000000;stroke-width:0.27;stroke-linecap:round;stroke-linejoin:round;stroke-miterlimit:3.73994064;stroke-opacity:1;stroke-dasharray:none"
         id="path7019-1-8"
         inkscape:connector-curvature="0" />
    </g>
    <path
       id="path6015"
       style="fill:none;stroke:#ed1c24;stroke-width:0.27;stroke-linecap:butt;stroke-linejoin:bevel;stroke-miterlimit:3.73994064;stroke-opacity:1;stroke-dasharray:none"
       d="m 405.00981,344.98972 0,0 m 5.13625,0 -5.13625,0"
       inkscape:connector-curvature="0" />
    <path
       id="path6017"
       style="fill:none;stroke:#ed1c24;stroke-width:0.27;stroke-linecap:butt;stroke-linejoin:bevel;stroke-miterlimit:3.73994064;stroke-opacity:1;stroke-dasharray:none"
       d="m 405.00981,343.27847 0,0 m 0,1.71125 0,-1.71125"
       inkscape:connector-curvature="0" />
    <path
       id="path6019"
       style="fill:none;stroke:#ed1c24;stroke-width:0.27;stroke-linecap:butt;stroke-linejoin:bevel;stroke-miterlimit:3.73994064;stroke-opacity:1;stroke-dasharray:none"
       d="m 406.15231,342.13597 0,0 m 0,0 0.57,0"
       inkscape:connector-curvature="0" />
    <path
       id="path6021"
       style="fill:none;stroke:#ed1c24;stroke-width:0.27;stroke-linecap:butt;stroke-linejoin:bevel;stroke-miterlimit:3.73994064;stroke-opacity:1;stroke-dasharray:none"
       d="m 407.86356,343.27847 0,0 m 0,0 0,1.71125"
       inkscape:connector-curvature="0" />
    <path
       id="path6023"
       style="fill:none;stroke:#ed1c24;stroke-width:0.27;stroke-linecap:butt;stroke-linejoin:bevel;stroke-miterlimit:3.73994064;stroke-opacity:1;stroke-dasharray:none"
       d="m 407.86356,343.27847 2.28375,-1.1425"
       inkscape:connector-curvature="0" />
    <path
       id="path6025"
       style="fill:none;stroke:#ed1c24;stroke-width:0.27;stroke-linecap:butt;stroke-linejoin:bevel;stroke-miterlimit:3.73994064;stroke-opacity:1;stroke-dasharray:none"
       d="m 406.15231,342.13597 c -0.30375,0 -0.59375,0.12125 -0.8075,0.335 -0.215,0.215 -0.335,0.505 -0.335,0.8075"
       inkscape:connector-curvature="0" />
    <path
       id="path6027"
       style="fill:none;stroke:#ed1c24;stroke-width:0.27;stroke-linecap:butt;stroke-linejoin:bevel;stroke-miterlimit:3.73994064;stroke-opacity:1;stroke-dasharray:none"
       d="m 407.86356,343.27847 c 0,-0.63125 -0.51125,-1.1425 -1.14125,-1.1425"
       inkscape:connector-curvature="0" />
    <path
       id="path6029"
       style="fill:none;stroke:#ed1c24;stroke-width:0.27;stroke-linecap:butt;stroke-linejoin:bevel;stroke-miterlimit:3.73994064;stroke-opacity:1;stroke-dasharray:none"
       d="m 405.00981,338.14222 0,0 m 0,0 0,2.2825"
       inkscape:connector-curvature="0" />
    <path
       id="path6031"
       style="fill:none;stroke:#ed1c24;stroke-width:0.27;stroke-linecap:butt;stroke-linejoin:bevel;stroke-miterlimit:3.73994064;stroke-opacity:1;stroke-dasharray:none"
       d="m 405.00981,340.42472 0,0 m 0,0 5.13625,0"
       inkscape:connector-curvature="0" />
    <path
       id="path6033"
       style="fill:none;stroke:#ed1c24;stroke-width:0.27;stroke-linecap:butt;stroke-linejoin:bevel;stroke-miterlimit:3.73994064;stroke-opacity:1;stroke-dasharray:none"
       d="m 410.14606,340.42472 0.001,-2.2825"
       inkscape:connector-curvature="0" />
    <path
       id="path6035"
       style="fill:none;stroke:#ed1c24;stroke-width:0.27;stroke-linecap:butt;stroke-linejoin:bevel;stroke-miterlimit:3.73994064;stroke-opacity:1;stroke-dasharray:none"
       d="m 407.29356,338.71222 0,0 m 0,1.7125 0,-1.7125"
       inkscape:connector-curvature="0" />
    <path
       id="path6037"
       style="fill:none;stroke:#ed1c24;stroke-width:0.27;stroke-linecap:butt;stroke-linejoin:bevel;stroke-miterlimit:3.73994064;stroke-opacity:1;stroke-dasharray:none"
       d="m 407.16856,335.80597 0.82,-1.6075"
       inkscape:connector-curvature="0" />
    <path
       id="path6039"
       style="fill:none;stroke:#ed1c24;stroke-width:0.27;stroke-linecap:butt;stroke-linejoin:bevel;stroke-miterlimit:3.73994064;stroke-opacity:1;stroke-dasharray:none"
       d="m 405.41981,333.57597 c -0.27,0.53125 -0.41,1.1175 -0.41,1.7125"
       inkscape:connector-curvature="0" />
    <path
       id="path6041"
       style="fill:none;stroke:#ed1c24;stroke-width:0.27;stroke-linecap:butt;stroke-linejoin:bevel;stroke-miterlimit:3.73994064;stroke-opacity:1;stroke-dasharray:none"
       d="m 405.00981,335.28847 c 0,0.5275 0.3625,0.98625 0.875,1.10875 0.51375,0.12375 1.04375,-0.12 1.28375,-0.59125"
       inkscape:connector-curvature="0" />
    <path
       id="path6043"
       style="fill:none;stroke:#ed1c24;stroke-width:0.27;stroke-linecap:butt;stroke-linejoin:bevel;stroke-miterlimit:3.73994064;stroke-opacity:1;stroke-dasharray:none"
       d="m 410.14606,334.71722 c 0,-0.5275 -0.36125,-0.98625 -0.875,-1.11 -0.5125,-0.1225 -1.04375,0.12125 -1.2825,0.59125"
       inkscape:connector-curvature="0" />
    <path
       id="path6045"
       style="fill:none;stroke:#ed1c24;stroke-width:0.27;stroke-linecap:butt;stroke-linejoin:bevel;stroke-miterlimit:3.73994064;stroke-opacity:1;stroke-dasharray:none"
       d="m 409.73731,336.42972 c 0.26875,-0.53 0.41,-1.1175 0.41,-1.7125"
       inkscape:connector-curvature="0" />
    <path
       id="path6047"
       style="fill:none;stroke:#ed1c24;stroke-width:0.27;stroke-linecap:butt;stroke-linejoin:bevel;stroke-miterlimit:3.73994064;stroke-opacity:1;stroke-dasharray:none"
       d="m 405.00981,329.58097 0,0 m 0,0 0,2.28375"
       inkscape:connector-curvature="0" />
    <path
       id="path6049"
       style="fill:none;stroke:#ed1c24;stroke-width:0.27;stroke-linecap:butt;stroke-linejoin:bevel;stroke-miterlimit:3.73994064;stroke-opacity:1;stroke-dasharray:none"
       d="m 405.00981,331.86472 0,0 m 0,0 5.13625,0"
       inkscape:connector-curvature="0" />
    <path
       id="path6051"
       style="fill:none;stroke:#ed1c24;stroke-width:0.27;stroke-linecap:butt;stroke-linejoin:bevel;stroke-miterlimit:3.73994064;stroke-opacity:1;stroke-dasharray:none"
       d="m 410.14606,331.86472 0.001,-2.28375"
       inkscape:connector-curvature="0" />
    <path
       id="path6053"
       style="fill:none;stroke:#ed1c24;stroke-width:0.27;stroke-linecap:butt;stroke-linejoin:bevel;stroke-miterlimit:3.73994064;stroke-opacity:1;stroke-dasharray:none"
       d="m 407.29356,330.15222 0,0 m 0,1.7125 0,-1.7125"
       inkscape:connector-curvature="0" />
    <path
       id="path6055"
       style="fill:none;stroke:#ed1c24;stroke-width:0.27;stroke-linecap:butt;stroke-linejoin:bevel;stroke-miterlimit:3.73994064;stroke-opacity:1;stroke-dasharray:none"
       d="m 405.00981,324.44472 0,0 m 0,3.42375 0,-3.42375"
       inkscape:connector-curvature="0" />
    <path
       id="path6057"
       style="fill:none;stroke:#ed1c24;stroke-width:0.27;stroke-linecap:butt;stroke-linejoin:bevel;stroke-miterlimit:3.73994064;stroke-opacity:1;stroke-dasharray:none"
       d="m 405.00981,326.15722 0,0 m 0,0 5.1375,0"
       inkscape:connector-curvature="0" />
    <path
       id="path6247"
       style="fill:none;stroke:#231f20;stroke-width:0.27;stroke-linecap:butt;stroke-linejoin:miter;stroke-miterlimit:3.73994064;stroke-opacity:1;stroke-dasharray:none"
       d="m 407.86356,350.02847 c 1.49125,0 2.7,1.20875 2.7,2.7 0,1.49 -1.20875,2.7 -2.7,2.7 -1.49125,0 -2.7,-1.21 -2.7,-2.7 0,-1.49125 1.20875,-2.7 2.7,-2.7 z"
       inkscape:connector-curvature="0" />
    <path
       inkscape:connector-curvature="0"
       id="path7019-1-8-2"
       style="fill:none;stroke:#000000;stroke-width:0.27;stroke-linecap:round;stroke-linejoin:round;stroke-miterlimit:3.73994064;stroke-opacity:1;stroke-dasharray:none"
       d="m 395.3254,475.53597 0.15,2.55 0.45,2.475 0.675,2.475 0.975,2.325 1.2,2.175 1.425,2.025 1.725,1.875 1.875,1.725 2.025,1.425 2.25,1.275 2.325,0.9 2.4,0.75 2.475,0.375 2.55,0.15 m 238.425,-193.35 -240.075,0 m 285,45 0,103.425 m -44.925,44.925 3.525,-0.15 3.45,-0.375 3.525,-0.675 3.375,-0.975 3.3,-1.2 3.225,-1.5 3.075,-1.725 2.925,-1.95 2.775,-2.175 2.625,-2.4 2.4,-2.625 2.175,-2.775 1.95,-2.925 1.725,-3.075 1.5,-3.225 1.2,-3.3 0.975,-3.375 0.675,-3.525 0.45,-3.45 0.075,-3.525 m 0,-103.425 -0.075,-3.525 -0.45,-3.525 -0.675,-3.45 -0.975,-3.45 -1.2,-3.3 -1.5,-3.225 -1.725,-3.075 -1.95,-2.925 -2.175,-2.775 -2.4,-2.55 -2.625,-2.4 -2.775,-2.175 -2.925,-2.025 -3.075,-1.725 -3.225,-1.425 -3.3,-1.275 -3.375,-0.9 -3.525,-0.75 -3.45,-0.375 -3.525,-0.15 m 0,193.35 -238.425,0 m 0,-193.35 -2.55,0.15 -2.475,0.375 -2.4,0.75 -2.325,0.9 -2.25,1.275 -2.025,1.425 -1.875,1.725 -1.725,1.875 -1.425,2.025 -1.2,2.175 -0.975,2.325 -0.675,2.475 -0.45,2.475 -0.15,2.55 0,148.35" />
    <path
       id="path6251-6"
       style="fill:none;stroke:#231f20;stroke-width:0.27;stroke-linecap:butt;stroke-linejoin:miter;stroke-miterlimit:3.73994064;stroke-opacity:1;stroke-dasharray:none"
       d="m 446.97356,481.73222 c 2.9325,0 5.31,2.37875 5.31,5.31 0,2.9325 -2.3775,5.31 -5.31,5.31 -2.9325,0 -5.31,-2.3775 -5.31,-5.31 0,-2.93125 2.3775,-5.31 5.31,-5.31 z"
       inkscape:connector-curvature="0" />
    <path
       id="path6253-2"
       style="fill:none;stroke:#231f20;stroke-width:0.27;stroke-linecap:butt;stroke-linejoin:miter;stroke-miterlimit:3.73994064;stroke-opacity:1;stroke-dasharray:none"
       d="m 446.97356,320.98972 c 2.9325,0 5.31,-2.37875 5.31,-5.31 0,-2.9325 -2.3775,-5.31 -5.31,-5.31 -2.9325,0 -5.31,2.3775 -5.31,5.31 0,2.93125 2.3775,5.31 5.31,5.31 z"
       inkscape:connector-curvature="0" />
    <path
       id="path6255-9"
       style="fill:none;stroke:#231f20;stroke-width:0.27;stroke-linecap:butt;stroke-linejoin:miter;stroke-miterlimit:3.73994064;stroke-opacity:1;stroke-dasharray:none"
       d="m 680.67606,469.94972 c 2.93125,0 5.31,2.3775 5.31,5.31 0,2.93125 -2.37875,5.31 -5.31,5.31 -2.9325,0 -5.31,-2.37875 -5.31,-5.31 0,-2.9325 2.3775,-5.31 5.31,-5.31 z"
       inkscape:connector-curvature="0" />
    <path
       id="path6257-1"
       style="fill:none;stroke:#231f20;stroke-width:0.27;stroke-linecap:butt;stroke-linejoin:miter;stroke-miterlimit:3.73994064;stroke-opacity:1;stroke-dasharray:none"
       d="m 680.67606,332.77347 c 2.93125,0 5.31,-2.37875 5.31,-5.31 0,-2.9325 -2.37875,-5.31 -5.31,-5.31 -2.9325,0 -5.31,2.3775 -5.31,5.31 0,2.93125 2.3775,5.31 5.31,5.31 z"
       inkscape:connector-curvature="0" />
    <path
       id="path6015-5"
       style="fill:none;stroke:#ed1c24;stroke-width:0.27;stroke-linecap:butt;stroke-linejoin:bevel;stroke-miterlimit:3.73994064;stroke-opacity:1;stroke-dasharray:none"
       d="m 420.78636,334.02608 0,0 m 5.13625,0 -5.13625,0"
       inkscape:connector-curvature="0" />
    <path
       id="path6017-0"
       style="fill:none;stroke:#ed1c24;stroke-width:0.27;stroke-linecap:butt;stroke-linejoin:bevel;stroke-miterlimit:3.73994064;stroke-opacity:1;stroke-dasharray:none"
       d="m 420.78636,332.31483 0,0 m 0,1.71125 0,-1.71125"
       inkscape:connector-curvature="0" />
    <path
       id="path6019-3"
       style="fill:none;stroke:#ed1c24;stroke-width:0.27;stroke-linecap:butt;stroke-linejoin:bevel;stroke-miterlimit:3.73994064;stroke-opacity:1;stroke-dasharray:none"
       d="m 421.92886,331.17233 0,0 m 0,0 0.57,0"
       inkscape:connector-curvature="0" />
    <path
       id="path6021-6"
       style="fill:none;stroke:#ed1c24;stroke-width:0.27;stroke-linecap:butt;stroke-linejoin:bevel;stroke-miterlimit:3.73994064;stroke-opacity:1;stroke-dasharray:none"
       d="m 423.64011,332.31483 0,0 m 0,0 0,1.71125"
       inkscape:connector-curvature="0" />
    <path
       id="path6023-4"
       style="fill:none;stroke:#ed1c24;stroke-width:0.27;stroke-linecap:butt;stroke-linejoin:bevel;stroke-miterlimit:3.73994064;stroke-opacity:1;stroke-dasharray:none"
       d="m 423.64011,332.31483 2.28375,-1.1425"
       inkscape:connector-curvature="0" />
    <path
       id="path6025-9"
       style="fill:none;stroke:#ed1c24;stroke-width:0.27;stroke-linecap:butt;stroke-linejoin:bevel;stroke-miterlimit:3.73994064;stroke-opacity:1;stroke-dasharray:none"
       d="m 421.92886,331.17233 c -0.30375,0 -0.59375,0.12125 -0.8075,0.335 -0.215,0.215 -0.335,0.505 -0.335,0.8075"
       inkscape:connector-curvature="0" />
    <path
       id="path6027-2"
       style="fill:none;stroke:#ed1c24;stroke-width:0.27;stroke-linecap:butt;stroke-linejoin:bevel;stroke-miterlimit:3.73994064;stroke-opacity:1;stroke-dasharray:none"
       d="m 423.64011,332.31483 c 0,-0.63125 -0.51125,-1.1425 -1.14125,-1.1425"
       inkscape:connector-curvature="0" />
    <path
       id="path6029-9"
       style="fill:none;stroke:#ed1c24;stroke-width:0.27;stroke-linecap:butt;stroke-linejoin:bevel;stroke-miterlimit:3.73994064;stroke-opacity:1;stroke-dasharray:none"
       d="m 420.78636,327.17858 0,0 m 0,0 0,2.2825"
       inkscape:connector-curvature="0" />
    <path
       id="path6031-3"
       style="fill:none;stroke:#ed1c24;stroke-width:0.27;stroke-linecap:butt;stroke-linejoin:bevel;stroke-miterlimit:3.73994064;stroke-opacity:1;stroke-dasharray:none"
       d="m 420.78636,329.46108 0,0 m 0,0 5.13625,0"
       inkscape:connector-curvature="0" />
    <path
       id="path6033-4"
       style="fill:none;stroke:#ed1c24;stroke-width:0.27;stroke-linecap:butt;stroke-linejoin:bevel;stroke-miterlimit:3.73994064;stroke-opacity:1;stroke-dasharray:none"
       d="m 425.92261,329.46108 10e-4,-2.2825"
       inkscape:connector-curvature="0" />
    <path
       id="path6035-4"
       style="fill:none;stroke:#ed1c24;stroke-width:0.27;stroke-linecap:butt;stroke-linejoin:bevel;stroke-miterlimit:3.73994064;stroke-opacity:1;stroke-dasharray:none"
       d="m 423.07011,327.74858 0,0 m 0,1.7125 0,-1.7125"
       inkscape:connector-curvature="0" />
    <path
       id="path6037-0"
       style="fill:none;stroke:#ed1c24;stroke-width:0.27;stroke-linecap:butt;stroke-linejoin:bevel;stroke-miterlimit:3.73994064;stroke-opacity:1;stroke-dasharray:none"
       d="m 422.94511,324.84233 0.82,-1.6075"
       inkscape:connector-curvature="0" />
    <path
       id="path6039-5"
       style="fill:none;stroke:#ed1c24;stroke-width:0.27;stroke-linecap:butt;stroke-linejoin:bevel;stroke-miterlimit:3.73994064;stroke-opacity:1;stroke-dasharray:none"
       d="m 421.19636,322.61233 c -0.27,0.53125 -0.41,1.1175 -0.41,1.7125"
       inkscape:connector-curvature="0" />
    <path
       id="path6041-9"
       style="fill:none;stroke:#ed1c24;stroke-width:0.27;stroke-linecap:butt;stroke-linejoin:bevel;stroke-miterlimit:3.73994064;stroke-opacity:1;stroke-dasharray:none"
       d="m 420.78636,324.32483 c 0,0.5275 0.3625,0.98625 0.875,1.10875 0.51375,0.12375 1.04375,-0.12 1.28375,-0.59125"
       inkscape:connector-curvature="0" />
    <path
       id="path6043-6"
       style="fill:none;stroke:#ed1c24;stroke-width:0.27;stroke-linecap:butt;stroke-linejoin:bevel;stroke-miterlimit:3.73994064;stroke-opacity:1;stroke-dasharray:none"
       d="m 425.92261,323.75358 c 0,-0.5275 -0.36125,-0.98625 -0.875,-1.11 -0.5125,-0.1225 -1.04375,0.12125 -1.2825,0.59125"
       inkscape:connector-curvature="0" />
    <path
       id="path6045-3"
       style="fill:none;stroke:#ed1c24;stroke-width:0.27;stroke-linecap:butt;stroke-linejoin:bevel;stroke-miterlimit:3.73994064;stroke-opacity:1;stroke-dasharray:none"
       d="m 425.51386,325.46608 c 0.26875,-0.53 0.41,-1.1175 0.41,-1.7125"
       inkscape:connector-curvature="0" />
    <path
       id="path6047-4"
       style="fill:none;stroke:#ed1c24;stroke-width:0.27;stroke-linecap:butt;stroke-linejoin:bevel;stroke-miterlimit:3.73994064;stroke-opacity:1;stroke-dasharray:none"
       d="m 420.78636,318.61733 0,0 m 0,0 0,2.28375"
       inkscape:connector-curvature="0" />
    <path
       id="path6049-2"
       style="fill:none;stroke:#ed1c24;stroke-width:0.27;stroke-linecap:butt;stroke-linejoin:bevel;stroke-miterlimit:3.73994064;stroke-opacity:1;stroke-dasharray:none"
       d="m 420.78636,320.90108 0,0 m 0,0 5.13625,0"
       inkscape:connector-curvature="0" />
    <path
       id="path6051-8"
       style="fill:none;stroke:#ed1c24;stroke-width:0.27;stroke-linecap:butt;stroke-linejoin:bevel;stroke-miterlimit:3.73994064;stroke-opacity:1;stroke-dasharray:none"
       d="m 425.92261,320.90108 10e-4,-2.28375"
       inkscape:connector-curvature="0" />
    <path
       id="path6053-8"
       style="fill:none;stroke:#ed1c24;stroke-width:0.27;stroke-linecap:butt;stroke-linejoin:bevel;stroke-miterlimit:3.73994064;stroke-opacity:1;stroke-dasharray:none"
       d="m 423.07011,319.18858 0,0 m 0,1.7125 0,-1.7125"
       inkscape:connector-curvature="0" />
    <path
       id="path6055-7"
       style="fill:none;stroke:#ed1c24;stroke-width:0.27;stroke-linecap:butt;stroke-linejoin:bevel;stroke-miterlimit:3.73994064;stroke-opacity:1;stroke-dasharray:none"
       d="m 420.78636,313.48108 0,0 m 0,3.42375 0,-3.42375"
       inkscape:connector-curvature="0" />
    <path
       id="path6057-5"
       style="fill:none;stroke:#ed1c24;stroke-width:0.27;stroke-linecap:butt;stroke-linejoin:bevel;stroke-miterlimit:3.73994064;stroke-opacity:1;stroke-dasharray:none"
       d="m 420.78636,315.19358 0,0 m 0,0 5.1375,0"
       inkscape:connector-curvature="0" />
    <path
       id="path6247-8"
       style="fill:none;stroke:#231f20;stroke-width:0.27;stroke-linecap:butt;stroke-linejoin:miter;stroke-miterlimit:3.73994064;stroke-opacity:1;stroke-dasharray:none"
       d="m 423.64011,339.06483 c 1.49125,0 2.7,1.20875 2.7,2.7 0,1.49 -1.20875,2.7 -2.7,2.7 -1.49125,0 -2.7,-1.21 -2.7,-2.7 0,-1.49125 1.20875,-2.7 2.7,-2.7 z"
       inkscape:connector-curvature="0" />
    <g
       id="g7500"
       transform="matrix(0.075,0,0,0.075,591.88321,-3.18937)" />
    <g
       id="g49731" />
    <g
       id="g49720" />
    <g
       id="g49716" />
    <g
       id="g49712" />
    <g
       id="g49735" />
    <g
       id="g49708" />
    <g
       id="g49704" />
    <g
       id="g49700" />
    <path
       id="path16874"
       style="fill:none;stroke:none;stroke-width:0.27;stroke-miterlimit:3.73994064;stroke-dasharray:none"
       d="m 729.52537,353.21097 c -3.18944,0 -5.775,-2.58556 -5.775,-5.775 0,-3.18944 2.58556,-5.775 5.775,-5.775 3.18944,0 5.775,2.58556 5.775,5.775 0,3.18944 -2.58556,5.775 -5.775,5.775 z"
       inkscape:connector-curvature="0" />
    <path
       id="path16876"
       style="fill:none;stroke:none;stroke-width:0.27;stroke-miterlimit:3.73994064;stroke-dasharray:none"
       d="m 729.52537,461.06096 c -3.18944,0 -5.775,-2.5855 -5.775,-5.775 0,-3.1894 2.58556,-5.775 5.775,-5.775 3.18944,0 5.775,2.5856 5.775,5.775 0,3.1895 -2.58556,5.775 -5.775,5.775 z"
       inkscape:connector-curvature="0" />
    <path
       id="path16878"
       style="fill:none;stroke:none;stroke-width:0.27;stroke-miterlimit:3.73994064;stroke-dasharray:none"
       d="m 404.55037,461.06096 c -3.18944,0 -5.775,-2.5855 -5.775,-5.775 0,-3.1894 2.58556,-5.775 5.775,-5.775 3.18944,0 5.775,2.5856 5.775,5.775 0,3.1895 -2.58556,5.775 -5.775,5.775 z"
       inkscape:connector-curvature="0" />
    <path
       id="path16880"
       style="fill:none;stroke:none;stroke-width:0.27;stroke-miterlimit:3.73994064;stroke-dasharray:none"
       d="m 404.55037,353.21097 c -3.18944,0 -5.775,-2.58556 -5.775,-5.775 0,-3.18944 2.58556,-5.775 5.775,-5.775 3.18944,0 5.775,2.58556 5.775,5.775 0,3.18944 -2.58556,5.775 -5.775,5.775 z"
       inkscape:connector-curvature="0" />
    <path
       sodipodi:type="arc"
       style="opacity:0.98999999;color:#000000;fill:none;stroke:#000000;stroke-width:0.16635337;stroke-linecap:square;stroke-linejoin:round;stroke-miterlimit:3.73994064;stroke-opacity:1;stroke-dasharray:none;stroke-dashoffset:0;marker:none;visibility:visible;display:inline;overflow:visible;enable-background:accumulate"
       id="path49739-1"
       sodipodi:cx="431.78571"
       sodipodi:cy="183.9673"
       sodipodi:rx="12.857142"
       sodipodi:ry="12.857142"
       d="m 444.64285,183.9673 a 12.857142,12.857142 0 1 1 -25.71429,0 12.857142,12.857142 0 1 1 25.71429,0 z"
       transform="matrix(0,1.6230509,-1.6230509,0,975.02616,-339.91171)" />
    <path
       sodipodi:type="arc"
       style="opacity:0.98999999;color:#000000;fill:none;stroke:#000000;stroke-width:0.16635337;stroke-linecap:square;stroke-linejoin:round;stroke-miterlimit:3.73994064;stroke-opacity:1;stroke-dasharray:none;stroke-dashoffset:0;marker:none;visibility:visible;display:inline;overflow:visible;enable-background:accumulate"
       id="path49739-1-2"
       sodipodi:cx="431.78571"
       sodipodi:cy="183.9673"
       sodipodi:rx="12.857142"
       sodipodi:ry="12.857142"
       d="m 444.64285,183.9673 a 12.857142,12.857142 0 1 1 -25.71429,0 12.857142,12.857142 0 1 1 25.71429,0 z"
       transform="matrix(0,1.6230509,-1.6230509,0,975.02616,-258.98672)" />
    <path
       sodipodi:type="arc"
       style="opacity:0.98999999;color:#000000;fill:none;stroke:#000000;stroke-width:0.16635337;stroke-linecap:square;stroke-linejoin:round;stroke-miterlimit:3.73994064;stroke-opacity:1;stroke-dasharray:none;stroke-dashoffset:0;marker:none;visibility:visible;display:inline;overflow:visible;enable-background:accumulate"
       id="path49739-1-5"
       sodipodi:cx="431.78571"
       sodipodi:cy="183.9673"
       sodipodi:rx="12.857142"
       sodipodi:ry="12.857142"
       d="m 444.64285,183.9673 a 12.857142,12.857142 0 1 1 -25.71429,0 12.857142,12.857142 0 1 1 25.71429,0 z"
       transform="matrix(0,1.6230509,-1.6230509,0,894.06366,-339.91171)" />
    <path
       sodipodi:type="arc"
       style="opacity:0.98999999;color:#000000;fill:none;stroke:#000000;stroke-width:0.16635337;stroke-linecap:square;stroke-linejoin:round;stroke-miterlimit:3.73994064;stroke-opacity:1;stroke-dasharray:none;stroke-dashoffset:0;marker:none;visibility:visible;display:inline;overflow:visible;enable-background:accumulate"
       id="path49739-1-7"
       sodipodi:cx="431.78571"
       sodipodi:cy="183.9673"
       sodipodi:rx="12.857142"
       sodipodi:ry="12.857142"
       d="m 444.64285,183.9673 a 12.857142,12.857142 0 1 1 -25.71429,0 12.857142,12.857142 0 1 1 25.71429,0 z"
       transform="matrix(0,1.6230509,-1.6230509,0,894.06366,-258.98672)" />
    <path
       sodipodi:type="arc"
       style="opacity:0.98999999;color:#000000;fill:none;stroke:#000000;stroke-width:0.16635337;stroke-linecap:square;stroke-linejoin:round;stroke-miterlimit:3.73994064;stroke-opacity:1;stroke-dasharray:none;stroke-dashoffset:0;marker:none;visibility:visible;display:inline;overflow:visible;enable-background:accumulate"
       id="path49739-1-4"
       sodipodi:cx="431.78571"
       sodipodi:cy="183.9673"
       sodipodi:rx="12.857142"
       sodipodi:ry="12.857142"
       d="m 444.64285,183.9673 a 12.857142,12.857142 0 1 1 -25.71429,0 12.857142,12.857142 0 1 1 25.71429,0 z"
       transform="matrix(0,1.6230509,-1.6230509,0,813.10116,-339.91171)" />
    <path
       sodipodi:type="arc"
       style="opacity:0.98999999;color:#000000;fill:none;stroke:#000000;stroke-width:0.16635337;stroke-linecap:square;stroke-linejoin:round;stroke-miterlimit:3.73994064;stroke-opacity:1;stroke-dasharray:none;stroke-dashoffset:0;marker:none;visibility:visible;display:inline;overflow:visible;enable-background:accumulate"
       id="path49739-1-44"
       sodipodi:cx="431.78571"
       sodipodi:cy="183.9673"
       sodipodi:rx="12.857142"
       sodipodi:ry="12.857142"
       d="m 444.64285,183.9673 a 12.857142,12.857142 0 1 1 -25.71429,0 12.857142,12.857142 0 1 1 25.71429,0 z"
       transform="matrix(0,1.6230509,-1.6230509,0,813.10116,-258.98672)" />
    <path
       sodipodi:type="arc"
       style="opacity:0.98999999;color:#000000;fill:none;stroke:#000000;stroke-width:0.16635337;stroke-linecap:square;stroke-linejoin:round;stroke-miterlimit:3.73994064;stroke-opacity:1;stroke-dasharray:none;stroke-dashoffset:0;marker:none;visibility:visible;display:inline;overflow:visible;enable-background:accumulate"
       id="path49739-1-442"
       sodipodi:cx="431.78571"
       sodipodi:cy="183.9673"
       sodipodi:rx="12.857142"
       sodipodi:ry="12.857142"
       d="m 444.64285,183.9673 a 12.857142,12.857142 0 1 1 -25.71429,0 12.857142,12.857142 0 1 1 25.71429,0 z"
       transform="matrix(0,1.6230509,-1.6230509,0,732.10116,-339.91171)" />
    <path
       sodipodi:type="arc"
       style="opacity:0.98999999;color:#000000;fill:none;stroke:#000000;stroke-width:0.16635337;stroke-linecap:square;stroke-linejoin:round;stroke-miterlimit:3.73994064;stroke-opacity:1;stroke-dasharray:none;stroke-dashoffset:0;marker:none;visibility:visible;display:inline;overflow:visible;enable-background:accumulate"
       id="path49739-1-9"
       sodipodi:cx="431.78571"
       sodipodi:cy="183.9673"
       sodipodi:rx="12.857142"
       sodipodi:ry="12.857142"
       d="m 444.64285,183.9673 a 12.857142,12.857142 0 1 1 -25.71429,0 12.857142,12.857142 0 1 1 25.71429,0 z"
       transform="matrix(0,1.6230509,-1.6230509,0,732.10116,-258.98672)" />
  </g>
</svg>
