<?xml version="1.0" encoding="UTF-8" standalone="no"?>
<!-- Created with Inkscape (http://www.inkscape.org/) -->

<svg
   xmlns:dc="http://purl.org/dc/elements/1.1/"
   xmlns:cc="http://creativecommons.org/ns#"
   xmlns:rdf="http://www.w3.org/1999/02/22-rdf-syntax-ns#"
   xmlns:svg="http://www.w3.org/2000/svg"
   xmlns="http://www.w3.org/2000/svg"
   xmlns:xlink="http://www.w3.org/1999/xlink"
   xmlns:sodipodi="http://sodipodi.sourceforge.net/DTD/sodipodi-0.dtd"
   xmlns:inkscape="http://www.inkscape.org/namespaces/inkscape"
   width="490.95163"
   height="526.83051"
   id="svg3080"
   version="1.1"
   inkscape:version="0.48.4 r9939"
   sodipodi:docname="yin-yang-silk-screen.svg"
   inkscape:export-filename="C:\Users\jon\Documents\GitHub\BoneClamp\logo\yin-yang-silk-screen.png"
   inkscape:export-xdpi="250.00999"
   inkscape:export-ydpi="250.00999">
  <defs
     id="defs3082">
    <clipPath
       id="clipPath3400"
       clipPathUnits="userSpaceOnUse">
      <path
         id="path3402"
         d="m 0,191 1041.426,0 0,-191 L 0,0 0,191 z"
         inkscape:connector-curvature="0" />
    </clipPath>
    <clipPath
       id="clipPath3356"
       clipPathUnits="userSpaceOnUse">
      <path
         id="path3358"
         d="m 0,191 1041.426,0 0,-191 L 0,0 0,191 z"
         inkscape:connector-curvature="0" />
    </clipPath>
    <linearGradient
       id="linearGradient3344"
       spreadMethod="pad"
       gradientTransform="matrix(-3.7e-6,-85.304199,-85.304199,3.7e-6,142.94922,165.34375)"
       gradientUnits="userSpaceOnUse"
       y2="0"
       x2="1"
       y1="0"
       x1="0">
      <stop
         id="stop3346"
         offset="0"
         style="stop-opacity:1;stop-color:#f47318" />
      <stop
         id="stop3348"
         offset="1"
         style="stop-opacity:1;stop-color:#231f20" />
    </linearGradient>
    <clipPath
       id="clipPath3252"
       clipPathUnits="userSpaceOnUse">
      <path
         id="path3254"
         d="m 0,191 1041.426,0 0,-191 L 0,0 0,191 z"
         inkscape:connector-curvature="0" />
    </clipPath>
    <clipPath
       id="clipPath3208"
       clipPathUnits="userSpaceOnUse">
      <path
         id="path3210"
         d="m 63.51,132.246 c -3.637,0.672 -6.402,-6.143 -6.993,-8.762 l 0,0 c -1.552,-6.898 0.227,-15.366 1.799,-22.226 l 0,0 c 1.458,-6.364 5.535,-21.034 13.756,-20.711 l 0,0 c 3.627,0.142 6.841,0.891 7.187,4.956 l 0,0 c 0.215,2.508 -0.405,5.296 -0.762,7.749 l 0,0 c -1.087,7.445 -3.397,15.567 -6.236,22.507 l 0,0 c -2.584,6.317 -7.213,11.784 -9.25,18.237 l 0,0 0.499,-1.75 z"
         inkscape:connector-curvature="0" />
    </clipPath>
    <clipPath
       id="clipPath3164"
       clipPathUnits="userSpaceOnUse">
      <path
         id="path3166"
         d="m 89.793,97.92 c -0.816,-0.787 -1.156,-1.815 -1.747,-2.734 l 0,0 c -0.527,-0.823 -1.003,-1.707 -1.51,-2.541 l 0,0 C 85.992,91.751 85.548,90.728 84.73,90.044 l 0,0 c -0.431,-0.361 -0.847,-0.746 -1.293,-1.091 l 0,0 c -0.397,-0.308 -1.39,-0.639 -1.576,-1.09 l 0,0 c -0.08,-0.196 -0.073,-0.542 -0.047,-0.769 l 0,0 c 0.069,-0.627 0.275,-1.315 0.441,-1.948 l 0,0 c 0.468,-1.777 1.01,-3.794 2.127,-5.314 l 0,0 c 1.339,-1.822 3.545,-3.199 5.339,-4.545 l 0,0 c 0.931,-0.697 2.001,-1.167 2.928,-1.849 l 0,0 c 1.023,-0.752 1.932,-1.681 2.816,-2.588 l 0,0 c 1.127,-1.159 2.864,-1.864 4.257,-2.684 l 0,0 c 1.93,-1.137 4.32,-1.754 6.494,-2.257 l 0,0 c 2.909,-0.673 5.86,-0.927 8.79,-0.341 l 0,0 c 2.01,0.402 2.902,1.758 4.235,3.151 l 0,0 c 0.875,0.913 1.89,1.635 2.962,2.305 l 0,0 c 1.09,0.68 2.038,1.512 3.067,2.277 l 0,0 c 1.592,1.18 3.461,2.278 3.679,4.465 l 0,0 c 0.148,1.486 -0.334,2.903 -1.161,4.123 l 0,0 c -0.799,1.178 -1.654,1.594 -2.819,2.334 l 0,0 c -2.148,1.362 -4.309,2.782 -6.525,4.063 l 0,0 c -3.666,2.116 -7.245,4.367 -11.458,5.157 l 0,0 c -1.545,0.288 -3.259,0.681 -4.759,1.13 l 0,0 c -0.506,0.153 -0.947,0.428 -1.44,0.549 l 0,0 c -1.342,0.331 -2.394,0.655 -3.643,1.3 l 0,0 c -1.284,0.662 -2.568,1.35 -3.963,1.751 l 0,0 c -0.562,0.161 -1.199,0.328 -1.812,0.328 l 0,0 c -0.574,0 -1.127,-0.147 -1.576,-0.581"
         inkscape:connector-curvature="0" />
    </clipPath>
    <clipPath
       id="clipPath3068"
       clipPathUnits="userSpaceOnUse">
      <path
         id="path3070"
         d="m 0,191 1041.426,0 0,-191 L 0,0 0,191 z"
         inkscape:connector-curvature="0" />
    </clipPath>
    <linearGradient
       id="linearGradient3056"
       spreadMethod="pad"
       gradientTransform="matrix(132.06973,-11.554605,-11.554605,-132.06973,26.897949,102.33008)"
       gradientUnits="userSpaceOnUse"
       y2="0"
       x2="1"
       y1="0"
       x1="0">
      <stop
         id="stop3058"
         offset="0"
         style="stop-opacity:1;stop-color:#60290a" />
      <stop
         id="stop3060"
         offset="1"
         style="stop-opacity:1;stop-color:#f47318" />
    </linearGradient>
    <linearGradient
       inkscape:collect="always"
       xlink:href="#linearGradient3344"
       id="linearGradient3770"
       gradientUnits="userSpaceOnUse"
       gradientTransform="matrix(-3.7e-6,-85.304199,-85.304199,3.7e-6,142.94922,165.34375)"
       spreadMethod="pad"
       x1="0"
       y1="0"
       x2="1"
       y2="0" />
    <linearGradient
       inkscape:collect="always"
       xlink:href="#linearGradient3056"
       id="linearGradient3898"
       gradientUnits="userSpaceOnUse"
       gradientTransform="matrix(132.06973,-11.554605,-11.554605,-132.06973,26.897949,102.33008)"
       spreadMethod="pad"
       x1="0"
       y1="0"
       x2="1"
       y2="0" />
  </defs>
  <sodipodi:namedview
     id="base"
     pagecolor="#ffffff"
     bordercolor="#666666"
     borderopacity="1.0"
     inkscape:pageopacity="0.0"
     inkscape:pageshadow="2"
     inkscape:zoom="0.35"
     inkscape:cx="267.28323"
     inkscape:cy="21.501629"
     inkscape:document-units="px"
     inkscape:current-layer="layer1"
     showgrid="false"
     inkscape:window-width="1280"
     inkscape:window-height="750"
     inkscape:window-x="0"
     inkscape:window-y="0"
     inkscape:window-maximized="1"
     fit-margin-top="0"
     fit-margin-left="0"
     fit-margin-right="0"
     fit-margin-bottom="0" />
  <metadata
     id="metadata3085">
    <rdf:RDF>
      <cc:Work
         rdf:about="">
        <dc:format>image/svg+xml</dc:format>
        <dc:type
           rdf:resource="http://purl.org/dc/dcmitype/StillImage" />
        <dc:title />
      </cc:Work>
    </rdf:RDF>
  </metadata>
  <g
     inkscape:label="Layer 1"
     inkscape:groupmode="layer"
     id="layer1"
     transform="translate(-188.80989,-47.960273)">
    <circle
       d="M 464,233 C 464,360.57778 360.57778,464 233,464 105.42222,464 2,360.57778 2,233 2,105.42222 105.42222,2 233,2 360.57778,2 464,105.42222 464,233 z"
       sodipodi:ry="231"
       sodipodi:rx="231"
       sodipodi:cy="233"
       sodipodi:cx="233"
       cx="233"
       cy="233"
       r="231"
       id="circle3041"
       transform="translate(201.28571,110.79075)" />
    <path
       style="fill:#ffffff"
       inkscape:connector-curvature="0"
       d="m 434.28571,569.79075 a 226,226 0 1 1 0,-452 113,113 0 0 1 0,226 z"
       id="path3043" />
    <circle
       d="m 346,346 c 0,62.40818 -50.59182,113 -113,113 -62.40818,0 -113,-50.59182 -113,-113 0,-62.40818 50.59182,-113 113,-113 62.40818,0 113,50.59182 113,113 z"
       style="fill:#000000"
       sodipodi:ry="113"
       sodipodi:rx="113"
       sodipodi:cy="346"
       sodipodi:cx="233"
       cx="233"
       cy="346"
       r="113"
       id="circle3045"
       transform="translate(201.28571,110.79075)" />
    <circle
       d="m 263,120 c 0,16.56854 -13.43146,30 -30,30 -16.56854,0 -30,-13.43146 -30,-30 0,-16.56854 13.43146,-30 30,-30 16.56854,0 30,13.43146 30,30 z"
       sodipodi:ry="30"
       sodipodi:rx="30"
       sodipodi:cy="120"
       sodipodi:cx="233"
       cx="233"
       cy="120"
       r="30"
       id="circle3047"
       transform="translate(201.28571,110.79075)" />
    <circle
       d="m 263,346 c 0,16.56854 -13.43146,30 -30,30 -16.56854,0 -30,-13.43146 -30,-30 0,-16.56854 13.43146,-30 30,-30 16.56854,0 30,13.43146 30,30 z"
       style="fill:#ffffff"
       sodipodi:ry="30"
       sodipodi:rx="30"
       sodipodi:cy="346"
       sodipodi:cx="233"
       cx="233"
       cy="346"
       r="30"
       id="circle3049"
       transform="translate(201.28571,110.79075)" />
    <g
       id="g3786"
       transform="matrix(0.41465111,0,0,0.41465111,162.42708,113.21925)">
      <text
         sodipodi:linespacing="125%"
         style="font-size:15px;line-height:125%"
         y="-17.339357"
         x="516.77045"
         id="text3392">
        <tspan
           y="-17.339357"
           x="516.77045"
           id="tspan3394"
           sodipodi:role="line"
           style="font-size:168.75px;font-style:normal;font-variant:normal;font-weight:900;font-stretch:normal;text-align:start;line-height:125%;letter-spacing:-10px;writing-mode:lr-tb;text-anchor:start;fill:#000000;fill-opacity:1;fill-rule:nonzero;stroke:none;font-family:Lato;-inkscape-font-specification:Lato Heavy">board.com</tspan>
      </text>
      <g
         style="fill:#000000"
         transform="matrix(1.1337862,0,0,-1.25,-147.21915,33.624393)"
         id="g3398"
         clip-path="url(#clipPath3400)">
        <path
           inkscape:connector-curvature="0"
           d="m 588.549,39.691 -402.583,0 0,7.102 402.583,0 0,-7.102 z"
           style="fill:#000000;fill-opacity:1;fill-rule:nonzero;stroke:none"
           id="path3404" />
      </g>
      <rect
         y="-29.663971"
         x="243.20554"
         height="34.981525"
         width="149.50258"
         id="rect3014"
         style="fill:#ffffff;stroke:none" />
      <text
         sodipodi:linespacing="89.999998%"
         style="font-size:15px;line-height:89.99999762%"
         y="-30.137857"
         x="59.335529"
         id="text3406">
        <tspan
           y="-30.137857"
           x="59.335529"
           id="tspan3408"
           sodipodi:role="line"
           style="font-size:170px;font-style:normal;font-variant:normal;font-weight:900;font-stretch:normal;text-align:start;line-height:89.99999762%;letter-spacing:-10px;writing-mode:lr-tb;text-anchor:start;fill:#000000;fill-opacity:1;fill-rule:nonzero;stroke:none;font-family:Lato;-inkscape-font-specification:Lato Heavy">puggle</tspan>
      </text>
    </g>
  </g>
</svg>
