G75*
G70*
%OFA0B0*%
%FSLAX24Y24*%
%IPPOS*%
%LPD*%
%AMOC8*
5,1,8,0,0,1.08239X$1,22.5*
%
%ADD10C,0.1380*%
%ADD11C,0.1084*%
%ADD12C,0.0860*%
D10*
X002100Y002100D03*
X002100Y033100D03*
X051100Y033100D03*
X051100Y002600D03*
D11*
X047600Y004600D03*
X045100Y007100D03*
X042600Y004600D03*
X042600Y009600D03*
X047600Y009600D03*
X048100Y014600D03*
X045600Y017100D03*
X043100Y014600D03*
X043100Y019600D03*
X048100Y019600D03*
X047600Y025600D03*
X045100Y028100D03*
X042600Y030600D03*
X047600Y030600D03*
X042600Y025600D03*
X035100Y025600D03*
X032600Y028100D03*
X030100Y030600D03*
X035100Y030600D03*
X030100Y025600D03*
X021600Y025600D03*
X019100Y028100D03*
X016600Y030600D03*
X021600Y030600D03*
X016600Y025600D03*
X009600Y025600D03*
X007100Y028100D03*
X004600Y030600D03*
X009600Y030600D03*
X004600Y025600D03*
X005100Y020100D03*
X007600Y017600D03*
X005100Y015100D03*
X010100Y015100D03*
X010100Y020100D03*
X009600Y009600D03*
X007100Y007100D03*
X004600Y004600D03*
X009600Y004600D03*
X004600Y009600D03*
D12*
X023140Y007980D02*
X023140Y007200D01*
X023140Y006000D02*
X023140Y005220D01*
X025110Y005220D02*
X025110Y006000D01*
X025110Y007200D02*
X025110Y007980D01*
X027090Y007980D02*
X027090Y007200D01*
X027090Y006000D02*
X027090Y005220D01*
X029060Y005220D02*
X029060Y006000D01*
X029060Y007200D02*
X029060Y007980D01*
M02*
