%
M48
M72
T01C0.0520
T02C0.0669
T03C0.1300
%
T01
X23140Y5610
X25110Y5610
X27090Y5610
X29060Y5610
X29060Y7590
X27090Y7590
X25110Y7590
X23140Y7590
T02
X10100Y15100
X7600Y17600
X5100Y15100
X5100Y20100
X10100Y20100
X9600Y25600
X7100Y28100
X4600Y30600
X9600Y30600
X16600Y30600
X19100Y28100
X21600Y30600
X21600Y25600
X16600Y25600
X4600Y25600
X4600Y9600
X7100Y7100
X4600Y4600
X9600Y4600
X9600Y9600
X30100Y25600
X32600Y28100
X30100Y30600
X35100Y30600
X42600Y30600
X45100Y28100
X47600Y30600
X47600Y25600
X42600Y25600
X35100Y25600
X43100Y19600
X45600Y17100
X43100Y14600
X48100Y14600
X48100Y19600
X47600Y9600
X45100Y7100
X42600Y4600
X47600Y4600
X42600Y9600
T03
X2100Y2100
X2100Y33100
X51100Y33100
X51100Y2600
M30
