G75*
G70*
%OFA0B0*%
%FSLAX24Y24*%
%IPPOS*%
%LPD*%
%AMOC8*
5,1,8,0,0,1.08239X$1,22.5*
%
%ADD10C,0.0100*%
%ADD11C,0.0060*%
D10*
X003738Y003757D02*
X003738Y010443D01*
X003757Y010462D02*
X010443Y010462D01*
X010462Y010443D02*
X010462Y003757D01*
X010443Y003738D02*
X003757Y003738D01*
X004950Y006700D02*
X005300Y006700D01*
X004950Y006700D02*
X004950Y007500D01*
X005300Y007500D01*
X005291Y007100D02*
X005293Y007189D01*
X005300Y007277D01*
X005311Y007365D01*
X005326Y007453D01*
X005345Y007540D01*
X005369Y007625D01*
X005397Y007709D01*
X005429Y007792D01*
X005465Y007873D01*
X005505Y007953D01*
X005548Y008030D01*
X005596Y008105D01*
X005647Y008178D01*
X005702Y008248D01*
X005760Y008315D01*
X005821Y008379D01*
X005885Y008440D01*
X005952Y008498D01*
X006022Y008553D01*
X006095Y008604D01*
X006170Y008652D01*
X006247Y008695D01*
X006327Y008735D01*
X006408Y008771D01*
X006491Y008803D01*
X006575Y008831D01*
X006660Y008855D01*
X006747Y008874D01*
X006835Y008889D01*
X006923Y008900D01*
X007011Y008907D01*
X007100Y008909D01*
X007189Y008907D01*
X007277Y008900D01*
X007365Y008889D01*
X007453Y008874D01*
X007540Y008855D01*
X007625Y008831D01*
X007709Y008803D01*
X007792Y008771D01*
X007873Y008735D01*
X007953Y008695D01*
X008030Y008652D01*
X008105Y008604D01*
X008178Y008553D01*
X008248Y008498D01*
X008315Y008440D01*
X008379Y008379D01*
X008440Y008315D01*
X008498Y008248D01*
X008553Y008178D01*
X008604Y008105D01*
X008652Y008030D01*
X008695Y007953D01*
X008735Y007873D01*
X008771Y007792D01*
X008803Y007709D01*
X008831Y007625D01*
X008855Y007540D01*
X008874Y007453D01*
X008889Y007365D01*
X008900Y007277D01*
X008907Y007189D01*
X008909Y007100D01*
X008907Y007011D01*
X008900Y006923D01*
X008889Y006835D01*
X008874Y006747D01*
X008855Y006660D01*
X008831Y006575D01*
X008803Y006491D01*
X008771Y006408D01*
X008735Y006327D01*
X008695Y006247D01*
X008652Y006170D01*
X008604Y006095D01*
X008553Y006022D01*
X008498Y005952D01*
X008440Y005885D01*
X008379Y005821D01*
X008315Y005760D01*
X008248Y005702D01*
X008178Y005647D01*
X008105Y005596D01*
X008030Y005548D01*
X007953Y005505D01*
X007873Y005465D01*
X007792Y005429D01*
X007709Y005397D01*
X007625Y005369D01*
X007540Y005345D01*
X007453Y005326D01*
X007365Y005311D01*
X007277Y005300D01*
X007189Y005293D01*
X007100Y005291D01*
X007011Y005293D01*
X006923Y005300D01*
X006835Y005311D01*
X006747Y005326D01*
X006660Y005345D01*
X006575Y005369D01*
X006491Y005397D01*
X006408Y005429D01*
X006327Y005465D01*
X006247Y005505D01*
X006170Y005548D01*
X006095Y005596D01*
X006022Y005647D01*
X005952Y005702D01*
X005885Y005760D01*
X005821Y005821D01*
X005760Y005885D01*
X005702Y005952D01*
X005647Y006022D01*
X005596Y006095D01*
X005548Y006170D01*
X005505Y006247D01*
X005465Y006327D01*
X005429Y006408D01*
X005397Y006491D01*
X005369Y006575D01*
X005345Y006660D01*
X005326Y006747D01*
X005311Y006835D01*
X005300Y006923D01*
X005293Y007011D01*
X005291Y007100D01*
X008900Y006700D02*
X009250Y006700D01*
X009250Y007500D01*
X008900Y007500D01*
X010943Y014238D02*
X004257Y014238D01*
X004238Y014257D02*
X004238Y020943D01*
X004257Y020962D02*
X010943Y020962D01*
X010962Y020943D02*
X010962Y014257D01*
X009750Y017200D02*
X009750Y018000D01*
X009400Y018000D01*
X009400Y017200D02*
X009750Y017200D01*
X005791Y017600D02*
X005793Y017689D01*
X005800Y017777D01*
X005811Y017865D01*
X005826Y017953D01*
X005845Y018040D01*
X005869Y018125D01*
X005897Y018209D01*
X005929Y018292D01*
X005965Y018373D01*
X006005Y018453D01*
X006048Y018530D01*
X006096Y018605D01*
X006147Y018678D01*
X006202Y018748D01*
X006260Y018815D01*
X006321Y018879D01*
X006385Y018940D01*
X006452Y018998D01*
X006522Y019053D01*
X006595Y019104D01*
X006670Y019152D01*
X006747Y019195D01*
X006827Y019235D01*
X006908Y019271D01*
X006991Y019303D01*
X007075Y019331D01*
X007160Y019355D01*
X007247Y019374D01*
X007335Y019389D01*
X007423Y019400D01*
X007511Y019407D01*
X007600Y019409D01*
X007689Y019407D01*
X007777Y019400D01*
X007865Y019389D01*
X007953Y019374D01*
X008040Y019355D01*
X008125Y019331D01*
X008209Y019303D01*
X008292Y019271D01*
X008373Y019235D01*
X008453Y019195D01*
X008530Y019152D01*
X008605Y019104D01*
X008678Y019053D01*
X008748Y018998D01*
X008815Y018940D01*
X008879Y018879D01*
X008940Y018815D01*
X008998Y018748D01*
X009053Y018678D01*
X009104Y018605D01*
X009152Y018530D01*
X009195Y018453D01*
X009235Y018373D01*
X009271Y018292D01*
X009303Y018209D01*
X009331Y018125D01*
X009355Y018040D01*
X009374Y017953D01*
X009389Y017865D01*
X009400Y017777D01*
X009407Y017689D01*
X009409Y017600D01*
X009407Y017511D01*
X009400Y017423D01*
X009389Y017335D01*
X009374Y017247D01*
X009355Y017160D01*
X009331Y017075D01*
X009303Y016991D01*
X009271Y016908D01*
X009235Y016827D01*
X009195Y016747D01*
X009152Y016670D01*
X009104Y016595D01*
X009053Y016522D01*
X008998Y016452D01*
X008940Y016385D01*
X008879Y016321D01*
X008815Y016260D01*
X008748Y016202D01*
X008678Y016147D01*
X008605Y016096D01*
X008530Y016048D01*
X008453Y016005D01*
X008373Y015965D01*
X008292Y015929D01*
X008209Y015897D01*
X008125Y015869D01*
X008040Y015845D01*
X007953Y015826D01*
X007865Y015811D01*
X007777Y015800D01*
X007689Y015793D01*
X007600Y015791D01*
X007511Y015793D01*
X007423Y015800D01*
X007335Y015811D01*
X007247Y015826D01*
X007160Y015845D01*
X007075Y015869D01*
X006991Y015897D01*
X006908Y015929D01*
X006827Y015965D01*
X006747Y016005D01*
X006670Y016048D01*
X006595Y016096D01*
X006522Y016147D01*
X006452Y016202D01*
X006385Y016260D01*
X006321Y016321D01*
X006260Y016385D01*
X006202Y016452D01*
X006147Y016522D01*
X006096Y016595D01*
X006048Y016670D01*
X006005Y016747D01*
X005965Y016827D01*
X005929Y016908D01*
X005897Y016991D01*
X005869Y017075D01*
X005845Y017160D01*
X005826Y017247D01*
X005811Y017335D01*
X005800Y017423D01*
X005793Y017511D01*
X005791Y017600D01*
X005800Y017200D02*
X005450Y017200D01*
X005450Y018000D01*
X005800Y018000D01*
X003757Y024738D02*
X010443Y024738D01*
X010462Y024757D02*
X010462Y031443D01*
X010443Y031462D02*
X003757Y031462D01*
X003738Y031443D02*
X003738Y024757D01*
X004950Y027700D02*
X005300Y027700D01*
X004950Y027700D02*
X004950Y028500D01*
X005300Y028500D01*
X005291Y028100D02*
X005293Y028189D01*
X005300Y028277D01*
X005311Y028365D01*
X005326Y028453D01*
X005345Y028540D01*
X005369Y028625D01*
X005397Y028709D01*
X005429Y028792D01*
X005465Y028873D01*
X005505Y028953D01*
X005548Y029030D01*
X005596Y029105D01*
X005647Y029178D01*
X005702Y029248D01*
X005760Y029315D01*
X005821Y029379D01*
X005885Y029440D01*
X005952Y029498D01*
X006022Y029553D01*
X006095Y029604D01*
X006170Y029652D01*
X006247Y029695D01*
X006327Y029735D01*
X006408Y029771D01*
X006491Y029803D01*
X006575Y029831D01*
X006660Y029855D01*
X006747Y029874D01*
X006835Y029889D01*
X006923Y029900D01*
X007011Y029907D01*
X007100Y029909D01*
X007189Y029907D01*
X007277Y029900D01*
X007365Y029889D01*
X007453Y029874D01*
X007540Y029855D01*
X007625Y029831D01*
X007709Y029803D01*
X007792Y029771D01*
X007873Y029735D01*
X007953Y029695D01*
X008030Y029652D01*
X008105Y029604D01*
X008178Y029553D01*
X008248Y029498D01*
X008315Y029440D01*
X008379Y029379D01*
X008440Y029315D01*
X008498Y029248D01*
X008553Y029178D01*
X008604Y029105D01*
X008652Y029030D01*
X008695Y028953D01*
X008735Y028873D01*
X008771Y028792D01*
X008803Y028709D01*
X008831Y028625D01*
X008855Y028540D01*
X008874Y028453D01*
X008889Y028365D01*
X008900Y028277D01*
X008907Y028189D01*
X008909Y028100D01*
X008907Y028011D01*
X008900Y027923D01*
X008889Y027835D01*
X008874Y027747D01*
X008855Y027660D01*
X008831Y027575D01*
X008803Y027491D01*
X008771Y027408D01*
X008735Y027327D01*
X008695Y027247D01*
X008652Y027170D01*
X008604Y027095D01*
X008553Y027022D01*
X008498Y026952D01*
X008440Y026885D01*
X008379Y026821D01*
X008315Y026760D01*
X008248Y026702D01*
X008178Y026647D01*
X008105Y026596D01*
X008030Y026548D01*
X007953Y026505D01*
X007873Y026465D01*
X007792Y026429D01*
X007709Y026397D01*
X007625Y026369D01*
X007540Y026345D01*
X007453Y026326D01*
X007365Y026311D01*
X007277Y026300D01*
X007189Y026293D01*
X007100Y026291D01*
X007011Y026293D01*
X006923Y026300D01*
X006835Y026311D01*
X006747Y026326D01*
X006660Y026345D01*
X006575Y026369D01*
X006491Y026397D01*
X006408Y026429D01*
X006327Y026465D01*
X006247Y026505D01*
X006170Y026548D01*
X006095Y026596D01*
X006022Y026647D01*
X005952Y026702D01*
X005885Y026760D01*
X005821Y026821D01*
X005760Y026885D01*
X005702Y026952D01*
X005647Y027022D01*
X005596Y027095D01*
X005548Y027170D01*
X005505Y027247D01*
X005465Y027327D01*
X005429Y027408D01*
X005397Y027491D01*
X005369Y027575D01*
X005345Y027660D01*
X005326Y027747D01*
X005311Y027835D01*
X005300Y027923D01*
X005293Y028011D01*
X005291Y028100D01*
X008900Y027700D02*
X009250Y027700D01*
X009250Y028500D01*
X008900Y028500D01*
X015738Y031443D02*
X015738Y024757D01*
X015757Y024738D02*
X022443Y024738D01*
X022462Y024757D02*
X022462Y031443D01*
X022443Y031462D02*
X015757Y031462D01*
X016950Y028500D02*
X016950Y027700D01*
X017300Y027700D01*
X017300Y028500D02*
X016950Y028500D01*
X017291Y028100D02*
X017293Y028189D01*
X017300Y028277D01*
X017311Y028365D01*
X017326Y028453D01*
X017345Y028540D01*
X017369Y028625D01*
X017397Y028709D01*
X017429Y028792D01*
X017465Y028873D01*
X017505Y028953D01*
X017548Y029030D01*
X017596Y029105D01*
X017647Y029178D01*
X017702Y029248D01*
X017760Y029315D01*
X017821Y029379D01*
X017885Y029440D01*
X017952Y029498D01*
X018022Y029553D01*
X018095Y029604D01*
X018170Y029652D01*
X018247Y029695D01*
X018327Y029735D01*
X018408Y029771D01*
X018491Y029803D01*
X018575Y029831D01*
X018660Y029855D01*
X018747Y029874D01*
X018835Y029889D01*
X018923Y029900D01*
X019011Y029907D01*
X019100Y029909D01*
X019189Y029907D01*
X019277Y029900D01*
X019365Y029889D01*
X019453Y029874D01*
X019540Y029855D01*
X019625Y029831D01*
X019709Y029803D01*
X019792Y029771D01*
X019873Y029735D01*
X019953Y029695D01*
X020030Y029652D01*
X020105Y029604D01*
X020178Y029553D01*
X020248Y029498D01*
X020315Y029440D01*
X020379Y029379D01*
X020440Y029315D01*
X020498Y029248D01*
X020553Y029178D01*
X020604Y029105D01*
X020652Y029030D01*
X020695Y028953D01*
X020735Y028873D01*
X020771Y028792D01*
X020803Y028709D01*
X020831Y028625D01*
X020855Y028540D01*
X020874Y028453D01*
X020889Y028365D01*
X020900Y028277D01*
X020907Y028189D01*
X020909Y028100D01*
X020907Y028011D01*
X020900Y027923D01*
X020889Y027835D01*
X020874Y027747D01*
X020855Y027660D01*
X020831Y027575D01*
X020803Y027491D01*
X020771Y027408D01*
X020735Y027327D01*
X020695Y027247D01*
X020652Y027170D01*
X020604Y027095D01*
X020553Y027022D01*
X020498Y026952D01*
X020440Y026885D01*
X020379Y026821D01*
X020315Y026760D01*
X020248Y026702D01*
X020178Y026647D01*
X020105Y026596D01*
X020030Y026548D01*
X019953Y026505D01*
X019873Y026465D01*
X019792Y026429D01*
X019709Y026397D01*
X019625Y026369D01*
X019540Y026345D01*
X019453Y026326D01*
X019365Y026311D01*
X019277Y026300D01*
X019189Y026293D01*
X019100Y026291D01*
X019011Y026293D01*
X018923Y026300D01*
X018835Y026311D01*
X018747Y026326D01*
X018660Y026345D01*
X018575Y026369D01*
X018491Y026397D01*
X018408Y026429D01*
X018327Y026465D01*
X018247Y026505D01*
X018170Y026548D01*
X018095Y026596D01*
X018022Y026647D01*
X017952Y026702D01*
X017885Y026760D01*
X017821Y026821D01*
X017760Y026885D01*
X017702Y026952D01*
X017647Y027022D01*
X017596Y027095D01*
X017548Y027170D01*
X017505Y027247D01*
X017465Y027327D01*
X017429Y027408D01*
X017397Y027491D01*
X017369Y027575D01*
X017345Y027660D01*
X017326Y027747D01*
X017311Y027835D01*
X017300Y027923D01*
X017293Y028011D01*
X017291Y028100D01*
X020900Y027700D02*
X021250Y027700D01*
X021250Y028500D01*
X020900Y028500D01*
X029238Y031443D02*
X029238Y024757D01*
X029257Y024738D02*
X035943Y024738D01*
X035962Y024757D02*
X035962Y031443D01*
X035943Y031462D02*
X029257Y031462D01*
X030450Y028500D02*
X030450Y027700D01*
X030800Y027700D01*
X030800Y028500D02*
X030450Y028500D01*
X030791Y028100D02*
X030793Y028189D01*
X030800Y028277D01*
X030811Y028365D01*
X030826Y028453D01*
X030845Y028540D01*
X030869Y028625D01*
X030897Y028709D01*
X030929Y028792D01*
X030965Y028873D01*
X031005Y028953D01*
X031048Y029030D01*
X031096Y029105D01*
X031147Y029178D01*
X031202Y029248D01*
X031260Y029315D01*
X031321Y029379D01*
X031385Y029440D01*
X031452Y029498D01*
X031522Y029553D01*
X031595Y029604D01*
X031670Y029652D01*
X031747Y029695D01*
X031827Y029735D01*
X031908Y029771D01*
X031991Y029803D01*
X032075Y029831D01*
X032160Y029855D01*
X032247Y029874D01*
X032335Y029889D01*
X032423Y029900D01*
X032511Y029907D01*
X032600Y029909D01*
X032689Y029907D01*
X032777Y029900D01*
X032865Y029889D01*
X032953Y029874D01*
X033040Y029855D01*
X033125Y029831D01*
X033209Y029803D01*
X033292Y029771D01*
X033373Y029735D01*
X033453Y029695D01*
X033530Y029652D01*
X033605Y029604D01*
X033678Y029553D01*
X033748Y029498D01*
X033815Y029440D01*
X033879Y029379D01*
X033940Y029315D01*
X033998Y029248D01*
X034053Y029178D01*
X034104Y029105D01*
X034152Y029030D01*
X034195Y028953D01*
X034235Y028873D01*
X034271Y028792D01*
X034303Y028709D01*
X034331Y028625D01*
X034355Y028540D01*
X034374Y028453D01*
X034389Y028365D01*
X034400Y028277D01*
X034407Y028189D01*
X034409Y028100D01*
X034407Y028011D01*
X034400Y027923D01*
X034389Y027835D01*
X034374Y027747D01*
X034355Y027660D01*
X034331Y027575D01*
X034303Y027491D01*
X034271Y027408D01*
X034235Y027327D01*
X034195Y027247D01*
X034152Y027170D01*
X034104Y027095D01*
X034053Y027022D01*
X033998Y026952D01*
X033940Y026885D01*
X033879Y026821D01*
X033815Y026760D01*
X033748Y026702D01*
X033678Y026647D01*
X033605Y026596D01*
X033530Y026548D01*
X033453Y026505D01*
X033373Y026465D01*
X033292Y026429D01*
X033209Y026397D01*
X033125Y026369D01*
X033040Y026345D01*
X032953Y026326D01*
X032865Y026311D01*
X032777Y026300D01*
X032689Y026293D01*
X032600Y026291D01*
X032511Y026293D01*
X032423Y026300D01*
X032335Y026311D01*
X032247Y026326D01*
X032160Y026345D01*
X032075Y026369D01*
X031991Y026397D01*
X031908Y026429D01*
X031827Y026465D01*
X031747Y026505D01*
X031670Y026548D01*
X031595Y026596D01*
X031522Y026647D01*
X031452Y026702D01*
X031385Y026760D01*
X031321Y026821D01*
X031260Y026885D01*
X031202Y026952D01*
X031147Y027022D01*
X031096Y027095D01*
X031048Y027170D01*
X031005Y027247D01*
X030965Y027327D01*
X030929Y027408D01*
X030897Y027491D01*
X030869Y027575D01*
X030845Y027660D01*
X030826Y027747D01*
X030811Y027835D01*
X030800Y027923D01*
X030793Y028011D01*
X030791Y028100D01*
X034400Y027700D02*
X034750Y027700D01*
X034750Y028500D01*
X034400Y028500D01*
X041738Y031443D02*
X041738Y024757D01*
X041757Y024738D02*
X048443Y024738D01*
X048462Y024757D02*
X048462Y031443D01*
X048443Y031462D02*
X041757Y031462D01*
X042950Y028500D02*
X042950Y027700D01*
X043300Y027700D01*
X043300Y028500D02*
X042950Y028500D01*
X043291Y028100D02*
X043293Y028189D01*
X043300Y028277D01*
X043311Y028365D01*
X043326Y028453D01*
X043345Y028540D01*
X043369Y028625D01*
X043397Y028709D01*
X043429Y028792D01*
X043465Y028873D01*
X043505Y028953D01*
X043548Y029030D01*
X043596Y029105D01*
X043647Y029178D01*
X043702Y029248D01*
X043760Y029315D01*
X043821Y029379D01*
X043885Y029440D01*
X043952Y029498D01*
X044022Y029553D01*
X044095Y029604D01*
X044170Y029652D01*
X044247Y029695D01*
X044327Y029735D01*
X044408Y029771D01*
X044491Y029803D01*
X044575Y029831D01*
X044660Y029855D01*
X044747Y029874D01*
X044835Y029889D01*
X044923Y029900D01*
X045011Y029907D01*
X045100Y029909D01*
X045189Y029907D01*
X045277Y029900D01*
X045365Y029889D01*
X045453Y029874D01*
X045540Y029855D01*
X045625Y029831D01*
X045709Y029803D01*
X045792Y029771D01*
X045873Y029735D01*
X045953Y029695D01*
X046030Y029652D01*
X046105Y029604D01*
X046178Y029553D01*
X046248Y029498D01*
X046315Y029440D01*
X046379Y029379D01*
X046440Y029315D01*
X046498Y029248D01*
X046553Y029178D01*
X046604Y029105D01*
X046652Y029030D01*
X046695Y028953D01*
X046735Y028873D01*
X046771Y028792D01*
X046803Y028709D01*
X046831Y028625D01*
X046855Y028540D01*
X046874Y028453D01*
X046889Y028365D01*
X046900Y028277D01*
X046907Y028189D01*
X046909Y028100D01*
X046907Y028011D01*
X046900Y027923D01*
X046889Y027835D01*
X046874Y027747D01*
X046855Y027660D01*
X046831Y027575D01*
X046803Y027491D01*
X046771Y027408D01*
X046735Y027327D01*
X046695Y027247D01*
X046652Y027170D01*
X046604Y027095D01*
X046553Y027022D01*
X046498Y026952D01*
X046440Y026885D01*
X046379Y026821D01*
X046315Y026760D01*
X046248Y026702D01*
X046178Y026647D01*
X046105Y026596D01*
X046030Y026548D01*
X045953Y026505D01*
X045873Y026465D01*
X045792Y026429D01*
X045709Y026397D01*
X045625Y026369D01*
X045540Y026345D01*
X045453Y026326D01*
X045365Y026311D01*
X045277Y026300D01*
X045189Y026293D01*
X045100Y026291D01*
X045011Y026293D01*
X044923Y026300D01*
X044835Y026311D01*
X044747Y026326D01*
X044660Y026345D01*
X044575Y026369D01*
X044491Y026397D01*
X044408Y026429D01*
X044327Y026465D01*
X044247Y026505D01*
X044170Y026548D01*
X044095Y026596D01*
X044022Y026647D01*
X043952Y026702D01*
X043885Y026760D01*
X043821Y026821D01*
X043760Y026885D01*
X043702Y026952D01*
X043647Y027022D01*
X043596Y027095D01*
X043548Y027170D01*
X043505Y027247D01*
X043465Y027327D01*
X043429Y027408D01*
X043397Y027491D01*
X043369Y027575D01*
X043345Y027660D01*
X043326Y027747D01*
X043311Y027835D01*
X043300Y027923D01*
X043293Y028011D01*
X043291Y028100D01*
X046900Y027700D02*
X047250Y027700D01*
X047250Y028500D01*
X046900Y028500D01*
X048943Y020462D02*
X042257Y020462D01*
X042238Y020443D02*
X042238Y013757D01*
X042257Y013738D02*
X048943Y013738D01*
X048962Y013757D02*
X048962Y020443D01*
X047750Y017500D02*
X047400Y017500D01*
X047750Y017500D02*
X047750Y016700D01*
X047400Y016700D01*
X043791Y017100D02*
X043793Y017189D01*
X043800Y017277D01*
X043811Y017365D01*
X043826Y017453D01*
X043845Y017540D01*
X043869Y017625D01*
X043897Y017709D01*
X043929Y017792D01*
X043965Y017873D01*
X044005Y017953D01*
X044048Y018030D01*
X044096Y018105D01*
X044147Y018178D01*
X044202Y018248D01*
X044260Y018315D01*
X044321Y018379D01*
X044385Y018440D01*
X044452Y018498D01*
X044522Y018553D01*
X044595Y018604D01*
X044670Y018652D01*
X044747Y018695D01*
X044827Y018735D01*
X044908Y018771D01*
X044991Y018803D01*
X045075Y018831D01*
X045160Y018855D01*
X045247Y018874D01*
X045335Y018889D01*
X045423Y018900D01*
X045511Y018907D01*
X045600Y018909D01*
X045689Y018907D01*
X045777Y018900D01*
X045865Y018889D01*
X045953Y018874D01*
X046040Y018855D01*
X046125Y018831D01*
X046209Y018803D01*
X046292Y018771D01*
X046373Y018735D01*
X046453Y018695D01*
X046530Y018652D01*
X046605Y018604D01*
X046678Y018553D01*
X046748Y018498D01*
X046815Y018440D01*
X046879Y018379D01*
X046940Y018315D01*
X046998Y018248D01*
X047053Y018178D01*
X047104Y018105D01*
X047152Y018030D01*
X047195Y017953D01*
X047235Y017873D01*
X047271Y017792D01*
X047303Y017709D01*
X047331Y017625D01*
X047355Y017540D01*
X047374Y017453D01*
X047389Y017365D01*
X047400Y017277D01*
X047407Y017189D01*
X047409Y017100D01*
X047407Y017011D01*
X047400Y016923D01*
X047389Y016835D01*
X047374Y016747D01*
X047355Y016660D01*
X047331Y016575D01*
X047303Y016491D01*
X047271Y016408D01*
X047235Y016327D01*
X047195Y016247D01*
X047152Y016170D01*
X047104Y016095D01*
X047053Y016022D01*
X046998Y015952D01*
X046940Y015885D01*
X046879Y015821D01*
X046815Y015760D01*
X046748Y015702D01*
X046678Y015647D01*
X046605Y015596D01*
X046530Y015548D01*
X046453Y015505D01*
X046373Y015465D01*
X046292Y015429D01*
X046209Y015397D01*
X046125Y015369D01*
X046040Y015345D01*
X045953Y015326D01*
X045865Y015311D01*
X045777Y015300D01*
X045689Y015293D01*
X045600Y015291D01*
X045511Y015293D01*
X045423Y015300D01*
X045335Y015311D01*
X045247Y015326D01*
X045160Y015345D01*
X045075Y015369D01*
X044991Y015397D01*
X044908Y015429D01*
X044827Y015465D01*
X044747Y015505D01*
X044670Y015548D01*
X044595Y015596D01*
X044522Y015647D01*
X044452Y015702D01*
X044385Y015760D01*
X044321Y015821D01*
X044260Y015885D01*
X044202Y015952D01*
X044147Y016022D01*
X044096Y016095D01*
X044048Y016170D01*
X044005Y016247D01*
X043965Y016327D01*
X043929Y016408D01*
X043897Y016491D01*
X043869Y016575D01*
X043845Y016660D01*
X043826Y016747D01*
X043811Y016835D01*
X043800Y016923D01*
X043793Y017011D01*
X043791Y017100D01*
X043800Y016700D02*
X043450Y016700D01*
X043450Y017500D01*
X043800Y017500D01*
X041757Y010462D02*
X048443Y010462D01*
X048462Y010443D02*
X048462Y003757D01*
X048443Y003738D02*
X041757Y003738D01*
X041738Y003757D02*
X041738Y010443D01*
X042950Y007500D02*
X042950Y006700D01*
X043300Y006700D01*
X043300Y007500D02*
X042950Y007500D01*
X043291Y007100D02*
X043293Y007189D01*
X043300Y007277D01*
X043311Y007365D01*
X043326Y007453D01*
X043345Y007540D01*
X043369Y007625D01*
X043397Y007709D01*
X043429Y007792D01*
X043465Y007873D01*
X043505Y007953D01*
X043548Y008030D01*
X043596Y008105D01*
X043647Y008178D01*
X043702Y008248D01*
X043760Y008315D01*
X043821Y008379D01*
X043885Y008440D01*
X043952Y008498D01*
X044022Y008553D01*
X044095Y008604D01*
X044170Y008652D01*
X044247Y008695D01*
X044327Y008735D01*
X044408Y008771D01*
X044491Y008803D01*
X044575Y008831D01*
X044660Y008855D01*
X044747Y008874D01*
X044835Y008889D01*
X044923Y008900D01*
X045011Y008907D01*
X045100Y008909D01*
X045189Y008907D01*
X045277Y008900D01*
X045365Y008889D01*
X045453Y008874D01*
X045540Y008855D01*
X045625Y008831D01*
X045709Y008803D01*
X045792Y008771D01*
X045873Y008735D01*
X045953Y008695D01*
X046030Y008652D01*
X046105Y008604D01*
X046178Y008553D01*
X046248Y008498D01*
X046315Y008440D01*
X046379Y008379D01*
X046440Y008315D01*
X046498Y008248D01*
X046553Y008178D01*
X046604Y008105D01*
X046652Y008030D01*
X046695Y007953D01*
X046735Y007873D01*
X046771Y007792D01*
X046803Y007709D01*
X046831Y007625D01*
X046855Y007540D01*
X046874Y007453D01*
X046889Y007365D01*
X046900Y007277D01*
X046907Y007189D01*
X046909Y007100D01*
X046907Y007011D01*
X046900Y006923D01*
X046889Y006835D01*
X046874Y006747D01*
X046855Y006660D01*
X046831Y006575D01*
X046803Y006491D01*
X046771Y006408D01*
X046735Y006327D01*
X046695Y006247D01*
X046652Y006170D01*
X046604Y006095D01*
X046553Y006022D01*
X046498Y005952D01*
X046440Y005885D01*
X046379Y005821D01*
X046315Y005760D01*
X046248Y005702D01*
X046178Y005647D01*
X046105Y005596D01*
X046030Y005548D01*
X045953Y005505D01*
X045873Y005465D01*
X045792Y005429D01*
X045709Y005397D01*
X045625Y005369D01*
X045540Y005345D01*
X045453Y005326D01*
X045365Y005311D01*
X045277Y005300D01*
X045189Y005293D01*
X045100Y005291D01*
X045011Y005293D01*
X044923Y005300D01*
X044835Y005311D01*
X044747Y005326D01*
X044660Y005345D01*
X044575Y005369D01*
X044491Y005397D01*
X044408Y005429D01*
X044327Y005465D01*
X044247Y005505D01*
X044170Y005548D01*
X044095Y005596D01*
X044022Y005647D01*
X043952Y005702D01*
X043885Y005760D01*
X043821Y005821D01*
X043760Y005885D01*
X043702Y005952D01*
X043647Y006022D01*
X043596Y006095D01*
X043548Y006170D01*
X043505Y006247D01*
X043465Y006327D01*
X043429Y006408D01*
X043397Y006491D01*
X043369Y006575D01*
X043345Y006660D01*
X043326Y006747D01*
X043311Y006835D01*
X043300Y006923D01*
X043293Y007011D01*
X043291Y007100D01*
X046900Y006700D02*
X047250Y006700D01*
X047250Y007500D01*
X046900Y007500D01*
X029190Y006770D02*
X029190Y006430D01*
X028930Y006430D02*
X028930Y006770D01*
X027220Y006770D02*
X027220Y006430D01*
X026960Y006430D02*
X026960Y006770D01*
X025240Y006770D02*
X025240Y006430D01*
X024980Y006430D02*
X024980Y006770D01*
X023270Y006770D02*
X023270Y006430D01*
X023010Y006430D02*
X023010Y006770D01*
D11*
X022170Y008550D02*
X030000Y008550D01*
X030000Y004650D01*
X022170Y004650D01*
X022170Y008550D01*
M02*
