G75*
G70*
%OFA0B0*%
%FSLAX24Y24*%
%IPPOS*%
%LPD*%
%AMOC8*
5,1,8,0,0,1.08239X$1,22.5*
%
%ADD10C,0.0000*%
%ADD11C,0.1004*%
%ADD12C,0.0780*%
D10*
X000100Y000100D02*
X000100Y034970D01*
X054092Y034970D01*
X054092Y000100D01*
X000100Y000100D01*
X001450Y002100D02*
X001452Y002150D01*
X001458Y002200D01*
X001468Y002250D01*
X001481Y002298D01*
X001498Y002346D01*
X001519Y002392D01*
X001543Y002436D01*
X001571Y002478D01*
X001602Y002518D01*
X001636Y002555D01*
X001673Y002590D01*
X001712Y002621D01*
X001753Y002650D01*
X001797Y002675D01*
X001843Y002697D01*
X001890Y002715D01*
X001938Y002729D01*
X001987Y002740D01*
X002037Y002747D01*
X002087Y002750D01*
X002138Y002749D01*
X002188Y002744D01*
X002238Y002735D01*
X002286Y002723D01*
X002334Y002706D01*
X002380Y002686D01*
X002425Y002663D01*
X002468Y002636D01*
X002508Y002606D01*
X002546Y002573D01*
X002581Y002537D01*
X002614Y002498D01*
X002643Y002457D01*
X002669Y002414D01*
X002692Y002369D01*
X002711Y002322D01*
X002726Y002274D01*
X002738Y002225D01*
X002746Y002175D01*
X002750Y002125D01*
X002750Y002075D01*
X002746Y002025D01*
X002738Y001975D01*
X002726Y001926D01*
X002711Y001878D01*
X002692Y001831D01*
X002669Y001786D01*
X002643Y001743D01*
X002614Y001702D01*
X002581Y001663D01*
X002546Y001627D01*
X002508Y001594D01*
X002468Y001564D01*
X002425Y001537D01*
X002380Y001514D01*
X002334Y001494D01*
X002286Y001477D01*
X002238Y001465D01*
X002188Y001456D01*
X002138Y001451D01*
X002087Y001450D01*
X002037Y001453D01*
X001987Y001460D01*
X001938Y001471D01*
X001890Y001485D01*
X001843Y001503D01*
X001797Y001525D01*
X001753Y001550D01*
X001712Y001579D01*
X001673Y001610D01*
X001636Y001645D01*
X001602Y001682D01*
X001571Y001722D01*
X001543Y001764D01*
X001519Y001808D01*
X001498Y001854D01*
X001481Y001902D01*
X001468Y001950D01*
X001458Y002000D01*
X001452Y002050D01*
X001450Y002100D01*
X001450Y033100D02*
X001452Y033150D01*
X001458Y033200D01*
X001468Y033250D01*
X001481Y033298D01*
X001498Y033346D01*
X001519Y033392D01*
X001543Y033436D01*
X001571Y033478D01*
X001602Y033518D01*
X001636Y033555D01*
X001673Y033590D01*
X001712Y033621D01*
X001753Y033650D01*
X001797Y033675D01*
X001843Y033697D01*
X001890Y033715D01*
X001938Y033729D01*
X001987Y033740D01*
X002037Y033747D01*
X002087Y033750D01*
X002138Y033749D01*
X002188Y033744D01*
X002238Y033735D01*
X002286Y033723D01*
X002334Y033706D01*
X002380Y033686D01*
X002425Y033663D01*
X002468Y033636D01*
X002508Y033606D01*
X002546Y033573D01*
X002581Y033537D01*
X002614Y033498D01*
X002643Y033457D01*
X002669Y033414D01*
X002692Y033369D01*
X002711Y033322D01*
X002726Y033274D01*
X002738Y033225D01*
X002746Y033175D01*
X002750Y033125D01*
X002750Y033075D01*
X002746Y033025D01*
X002738Y032975D01*
X002726Y032926D01*
X002711Y032878D01*
X002692Y032831D01*
X002669Y032786D01*
X002643Y032743D01*
X002614Y032702D01*
X002581Y032663D01*
X002546Y032627D01*
X002508Y032594D01*
X002468Y032564D01*
X002425Y032537D01*
X002380Y032514D01*
X002334Y032494D01*
X002286Y032477D01*
X002238Y032465D01*
X002188Y032456D01*
X002138Y032451D01*
X002087Y032450D01*
X002037Y032453D01*
X001987Y032460D01*
X001938Y032471D01*
X001890Y032485D01*
X001843Y032503D01*
X001797Y032525D01*
X001753Y032550D01*
X001712Y032579D01*
X001673Y032610D01*
X001636Y032645D01*
X001602Y032682D01*
X001571Y032722D01*
X001543Y032764D01*
X001519Y032808D01*
X001498Y032854D01*
X001481Y032902D01*
X001468Y032950D01*
X001458Y033000D01*
X001452Y033050D01*
X001450Y033100D01*
X050450Y033100D02*
X050452Y033150D01*
X050458Y033200D01*
X050468Y033250D01*
X050481Y033298D01*
X050498Y033346D01*
X050519Y033392D01*
X050543Y033436D01*
X050571Y033478D01*
X050602Y033518D01*
X050636Y033555D01*
X050673Y033590D01*
X050712Y033621D01*
X050753Y033650D01*
X050797Y033675D01*
X050843Y033697D01*
X050890Y033715D01*
X050938Y033729D01*
X050987Y033740D01*
X051037Y033747D01*
X051087Y033750D01*
X051138Y033749D01*
X051188Y033744D01*
X051238Y033735D01*
X051286Y033723D01*
X051334Y033706D01*
X051380Y033686D01*
X051425Y033663D01*
X051468Y033636D01*
X051508Y033606D01*
X051546Y033573D01*
X051581Y033537D01*
X051614Y033498D01*
X051643Y033457D01*
X051669Y033414D01*
X051692Y033369D01*
X051711Y033322D01*
X051726Y033274D01*
X051738Y033225D01*
X051746Y033175D01*
X051750Y033125D01*
X051750Y033075D01*
X051746Y033025D01*
X051738Y032975D01*
X051726Y032926D01*
X051711Y032878D01*
X051692Y032831D01*
X051669Y032786D01*
X051643Y032743D01*
X051614Y032702D01*
X051581Y032663D01*
X051546Y032627D01*
X051508Y032594D01*
X051468Y032564D01*
X051425Y032537D01*
X051380Y032514D01*
X051334Y032494D01*
X051286Y032477D01*
X051238Y032465D01*
X051188Y032456D01*
X051138Y032451D01*
X051087Y032450D01*
X051037Y032453D01*
X050987Y032460D01*
X050938Y032471D01*
X050890Y032485D01*
X050843Y032503D01*
X050797Y032525D01*
X050753Y032550D01*
X050712Y032579D01*
X050673Y032610D01*
X050636Y032645D01*
X050602Y032682D01*
X050571Y032722D01*
X050543Y032764D01*
X050519Y032808D01*
X050498Y032854D01*
X050481Y032902D01*
X050468Y032950D01*
X050458Y033000D01*
X050452Y033050D01*
X050450Y033100D01*
X050450Y002600D02*
X050452Y002650D01*
X050458Y002700D01*
X050468Y002750D01*
X050481Y002798D01*
X050498Y002846D01*
X050519Y002892D01*
X050543Y002936D01*
X050571Y002978D01*
X050602Y003018D01*
X050636Y003055D01*
X050673Y003090D01*
X050712Y003121D01*
X050753Y003150D01*
X050797Y003175D01*
X050843Y003197D01*
X050890Y003215D01*
X050938Y003229D01*
X050987Y003240D01*
X051037Y003247D01*
X051087Y003250D01*
X051138Y003249D01*
X051188Y003244D01*
X051238Y003235D01*
X051286Y003223D01*
X051334Y003206D01*
X051380Y003186D01*
X051425Y003163D01*
X051468Y003136D01*
X051508Y003106D01*
X051546Y003073D01*
X051581Y003037D01*
X051614Y002998D01*
X051643Y002957D01*
X051669Y002914D01*
X051692Y002869D01*
X051711Y002822D01*
X051726Y002774D01*
X051738Y002725D01*
X051746Y002675D01*
X051750Y002625D01*
X051750Y002575D01*
X051746Y002525D01*
X051738Y002475D01*
X051726Y002426D01*
X051711Y002378D01*
X051692Y002331D01*
X051669Y002286D01*
X051643Y002243D01*
X051614Y002202D01*
X051581Y002163D01*
X051546Y002127D01*
X051508Y002094D01*
X051468Y002064D01*
X051425Y002037D01*
X051380Y002014D01*
X051334Y001994D01*
X051286Y001977D01*
X051238Y001965D01*
X051188Y001956D01*
X051138Y001951D01*
X051087Y001950D01*
X051037Y001953D01*
X050987Y001960D01*
X050938Y001971D01*
X050890Y001985D01*
X050843Y002003D01*
X050797Y002025D01*
X050753Y002050D01*
X050712Y002079D01*
X050673Y002110D01*
X050636Y002145D01*
X050602Y002182D01*
X050571Y002222D01*
X050543Y002264D01*
X050519Y002308D01*
X050498Y002354D01*
X050481Y002402D01*
X050468Y002450D01*
X050458Y002500D01*
X050452Y002550D01*
X050450Y002600D01*
D11*
X047600Y004600D03*
X045100Y007100D03*
X042600Y004600D03*
X042600Y009600D03*
X047600Y009600D03*
X048100Y014600D03*
X045600Y017100D03*
X043100Y014600D03*
X043100Y019600D03*
X048100Y019600D03*
X047600Y025600D03*
X045100Y028100D03*
X042600Y030600D03*
X047600Y030600D03*
X042600Y025600D03*
X035100Y025600D03*
X032600Y028100D03*
X030100Y030600D03*
X035100Y030600D03*
X030100Y025600D03*
X021600Y025600D03*
X019100Y028100D03*
X016600Y030600D03*
X021600Y030600D03*
X016600Y025600D03*
X009600Y025600D03*
X007100Y028100D03*
X004600Y030600D03*
X009600Y030600D03*
X004600Y025600D03*
X005100Y020100D03*
X007600Y017600D03*
X005100Y015100D03*
X010100Y015100D03*
X010100Y020100D03*
X009600Y009600D03*
X007100Y007100D03*
X004600Y004600D03*
X009600Y004600D03*
X004600Y009600D03*
D12*
X023140Y007980D02*
X023140Y007200D01*
X023140Y006000D02*
X023140Y005220D01*
X025110Y005220D02*
X025110Y006000D01*
X025110Y007200D02*
X025110Y007980D01*
X027090Y007980D02*
X027090Y007200D01*
X027090Y006000D02*
X027090Y005220D01*
X029060Y005220D02*
X029060Y006000D01*
X029060Y007200D02*
X029060Y007980D01*
M02*
