G75*
G70*
%OFA0B0*%
%FSLAX24Y24*%
%IPPOS*%
%LPD*%
%AMOC8*
5,1,8,0,0,1.08239X$1,22.5*
%
%ADD10C,0.0030*%
%ADD11C,0.0060*%
%ADD12C,0.0050*%
%ADD13C,0.0020*%
%ADD14R,0.0090X0.0003*%
%ADD15R,0.0205X0.0003*%
%ADD16R,0.0270X0.0003*%
%ADD17R,0.0335X0.0003*%
%ADD18R,0.0375X0.0003*%
%ADD19R,0.0413X0.0003*%
%ADD20R,0.0450X0.0003*%
%ADD21R,0.0490X0.0003*%
%ADD22R,0.0520X0.0003*%
%ADD23R,0.0545X0.0003*%
%ADD24R,0.0575X0.0003*%
%ADD25R,0.0605X0.0003*%
%ADD26R,0.0630X0.0003*%
%ADD27R,0.0655X0.0003*%
%ADD28R,0.0275X0.0003*%
%ADD29R,0.0403X0.0003*%
%ADD30R,0.0243X0.0003*%
%ADD31R,0.0430X0.0003*%
%ADD32R,0.0220X0.0003*%
%ADD33R,0.0460X0.0003*%
%ADD34R,0.0208X0.0003*%
%ADD35R,0.0198X0.0003*%
%ADD36R,0.0515X0.0003*%
%ADD37R,0.0185X0.0003*%
%ADD38R,0.0540X0.0003*%
%ADD39R,0.0175X0.0003*%
%ADD40R,0.0563X0.0003*%
%ADD41R,0.0170X0.0003*%
%ADD42R,0.0583X0.0003*%
%ADD43R,0.0163X0.0003*%
%ADD44R,0.0602X0.0003*%
%ADD45R,0.0160X0.0003*%
%ADD46R,0.0622X0.0003*%
%ADD47R,0.0152X0.0003*%
%ADD48R,0.0640X0.0003*%
%ADD49R,0.0147X0.0003*%
%ADD50R,0.0658X0.0003*%
%ADD51R,0.0143X0.0003*%
%ADD52R,0.0678X0.0003*%
%ADD53R,0.0693X0.0003*%
%ADD54R,0.0138X0.0003*%
%ADD55R,0.0712X0.0003*%
%ADD56R,0.0727X0.0003*%
%ADD57R,0.0132X0.0003*%
%ADD58R,0.0742X0.0003*%
%ADD59R,0.0130X0.0003*%
%ADD60R,0.0757X0.0003*%
%ADD61R,0.0125X0.0003*%
%ADD62R,0.0772X0.0003*%
%ADD63R,0.0123X0.0003*%
%ADD64R,0.0785X0.0003*%
%ADD65R,0.0120X0.0003*%
%ADD66R,0.0800X0.0003*%
%ADD67R,0.0118X0.0003*%
%ADD68R,0.0810X0.0003*%
%ADD69R,0.0825X0.0003*%
%ADD70R,0.0115X0.0003*%
%ADD71R,0.0838X0.0003*%
%ADD72R,0.0112X0.0003*%
%ADD73R,0.0853X0.0003*%
%ADD74R,0.0865X0.0003*%
%ADD75R,0.0110X0.0003*%
%ADD76R,0.0877X0.0003*%
%ADD77R,0.0107X0.0003*%
%ADD78R,0.0890X0.0003*%
%ADD79R,0.0902X0.0003*%
%ADD80R,0.0105X0.0003*%
%ADD81R,0.0912X0.0003*%
%ADD82R,0.0925X0.0003*%
%ADD83R,0.0103X0.0003*%
%ADD84R,0.0935X0.0003*%
%ADD85R,0.0948X0.0003*%
%ADD86R,0.0100X0.0003*%
%ADD87R,0.0958X0.0003*%
%ADD88R,0.0970X0.0003*%
%ADD89R,0.0097X0.0003*%
%ADD90R,0.0980X0.0003*%
%ADD91R,0.0993X0.0003*%
%ADD92R,0.0095X0.0003*%
%ADD93R,0.1003X0.0003*%
%ADD94R,0.0092X0.0003*%
%ADD95R,0.1013X0.0003*%
%ADD96R,0.1025X0.0003*%
%ADD97R,0.1032X0.0003*%
%ADD98R,0.1042X0.0003*%
%ADD99R,0.1052X0.0003*%
%ADD100R,0.0088X0.0003*%
%ADD101R,0.1065X0.0003*%
%ADD102R,0.1072X0.0003*%
%ADD103R,0.1082X0.0003*%
%ADD104R,0.1092X0.0003*%
%ADD105R,0.0085X0.0003*%
%ADD106R,0.1100X0.0003*%
%ADD107R,0.1113X0.0003*%
%ADD108R,0.1120X0.0003*%
%ADD109R,0.1130X0.0003*%
%ADD110R,0.1138X0.0003*%
%ADD111R,0.0083X0.0003*%
%ADD112R,0.1148X0.0003*%
%ADD113R,0.0080X0.0003*%
%ADD114R,0.1155X0.0003*%
%ADD115R,0.1163X0.0003*%
%ADD116R,0.1170X0.0003*%
%ADD117R,0.1180X0.0003*%
%ADD118R,0.0077X0.0003*%
%ADD119R,0.1187X0.0003*%
%ADD120R,0.1197X0.0003*%
%ADD121R,0.1205X0.0003*%
%ADD122R,0.1212X0.0003*%
%ADD123R,0.1222X0.0003*%
%ADD124R,0.1230X0.0003*%
%ADD125R,0.1237X0.0003*%
%ADD126R,0.1247X0.0003*%
%ADD127R,0.0075X0.0003*%
%ADD128R,0.1253X0.0003*%
%ADD129R,0.1260X0.0003*%
%ADD130R,0.1268X0.0003*%
%ADD131R,0.1278X0.0003*%
%ADD132R,0.0073X0.0003*%
%ADD133R,0.1283X0.0003*%
%ADD134R,0.1290X0.0003*%
%ADD135R,0.1300X0.0003*%
%ADD136R,0.1308X0.0003*%
%ADD137R,0.0070X0.0003*%
%ADD138R,0.1313X0.0003*%
%ADD139R,0.1320X0.0003*%
%ADD140R,0.1328X0.0003*%
%ADD141R,0.1335X0.0003*%
%ADD142R,0.1343X0.0003*%
%ADD143R,0.1350X0.0003*%
%ADD144R,0.1358X0.0003*%
%ADD145R,0.1363X0.0003*%
%ADD146R,0.1370X0.0003*%
%ADD147R,0.0067X0.0003*%
%ADD148R,0.1375X0.0003*%
%ADD149R,0.1383X0.0003*%
%ADD150R,0.1390X0.0003*%
%ADD151R,0.1395X0.0003*%
%ADD152R,0.1403X0.0003*%
%ADD153R,0.0065X0.0003*%
%ADD154R,0.1407X0.0003*%
%ADD155R,0.1415X0.0003*%
%ADD156R,0.1422X0.0003*%
%ADD157R,0.1430X0.0003*%
%ADD158R,0.1437X0.0003*%
%ADD159R,0.1442X0.0003*%
%ADD160R,0.1450X0.0003*%
%ADD161R,0.1452X0.0003*%
%ADD162R,0.1460X0.0003*%
%ADD163R,0.1465X0.0003*%
%ADD164R,0.0063X0.0003*%
%ADD165R,0.1472X0.0003*%
%ADD166R,0.1477X0.0003*%
%ADD167R,0.1482X0.0003*%
%ADD168R,0.1490X0.0003*%
%ADD169R,0.1495X0.0003*%
%ADD170R,0.1502X0.0003*%
%ADD171R,0.1507X0.0003*%
%ADD172R,0.0060X0.0003*%
%ADD173R,0.1512X0.0003*%
%ADD174R,0.1520X0.0003*%
%ADD175R,0.1525X0.0003*%
%ADD176R,0.1530X0.0003*%
%ADD177R,0.1535X0.0003*%
%ADD178R,0.1540X0.0003*%
%ADD179R,0.1547X0.0003*%
%ADD180R,0.1552X0.0003*%
%ADD181R,0.1560X0.0003*%
%ADD182R,0.1565X0.0003*%
%ADD183R,0.1570X0.0003*%
%ADD184R,0.1575X0.0003*%
%ADD185R,0.1580X0.0003*%
%ADD186R,0.0057X0.0003*%
%ADD187R,0.1585X0.0003*%
%ADD188R,0.1590X0.0003*%
%ADD189R,0.1595X0.0003*%
%ADD190R,0.1600X0.0003*%
%ADD191R,0.1605X0.0003*%
%ADD192R,0.0055X0.0003*%
%ADD193R,0.1613X0.0003*%
%ADD194R,0.1618X0.0003*%
%ADD195R,0.1620X0.0003*%
%ADD196R,0.1625X0.0003*%
%ADD197R,0.1633X0.0003*%
%ADD198R,0.1638X0.0003*%
%ADD199R,0.1640X0.0003*%
%ADD200R,0.1645X0.0003*%
%ADD201R,0.1653X0.0003*%
%ADD202R,0.1655X0.0003*%
%ADD203R,0.1660X0.0003*%
%ADD204R,0.1665X0.0003*%
%ADD205R,0.1673X0.0003*%
%ADD206R,0.1675X0.0003*%
%ADD207R,0.1680X0.0003*%
%ADD208R,0.1685X0.0003*%
%ADD209R,0.1688X0.0003*%
%ADD210R,0.0053X0.0003*%
%ADD211R,0.1693X0.0003*%
%ADD212R,0.1700X0.0003*%
%ADD213R,0.1703X0.0003*%
%ADD214R,0.1708X0.0003*%
%ADD215R,0.1713X0.0003*%
%ADD216R,0.1715X0.0003*%
%ADD217R,0.1720X0.0003*%
%ADD218R,0.1725X0.0003*%
%ADD219R,0.1730X0.0003*%
%ADD220R,0.1735X0.0003*%
%ADD221R,0.1737X0.0003*%
%ADD222R,0.1742X0.0003*%
%ADD223R,0.1747X0.0003*%
%ADD224R,0.1750X0.0003*%
%ADD225R,0.1755X0.0003*%
%ADD226R,0.1757X0.0003*%
%ADD227R,0.0050X0.0003*%
%ADD228R,0.1765X0.0003*%
%ADD229R,0.1770X0.0003*%
%ADD230R,0.1772X0.0003*%
%ADD231R,0.1777X0.0003*%
%ADD232R,0.1780X0.0003*%
%ADD233R,0.1785X0.0003*%
%ADD234R,0.1787X0.0003*%
%ADD235R,0.1792X0.0003*%
%ADD236R,0.1797X0.0003*%
%ADD237R,0.1800X0.0003*%
%ADD238R,0.1805X0.0003*%
%ADD239R,0.1807X0.0003*%
%ADD240R,0.1812X0.0003*%
%ADD241R,0.1815X0.0003*%
%ADD242R,0.1820X0.0003*%
%ADD243R,0.1822X0.0003*%
%ADD244R,0.1827X0.0003*%
%ADD245R,0.1830X0.0003*%
%ADD246R,0.1835X0.0003*%
%ADD247R,0.1837X0.0003*%
%ADD248R,0.1842X0.0003*%
%ADD249R,0.1845X0.0003*%
%ADD250R,0.1850X0.0003*%
%ADD251R,0.0047X0.0003*%
%ADD252R,0.1852X0.0003*%
%ADD253R,0.1857X0.0003*%
%ADD254R,0.1860X0.0003*%
%ADD255R,0.1865X0.0003*%
%ADD256R,0.1867X0.0003*%
%ADD257R,0.1872X0.0003*%
%ADD258R,0.1875X0.0003*%
%ADD259R,0.1878X0.0003*%
%ADD260R,0.1883X0.0003*%
%ADD261R,0.1885X0.0003*%
%ADD262R,0.1890X0.0003*%
%ADD263R,0.1893X0.0003*%
%ADD264R,0.1898X0.0003*%
%ADD265R,0.1900X0.0003*%
%ADD266R,0.1905X0.0003*%
%ADD267R,0.1908X0.0003*%
%ADD268R,0.1913X0.0003*%
%ADD269R,0.1915X0.0003*%
%ADD270R,0.1920X0.0003*%
%ADD271R,0.1923X0.0003*%
%ADD272R,0.1925X0.0003*%
%ADD273R,0.1930X0.0003*%
%ADD274R,0.1933X0.0003*%
%ADD275R,0.0045X0.0003*%
%ADD276R,0.1938X0.0003*%
%ADD277R,0.1940X0.0003*%
%ADD278R,0.1945X0.0003*%
%ADD279R,0.1948X0.0003*%
%ADD280R,0.1950X0.0003*%
%ADD281R,0.1955X0.0003*%
%ADD282R,0.1958X0.0003*%
%ADD283R,0.1960X0.0003*%
%ADD284R,0.1963X0.0003*%
%ADD285R,0.1965X0.0003*%
%ADD286R,0.1968X0.0003*%
%ADD287R,0.1973X0.0003*%
%ADD288R,0.1975X0.0003*%
%ADD289R,0.1978X0.0003*%
%ADD290R,0.1983X0.0003*%
%ADD291R,0.1985X0.0003*%
%ADD292R,0.1990X0.0003*%
%ADD293R,0.1993X0.0003*%
%ADD294R,0.1995X0.0003*%
%ADD295R,0.1998X0.0003*%
%ADD296R,0.2000X0.0003*%
%ADD297R,0.2003X0.0003*%
%ADD298R,0.2008X0.0003*%
%ADD299R,0.2010X0.0003*%
%ADD300R,0.0043X0.0003*%
%ADD301R,0.2013X0.0003*%
%ADD302R,0.0750X0.0003*%
%ADD303R,0.0725X0.0003*%
%ADD304R,0.1217X0.0003*%
%ADD305R,0.0703X0.0003*%
%ADD306R,0.1207X0.0003*%
%ADD307R,0.0695X0.0003*%
%ADD308R,0.1202X0.0003*%
%ADD309R,0.0688X0.0003*%
%ADD310R,0.0683X0.0003*%
%ADD311R,0.1195X0.0003*%
%ADD312R,0.0673X0.0003*%
%ADD313R,0.1185X0.0003*%
%ADD314R,0.0668X0.0003*%
%ADD315R,0.1182X0.0003*%
%ADD316R,0.0663X0.0003*%
%ADD317R,0.0660X0.0003*%
%ADD318R,0.1177X0.0003*%
%ADD319R,0.1175X0.0003*%
%ADD320R,0.0653X0.0003*%
%ADD321R,0.1172X0.0003*%
%ADD322R,0.0650X0.0003*%
%ADD323R,0.0645X0.0003*%
%ADD324R,0.1168X0.0003*%
%ADD325R,0.0643X0.0003*%
%ADD326R,0.1165X0.0003*%
%ADD327R,0.0638X0.0003*%
%ADD328R,0.0635X0.0003*%
%ADD329R,0.0633X0.0003*%
%ADD330R,0.1160X0.0003*%
%ADD331R,0.0625X0.0003*%
%ADD332R,0.1158X0.0003*%
%ADD333R,0.0620X0.0003*%
%ADD334R,0.0617X0.0003*%
%ADD335R,0.0615X0.0003*%
%ADD336R,0.0612X0.0003*%
%ADD337R,0.0610X0.0003*%
%ADD338R,0.0607X0.0003*%
%ADD339R,0.0600X0.0003*%
%ADD340R,0.0597X0.0003*%
%ADD341R,0.0040X0.0003*%
%ADD342R,0.0595X0.0003*%
%ADD343R,0.0592X0.0003*%
%ADD344R,0.0590X0.0003*%
%ADD345R,0.0587X0.0003*%
%ADD346R,0.0585X0.0003*%
%ADD347R,0.0580X0.0003*%
%ADD348R,0.0578X0.0003*%
%ADD349R,0.1190X0.0003*%
%ADD350R,0.1192X0.0003*%
%ADD351R,0.1200X0.0003*%
%ADD352R,0.1215X0.0003*%
%ADD353R,0.0037X0.0003*%
%ADD354R,0.1220X0.0003*%
%ADD355R,0.1225X0.0003*%
%ADD356R,0.1227X0.0003*%
%ADD357R,0.1232X0.0003*%
%ADD358R,0.1235X0.0003*%
%ADD359R,0.1240X0.0003*%
%ADD360R,0.1242X0.0003*%
%ADD361R,0.1245X0.0003*%
%ADD362R,0.1250X0.0003*%
%ADD363R,0.1255X0.0003*%
%ADD364R,0.1265X0.0003*%
%ADD365R,0.1270X0.0003*%
%ADD366R,0.1273X0.0003*%
%ADD367R,0.1288X0.0003*%
%ADD368R,0.1295X0.0003*%
%ADD369R,0.1298X0.0003*%
%ADD370R,0.1303X0.0003*%
%ADD371R,0.1310X0.0003*%
%ADD372R,0.1315X0.0003*%
%ADD373R,0.1318X0.0003*%
%ADD374R,0.1323X0.0003*%
%ADD375R,0.1325X0.0003*%
%ADD376R,0.0628X0.0003*%
%ADD377R,0.1333X0.0003*%
%ADD378R,0.1340X0.0003*%
%ADD379R,0.1353X0.0003*%
%ADD380R,0.1355X0.0003*%
%ADD381R,0.0648X0.0003*%
%ADD382R,0.1365X0.0003*%
%ADD383R,0.1380X0.0003*%
%ADD384R,0.1385X0.0003*%
%ADD385R,0.0665X0.0003*%
%ADD386R,0.0670X0.0003*%
%ADD387R,0.1398X0.0003*%
%ADD388R,0.0680X0.0003*%
%ADD389R,0.1410X0.0003*%
%ADD390R,0.0685X0.0003*%
%ADD391R,0.1417X0.0003*%
%ADD392R,0.1425X0.0003*%
%ADD393R,0.0700X0.0003*%
%ADD394R,0.1435X0.0003*%
%ADD395R,0.0707X0.0003*%
%ADD396R,0.1445X0.0003*%
%ADD397R,0.0717X0.0003*%
%ADD398R,0.1455X0.0003*%
%ADD399R,0.0735X0.0003*%
%ADD400R,0.1475X0.0003*%
%ADD401R,0.2253X0.0003*%
%ADD402R,0.2255X0.0003*%
%ADD403R,0.2258X0.0003*%
%ADD404R,0.0035X0.0003*%
%ADD405R,0.2250X0.0003*%
%ADD406R,0.2248X0.0003*%
%ADD407R,0.2245X0.0003*%
%ADD408R,0.2243X0.0003*%
%ADD409R,0.2240X0.0003*%
%ADD410R,0.2238X0.0003*%
%ADD411R,0.2235X0.0003*%
%ADD412R,0.2233X0.0003*%
%ADD413R,0.2230X0.0003*%
%ADD414R,0.2228X0.0003*%
%ADD415R,0.2225X0.0003*%
%ADD416R,0.2223X0.0003*%
%ADD417R,0.2220X0.0003*%
%ADD418R,0.2218X0.0003*%
%ADD419R,0.2215X0.0003*%
%ADD420R,0.2213X0.0003*%
%ADD421R,0.2210X0.0003*%
%ADD422R,0.2208X0.0003*%
%ADD423R,0.2205X0.0003*%
%ADD424R,0.2203X0.0003*%
%ADD425R,0.2200X0.0003*%
%ADD426R,0.2198X0.0003*%
%ADD427R,0.2195X0.0003*%
%ADD428R,0.2193X0.0003*%
%ADD429R,0.2190X0.0003*%
%ADD430R,0.2188X0.0003*%
%ADD431R,0.2185X0.0003*%
%ADD432R,0.2182X0.0003*%
%ADD433R,0.2180X0.0003*%
%ADD434R,0.2177X0.0003*%
%ADD435R,0.2175X0.0003*%
%ADD436R,0.2172X0.0003*%
%ADD437R,0.2170X0.0003*%
%ADD438R,0.2167X0.0003*%
%ADD439R,0.2165X0.0003*%
%ADD440R,0.2162X0.0003*%
%ADD441R,0.2160X0.0003*%
%ADD442R,0.2157X0.0003*%
%ADD443R,0.2155X0.0003*%
%ADD444R,0.2152X0.0003*%
%ADD445R,0.2150X0.0003*%
%ADD446R,0.2147X0.0003*%
%ADD447R,0.2145X0.0003*%
%ADD448R,0.2142X0.0003*%
%ADD449R,0.2140X0.0003*%
%ADD450R,0.2137X0.0003*%
%ADD451R,0.2135X0.0003*%
%ADD452R,0.2132X0.0003*%
%ADD453R,0.2130X0.0003*%
%ADD454R,0.2127X0.0003*%
%ADD455R,0.2125X0.0003*%
%ADD456R,0.2122X0.0003*%
%ADD457R,0.2120X0.0003*%
%ADD458R,0.2117X0.0003*%
%ADD459R,0.2115X0.0003*%
%ADD460R,0.2112X0.0003*%
%ADD461R,0.2110X0.0003*%
%ADD462R,0.2107X0.0003*%
%ADD463R,0.2105X0.0003*%
%ADD464R,0.2100X0.0003*%
%ADD465R,0.2097X0.0003*%
%ADD466R,0.2095X0.0003*%
%ADD467R,0.2092X0.0003*%
%ADD468R,0.2090X0.0003*%
%ADD469R,0.2085X0.0003*%
%ADD470R,0.2082X0.0003*%
%ADD471R,0.2080X0.0003*%
%ADD472R,0.2075X0.0003*%
%ADD473R,0.2072X0.0003*%
%ADD474R,0.2070X0.0003*%
%ADD475R,0.2065X0.0003*%
%ADD476R,0.2062X0.0003*%
%ADD477R,0.2060X0.0003*%
%ADD478R,0.2055X0.0003*%
%ADD479R,0.2052X0.0003*%
%ADD480R,0.2047X0.0003*%
%ADD481R,0.2045X0.0003*%
%ADD482R,0.2040X0.0003*%
%ADD483R,0.2037X0.0003*%
%ADD484R,0.0032X0.0003*%
%ADD485R,0.2035X0.0003*%
%ADD486R,0.2032X0.0003*%
%ADD487R,0.2028X0.0003*%
%ADD488R,0.2025X0.0003*%
%ADD489R,0.2020X0.0003*%
%ADD490R,0.2018X0.0003*%
%ADD491R,0.2005X0.0003*%
%ADD492R,0.1988X0.0003*%
%ADD493R,0.1953X0.0003*%
%ADD494R,0.1943X0.0003*%
%ADD495R,0.1910X0.0003*%
%ADD496R,0.1903X0.0003*%
%ADD497R,0.1810X0.0003*%
%ADD498R,0.1802X0.0003*%
%ADD499R,0.1790X0.0003*%
%ADD500R,0.1545X0.0003*%
%ADD501R,0.1517X0.0003*%
%ADD502R,0.1497X0.0003*%
%ADD503R,0.1480X0.0003*%
%ADD504R,0.1467X0.0003*%
%ADD505R,0.1440X0.0003*%
%ADD506R,0.1400X0.0003*%
%ADD507R,0.1348X0.0003*%
%ADD508R,0.1285X0.0003*%
%ADD509R,0.1280X0.0003*%
%ADD510R,0.1263X0.0003*%
%ADD511R,0.1258X0.0003*%
%ADD512R,0.1150X0.0003*%
%ADD513R,0.1143X0.0003*%
%ADD514R,0.1140X0.0003*%
%ADD515R,0.1135X0.0003*%
%ADD516R,0.1133X0.0003*%
%ADD517R,0.1125X0.0003*%
%ADD518R,0.1123X0.0003*%
%ADD519R,0.1110X0.0003*%
%ADD520R,0.1108X0.0003*%
%ADD521R,0.1105X0.0003*%
%ADD522R,0.1098X0.0003*%
%ADD523R,0.1095X0.0003*%
%ADD524R,0.1087X0.0003*%
%ADD525R,0.1080X0.0003*%
%ADD526R,0.1077X0.0003*%
%ADD527R,0.1075X0.0003*%
%ADD528R,0.1070X0.0003*%
%ADD529R,0.1060X0.0003*%
%ADD530R,0.1057X0.0003*%
%ADD531R,0.1055X0.0003*%
%ADD532R,0.1050X0.0003*%
%ADD533R,0.1047X0.0003*%
%ADD534R,0.1045X0.0003*%
%ADD535R,0.1037X0.0003*%
%ADD536R,0.1035X0.0003*%
%ADD537R,0.1030X0.0003*%
%ADD538R,0.1027X0.0003*%
%ADD539R,0.1022X0.0003*%
%ADD540R,0.1020X0.0003*%
%ADD541R,0.1015X0.0003*%
%ADD542R,0.1010X0.0003*%
%ADD543R,0.1008X0.0003*%
%ADD544R,0.1005X0.0003*%
%ADD545R,0.1000X0.0003*%
%ADD546R,0.0998X0.0003*%
%ADD547R,0.0995X0.0003*%
%ADD548R,0.0990X0.0003*%
%ADD549R,0.0985X0.0003*%
%ADD550R,0.0983X0.0003*%
%ADD551R,0.0978X0.0003*%
%ADD552R,0.0975X0.0003*%
%ADD553R,0.0968X0.0003*%
%ADD554R,0.0965X0.0003*%
%ADD555R,0.0963X0.0003*%
%ADD556R,0.0955X0.0003*%
%ADD557R,0.0953X0.0003*%
%ADD558R,0.0950X0.0003*%
%ADD559R,0.0943X0.0003*%
%ADD560R,0.0940X0.0003*%
%ADD561R,0.0938X0.0003*%
%ADD562R,0.0932X0.0003*%
%ADD563R,0.0930X0.0003*%
%ADD564R,0.0927X0.0003*%
%ADD565R,0.0922X0.0003*%
%ADD566R,0.0920X0.0003*%
%ADD567R,0.0917X0.0003*%
%ADD568R,0.0915X0.0003*%
%ADD569R,0.0910X0.0003*%
%ADD570R,0.0907X0.0003*%
%ADD571R,0.0900X0.0003*%
%ADD572R,0.0897X0.0003*%
%ADD573R,0.0892X0.0003*%
%ADD574R,0.0887X0.0003*%
%ADD575R,0.0882X0.0003*%
%ADD576R,0.0880X0.0003*%
%ADD577R,0.0875X0.0003*%
%ADD578R,0.0872X0.0003*%
%ADD579R,0.0870X0.0003*%
%ADD580R,0.0867X0.0003*%
%ADD581R,0.0862X0.0003*%
%ADD582R,0.0860X0.0003*%
%ADD583R,0.0858X0.0003*%
%ADD584R,0.0855X0.0003*%
%ADD585R,0.0850X0.0003*%
%ADD586R,0.0848X0.0003*%
%ADD587R,0.0845X0.0003*%
%ADD588R,0.0843X0.0003*%
%ADD589R,0.0835X0.0003*%
%ADD590R,0.0830X0.0003*%
%ADD591R,0.0828X0.0003*%
%ADD592R,0.0823X0.0003*%
%ADD593R,0.0818X0.0003*%
%ADD594R,0.0815X0.0003*%
%ADD595R,0.0813X0.0003*%
%ADD596R,0.0805X0.0003*%
%ADD597R,0.0803X0.0003*%
%ADD598R,0.0798X0.0003*%
%ADD599R,0.0795X0.0003*%
%ADD600R,0.0793X0.0003*%
%ADD601R,0.0790X0.0003*%
%ADD602R,0.0788X0.0003*%
%ADD603R,0.0783X0.0003*%
%ADD604R,0.0780X0.0003*%
%ADD605R,0.0777X0.0003*%
%ADD606R,0.0775X0.0003*%
%ADD607R,0.0770X0.0003*%
%ADD608R,0.0767X0.0003*%
%ADD609R,0.0765X0.0003*%
%ADD610R,0.0762X0.0003*%
%ADD611R,0.0760X0.0003*%
%ADD612R,0.0755X0.0003*%
%ADD613R,0.0752X0.0003*%
%ADD614R,0.0745X0.0003*%
%ADD615R,0.0740X0.0003*%
%ADD616R,0.0737X0.0003*%
%ADD617R,0.0135X0.0003*%
%ADD618R,0.0732X0.0003*%
%ADD619R,0.0730X0.0003*%
%ADD620R,0.0180X0.0003*%
%ADD621R,0.0192X0.0003*%
%ADD622R,0.0200X0.0003*%
%ADD623R,0.0210X0.0003*%
%ADD624R,0.0720X0.0003*%
%ADD625R,0.0225X0.0003*%
%ADD626R,0.0235X0.0003*%
%ADD627R,0.0240X0.0003*%
%ADD628R,0.0715X0.0003*%
%ADD629R,0.0250X0.0003*%
%ADD630R,0.0255X0.0003*%
%ADD631R,0.0260X0.0003*%
%ADD632R,0.0267X0.0003*%
%ADD633R,0.0710X0.0003*%
%ADD634R,0.0280X0.0003*%
%ADD635R,0.0705X0.0003*%
%ADD636R,0.0285X0.0003*%
%ADD637R,0.0290X0.0003*%
%ADD638R,0.0295X0.0003*%
%ADD639R,0.0300X0.0003*%
%ADD640R,0.0305X0.0003*%
%ADD641R,0.0698X0.0003*%
%ADD642R,0.0310X0.0003*%
%ADD643R,0.0315X0.0003*%
%ADD644R,0.0318X0.0003*%
%ADD645R,0.0320X0.0003*%
%ADD646R,0.0325X0.0003*%
%ADD647R,0.0690X0.0003*%
%ADD648R,0.0330X0.0003*%
%ADD649R,0.0340X0.0003*%
%ADD650R,0.0345X0.0003*%
%ADD651R,0.0348X0.0003*%
%ADD652R,0.0350X0.0003*%
%ADD653R,0.0355X0.0003*%
%ADD654R,0.0360X0.0003*%
%ADD655R,0.0675X0.0003*%
%ADD656R,0.0365X0.0003*%
%ADD657R,0.0370X0.0003*%
%ADD658R,0.0380X0.0003*%
%ADD659R,0.0385X0.0003*%
%ADD660R,0.0390X0.0003*%
%ADD661R,0.0395X0.0003*%
%ADD662R,0.0398X0.0003*%
%ADD663R,0.0400X0.0003*%
%ADD664R,0.0405X0.0003*%
%ADD665R,0.0410X0.0003*%
%ADD666R,0.0415X0.0003*%
%ADD667R,0.0408X0.0003*%
%ADD668R,0.0573X0.0003*%
%ADD669R,0.0570X0.0003*%
%ADD670R,0.0568X0.0003*%
%ADD671R,0.0565X0.0003*%
%ADD672R,0.0372X0.0003*%
%ADD673R,0.0367X0.0003*%
%ADD674R,0.0560X0.0003*%
%ADD675R,0.0558X0.0003*%
%ADD676R,0.0555X0.0003*%
%ADD677R,0.0352X0.0003*%
%ADD678R,0.0553X0.0003*%
%ADD679R,0.0550X0.0003*%
%ADD680R,0.0548X0.0003*%
%ADD681R,0.0542X0.0003*%
%ADD682R,0.0537X0.0003*%
%ADD683R,0.0302X0.0003*%
%ADD684R,0.0535X0.0003*%
%ADD685R,0.0288X0.0003*%
%ADD686R,0.0532X0.0003*%
%ADD687R,0.0530X0.0003*%
%ADD688R,0.0527X0.0003*%
%ADD689R,0.0265X0.0003*%
%ADD690R,0.0253X0.0003*%
%ADD691R,0.0525X0.0003*%
%ADD692R,0.0245X0.0003*%
%ADD693R,0.0522X0.0003*%
%ADD694R,0.0230X0.0003*%
%ADD695R,0.0215X0.0003*%
%ADD696R,0.0517X0.0003*%
%ADD697R,0.0190X0.0003*%
%ADD698R,0.0512X0.0003*%
%ADD699R,0.0155X0.0003*%
%ADD700R,0.0510X0.0003*%
%ADD701R,0.0508X0.0003*%
%ADD702R,0.0505X0.0003*%
%ADD703R,0.0010X0.0003*%
%ADD704R,0.0503X0.0003*%
%ADD705R,0.0500X0.0003*%
%ADD706R,0.0498X0.0003*%
%ADD707R,0.0495X0.0003*%
%ADD708R,0.0493X0.0003*%
%ADD709R,0.0488X0.0003*%
%ADD710R,0.0485X0.0003*%
%ADD711R,0.0483X0.0003*%
%ADD712R,0.0480X0.0003*%
%ADD713R,0.0478X0.0003*%
%ADD714R,0.0475X0.0003*%
%ADD715R,0.0473X0.0003*%
%ADD716R,0.0470X0.0003*%
%ADD717R,0.0467X0.0003*%
%ADD718R,0.0465X0.0003*%
%ADD719R,0.0462X0.0003*%
%ADD720R,0.0457X0.0003*%
%ADD721R,0.0455X0.0003*%
%ADD722R,0.0452X0.0003*%
%ADD723R,0.0447X0.0003*%
%ADD724R,0.0445X0.0003*%
%ADD725R,0.0442X0.0003*%
%ADD726R,0.0440X0.0003*%
%ADD727R,0.0437X0.0003*%
%ADD728R,0.0435X0.0003*%
%ADD729R,0.0432X0.0003*%
%ADD730R,0.0428X0.0003*%
%ADD731R,0.0425X0.0003*%
%ADD732R,0.0423X0.0003*%
%ADD733R,0.0420X0.0003*%
%ADD734R,0.0418X0.0003*%
%ADD735R,0.0393X0.0003*%
%ADD736R,0.0387X0.0003*%
%ADD737R,0.0382X0.0003*%
%ADD738R,0.0377X0.0003*%
%ADD739R,0.0362X0.0003*%
%ADD740R,0.0343X0.0003*%
%ADD741R,0.0338X0.0003*%
%ADD742R,0.0333X0.0003*%
%ADD743R,0.0328X0.0003*%
%ADD744R,0.0323X0.0003*%
%ADD745R,0.0312X0.0003*%
%ADD746R,0.0307X0.0003*%
%ADD747R,0.0297X0.0003*%
%ADD748R,0.0293X0.0003*%
%ADD749R,0.0283X0.0003*%
%ADD750R,0.0278X0.0003*%
%ADD751R,0.0272X0.0003*%
%ADD752R,0.0262X0.0003*%
%ADD753R,0.0257X0.0003*%
%ADD754R,0.0248X0.0003*%
%ADD755R,0.0238X0.0003*%
%ADD756R,0.0140X0.0003*%
%ADD757R,0.0145X0.0003*%
%ADD758R,0.0158X0.0003*%
%ADD759R,0.0195X0.0003*%
%ADD760R,0.0150X0.0003*%
%ADD761R,0.0165X0.0003*%
%ADD762R,0.0173X0.0003*%
%ADD763R,0.0203X0.0003*%
%ADD764R,0.0018X0.0003*%
%ADD765R,0.0020X0.0003*%
%ADD766R,0.0025X0.0003*%
%ADD767R,0.0015X0.0003*%
%ADD768R,0.0005X0.0003*%
%ADD769R,0.0027X0.0003*%
%ADD770R,0.0127X0.0003*%
%ADD771R,0.0168X0.0003*%
%ADD772R,0.0177X0.0003*%
%ADD773R,0.0182X0.0003*%
%ADD774R,0.0030X0.0003*%
%ADD775R,0.0187X0.0003*%
%ADD776R,0.0022X0.0003*%
%ADD777R,0.0222X0.0003*%
%ADD778R,0.0227X0.0003*%
%ADD779R,0.0213X0.0003*%
D10*
X005224Y003819D02*
X005224Y003949D01*
X005268Y003992D01*
X005441Y003992D01*
X005485Y003949D01*
X005485Y003819D01*
X005224Y003819D01*
X005528Y004086D02*
X005528Y004259D01*
X005485Y004353D02*
X005485Y004440D01*
X005485Y004396D02*
X005224Y004396D01*
X005224Y004353D02*
X005224Y004440D01*
X005224Y004704D02*
X005485Y004531D01*
X005441Y004798D02*
X005268Y004798D01*
X005224Y004841D01*
X005224Y004928D01*
X005268Y004971D01*
X005441Y004971D01*
X005485Y004928D01*
X005485Y004841D01*
X005441Y004798D01*
X006568Y005920D02*
X006525Y005963D01*
X006698Y006137D01*
X006698Y005963D01*
X006655Y005920D01*
X006568Y005920D01*
X006525Y005963D02*
X006525Y006137D01*
X006568Y006180D01*
X006655Y006180D01*
X006698Y006137D01*
X006698Y006220D02*
X006611Y006307D01*
X006655Y006307D02*
X006525Y006307D01*
X006525Y006220D02*
X006525Y006480D01*
X006655Y006480D01*
X006698Y006437D01*
X006698Y006350D01*
X006655Y006307D01*
X006792Y006350D02*
X006965Y006350D01*
X006922Y006220D02*
X006922Y006480D01*
X006792Y006350D01*
X007275Y006182D02*
X007275Y006138D01*
X007318Y006095D01*
X007405Y006095D01*
X007448Y006052D01*
X007448Y006008D01*
X007405Y005965D01*
X007318Y005965D01*
X007275Y006008D01*
X007275Y006182D02*
X007318Y006225D01*
X007405Y006225D01*
X007448Y006182D01*
X007542Y006225D02*
X007715Y005965D01*
X007715Y006225D01*
X007809Y006095D02*
X007939Y006095D01*
X007982Y006052D01*
X007982Y006008D01*
X007939Y005965D01*
X007852Y005965D01*
X007809Y006008D01*
X007809Y006095D01*
X007895Y006182D01*
X007982Y006225D01*
X008076Y006225D02*
X008076Y006095D01*
X008162Y006138D01*
X008206Y006138D01*
X008249Y006095D01*
X008249Y006008D01*
X008206Y005965D01*
X008119Y005965D01*
X008076Y006008D01*
X008076Y006225D02*
X008249Y006225D01*
X008343Y006225D02*
X008343Y005965D01*
X008516Y005965D01*
X008610Y006052D02*
X008696Y005965D01*
X008783Y006052D01*
X008783Y006225D01*
X008877Y006225D02*
X009007Y006225D01*
X009050Y006182D01*
X009050Y006008D01*
X009007Y005965D01*
X008877Y005965D01*
X008877Y006225D01*
X008610Y006225D02*
X008610Y006052D01*
X009144Y006008D02*
X009187Y005965D01*
X009274Y005965D01*
X009317Y006008D01*
X009317Y006052D01*
X009274Y006095D01*
X009187Y006095D01*
X009144Y006138D01*
X009144Y006182D01*
X009187Y006225D01*
X009274Y006225D01*
X009317Y006182D01*
X009411Y006138D02*
X009497Y006225D01*
X009497Y005965D01*
X009411Y005965D02*
X009584Y005965D01*
X010025Y005963D02*
X010198Y006137D01*
X010198Y005963D01*
X010155Y005920D01*
X010068Y005920D01*
X010025Y005963D01*
X010025Y006137D01*
X010068Y006180D01*
X010155Y006180D01*
X010198Y006137D01*
X010198Y006220D02*
X010111Y006307D01*
X010155Y006307D02*
X010025Y006307D01*
X010025Y006220D02*
X010025Y006480D01*
X010155Y006480D01*
X010198Y006437D01*
X010198Y006350D01*
X010155Y006307D01*
X010292Y006350D02*
X010378Y006393D01*
X010422Y006393D01*
X010465Y006350D01*
X010465Y006263D01*
X010422Y006220D01*
X010335Y006220D01*
X010292Y006263D01*
X010292Y006350D02*
X010292Y006480D01*
X010465Y006480D01*
X010775Y006182D02*
X010775Y006138D01*
X010818Y006095D01*
X010905Y006095D01*
X010948Y006052D01*
X010948Y006008D01*
X010905Y005965D01*
X010818Y005965D01*
X010775Y006008D01*
X011042Y005965D02*
X011042Y006225D01*
X011215Y005965D01*
X011215Y006225D01*
X011309Y006095D02*
X011439Y006095D01*
X011482Y006052D01*
X011482Y006008D01*
X011439Y005965D01*
X011352Y005965D01*
X011309Y006008D01*
X011309Y006095D01*
X011395Y006182D01*
X011482Y006225D01*
X011576Y006225D02*
X011576Y006095D01*
X011662Y006138D01*
X011706Y006138D01*
X011749Y006095D01*
X011749Y006008D01*
X011706Y005965D01*
X011619Y005965D01*
X011576Y006008D01*
X011576Y006225D02*
X011749Y006225D01*
X011843Y006225D02*
X011843Y005965D01*
X012016Y005965D01*
X012110Y006052D02*
X012196Y005965D01*
X012283Y006052D01*
X012283Y006225D01*
X012377Y006225D02*
X012507Y006225D01*
X012550Y006182D01*
X012550Y006008D01*
X012507Y005965D01*
X012377Y005965D01*
X012377Y006225D01*
X012110Y006225D02*
X012110Y006052D01*
X012644Y006008D02*
X012687Y005965D01*
X012774Y005965D01*
X012817Y006008D01*
X012817Y006052D01*
X012774Y006095D01*
X012687Y006095D01*
X012644Y006138D01*
X012644Y006182D01*
X012687Y006225D01*
X012774Y006225D01*
X012817Y006182D01*
X012911Y006182D02*
X012954Y006225D01*
X013041Y006225D01*
X013084Y006182D01*
X013084Y006138D01*
X012911Y005965D01*
X013084Y005965D01*
X012012Y005225D02*
X011882Y005095D01*
X012055Y005095D01*
X012012Y004965D02*
X012012Y005225D01*
X011788Y005225D02*
X011788Y005008D01*
X011745Y004965D01*
X011658Y004965D01*
X011615Y005008D01*
X011615Y005225D01*
X010948Y006182D02*
X010905Y006225D01*
X010818Y006225D01*
X010775Y006182D01*
X008555Y005182D02*
X008555Y005138D01*
X008512Y005095D01*
X008555Y005052D01*
X008555Y005008D01*
X008512Y004965D01*
X008425Y004965D01*
X008382Y005008D01*
X008288Y005008D02*
X008288Y005225D01*
X008382Y005182D02*
X008425Y005225D01*
X008512Y005225D01*
X008555Y005182D01*
X008512Y005095D02*
X008468Y005095D01*
X008288Y005008D02*
X008245Y004965D01*
X008158Y004965D01*
X008115Y005008D01*
X008115Y005225D01*
X007542Y005965D02*
X007542Y006225D01*
X008058Y007965D02*
X008145Y007965D01*
X008188Y008008D01*
X008188Y008225D01*
X008282Y008138D02*
X008368Y008225D01*
X008368Y007965D01*
X008282Y007965D02*
X008455Y007965D01*
X008058Y007965D02*
X008015Y008008D01*
X008015Y008225D01*
X007939Y008965D02*
X007852Y008965D01*
X007809Y009008D01*
X007809Y009095D01*
X007939Y009095D01*
X007982Y009052D01*
X007982Y009008D01*
X007939Y008965D01*
X008076Y009008D02*
X008119Y008965D01*
X008206Y008965D01*
X008249Y009008D01*
X008249Y009095D01*
X008206Y009138D01*
X008162Y009138D01*
X008076Y009095D01*
X008076Y009225D01*
X008249Y009225D01*
X008343Y009225D02*
X008343Y008965D01*
X008516Y008965D01*
X008610Y009052D02*
X008696Y008965D01*
X008783Y009052D01*
X008783Y009225D01*
X008877Y009225D02*
X009007Y009225D01*
X009050Y009182D01*
X009050Y009008D01*
X009007Y008965D01*
X008877Y008965D01*
X008877Y009225D01*
X008610Y009225D02*
X008610Y009052D01*
X009144Y009008D02*
X009187Y008965D01*
X009274Y008965D01*
X009317Y009008D01*
X009317Y009052D01*
X009274Y009095D01*
X009187Y009095D01*
X009144Y009138D01*
X009144Y009182D01*
X009187Y009225D01*
X009274Y009225D01*
X009317Y009182D01*
X009411Y009138D02*
X009497Y009225D01*
X009497Y008965D01*
X009411Y008965D02*
X009584Y008965D01*
X010025Y008963D02*
X010025Y009137D01*
X010068Y009180D01*
X010155Y009180D01*
X010198Y009137D01*
X010025Y008963D01*
X010068Y008920D01*
X010155Y008920D01*
X010198Y008963D01*
X010198Y009137D01*
X010198Y009220D02*
X010111Y009307D01*
X010155Y009307D02*
X010025Y009307D01*
X010025Y009220D02*
X010025Y009480D01*
X010155Y009480D01*
X010198Y009437D01*
X010198Y009350D01*
X010155Y009307D01*
X010292Y009263D02*
X010335Y009220D01*
X010422Y009220D01*
X010465Y009263D01*
X010465Y009307D01*
X010422Y009350D01*
X010378Y009350D01*
X010422Y009350D02*
X010465Y009393D01*
X010465Y009437D01*
X010422Y009480D01*
X010335Y009480D01*
X010292Y009437D01*
X010775Y009182D02*
X010775Y009138D01*
X010818Y009095D01*
X010905Y009095D01*
X010948Y009052D01*
X010948Y009008D01*
X010905Y008965D01*
X010818Y008965D01*
X010775Y009008D01*
X010775Y009182D02*
X010818Y009225D01*
X010905Y009225D01*
X010948Y009182D01*
X011042Y009225D02*
X011215Y008965D01*
X011215Y009225D01*
X011309Y009095D02*
X011439Y009095D01*
X011482Y009052D01*
X011482Y009008D01*
X011439Y008965D01*
X011352Y008965D01*
X011309Y009008D01*
X011309Y009095D01*
X011395Y009182D01*
X011482Y009225D01*
X011576Y009225D02*
X011576Y009095D01*
X011662Y009138D01*
X011706Y009138D01*
X011749Y009095D01*
X011749Y009008D01*
X011706Y008965D01*
X011619Y008965D01*
X011576Y009008D01*
X011576Y009225D02*
X011749Y009225D01*
X011843Y009225D02*
X011843Y008965D01*
X012016Y008965D01*
X012110Y009052D02*
X012196Y008965D01*
X012283Y009052D01*
X012283Y009225D01*
X012377Y009225D02*
X012507Y009225D01*
X012550Y009182D01*
X012550Y009008D01*
X012507Y008965D01*
X012377Y008965D01*
X012377Y009225D01*
X012110Y009225D02*
X012110Y009052D01*
X012644Y009008D02*
X012687Y008965D01*
X012774Y008965D01*
X012817Y009008D01*
X012817Y009052D01*
X012774Y009095D01*
X012687Y009095D01*
X012644Y009138D01*
X012644Y009182D01*
X012687Y009225D01*
X012774Y009225D01*
X012817Y009182D01*
X012911Y009182D02*
X012954Y009225D01*
X013041Y009225D01*
X013084Y009182D01*
X013084Y009138D01*
X012911Y008965D01*
X013084Y008965D01*
X012055Y008182D02*
X012012Y008225D01*
X011925Y008225D01*
X011882Y008182D01*
X011788Y008225D02*
X011788Y008008D01*
X011745Y007965D01*
X011658Y007965D01*
X011615Y008008D01*
X011615Y008225D01*
X011882Y007965D02*
X012055Y008138D01*
X012055Y008182D01*
X012055Y007965D02*
X011882Y007965D01*
X011042Y008965D02*
X011042Y009225D01*
X007982Y009225D02*
X007895Y009182D01*
X007809Y009095D01*
X007715Y008965D02*
X007715Y009225D01*
X007542Y009225D02*
X007715Y008965D01*
X007542Y008965D02*
X007542Y009225D01*
X007448Y009182D02*
X007405Y009225D01*
X007318Y009225D01*
X007275Y009182D01*
X007275Y009138D01*
X007318Y009095D01*
X007405Y009095D01*
X007448Y009052D01*
X007448Y009008D01*
X007405Y008965D01*
X007318Y008965D01*
X007275Y009008D01*
X006965Y009220D02*
X006792Y009220D01*
X006965Y009393D01*
X006965Y009437D01*
X006922Y009480D01*
X006835Y009480D01*
X006792Y009437D01*
X006698Y009437D02*
X006698Y009350D01*
X006655Y009307D01*
X006525Y009307D01*
X006611Y009307D02*
X006698Y009220D01*
X006655Y009180D02*
X006698Y009137D01*
X006525Y008963D01*
X006568Y008920D01*
X006655Y008920D01*
X006698Y008963D01*
X006698Y009137D01*
X006655Y009180D02*
X006568Y009180D01*
X006525Y009137D01*
X006525Y008963D01*
X006525Y009220D02*
X006525Y009480D01*
X006655Y009480D01*
X006698Y009437D01*
X014375Y005480D02*
X014375Y005220D01*
X014375Y005307D02*
X014505Y005307D01*
X014548Y005350D01*
X014548Y005437D01*
X014505Y005480D01*
X014375Y005480D01*
X014461Y005307D02*
X014548Y005220D01*
X014642Y005220D02*
X014815Y005220D01*
X014728Y005220D02*
X014728Y005480D01*
X014642Y005393D01*
X014642Y005130D02*
X014642Y004870D01*
X014642Y004957D02*
X014772Y005043D01*
X014642Y004957D02*
X014772Y004870D01*
X014548Y004870D02*
X014375Y004870D01*
X014461Y004870D02*
X014461Y005130D01*
X014375Y005043D01*
X012997Y003225D02*
X012997Y002965D01*
X012911Y002965D02*
X013084Y002965D01*
X012911Y003138D02*
X012997Y003225D01*
X012817Y003182D02*
X012774Y003225D01*
X012687Y003225D01*
X012644Y003182D01*
X012644Y003138D01*
X012687Y003095D01*
X012774Y003095D01*
X012817Y003052D01*
X012817Y003008D01*
X012774Y002965D01*
X012687Y002965D01*
X012644Y003008D01*
X012550Y003008D02*
X012550Y003182D01*
X012507Y003225D01*
X012377Y003225D01*
X012377Y002965D01*
X012507Y002965D01*
X012550Y003008D01*
X012283Y003052D02*
X012283Y003225D01*
X012110Y003225D02*
X012110Y003052D01*
X012196Y002965D01*
X012283Y003052D01*
X012016Y002965D02*
X011843Y002965D01*
X011843Y003225D01*
X011749Y003225D02*
X011576Y003225D01*
X011576Y003095D01*
X011662Y003138D01*
X011706Y003138D01*
X011749Y003095D01*
X011749Y003008D01*
X011706Y002965D01*
X011619Y002965D01*
X011576Y003008D01*
X011482Y003008D02*
X011482Y003052D01*
X011439Y003095D01*
X011309Y003095D01*
X011309Y003008D01*
X011352Y002965D01*
X011439Y002965D01*
X011482Y003008D01*
X011309Y003095D02*
X011395Y003182D01*
X011482Y003225D01*
X011215Y003225D02*
X011215Y002965D01*
X011042Y003225D01*
X011042Y002965D01*
X010948Y003008D02*
X010905Y002965D01*
X010818Y002965D01*
X010775Y003008D01*
X010818Y003095D02*
X010905Y003095D01*
X010948Y003052D01*
X010948Y003008D01*
X010818Y003095D02*
X010775Y003138D01*
X010775Y003182D01*
X010818Y003225D01*
X010905Y003225D01*
X010948Y003182D01*
X010465Y003437D02*
X010292Y003263D01*
X010292Y003220D01*
X010198Y003220D02*
X010111Y003307D01*
X010155Y003307D02*
X010025Y003307D01*
X010025Y003220D02*
X010025Y003480D01*
X010155Y003480D01*
X010198Y003437D01*
X010198Y003350D01*
X010155Y003307D01*
X010155Y003180D02*
X010198Y003137D01*
X010025Y002963D01*
X010068Y002920D01*
X010155Y002920D01*
X010198Y002963D01*
X010198Y003137D01*
X010155Y003180D02*
X010068Y003180D01*
X010025Y003137D01*
X010025Y002963D01*
X009584Y002965D02*
X009411Y002965D01*
X009497Y002965D02*
X009497Y003225D01*
X009411Y003138D01*
X009317Y003182D02*
X009274Y003225D01*
X009187Y003225D01*
X009144Y003182D01*
X009144Y003138D01*
X009187Y003095D01*
X009274Y003095D01*
X009317Y003052D01*
X009317Y003008D01*
X009274Y002965D01*
X009187Y002965D01*
X009144Y003008D01*
X009050Y003008D02*
X009050Y003182D01*
X009007Y003225D01*
X008877Y003225D01*
X008877Y002965D01*
X009007Y002965D01*
X009050Y003008D01*
X008783Y003052D02*
X008783Y003225D01*
X008610Y003225D02*
X008610Y003052D01*
X008696Y002965D01*
X008783Y003052D01*
X008516Y002965D02*
X008343Y002965D01*
X008343Y003225D01*
X008249Y003225D02*
X008076Y003225D01*
X008076Y003095D01*
X008162Y003138D01*
X008206Y003138D01*
X008249Y003095D01*
X008249Y003008D01*
X008206Y002965D01*
X008119Y002965D01*
X008076Y003008D01*
X007982Y003008D02*
X007982Y003052D01*
X007939Y003095D01*
X007809Y003095D01*
X007809Y003008D01*
X007852Y002965D01*
X007939Y002965D01*
X007982Y003008D01*
X007809Y003095D02*
X007895Y003182D01*
X007982Y003225D01*
X007715Y003225D02*
X007715Y002965D01*
X007542Y003225D01*
X007542Y002965D01*
X007448Y003008D02*
X007405Y002965D01*
X007318Y002965D01*
X007275Y003008D01*
X007318Y003095D02*
X007275Y003138D01*
X007275Y003182D01*
X007318Y003225D01*
X007405Y003225D01*
X007448Y003182D01*
X007405Y003095D02*
X007448Y003052D01*
X007448Y003008D01*
X007405Y003095D02*
X007318Y003095D01*
X006965Y003263D02*
X006965Y003307D01*
X006922Y003350D01*
X006792Y003350D01*
X006792Y003263D01*
X006835Y003220D01*
X006922Y003220D01*
X006965Y003263D01*
X006792Y003350D02*
X006878Y003437D01*
X006965Y003480D01*
X006698Y003437D02*
X006698Y003350D01*
X006655Y003307D01*
X006525Y003307D01*
X006611Y003307D02*
X006698Y003220D01*
X006655Y003180D02*
X006698Y003137D01*
X006525Y002963D01*
X006568Y002920D01*
X006655Y002920D01*
X006698Y002963D01*
X006698Y003137D01*
X006655Y003180D02*
X006568Y003180D01*
X006525Y003137D01*
X006525Y002963D01*
X006525Y003220D02*
X006525Y003480D01*
X006655Y003480D01*
X006698Y003437D01*
X008115Y002225D02*
X008115Y002008D01*
X008158Y001965D01*
X008245Y001965D01*
X008288Y002008D01*
X008288Y002225D01*
X008382Y002225D02*
X008382Y002095D01*
X008468Y002138D01*
X008512Y002138D01*
X008555Y002095D01*
X008555Y002008D01*
X008512Y001965D01*
X008425Y001965D01*
X008382Y002008D01*
X008382Y002225D02*
X008555Y002225D01*
X010292Y003480D02*
X010465Y003480D01*
X010465Y003437D01*
X011615Y002225D02*
X011615Y002008D01*
X011658Y001965D01*
X011745Y001965D01*
X011788Y002008D01*
X011788Y002225D01*
X011882Y002095D02*
X011968Y002182D01*
X012055Y002225D01*
X012012Y002095D02*
X011882Y002095D01*
X011882Y002008D01*
X011925Y001965D01*
X012012Y001965D01*
X012055Y002008D01*
X012055Y002052D01*
X012012Y002095D01*
X013621Y002235D02*
X013621Y001945D01*
X013814Y001945D01*
X013916Y002042D02*
X014012Y001945D01*
X014109Y002042D01*
X014109Y002235D01*
X014210Y002235D02*
X014355Y002235D01*
X014404Y002187D01*
X014404Y001993D01*
X014355Y001945D01*
X014210Y001945D01*
X014210Y002235D01*
X013916Y002235D02*
X013916Y002042D01*
X014161Y001658D02*
X014258Y001465D01*
X014355Y001658D01*
X014456Y001658D02*
X014552Y001755D01*
X014552Y001465D01*
X014456Y001465D02*
X014649Y001465D01*
X014750Y001465D02*
X014799Y001465D01*
X014799Y001513D01*
X014750Y001513D01*
X014750Y001465D01*
X014898Y001513D02*
X015091Y001707D01*
X015091Y001513D01*
X015043Y001465D01*
X014946Y001465D01*
X014898Y001513D01*
X014898Y001707D01*
X014946Y001755D01*
X015043Y001755D01*
X015091Y001707D01*
X015241Y001513D02*
X015241Y001465D01*
X015289Y001465D01*
X015289Y001513D01*
X015241Y001513D01*
X015289Y001465D02*
X015192Y001368D01*
X015683Y001465D02*
X015683Y001658D01*
X015780Y001755D01*
X015877Y001658D01*
X015877Y001465D01*
X015978Y001513D02*
X016026Y001465D01*
X016172Y001465D01*
X016172Y001658D01*
X016273Y001610D02*
X016273Y001513D01*
X016321Y001465D01*
X016466Y001465D01*
X016466Y001417D02*
X016466Y001658D01*
X016321Y001658D01*
X016273Y001610D01*
X016567Y001513D02*
X016616Y001513D01*
X016616Y001465D01*
X016567Y001465D01*
X016567Y001513D01*
X016466Y001417D02*
X016418Y001368D01*
X016369Y001368D01*
X015978Y001513D02*
X015978Y001658D01*
X015877Y001610D02*
X015683Y001610D01*
X015683Y001945D02*
X015683Y002138D01*
X015829Y002138D01*
X015877Y002090D01*
X015877Y001945D01*
X015978Y001993D02*
X015978Y002090D01*
X016026Y002138D01*
X016123Y002138D01*
X016172Y002090D01*
X016172Y002042D01*
X015978Y002042D01*
X015978Y001993D02*
X016026Y001945D01*
X016123Y001945D01*
X016321Y001993D02*
X016369Y001945D01*
X016321Y001993D02*
X016321Y002187D01*
X016273Y002138D02*
X016369Y002138D01*
X016469Y002138D02*
X016518Y002138D01*
X016518Y001945D01*
X016566Y001945D02*
X016469Y001945D01*
X016666Y001993D02*
X016666Y002090D01*
X016714Y002138D01*
X016859Y002138D01*
X016960Y002090D02*
X017009Y002138D01*
X017154Y002138D01*
X017105Y002042D02*
X017009Y002042D01*
X016960Y002090D01*
X016960Y001945D02*
X017105Y001945D01*
X017154Y001993D01*
X017105Y002042D01*
X017255Y002090D02*
X017448Y002090D01*
X017550Y002090D02*
X017695Y002090D01*
X017743Y002042D01*
X017743Y001993D01*
X017695Y001945D01*
X017550Y001945D01*
X017550Y002235D01*
X017695Y002235D01*
X017743Y002187D01*
X017743Y002138D01*
X017695Y002090D01*
X017844Y001993D02*
X017893Y001945D01*
X017989Y001945D01*
X018038Y001993D01*
X018038Y002187D01*
X017989Y002235D01*
X017893Y002235D01*
X017844Y002187D01*
X017844Y001993D01*
X017942Y001755D02*
X018038Y001755D01*
X018087Y001707D01*
X018087Y001658D01*
X018038Y001610D01*
X018087Y001562D01*
X018087Y001513D01*
X018038Y001465D01*
X017942Y001465D01*
X017893Y001513D01*
X017792Y001465D02*
X017599Y001465D01*
X017695Y001465D02*
X017695Y001755D01*
X017599Y001658D01*
X017498Y001707D02*
X017304Y001513D01*
X017352Y001465D01*
X017449Y001465D01*
X017498Y001513D01*
X017498Y001707D01*
X017449Y001755D01*
X017352Y001755D01*
X017304Y001707D01*
X017304Y001513D01*
X017203Y001465D02*
X017009Y001465D01*
X017203Y001658D01*
X017203Y001707D01*
X017154Y001755D01*
X017058Y001755D01*
X017009Y001707D01*
X016859Y001945D02*
X016714Y001945D01*
X016666Y001993D01*
X016518Y002235D02*
X016518Y002284D01*
X015582Y002090D02*
X015582Y001945D01*
X015486Y001945D02*
X015486Y002090D01*
X015534Y002138D01*
X015582Y002090D01*
X015486Y002090D02*
X015437Y002138D01*
X015389Y002138D01*
X015389Y001945D01*
X015288Y001993D02*
X015288Y002187D01*
X015239Y002235D01*
X015142Y002235D01*
X015094Y002187D01*
X015094Y001993D01*
X015142Y001945D01*
X015239Y001945D01*
X015288Y001993D01*
X014993Y002090D02*
X014799Y002090D01*
X014698Y002042D02*
X014698Y001993D01*
X014650Y001945D01*
X014553Y001945D01*
X014505Y001993D01*
X014553Y002090D02*
X014650Y002090D01*
X014698Y002042D01*
X014698Y002187D02*
X014650Y002235D01*
X014553Y002235D01*
X014505Y002187D01*
X014505Y002138D01*
X014553Y002090D01*
X017893Y001707D02*
X017942Y001755D01*
X017990Y001610D02*
X018038Y001610D01*
X018139Y001945D02*
X018284Y001945D01*
X018332Y001993D01*
X018332Y002042D01*
X018284Y002090D01*
X018139Y002090D01*
X018284Y002090D02*
X018332Y002138D01*
X018332Y002187D01*
X018284Y002235D01*
X018139Y002235D01*
X018139Y001945D01*
X018681Y008235D02*
X018725Y008278D01*
X018725Y008322D01*
X018681Y008365D01*
X018464Y008365D01*
X018464Y008322D02*
X018464Y008408D01*
X018464Y008502D02*
X018464Y008632D01*
X018508Y008676D01*
X018594Y008676D01*
X018638Y008632D01*
X018638Y008502D01*
X018725Y008502D02*
X018464Y008502D01*
X018551Y008769D02*
X018464Y008856D01*
X018725Y008856D01*
X018725Y008769D02*
X018725Y008943D01*
D11*
X003160Y001300D02*
X003160Y000800D01*
X003410Y000550D01*
X004910Y000550D01*
X005160Y000800D01*
X005160Y001300D01*
X004910Y001550D01*
X003410Y001550D01*
X003160Y001300D01*
X003410Y001550D02*
X003160Y001800D01*
X003160Y002300D01*
X003410Y002550D01*
X004910Y002550D01*
X005160Y002300D01*
X005160Y001800D01*
X004910Y001550D01*
X004910Y002550D02*
X005160Y002800D01*
X005160Y003300D01*
X004910Y003550D01*
X003410Y003550D01*
X003160Y003300D01*
X003160Y002800D01*
X003410Y002550D01*
X003410Y003550D02*
X003160Y003800D01*
X003160Y004300D01*
X003410Y004550D01*
X004910Y004550D01*
X005160Y004300D01*
X005160Y003800D01*
X004910Y003550D01*
X004910Y004550D02*
X003410Y004550D01*
X003160Y004800D01*
X003160Y005300D01*
X003410Y005550D01*
X004910Y005550D01*
X005160Y005300D01*
X005160Y004800D01*
X004910Y004550D01*
X004910Y005550D02*
X005160Y005800D01*
X005160Y006300D01*
X004910Y006550D01*
X003410Y006550D01*
X003160Y006300D01*
X003160Y005800D01*
X003410Y005550D01*
X003410Y006550D02*
X003160Y006800D01*
X003160Y007300D01*
X003410Y007550D01*
X004910Y007550D01*
X005160Y007300D01*
X005160Y006800D01*
X004910Y006550D01*
X004910Y007550D02*
X005160Y007800D01*
X005160Y008300D01*
X004910Y008550D01*
X003410Y008550D01*
X003160Y008300D01*
X003160Y007800D01*
X003410Y007550D01*
X007660Y007840D02*
X007660Y007930D01*
X007660Y008170D01*
X007660Y008260D01*
X007660Y008170D02*
X007681Y008168D01*
X007701Y008163D01*
X007720Y008154D01*
X007737Y008142D01*
X007752Y008127D01*
X007764Y008110D01*
X007773Y008091D01*
X007778Y008071D01*
X007780Y008050D01*
X007778Y008029D01*
X007773Y008009D01*
X007764Y007990D01*
X007752Y007973D01*
X007737Y007958D01*
X007720Y007946D01*
X007701Y007937D01*
X007681Y007932D01*
X007660Y007930D01*
X008130Y008390D02*
X008390Y008390D01*
X008860Y008260D02*
X008860Y007840D01*
X011160Y007840D02*
X011160Y007930D01*
X011160Y008170D01*
X011160Y008260D01*
X011160Y008170D02*
X011181Y008168D01*
X011201Y008163D01*
X011220Y008154D01*
X011237Y008142D01*
X011252Y008127D01*
X011264Y008110D01*
X011273Y008091D01*
X011278Y008071D01*
X011280Y008050D01*
X011278Y008029D01*
X011273Y008009D01*
X011264Y007990D01*
X011252Y007973D01*
X011237Y007958D01*
X011220Y007946D01*
X011201Y007937D01*
X011181Y007932D01*
X011160Y007930D01*
X011630Y008390D02*
X011890Y008390D01*
X012360Y008260D02*
X012360Y007840D01*
X011890Y005390D02*
X011630Y005390D01*
X011160Y005260D02*
X011160Y005170D01*
X011160Y004930D01*
X011160Y004840D01*
X011160Y004930D02*
X011181Y004932D01*
X011201Y004937D01*
X011220Y004946D01*
X011237Y004958D01*
X011252Y004973D01*
X011264Y004990D01*
X011273Y005009D01*
X011278Y005029D01*
X011280Y005050D01*
X011278Y005071D01*
X011273Y005091D01*
X011264Y005110D01*
X011252Y005127D01*
X011237Y005142D01*
X011220Y005154D01*
X011201Y005163D01*
X011181Y005168D01*
X011160Y005170D01*
X012360Y005260D02*
X012360Y004840D01*
X008860Y004840D02*
X008860Y005260D01*
X008390Y005390D02*
X008130Y005390D01*
X007660Y005260D02*
X007660Y005170D01*
X007660Y004930D01*
X007660Y004840D01*
X007660Y004930D02*
X007681Y004932D01*
X007701Y004937D01*
X007720Y004946D01*
X007737Y004958D01*
X007752Y004973D01*
X007764Y004990D01*
X007773Y005009D01*
X007778Y005029D01*
X007780Y005050D01*
X007778Y005071D01*
X007773Y005091D01*
X007764Y005110D01*
X007752Y005127D01*
X007737Y005142D01*
X007720Y005154D01*
X007701Y005163D01*
X007681Y005168D01*
X007660Y005170D01*
X008130Y002390D02*
X008390Y002390D01*
X008860Y002260D02*
X008860Y001840D01*
X007660Y001840D02*
X007660Y001930D01*
X007660Y002170D01*
X007660Y002260D01*
X007660Y002170D02*
X007681Y002168D01*
X007701Y002163D01*
X007720Y002154D01*
X007737Y002142D01*
X007752Y002127D01*
X007764Y002110D01*
X007773Y002091D01*
X007778Y002071D01*
X007780Y002050D01*
X007778Y002029D01*
X007773Y002009D01*
X007764Y001990D01*
X007752Y001973D01*
X007737Y001958D01*
X007720Y001946D01*
X007701Y001937D01*
X007681Y001932D01*
X007660Y001930D01*
X011160Y001930D02*
X011160Y001840D01*
X011160Y001930D02*
X011160Y002170D01*
X011160Y002260D01*
X011160Y002170D02*
X011181Y002168D01*
X011201Y002163D01*
X011220Y002154D01*
X011237Y002142D01*
X011252Y002127D01*
X011264Y002110D01*
X011273Y002091D01*
X011278Y002071D01*
X011280Y002050D01*
X011278Y002029D01*
X011273Y002009D01*
X011264Y001990D01*
X011252Y001973D01*
X011237Y001958D01*
X011220Y001946D01*
X011201Y001937D01*
X011181Y001932D01*
X011160Y001930D01*
X011630Y002390D02*
X011890Y002390D01*
X012360Y002260D02*
X012360Y001840D01*
X018385Y002425D02*
X018430Y002425D01*
X018430Y002175D01*
X019430Y002175D01*
X019430Y003925D01*
X020130Y003925D01*
X020130Y002175D01*
X019430Y002175D01*
X018430Y002425D02*
X018430Y002675D01*
X018385Y002675D01*
X018430Y002675D02*
X018430Y002925D01*
X018385Y002925D01*
X018430Y002925D02*
X018430Y003175D01*
X018385Y003175D01*
X018430Y003175D02*
X018430Y003425D01*
X018430Y003675D01*
X018430Y003925D01*
X019430Y003925D01*
X018430Y003675D02*
X018385Y003675D01*
X018385Y003425D02*
X018430Y003425D01*
X018430Y005175D02*
X018430Y005425D01*
X018430Y005675D01*
X018385Y005675D01*
X018430Y005675D02*
X018430Y005925D01*
X018385Y005925D01*
X018430Y005925D02*
X018430Y006175D01*
X018385Y006175D01*
X018430Y006175D02*
X018430Y006425D01*
X018430Y006675D01*
X018430Y006925D01*
X019430Y006925D01*
X019430Y005175D01*
X018430Y005175D01*
X018430Y005425D02*
X018385Y005425D01*
X019430Y005175D02*
X020130Y005175D01*
X020130Y006925D01*
X019430Y006925D01*
X019210Y007150D02*
X018960Y007400D01*
X018960Y007900D01*
X019210Y008150D01*
X018960Y008400D01*
X018960Y008900D01*
X019210Y009150D01*
X018960Y009400D01*
X018960Y009900D01*
X019210Y010150D01*
X019710Y010150D01*
X019960Y009900D01*
X019960Y009400D01*
X019710Y009150D01*
X019960Y008900D01*
X019960Y008400D01*
X019710Y008150D01*
X019960Y007900D01*
X019960Y007400D01*
X019710Y007150D01*
X019210Y007150D01*
X018430Y006675D02*
X018385Y006675D01*
X018385Y006425D02*
X018430Y006425D01*
X019210Y008150D02*
X019710Y008150D01*
X019710Y009150D02*
X019210Y009150D01*
D12*
X013160Y008650D02*
X013160Y007450D01*
X012560Y007450D01*
X012560Y008650D01*
X013160Y008650D01*
X011110Y008850D02*
X011110Y008250D01*
X009910Y008250D01*
X009910Y008850D01*
X011110Y008850D01*
X011110Y008150D02*
X010510Y008150D01*
X009910Y008150D01*
X009910Y006950D01*
X010510Y006950D01*
X010510Y008150D01*
X010510Y006950D01*
X011110Y006950D01*
X011110Y008150D01*
X011110Y005850D02*
X009910Y005850D01*
X009910Y005250D01*
X011110Y005250D01*
X011110Y005850D01*
X011110Y005150D02*
X010510Y005150D01*
X009910Y005150D01*
X009910Y003950D01*
X010510Y003950D01*
X010510Y005150D01*
X010510Y003950D01*
X011110Y003950D01*
X011110Y005150D01*
X012560Y005650D02*
X012560Y004450D01*
X013160Y004450D01*
X013160Y005650D01*
X012560Y005650D01*
X014310Y004800D02*
X014310Y004200D01*
X015510Y004200D01*
X015510Y004800D01*
X014310Y004800D01*
X015610Y004825D02*
X015610Y004175D01*
X017110Y004175D01*
X017110Y004825D01*
X015610Y004825D01*
X016260Y004650D02*
X016260Y004350D01*
X016460Y004500D01*
X016260Y004650D01*
X016460Y004650D02*
X016460Y004350D01*
X011110Y002850D02*
X011110Y002250D01*
X009910Y002250D01*
X009910Y002850D01*
X011110Y002850D01*
X011110Y002150D02*
X010510Y002150D01*
X009910Y002150D01*
X009910Y000950D01*
X010510Y000950D01*
X010510Y002150D01*
X010510Y000950D01*
X011110Y000950D01*
X011110Y002150D01*
X007610Y002150D02*
X007610Y000950D01*
X007010Y000950D01*
X006410Y000950D01*
X006410Y002150D01*
X007010Y002150D01*
X007010Y000950D01*
X007010Y002150D01*
X007610Y002150D01*
X007610Y002250D02*
X007610Y002850D01*
X006410Y002850D01*
X006410Y002250D01*
X007610Y002250D01*
X007610Y003950D02*
X007010Y003950D01*
X006410Y003950D01*
X006410Y005150D01*
X007010Y005150D01*
X007010Y003950D01*
X007010Y005150D01*
X007610Y005150D01*
X007610Y003950D01*
X007610Y005250D02*
X006410Y005250D01*
X006410Y005850D01*
X007610Y005850D01*
X007610Y005250D01*
X007610Y006950D02*
X007010Y006950D01*
X006410Y006950D01*
X006410Y008150D01*
X007010Y008150D01*
X007010Y006950D01*
X007010Y008150D01*
X007610Y008150D01*
X007610Y006950D01*
X007610Y008250D02*
X006410Y008250D01*
X006410Y008850D01*
X007610Y008850D01*
X007610Y008250D01*
X004860Y008650D02*
X003460Y008650D01*
X003460Y009450D01*
X004860Y009450D01*
X004860Y008650D01*
D13*
X004970Y009360D02*
X005150Y009360D01*
X005060Y009360D02*
X005060Y009630D01*
X004970Y009540D01*
X005015Y009760D02*
X005105Y009760D01*
X005150Y009805D01*
X005237Y009760D02*
X005417Y009760D01*
X005327Y009760D02*
X005327Y010030D01*
X005237Y009940D01*
X005150Y009985D02*
X005105Y010030D01*
X005015Y010030D01*
X004970Y009985D01*
X004970Y009805D01*
X005015Y009760D01*
X005237Y009585D02*
X005282Y009630D01*
X005372Y009630D01*
X005417Y009585D01*
X005237Y009405D01*
X005282Y009360D01*
X005372Y009360D01*
X005417Y009405D01*
X005417Y009585D01*
X005504Y009540D02*
X005504Y009405D01*
X005549Y009360D01*
X005684Y009360D01*
X005684Y009540D01*
X005771Y009495D02*
X005861Y009495D01*
X005771Y009630D02*
X005951Y009630D01*
X005771Y009630D02*
X005771Y009360D01*
X005237Y009405D02*
X005237Y009585D01*
X006029Y007575D02*
X006029Y007395D01*
X006300Y007395D01*
X006300Y007308D02*
X006119Y007308D01*
X006164Y007395D02*
X006164Y007485D01*
X006300Y007308D02*
X006300Y007173D01*
X006254Y007128D01*
X006119Y007128D01*
X006300Y007041D02*
X006300Y006861D01*
X006300Y006772D02*
X006254Y006772D01*
X006254Y006727D01*
X006300Y006727D01*
X006300Y006772D01*
X006254Y006640D02*
X006300Y006595D01*
X006300Y006505D01*
X006254Y006460D01*
X006074Y006640D01*
X006254Y006640D01*
X006074Y006640D02*
X006029Y006595D01*
X006029Y006505D01*
X006074Y006460D01*
X006254Y006460D01*
X005900Y006505D02*
X005900Y006595D01*
X005854Y006640D01*
X005900Y006727D02*
X005719Y006907D01*
X005674Y006907D01*
X005629Y006862D01*
X005629Y006772D01*
X005674Y006727D01*
X005674Y006640D02*
X005629Y006595D01*
X005629Y006505D01*
X005674Y006460D01*
X005854Y006460D01*
X005900Y006505D01*
X005900Y006727D02*
X005900Y006907D01*
X006029Y006951D02*
X006300Y006951D01*
X006119Y006861D02*
X006029Y006951D01*
X007729Y006862D02*
X007729Y006772D01*
X007774Y006727D01*
X007819Y006727D01*
X007864Y006772D01*
X007864Y006862D01*
X007909Y006907D01*
X007954Y006907D01*
X008000Y006862D01*
X008000Y006772D01*
X007954Y006727D01*
X007909Y006727D01*
X007864Y006772D01*
X007864Y006862D02*
X007819Y006907D01*
X007774Y006907D01*
X007729Y006862D01*
X007774Y006640D02*
X007729Y006595D01*
X007729Y006505D01*
X007774Y006460D01*
X007954Y006460D01*
X008000Y006505D01*
X008000Y006595D01*
X007954Y006640D01*
X008129Y006550D02*
X008400Y006550D01*
X008400Y006460D02*
X008400Y006640D01*
X008400Y006727D02*
X008219Y006727D01*
X008219Y006862D01*
X008264Y006907D01*
X008400Y006907D01*
X008400Y006994D02*
X008129Y006994D01*
X008129Y007174D01*
X008264Y007084D02*
X008264Y006994D01*
X008129Y006550D02*
X008219Y006460D01*
X009129Y006505D02*
X009174Y006460D01*
X009354Y006460D01*
X009400Y006505D01*
X009400Y006595D01*
X009354Y006640D01*
X009354Y006727D02*
X009400Y006772D01*
X009400Y006862D01*
X009354Y006907D01*
X009309Y006907D01*
X009264Y006862D01*
X009264Y006817D01*
X009264Y006862D02*
X009219Y006907D01*
X009174Y006907D01*
X009129Y006862D01*
X009129Y006772D01*
X009174Y006727D01*
X009174Y006640D02*
X009129Y006595D01*
X009129Y006505D01*
X009529Y006505D02*
X009529Y006595D01*
X009574Y006640D01*
X009754Y006460D01*
X009800Y006505D01*
X009800Y006595D01*
X009754Y006640D01*
X009574Y006640D01*
X009529Y006505D02*
X009574Y006460D01*
X009754Y006460D01*
X009754Y006727D02*
X009754Y006772D01*
X009800Y006772D01*
X009800Y006727D01*
X009754Y006727D01*
X009800Y006861D02*
X009800Y007041D01*
X009800Y006951D02*
X009529Y006951D01*
X009619Y006861D01*
X009619Y007128D02*
X009754Y007128D01*
X009800Y007173D01*
X009800Y007308D01*
X009619Y007308D01*
X009664Y007395D02*
X009664Y007485D01*
X009529Y007395D02*
X009529Y007575D01*
X009529Y007395D02*
X009800Y007395D01*
X011229Y006862D02*
X011229Y006772D01*
X011274Y006727D01*
X011319Y006727D01*
X011364Y006772D01*
X011364Y006907D01*
X011274Y006907D02*
X011229Y006862D01*
X011274Y006907D02*
X011454Y006907D01*
X011500Y006862D01*
X011500Y006772D01*
X011454Y006727D01*
X011454Y006640D02*
X011500Y006595D01*
X011500Y006505D01*
X011454Y006460D01*
X011274Y006460D01*
X011229Y006505D01*
X011229Y006595D01*
X011274Y006640D01*
X011629Y006550D02*
X011900Y006550D01*
X011900Y006460D02*
X011900Y006640D01*
X011900Y006727D02*
X011719Y006727D01*
X011719Y006862D01*
X011764Y006907D01*
X011900Y006907D01*
X011900Y006994D02*
X011629Y006994D01*
X011629Y007174D01*
X011764Y007084D02*
X011764Y006994D01*
X011629Y006550D02*
X011719Y006460D01*
X012670Y006660D02*
X012850Y006660D01*
X012760Y006660D02*
X012760Y006930D01*
X012670Y006840D01*
X012670Y007060D02*
X012670Y007330D01*
X012805Y007330D01*
X012850Y007285D01*
X012850Y007195D01*
X012805Y007150D01*
X012670Y007150D01*
X012760Y007150D02*
X012850Y007060D01*
X012937Y007105D02*
X012937Y007150D01*
X012982Y007195D01*
X013072Y007195D01*
X013117Y007150D01*
X013117Y007105D01*
X013072Y007060D01*
X012982Y007060D01*
X012937Y007105D01*
X012982Y007195D02*
X012937Y007240D01*
X012937Y007285D01*
X012982Y007330D01*
X013072Y007330D01*
X013117Y007285D01*
X013117Y007240D01*
X013072Y007195D01*
X013072Y006930D02*
X012982Y006930D01*
X012937Y006885D01*
X012937Y006705D01*
X013117Y006885D01*
X013117Y006705D01*
X013072Y006660D01*
X012982Y006660D01*
X012937Y006705D01*
X013117Y006885D02*
X013072Y006930D01*
X013204Y006885D02*
X013204Y006705D01*
X013384Y006885D01*
X013384Y006705D01*
X013339Y006660D01*
X013249Y006660D01*
X013204Y006705D01*
X013204Y006885D02*
X013249Y006930D01*
X013339Y006930D01*
X013384Y006885D01*
X015670Y005085D02*
X015715Y005130D01*
X015805Y005130D01*
X015850Y005085D01*
X015850Y004905D01*
X015805Y004860D01*
X015715Y004860D01*
X015670Y004905D01*
X015670Y005085D01*
X015937Y005130D02*
X015937Y004860D01*
X016117Y004860D02*
X016117Y005130D01*
X015937Y005130D02*
X016117Y004860D01*
X013334Y003885D02*
X013334Y003705D01*
X013289Y003660D01*
X013199Y003660D01*
X013154Y003705D01*
X013334Y003885D01*
X013289Y003930D01*
X013199Y003930D01*
X013154Y003885D01*
X013154Y003705D01*
X013067Y003705D02*
X013022Y003660D01*
X012932Y003660D01*
X012887Y003705D01*
X013067Y003885D01*
X013067Y003705D01*
X013067Y003885D02*
X013022Y003930D01*
X012932Y003930D01*
X012887Y003885D01*
X012887Y003705D01*
X012800Y003660D02*
X012620Y003660D01*
X012710Y003660D02*
X012710Y003930D01*
X012620Y003840D01*
X012670Y004060D02*
X012670Y004330D01*
X012805Y004330D01*
X012850Y004285D01*
X012850Y004195D01*
X012805Y004150D01*
X012670Y004150D01*
X012760Y004150D02*
X012850Y004060D01*
X012937Y004105D02*
X012982Y004060D01*
X013072Y004060D01*
X013117Y004105D01*
X013117Y004285D01*
X013072Y004330D01*
X012982Y004330D01*
X012937Y004285D01*
X012937Y004240D01*
X012982Y004195D01*
X013117Y004195D01*
X011900Y003994D02*
X011629Y003994D01*
X011629Y004174D01*
X011500Y004174D02*
X011500Y003994D01*
X011500Y003907D02*
X011500Y003727D01*
X011500Y003817D02*
X011229Y003817D01*
X011319Y003727D01*
X011274Y003640D02*
X011229Y003595D01*
X011229Y003505D01*
X011274Y003460D01*
X011454Y003460D01*
X011500Y003505D01*
X011500Y003595D01*
X011454Y003640D01*
X011629Y003550D02*
X011900Y003550D01*
X011900Y003460D02*
X011900Y003640D01*
X011900Y003727D02*
X011719Y003727D01*
X011719Y003862D01*
X011764Y003907D01*
X011900Y003907D01*
X011764Y003994D02*
X011764Y004084D01*
X011500Y004084D02*
X011229Y004084D01*
X011319Y003994D01*
X011629Y003550D02*
X011719Y003460D01*
X009800Y003505D02*
X009754Y003460D01*
X009574Y003640D01*
X009754Y003640D01*
X009800Y003595D01*
X009800Y003505D01*
X009754Y003460D02*
X009574Y003460D01*
X009529Y003505D01*
X009529Y003595D01*
X009574Y003640D01*
X009400Y003595D02*
X009354Y003640D01*
X009400Y003595D02*
X009400Y003505D01*
X009354Y003460D01*
X009174Y003460D01*
X009129Y003505D01*
X009129Y003595D01*
X009174Y003640D01*
X009129Y003727D02*
X009264Y003727D01*
X009219Y003817D01*
X009219Y003862D01*
X009264Y003907D01*
X009354Y003907D01*
X009400Y003862D01*
X009400Y003772D01*
X009354Y003727D01*
X009529Y003951D02*
X009619Y003861D01*
X009529Y003951D02*
X009800Y003951D01*
X009800Y003861D02*
X009800Y004041D01*
X009754Y004128D02*
X009800Y004173D01*
X009800Y004308D01*
X009619Y004308D01*
X009664Y004395D02*
X009664Y004485D01*
X009529Y004395D02*
X009529Y004575D01*
X009529Y004395D02*
X009800Y004395D01*
X009754Y004128D02*
X009619Y004128D01*
X009754Y003772D02*
X009800Y003772D01*
X009800Y003727D01*
X009754Y003727D01*
X009754Y003772D01*
X009129Y003727D02*
X009129Y003907D01*
X008400Y003907D02*
X008264Y003907D01*
X008219Y003862D01*
X008219Y003727D01*
X008400Y003727D01*
X008400Y003640D02*
X008400Y003460D01*
X008400Y003550D02*
X008129Y003550D01*
X008219Y003460D01*
X008000Y003505D02*
X008000Y003595D01*
X007954Y003640D01*
X008000Y003727D02*
X008000Y003907D01*
X008000Y003817D02*
X007729Y003817D01*
X007819Y003727D01*
X007774Y003640D02*
X007729Y003595D01*
X007729Y003505D01*
X007774Y003460D01*
X007954Y003460D01*
X008000Y003505D01*
X007954Y003994D02*
X007774Y003994D01*
X007729Y004039D01*
X007729Y004129D01*
X007774Y004174D01*
X007954Y003994D01*
X008000Y004039D01*
X008000Y004129D01*
X007954Y004174D01*
X007774Y004174D01*
X008129Y004174D02*
X008129Y003994D01*
X008400Y003994D01*
X008264Y003994D02*
X008264Y004084D01*
X006300Y004041D02*
X006300Y003861D01*
X006300Y003772D02*
X006300Y003727D01*
X006254Y003727D01*
X006254Y003772D01*
X006300Y003772D01*
X006254Y003640D02*
X006300Y003595D01*
X006300Y003505D01*
X006254Y003460D01*
X006074Y003640D01*
X006254Y003640D01*
X006074Y003640D02*
X006029Y003595D01*
X006029Y003505D01*
X006074Y003460D01*
X006254Y003460D01*
X005900Y003505D02*
X005900Y003595D01*
X005854Y003640D01*
X005764Y003727D02*
X005764Y003907D01*
X005629Y003862D02*
X005764Y003727D01*
X005674Y003640D02*
X005629Y003595D01*
X005629Y003505D01*
X005674Y003460D01*
X005854Y003460D01*
X005900Y003505D01*
X005900Y003862D02*
X005629Y003862D01*
X006029Y003951D02*
X006300Y003951D01*
X006254Y004128D02*
X006300Y004173D01*
X006300Y004308D01*
X006119Y004308D01*
X006164Y004395D02*
X006164Y004485D01*
X006029Y004395D02*
X006029Y004575D01*
X006029Y004395D02*
X006300Y004395D01*
X006254Y004128D02*
X006119Y004128D01*
X006029Y003951D02*
X006119Y003861D01*
X006029Y001575D02*
X006029Y001395D01*
X006300Y001395D01*
X006300Y001308D02*
X006119Y001308D01*
X006164Y001395D02*
X006164Y001485D01*
X006300Y001308D02*
X006300Y001173D01*
X006254Y001128D01*
X006119Y001128D01*
X006029Y000951D02*
X006300Y000951D01*
X006300Y000861D02*
X006300Y001041D01*
X006119Y000861D02*
X006029Y000951D01*
X005900Y000862D02*
X005854Y000907D01*
X005809Y000907D01*
X005764Y000862D01*
X005764Y000727D01*
X005854Y000727D01*
X005900Y000772D01*
X005900Y000862D01*
X005764Y000727D02*
X005674Y000817D01*
X005629Y000907D01*
X005674Y000640D02*
X005629Y000595D01*
X005629Y000505D01*
X005674Y000460D01*
X005854Y000460D01*
X005900Y000505D01*
X005900Y000595D01*
X005854Y000640D01*
X006029Y000595D02*
X006029Y000505D01*
X006074Y000460D01*
X006254Y000460D01*
X006074Y000640D01*
X006254Y000640D01*
X006300Y000595D01*
X006300Y000505D01*
X006254Y000460D01*
X006074Y000640D02*
X006029Y000595D01*
X006254Y000727D02*
X006254Y000772D01*
X006300Y000772D01*
X006300Y000727D01*
X006254Y000727D01*
X007729Y000817D02*
X007819Y000727D01*
X007774Y000640D02*
X007729Y000595D01*
X007729Y000505D01*
X007774Y000460D01*
X007954Y000460D01*
X008000Y000505D01*
X008000Y000595D01*
X007954Y000640D01*
X008000Y000727D02*
X008000Y000907D01*
X008000Y000994D02*
X007819Y001174D01*
X007774Y001174D01*
X007729Y001129D01*
X007729Y001039D01*
X007774Y000994D01*
X007729Y000817D02*
X008000Y000817D01*
X008000Y000994D02*
X008000Y001174D01*
X008129Y001174D02*
X008129Y000994D01*
X008400Y000994D01*
X008400Y000907D02*
X008264Y000907D01*
X008219Y000862D01*
X008219Y000727D01*
X008400Y000727D01*
X008400Y000640D02*
X008400Y000460D01*
X008400Y000550D02*
X008129Y000550D01*
X008219Y000460D01*
X008264Y000994D02*
X008264Y001084D01*
X009129Y000907D02*
X009129Y000727D01*
X009174Y000640D02*
X009129Y000595D01*
X009129Y000505D01*
X009174Y000460D01*
X009354Y000460D01*
X009400Y000505D01*
X009400Y000595D01*
X009354Y000640D01*
X009354Y000727D02*
X009400Y000727D01*
X009354Y000727D02*
X009174Y000907D01*
X009129Y000907D01*
X009529Y000951D02*
X009800Y000951D01*
X009800Y000861D02*
X009800Y001041D01*
X009754Y001128D02*
X009619Y001128D01*
X009754Y001128D02*
X009800Y001173D01*
X009800Y001308D01*
X009619Y001308D01*
X009664Y001395D02*
X009664Y001485D01*
X009529Y001395D02*
X009529Y001575D01*
X009529Y001395D02*
X009800Y001395D01*
X009529Y000951D02*
X009619Y000861D01*
X009754Y000772D02*
X009800Y000772D01*
X009800Y000727D01*
X009754Y000727D01*
X009754Y000772D01*
X009754Y000640D02*
X009574Y000640D01*
X009754Y000460D01*
X009800Y000505D01*
X009800Y000595D01*
X009754Y000640D01*
X009574Y000640D02*
X009529Y000595D01*
X009529Y000505D01*
X009574Y000460D01*
X009754Y000460D01*
X011229Y000505D02*
X011274Y000460D01*
X011454Y000460D01*
X011500Y000505D01*
X011500Y000595D01*
X011454Y000640D01*
X011500Y000727D02*
X011500Y000907D01*
X011500Y000817D02*
X011229Y000817D01*
X011319Y000727D01*
X011274Y000640D02*
X011229Y000595D01*
X011229Y000505D01*
X011629Y000550D02*
X011719Y000460D01*
X011629Y000550D02*
X011900Y000550D01*
X011900Y000460D02*
X011900Y000640D01*
X011900Y000727D02*
X011719Y000727D01*
X011719Y000862D01*
X011764Y000907D01*
X011900Y000907D01*
X011900Y000994D02*
X011629Y000994D01*
X011629Y001174D01*
X011500Y001129D02*
X011500Y001039D01*
X011454Y000994D01*
X011364Y001084D02*
X011364Y001129D01*
X011409Y001174D01*
X011454Y001174D01*
X011500Y001129D01*
X011364Y001129D02*
X011319Y001174D01*
X011274Y001174D01*
X011229Y001129D01*
X011229Y001039D01*
X011274Y000994D01*
X011764Y000994D02*
X011764Y001084D01*
X019719Y001017D02*
X019990Y001017D01*
X019854Y001017D02*
X019854Y001197D01*
X019809Y001284D02*
X019854Y001329D01*
X019854Y001419D01*
X019899Y001464D01*
X019944Y001464D01*
X019990Y001419D01*
X019990Y001329D01*
X019944Y001284D01*
X019990Y001197D02*
X019719Y001197D01*
X019764Y001284D02*
X019809Y001284D01*
X019764Y001284D02*
X019719Y001329D01*
X019719Y001419D01*
X019764Y001464D01*
X020035Y001551D02*
X020035Y001731D01*
X019990Y001818D02*
X019719Y001818D01*
X019719Y001953D01*
X019764Y001998D01*
X019809Y001998D01*
X019854Y001953D01*
X019854Y001818D01*
X019854Y001953D02*
X019899Y001998D01*
X019944Y001998D01*
X019990Y001953D01*
X019990Y001818D01*
X019990Y004017D02*
X019719Y004017D01*
X019854Y004017D02*
X019854Y004197D01*
X019809Y004284D02*
X019854Y004329D01*
X019854Y004419D01*
X019899Y004464D01*
X019944Y004464D01*
X019990Y004419D01*
X019990Y004329D01*
X019944Y004284D01*
X019990Y004197D02*
X019719Y004197D01*
X019764Y004284D02*
X019809Y004284D01*
X019764Y004284D02*
X019719Y004329D01*
X019719Y004419D01*
X019764Y004464D01*
X020035Y004551D02*
X020035Y004731D01*
X019990Y004818D02*
X019809Y004818D01*
X019719Y004908D01*
X019809Y004998D01*
X019990Y004998D01*
X019854Y004998D02*
X019854Y004818D01*
D14*
X015713Y005900D03*
X015101Y006040D03*
X015088Y006045D03*
X015088Y008960D03*
X015101Y008965D03*
X015391Y009198D03*
X015481Y009395D03*
X015753Y009360D03*
X015888Y009255D03*
X015991Y009195D03*
X016176Y009368D03*
X016281Y009198D03*
X016403Y009203D03*
X016618Y009360D03*
X016821Y009360D03*
X016928Y009360D03*
X017061Y009358D03*
X017136Y009390D03*
X014198Y009398D03*
X014073Y009393D03*
X014073Y009235D03*
D15*
X014131Y009230D03*
X014131Y009228D03*
X014388Y009225D03*
X014388Y009223D03*
X014613Y009140D03*
X014838Y009140D03*
X014863Y009418D03*
X014638Y009418D03*
X015448Y009373D03*
X015448Y009193D03*
X015443Y009063D03*
X016346Y009363D03*
X015713Y005903D03*
D16*
X015713Y005905D03*
X015713Y008445D03*
X016263Y008953D03*
X015928Y009068D03*
D17*
X015713Y009098D03*
X016451Y008828D03*
X015713Y008410D03*
X015713Y008165D03*
X015713Y008163D03*
X015713Y005908D03*
D18*
X015713Y005910D03*
X015713Y008195D03*
X015713Y008198D03*
X015713Y008375D03*
X015713Y008378D03*
X016533Y008750D03*
X016536Y008748D03*
X015713Y009095D03*
D19*
X016600Y008678D03*
X016602Y008675D03*
X015715Y008315D03*
X015715Y008260D03*
X015715Y005913D03*
D20*
X015713Y005915D03*
X016658Y008600D03*
X016656Y008603D03*
D21*
X016706Y008523D03*
X016708Y008520D03*
X015713Y009088D03*
X015841Y005943D03*
X015713Y005918D03*
D22*
X015713Y005920D03*
X016738Y008463D03*
X015713Y009085D03*
D23*
X016761Y008415D03*
X016761Y008413D03*
X014281Y009173D03*
X015713Y005923D03*
D24*
X015713Y005925D03*
X016783Y008358D03*
X015713Y009080D03*
D25*
X015713Y009078D03*
X016801Y008305D03*
X016801Y008303D03*
X015241Y006838D03*
X015241Y006598D03*
X015713Y005928D03*
D26*
X015713Y005930D03*
X015258Y006565D03*
X015258Y006873D03*
X016813Y008258D03*
X016813Y008260D03*
X015713Y009075D03*
D27*
X015713Y009073D03*
X016823Y008218D03*
X016823Y008215D03*
X015276Y006895D03*
X015713Y005933D03*
D28*
X015511Y005935D03*
X015713Y008130D03*
X015713Y008443D03*
X016273Y008948D03*
X016278Y008945D03*
X016283Y008943D03*
X015713Y009100D03*
D29*
X016585Y008695D03*
X016587Y008693D03*
X015715Y008340D03*
X015852Y005935D03*
D30*
X015485Y005938D03*
X015485Y009068D03*
X016120Y009018D03*
X016127Y009015D03*
X016140Y009010D03*
D31*
X016628Y008640D03*
X016631Y008638D03*
X015848Y005938D03*
D32*
X015463Y005940D03*
X015713Y008110D03*
X015463Y009065D03*
D33*
X016671Y008580D03*
X016673Y008578D03*
X015843Y005940D03*
D34*
X015445Y005943D03*
X015715Y008468D03*
X015450Y009195D03*
X015450Y009368D03*
X015450Y009370D03*
X014862Y009415D03*
X014637Y009415D03*
X014387Y009230D03*
X014387Y009228D03*
X014132Y009408D03*
X014837Y009143D03*
X016345Y009188D03*
X016345Y009190D03*
D35*
X016350Y009373D03*
X016875Y009195D03*
X015700Y009195D03*
X015445Y009183D03*
X015190Y009230D03*
X015187Y009233D03*
X014857Y009213D03*
X014837Y009135D03*
X014632Y009213D03*
X014612Y009135D03*
X014642Y009425D03*
X014867Y009425D03*
X014127Y009220D03*
X015430Y005945D03*
D36*
X015838Y005945D03*
X016733Y008473D03*
D37*
X016873Y009188D03*
X015943Y009263D03*
X015701Y009188D03*
X015413Y009058D03*
X015191Y009220D03*
X014843Y009235D03*
X014836Y009130D03*
X014611Y009130D03*
X014618Y009235D03*
X014616Y009238D03*
X015413Y005948D03*
D38*
X015836Y005948D03*
X016756Y008425D03*
D39*
X015701Y009183D03*
X015398Y009055D03*
X015181Y009408D03*
X016663Y009365D03*
X016666Y009368D03*
X016668Y009370D03*
X015398Y005950D03*
D40*
X015835Y005950D03*
X016775Y008380D03*
X016775Y008383D03*
X016772Y008385D03*
X014290Y009153D03*
D41*
X014613Y009320D03*
X015181Y009410D03*
X015386Y009053D03*
X015701Y009180D03*
X015951Y009273D03*
X016873Y009180D03*
X015713Y008478D03*
X015713Y008098D03*
X015386Y005953D03*
D42*
X015835Y005953D03*
X015222Y006658D03*
X015222Y006660D03*
X015222Y006663D03*
X015222Y006773D03*
X015222Y006775D03*
X015222Y006778D03*
X015222Y006780D03*
X016787Y008345D03*
D43*
X016875Y009178D03*
X016875Y009380D03*
X016670Y009378D03*
X016667Y009180D03*
X015375Y009050D03*
X014830Y009245D03*
X014837Y009315D03*
X014612Y009315D03*
X014605Y009245D03*
X015375Y005955D03*
D44*
X015832Y005955D03*
X015240Y006600D03*
X015240Y006603D03*
X015237Y006605D03*
X015237Y006830D03*
X015237Y006833D03*
X015240Y006835D03*
X016800Y008308D03*
D45*
X015713Y008095D03*
X015191Y009210D03*
X015181Y009415D03*
X015701Y009380D03*
X015933Y009378D03*
X015956Y009278D03*
X015363Y005958D03*
D46*
X015832Y005958D03*
X015255Y006570D03*
X015252Y006575D03*
X015255Y006865D03*
X016810Y008273D03*
X016810Y008275D03*
D47*
X016875Y009173D03*
X016667Y009175D03*
X016875Y009383D03*
X015960Y009280D03*
X015700Y009173D03*
X015190Y009208D03*
X014837Y009310D03*
X014822Y009248D03*
X014612Y009310D03*
X015352Y005960D03*
D48*
X015831Y005960D03*
X015266Y006883D03*
X016816Y008243D03*
D49*
X015715Y008093D03*
X015340Y009043D03*
X015700Y009385D03*
X016142Y009350D03*
X016667Y009173D03*
X016875Y009385D03*
X015182Y009420D03*
X014837Y009308D03*
X014612Y009308D03*
X014162Y009410D03*
X015340Y005963D03*
D50*
X015832Y005963D03*
X015277Y006540D03*
X016825Y008210D03*
X016825Y008213D03*
D51*
X015715Y008483D03*
X015935Y009385D03*
X016670Y009385D03*
X017280Y009373D03*
X015182Y009423D03*
X014837Y009305D03*
X014612Y009305D03*
X014162Y009413D03*
X015320Y005968D03*
X015330Y005965D03*
D52*
X015832Y005965D03*
X015290Y006528D03*
X015290Y006908D03*
X016830Y008178D03*
X016830Y008180D03*
D53*
X016832Y008155D03*
X015300Y006915D03*
X015832Y005968D03*
D54*
X015310Y005970D03*
X015300Y005973D03*
X015300Y009033D03*
X015480Y009375D03*
X015700Y009168D03*
X015967Y009285D03*
X015182Y009425D03*
X014890Y009205D03*
X014835Y009115D03*
X014612Y009115D03*
X014360Y009215D03*
X014162Y009415D03*
X016875Y009388D03*
X016875Y009168D03*
X017280Y009375D03*
D55*
X016837Y008125D03*
X016837Y008123D03*
X016837Y008120D03*
X015312Y006515D03*
X015832Y005970D03*
D56*
X015832Y005973D03*
X016840Y008098D03*
X016840Y008100D03*
D57*
X015290Y009030D03*
X015472Y009178D03*
X015480Y009378D03*
X015907Y009175D03*
X016315Y009178D03*
X016875Y009390D03*
X017280Y009380D03*
X014837Y009303D03*
X014590Y009250D03*
X014360Y009213D03*
X014162Y009418D03*
X015290Y005975D03*
D58*
X015832Y005975D03*
D59*
X015281Y005978D03*
X015713Y008485D03*
X015281Y009028D03*
X015701Y009390D03*
X015971Y009288D03*
X016666Y009168D03*
D60*
X016842Y008055D03*
X016842Y008053D03*
X015832Y005978D03*
D61*
X015271Y005980D03*
X015271Y009025D03*
X015576Y009273D03*
X015576Y009275D03*
X015576Y009278D03*
X015576Y009280D03*
X015576Y009283D03*
X015576Y009285D03*
X014836Y009113D03*
X014611Y009113D03*
X014358Y009210D03*
X016666Y009165D03*
D62*
X016842Y008033D03*
X016842Y008030D03*
X015832Y005980D03*
D63*
X015265Y005983D03*
X015255Y009020D03*
X015262Y009023D03*
X015472Y009173D03*
X015480Y009383D03*
X015700Y009393D03*
X016325Y009385D03*
X016315Y009173D03*
X016875Y009393D03*
X014162Y009423D03*
D64*
X016841Y008015D03*
X015833Y005983D03*
D65*
X015256Y005985D03*
X015713Y008088D03*
X015701Y009163D03*
X015906Y009170D03*
X015183Y009430D03*
X014728Y009158D03*
X014358Y009208D03*
X014153Y009208D03*
X017133Y009375D03*
X017281Y009385D03*
D66*
X016841Y007995D03*
X016841Y007993D03*
X015833Y005985D03*
D67*
X015247Y005988D03*
X015240Y005990D03*
X015240Y009015D03*
X015247Y009018D03*
X015472Y009170D03*
X015480Y009385D03*
X015937Y009393D03*
X015977Y009290D03*
X016315Y009170D03*
X016670Y009393D03*
X016875Y009163D03*
X014837Y009298D03*
X014612Y009298D03*
X014610Y009295D03*
D68*
X016841Y007983D03*
X016841Y007980D03*
X015833Y005988D03*
D69*
X015833Y005990D03*
X016838Y007958D03*
X016838Y007960D03*
D70*
X015231Y009013D03*
X015191Y009198D03*
X014833Y009295D03*
X014828Y009293D03*
X014906Y009403D03*
X014681Y009403D03*
X014613Y009433D03*
X014728Y009195D03*
X014728Y009160D03*
X014358Y009205D03*
X014153Y009205D03*
X014163Y009425D03*
X015906Y009168D03*
X016326Y009388D03*
X016666Y009163D03*
X017133Y009378D03*
X017193Y009358D03*
X017281Y009388D03*
X015231Y005993D03*
D71*
X015835Y005993D03*
X016837Y007940D03*
X016837Y007943D03*
D72*
X015222Y009010D03*
X015215Y009008D03*
X014825Y009290D03*
X014837Y009433D03*
X014605Y009293D03*
X014600Y009290D03*
X014612Y009110D03*
X016875Y009395D03*
X015222Y005995D03*
X015215Y005998D03*
D73*
X015835Y005995D03*
X016835Y007923D03*
D74*
X016833Y007910D03*
X016833Y007908D03*
X015836Y005998D03*
D75*
X015206Y006000D03*
X015713Y008488D03*
X015206Y009005D03*
X014836Y009110D03*
X014728Y009163D03*
X014728Y009193D03*
X015183Y009433D03*
X015481Y009388D03*
X015701Y009395D03*
X015938Y009395D03*
X015471Y009168D03*
X014163Y009428D03*
X017133Y009380D03*
D76*
X015837Y006000D03*
D77*
X015200Y006003D03*
X015192Y006005D03*
X015192Y009000D03*
X015200Y009003D03*
X014820Y009288D03*
X014730Y009190D03*
X014595Y009288D03*
X014357Y009203D03*
X014152Y009203D03*
X014082Y009398D03*
X015700Y009160D03*
X015905Y009165D03*
X016315Y009168D03*
X016395Y009198D03*
X016325Y009390D03*
X016670Y009395D03*
X016875Y009160D03*
X017135Y009383D03*
X017280Y009390D03*
D78*
X016828Y007880D03*
X016828Y007878D03*
X015836Y006003D03*
D79*
X015837Y006005D03*
X016825Y007863D03*
D80*
X015186Y008998D03*
X015178Y008995D03*
X014728Y009165D03*
X014728Y009168D03*
X015481Y009390D03*
X015898Y009258D03*
X016666Y009160D03*
X017193Y009355D03*
X015186Y006008D03*
X015178Y006010D03*
D81*
X015837Y006008D03*
X016822Y007853D03*
D82*
X015838Y006010D03*
D83*
X015172Y006013D03*
X015165Y006015D03*
X015165Y008990D03*
X015172Y008993D03*
X015190Y009195D03*
X015472Y009165D03*
X015905Y009163D03*
X015985Y009293D03*
X016315Y009165D03*
X016325Y009393D03*
X017135Y009385D03*
X014910Y009400D03*
X014837Y009435D03*
X014685Y009400D03*
X014612Y009435D03*
X014730Y009188D03*
X014730Y009185D03*
X014730Y009183D03*
X014165Y009430D03*
X014080Y009233D03*
D84*
X015838Y006013D03*
D85*
X015840Y006015D03*
X016815Y007815D03*
D86*
X015713Y008085D03*
X015158Y008988D03*
X015151Y008985D03*
X015396Y009358D03*
X015183Y009435D03*
X014728Y009180D03*
X014728Y009178D03*
X014728Y009175D03*
X014728Y009173D03*
X014728Y009170D03*
X014441Y009235D03*
X014358Y009200D03*
X014153Y009200D03*
X015701Y009398D03*
X016118Y009348D03*
X017281Y009393D03*
X015158Y006018D03*
X015151Y006020D03*
D87*
X015840Y006018D03*
X016810Y007803D03*
D88*
X016806Y007790D03*
X015841Y006020D03*
D89*
X015145Y006023D03*
X015137Y006025D03*
X015137Y008980D03*
X015145Y008983D03*
X014782Y009145D03*
X014557Y009145D03*
X014077Y009395D03*
X015482Y009393D03*
X015940Y009398D03*
X015987Y009193D03*
X016670Y009398D03*
X016875Y009398D03*
X017135Y009388D03*
X016875Y009158D03*
D90*
X016803Y007783D03*
X016803Y007780D03*
X015841Y006023D03*
D91*
X015842Y006025D03*
X016800Y007770D03*
D92*
X015131Y008978D03*
X015118Y008973D03*
X014836Y009108D03*
X014896Y009145D03*
X014911Y009203D03*
X014686Y009203D03*
X014671Y009145D03*
X014611Y009108D03*
X014163Y009433D03*
X015471Y009163D03*
X015701Y009158D03*
X015713Y009105D03*
X016313Y009163D03*
X016401Y009200D03*
X016401Y009360D03*
X017193Y009353D03*
X015131Y006028D03*
X015118Y006033D03*
D93*
X015842Y006028D03*
D94*
X015125Y006030D03*
X015112Y006035D03*
X015107Y006038D03*
X015715Y008490D03*
X015125Y008975D03*
X015112Y008970D03*
X015107Y008968D03*
X015392Y009355D03*
X015647Y009360D03*
X015905Y009160D03*
X016115Y009345D03*
X016172Y009360D03*
X016175Y009363D03*
X016175Y009365D03*
X016325Y009395D03*
X016665Y009158D03*
X017280Y009395D03*
X014910Y009398D03*
X014837Y009438D03*
X014685Y009398D03*
X014612Y009438D03*
X014445Y009238D03*
X014357Y009198D03*
X014190Y009233D03*
X014152Y009198D03*
D95*
X016792Y007750D03*
X015842Y006030D03*
D96*
X015843Y006033D03*
X016788Y007740D03*
D97*
X016785Y007733D03*
X015845Y006035D03*
D98*
X015845Y006038D03*
X016782Y007725D03*
D99*
X016777Y007715D03*
X015845Y006040D03*
D100*
X015095Y006043D03*
X015082Y006048D03*
X015077Y006050D03*
X015060Y006058D03*
X015065Y008950D03*
X015077Y008955D03*
X015082Y008958D03*
X015095Y008963D03*
X015190Y009193D03*
X015130Y009235D03*
X015390Y009353D03*
X015182Y009438D03*
X014790Y009253D03*
X014565Y009253D03*
X014447Y009240D03*
X014165Y009435D03*
X016112Y009343D03*
X016177Y009370D03*
X016177Y009373D03*
X016285Y009360D03*
X017192Y009350D03*
D101*
X016773Y007705D03*
X015846Y006043D03*
D102*
X015847Y006045D03*
X016770Y007700D03*
D103*
X016765Y007690D03*
X015847Y006048D03*
D104*
X015847Y006050D03*
X016762Y007685D03*
D105*
X015071Y008953D03*
X015058Y008948D03*
X015053Y008945D03*
X015048Y008943D03*
X015043Y008940D03*
X015471Y009160D03*
X015701Y009400D03*
X015941Y009400D03*
X016178Y009375D03*
X016181Y009378D03*
X016326Y009398D03*
X016406Y009358D03*
X016406Y009205D03*
X016313Y009160D03*
X016816Y009198D03*
X016933Y009198D03*
X017058Y009355D03*
X017136Y009393D03*
X014071Y009390D03*
X015048Y006063D03*
X015053Y006060D03*
X015066Y006055D03*
X015071Y006053D03*
D106*
X015848Y006053D03*
X016758Y007678D03*
D107*
X016752Y007668D03*
X015850Y006055D03*
D108*
X015851Y006058D03*
X016751Y007665D03*
D109*
X016746Y007658D03*
X015851Y006060D03*
D110*
X015852Y006063D03*
D111*
X015045Y006065D03*
X015387Y009200D03*
X015512Y009198D03*
X015642Y009198D03*
X015760Y009198D03*
X015882Y009253D03*
X015905Y009158D03*
X015995Y009198D03*
X016110Y009340D03*
X016182Y009380D03*
X016275Y009200D03*
X016612Y009198D03*
X016612Y009358D03*
X016670Y009400D03*
X016875Y009400D03*
X017192Y009348D03*
X017280Y009398D03*
X016875Y009155D03*
X015520Y009358D03*
X015387Y009350D03*
X014450Y009243D03*
X014357Y009195D03*
X014197Y009235D03*
X014152Y009195D03*
X014070Y009238D03*
X014070Y009388D03*
D112*
X016737Y007645D03*
X015852Y006065D03*
D113*
X015038Y006068D03*
X015033Y006070D03*
X015028Y006073D03*
X015023Y006075D03*
X015023Y008930D03*
X015028Y008933D03*
X015033Y008935D03*
X015038Y008938D03*
X015126Y009238D03*
X015386Y009348D03*
X015481Y009398D03*
X015638Y009358D03*
X015761Y009358D03*
X015701Y009155D03*
X015996Y009200D03*
X016108Y009338D03*
X016183Y009383D03*
X016408Y009355D03*
X016408Y009208D03*
X016813Y009358D03*
X016936Y009358D03*
X017056Y009353D03*
X017318Y009358D03*
X015128Y009400D03*
X014788Y009403D03*
X014563Y009403D03*
X014546Y009148D03*
X014771Y009148D03*
X014321Y009235D03*
X014203Y009395D03*
D114*
X016733Y007640D03*
X016481Y006630D03*
X016478Y006625D03*
X016476Y006623D03*
X016476Y006620D03*
X016473Y006618D03*
X016471Y006613D03*
X016468Y006610D03*
X016468Y006608D03*
X016466Y006605D03*
X016463Y006603D03*
X016463Y006600D03*
X016461Y006598D03*
X016458Y006595D03*
X016456Y006593D03*
X016456Y006590D03*
X016453Y006588D03*
X016451Y006585D03*
X016443Y006575D03*
X015853Y006068D03*
D115*
X015852Y006070D03*
X016427Y006558D03*
X016430Y006560D03*
X016432Y006563D03*
X016490Y006648D03*
X016492Y006650D03*
X016492Y006653D03*
X016495Y006655D03*
X016495Y006658D03*
D116*
X016501Y006670D03*
X016501Y006673D03*
X016503Y006675D03*
X016503Y006678D03*
X016418Y006548D03*
X015853Y006073D03*
X016728Y007630D03*
D117*
X016723Y007625D03*
X016511Y006698D03*
X016403Y006535D03*
X015853Y006075D03*
D118*
X015017Y006078D03*
X015012Y006080D03*
X015007Y006083D03*
X015002Y006085D03*
X014997Y006088D03*
X014992Y006090D03*
X014987Y006093D03*
X014982Y006095D03*
X014982Y008910D03*
X014987Y008913D03*
X014992Y008915D03*
X014997Y008918D03*
X015002Y008920D03*
X015007Y008923D03*
X015012Y008925D03*
X015017Y008928D03*
X014907Y009148D03*
X014920Y009200D03*
X014695Y009200D03*
X014565Y009323D03*
X014612Y009440D03*
X014837Y009440D03*
X014452Y009245D03*
X014207Y009393D03*
X014165Y009438D03*
X014067Y009385D03*
X014067Y009240D03*
X015385Y009203D03*
X015517Y009200D03*
X015637Y009200D03*
X015765Y009200D03*
X015997Y009295D03*
X015990Y009358D03*
X016107Y009335D03*
X016185Y009385D03*
X016280Y009358D03*
X016410Y009210D03*
X016607Y009200D03*
X016665Y009155D03*
X016607Y009355D03*
X016810Y009355D03*
X016940Y009355D03*
X017137Y009395D03*
X017192Y009345D03*
X017192Y009343D03*
D119*
X016720Y007620D03*
X016515Y006713D03*
X016515Y006710D03*
X016392Y006528D03*
X015855Y006078D03*
D120*
X015855Y006080D03*
X016385Y006523D03*
X016520Y006728D03*
D121*
X016523Y006740D03*
X016523Y006743D03*
X015856Y006083D03*
D122*
X015857Y006085D03*
X016525Y006750D03*
X016525Y006753D03*
X016707Y007605D03*
D123*
X016527Y006768D03*
X016527Y006765D03*
X015857Y006088D03*
D124*
X015858Y006090D03*
X016361Y006513D03*
X016528Y006775D03*
X016528Y006778D03*
D125*
X016530Y006785D03*
X015860Y006093D03*
X016697Y007593D03*
D126*
X016692Y007588D03*
X016530Y006795D03*
X015860Y006095D03*
D127*
X014978Y006098D03*
X014973Y006100D03*
X014968Y006103D03*
X014963Y006105D03*
X015713Y008083D03*
X014978Y008908D03*
X014973Y008905D03*
X014968Y008903D03*
X014963Y008900D03*
X014683Y009148D03*
X014661Y009323D03*
X014681Y009395D03*
X014788Y009323D03*
X014886Y009323D03*
X014906Y009395D03*
X015123Y009398D03*
X015236Y009400D03*
X015383Y009345D03*
X015383Y009205D03*
X015471Y009158D03*
X015633Y009203D03*
X015636Y009355D03*
X015526Y009353D03*
X015523Y009355D03*
X015766Y009355D03*
X015998Y009203D03*
X016106Y009333D03*
X016186Y009388D03*
X016276Y009355D03*
X016326Y009400D03*
X016411Y009353D03*
X016271Y009203D03*
X016313Y009158D03*
X016606Y009203D03*
X016811Y009200D03*
X016938Y009200D03*
X017053Y009350D03*
X015121Y009240D03*
X014453Y009248D03*
X014316Y009238D03*
X014203Y009240D03*
X014201Y009238D03*
X014066Y009383D03*
D128*
X016690Y007585D03*
X016347Y006510D03*
X015860Y006098D03*
D129*
X015861Y006100D03*
X016531Y006808D03*
X016531Y006810D03*
D130*
X016530Y006818D03*
X015862Y006103D03*
X016682Y007578D03*
D131*
X016530Y006828D03*
X016530Y006825D03*
X015862Y006105D03*
D132*
X014960Y006108D03*
X014955Y006110D03*
X014950Y006113D03*
X014945Y006115D03*
X014927Y006125D03*
X014927Y008880D03*
X014945Y008890D03*
X014950Y008893D03*
X014955Y008895D03*
X014960Y008898D03*
X014837Y009105D03*
X014700Y009198D03*
X014612Y009105D03*
X014455Y009250D03*
X014207Y009243D03*
X014152Y009193D03*
X014065Y009243D03*
X014065Y009380D03*
X014210Y009390D03*
X014212Y009388D03*
X014782Y009400D03*
X015120Y009395D03*
X015182Y009440D03*
X015382Y009343D03*
X015247Y009235D03*
X015120Y009243D03*
X015520Y009203D03*
X015632Y009353D03*
X015767Y009203D03*
X015870Y009193D03*
X015877Y009250D03*
X015882Y009358D03*
X016000Y009205D03*
X016105Y009330D03*
X016187Y009390D03*
X016190Y009393D03*
X016270Y009205D03*
X016412Y009213D03*
X016507Y009195D03*
X016507Y009193D03*
X016507Y009190D03*
X016507Y009188D03*
X016507Y009185D03*
X016507Y009183D03*
X016507Y009180D03*
X016507Y009178D03*
X016602Y009205D03*
X016602Y009350D03*
X016605Y009353D03*
X016807Y009353D03*
X016942Y009353D03*
X017052Y009348D03*
X017192Y009340D03*
X017322Y009355D03*
X016942Y009203D03*
X016807Y009203D03*
X016805Y009205D03*
D133*
X016530Y006833D03*
X016530Y006830D03*
X015862Y006108D03*
D134*
X015863Y006110D03*
X016528Y006838D03*
X016528Y006840D03*
X016671Y007568D03*
D135*
X015863Y006113D03*
D136*
X015865Y006115D03*
X016527Y006853D03*
X016662Y007560D03*
D137*
X014941Y008888D03*
X014936Y008885D03*
X014931Y008883D03*
X014923Y008878D03*
X014918Y008875D03*
X014913Y008873D03*
X014906Y008868D03*
X014913Y009150D03*
X014923Y009198D03*
X014781Y009255D03*
X014783Y009325D03*
X014766Y009150D03*
X014688Y009150D03*
X014558Y009325D03*
X014558Y009400D03*
X014356Y009193D03*
X014313Y009240D03*
X014208Y009245D03*
X014213Y009385D03*
X014063Y009378D03*
X014063Y009245D03*
X015113Y009248D03*
X015116Y009245D03*
X015381Y009208D03*
X015381Y009340D03*
X015528Y009350D03*
X015628Y009350D03*
X015768Y009353D03*
X015771Y009350D03*
X015773Y009348D03*
X015873Y009248D03*
X015903Y009155D03*
X015771Y009205D03*
X015631Y009205D03*
X015628Y009208D03*
X015526Y009208D03*
X015523Y009205D03*
X015941Y009403D03*
X015993Y009355D03*
X016103Y009328D03*
X016271Y009350D03*
X016273Y009353D03*
X016413Y009350D03*
X016413Y009215D03*
X016508Y009198D03*
X016508Y009175D03*
X016598Y009210D03*
X016601Y009208D03*
X016598Y009348D03*
X016803Y009350D03*
X016946Y009350D03*
X017051Y009345D03*
X017191Y009338D03*
X017281Y009400D03*
X017326Y009353D03*
X016943Y009205D03*
X016266Y009208D03*
X014906Y006138D03*
X014911Y006135D03*
X014913Y006133D03*
X014918Y006130D03*
X014923Y006128D03*
X014931Y006123D03*
X014936Y006120D03*
X014941Y006118D03*
D138*
X015865Y006118D03*
D139*
X015866Y006120D03*
X016656Y007555D03*
D140*
X016652Y007553D03*
X016522Y006868D03*
X015867Y006123D03*
D141*
X015868Y006125D03*
X016521Y006873D03*
D142*
X016520Y006878D03*
X015867Y006128D03*
D143*
X015868Y006130D03*
X016518Y006880D03*
D144*
X015870Y006133D03*
D145*
X015870Y006135D03*
X016515Y006888D03*
X016635Y007540D03*
D146*
X016631Y007538D03*
X016513Y006893D03*
X015871Y006138D03*
D147*
X014902Y006140D03*
X014897Y006143D03*
X014895Y006145D03*
X014890Y006148D03*
X014885Y006150D03*
X014885Y008855D03*
X014890Y008858D03*
X014892Y008860D03*
X014897Y008863D03*
X014902Y008865D03*
X014910Y008870D03*
X014762Y009153D03*
X014927Y009195D03*
X014892Y009325D03*
X014667Y009325D03*
X014557Y009255D03*
X014457Y009253D03*
X014312Y009243D03*
X014310Y009245D03*
X014212Y009250D03*
X014210Y009248D03*
X014217Y009380D03*
X014215Y009383D03*
X014165Y009440D03*
X014062Y009375D03*
X014062Y009248D03*
X015110Y009253D03*
X015112Y009250D03*
X015190Y009190D03*
X015380Y009210D03*
X015380Y009338D03*
X015482Y009400D03*
X015530Y009348D03*
X015532Y009345D03*
X015532Y009343D03*
X015625Y009345D03*
X015627Y009348D03*
X015775Y009345D03*
X015777Y009343D03*
X015775Y009210D03*
X015772Y009208D03*
X015865Y009195D03*
X015870Y009245D03*
X016002Y009208D03*
X015995Y009353D03*
X016102Y009325D03*
X016102Y009323D03*
X016192Y009395D03*
X016267Y009345D03*
X016270Y009348D03*
X016262Y009215D03*
X016262Y009213D03*
X016265Y009210D03*
X016415Y009218D03*
X016507Y009203D03*
X016507Y009200D03*
X016507Y009173D03*
X016507Y009170D03*
X016595Y009215D03*
X016597Y009213D03*
X016595Y009343D03*
X016597Y009345D03*
X016415Y009348D03*
X016797Y009343D03*
X016800Y009345D03*
X016802Y009348D03*
X016875Y009403D03*
X016947Y009348D03*
X016950Y009345D03*
X017050Y009343D03*
X017137Y009398D03*
X017192Y009335D03*
X017327Y009350D03*
X016952Y009215D03*
X016950Y009210D03*
X016947Y009208D03*
X016802Y009208D03*
X016800Y009210D03*
X015527Y009210D03*
X015242Y009398D03*
X015117Y009393D03*
X015115Y009390D03*
D148*
X016511Y006895D03*
X015871Y006140D03*
D149*
X015872Y006143D03*
X016627Y007535D03*
D150*
X016623Y007533D03*
X016506Y006903D03*
X015873Y006145D03*
D151*
X015873Y006148D03*
D152*
X015875Y006150D03*
X016502Y006908D03*
D153*
X014881Y006153D03*
X014876Y006155D03*
X014873Y006158D03*
X014868Y006160D03*
X014866Y006163D03*
X014861Y006165D03*
X014856Y006168D03*
X014853Y006170D03*
X014848Y006173D03*
X014846Y006175D03*
X014838Y006180D03*
X015713Y008493D03*
X014881Y008853D03*
X014876Y008850D03*
X014873Y008848D03*
X014868Y008845D03*
X014866Y008843D03*
X014861Y008840D03*
X014856Y008838D03*
X014853Y008835D03*
X014848Y008833D03*
X014846Y008830D03*
X014841Y008828D03*
X015378Y009213D03*
X015471Y009155D03*
X015528Y009213D03*
X015531Y009215D03*
X015531Y009218D03*
X015533Y009220D03*
X015533Y009223D03*
X015618Y009223D03*
X015621Y009218D03*
X015623Y009215D03*
X015623Y009213D03*
X015626Y009210D03*
X015616Y009328D03*
X015618Y009333D03*
X015621Y009338D03*
X015621Y009340D03*
X015623Y009343D03*
X015538Y009330D03*
X015538Y009328D03*
X015536Y009335D03*
X015536Y009338D03*
X015533Y009340D03*
X015378Y009335D03*
X015243Y009395D03*
X015108Y009383D03*
X015108Y009255D03*
X014778Y009398D03*
X014776Y009395D03*
X014553Y009398D03*
X014556Y009328D03*
X014458Y009255D03*
X014308Y009250D03*
X014308Y009248D03*
X014306Y009255D03*
X014221Y009268D03*
X014218Y009263D03*
X014218Y009260D03*
X014216Y009258D03*
X014216Y009255D03*
X014213Y009253D03*
X014223Y009360D03*
X014223Y009363D03*
X014221Y009368D03*
X014221Y009370D03*
X014221Y009373D03*
X014218Y009375D03*
X014218Y009378D03*
X014061Y009373D03*
X014061Y009250D03*
X015701Y009403D03*
X015778Y009340D03*
X015781Y009335D03*
X015783Y009330D03*
X015781Y009220D03*
X015778Y009218D03*
X015778Y009215D03*
X015776Y009213D03*
X015863Y009198D03*
X016003Y009210D03*
X015998Y009350D03*
X016101Y009320D03*
X016193Y009398D03*
X016263Y009340D03*
X016263Y009338D03*
X016261Y009335D03*
X016261Y009333D03*
X016258Y009328D03*
X016266Y009343D03*
X016256Y009230D03*
X016258Y009223D03*
X016258Y009220D03*
X016261Y009218D03*
X016416Y009220D03*
X016416Y009345D03*
X016588Y009330D03*
X016591Y009335D03*
X016593Y009338D03*
X016593Y009340D03*
X016668Y009403D03*
X016716Y009360D03*
X016791Y009330D03*
X016793Y009335D03*
X016796Y009340D03*
X016793Y009220D03*
X016796Y009218D03*
X016796Y009215D03*
X016798Y009213D03*
X016951Y009213D03*
X016953Y009218D03*
X016956Y009223D03*
X016958Y009228D03*
X016956Y009335D03*
X016953Y009338D03*
X016953Y009340D03*
X016951Y009343D03*
X017048Y009340D03*
X017191Y009333D03*
X017191Y009330D03*
X017191Y009328D03*
X017328Y009348D03*
X017331Y009343D03*
X016593Y009218D03*
X016591Y009220D03*
X016591Y009223D03*
X016588Y009225D03*
X016588Y009228D03*
D154*
X016615Y007528D03*
X015875Y006153D03*
D155*
X015876Y006155D03*
D156*
X015875Y006158D03*
D157*
X015876Y006160D03*
X016603Y007523D03*
D158*
X015877Y006163D03*
D159*
X015877Y006165D03*
D160*
X015878Y006168D03*
D161*
X015880Y006170D03*
X016592Y007518D03*
D162*
X015881Y006173D03*
D163*
X015881Y006175D03*
D164*
X014842Y006178D03*
X014835Y006183D03*
X014830Y006185D03*
X014827Y006188D03*
X014822Y006190D03*
X014820Y006193D03*
X014805Y006203D03*
X014805Y008803D03*
X014820Y008813D03*
X014822Y008815D03*
X014827Y008818D03*
X014830Y008820D03*
X014835Y008823D03*
X014837Y008825D03*
X014917Y009153D03*
X014920Y009155D03*
X014930Y009193D03*
X015010Y009193D03*
X015010Y009195D03*
X015010Y009198D03*
X015010Y009200D03*
X015010Y009203D03*
X015010Y009205D03*
X015010Y009208D03*
X015010Y009210D03*
X015010Y009213D03*
X015010Y009215D03*
X015010Y009218D03*
X015010Y009220D03*
X015010Y009223D03*
X015010Y009225D03*
X015010Y009228D03*
X015010Y009230D03*
X015010Y009233D03*
X015010Y009235D03*
X015010Y009238D03*
X015010Y009240D03*
X015010Y009243D03*
X015010Y009245D03*
X015010Y009248D03*
X015010Y009250D03*
X015010Y009253D03*
X015010Y009255D03*
X015010Y009258D03*
X015010Y009260D03*
X015010Y009263D03*
X015010Y009265D03*
X015010Y009268D03*
X015010Y009270D03*
X015010Y009273D03*
X015010Y009275D03*
X015010Y009278D03*
X015010Y009280D03*
X015010Y009283D03*
X015010Y009285D03*
X015010Y009288D03*
X015010Y009290D03*
X015010Y009293D03*
X015010Y009295D03*
X015010Y009298D03*
X015010Y009300D03*
X015010Y009303D03*
X015010Y009305D03*
X015010Y009308D03*
X015010Y009310D03*
X015010Y009313D03*
X015010Y009315D03*
X015010Y009318D03*
X015010Y009320D03*
X015010Y009323D03*
X015010Y009325D03*
X015010Y009328D03*
X015010Y009330D03*
X015010Y009333D03*
X015010Y009335D03*
X015010Y009338D03*
X015010Y009340D03*
X015010Y009343D03*
X015010Y009345D03*
X015010Y009348D03*
X015010Y009350D03*
X015010Y009353D03*
X015010Y009355D03*
X015010Y009358D03*
X015010Y009360D03*
X015010Y009363D03*
X015010Y009365D03*
X015010Y009368D03*
X015010Y009370D03*
X015010Y009373D03*
X015010Y009375D03*
X015010Y009378D03*
X015010Y009380D03*
X015010Y009383D03*
X015010Y009385D03*
X015010Y009388D03*
X015010Y009390D03*
X015010Y009393D03*
X015010Y009395D03*
X015010Y009398D03*
X015010Y009400D03*
X015010Y009403D03*
X015010Y009405D03*
X015010Y009408D03*
X015010Y009410D03*
X015010Y009413D03*
X015010Y009415D03*
X015010Y009418D03*
X015010Y009420D03*
X015010Y009423D03*
X015010Y009425D03*
X015010Y009428D03*
X015010Y009430D03*
X015010Y009433D03*
X015010Y009435D03*
X015010Y009438D03*
X015010Y009440D03*
X015010Y009443D03*
X015010Y009445D03*
X015010Y009448D03*
X015010Y009450D03*
X015010Y009453D03*
X015010Y009455D03*
X015010Y009458D03*
X015010Y009460D03*
X015010Y009463D03*
X015010Y009465D03*
X015010Y009468D03*
X015010Y009470D03*
X015010Y009473D03*
X015010Y009475D03*
X015010Y009478D03*
X015010Y009480D03*
X015010Y009483D03*
X015010Y009485D03*
X015010Y009488D03*
X015010Y009490D03*
X015010Y009493D03*
X015010Y009495D03*
X015010Y009498D03*
X015010Y009500D03*
X015010Y009503D03*
X015010Y009505D03*
X015010Y009508D03*
X015010Y009510D03*
X015010Y009513D03*
X015010Y009515D03*
X015010Y009518D03*
X015010Y009520D03*
X015010Y009523D03*
X015010Y009525D03*
X015010Y009528D03*
X015010Y009530D03*
X015010Y009533D03*
X015010Y009535D03*
X015010Y009538D03*
X015010Y009540D03*
X015010Y009543D03*
X015010Y009545D03*
X015010Y009548D03*
X015010Y009550D03*
X015112Y009388D03*
X015110Y009385D03*
X015107Y009380D03*
X015100Y009273D03*
X015102Y009268D03*
X015102Y009265D03*
X015105Y009263D03*
X015105Y009260D03*
X015107Y009258D03*
X015247Y009393D03*
X015377Y009333D03*
X015377Y009215D03*
X015535Y009225D03*
X015537Y009228D03*
X015537Y009230D03*
X015537Y009233D03*
X015540Y009235D03*
X015540Y009238D03*
X015540Y009240D03*
X015542Y009245D03*
X015542Y009248D03*
X015542Y009250D03*
X015542Y009253D03*
X015545Y009263D03*
X015545Y009265D03*
X015545Y009268D03*
X015545Y009270D03*
X015545Y009288D03*
X015545Y009290D03*
X015545Y009293D03*
X015545Y009295D03*
X015545Y009298D03*
X015545Y009300D03*
X015542Y009308D03*
X015542Y009310D03*
X015542Y009313D03*
X015542Y009315D03*
X015542Y009318D03*
X015540Y009320D03*
X015540Y009323D03*
X015540Y009325D03*
X015537Y009333D03*
X015612Y009320D03*
X015612Y009318D03*
X015612Y009315D03*
X015612Y009313D03*
X015610Y009308D03*
X015610Y009305D03*
X015610Y009303D03*
X015610Y009300D03*
X015610Y009298D03*
X015615Y009323D03*
X015615Y009325D03*
X015617Y009330D03*
X015620Y009335D03*
X015610Y009258D03*
X015610Y009255D03*
X015610Y009253D03*
X015610Y009250D03*
X015610Y009248D03*
X015612Y009243D03*
X015612Y009240D03*
X015612Y009238D03*
X015615Y009233D03*
X015615Y009230D03*
X015617Y009228D03*
X015617Y009225D03*
X015620Y009220D03*
X015782Y009223D03*
X015782Y009225D03*
X015785Y009228D03*
X015785Y009230D03*
X015787Y009235D03*
X015787Y009238D03*
X015790Y009245D03*
X015790Y009248D03*
X015790Y009250D03*
X015792Y009260D03*
X015792Y009263D03*
X015792Y009265D03*
X015792Y009268D03*
X015792Y009270D03*
X015792Y009273D03*
X015792Y009275D03*
X015792Y009278D03*
X015792Y009280D03*
X015792Y009283D03*
X015792Y009285D03*
X015792Y009288D03*
X015792Y009290D03*
X015792Y009293D03*
X015792Y009295D03*
X015792Y009298D03*
X015790Y009305D03*
X015790Y009308D03*
X015790Y009310D03*
X015790Y009313D03*
X015787Y009318D03*
X015787Y009320D03*
X015787Y009323D03*
X015785Y009325D03*
X015785Y009328D03*
X015782Y009333D03*
X015780Y009338D03*
X015867Y009243D03*
X015865Y009240D03*
X015862Y009200D03*
X016005Y009213D03*
X016002Y009343D03*
X016000Y009345D03*
X016000Y009348D03*
X016100Y009318D03*
X016100Y009315D03*
X016252Y009308D03*
X016252Y009305D03*
X016252Y009303D03*
X016252Y009300D03*
X016252Y009298D03*
X016252Y009295D03*
X016250Y009280D03*
X016250Y009278D03*
X016250Y009275D03*
X016252Y009255D03*
X016252Y009253D03*
X016252Y009250D03*
X016252Y009248D03*
X016252Y009245D03*
X016252Y009243D03*
X016255Y009240D03*
X016255Y009238D03*
X016255Y009235D03*
X016255Y009233D03*
X016257Y009228D03*
X016257Y009225D03*
X016255Y009313D03*
X016255Y009315D03*
X016255Y009318D03*
X016257Y009323D03*
X016257Y009325D03*
X016260Y009330D03*
X016417Y009343D03*
X016417Y009223D03*
X016507Y009205D03*
X016507Y009168D03*
X016587Y009230D03*
X016587Y009233D03*
X016585Y009235D03*
X016585Y009238D03*
X016585Y009240D03*
X016582Y009245D03*
X016582Y009248D03*
X016582Y009250D03*
X016580Y009263D03*
X016580Y009265D03*
X016580Y009268D03*
X016580Y009270D03*
X016580Y009273D03*
X016580Y009275D03*
X016580Y009278D03*
X016580Y009280D03*
X016580Y009283D03*
X016580Y009285D03*
X016580Y009288D03*
X016580Y009290D03*
X016580Y009293D03*
X016580Y009295D03*
X016582Y009305D03*
X016582Y009308D03*
X016582Y009310D03*
X016585Y009315D03*
X016585Y009318D03*
X016585Y009320D03*
X016587Y009323D03*
X016587Y009325D03*
X016587Y009328D03*
X016590Y009333D03*
X016722Y009198D03*
X016790Y009228D03*
X016790Y009230D03*
X016790Y009233D03*
X016787Y009235D03*
X016787Y009238D03*
X016787Y009240D03*
X016785Y009245D03*
X016785Y009248D03*
X016785Y009250D03*
X016785Y009253D03*
X016782Y009260D03*
X016782Y009263D03*
X016782Y009265D03*
X016782Y009268D03*
X016782Y009270D03*
X016782Y009273D03*
X016782Y009275D03*
X016782Y009278D03*
X016782Y009280D03*
X016782Y009283D03*
X016782Y009285D03*
X016782Y009288D03*
X016782Y009290D03*
X016782Y009293D03*
X016782Y009295D03*
X016785Y009305D03*
X016785Y009308D03*
X016785Y009310D03*
X016785Y009313D03*
X016787Y009315D03*
X016787Y009318D03*
X016787Y009320D03*
X016787Y009323D03*
X016790Y009325D03*
X016790Y009328D03*
X016792Y009333D03*
X016795Y009338D03*
X016792Y009225D03*
X016792Y009223D03*
X016955Y009220D03*
X016957Y009225D03*
X016960Y009230D03*
X016960Y009233D03*
X016962Y009238D03*
X016962Y009240D03*
X016962Y009243D03*
X016965Y009248D03*
X016965Y009250D03*
X016965Y009253D03*
X016965Y009255D03*
X016967Y009268D03*
X016967Y009270D03*
X016967Y009273D03*
X016967Y009275D03*
X016967Y009278D03*
X016967Y009280D03*
X016967Y009283D03*
X016967Y009285D03*
X016967Y009288D03*
X016965Y009300D03*
X016965Y009303D03*
X016965Y009305D03*
X016965Y009308D03*
X016962Y009315D03*
X016962Y009318D03*
X016962Y009320D03*
X016960Y009323D03*
X016960Y009325D03*
X016960Y009328D03*
X016957Y009330D03*
X016957Y009333D03*
X017047Y009338D03*
X017192Y009325D03*
X017330Y009345D03*
X017332Y009340D03*
X017332Y009338D03*
X017335Y009328D03*
X016312Y009155D03*
X014895Y009328D03*
X014780Y009328D03*
X014777Y009330D03*
X014775Y009393D03*
X014677Y009393D03*
X014670Y009328D03*
X014552Y009330D03*
X014550Y009393D03*
X014552Y009395D03*
X014460Y009258D03*
X014307Y009253D03*
X014305Y009258D03*
X014305Y009260D03*
X014302Y009273D03*
X014302Y009275D03*
X014302Y009278D03*
X014302Y009280D03*
X014227Y009290D03*
X014227Y009293D03*
X014227Y009295D03*
X014227Y009298D03*
X014227Y009300D03*
X014227Y009303D03*
X014227Y009305D03*
X014227Y009308D03*
X014227Y009310D03*
X014227Y009313D03*
X014227Y009315D03*
X014227Y009318D03*
X014227Y009320D03*
X014227Y009323D03*
X014227Y009325D03*
X014227Y009328D03*
X014227Y009330D03*
X014227Y009333D03*
X014227Y009335D03*
X014227Y009338D03*
X014227Y009340D03*
X014227Y009343D03*
X014227Y009345D03*
X014227Y009348D03*
X014225Y009350D03*
X014225Y009353D03*
X014225Y009355D03*
X014225Y009358D03*
X014222Y009365D03*
X014225Y009285D03*
X014225Y009283D03*
X014225Y009280D03*
X014225Y009278D03*
X014222Y009275D03*
X014222Y009273D03*
X014222Y009270D03*
X014220Y009265D03*
X014060Y009253D03*
X014060Y009175D03*
X014060Y009370D03*
X014692Y009153D03*
X014760Y009155D03*
X014777Y009258D03*
D165*
X015882Y006178D03*
D166*
X015882Y006180D03*
D167*
X015882Y006183D03*
D168*
X015883Y006185D03*
D169*
X015883Y006188D03*
D170*
X015885Y006190D03*
D171*
X015885Y006193D03*
D172*
X014816Y006195D03*
X014811Y006198D03*
X014808Y006200D03*
X014801Y006205D03*
X014798Y006208D03*
X014793Y006210D03*
X014791Y006213D03*
X014786Y006215D03*
X014783Y006218D03*
X014781Y006220D03*
X014776Y006223D03*
X014773Y006225D03*
X014763Y006233D03*
X014773Y008780D03*
X014776Y008783D03*
X014781Y008785D03*
X014783Y008788D03*
X014786Y008790D03*
X014791Y008793D03*
X014793Y008795D03*
X014798Y008798D03*
X014801Y008800D03*
X014808Y008805D03*
X014811Y008808D03*
X014816Y008810D03*
X014696Y009155D03*
X014553Y009258D03*
X014551Y009333D03*
X014548Y009335D03*
X014548Y009390D03*
X014461Y009390D03*
X014461Y009393D03*
X014461Y009395D03*
X014461Y009398D03*
X014461Y009400D03*
X014461Y009403D03*
X014461Y009405D03*
X014461Y009408D03*
X014461Y009410D03*
X014461Y009413D03*
X014461Y009415D03*
X014461Y009418D03*
X014461Y009420D03*
X014461Y009423D03*
X014461Y009425D03*
X014461Y009428D03*
X014461Y009430D03*
X014461Y009433D03*
X014461Y009435D03*
X014461Y009438D03*
X014461Y009440D03*
X014461Y009388D03*
X014461Y009385D03*
X014461Y009383D03*
X014461Y009380D03*
X014461Y009378D03*
X014461Y009375D03*
X014461Y009373D03*
X014461Y009370D03*
X014461Y009368D03*
X014461Y009365D03*
X014461Y009363D03*
X014461Y009360D03*
X014461Y009358D03*
X014461Y009355D03*
X014461Y009353D03*
X014461Y009350D03*
X014461Y009348D03*
X014461Y009345D03*
X014461Y009343D03*
X014461Y009340D03*
X014461Y009338D03*
X014461Y009335D03*
X014461Y009333D03*
X014461Y009330D03*
X014461Y009328D03*
X014461Y009325D03*
X014461Y009323D03*
X014461Y009320D03*
X014461Y009318D03*
X014461Y009315D03*
X014461Y009313D03*
X014461Y009310D03*
X014461Y009308D03*
X014461Y009305D03*
X014461Y009303D03*
X014461Y009300D03*
X014461Y009298D03*
X014461Y009295D03*
X014461Y009293D03*
X014461Y009290D03*
X014461Y009288D03*
X014461Y009285D03*
X014461Y009283D03*
X014461Y009280D03*
X014461Y009278D03*
X014461Y009275D03*
X014461Y009273D03*
X014461Y009270D03*
X014461Y009268D03*
X014461Y009265D03*
X014461Y009263D03*
X014461Y009260D03*
X014303Y009263D03*
X014303Y009265D03*
X014303Y009268D03*
X014303Y009270D03*
X014301Y009283D03*
X014301Y009285D03*
X014301Y009288D03*
X014301Y009290D03*
X014301Y009293D03*
X014301Y009295D03*
X014301Y009298D03*
X014301Y009300D03*
X014301Y009303D03*
X014301Y009305D03*
X014301Y009308D03*
X014301Y009310D03*
X014301Y009313D03*
X014301Y009315D03*
X014301Y009318D03*
X014301Y009320D03*
X014301Y009323D03*
X014301Y009325D03*
X014301Y009328D03*
X014301Y009330D03*
X014301Y009333D03*
X014301Y009335D03*
X014301Y009338D03*
X014301Y009340D03*
X014301Y009343D03*
X014301Y009345D03*
X014301Y009348D03*
X014301Y009350D03*
X014301Y009353D03*
X014301Y009355D03*
X014301Y009358D03*
X014301Y009360D03*
X014301Y009363D03*
X014301Y009365D03*
X014301Y009368D03*
X014301Y009370D03*
X014301Y009373D03*
X014301Y009375D03*
X014301Y009378D03*
X014301Y009380D03*
X014301Y009383D03*
X014301Y009385D03*
X014301Y009388D03*
X014301Y009390D03*
X014301Y009393D03*
X014301Y009395D03*
X014301Y009398D03*
X014301Y009400D03*
X014301Y009403D03*
X014301Y009405D03*
X014301Y009408D03*
X014301Y009410D03*
X014301Y009413D03*
X014301Y009415D03*
X014301Y009418D03*
X014301Y009420D03*
X014301Y009423D03*
X014301Y009425D03*
X014301Y009428D03*
X014301Y009430D03*
X014301Y009433D03*
X014301Y009435D03*
X014301Y009438D03*
X014301Y009440D03*
X014226Y009288D03*
X014058Y009288D03*
X014058Y009290D03*
X014058Y009293D03*
X014058Y009295D03*
X014058Y009298D03*
X014058Y009300D03*
X014058Y009303D03*
X014058Y009305D03*
X014058Y009308D03*
X014058Y009310D03*
X014058Y009313D03*
X014058Y009315D03*
X014058Y009318D03*
X014058Y009320D03*
X014058Y009323D03*
X014058Y009325D03*
X014058Y009328D03*
X014058Y009330D03*
X014058Y009333D03*
X014058Y009335D03*
X014058Y009338D03*
X014058Y009340D03*
X014058Y009343D03*
X014058Y009345D03*
X014058Y009348D03*
X014058Y009350D03*
X014058Y009353D03*
X014058Y009355D03*
X014058Y009358D03*
X014058Y009360D03*
X014058Y009363D03*
X014058Y009365D03*
X014058Y009368D03*
X014058Y009285D03*
X014058Y009283D03*
X014058Y009280D03*
X014058Y009278D03*
X014058Y009275D03*
X014058Y009273D03*
X014058Y009270D03*
X014058Y009268D03*
X014058Y009265D03*
X014058Y009263D03*
X014058Y009260D03*
X014058Y009258D03*
X014058Y009255D03*
X014058Y009208D03*
X014058Y009205D03*
X014058Y009203D03*
X014058Y009200D03*
X014058Y009198D03*
X014058Y009195D03*
X014058Y009193D03*
X014058Y009190D03*
X014058Y009188D03*
X014058Y009185D03*
X014058Y009183D03*
X014058Y009180D03*
X014058Y009178D03*
X014058Y009148D03*
X014058Y009145D03*
X014058Y009143D03*
X014058Y009140D03*
X014058Y009138D03*
X014058Y009135D03*
X014058Y009133D03*
X014058Y009130D03*
X014058Y009128D03*
X014058Y009125D03*
X014058Y009123D03*
X014058Y009120D03*
X014058Y009118D03*
X014058Y009115D03*
X014058Y009113D03*
X014058Y009110D03*
X014673Y009330D03*
X014676Y009333D03*
X014773Y009335D03*
X014776Y009333D03*
X014771Y009388D03*
X014773Y009390D03*
X014901Y009393D03*
X014898Y009330D03*
X014931Y009190D03*
X014931Y009188D03*
X015101Y009270D03*
X015098Y009275D03*
X015098Y009278D03*
X015098Y009280D03*
X015096Y009283D03*
X015096Y009285D03*
X015096Y009288D03*
X015096Y009290D03*
X015096Y009293D03*
X015093Y009298D03*
X015093Y009300D03*
X015093Y009303D03*
X015093Y009305D03*
X015093Y009308D03*
X015096Y009345D03*
X015096Y009348D03*
X015096Y009350D03*
X015096Y009353D03*
X015096Y009355D03*
X015098Y009360D03*
X015098Y009363D03*
X015101Y009365D03*
X015101Y009368D03*
X015101Y009370D03*
X015103Y009373D03*
X015103Y009375D03*
X015106Y009378D03*
X015248Y009390D03*
X015251Y009388D03*
X015376Y009388D03*
X015376Y009390D03*
X015376Y009393D03*
X015376Y009395D03*
X015376Y009398D03*
X015376Y009400D03*
X015376Y009403D03*
X015376Y009405D03*
X015376Y009408D03*
X015376Y009410D03*
X015376Y009413D03*
X015376Y009415D03*
X015376Y009418D03*
X015376Y009420D03*
X015376Y009423D03*
X015376Y009425D03*
X015376Y009428D03*
X015376Y009430D03*
X015376Y009433D03*
X015376Y009435D03*
X015376Y009438D03*
X015376Y009440D03*
X015376Y009443D03*
X015376Y009445D03*
X015376Y009448D03*
X015376Y009450D03*
X015376Y009453D03*
X015376Y009455D03*
X015376Y009458D03*
X015376Y009460D03*
X015376Y009463D03*
X015376Y009465D03*
X015376Y009468D03*
X015376Y009470D03*
X015376Y009473D03*
X015376Y009475D03*
X015376Y009478D03*
X015376Y009480D03*
X015376Y009483D03*
X015376Y009485D03*
X015376Y009488D03*
X015376Y009490D03*
X015376Y009493D03*
X015376Y009495D03*
X015376Y009498D03*
X015376Y009500D03*
X015376Y009503D03*
X015376Y009505D03*
X015376Y009508D03*
X015376Y009510D03*
X015376Y009513D03*
X015376Y009385D03*
X015376Y009383D03*
X015376Y009380D03*
X015376Y009378D03*
X015376Y009375D03*
X015376Y009330D03*
X015376Y009328D03*
X015376Y009325D03*
X015376Y009323D03*
X015376Y009320D03*
X015376Y009318D03*
X015376Y009315D03*
X015376Y009313D03*
X015376Y009310D03*
X015376Y009308D03*
X015376Y009305D03*
X015376Y009303D03*
X015376Y009300D03*
X015376Y009298D03*
X015376Y009295D03*
X015376Y009293D03*
X015376Y009290D03*
X015376Y009288D03*
X015376Y009285D03*
X015376Y009283D03*
X015376Y009280D03*
X015376Y009278D03*
X015376Y009275D03*
X015376Y009273D03*
X015376Y009270D03*
X015376Y009268D03*
X015376Y009265D03*
X015376Y009263D03*
X015376Y009260D03*
X015376Y009258D03*
X015376Y009255D03*
X015376Y009253D03*
X015376Y009250D03*
X015376Y009248D03*
X015376Y009245D03*
X015376Y009243D03*
X015376Y009240D03*
X015376Y009238D03*
X015376Y009235D03*
X015376Y009233D03*
X015376Y009230D03*
X015376Y009228D03*
X015376Y009225D03*
X015376Y009223D03*
X015376Y009220D03*
X015376Y009218D03*
X015251Y009238D03*
X015541Y009243D03*
X015543Y009255D03*
X015543Y009258D03*
X015543Y009260D03*
X015543Y009303D03*
X015543Y009305D03*
X015608Y009295D03*
X015608Y009293D03*
X015608Y009290D03*
X015608Y009288D03*
X015608Y009270D03*
X015608Y009268D03*
X015608Y009265D03*
X015608Y009263D03*
X015608Y009260D03*
X015611Y009245D03*
X015613Y009235D03*
X015611Y009310D03*
X015788Y009315D03*
X015791Y009303D03*
X015791Y009300D03*
X015791Y009258D03*
X015791Y009255D03*
X015791Y009253D03*
X015788Y009243D03*
X015788Y009240D03*
X015786Y009233D03*
X015861Y009233D03*
X015863Y009238D03*
X015858Y009210D03*
X015858Y009208D03*
X015861Y009203D03*
X016006Y009215D03*
X016006Y009325D03*
X016006Y009328D03*
X016006Y009330D03*
X016006Y009333D03*
X016003Y009335D03*
X016003Y009338D03*
X016003Y009340D03*
X016098Y009313D03*
X016098Y009310D03*
X016251Y009293D03*
X016251Y009290D03*
X016251Y009288D03*
X016251Y009285D03*
X016251Y009283D03*
X016251Y009273D03*
X016251Y009270D03*
X016251Y009268D03*
X016251Y009265D03*
X016251Y009263D03*
X016251Y009260D03*
X016251Y009258D03*
X016253Y009310D03*
X016256Y009320D03*
X016326Y009403D03*
X016418Y009403D03*
X016418Y009405D03*
X016418Y009408D03*
X016418Y009410D03*
X016418Y009413D03*
X016418Y009415D03*
X016418Y009418D03*
X016418Y009420D03*
X016418Y009423D03*
X016418Y009425D03*
X016418Y009428D03*
X016418Y009430D03*
X016418Y009433D03*
X016418Y009435D03*
X016418Y009438D03*
X016418Y009440D03*
X016418Y009443D03*
X016418Y009445D03*
X016418Y009448D03*
X016418Y009450D03*
X016418Y009453D03*
X016418Y009455D03*
X016418Y009458D03*
X016418Y009460D03*
X016418Y009463D03*
X016418Y009465D03*
X016418Y009468D03*
X016418Y009470D03*
X016418Y009473D03*
X016418Y009475D03*
X016418Y009478D03*
X016418Y009480D03*
X016418Y009483D03*
X016418Y009485D03*
X016418Y009488D03*
X016418Y009490D03*
X016418Y009493D03*
X016418Y009495D03*
X016418Y009498D03*
X016418Y009500D03*
X016418Y009503D03*
X016418Y009505D03*
X016418Y009508D03*
X016418Y009510D03*
X016418Y009513D03*
X016418Y009400D03*
X016418Y009398D03*
X016418Y009395D03*
X016418Y009393D03*
X016418Y009390D03*
X016418Y009388D03*
X016418Y009385D03*
X016418Y009340D03*
X016418Y009338D03*
X016418Y009335D03*
X016418Y009333D03*
X016418Y009330D03*
X016418Y009328D03*
X016418Y009325D03*
X016418Y009323D03*
X016418Y009320D03*
X016418Y009318D03*
X016418Y009315D03*
X016418Y009313D03*
X016418Y009310D03*
X016418Y009308D03*
X016418Y009305D03*
X016418Y009303D03*
X016418Y009300D03*
X016418Y009298D03*
X016418Y009295D03*
X016418Y009293D03*
X016418Y009290D03*
X016418Y009288D03*
X016418Y009285D03*
X016418Y009283D03*
X016418Y009280D03*
X016418Y009278D03*
X016418Y009275D03*
X016418Y009273D03*
X016418Y009270D03*
X016418Y009268D03*
X016418Y009265D03*
X016418Y009263D03*
X016418Y009260D03*
X016418Y009258D03*
X016418Y009255D03*
X016418Y009253D03*
X016418Y009250D03*
X016418Y009248D03*
X016418Y009245D03*
X016418Y009243D03*
X016418Y009240D03*
X016418Y009238D03*
X016418Y009235D03*
X016418Y009233D03*
X016418Y009230D03*
X016418Y009228D03*
X016418Y009225D03*
X016508Y009208D03*
X016508Y009165D03*
X016583Y009243D03*
X016581Y009253D03*
X016581Y009255D03*
X016581Y009258D03*
X016581Y009260D03*
X016581Y009298D03*
X016581Y009300D03*
X016581Y009303D03*
X016583Y009313D03*
X016783Y009303D03*
X016783Y009300D03*
X016783Y009298D03*
X016783Y009258D03*
X016783Y009255D03*
X016786Y009243D03*
X016961Y009235D03*
X016963Y009245D03*
X016966Y009258D03*
X016966Y009260D03*
X016966Y009263D03*
X016966Y009265D03*
X016966Y009290D03*
X016966Y009293D03*
X016966Y009295D03*
X016966Y009298D03*
X016963Y009310D03*
X016963Y009313D03*
X017046Y009313D03*
X017046Y009315D03*
X017046Y009318D03*
X017046Y009320D03*
X017046Y009323D03*
X017046Y009325D03*
X017046Y009328D03*
X017046Y009330D03*
X017046Y009333D03*
X017046Y009335D03*
X017046Y009310D03*
X017046Y009308D03*
X017046Y009305D03*
X017046Y009303D03*
X017046Y009300D03*
X017046Y009298D03*
X017046Y009295D03*
X017046Y009293D03*
X017046Y009290D03*
X017046Y009288D03*
X017046Y009285D03*
X017046Y009283D03*
X017046Y009280D03*
X017046Y009278D03*
X017046Y009275D03*
X017046Y009273D03*
X017046Y009270D03*
X017046Y009268D03*
X017046Y009265D03*
X017046Y009263D03*
X017046Y009260D03*
X017046Y009258D03*
X017046Y009255D03*
X017046Y009253D03*
X017046Y009250D03*
X017046Y009248D03*
X017046Y009245D03*
X017046Y009243D03*
X017046Y009240D03*
X017046Y009238D03*
X017046Y009235D03*
X017046Y009233D03*
X017046Y009230D03*
X017046Y009228D03*
X017046Y009225D03*
X017046Y009223D03*
X017046Y009220D03*
X017046Y009218D03*
X017046Y009215D03*
X017046Y009213D03*
X017046Y009210D03*
X017046Y009208D03*
X017046Y009205D03*
X017046Y009203D03*
X017046Y009200D03*
X017046Y009198D03*
X017046Y009195D03*
X017046Y009193D03*
X017046Y009190D03*
X017046Y009188D03*
X017046Y009185D03*
X017046Y009183D03*
X017046Y009180D03*
X017046Y009178D03*
X017046Y009175D03*
X017046Y009173D03*
X017046Y009170D03*
X017046Y009168D03*
X017046Y009165D03*
X017046Y009163D03*
X017046Y009160D03*
X017046Y009158D03*
X017046Y009155D03*
X017191Y009155D03*
X017191Y009158D03*
X017191Y009160D03*
X017191Y009163D03*
X017191Y009165D03*
X017191Y009168D03*
X017191Y009170D03*
X017191Y009173D03*
X017191Y009175D03*
X017191Y009178D03*
X017191Y009180D03*
X017191Y009183D03*
X017191Y009185D03*
X017191Y009188D03*
X017191Y009190D03*
X017191Y009193D03*
X017191Y009195D03*
X017191Y009198D03*
X017191Y009200D03*
X017191Y009203D03*
X017191Y009205D03*
X017191Y009208D03*
X017191Y009210D03*
X017191Y009213D03*
X017191Y009215D03*
X017191Y009218D03*
X017191Y009220D03*
X017191Y009223D03*
X017191Y009225D03*
X017191Y009228D03*
X017191Y009230D03*
X017191Y009233D03*
X017191Y009235D03*
X017191Y009238D03*
X017191Y009240D03*
X017191Y009243D03*
X017191Y009245D03*
X017191Y009248D03*
X017191Y009250D03*
X017191Y009253D03*
X017191Y009255D03*
X017191Y009258D03*
X017191Y009260D03*
X017191Y009263D03*
X017191Y009265D03*
X017191Y009268D03*
X017191Y009270D03*
X017191Y009273D03*
X017191Y009275D03*
X017191Y009278D03*
X017191Y009280D03*
X017191Y009283D03*
X017191Y009285D03*
X017191Y009288D03*
X017191Y009290D03*
X017191Y009293D03*
X017191Y009295D03*
X017191Y009298D03*
X017191Y009300D03*
X017191Y009303D03*
X017191Y009305D03*
X017191Y009308D03*
X017191Y009310D03*
X017191Y009313D03*
X017191Y009315D03*
X017191Y009318D03*
X017191Y009320D03*
X017191Y009323D03*
X017333Y009330D03*
X017333Y009333D03*
X017333Y009335D03*
X017336Y009325D03*
X017336Y009323D03*
X017336Y009320D03*
X017336Y009318D03*
X017336Y009315D03*
X017336Y009313D03*
X017336Y009310D03*
X017336Y009308D03*
X017336Y009305D03*
X017336Y009303D03*
X017336Y009300D03*
X017336Y009298D03*
X017336Y009295D03*
X017336Y009293D03*
X017336Y009290D03*
X017336Y009288D03*
X017336Y009285D03*
X017336Y009283D03*
X017336Y009280D03*
X017336Y009278D03*
X017336Y009275D03*
X017336Y009273D03*
X017336Y009270D03*
X017336Y009268D03*
X017336Y009265D03*
X017336Y009263D03*
X017336Y009260D03*
X017336Y009258D03*
X017336Y009255D03*
X017336Y009253D03*
X017336Y009250D03*
X017336Y009248D03*
X017336Y009245D03*
X017336Y009243D03*
X017336Y009240D03*
X017336Y009238D03*
X017336Y009235D03*
X017336Y009233D03*
X017336Y009230D03*
X017336Y009228D03*
X017336Y009225D03*
X017336Y009223D03*
X017336Y009220D03*
X017336Y009218D03*
X017336Y009215D03*
X017336Y009213D03*
X017336Y009210D03*
X017336Y009208D03*
X017336Y009205D03*
X017336Y009203D03*
X017336Y009200D03*
X017336Y009198D03*
X017336Y009195D03*
X017336Y009193D03*
X017336Y009190D03*
X017336Y009188D03*
X017336Y009185D03*
X017336Y009183D03*
X017336Y009180D03*
X017336Y009178D03*
X017336Y009175D03*
X017336Y009173D03*
X017336Y009170D03*
X017336Y009168D03*
X017336Y009165D03*
X017336Y009163D03*
X017336Y009160D03*
X017336Y009158D03*
X017336Y009155D03*
X015878Y009355D03*
X015701Y009153D03*
X015011Y009553D03*
D173*
X015885Y006195D03*
D174*
X015886Y006198D03*
D175*
X015886Y006200D03*
D176*
X015888Y006203D03*
D177*
X015888Y006205D03*
D178*
X015888Y006208D03*
D179*
X015890Y006210D03*
D180*
X015890Y006213D03*
D181*
X015891Y006215D03*
D182*
X015891Y006218D03*
D183*
X015891Y006220D03*
D184*
X015893Y006223D03*
D185*
X015893Y006225D03*
D186*
X014770Y006228D03*
X014767Y006230D03*
X014760Y006235D03*
X014757Y006238D03*
X014750Y006243D03*
X014747Y006245D03*
X014740Y006250D03*
X014737Y006253D03*
X014727Y006260D03*
X014725Y006263D03*
X014715Y008735D03*
X014725Y008743D03*
X014727Y008745D03*
X014737Y008753D03*
X014740Y008755D03*
X014747Y008760D03*
X014750Y008763D03*
X014757Y008768D03*
X014760Y008770D03*
X014762Y008773D03*
X014767Y008775D03*
X014770Y008778D03*
X014922Y009158D03*
X014925Y009160D03*
X014932Y009185D03*
X014900Y009333D03*
X014902Y009335D03*
X014905Y009340D03*
X014905Y009385D03*
X014905Y009388D03*
X014902Y009390D03*
X014837Y009443D03*
X014770Y009385D03*
X014770Y009383D03*
X014767Y009378D03*
X014767Y009375D03*
X014767Y009350D03*
X014770Y009343D03*
X014770Y009340D03*
X014772Y009338D03*
X014680Y009340D03*
X014677Y009335D03*
X014680Y009388D03*
X014677Y009390D03*
X014612Y009443D03*
X014547Y009388D03*
X014545Y009385D03*
X014545Y009383D03*
X014542Y009375D03*
X014542Y009353D03*
X014545Y009343D03*
X014547Y009338D03*
X014057Y009410D03*
X015097Y009358D03*
X015095Y009295D03*
X015255Y009383D03*
X015375Y009180D03*
X015375Y009178D03*
X015857Y009213D03*
X015857Y009215D03*
X015857Y009218D03*
X015857Y009220D03*
X015857Y009223D03*
X015860Y009228D03*
X015860Y009230D03*
X015862Y009235D03*
X015860Y009205D03*
X016007Y009218D03*
X016007Y009220D03*
X016007Y009223D03*
X016007Y009225D03*
X016007Y009228D03*
X016007Y009230D03*
X016007Y009233D03*
X016007Y009235D03*
X016007Y009238D03*
X016007Y009240D03*
X016007Y009243D03*
X016007Y009245D03*
X016007Y009248D03*
X016007Y009250D03*
X016007Y009253D03*
X016007Y009255D03*
X016007Y009258D03*
X016007Y009298D03*
X016007Y009300D03*
X016007Y009303D03*
X016007Y009305D03*
X016007Y009308D03*
X016007Y009310D03*
X016007Y009313D03*
X016007Y009315D03*
X016007Y009318D03*
X016007Y009320D03*
X016007Y009323D03*
X016097Y009308D03*
X016097Y009305D03*
X016097Y009303D03*
X016097Y009300D03*
X016097Y009298D03*
X016097Y009295D03*
X016097Y009293D03*
X016097Y009290D03*
X016097Y009288D03*
X016097Y009285D03*
X016097Y009283D03*
X016097Y009280D03*
X016097Y009278D03*
X016097Y009275D03*
X016097Y009273D03*
X016097Y009270D03*
X016097Y009268D03*
X016097Y009265D03*
X016097Y009263D03*
X016097Y009260D03*
X016097Y009258D03*
X016097Y009255D03*
X016097Y009253D03*
X016097Y009250D03*
X016097Y009248D03*
X016097Y009245D03*
X016097Y009243D03*
X016097Y009240D03*
X016097Y009238D03*
X016097Y009235D03*
X016097Y009233D03*
X016097Y009230D03*
X016097Y009228D03*
X016097Y009225D03*
X016097Y009223D03*
X016097Y009220D03*
X016097Y009218D03*
X016097Y009215D03*
X016097Y009213D03*
X016097Y009210D03*
X016097Y009208D03*
X016097Y009205D03*
X016097Y009203D03*
X016097Y009200D03*
X016097Y009198D03*
X016097Y009195D03*
X016097Y009193D03*
X016097Y009190D03*
X016097Y009188D03*
X016097Y009185D03*
X016097Y009183D03*
X016097Y009180D03*
X016097Y009178D03*
X016097Y009175D03*
X016097Y009173D03*
X016097Y009170D03*
X016097Y009168D03*
X016097Y009165D03*
X016097Y009163D03*
X016097Y009160D03*
X016097Y009158D03*
X016097Y009155D03*
X016195Y009400D03*
X016507Y009210D03*
X016507Y009163D03*
X016665Y009153D03*
X016875Y009153D03*
X017137Y009400D03*
D187*
X015893Y006228D03*
D188*
X015893Y006230D03*
D189*
X015896Y006233D03*
D190*
X015896Y006235D03*
D191*
X015896Y006238D03*
X016516Y007503D03*
D192*
X014753Y006240D03*
X014743Y006248D03*
X014733Y006255D03*
X014731Y006258D03*
X014721Y006265D03*
X014718Y006268D03*
X014716Y006270D03*
X014711Y006273D03*
X014708Y006275D03*
X014706Y006278D03*
X014703Y006280D03*
X014693Y006288D03*
X014691Y006290D03*
X014676Y006303D03*
X014673Y006305D03*
X014676Y008703D03*
X014693Y008718D03*
X014703Y008725D03*
X014706Y008728D03*
X014708Y008730D03*
X014711Y008733D03*
X014718Y008738D03*
X014721Y008740D03*
X014731Y008748D03*
X014733Y008750D03*
X014743Y008758D03*
X014753Y008765D03*
X014926Y009163D03*
X014931Y009175D03*
X014931Y009178D03*
X014931Y009180D03*
X014931Y009183D03*
X014903Y009338D03*
X014906Y009343D03*
X014906Y009345D03*
X014908Y009350D03*
X014908Y009353D03*
X014908Y009355D03*
X014908Y009358D03*
X014908Y009368D03*
X014908Y009370D03*
X014908Y009373D03*
X014908Y009375D03*
X014908Y009378D03*
X014906Y009380D03*
X014906Y009383D03*
X014768Y009380D03*
X014766Y009373D03*
X014766Y009370D03*
X014766Y009368D03*
X014766Y009365D03*
X014766Y009363D03*
X014766Y009360D03*
X014766Y009358D03*
X014766Y009355D03*
X014766Y009353D03*
X014768Y009348D03*
X014768Y009345D03*
X014683Y009350D03*
X014683Y009353D03*
X014681Y009345D03*
X014681Y009343D03*
X014678Y009338D03*
X014683Y009373D03*
X014683Y009375D03*
X014683Y009378D03*
X014683Y009380D03*
X014681Y009383D03*
X014681Y009385D03*
X014543Y009380D03*
X014543Y009378D03*
X014541Y009373D03*
X014541Y009370D03*
X014541Y009368D03*
X014541Y009365D03*
X014541Y009363D03*
X014541Y009360D03*
X014541Y009358D03*
X014541Y009355D03*
X014543Y009350D03*
X014543Y009348D03*
X014543Y009345D03*
X014546Y009340D03*
X014551Y009260D03*
X014463Y009218D03*
X014463Y009215D03*
X014463Y009213D03*
X014463Y009210D03*
X014463Y009208D03*
X014356Y009190D03*
X014151Y009190D03*
X014056Y009413D03*
X014056Y009415D03*
X014056Y009418D03*
X014056Y009420D03*
X014056Y009423D03*
X014776Y009260D03*
X015253Y009240D03*
X015263Y009358D03*
X015261Y009368D03*
X015261Y009370D03*
X015258Y009375D03*
X015258Y009378D03*
X015256Y009380D03*
X015253Y009385D03*
X015373Y009175D03*
X015373Y009173D03*
X015373Y009170D03*
X015373Y009168D03*
X015373Y009165D03*
X015858Y009225D03*
X015903Y009153D03*
X015876Y009353D03*
X016096Y009360D03*
X016096Y009363D03*
X016096Y009365D03*
X016096Y009368D03*
X016421Y009185D03*
X016421Y009183D03*
X016421Y009180D03*
X016421Y009178D03*
X017043Y009375D03*
X017043Y009378D03*
X017043Y009380D03*
X017281Y009403D03*
D193*
X015897Y006240D03*
D194*
X015897Y006243D03*
D195*
X015898Y006245D03*
D196*
X015898Y006248D03*
D197*
X015900Y006250D03*
D198*
X015900Y006253D03*
D199*
X015901Y006255D03*
D200*
X015901Y006258D03*
D201*
X015902Y006260D03*
D202*
X015903Y006263D03*
D203*
X015903Y006265D03*
D204*
X015903Y006268D03*
X016486Y007500D03*
D205*
X015905Y006270D03*
D206*
X015906Y006273D03*
D207*
X015906Y006275D03*
D208*
X015906Y006278D03*
D209*
X015907Y006280D03*
D210*
X014700Y006283D03*
X014697Y006285D03*
X014687Y006293D03*
X014685Y006295D03*
X014682Y006298D03*
X014680Y006300D03*
X014670Y006308D03*
X014667Y006310D03*
X014665Y006313D03*
X014662Y006315D03*
X014660Y006318D03*
X014657Y006320D03*
X014647Y006328D03*
X014645Y006330D03*
X014642Y006333D03*
X014640Y006335D03*
X014640Y008670D03*
X014642Y008673D03*
X014645Y008675D03*
X014647Y008678D03*
X014650Y008680D03*
X014657Y008685D03*
X014660Y008688D03*
X014662Y008690D03*
X014665Y008693D03*
X014667Y008695D03*
X014670Y008698D03*
X014672Y008700D03*
X014680Y008705D03*
X014682Y008708D03*
X014685Y008710D03*
X014687Y008713D03*
X014690Y008715D03*
X014697Y008720D03*
X014700Y008723D03*
X014527Y009175D03*
X014530Y009183D03*
X014535Y009193D03*
X014545Y009203D03*
X014547Y009205D03*
X014550Y009263D03*
X014550Y009265D03*
X014465Y009205D03*
X014465Y009203D03*
X014465Y009200D03*
X014682Y009348D03*
X014685Y009355D03*
X014685Y009358D03*
X014685Y009360D03*
X014685Y009363D03*
X014685Y009365D03*
X014685Y009368D03*
X014685Y009370D03*
X014775Y009263D03*
X014772Y009205D03*
X014770Y009203D03*
X014907Y009348D03*
X014910Y009360D03*
X014910Y009363D03*
X014910Y009365D03*
X015260Y009373D03*
X015262Y009365D03*
X015262Y009363D03*
X015262Y009360D03*
X015265Y009355D03*
X015265Y009353D03*
X015265Y009350D03*
X015265Y009348D03*
X015265Y009345D03*
X015372Y009163D03*
X015372Y009160D03*
X015482Y009403D03*
X016095Y009388D03*
X016095Y009385D03*
X016095Y009383D03*
X016095Y009380D03*
X016095Y009378D03*
X016095Y009375D03*
X016095Y009373D03*
X016095Y009370D03*
X016422Y009175D03*
X016422Y009173D03*
X016422Y009170D03*
X016422Y009168D03*
X016422Y009165D03*
X016507Y009160D03*
X016507Y009213D03*
X016725Y009200D03*
X016720Y009358D03*
X017042Y009383D03*
X017042Y009385D03*
X017042Y009388D03*
X017042Y009390D03*
X014055Y009425D03*
X014055Y009428D03*
X014055Y009430D03*
X014055Y009433D03*
D211*
X016472Y007498D03*
X015907Y006283D03*
D212*
X015908Y006285D03*
D213*
X015910Y006288D03*
D214*
X015910Y006290D03*
D215*
X015910Y006293D03*
X016462Y007495D03*
D216*
X015911Y006295D03*
D217*
X015911Y006298D03*
D218*
X015911Y006300D03*
D219*
X015913Y006303D03*
X016453Y007493D03*
D220*
X015913Y006305D03*
D221*
X015915Y006308D03*
D222*
X015915Y006310D03*
X016447Y007490D03*
D223*
X015915Y006313D03*
D224*
X015916Y006315D03*
D225*
X015916Y006318D03*
D226*
X015917Y006320D03*
X016440Y007488D03*
D227*
X014653Y006323D03*
X014651Y006325D03*
X014636Y006338D03*
X014633Y006340D03*
X014631Y006343D03*
X014628Y006345D03*
X014626Y006348D03*
X014623Y006350D03*
X014621Y006353D03*
X014618Y006355D03*
X014616Y006358D03*
X014613Y006360D03*
X014611Y006363D03*
X014608Y006365D03*
X014606Y006368D03*
X014603Y006370D03*
X014601Y006373D03*
X014598Y006375D03*
X014596Y006378D03*
X014563Y006410D03*
X014561Y006413D03*
X014558Y008590D03*
X014561Y008593D03*
X014563Y008595D03*
X014598Y008630D03*
X014601Y008633D03*
X014603Y008635D03*
X014606Y008638D03*
X014608Y008640D03*
X014611Y008643D03*
X014613Y008645D03*
X014616Y008648D03*
X014618Y008650D03*
X014621Y008653D03*
X014623Y008655D03*
X014626Y008658D03*
X014628Y008660D03*
X014631Y008663D03*
X014633Y008665D03*
X014636Y008668D03*
X014653Y008683D03*
X014528Y009178D03*
X014528Y009180D03*
X014531Y009185D03*
X014531Y009188D03*
X014533Y009190D03*
X014536Y009195D03*
X014538Y009198D03*
X014541Y009200D03*
X014466Y009198D03*
X014466Y009195D03*
X014763Y009198D03*
X014766Y009200D03*
X014773Y009265D03*
X015183Y009443D03*
X015371Y009158D03*
X016011Y009175D03*
X016011Y009178D03*
X016011Y009180D03*
X016093Y009390D03*
X016093Y009393D03*
X016093Y009395D03*
X016423Y009163D03*
X016423Y009160D03*
X017041Y009393D03*
X017041Y009395D03*
X014166Y009443D03*
X014053Y009435D03*
D228*
X015918Y006323D03*
D229*
X015918Y006325D03*
X016433Y007485D03*
D230*
X015920Y006328D03*
D231*
X015920Y006330D03*
D232*
X015921Y006333D03*
X016428Y007483D03*
D233*
X015921Y006335D03*
D234*
X015922Y006338D03*
D235*
X015922Y006340D03*
D236*
X015922Y006343D03*
D237*
X015923Y006345D03*
D238*
X015923Y006348D03*
D239*
X015925Y006350D03*
D240*
X015925Y006353D03*
D241*
X015926Y006355D03*
D242*
X015926Y006358D03*
X016408Y007473D03*
D243*
X015927Y006360D03*
D244*
X015927Y006363D03*
X016405Y007470D03*
D245*
X015928Y006365D03*
D246*
X015928Y006368D03*
X016398Y007468D03*
D247*
X015930Y006370D03*
D248*
X015930Y006373D03*
X016395Y007465D03*
D249*
X015931Y006375D03*
D250*
X015931Y006378D03*
X016391Y007463D03*
D251*
X014592Y006380D03*
X014590Y006383D03*
X014587Y006385D03*
X014585Y006388D03*
X014582Y006390D03*
X014580Y006393D03*
X014577Y006395D03*
X014575Y006398D03*
X014572Y006400D03*
X014570Y006403D03*
X014567Y006405D03*
X014565Y006408D03*
X014560Y006415D03*
X014557Y006418D03*
X014555Y006420D03*
X014552Y006423D03*
X014550Y006425D03*
X014547Y006428D03*
X014545Y006430D03*
X014542Y006433D03*
X014540Y006435D03*
X014537Y006438D03*
X014522Y006455D03*
X014520Y006458D03*
X014507Y006473D03*
X014505Y006475D03*
X014502Y006478D03*
X014492Y006490D03*
X014492Y008515D03*
X014502Y008528D03*
X014505Y008530D03*
X014507Y008533D03*
X014520Y008548D03*
X014522Y008550D03*
X014535Y008565D03*
X014537Y008568D03*
X014540Y008570D03*
X014542Y008573D03*
X014545Y008575D03*
X014547Y008578D03*
X014550Y008580D03*
X014552Y008583D03*
X014555Y008585D03*
X014557Y008588D03*
X014565Y008598D03*
X014567Y008600D03*
X014570Y008603D03*
X014572Y008605D03*
X014575Y008608D03*
X014577Y008610D03*
X014580Y008613D03*
X014582Y008615D03*
X014585Y008618D03*
X014587Y008620D03*
X014590Y008623D03*
X014592Y008625D03*
X014595Y008628D03*
X015370Y009155D03*
X015470Y009153D03*
X015875Y009350D03*
X016092Y009398D03*
X016195Y009403D03*
X016312Y009153D03*
X016425Y009158D03*
X016012Y009168D03*
X016012Y009170D03*
X016012Y009173D03*
X017040Y009398D03*
X014777Y009275D03*
X014775Y009270D03*
X014775Y009268D03*
X014552Y009275D03*
X014550Y009270D03*
X014550Y009268D03*
X014052Y009438D03*
D252*
X015932Y006380D03*
D253*
X015932Y006383D03*
X016387Y007460D03*
D254*
X015933Y006385D03*
D255*
X015933Y006388D03*
X016383Y007458D03*
D256*
X015935Y006390D03*
D257*
X015935Y006393D03*
X016380Y007455D03*
D258*
X015936Y006395D03*
D259*
X015937Y006398D03*
X016377Y007453D03*
D260*
X015937Y006400D03*
D261*
X015938Y006403D03*
X016373Y007450D03*
D262*
X016371Y007448D03*
X015938Y006405D03*
D263*
X015940Y006408D03*
D264*
X015940Y006410D03*
X016367Y007445D03*
D265*
X015941Y006413D03*
D266*
X015941Y006415D03*
D267*
X015942Y006418D03*
X015942Y006420D03*
D268*
X015942Y006423D03*
D269*
X015943Y006425D03*
X016358Y007438D03*
D270*
X016356Y007435D03*
X015943Y006428D03*
D271*
X015945Y006430D03*
D272*
X015946Y006433D03*
X016353Y007433D03*
D273*
X015946Y006435D03*
D274*
X015947Y006438D03*
X016350Y007430D03*
D275*
X015713Y008080D03*
X014533Y008563D03*
X014531Y008560D03*
X014528Y008558D03*
X014526Y008555D03*
X014523Y008553D03*
X014518Y008545D03*
X014516Y008543D03*
X014513Y008540D03*
X014511Y008538D03*
X014508Y008535D03*
X014501Y008525D03*
X014498Y008523D03*
X014496Y008520D03*
X014493Y008518D03*
X014491Y008513D03*
X014488Y008510D03*
X014486Y008508D03*
X014483Y008505D03*
X014481Y008503D03*
X014478Y008498D03*
X014476Y008495D03*
X014473Y008493D03*
X014468Y008485D03*
X014466Y008483D03*
X014463Y008480D03*
X014458Y008473D03*
X014456Y008470D03*
X014453Y008468D03*
X014451Y008463D03*
X014448Y008460D03*
X014446Y008458D03*
X014441Y008450D03*
X014433Y008440D03*
X014421Y008423D03*
X014468Y009193D03*
X014551Y009273D03*
X014553Y009278D03*
X014556Y009280D03*
X014558Y009283D03*
X014561Y009285D03*
X014613Y009285D03*
X014776Y009273D03*
X014778Y009278D03*
X014781Y009280D03*
X014783Y009283D03*
X014786Y009285D03*
X014838Y009285D03*
X015256Y009243D03*
X015943Y009405D03*
X016091Y009400D03*
X016013Y009165D03*
X016013Y009163D03*
X016426Y009155D03*
X016508Y009158D03*
X016508Y009215D03*
X016726Y009203D03*
X017038Y009400D03*
X017138Y009403D03*
X014403Y006608D03*
X014433Y006565D03*
X014441Y006555D03*
X014446Y006548D03*
X014448Y006545D03*
X014451Y006543D03*
X014453Y006538D03*
X014456Y006535D03*
X014458Y006533D03*
X014461Y006530D03*
X014463Y006525D03*
X014466Y006523D03*
X014468Y006520D03*
X014473Y006513D03*
X014476Y006510D03*
X014478Y006508D03*
X014481Y006503D03*
X014483Y006500D03*
X014486Y006498D03*
X014488Y006495D03*
X014491Y006493D03*
X014493Y006488D03*
X014496Y006485D03*
X014498Y006483D03*
X014501Y006480D03*
X014508Y006470D03*
X014511Y006468D03*
X014513Y006465D03*
X014516Y006463D03*
X014518Y006460D03*
X014523Y006453D03*
X014526Y006450D03*
X014528Y006448D03*
X014531Y006445D03*
X014533Y006443D03*
X014536Y006440D03*
D276*
X015947Y006440D03*
X015947Y006443D03*
X016347Y007428D03*
D277*
X015948Y006445D03*
D278*
X015948Y006448D03*
D279*
X015950Y006450D03*
X016342Y007423D03*
D280*
X015951Y006453D03*
D281*
X015951Y006455D03*
D282*
X015952Y006458D03*
X016337Y007418D03*
D283*
X015953Y006460D03*
D284*
X015952Y006463D03*
X016335Y007415D03*
D285*
X015953Y006465D03*
D286*
X015955Y006468D03*
X016332Y007413D03*
D287*
X016330Y007410D03*
X015955Y006470D03*
D288*
X015956Y006473D03*
D289*
X015957Y006475D03*
X016327Y007408D03*
D290*
X016325Y007405D03*
X016322Y007403D03*
X015957Y006480D03*
X015957Y006478D03*
D291*
X015958Y006483D03*
D292*
X015958Y006485D03*
D293*
X015960Y006488D03*
X016317Y007398D03*
D294*
X015961Y006490D03*
D295*
X015960Y006493D03*
X016315Y007395D03*
D296*
X016313Y007393D03*
X015961Y006495D03*
D297*
X015962Y006498D03*
D298*
X015962Y006500D03*
D299*
X015963Y006503D03*
X015963Y006505D03*
X016308Y007388D03*
D300*
X014480Y006505D03*
X014472Y006515D03*
X014470Y006518D03*
X014462Y006528D03*
X014452Y006540D03*
X014445Y006550D03*
X014442Y006553D03*
X014440Y006558D03*
X014437Y006560D03*
X014435Y006563D03*
X014432Y006568D03*
X014430Y006570D03*
X014427Y006573D03*
X014427Y006575D03*
X014425Y006578D03*
X014422Y006580D03*
X014422Y006583D03*
X014420Y006585D03*
X014417Y006588D03*
X014415Y006590D03*
X014415Y006593D03*
X014412Y006595D03*
X014410Y006598D03*
X014410Y006600D03*
X014407Y006603D03*
X014405Y006605D03*
X014402Y006610D03*
X014400Y006613D03*
X014397Y006618D03*
X014395Y006620D03*
X014392Y006625D03*
X014390Y006628D03*
X014387Y006633D03*
X014385Y006635D03*
X014382Y006640D03*
X014380Y006643D03*
X014377Y006648D03*
X014372Y006655D03*
X014370Y006660D03*
X014367Y006663D03*
X014365Y006668D03*
X014362Y006670D03*
X014360Y006675D03*
X014352Y006688D03*
X014345Y006700D03*
X014335Y006718D03*
X014325Y006735D03*
X014325Y008270D03*
X014335Y008288D03*
X014352Y008318D03*
X014355Y008323D03*
X014360Y008330D03*
X014362Y008335D03*
X014365Y008338D03*
X014367Y008343D03*
X014370Y008345D03*
X014372Y008350D03*
X014377Y008358D03*
X014380Y008363D03*
X014382Y008365D03*
X014385Y008370D03*
X014390Y008378D03*
X014392Y008380D03*
X014395Y008385D03*
X014397Y008388D03*
X014400Y008393D03*
X014402Y008395D03*
X014402Y008398D03*
X014405Y008400D03*
X014407Y008403D03*
X014410Y008405D03*
X014410Y008408D03*
X014412Y008410D03*
X014415Y008413D03*
X014415Y008415D03*
X014417Y008418D03*
X014420Y008420D03*
X014422Y008425D03*
X014425Y008428D03*
X014427Y008430D03*
X014427Y008433D03*
X014430Y008435D03*
X014432Y008438D03*
X014435Y008443D03*
X014437Y008445D03*
X014440Y008448D03*
X014442Y008453D03*
X014445Y008455D03*
X014452Y008465D03*
X014460Y008475D03*
X014462Y008478D03*
X014470Y008488D03*
X014472Y008490D03*
X014480Y008500D03*
X014050Y009440D03*
X016015Y009160D03*
X016015Y009158D03*
X016722Y009355D03*
D301*
X016307Y007385D03*
X015965Y006508D03*
D302*
X015331Y006510D03*
X016841Y008065D03*
X016841Y008068D03*
D303*
X016838Y008103D03*
X016838Y008105D03*
X015318Y006513D03*
D304*
X016370Y006515D03*
X016527Y006760D03*
X016705Y007603D03*
D305*
X016835Y008138D03*
X016835Y008140D03*
X015307Y006518D03*
D306*
X016375Y006518D03*
X016525Y006745D03*
X016525Y006748D03*
X016710Y007608D03*
D307*
X016833Y008150D03*
X016833Y008153D03*
X015301Y006520D03*
D308*
X016380Y006520D03*
X016522Y006735D03*
X016522Y006738D03*
X016712Y007610D03*
D309*
X016832Y008160D03*
X016832Y008163D03*
X016832Y008165D03*
X015297Y006523D03*
D310*
X015295Y006525D03*
D311*
X016388Y006525D03*
X016518Y006723D03*
X016518Y006725D03*
X016716Y007615D03*
D312*
X016827Y008188D03*
X015287Y006530D03*
D313*
X016396Y006530D03*
X016513Y006705D03*
X016513Y006708D03*
D314*
X015285Y006533D03*
X016827Y008195D03*
X016827Y008198D03*
D315*
X016722Y007623D03*
X016512Y006703D03*
X016512Y006700D03*
X016400Y006533D03*
D316*
X015282Y006535D03*
X016825Y008205D03*
X016825Y008208D03*
D317*
X015281Y006900D03*
X015278Y006898D03*
X015281Y006538D03*
D318*
X016407Y006538D03*
X016507Y006688D03*
X016510Y006693D03*
X016510Y006695D03*
D319*
X016508Y006690D03*
X016506Y006685D03*
X016506Y006683D03*
X016408Y006540D03*
X016726Y007628D03*
D320*
X016822Y008220D03*
X016822Y008223D03*
X015275Y006893D03*
X015275Y006543D03*
D321*
X016412Y006543D03*
X016415Y006545D03*
X016505Y006680D03*
D322*
X015273Y006545D03*
X016821Y008225D03*
D323*
X016818Y008233D03*
X016818Y008235D03*
X015271Y006888D03*
X015268Y006550D03*
X015271Y006548D03*
D324*
X016420Y006550D03*
X016497Y006663D03*
X016500Y006668D03*
X016730Y007633D03*
D325*
X016817Y008238D03*
X016817Y008240D03*
X015267Y006885D03*
X015267Y006553D03*
D326*
X016423Y006553D03*
X016426Y006555D03*
X016496Y006660D03*
X016498Y006665D03*
D327*
X015265Y006555D03*
X015265Y006880D03*
X016817Y008245D03*
D328*
X016816Y008248D03*
X016816Y008250D03*
X015263Y006558D03*
D329*
X015262Y006560D03*
X015260Y006563D03*
X015260Y006875D03*
X015262Y006878D03*
X016815Y008253D03*
X016815Y008255D03*
D330*
X016731Y007635D03*
X016488Y006645D03*
X016488Y006643D03*
X016486Y006640D03*
X016436Y006565D03*
D331*
X015256Y006568D03*
X015256Y006868D03*
X016811Y008268D03*
X016811Y008270D03*
D332*
X016732Y007638D03*
X016485Y006638D03*
X016485Y006635D03*
X016482Y006633D03*
X016480Y006628D03*
X016472Y006615D03*
X016450Y006583D03*
X016447Y006580D03*
X016445Y006578D03*
X016442Y006573D03*
X016440Y006570D03*
X016437Y006568D03*
D333*
X015253Y006573D03*
X015251Y006578D03*
X015251Y006860D03*
X015253Y006863D03*
X016808Y008278D03*
D334*
X016807Y008280D03*
X016807Y008283D03*
X015250Y006858D03*
X015250Y006580D03*
D335*
X015248Y006583D03*
X015248Y006855D03*
X016806Y008285D03*
X016806Y008288D03*
D336*
X016805Y008290D03*
X016805Y008293D03*
X015247Y006853D03*
X015247Y006850D03*
X015245Y006848D03*
X015247Y006585D03*
D337*
X015246Y006588D03*
X015243Y006590D03*
X015243Y006593D03*
X015243Y006845D03*
X016803Y008295D03*
D338*
X016802Y008298D03*
X016802Y008300D03*
X015242Y006843D03*
X015242Y006840D03*
X015242Y006595D03*
D339*
X015236Y006608D03*
X015236Y006610D03*
X015236Y006825D03*
X015236Y006828D03*
X016798Y008310D03*
X016798Y008313D03*
D340*
X016797Y008315D03*
X016797Y008318D03*
X015235Y006823D03*
X015235Y006615D03*
X015235Y006613D03*
D341*
X014398Y006615D03*
X014393Y006623D03*
X014388Y006630D03*
X014383Y006638D03*
X014378Y006645D03*
X014376Y006650D03*
X014373Y006653D03*
X014371Y006658D03*
X014366Y006665D03*
X014361Y006673D03*
X014358Y006678D03*
X014356Y006680D03*
X014356Y006683D03*
X014353Y006685D03*
X014351Y006690D03*
X014348Y006693D03*
X014348Y006695D03*
X014346Y006698D03*
X014343Y006703D03*
X014341Y006705D03*
X014341Y006708D03*
X014338Y006710D03*
X014338Y006713D03*
X014336Y006715D03*
X014333Y006720D03*
X014331Y006723D03*
X014331Y006725D03*
X014328Y006728D03*
X014328Y006730D03*
X014326Y006733D03*
X014323Y006738D03*
X014321Y006740D03*
X014321Y006743D03*
X014318Y006745D03*
X014318Y006748D03*
X014316Y006750D03*
X014316Y006753D03*
X014313Y006755D03*
X014311Y006760D03*
X014308Y006765D03*
X014306Y006770D03*
X014303Y006775D03*
X014301Y006780D03*
X014298Y006785D03*
X014296Y006790D03*
X014293Y006795D03*
X014291Y006800D03*
X014288Y006805D03*
X014286Y006808D03*
X014286Y006810D03*
X014283Y006815D03*
X014281Y006820D03*
X014278Y006825D03*
X014276Y006830D03*
X014268Y006848D03*
X014266Y006853D03*
X014263Y006858D03*
X014258Y006870D03*
X014256Y006875D03*
X014253Y006880D03*
X014248Y006893D03*
X014248Y008113D03*
X014253Y008125D03*
X014256Y008130D03*
X014258Y008135D03*
X014263Y008148D03*
X014266Y008153D03*
X014268Y008158D03*
X014273Y008170D03*
X014276Y008175D03*
X014278Y008180D03*
X014281Y008185D03*
X014283Y008190D03*
X014286Y008195D03*
X014286Y008198D03*
X014288Y008200D03*
X014288Y008203D03*
X014291Y008205D03*
X014293Y008210D03*
X014296Y008215D03*
X014298Y008220D03*
X014301Y008225D03*
X014303Y008230D03*
X014306Y008235D03*
X014308Y008240D03*
X014311Y008245D03*
X014313Y008250D03*
X014316Y008253D03*
X014316Y008255D03*
X014318Y008258D03*
X014318Y008260D03*
X014321Y008263D03*
X014321Y008265D03*
X014323Y008268D03*
X014326Y008273D03*
X014328Y008275D03*
X014328Y008278D03*
X014331Y008280D03*
X014331Y008283D03*
X014333Y008285D03*
X014336Y008290D03*
X014338Y008293D03*
X014338Y008295D03*
X014341Y008298D03*
X014341Y008300D03*
X014343Y008303D03*
X014343Y008305D03*
X014346Y008308D03*
X014348Y008310D03*
X014348Y008313D03*
X014351Y008315D03*
X014353Y008320D03*
X014356Y008325D03*
X014358Y008328D03*
X014361Y008333D03*
X014366Y008340D03*
X014371Y008348D03*
X014373Y008353D03*
X014376Y008355D03*
X014378Y008360D03*
X014383Y008368D03*
X014386Y008373D03*
X014388Y008375D03*
X014393Y008383D03*
X014398Y008390D03*
X015873Y009348D03*
X016326Y009405D03*
X016728Y009205D03*
D342*
X016796Y008323D03*
X016796Y008320D03*
X015233Y006820D03*
X015233Y006818D03*
X015231Y006813D03*
X015231Y006625D03*
X015233Y006618D03*
D343*
X015232Y006620D03*
X015232Y006623D03*
X015230Y006628D03*
X015230Y006630D03*
X015230Y006808D03*
X015230Y006810D03*
X015232Y006815D03*
X016795Y008325D03*
D344*
X016793Y008328D03*
X016793Y008330D03*
X016791Y008333D03*
X016791Y008335D03*
X015228Y006805D03*
X015228Y006803D03*
X015228Y006635D03*
X015228Y006633D03*
D345*
X015227Y006638D03*
X015227Y006640D03*
X015225Y006648D03*
X015225Y006788D03*
X015225Y006790D03*
X015227Y006795D03*
X015227Y006798D03*
X015227Y006800D03*
X016790Y008338D03*
D346*
X016788Y008340D03*
X016788Y008343D03*
X015226Y006793D03*
X015223Y006785D03*
X015223Y006783D03*
X015223Y006655D03*
X015223Y006653D03*
X015223Y006650D03*
X015226Y006645D03*
X015226Y006643D03*
D347*
X015221Y006665D03*
X015221Y006668D03*
X015221Y006670D03*
X015221Y006673D03*
X015218Y006683D03*
X015218Y006685D03*
X015218Y006688D03*
X015218Y006748D03*
X015218Y006750D03*
X015218Y006753D03*
X015221Y006763D03*
X015221Y006765D03*
X015221Y006768D03*
X015221Y006770D03*
X016786Y008348D03*
X016786Y008350D03*
D348*
X016785Y008353D03*
X016785Y008355D03*
X015220Y006760D03*
X015220Y006758D03*
X015220Y006755D03*
X015217Y006745D03*
X015217Y006743D03*
X015217Y006740D03*
X015217Y006738D03*
X015217Y006735D03*
X015217Y006733D03*
X015217Y006730D03*
X015217Y006728D03*
X015217Y006725D03*
X015217Y006723D03*
X015217Y006720D03*
X015217Y006718D03*
X015217Y006715D03*
X015217Y006713D03*
X015217Y006710D03*
X015217Y006708D03*
X015217Y006705D03*
X015217Y006703D03*
X015217Y006700D03*
X015217Y006698D03*
X015217Y006695D03*
X015217Y006693D03*
X015217Y006690D03*
X015220Y006680D03*
X015220Y006678D03*
X015220Y006675D03*
D349*
X016516Y006715D03*
X016718Y007618D03*
D350*
X016517Y006720D03*
X016517Y006718D03*
D351*
X016521Y006730D03*
X016521Y006733D03*
X016713Y007613D03*
D352*
X016526Y006758D03*
X016526Y006755D03*
D353*
X014312Y006758D03*
X014310Y006763D03*
X014307Y006768D03*
X014305Y006773D03*
X014302Y006778D03*
X014300Y006783D03*
X014297Y006788D03*
X014295Y006793D03*
X014292Y006798D03*
X014290Y006803D03*
X014285Y006813D03*
X014282Y006818D03*
X014280Y006823D03*
X014277Y006828D03*
X014275Y006833D03*
X014275Y006835D03*
X014272Y006838D03*
X014272Y006840D03*
X014270Y006843D03*
X014270Y006845D03*
X014267Y006850D03*
X014265Y006855D03*
X014262Y006860D03*
X014262Y006863D03*
X014260Y006865D03*
X014260Y006868D03*
X014257Y006873D03*
X014255Y006878D03*
X014252Y006883D03*
X014252Y006885D03*
X014250Y006888D03*
X014250Y006890D03*
X014247Y006895D03*
X014247Y006898D03*
X014245Y006900D03*
X014245Y006903D03*
X014242Y006905D03*
X014242Y006908D03*
X014242Y006910D03*
X014240Y006913D03*
X014240Y006915D03*
X014237Y006918D03*
X014237Y006920D03*
X014237Y006923D03*
X014235Y006925D03*
X014235Y006928D03*
X014235Y006930D03*
X014232Y006933D03*
X014232Y006935D03*
X014230Y006938D03*
X014230Y006940D03*
X014230Y006943D03*
X014227Y006945D03*
X014227Y006948D03*
X014225Y006950D03*
X014225Y006953D03*
X014225Y006955D03*
X014222Y006958D03*
X014222Y006960D03*
X014222Y006963D03*
X014220Y006965D03*
X014220Y006968D03*
X014217Y006973D03*
X014217Y006975D03*
X014215Y006980D03*
X014215Y006983D03*
X014212Y006988D03*
X014212Y006990D03*
X014210Y006995D03*
X014210Y006998D03*
X014207Y007003D03*
X014207Y007005D03*
X014205Y007010D03*
X014205Y007013D03*
X014202Y007018D03*
X014202Y007020D03*
X014200Y007025D03*
X014200Y007028D03*
X014197Y007033D03*
X014197Y007035D03*
X014195Y007040D03*
X014195Y007043D03*
X014192Y007050D03*
X014192Y007053D03*
X014190Y007058D03*
X014190Y007060D03*
X014187Y007068D03*
X014187Y007070D03*
X014185Y007078D03*
X014185Y007080D03*
X014182Y007085D03*
X014182Y007088D03*
X014180Y007095D03*
X014180Y007098D03*
X014177Y007103D03*
X014177Y007105D03*
X014175Y007113D03*
X014175Y007115D03*
X014172Y007125D03*
X014170Y007135D03*
X014167Y007145D03*
X014167Y007148D03*
X014165Y007158D03*
X014162Y007168D03*
X014162Y007170D03*
X014160Y007178D03*
X014160Y007180D03*
X014157Y007193D03*
X014155Y007205D03*
X014152Y007220D03*
X014150Y007233D03*
X014150Y007235D03*
X014147Y007248D03*
X014145Y007263D03*
X014145Y007743D03*
X014147Y007758D03*
X014150Y007773D03*
X014152Y007785D03*
X014155Y007800D03*
X014157Y007813D03*
X014160Y007825D03*
X014160Y007828D03*
X014162Y007835D03*
X014162Y007838D03*
X014165Y007848D03*
X014167Y007858D03*
X014167Y007860D03*
X014170Y007870D03*
X014172Y007880D03*
X014175Y007890D03*
X014175Y007893D03*
X014177Y007900D03*
X014177Y007903D03*
X014180Y007908D03*
X014180Y007910D03*
X014182Y007918D03*
X014182Y007920D03*
X014185Y007928D03*
X014185Y007930D03*
X014187Y007935D03*
X014187Y007938D03*
X014190Y007945D03*
X014190Y007948D03*
X014192Y007953D03*
X014192Y007955D03*
X014195Y007963D03*
X014195Y007965D03*
X014197Y007970D03*
X014197Y007973D03*
X014200Y007978D03*
X014200Y007980D03*
X014202Y007985D03*
X014202Y007988D03*
X014205Y007993D03*
X014205Y007995D03*
X014207Y008000D03*
X014207Y008003D03*
X014210Y008008D03*
X014210Y008010D03*
X014212Y008015D03*
X014212Y008018D03*
X014215Y008023D03*
X014215Y008025D03*
X014217Y008030D03*
X014217Y008033D03*
X014220Y008038D03*
X014220Y008040D03*
X014222Y008043D03*
X014222Y008045D03*
X014222Y008048D03*
X014225Y008050D03*
X014225Y008053D03*
X014225Y008055D03*
X014227Y008058D03*
X014227Y008060D03*
X014230Y008063D03*
X014230Y008065D03*
X014230Y008068D03*
X014232Y008070D03*
X014232Y008073D03*
X014235Y008075D03*
X014235Y008078D03*
X014235Y008080D03*
X014237Y008083D03*
X014237Y008085D03*
X014237Y008088D03*
X014240Y008090D03*
X014240Y008093D03*
X014242Y008095D03*
X014242Y008098D03*
X014242Y008100D03*
X014245Y008103D03*
X014245Y008105D03*
X014247Y008108D03*
X014247Y008110D03*
X014250Y008115D03*
X014250Y008118D03*
X014252Y008120D03*
X014252Y008123D03*
X014255Y008128D03*
X014257Y008133D03*
X014260Y008138D03*
X014260Y008140D03*
X014262Y008143D03*
X014262Y008145D03*
X014265Y008150D03*
X014267Y008155D03*
X014270Y008160D03*
X014270Y008163D03*
X014272Y008165D03*
X014272Y008168D03*
X014275Y008173D03*
X014277Y008178D03*
X014280Y008183D03*
X014282Y008188D03*
X014285Y008193D03*
X014292Y008208D03*
X014295Y008213D03*
X014297Y008218D03*
X014300Y008223D03*
X014302Y008228D03*
X014305Y008233D03*
X014307Y008238D03*
X014310Y008243D03*
X014312Y008248D03*
X015187Y009188D03*
X015257Y009245D03*
X016017Y009155D03*
X016507Y009155D03*
X016507Y009218D03*
X016725Y009353D03*
X016670Y009405D03*
X016875Y009405D03*
D354*
X016526Y006763D03*
D355*
X016528Y006770D03*
X016703Y007600D03*
D356*
X016702Y007598D03*
X016527Y006773D03*
D357*
X016530Y006780D03*
X016700Y007595D03*
D358*
X016528Y006783D03*
D359*
X016531Y006788D03*
D360*
X016530Y006790D03*
X016695Y007590D03*
D361*
X016531Y006793D03*
D362*
X016531Y006798D03*
X016531Y006800D03*
D363*
X016531Y006803D03*
X016531Y006805D03*
D364*
X016531Y006813D03*
X016531Y006815D03*
D365*
X016531Y006820D03*
D366*
X016530Y006823D03*
X016680Y007575D03*
D367*
X016530Y006835D03*
D368*
X016528Y006843D03*
X016668Y007565D03*
D369*
X016527Y006845D03*
D370*
X016527Y006848D03*
X016527Y006850D03*
X016665Y007563D03*
D371*
X016526Y006855D03*
D372*
X016526Y006858D03*
X016658Y007558D03*
D373*
X016525Y006860D03*
D374*
X016525Y006863D03*
D375*
X016523Y006865D03*
D376*
X015257Y006870D03*
X016812Y008263D03*
X016812Y008265D03*
D377*
X016650Y007550D03*
X016522Y006870D03*
D378*
X016521Y006875D03*
X016646Y007548D03*
D379*
X016517Y006883D03*
D380*
X016516Y006885D03*
X016638Y007543D03*
D381*
X016820Y008228D03*
X016820Y008230D03*
X015272Y006890D03*
D382*
X016513Y006890D03*
D383*
X016508Y006898D03*
D384*
X016508Y006900D03*
D385*
X015283Y006903D03*
X016826Y008200D03*
X016826Y008203D03*
D386*
X016828Y008193D03*
X016828Y008190D03*
X015286Y006905D03*
D387*
X016505Y006905D03*
D388*
X015293Y006910D03*
X016831Y008173D03*
X016831Y008175D03*
D389*
X016498Y006910D03*
D390*
X015296Y006913D03*
X016831Y008168D03*
X016831Y008170D03*
D391*
X016610Y007525D03*
X016497Y006913D03*
D392*
X016493Y006915D03*
D393*
X015303Y006918D03*
X016836Y008143D03*
D394*
X016491Y006918D03*
D395*
X015310Y006920D03*
X016837Y008130D03*
D396*
X016486Y006920D03*
D397*
X015315Y006923D03*
X016837Y008115D03*
D398*
X016481Y006923D03*
D399*
X015323Y006925D03*
X016841Y008088D03*
D400*
X016473Y006925D03*
D401*
X016125Y007040D03*
X016125Y007043D03*
X016122Y007038D03*
X016122Y007035D03*
X016120Y007030D03*
X016120Y007028D03*
X016085Y006928D03*
D402*
X016086Y006930D03*
X016086Y006933D03*
X016086Y006935D03*
X016088Y006938D03*
X016088Y006940D03*
X016091Y006945D03*
X016091Y006948D03*
X016093Y006955D03*
X016096Y006963D03*
X016098Y006970D03*
X016101Y006978D03*
X016103Y006985D03*
X016106Y006990D03*
X016106Y006993D03*
X016108Y006998D03*
X016111Y007005D03*
X016113Y007010D03*
X016113Y007013D03*
X016116Y007018D03*
X016116Y007020D03*
X016118Y007023D03*
X016118Y007025D03*
X016121Y007033D03*
D403*
X016115Y007015D03*
X016112Y007008D03*
X016110Y007003D03*
X016110Y007000D03*
X016107Y006995D03*
X016105Y006988D03*
X016102Y006983D03*
X016102Y006980D03*
X016100Y006975D03*
X016100Y006973D03*
X016097Y006968D03*
X016097Y006965D03*
X016095Y006960D03*
X016095Y006958D03*
X016092Y006953D03*
X016092Y006950D03*
X016090Y006943D03*
D404*
X014218Y006970D03*
X014216Y006978D03*
X014213Y006985D03*
X014211Y006993D03*
X014208Y007000D03*
X014206Y007008D03*
X014203Y007015D03*
X014201Y007023D03*
X014198Y007030D03*
X014196Y007038D03*
X014193Y007045D03*
X014193Y007048D03*
X014191Y007055D03*
X014188Y007063D03*
X014188Y007065D03*
X014186Y007073D03*
X014186Y007075D03*
X014183Y007083D03*
X014181Y007090D03*
X014181Y007093D03*
X014178Y007100D03*
X014176Y007108D03*
X014176Y007110D03*
X014173Y007118D03*
X014173Y007120D03*
X014173Y007123D03*
X014171Y007128D03*
X014171Y007130D03*
X014171Y007133D03*
X014168Y007138D03*
X014168Y007140D03*
X014168Y007143D03*
X014166Y007150D03*
X014166Y007153D03*
X014166Y007155D03*
X014163Y007160D03*
X014163Y007163D03*
X014163Y007165D03*
X014161Y007173D03*
X014161Y007175D03*
X014158Y007183D03*
X014158Y007185D03*
X014158Y007188D03*
X014158Y007190D03*
X014156Y007195D03*
X014156Y007198D03*
X014156Y007200D03*
X014156Y007203D03*
X014153Y007208D03*
X014153Y007210D03*
X014153Y007213D03*
X014153Y007215D03*
X014153Y007218D03*
X014151Y007223D03*
X014151Y007225D03*
X014151Y007228D03*
X014151Y007230D03*
X014148Y007238D03*
X014148Y007240D03*
X014148Y007243D03*
X014148Y007245D03*
X014146Y007250D03*
X014146Y007253D03*
X014146Y007255D03*
X014146Y007258D03*
X014146Y007260D03*
X014143Y007265D03*
X014143Y007268D03*
X014143Y007270D03*
X014143Y007273D03*
X014143Y007275D03*
X014143Y007278D03*
X014143Y007280D03*
X014141Y007283D03*
X014141Y007285D03*
X014141Y007288D03*
X014141Y007290D03*
X014141Y007293D03*
X014141Y007295D03*
X014141Y007298D03*
X014141Y007300D03*
X014138Y007303D03*
X014138Y007305D03*
X014138Y007308D03*
X014138Y007310D03*
X014138Y007313D03*
X014138Y007315D03*
X014138Y007318D03*
X014138Y007320D03*
X014136Y007323D03*
X014136Y007325D03*
X014136Y007328D03*
X014136Y007330D03*
X014136Y007333D03*
X014136Y007335D03*
X014136Y007338D03*
X014136Y007340D03*
X014133Y007343D03*
X014133Y007345D03*
X014133Y007348D03*
X014133Y007350D03*
X014133Y007353D03*
X014133Y007355D03*
X014133Y007358D03*
X014133Y007360D03*
X014133Y007363D03*
X014133Y007365D03*
X014133Y007368D03*
X014131Y007375D03*
X014131Y007378D03*
X014131Y007380D03*
X014131Y007383D03*
X014131Y007385D03*
X014131Y007388D03*
X014131Y007390D03*
X014131Y007393D03*
X014131Y007395D03*
X014131Y007398D03*
X014131Y007400D03*
X014131Y007403D03*
X014128Y007408D03*
X014128Y007410D03*
X014128Y007413D03*
X014128Y007415D03*
X014128Y007418D03*
X014128Y007420D03*
X014128Y007423D03*
X014128Y007425D03*
X014128Y007428D03*
X014128Y007430D03*
X014128Y007433D03*
X014128Y007435D03*
X014128Y007438D03*
X014128Y007440D03*
X014128Y007443D03*
X014128Y007445D03*
X014128Y007448D03*
X014128Y007450D03*
X014128Y007453D03*
X014128Y007455D03*
X014128Y007458D03*
X014128Y007460D03*
X014126Y007480D03*
X014126Y007483D03*
X014126Y007485D03*
X014126Y007488D03*
X014126Y007490D03*
X014126Y007493D03*
X014126Y007495D03*
X014126Y007498D03*
X014126Y007500D03*
X014126Y007503D03*
X014126Y007505D03*
X014126Y007508D03*
X014126Y007510D03*
X014126Y007513D03*
X014126Y007515D03*
X014126Y007518D03*
X014126Y007520D03*
X014126Y007523D03*
X014126Y007525D03*
X014128Y007545D03*
X014128Y007548D03*
X014128Y007550D03*
X014128Y007553D03*
X014128Y007555D03*
X014128Y007558D03*
X014128Y007560D03*
X014128Y007563D03*
X014128Y007565D03*
X014128Y007568D03*
X014128Y007570D03*
X014128Y007573D03*
X014128Y007575D03*
X014128Y007578D03*
X014128Y007580D03*
X014128Y007583D03*
X014128Y007585D03*
X014128Y007588D03*
X014128Y007590D03*
X014128Y007593D03*
X014128Y007595D03*
X014128Y007598D03*
X014131Y007603D03*
X014131Y007605D03*
X014131Y007608D03*
X014131Y007610D03*
X014131Y007613D03*
X014131Y007615D03*
X014131Y007618D03*
X014131Y007620D03*
X014131Y007623D03*
X014131Y007625D03*
X014131Y007628D03*
X014131Y007630D03*
X014133Y007638D03*
X014133Y007640D03*
X014133Y007643D03*
X014133Y007645D03*
X014133Y007648D03*
X014133Y007650D03*
X014133Y007653D03*
X014133Y007655D03*
X014133Y007658D03*
X014133Y007660D03*
X014133Y007663D03*
X014136Y007665D03*
X014136Y007668D03*
X014136Y007670D03*
X014136Y007673D03*
X014136Y007675D03*
X014136Y007678D03*
X014136Y007680D03*
X014136Y007683D03*
X014138Y007685D03*
X014138Y007688D03*
X014138Y007690D03*
X014138Y007693D03*
X014138Y007695D03*
X014138Y007698D03*
X014138Y007700D03*
X014138Y007703D03*
X014141Y007705D03*
X014141Y007708D03*
X014141Y007710D03*
X014141Y007713D03*
X014141Y007715D03*
X014141Y007718D03*
X014141Y007720D03*
X014141Y007723D03*
X014143Y007725D03*
X014143Y007728D03*
X014143Y007730D03*
X014143Y007733D03*
X014143Y007735D03*
X014143Y007738D03*
X014143Y007740D03*
X014146Y007745D03*
X014146Y007748D03*
X014146Y007750D03*
X014146Y007753D03*
X014146Y007755D03*
X014148Y007760D03*
X014148Y007763D03*
X014148Y007765D03*
X014148Y007768D03*
X014148Y007770D03*
X014151Y007775D03*
X014151Y007778D03*
X014151Y007780D03*
X014151Y007783D03*
X014153Y007788D03*
X014153Y007790D03*
X014153Y007793D03*
X014153Y007795D03*
X014153Y007798D03*
X014156Y007803D03*
X014156Y007805D03*
X014156Y007808D03*
X014156Y007810D03*
X014158Y007815D03*
X014158Y007818D03*
X014158Y007820D03*
X014158Y007823D03*
X014161Y007830D03*
X014161Y007833D03*
X014163Y007840D03*
X014163Y007843D03*
X014163Y007845D03*
X014166Y007850D03*
X014166Y007853D03*
X014166Y007855D03*
X014168Y007863D03*
X014168Y007865D03*
X014168Y007868D03*
X014171Y007873D03*
X014171Y007875D03*
X014171Y007878D03*
X014173Y007883D03*
X014173Y007885D03*
X014173Y007888D03*
X014176Y007895D03*
X014176Y007898D03*
X014178Y007905D03*
X014181Y007913D03*
X014181Y007915D03*
X014183Y007923D03*
X014183Y007925D03*
X014186Y007933D03*
X014188Y007940D03*
X014188Y007943D03*
X014191Y007950D03*
X014193Y007958D03*
X014193Y007960D03*
X014196Y007968D03*
X014198Y007975D03*
X014201Y007983D03*
X014203Y007990D03*
X014206Y007998D03*
X014208Y008005D03*
X014211Y008013D03*
X014213Y008020D03*
X014216Y008028D03*
X014218Y008035D03*
X014613Y009103D03*
X014838Y009103D03*
X015701Y009405D03*
X015871Y009345D03*
X016728Y009208D03*
D405*
X016131Y007060D03*
X016131Y007058D03*
X016128Y007053D03*
X016128Y007050D03*
X016126Y007048D03*
X016126Y007045D03*
D406*
X016130Y007055D03*
X016132Y007063D03*
X016132Y007065D03*
X016135Y007068D03*
D407*
X016136Y007070D03*
X016136Y007073D03*
X016138Y007075D03*
X016138Y007078D03*
D408*
X016140Y007080D03*
X016140Y007083D03*
X016142Y007085D03*
X016142Y007088D03*
X016145Y007093D03*
D409*
X016146Y007095D03*
X016146Y007098D03*
X016148Y007103D03*
X016143Y007090D03*
D410*
X016147Y007100D03*
X016150Y007105D03*
D411*
X016151Y007108D03*
X016151Y007110D03*
X016153Y007113D03*
X016153Y007115D03*
D412*
X016155Y007118D03*
X016155Y007120D03*
X016157Y007123D03*
D413*
X016158Y007125D03*
X016158Y007128D03*
D414*
X016160Y007130D03*
X016162Y007135D03*
D415*
X016161Y007133D03*
X016163Y007138D03*
X016163Y007140D03*
D416*
X016165Y007143D03*
X016167Y007145D03*
X016167Y007148D03*
D417*
X016168Y007150D03*
X016171Y007155D03*
D418*
X016172Y007158D03*
X016170Y007153D03*
D419*
X016173Y007160D03*
X016173Y007163D03*
D420*
X016175Y007165D03*
X016177Y007168D03*
D421*
X016178Y007170D03*
X016178Y007173D03*
D422*
X016180Y007175D03*
X016182Y007178D03*
X016182Y007180D03*
D423*
X016183Y007183D03*
D424*
X016185Y007185D03*
X016187Y007190D03*
D425*
X016186Y007188D03*
X016188Y007193D03*
D426*
X016190Y007195D03*
D427*
X016191Y007198D03*
X016191Y007200D03*
D428*
X016192Y007203D03*
X016195Y007205D03*
D429*
X016196Y007208D03*
D430*
X016197Y007210D03*
X016197Y007213D03*
D431*
X016198Y007215D03*
X016201Y007218D03*
D432*
X016202Y007220D03*
D433*
X016203Y007223D03*
D434*
X016205Y007225D03*
X016205Y007228D03*
D435*
X016206Y007230D03*
X016208Y007233D03*
D436*
X016210Y007235D03*
D437*
X016211Y007238D03*
D438*
X016212Y007240D03*
D439*
X016213Y007243D03*
X016216Y007248D03*
D440*
X016217Y007250D03*
X016215Y007245D03*
D441*
X016218Y007253D03*
D442*
X016220Y007255D03*
D443*
X016221Y007258D03*
X016223Y007260D03*
D444*
X016225Y007263D03*
D445*
X016226Y007265D03*
D446*
X016227Y007268D03*
D447*
X016228Y007270D03*
D448*
X016230Y007273D03*
D449*
X016231Y007275D03*
D450*
X016232Y007278D03*
X016235Y007280D03*
D451*
X016236Y007283D03*
D452*
X016237Y007285D03*
D453*
X016238Y007288D03*
D454*
X016240Y007290D03*
D455*
X016241Y007293D03*
D456*
X016242Y007295D03*
D457*
X016243Y007298D03*
D458*
X016247Y007300D03*
D459*
X016248Y007303D03*
D460*
X016250Y007305D03*
D461*
X016251Y007308D03*
D462*
X016252Y007310D03*
D463*
X016253Y007313D03*
D464*
X016256Y007315D03*
D465*
X016257Y007318D03*
X016260Y007320D03*
D466*
X016261Y007323D03*
D467*
X016262Y007325D03*
D468*
X016263Y007328D03*
D469*
X016266Y007330D03*
D470*
X016267Y007333D03*
D471*
X016268Y007335D03*
D472*
X016271Y007338D03*
X016273Y007340D03*
D473*
X016275Y007343D03*
D474*
X016276Y007345D03*
D475*
X016278Y007348D03*
D476*
X016280Y007350D03*
D477*
X016281Y007353D03*
D478*
X016283Y007355D03*
D479*
X016285Y007358D03*
D480*
X016287Y007360D03*
D481*
X016288Y007363D03*
D482*
X016291Y007365D03*
D483*
X016292Y007368D03*
D484*
X014132Y007370D03*
X014132Y007373D03*
X014130Y007405D03*
X014127Y007463D03*
X014127Y007465D03*
X014127Y007468D03*
X014127Y007470D03*
X014127Y007473D03*
X014127Y007475D03*
X014127Y007478D03*
X014127Y007528D03*
X014127Y007530D03*
X014127Y007533D03*
X014127Y007535D03*
X014127Y007538D03*
X014127Y007540D03*
X014127Y007543D03*
X014130Y007600D03*
X014132Y007633D03*
X014132Y007635D03*
X014357Y009188D03*
D485*
X016293Y007370D03*
D486*
X016297Y007373D03*
D487*
X016300Y007375D03*
D488*
X016301Y007378D03*
D489*
X016303Y007380D03*
D490*
X016305Y007383D03*
D491*
X016311Y007390D03*
D492*
X016320Y007400D03*
D493*
X016340Y007420D03*
D494*
X016345Y007425D03*
D495*
X016361Y007440D03*
D496*
X016365Y007443D03*
D497*
X016413Y007475D03*
D498*
X016417Y007478D03*
D499*
X016423Y007480D03*
D500*
X016546Y007505D03*
D501*
X016560Y007508D03*
D502*
X016570Y007510D03*
D503*
X016578Y007513D03*
D504*
X016585Y007515D03*
D505*
X016598Y007520D03*
D506*
X016618Y007530D03*
D507*
X016642Y007545D03*
D508*
X016673Y007570D03*
D509*
X016676Y007573D03*
D510*
X016685Y007580D03*
D511*
X016687Y007583D03*
D512*
X016736Y007643D03*
D513*
X016740Y007648D03*
D514*
X016741Y007650D03*
D515*
X016743Y007653D03*
D516*
X016745Y007655D03*
D517*
X016748Y007660D03*
D518*
X016750Y007663D03*
D519*
X016753Y007670D03*
D520*
X016755Y007673D03*
D521*
X016756Y007675D03*
D522*
X016760Y007680D03*
D523*
X016761Y007683D03*
D524*
X016762Y007688D03*
D525*
X016766Y007693D03*
D526*
X016767Y007695D03*
D527*
X016768Y007698D03*
D528*
X016771Y007703D03*
D529*
X016773Y007708D03*
D530*
X016775Y007710D03*
D531*
X016776Y007713D03*
D532*
X016778Y007718D03*
D533*
X016780Y007720D03*
D534*
X016781Y007723D03*
D535*
X016782Y007728D03*
D536*
X016783Y007730D03*
D537*
X016786Y007735D03*
D538*
X016787Y007738D03*
D539*
X016790Y007743D03*
D540*
X016791Y007745D03*
D541*
X016791Y007748D03*
D542*
X016793Y007753D03*
D543*
X016795Y007755D03*
D544*
X016796Y007758D03*
D545*
X016796Y007760D03*
D546*
X016797Y007763D03*
X016797Y007765D03*
D547*
X016798Y007768D03*
D548*
X016801Y007773D03*
D549*
X016801Y007775D03*
D550*
X016802Y007778D03*
D551*
X016805Y007785D03*
D552*
X016806Y007788D03*
D553*
X016807Y007793D03*
D554*
X016808Y007795D03*
X016808Y007798D03*
D555*
X016810Y007800D03*
D556*
X016811Y007805D03*
X016811Y007808D03*
D557*
X016812Y007810D03*
D558*
X016813Y007813D03*
D559*
X016815Y007818D03*
X016815Y007820D03*
D560*
X016816Y007823D03*
D561*
X016817Y007825D03*
X016817Y007828D03*
D562*
X016817Y007830D03*
D563*
X016818Y007833D03*
D564*
X016820Y007835D03*
X016820Y007838D03*
D565*
X016820Y007840D03*
D566*
X016821Y007843D03*
X016821Y007845D03*
D567*
X016822Y007848D03*
D568*
X016823Y007850D03*
D569*
X016823Y007855D03*
D570*
X016825Y007858D03*
X016825Y007860D03*
D571*
X016826Y007865D03*
X016826Y007868D03*
D572*
X016827Y007870D03*
D573*
X016827Y007873D03*
X016827Y007875D03*
D574*
X016830Y007883D03*
D575*
X016830Y007885D03*
X016830Y007888D03*
D576*
X016831Y007890D03*
X016831Y007893D03*
D577*
X016831Y007895D03*
X016831Y007898D03*
D578*
X016832Y007900D03*
D579*
X016833Y007903D03*
D580*
X016832Y007905D03*
D581*
X016835Y007913D03*
D582*
X016833Y007915D03*
D583*
X016835Y007918D03*
D584*
X016836Y007920D03*
D585*
X016836Y007925D03*
X016836Y007928D03*
D586*
X016837Y007930D03*
D587*
X016836Y007933D03*
D588*
X016837Y007935D03*
X016837Y007938D03*
D589*
X016838Y007945D03*
X016838Y007948D03*
D590*
X016838Y007950D03*
X016838Y007953D03*
D591*
X016840Y007955D03*
D592*
X016840Y007963D03*
X016840Y007965D03*
D593*
X016840Y007968D03*
X016840Y007970D03*
D594*
X016841Y007973D03*
D595*
X016840Y007975D03*
X016840Y007978D03*
D596*
X016841Y007985D03*
X016841Y007988D03*
D597*
X016842Y007990D03*
D598*
X016842Y007998D03*
D599*
X016841Y008000D03*
D600*
X016842Y008003D03*
X016842Y008005D03*
D601*
X016841Y008008D03*
D602*
X016842Y008010D03*
X016842Y008013D03*
D603*
X016842Y008018D03*
D604*
X016841Y008020D03*
D605*
X016842Y008023D03*
X016842Y008025D03*
D606*
X016841Y008028D03*
D607*
X016841Y008035D03*
D608*
X016842Y008038D03*
X016842Y008040D03*
D609*
X016841Y008043D03*
D610*
X016842Y008045D03*
X016842Y008048D03*
D611*
X016841Y008050D03*
D612*
X016841Y008058D03*
D613*
X016842Y008060D03*
X016842Y008063D03*
D614*
X016841Y008070D03*
X016841Y008073D03*
X016841Y008075D03*
D615*
X016841Y008078D03*
X016841Y008080D03*
D616*
X016840Y008083D03*
X016840Y008085D03*
D617*
X015713Y008090D03*
X015908Y009178D03*
X015936Y009388D03*
X016316Y009180D03*
X016668Y009388D03*
X017278Y009378D03*
X015473Y009180D03*
X015191Y009203D03*
X014813Y009250D03*
X014666Y009205D03*
X014613Y009303D03*
D618*
X016840Y008093D03*
X016840Y008090D03*
D619*
X016838Y008095D03*
D620*
X015713Y008100D03*
X015713Y008475D03*
X015701Y009185D03*
X015946Y009265D03*
X015936Y009360D03*
X015933Y009365D03*
X015931Y009368D03*
X015181Y009403D03*
X015181Y009405D03*
X015191Y009218D03*
X014836Y009128D03*
X014611Y009128D03*
X014613Y009240D03*
X017106Y009368D03*
X017106Y009370D03*
D621*
X016875Y009365D03*
X016875Y009193D03*
X016352Y009378D03*
X015700Y009193D03*
X015192Y009225D03*
X014855Y009223D03*
X014852Y009225D03*
X014850Y009228D03*
X014837Y009133D03*
X014635Y009215D03*
X014630Y009223D03*
X014627Y009225D03*
X014612Y009133D03*
X014645Y009428D03*
X014870Y009428D03*
X014125Y009215D03*
X015715Y008103D03*
D622*
X015713Y008105D03*
X015713Y008470D03*
X015936Y009183D03*
X015936Y009185D03*
X016348Y009370D03*
X015446Y009188D03*
X015446Y009185D03*
X014866Y009423D03*
X014641Y009423D03*
X014613Y009138D03*
X014128Y009223D03*
D623*
X014386Y009233D03*
X014613Y009143D03*
X014628Y009208D03*
X014853Y009208D03*
X014861Y009413D03*
X014636Y009413D03*
X014133Y009405D03*
X015451Y009365D03*
X015451Y009363D03*
X015713Y009103D03*
X016343Y009193D03*
X016343Y009195D03*
X015713Y008108D03*
D624*
X016838Y008108D03*
X016838Y008110D03*
X016838Y008113D03*
D625*
X015713Y008113D03*
X015713Y008463D03*
X015176Y009313D03*
D626*
X016043Y009043D03*
X016061Y009038D03*
X015713Y008115D03*
D627*
X015713Y008118D03*
X015713Y008458D03*
X016006Y009053D03*
X016016Y009050D03*
X016106Y009023D03*
X016113Y009020D03*
X016133Y009013D03*
D628*
X016838Y008118D03*
D629*
X015713Y008120D03*
X015971Y009060D03*
X016176Y008995D03*
X016181Y008993D03*
D630*
X016198Y008985D03*
X015713Y008123D03*
D631*
X015713Y008125D03*
X015713Y008450D03*
X016221Y008975D03*
X016226Y008973D03*
X015943Y009065D03*
D632*
X016250Y008960D03*
X016255Y008958D03*
X016260Y008955D03*
X015715Y008128D03*
D633*
X016836Y008128D03*
D634*
X015713Y008133D03*
X015713Y008440D03*
X016296Y008935D03*
X016298Y008933D03*
X016303Y008930D03*
D635*
X016836Y008135D03*
X016836Y008133D03*
D636*
X015713Y008135D03*
X016316Y008923D03*
X016321Y008920D03*
D637*
X016328Y008915D03*
X016333Y008913D03*
X015908Y009070D03*
X015713Y008138D03*
D638*
X015713Y008140D03*
X015713Y008435D03*
X016341Y008908D03*
X016343Y008905D03*
X016348Y008903D03*
D639*
X016356Y008898D03*
X016363Y008893D03*
X015713Y008433D03*
X015713Y008143D03*
D640*
X015713Y008145D03*
X015713Y008428D03*
X016373Y008885D03*
D641*
X016835Y008148D03*
X016835Y008145D03*
D642*
X015713Y008148D03*
X015713Y008425D03*
X016388Y008875D03*
D643*
X016398Y008868D03*
X016401Y008865D03*
X015713Y008423D03*
X015713Y008150D03*
D644*
X015715Y008153D03*
X016405Y008863D03*
D645*
X016408Y008860D03*
X016411Y008858D03*
X016416Y008855D03*
X016418Y008853D03*
X015713Y008420D03*
X015713Y008155D03*
D646*
X015713Y008158D03*
X015713Y008418D03*
X016428Y008845D03*
D647*
X016833Y008158D03*
D648*
X016441Y008835D03*
X016438Y008838D03*
X015713Y008415D03*
X015713Y008413D03*
X015713Y008160D03*
D649*
X015713Y008168D03*
X015713Y008408D03*
X016458Y008820D03*
X016461Y008818D03*
X017186Y009360D03*
D650*
X016476Y008805D03*
X016473Y008808D03*
X015713Y008405D03*
X015713Y008403D03*
X015713Y008170D03*
D651*
X015715Y008173D03*
X016480Y008803D03*
X016482Y008800D03*
D652*
X015713Y008400D03*
X015713Y008175D03*
D653*
X015713Y008178D03*
X015713Y008180D03*
X015713Y008395D03*
X016493Y008790D03*
X016496Y008788D03*
X016498Y008785D03*
D654*
X016501Y008783D03*
X016503Y008780D03*
X016506Y008778D03*
X016508Y008775D03*
X015713Y008393D03*
X015713Y008390D03*
X015713Y008183D03*
D655*
X016828Y008183D03*
X016828Y008185D03*
D656*
X016516Y008768D03*
X016513Y008770D03*
X015713Y008388D03*
X015713Y008188D03*
X015713Y008185D03*
D657*
X015713Y008190D03*
X015713Y008193D03*
X015713Y008383D03*
X016526Y008758D03*
D658*
X016543Y008740D03*
X016546Y008738D03*
X015713Y008373D03*
X015713Y008370D03*
X015713Y008203D03*
X015713Y008200D03*
D659*
X015713Y008205D03*
X015713Y008208D03*
X015713Y008210D03*
X015713Y008365D03*
X015713Y008368D03*
X016551Y008733D03*
X016553Y008730D03*
X016556Y008728D03*
X016558Y008725D03*
D660*
X016563Y008720D03*
X015713Y008363D03*
X015713Y008360D03*
X015713Y008358D03*
X015713Y008218D03*
X015713Y008215D03*
X015713Y008213D03*
D661*
X015713Y008220D03*
X015713Y008223D03*
X015713Y008350D03*
X015713Y008353D03*
X015713Y008355D03*
X016571Y008710D03*
X016573Y008708D03*
X016576Y008705D03*
D662*
X015715Y008225D03*
D663*
X015713Y008228D03*
X015713Y008230D03*
X015713Y008233D03*
X015713Y008343D03*
X015713Y008345D03*
X015713Y008348D03*
X016578Y008703D03*
X016581Y008700D03*
X016583Y008698D03*
D664*
X016588Y008690D03*
X016591Y008688D03*
X015713Y008338D03*
X015713Y008335D03*
X015713Y008333D03*
X015713Y008243D03*
X015713Y008240D03*
X015713Y008238D03*
X015713Y008235D03*
D665*
X015713Y008245D03*
X015713Y008248D03*
X015713Y008250D03*
X015713Y008253D03*
X015713Y008255D03*
X015713Y008258D03*
X015713Y008318D03*
X015713Y008320D03*
X015713Y008323D03*
X015713Y008325D03*
X015713Y008328D03*
X016596Y008683D03*
X016598Y008680D03*
D666*
X016603Y008673D03*
X016606Y008670D03*
X016608Y008668D03*
X015713Y008313D03*
X015713Y008310D03*
X015713Y008308D03*
X015713Y008305D03*
X015713Y008303D03*
X015713Y008300D03*
X015713Y008298D03*
X015713Y008295D03*
X015713Y008293D03*
X015713Y008290D03*
X015713Y008288D03*
X015713Y008285D03*
X015713Y008283D03*
X015713Y008280D03*
X015713Y008278D03*
X015713Y008275D03*
X015713Y008273D03*
X015713Y008270D03*
X015713Y008268D03*
X015713Y008265D03*
X015713Y008263D03*
X015713Y009093D03*
D667*
X016595Y008685D03*
X015715Y008330D03*
D668*
X016780Y008365D03*
X016782Y008363D03*
X016782Y008360D03*
D669*
X016778Y008368D03*
X016778Y008370D03*
D670*
X016777Y008373D03*
X014292Y009150D03*
D671*
X016776Y008378D03*
X016776Y008375D03*
D672*
X016532Y008753D03*
X016530Y008755D03*
X015715Y008380D03*
D673*
X015715Y008385D03*
X016520Y008765D03*
X016522Y008763D03*
X016525Y008760D03*
X015140Y009150D03*
X015140Y009153D03*
X015140Y009155D03*
X015140Y009158D03*
X015140Y009160D03*
X015140Y009163D03*
D674*
X016771Y008390D03*
X016771Y008388D03*
D675*
X016770Y008393D03*
X014287Y009155D03*
D676*
X014286Y009158D03*
X016768Y008398D03*
X016768Y008395D03*
D677*
X016490Y008793D03*
X016487Y008795D03*
X016485Y008798D03*
X015715Y008398D03*
D678*
X016765Y008405D03*
X016767Y008400D03*
X014285Y009160D03*
D679*
X014283Y009163D03*
X015713Y009083D03*
X016763Y008408D03*
X016766Y008403D03*
D680*
X016762Y008410D03*
X014282Y009165D03*
X014282Y009168D03*
X014282Y009170D03*
D681*
X016757Y008423D03*
X016757Y008420D03*
X016760Y008418D03*
D682*
X016755Y008428D03*
D683*
X016370Y008888D03*
X016367Y008890D03*
X015715Y008430D03*
D684*
X016751Y008435D03*
X016753Y008433D03*
X016753Y008430D03*
D685*
X016325Y008918D03*
X015715Y008438D03*
D686*
X016750Y008438D03*
X016750Y008440D03*
D687*
X016748Y008443D03*
D688*
X016747Y008445D03*
X016745Y008448D03*
X016745Y008450D03*
D689*
X016246Y008963D03*
X015713Y008448D03*
D690*
X015715Y008453D03*
X015960Y009063D03*
X016187Y008990D03*
X016192Y008988D03*
D691*
X016741Y008458D03*
X016743Y008453D03*
D692*
X016158Y009003D03*
X016146Y009008D03*
X015996Y009055D03*
X015983Y009058D03*
X015713Y008455D03*
D693*
X016740Y008460D03*
X016742Y008455D03*
D694*
X015713Y008460D03*
D695*
X015713Y008465D03*
X014858Y009405D03*
X014858Y009408D03*
X014633Y009408D03*
X014633Y009405D03*
D696*
X016735Y008470D03*
X016737Y008468D03*
X016737Y008465D03*
D697*
X015713Y008473D03*
X015701Y009190D03*
X015701Y009365D03*
X015191Y009223D03*
X014858Y009215D03*
X014848Y009230D03*
X014846Y009233D03*
X014626Y009228D03*
X014623Y009230D03*
X014621Y009233D03*
X014646Y009430D03*
X014871Y009430D03*
X014123Y009213D03*
X016353Y009380D03*
D698*
X016730Y008480D03*
X016732Y008478D03*
X016732Y008475D03*
D699*
X015713Y008480D03*
X015351Y009045D03*
X015701Y009383D03*
X015181Y009418D03*
X014836Y009120D03*
X016668Y009380D03*
X017278Y009363D03*
D700*
X016728Y008483D03*
D701*
X016727Y008485D03*
X016725Y008490D03*
D702*
X016726Y008488D03*
X016723Y008493D03*
D703*
X015713Y008495D03*
D704*
X016720Y008498D03*
X016722Y008495D03*
D705*
X016718Y008500D03*
X016718Y008503D03*
D706*
X016717Y008505D03*
X016715Y008508D03*
D707*
X016713Y008510D03*
X016711Y008515D03*
D708*
X016712Y008513D03*
X016710Y008518D03*
D709*
X016705Y008525D03*
X016705Y008528D03*
D710*
X016703Y008530D03*
X016701Y008533D03*
D711*
X016700Y008535D03*
D712*
X016698Y008538D03*
X016696Y008540D03*
D713*
X016695Y008543D03*
X016695Y008545D03*
X016692Y008548D03*
D714*
X016691Y008550D03*
D715*
X016690Y008553D03*
X016687Y008555D03*
D716*
X016686Y008558D03*
X016683Y008560D03*
D717*
X016682Y008563D03*
X016682Y008565D03*
X016680Y008568D03*
D718*
X016678Y008570D03*
X016676Y008573D03*
D719*
X016675Y008575D03*
D720*
X016670Y008583D03*
X016670Y008585D03*
X016667Y008588D03*
D721*
X016666Y008590D03*
X016663Y008593D03*
X015713Y009090D03*
D722*
X016660Y008598D03*
X016662Y008595D03*
D723*
X016655Y008605D03*
D724*
X016653Y008608D03*
X016651Y008610D03*
D725*
X016650Y008613D03*
X016647Y008615D03*
D726*
X016646Y008618D03*
X016643Y008620D03*
D727*
X016642Y008623D03*
X016640Y008625D03*
D728*
X016638Y008628D03*
X016636Y008630D03*
D729*
X016635Y008633D03*
X016632Y008635D03*
D730*
X016627Y008643D03*
X016625Y008645D03*
D731*
X016623Y008648D03*
X016621Y008650D03*
D732*
X016620Y008653D03*
X016617Y008655D03*
X015112Y009165D03*
X015112Y009168D03*
D733*
X015113Y009170D03*
X015113Y009173D03*
X016613Y008660D03*
X016616Y008658D03*
D734*
X016612Y008663D03*
X016610Y008665D03*
D735*
X016570Y008713D03*
X016567Y008715D03*
X016565Y008718D03*
D736*
X016560Y008723D03*
D737*
X016550Y008735D03*
D738*
X016542Y008743D03*
X016540Y008745D03*
D739*
X016512Y008773D03*
D740*
X016470Y008810D03*
X016467Y008813D03*
X016465Y008815D03*
D741*
X016455Y008823D03*
X016452Y008825D03*
D742*
X016447Y008830D03*
X016445Y008833D03*
D743*
X016435Y008840D03*
X016432Y008843D03*
D744*
X016425Y008848D03*
X016422Y008850D03*
D745*
X016395Y008870D03*
X016392Y008873D03*
D746*
X016385Y008878D03*
X016382Y008880D03*
X016377Y008883D03*
D747*
X016360Y008895D03*
X016352Y008900D03*
D748*
X016337Y008910D03*
D749*
X016312Y008925D03*
X016307Y008928D03*
D750*
X016292Y008938D03*
X016287Y008940D03*
D751*
X016270Y008950D03*
X015510Y009070D03*
D752*
X016230Y008970D03*
X016235Y008968D03*
X016240Y008965D03*
D753*
X016215Y008978D03*
X016210Y008980D03*
X016205Y008983D03*
D754*
X016170Y008998D03*
X016165Y009000D03*
X016152Y009005D03*
D755*
X016100Y009025D03*
X016092Y009028D03*
X016085Y009030D03*
X016077Y009033D03*
X016070Y009035D03*
X016052Y009040D03*
X016035Y009045D03*
X016025Y009048D03*
D756*
X015908Y009180D03*
X015701Y009388D03*
X015318Y009038D03*
X015308Y009035D03*
X014361Y009218D03*
X016316Y009183D03*
X016666Y009170D03*
D757*
X016873Y009170D03*
X017278Y009370D03*
X016316Y009185D03*
X015963Y009283D03*
X015701Y009170D03*
X015328Y009040D03*
X015191Y009205D03*
D758*
X015362Y009048D03*
X015700Y009175D03*
X015935Y009380D03*
X016667Y009178D03*
X016875Y009175D03*
X014837Y009313D03*
X014612Y009313D03*
X014612Y009120D03*
D759*
X014126Y009218D03*
X015191Y009228D03*
X015428Y009060D03*
X015701Y009363D03*
X016351Y009375D03*
X016873Y009363D03*
D760*
X016668Y009383D03*
X016143Y009358D03*
X016143Y009355D03*
X016143Y009353D03*
X015936Y009383D03*
X014836Y009118D03*
X014611Y009118D03*
X014598Y009248D03*
X017278Y009365D03*
X017278Y009368D03*
D761*
X015953Y009275D03*
X015933Y009375D03*
X015701Y009178D03*
X015191Y009213D03*
X014836Y009123D03*
X014611Y009123D03*
X015181Y009413D03*
D762*
X015192Y009215D03*
X014835Y009243D03*
X014837Y009125D03*
X014612Y009125D03*
X014610Y009243D03*
X015700Y009375D03*
X015932Y009373D03*
X015950Y009270D03*
X016667Y009185D03*
X016670Y009373D03*
X016875Y009375D03*
D763*
X016347Y009368D03*
X016347Y009365D03*
X015935Y009190D03*
X015935Y009188D03*
X015447Y009190D03*
X014855Y009210D03*
X014837Y009138D03*
X014630Y009210D03*
X014640Y009420D03*
X014865Y009420D03*
X014390Y009220D03*
X014130Y009225D03*
D764*
X015260Y009253D03*
X015470Y009150D03*
X016207Y009348D03*
X016727Y009345D03*
D765*
X016661Y009150D03*
X016876Y009150D03*
X015871Y009340D03*
X015701Y009150D03*
X014613Y009445D03*
D766*
X015258Y009250D03*
X015903Y009150D03*
X017138Y009405D03*
D767*
X016731Y009215D03*
X016311Y009150D03*
D768*
X016508Y009150D03*
X016508Y009223D03*
D769*
X016507Y009220D03*
X016507Y009153D03*
X016730Y009210D03*
D770*
X016875Y009165D03*
X016670Y009390D03*
X016315Y009175D03*
X015907Y009173D03*
X015700Y009165D03*
X015472Y009175D03*
X015480Y009380D03*
X015182Y009428D03*
X014837Y009300D03*
X015190Y009200D03*
X014612Y009300D03*
X014162Y009420D03*
X015937Y009390D03*
X017280Y009383D03*
D771*
X016875Y009378D03*
X016670Y009375D03*
X016667Y009183D03*
X015700Y009378D03*
X014837Y009320D03*
X014837Y009318D03*
X014612Y009318D03*
D772*
X014837Y009240D03*
X015700Y009373D03*
X015932Y009370D03*
X015947Y009268D03*
X016662Y009363D03*
X016667Y009188D03*
X016875Y009183D03*
X016875Y009373D03*
X017105Y009373D03*
D773*
X017107Y009365D03*
X017107Y009363D03*
X016875Y009370D03*
X016875Y009185D03*
X016667Y009190D03*
X016665Y009193D03*
X016665Y009195D03*
X015935Y009363D03*
X015700Y009370D03*
X014840Y009238D03*
D774*
X015258Y009248D03*
X015483Y009405D03*
X015871Y009343D03*
X016196Y009405D03*
X016726Y009350D03*
X017281Y009405D03*
X014151Y009188D03*
D775*
X014122Y009210D03*
X014632Y009220D03*
X014635Y009218D03*
X014857Y009220D03*
X014860Y009218D03*
X015700Y009368D03*
X015942Y009260D03*
X016355Y009383D03*
X016875Y009368D03*
X016875Y009190D03*
D776*
X016730Y009213D03*
X016727Y009348D03*
X014837Y009445D03*
X014165Y009445D03*
D777*
X015175Y009310D03*
D778*
X015177Y009315D03*
X015177Y009318D03*
X015177Y009320D03*
X015177Y009323D03*
X015177Y009325D03*
X015177Y009328D03*
X015177Y009330D03*
X015177Y009333D03*
X015177Y009335D03*
X015177Y009338D03*
X015177Y009340D03*
X015177Y009343D03*
D779*
X014860Y009410D03*
X014635Y009410D03*
X014135Y009403D03*
X014135Y009400D03*
X015452Y009360D03*
M02*
