%
M48
M72
T01C0.0130
T02C0.0400
%
T01
X6260Y1850
X6710Y750
X7310Y750
X9760Y1850
X10210Y750
X10810Y750
X10810Y3750
X10210Y3750
X9760Y4850
X7310Y3750
X6710Y3750
X6260Y4850
X6710Y6750
X7310Y6750
X6260Y7850
X5060Y9050
X4560Y9650
X3760Y9650
X3260Y9050
X9760Y7850
X10210Y6750
X10810Y6750
X14060Y4900
X16335Y3100
X17135Y3100
X17235Y2600
X16935Y2225
X17810Y2125
X18735Y2925
X19145Y2675
X19335Y3375
X19785Y3375
X18160Y3950
X17710Y3950
X17360Y4500
X17785Y5125
X17135Y5500
X16810Y5850
X17235Y6000
X16910Y5225
X18585Y5375
X18735Y5675
X19170Y5525
X18160Y6950
X17710Y6950
T02
X3660Y1050
X4660Y1050
X4660Y2050
X3660Y2050
X3660Y3050
X4660Y3050
X4660Y4050
X3660Y4050
X3660Y5050
X4660Y5050
X4660Y6050
X3660Y6050
X3660Y7050
X4660Y7050
X4660Y8050
X3660Y8050
X19460Y7650
X19460Y8650
X19460Y9650
M30
