G75*
G70*
%OFA0B0*%
%FSLAX24Y24*%
%IPPOS*%
%LPD*%
%AMOC8*
5,1,8,0,0,1.08239X$1,22.5*
%
%ADD10OC8,0.0660*%
%ADD11C,0.0600*%
%ADD12C,0.0270*%
%ADD13C,0.0070*%
D10*
X003660Y001050D03*
X004660Y001050D03*
X004660Y002050D03*
X003660Y002050D03*
X003660Y003050D03*
X004660Y003050D03*
X004660Y004050D03*
X003660Y004050D03*
X003660Y005050D03*
X004660Y005050D03*
X004660Y006050D03*
X003660Y006050D03*
X003660Y007050D03*
X004660Y007050D03*
X004660Y008050D03*
X003660Y008050D03*
D11*
X019460Y007650D03*
X019460Y008650D03*
X019460Y009650D03*
D12*
X018160Y006950D03*
X017710Y006950D03*
X017235Y006000D03*
X016810Y005850D03*
X017135Y005500D03*
X016910Y005225D03*
X017785Y005125D03*
X018585Y005375D03*
X018735Y005675D03*
X019170Y005525D03*
X017360Y004500D03*
X017710Y003950D03*
X018160Y003950D03*
X019335Y003375D03*
X019785Y003375D03*
X018735Y002925D03*
X019145Y002675D03*
X017810Y002125D03*
X017235Y002600D03*
X016935Y002225D03*
X017135Y003100D03*
X016335Y003100D03*
X014060Y004900D03*
X010810Y003750D03*
X010210Y003750D03*
X009760Y004850D03*
X007310Y003750D03*
X006710Y003750D03*
X006260Y004850D03*
X006710Y006750D03*
X007310Y006750D03*
X006260Y007850D03*
X005060Y009050D03*
X004560Y009650D03*
X003760Y009650D03*
X003260Y009050D03*
X009760Y007850D03*
X010210Y006750D03*
X010810Y006750D03*
X009760Y001850D03*
X010210Y000750D03*
X010810Y000750D03*
X007310Y000750D03*
X006710Y000750D03*
X006260Y001850D03*
D13*
X016335Y003100D02*
X016710Y003100D01*
X016960Y002850D01*
X017660Y002850D01*
X017735Y002925D01*
X018735Y002925D01*
X019335Y002925D01*
X019785Y003375D01*
X019335Y003375D02*
X019135Y003175D01*
X018560Y003175D01*
X018460Y003075D01*
X017160Y003075D01*
X017135Y003100D01*
X017310Y002675D02*
X017235Y002600D01*
X017310Y002675D02*
X019145Y002675D01*
X017810Y002125D02*
X017035Y002125D01*
X016935Y002225D01*
X017010Y005125D02*
X016910Y005225D01*
X017010Y005125D02*
X017785Y005125D01*
X017160Y005525D02*
X018435Y005525D01*
X018585Y005375D01*
X018735Y005675D02*
X017735Y005675D01*
X017660Y005750D01*
X016910Y005750D01*
X016810Y005850D01*
X017235Y006000D02*
X017310Y005925D01*
X018835Y005925D01*
X019170Y005590D01*
X019170Y005525D01*
X017160Y005525D02*
X017135Y005500D01*
M02*
