G04 ================== begin FILE IDENTIFICATION RECORD ==================*
G04 Layout Name:  BeagleBone-Battery-RevA-allegro_deletelogo.brd*
G04 Film Name:    Bbone_batt_tslk*
G04 File Format:  Gerber RS274X*
G04 File Origin:  Cadence Allegro 16.5-P002*
G04 Origin Date:  Thu Mar 15 13:15:55 2012*
G04 *
G04 Layer:  PACKAGE GEOMETRY/DISPLAY_TOP*
G04 Layer:  MANUFACTURING/AUTOSILK_TOP*
G04 Layer:  BOARD GEOMETRY/TOOLING_CORNERS*
G04 Layer:  REF DES/SILKSCREEN_TOP*
G04 Layer:  DRAWING FORMAT/TITLE_BLOCK*
G04 Layer:  BOARD GEOMETRY/SILKSCREEN_TOP*
G04 *
G04 Offset:    (0.00 0.00)*
G04 Mirror:    No*
G04 Mode:      Positive*
G04 Rotation:  0*
G04 FullContactRelief:  No*
G04 UndefLineWidth:     5.00*
G04 ================== end FILE IDENTIFICATION RECORD ====================*
%FSLAX25Y25*MOIN*%
%IR0*IPPOS*OFA0.00000B0.00000*MIA0B0*SFA1.00000B1.00000*%
%ADD10C,.02*%
%ADD11C,.004*%
%ADD12C,.005*%
%ADD13C,.006*%
%ADD14C,.008*%
G75*
%LPD*%
G75*
G36*
G01X-5000Y-15000D02*
Y-5000D01*
X-15000D01*
Y0D01*
X0D01*
Y-15000D01*
X-5000D01*
G37*
G36*
G01X145750Y177000D02*
X172000D01*
Y189500D01*
X145750D01*
Y177000D01*
G37*
G36*
G01X187000D02*
X199500D01*
Y189500D01*
X187000D01*
Y177000D01*
G37*
G54D10*
G01X60000Y-333500D02*
X59990Y-415790D01*
G01X59500Y-415500D02*
X292500D01*
X292490Y-415290D01*
X292500Y-333000D01*
X60000D01*
G01X59990Y-387790D02*
X292490D01*
G01X59990Y-360290D02*
X292490D01*
G54D11*
G01X111000Y126883D02*
X108000D01*
Y127842D01*
X108150Y128148D01*
X108350Y128340D01*
X108750Y128417D01*
X109150Y128340D01*
X109400Y128110D01*
X109550Y127842D01*
Y126883D01*
G01Y127842D02*
X111000Y128417D01*
G01Y130550D02*
X108000D01*
X108600Y130090D01*
G01X111000D02*
Y131010D01*
G01Y133910D02*
X108000D01*
X110150Y132492D01*
Y134408D01*
G01X130000Y127383D02*
X127000D01*
Y128342D01*
X127150Y128648D01*
X127350Y128840D01*
X127750Y128917D01*
X128150Y128840D01*
X128400Y128610D01*
X128550Y128342D01*
Y127383D01*
G01Y128342D02*
X130000Y128917D01*
G01Y131050D02*
X127000D01*
X127600Y130590D01*
G01X130000D02*
Y131510D01*
G01X128750Y133222D02*
X128400Y133490D01*
X128200Y133720D01*
X128100Y134027D01*
X128200Y134295D01*
X128400Y134487D01*
X128700Y134640D01*
X129050Y134678D01*
X129350Y134640D01*
X129650Y134487D01*
X129900Y134257D01*
X130000Y133988D01*
X129900Y133682D01*
X129600Y133413D01*
X129150Y133260D01*
X128650Y133222D01*
X128000Y133298D01*
X127650Y133413D01*
X127300Y133605D01*
X127050Y133873D01*
X127000Y134142D01*
X127100Y134410D01*
X127350Y134602D01*
G01X115883Y134500D02*
Y137500D01*
X116842D01*
X117148Y137350D01*
X117340Y137150D01*
X117417Y136750D01*
X117340Y136350D01*
X117110Y136100D01*
X116842Y135950D01*
X115883D01*
G01X116842D02*
X117417Y134500D01*
G01X119550D02*
Y137500D01*
X119090Y136900D01*
G01Y134500D02*
X120010D01*
G01X121607Y134950D02*
X121837Y134700D01*
X122105Y134550D01*
X122450Y134500D01*
X122795Y134600D01*
X123063Y134800D01*
X123255Y135150D01*
X123293Y135550D01*
X123217Y135950D01*
X123025Y136200D01*
X122757Y136400D01*
X122488Y136450D01*
X122220Y136400D01*
X121875Y136200D01*
X121990Y137500D01*
X123025D01*
G54D12*
G01X15083Y33000D02*
Y36500D01*
X16542D01*
X17008Y36325D01*
X17300Y36092D01*
X17417Y35625D01*
X17300Y35158D01*
X16950Y34867D01*
X16542Y34692D01*
X15083D01*
G01X16542D02*
X17417Y33000D01*
G01X20250D02*
Y36500D01*
X19550Y35800D01*
G01Y33000D02*
X20950D01*
G01X24250Y36500D02*
X23783Y36383D01*
X23433Y36092D01*
X23200Y35742D01*
X23025Y35275D01*
X22967Y34750D01*
X23025Y34225D01*
X23200Y33758D01*
X23433Y33408D01*
X23783Y33117D01*
X24250Y33000D01*
X24717Y33117D01*
X25067Y33408D01*
X25300Y33758D01*
X25475Y34225D01*
X25533Y34750D01*
X25475Y35275D01*
X25300Y35742D01*
X25067Y36092D01*
X24717Y36383D01*
X24250Y36500D01*
G01X19467Y41500D02*
Y45000D01*
X20633D01*
X21100Y44825D01*
X21450Y44592D01*
X21742Y44242D01*
X21975Y43833D01*
X22033Y43250D01*
X21975Y42667D01*
X21742Y42258D01*
X21450Y41908D01*
X21100Y41675D01*
X20633Y41500D01*
X19467D01*
G01X23642Y44417D02*
X23992Y44767D01*
X24400Y44942D01*
X24867Y45000D01*
X25450Y44883D01*
X25858Y44592D01*
X25975Y44242D01*
X25917Y43892D01*
X25683Y43600D01*
X24517Y43017D01*
X23992Y42608D01*
X23642Y42025D01*
X23525Y41500D01*
X25975D01*
G01X19750Y62000D02*
Y67000D01*
X18950Y66000D01*
G01Y62000D02*
X20550D01*
G01X18483Y76667D02*
X18883Y77167D01*
X19350Y77417D01*
X19883Y77500D01*
X20550Y77333D01*
X21017Y76917D01*
X21150Y76417D01*
X21083Y75917D01*
X20817Y75500D01*
X19483Y74667D01*
X18883Y74083D01*
X18483Y73250D01*
X18350Y72500D01*
X21150D01*
G01X40500Y4000D02*
Y9000D01*
X39700Y8000D01*
G01Y4000D02*
X41300D01*
G01X44583Y26700D02*
X44875Y26350D01*
X45225Y26117D01*
X45633Y26000D01*
X46100Y26117D01*
X46450Y26350D01*
X46800Y26700D01*
X46917Y27167D01*
Y29500D01*
G01X48758Y26408D02*
X49167Y26117D01*
X49633Y26000D01*
X50100Y26117D01*
X50508Y26467D01*
X50800Y26992D01*
X50917Y27517D01*
Y28158D01*
X50800Y28683D01*
X50508Y29150D01*
X50158Y29383D01*
X49750Y29500D01*
X49283Y29383D01*
X48933Y29150D01*
X48700Y28800D01*
X48583Y28333D01*
X48700Y27925D01*
X48992Y27517D01*
X49342Y27283D01*
X49750Y27225D01*
X50217Y27342D01*
X50567Y27633D01*
X50917Y28158D01*
G01X32525Y33467D02*
X32992Y33175D01*
X33517Y33000D01*
X33983D01*
X34450Y33175D01*
X34800Y33467D01*
X34975Y33875D01*
X34858Y34283D01*
X34567Y34633D01*
X34042Y34867D01*
X33342Y34983D01*
X32933Y35217D01*
X32758Y35625D01*
X32875Y36033D01*
X33167Y36325D01*
X33575Y36500D01*
X33983D01*
X34392Y36383D01*
X34742Y36092D01*
G01X36642Y34458D02*
X37050Y34867D01*
X37400Y35100D01*
X37867Y35217D01*
X38275Y35100D01*
X38567Y34867D01*
X38800Y34517D01*
X38858Y34108D01*
X38800Y33758D01*
X38567Y33408D01*
X38217Y33117D01*
X37808Y33000D01*
X37342Y33117D01*
X36933Y33467D01*
X36700Y33992D01*
X36642Y34575D01*
X36758Y35333D01*
X36933Y35742D01*
X37225Y36150D01*
X37633Y36442D01*
X38042Y36500D01*
X38450Y36383D01*
X38742Y36092D01*
G01X45083Y55200D02*
X45375Y54850D01*
X45725Y54617D01*
X46133Y54500D01*
X46600Y54617D01*
X46950Y54850D01*
X47300Y55200D01*
X47417Y55667D01*
Y58000D01*
G01X48967Y55200D02*
X49317Y54792D01*
X49783Y54558D01*
X50308Y54500D01*
X50775Y54558D01*
X51242Y54850D01*
X51533Y55200D01*
X51592Y55550D01*
X51475Y55958D01*
X51067Y56250D01*
X50658Y56367D01*
X50133D01*
G01X50658D02*
X51008Y56542D01*
X51300Y56833D01*
X51417Y57183D01*
X51300Y57533D01*
X51008Y57825D01*
X50483Y58000D01*
X49958Y57942D01*
X49433Y57708D01*
G01X43083Y185700D02*
X43375Y185350D01*
X43725Y185117D01*
X44133Y185000D01*
X44600Y185117D01*
X44950Y185350D01*
X45300Y185700D01*
X45417Y186167D01*
Y188500D01*
G01X48250Y185000D02*
X48658Y185058D01*
X49125Y185233D01*
X49417Y185525D01*
X49533Y185933D01*
X49417Y186342D01*
X49067Y186692D01*
X48542Y186867D01*
X47958D01*
X47608Y186983D01*
X47317Y187275D01*
X47200Y187683D01*
X47375Y188092D01*
X47783Y188383D01*
X48250Y188500D01*
X48717Y188383D01*
X49125Y188092D01*
X49300Y187683D01*
X49183Y187275D01*
X48892Y186983D01*
X48542Y186867D01*
X47958D01*
X47433Y186692D01*
X47083Y186342D01*
X46967Y185933D01*
X47083Y185525D01*
X47375Y185233D01*
X47842Y185058D01*
X48250Y185000D01*
G01X40000Y205000D02*
Y210000D01*
X39200Y209000D01*
G01Y205000D02*
X40800D01*
G01X69000Y4000D02*
Y9000D01*
X68200Y8000D01*
G01Y4000D02*
X69800D01*
G01X67733Y19167D02*
X68133Y19667D01*
X68600Y19917D01*
X69133Y20000D01*
X69800Y19833D01*
X70267Y19417D01*
X70400Y18917D01*
X70333Y18417D01*
X70067Y18000D01*
X68733Y17167D01*
X68133Y16583D01*
X67733Y15750D01*
X67600Y15000D01*
X70400D01*
G01X67500Y192500D02*
Y197500D01*
X66700Y196500D01*
G01Y192500D02*
X68300D01*
G01X66233Y209167D02*
X66633Y209667D01*
X67100Y209917D01*
X67633Y210000D01*
X68300Y209833D01*
X68767Y209417D01*
X68900Y208917D01*
X68833Y208417D01*
X68567Y208000D01*
X67233Y207167D01*
X66633Y206583D01*
X66233Y205750D01*
X66100Y205000D01*
X68900D01*
G01X74617Y63583D02*
X75083Y63167D01*
X75617Y63000D01*
X76150Y63167D01*
X76617Y63667D01*
X76950Y64417D01*
X77083Y65167D01*
Y66083D01*
X76950Y66833D01*
X76617Y67500D01*
X76217Y67833D01*
X75750Y68000D01*
X75217Y67833D01*
X74817Y67500D01*
X74550Y67000D01*
X74417Y66333D01*
X74550Y65750D01*
X74883Y65167D01*
X75283Y64833D01*
X75750Y64750D01*
X76283Y64917D01*
X76683Y65333D01*
X77083Y66083D01*
G01X75750Y73000D02*
Y78000D01*
X74950Y77000D01*
G01Y73000D02*
X76550D01*
G01X80750Y78000D02*
X80217Y77833D01*
X79817Y77417D01*
X79550Y76917D01*
X79350Y76250D01*
X79283Y75500D01*
X79350Y74750D01*
X79550Y74083D01*
X79817Y73583D01*
X80217Y73167D01*
X80750Y73000D01*
X81283Y73167D01*
X81683Y73583D01*
X81950Y74083D01*
X82150Y74750D01*
X82217Y75500D01*
X82150Y76250D01*
X81950Y76917D01*
X81683Y77417D01*
X81283Y77833D01*
X80750Y78000D01*
G01X111500Y69583D02*
X108000D01*
Y71042D01*
X108175Y71508D01*
X108408Y71800D01*
X108875Y71917D01*
X109342Y71800D01*
X109633Y71450D01*
X109808Y71042D01*
Y69583D01*
G01Y71042D02*
X111500Y71917D01*
G01Y74750D02*
X108000D01*
X108700Y74050D01*
G01X111500D02*
Y75450D01*
G01X110800Y77467D02*
X111208Y77817D01*
X111442Y78283D01*
X111500Y78808D01*
X111442Y79275D01*
X111150Y79742D01*
X110800Y80033D01*
X110450Y80092D01*
X110042Y79975D01*
X109750Y79567D01*
X109633Y79158D01*
Y78633D01*
G01Y79158D02*
X109458Y79508D01*
X109167Y79800D01*
X108817Y79917D01*
X108467Y79800D01*
X108175Y79508D01*
X108000Y78983D01*
X108058Y78458D01*
X108292Y77933D01*
G01X111500Y81201D02*
Y81000D01*
X108500D01*
G01Y88799D02*
Y89000D01*
X111500D01*
Y88799D01*
G01X108500Y81000D02*
Y81201D01*
G01X112201Y147500D02*
X107500D01*
Y172500D01*
X112201D01*
G01X117500Y0D02*
Y3750D01*
G01Y21250D02*
Y25000D01*
G01X123792Y75533D02*
X123617Y75183D01*
X123500Y74775D01*
Y74308D01*
X123675Y73783D01*
X123967Y73375D01*
X124317Y73083D01*
X124900Y72850D01*
X125425Y72792D01*
X125950Y72908D01*
X126300Y73083D01*
X126650Y73433D01*
X126883Y73842D01*
X127000Y74250D01*
Y74658D01*
X126883Y75067D01*
X126708Y75417D01*
X126475Y75708D01*
G01X127000Y78950D02*
X123500D01*
X126008Y76792D01*
Y79708D01*
G01X122000Y69583D02*
X118500D01*
Y71042D01*
X118675Y71508D01*
X118908Y71800D01*
X119375Y71917D01*
X119842Y71800D01*
X120133Y71450D01*
X120308Y71042D01*
Y69583D01*
G01Y71042D02*
X122000Y71917D01*
G01Y74750D02*
X118500D01*
X119200Y74050D01*
G01X122000D02*
Y75450D01*
G01Y78633D02*
X121242Y78750D01*
X120600Y78925D01*
X120017Y79158D01*
X119375Y79450D01*
X118500Y79917D01*
Y77583D01*
G01X116500Y69583D02*
X113000D01*
Y71042D01*
X113175Y71508D01*
X113408Y71800D01*
X113875Y71917D01*
X114342Y71800D01*
X114633Y71450D01*
X114808Y71042D01*
Y69583D01*
G01Y71042D02*
X116500Y71917D01*
G01Y74750D02*
X113000D01*
X113700Y74050D01*
G01X116500D02*
Y75450D01*
G01X113583Y77642D02*
X113233Y77992D01*
X113058Y78400D01*
X113000Y78867D01*
X113117Y79450D01*
X113408Y79858D01*
X113758Y79975D01*
X114108Y79917D01*
X114400Y79683D01*
X114983Y78517D01*
X115392Y77992D01*
X115975Y77642D01*
X116500Y77525D01*
Y79975D01*
G01X126500Y81201D02*
Y81000D01*
X123500D01*
G01Y88799D02*
Y89000D01*
X126500D01*
Y88799D01*
G01X123500Y81000D02*
Y81201D01*
G01X121500D02*
Y81000D01*
X118500D01*
G01Y88799D02*
Y89000D01*
X121500D01*
Y88799D01*
G01X118500Y81000D02*
Y81201D01*
G01X116500D02*
Y81000D01*
X113500D01*
G01Y88799D02*
Y89000D01*
X116500D01*
Y88799D01*
G01X113500Y81000D02*
Y81201D01*
G01X129717Y96500D02*
Y93992D01*
X129950Y93467D01*
X130417Y93117D01*
X131000Y93000D01*
X131583Y93117D01*
X132050Y93467D01*
X132283Y93992D01*
Y96500D01*
G01X133892Y95917D02*
X134242Y96267D01*
X134650Y96442D01*
X135117Y96500D01*
X135700Y96383D01*
X136108Y96092D01*
X136225Y95742D01*
X136167Y95392D01*
X135933Y95100D01*
X134767Y94517D01*
X134242Y94108D01*
X133892Y93525D01*
X133775Y93000D01*
X136225D01*
G01X131283Y119617D02*
X128717Y117050D01*
G01X130000Y116583D02*
Y120083D01*
G01X128717Y119617D02*
X131283Y117050D01*
G01X131750Y118333D02*
X128250D01*
G01X123500Y133799D02*
Y134000D01*
X126500D01*
G01Y126201D02*
Y126000D01*
X123500D01*
Y126201D01*
G01X126500Y134000D02*
Y133799D01*
G01X113500D02*
Y134000D01*
X116500D01*
G01Y126201D02*
Y126000D01*
X113500D01*
Y126201D01*
G01X116500Y134000D02*
Y133799D01*
G01X118500D02*
Y134000D01*
X121500D01*
G01Y126201D02*
Y126000D01*
X118500D01*
Y126201D01*
G01X121500Y134000D02*
Y133799D01*
G01X127799Y172201D02*
X132500Y167500D01*
Y147500D01*
X127799D01*
G01X122201D02*
X117799D01*
G01X127500Y167500D02*
Y152500D01*
X122500D01*
Y167500D01*
X127500D01*
G01X117500D02*
Y152500D01*
X112500D01*
Y167500D01*
X117500D01*
G01X129792Y178250D02*
X131250Y181750D01*
X132708Y178250D01*
G01X132183Y179475D02*
X130317D01*
G01X134025Y178717D02*
X134492Y178425D01*
X135017Y178250D01*
X135483D01*
X135950Y178425D01*
X136300Y178717D01*
X136475Y179125D01*
X136358Y179533D01*
X136067Y179883D01*
X135542Y180117D01*
X134842Y180233D01*
X134433Y180467D01*
X134258Y180875D01*
X134375Y181283D01*
X134667Y181575D01*
X135075Y181750D01*
X135483D01*
X135892Y181633D01*
X136242Y181342D01*
G01X138025Y178717D02*
X138492Y178425D01*
X139017Y178250D01*
X139483D01*
X139950Y178425D01*
X140300Y178717D01*
X140475Y179125D01*
X140358Y179533D01*
X140067Y179883D01*
X139542Y180117D01*
X138842Y180233D01*
X138433Y180467D01*
X138258Y180875D01*
X138375Y181283D01*
X138667Y181575D01*
X139075Y181750D01*
X139483D01*
X139892Y181633D01*
X140242Y181342D01*
G01X143250Y178250D02*
Y179825D01*
X142083Y181750D01*
G01X144417D02*
X143250Y179825D01*
G01X123883Y186783D02*
X126450Y184217D01*
G01X126917Y185500D02*
X123417D01*
G01X123883Y184217D02*
X126450Y186783D01*
G01X125167Y187250D02*
Y183750D01*
G01X117799Y172500D02*
X122201D01*
G01X117500Y190000D02*
Y193750D01*
G01Y211250D02*
Y215000D01*
G01X144217Y69367D02*
X144450Y69542D01*
X144625Y69833D01*
X144742Y70242D01*
X144625Y70592D01*
X144392Y70825D01*
X143983Y71000D01*
X142408D01*
Y67500D01*
X144333D01*
X144742Y67733D01*
X144975Y68083D01*
X145092Y68492D01*
X144975Y68900D01*
X144625Y69250D01*
X144217Y69367D01*
X142408D01*
G01X146875Y69075D02*
X148742D01*
X148567Y69483D01*
X148275Y69717D01*
X147867Y69833D01*
X147458Y69775D01*
X147108Y69600D01*
X146875Y69192D01*
X146758Y68842D01*
Y68492D01*
X146875Y68142D01*
X147167Y67792D01*
X147517Y67558D01*
X147925Y67500D01*
X148333Y67617D01*
X148742Y67967D01*
G01X152800Y67500D02*
Y69833D01*
G01Y69425D02*
X152567Y69658D01*
X152217Y69775D01*
X151808Y69833D01*
X151400Y69717D01*
X151050Y69483D01*
X150817Y69133D01*
X150700Y68667D01*
X150817Y68200D01*
X151050Y67850D01*
X151400Y67617D01*
X151808Y67500D01*
X152217Y67558D01*
X152567Y67733D01*
X152800Y67967D01*
G01X154933Y66625D02*
X155342Y66392D01*
X155808Y66333D01*
X156217Y66392D01*
X156567Y66683D01*
X156800Y67092D01*
Y69833D01*
G01Y69367D02*
X156567Y69600D01*
X156217Y69775D01*
X155808Y69833D01*
X155342Y69717D01*
X155050Y69483D01*
X154817Y69075D01*
X154700Y68667D01*
X154758Y68317D01*
X154992Y67908D01*
X155342Y67617D01*
X155808Y67500D01*
X156158Y67558D01*
X156567Y67792D01*
X156800Y68025D01*
G01X159750Y67500D02*
Y71000D01*
G01X162875Y69075D02*
X164742D01*
X164567Y69483D01*
X164275Y69717D01*
X163867Y69833D01*
X163458Y69775D01*
X163108Y69600D01*
X162875Y69192D01*
X162758Y68842D01*
Y68492D01*
X162875Y68142D01*
X163167Y67792D01*
X163517Y67558D01*
X163925Y67500D01*
X164333Y67617D01*
X164742Y67967D01*
G01X168217Y69367D02*
X168450Y69542D01*
X168625Y69833D01*
X168742Y70242D01*
X168625Y70592D01*
X168392Y70825D01*
X167983Y71000D01*
X166408D01*
Y67500D01*
X168333D01*
X168742Y67733D01*
X168975Y68083D01*
X169092Y68492D01*
X168975Y68900D01*
X168625Y69250D01*
X168217Y69367D01*
X166408D01*
G01X171750Y67500D02*
X171400Y67558D01*
X171050Y67792D01*
X170817Y68200D01*
X170700Y68667D01*
X170817Y69133D01*
X171050Y69542D01*
X171400Y69775D01*
X171750Y69833D01*
X172100Y69775D01*
X172450Y69542D01*
X172683Y69133D01*
X172742Y68667D01*
X172683Y68200D01*
X172450Y67792D01*
X172100Y67558D01*
X171750Y67500D01*
G01X174758D02*
Y69833D01*
G01Y69250D02*
X174992Y69542D01*
X175342Y69775D01*
X175808Y69833D01*
X176217Y69775D01*
X176567Y69542D01*
X176742Y69133D01*
Y67500D01*
G01X178875Y69075D02*
X180742D01*
X180567Y69483D01*
X180275Y69717D01*
X179867Y69833D01*
X179458Y69775D01*
X179108Y69600D01*
X178875Y69192D01*
X178758Y68842D01*
Y68492D01*
X178875Y68142D01*
X179167Y67792D01*
X179517Y67558D01*
X179925Y67500D01*
X180333Y67617D01*
X180742Y67967D01*
G01X188217Y69367D02*
X188450Y69542D01*
X188625Y69833D01*
X188742Y70242D01*
X188625Y70592D01*
X188392Y70825D01*
X187983Y71000D01*
X186408D01*
Y67500D01*
X188333D01*
X188742Y67733D01*
X188975Y68083D01*
X189092Y68492D01*
X188975Y68900D01*
X188625Y69250D01*
X188217Y69367D01*
X186408D01*
G01X192800Y67500D02*
Y69833D01*
G01Y69425D02*
X192567Y69658D01*
X192217Y69775D01*
X191808Y69833D01*
X191400Y69717D01*
X191050Y69483D01*
X190817Y69133D01*
X190700Y68667D01*
X190817Y68200D01*
X191050Y67850D01*
X191400Y67617D01*
X191808Y67500D01*
X192217Y67558D01*
X192567Y67733D01*
X192800Y67967D01*
G01X195750Y71000D02*
Y67500D01*
G01X194933Y69833D02*
X196567D01*
G01X199750Y71000D02*
Y67500D01*
G01X198933Y69833D02*
X200567D01*
G01X202875Y69075D02*
X204742D01*
X204567Y69483D01*
X204275Y69717D01*
X203867Y69833D01*
X203458Y69775D01*
X203108Y69600D01*
X202875Y69192D01*
X202758Y68842D01*
Y68492D01*
X202875Y68142D01*
X203167Y67792D01*
X203517Y67558D01*
X203925Y67500D01*
X204333Y67617D01*
X204742Y67967D01*
G01X206933Y67500D02*
Y69833D01*
G01Y69367D02*
X207225Y69600D01*
X207517Y69775D01*
X207925Y69833D01*
X208217Y69775D01*
X208567Y69600D01*
G01X210525Y66450D02*
X210875Y66333D01*
X211342Y66450D01*
X211633Y66683D01*
X211867Y66975D01*
X212217Y67908D01*
X212975Y69833D01*
G01X211108D02*
X212217Y67908D01*
G01X221033Y70708D02*
X220683Y70883D01*
X220275Y71000D01*
X219808D01*
X219283Y70825D01*
X218875Y70533D01*
X218583Y70183D01*
X218350Y69600D01*
X218292Y69075D01*
X218408Y68550D01*
X218583Y68200D01*
X218933Y67850D01*
X219342Y67617D01*
X219750Y67500D01*
X220158D01*
X220567Y67617D01*
X220917Y67792D01*
X221208Y68025D01*
G01X224800Y67500D02*
Y69833D01*
G01Y69425D02*
X224567Y69658D01*
X224217Y69775D01*
X223808Y69833D01*
X223400Y69717D01*
X223050Y69483D01*
X222817Y69133D01*
X222700Y68667D01*
X222817Y68200D01*
X223050Y67850D01*
X223400Y67617D01*
X223808Y67500D01*
X224217Y67558D01*
X224567Y67733D01*
X224800Y67967D01*
G01X226700Y66333D02*
Y69833D01*
G01Y69308D02*
X226992Y69600D01*
X227283Y69775D01*
X227750Y69833D01*
X228158Y69775D01*
X228567Y69483D01*
X228742Y69075D01*
X228800Y68667D01*
X228742Y68258D01*
X228567Y67850D01*
X228217Y67617D01*
X227750Y67500D01*
X227342Y67558D01*
X226933Y67733D01*
X226700Y67967D01*
G01X230875Y69075D02*
X232742D01*
X232567Y69483D01*
X232275Y69717D01*
X231867Y69833D01*
X231458Y69775D01*
X231108Y69600D01*
X230875Y69192D01*
X230758Y68842D01*
Y68492D01*
X230875Y68142D01*
X231167Y67792D01*
X231517Y67558D01*
X231925Y67500D01*
X232333Y67617D01*
X232742Y67967D01*
G01X238583Y67500D02*
Y71000D01*
X240042D01*
X240508Y70825D01*
X240800Y70592D01*
X240917Y70125D01*
X240800Y69658D01*
X240450Y69367D01*
X240042Y69192D01*
X238583D01*
G01X240042D02*
X240917Y67500D01*
G01X242875Y69075D02*
X244742D01*
X244567Y69483D01*
X244275Y69717D01*
X243867Y69833D01*
X243458Y69775D01*
X243108Y69600D01*
X242875Y69192D01*
X242758Y68842D01*
Y68492D01*
X242875Y68142D01*
X243167Y67792D01*
X243517Y67558D01*
X243925Y67500D01*
X244333Y67617D01*
X244742Y67967D01*
G01X246700Y69833D02*
X247750Y67500D01*
X248800Y69833D01*
G01X141750Y104750D02*
Y101250D01*
G01X140408Y104750D02*
X143092D01*
G01X144583Y101250D02*
Y104750D01*
X145983D01*
X146450Y104575D01*
X146800Y104167D01*
X146917Y103700D01*
X146800Y103233D01*
X146508Y102883D01*
X145983Y102708D01*
X144583D01*
G01X149750Y101250D02*
Y104750D01*
X149050Y104050D01*
G01Y101250D02*
X150450D01*
G01X141750Y130500D02*
Y127000D01*
G01X140408Y130500D02*
X143092D01*
G01X144583Y127000D02*
Y130500D01*
X145983D01*
X146450Y130325D01*
X146800Y129917D01*
X146917Y129450D01*
X146800Y128983D01*
X146508Y128633D01*
X145983Y128458D01*
X144583D01*
G01X148642Y129917D02*
X148992Y130267D01*
X149400Y130442D01*
X149867Y130500D01*
X150450Y130383D01*
X150858Y130092D01*
X150975Y129742D01*
X150917Y129392D01*
X150683Y129100D01*
X149517Y128517D01*
X148992Y128108D01*
X148642Y127525D01*
X148525Y127000D01*
X150975D01*
G01X134775Y159467D02*
X135242Y159175D01*
X135767Y159000D01*
X136233D01*
X136700Y159175D01*
X137050Y159467D01*
X137225Y159875D01*
X137108Y160283D01*
X136817Y160633D01*
X136292Y160867D01*
X135592Y160983D01*
X135183Y161217D01*
X135008Y161625D01*
X135125Y162033D01*
X135417Y162325D01*
X135825Y162500D01*
X136233D01*
X136642Y162383D01*
X136992Y162092D01*
G01X138250Y162500D02*
X139067Y159000D01*
X140000Y162500D01*
X140933Y159000D01*
X141750Y162500D01*
G01X144000Y159000D02*
Y162500D01*
X143300Y161800D01*
G01Y159000D02*
X144700D01*
G01X167500Y0D02*
Y3750D01*
G01Y21250D02*
Y25000D01*
G01Y190000D02*
Y193750D01*
G01Y211250D02*
Y215000D01*
G01X181833Y26200D02*
X182125Y25850D01*
X182475Y25617D01*
X182883Y25500D01*
X183350Y25617D01*
X183700Y25850D01*
X184050Y26200D01*
X184167Y26667D01*
Y29000D01*
G01X185892Y28417D02*
X186242Y28767D01*
X186650Y28942D01*
X187117Y29000D01*
X187700Y28883D01*
X188108Y28592D01*
X188225Y28242D01*
X188167Y27892D01*
X187933Y27600D01*
X186767Y27017D01*
X186242Y26608D01*
X185892Y26025D01*
X185775Y25500D01*
X188225D01*
G01X179083Y102500D02*
Y106000D01*
X180542D01*
X181008Y105825D01*
X181300Y105592D01*
X181417Y105125D01*
X181300Y104658D01*
X180950Y104367D01*
X180542Y104192D01*
X179083D01*
G01X180542D02*
X181417Y102500D01*
G01X184133D02*
X184250Y103258D01*
X184425Y103900D01*
X184658Y104483D01*
X184950Y105125D01*
X185417Y106000D01*
X183083D01*
G01X179083Y119000D02*
Y122500D01*
X180542D01*
X181008Y122325D01*
X181300Y122092D01*
X181417Y121625D01*
X181300Y121158D01*
X180950Y120867D01*
X180542Y120692D01*
X179083D01*
G01X180542D02*
X181417Y119000D01*
G01X182967Y119525D02*
X183317Y119233D01*
X183725Y119058D01*
X184250Y119000D01*
X184775Y119117D01*
X185183Y119350D01*
X185475Y119758D01*
X185533Y120225D01*
X185417Y120692D01*
X185125Y120983D01*
X184717Y121217D01*
X184308Y121275D01*
X183900Y121217D01*
X183375Y120983D01*
X183550Y122500D01*
X185125D01*
G01X187250Y121500D02*
X187451D01*
G01Y118500D02*
X187250D01*
Y121500D01*
G01X179083Y108000D02*
Y111500D01*
X180542D01*
X181008Y111325D01*
X181300Y111092D01*
X181417Y110625D01*
X181300Y110158D01*
X180950Y109867D01*
X180542Y109692D01*
X179083D01*
G01X180542D02*
X181417Y108000D01*
G01X183142Y109458D02*
X183550Y109867D01*
X183900Y110100D01*
X184367Y110217D01*
X184775Y110100D01*
X185067Y109867D01*
X185300Y109517D01*
X185358Y109108D01*
X185300Y108758D01*
X185067Y108408D01*
X184717Y108117D01*
X184308Y108000D01*
X183842Y108117D01*
X183433Y108467D01*
X183200Y108992D01*
X183142Y109575D01*
X183258Y110333D01*
X183433Y110742D01*
X183725Y111150D01*
X184133Y111442D01*
X184542Y111500D01*
X184950Y111383D01*
X185242Y111092D01*
G01X187250Y111500D02*
X187451D01*
G01Y108500D02*
X187250D01*
Y111500D01*
G01Y106500D02*
X187451D01*
G01Y103500D02*
X187250D01*
Y106500D01*
G01X179083Y113000D02*
Y116500D01*
X180542D01*
X181008Y116325D01*
X181300Y116092D01*
X181417Y115625D01*
X181300Y115158D01*
X180950Y114867D01*
X180542Y114692D01*
X179083D01*
G01X180542D02*
X181417Y113000D01*
G01X184250D02*
X184658Y113058D01*
X185125Y113233D01*
X185417Y113525D01*
X185533Y113933D01*
X185417Y114342D01*
X185067Y114692D01*
X184542Y114867D01*
X183958D01*
X183608Y114983D01*
X183317Y115275D01*
X183200Y115683D01*
X183375Y116092D01*
X183783Y116383D01*
X184250Y116500D01*
X184717Y116383D01*
X185125Y116092D01*
X185300Y115683D01*
X185183Y115275D01*
X184892Y114983D01*
X184542Y114867D01*
X183958D01*
X183433Y114692D01*
X183083Y114342D01*
X182967Y113933D01*
X183083Y113525D01*
X183375Y113233D01*
X183842Y113058D01*
X184250Y113000D01*
G01X187451Y113500D02*
X187250D01*
Y116500D01*
X187451D01*
G01X178583Y147500D02*
Y144000D01*
X180917D01*
G01X183750D02*
Y147500D01*
X183050Y146800D01*
G01Y144000D02*
X184450D01*
G01X175083Y178250D02*
Y181750D01*
X176542D01*
X177008Y181575D01*
X177300Y181342D01*
X177417Y180875D01*
X177300Y180408D01*
X176950Y180117D01*
X176542Y179942D01*
X175083D01*
G01X176542D02*
X177417Y178250D01*
G01X181417D02*
X179083D01*
Y181750D01*
X181417D01*
G01X180483Y180058D02*
X179083D01*
G01X182792Y181750D02*
X184250Y178250D01*
X185708Y181750D01*
G01X190533Y169708D02*
X190183Y169883D01*
X189775Y170000D01*
X189308D01*
X188783Y169825D01*
X188375Y169533D01*
X188083Y169183D01*
X187850Y168600D01*
X187792Y168075D01*
X187908Y167550D01*
X188083Y167200D01*
X188433Y166850D01*
X188842Y166617D01*
X189250Y166500D01*
X189658D01*
X190067Y166617D01*
X190417Y166792D01*
X190708Y167025D01*
G01X191967Y167200D02*
X192317Y166792D01*
X192783Y166558D01*
X193308Y166500D01*
X193775Y166558D01*
X194242Y166850D01*
X194533Y167200D01*
X194592Y167550D01*
X194475Y167958D01*
X194067Y168250D01*
X193658Y168367D01*
X193133D01*
G01X193658D02*
X194008Y168542D01*
X194300Y168833D01*
X194417Y169183D01*
X194300Y169533D01*
X194008Y169825D01*
X193483Y170000D01*
X192958Y169942D01*
X192433Y169708D01*
G01X209583Y93000D02*
Y96500D01*
X211042D01*
X211508Y96325D01*
X211800Y96092D01*
X211917Y95625D01*
X211800Y95158D01*
X211450Y94867D01*
X211042Y94692D01*
X209583D01*
G01X211042D02*
X211917Y93000D01*
G01X215450D02*
Y96500D01*
X213292Y93992D01*
X216208D01*
G01X208701Y98750D02*
X208500D01*
Y101750D01*
X208701D01*
G01X198083Y93500D02*
Y97000D01*
X199542D01*
X200008Y96825D01*
X200300Y96592D01*
X200417Y96125D01*
X200300Y95658D01*
X199950Y95367D01*
X199542Y95192D01*
X198083D01*
G01X199542D02*
X200417Y93500D01*
G01X202258Y93908D02*
X202667Y93617D01*
X203133Y93500D01*
X203600Y93617D01*
X204008Y93967D01*
X204300Y94492D01*
X204417Y95017D01*
Y95658D01*
X204300Y96183D01*
X204008Y96650D01*
X203658Y96883D01*
X203250Y97000D01*
X202783Y96883D01*
X202433Y96650D01*
X202200Y96300D01*
X202083Y95833D01*
X202200Y95425D01*
X202492Y95017D01*
X202842Y94783D01*
X203250Y94725D01*
X203717Y94842D01*
X204067Y95133D01*
X204417Y95658D01*
G01X206500Y98750D02*
X206299D01*
G01X198701D02*
X198500D01*
Y101750D01*
X198701D01*
G01X206299D02*
X206500D01*
Y98750D01*
G01X195049Y121500D02*
X195250D01*
Y118500D01*
X195049D01*
G01Y111500D02*
X195250D01*
Y108500D01*
X195049D01*
G01Y106500D02*
X195250D01*
Y103500D01*
X195049D01*
G01X195250Y113500D02*
X195049D01*
G01Y116500D02*
X195250D01*
Y116456D01*
G01Y114002D02*
Y113500D01*
G01X204750Y172250D02*
X210250D01*
Y165250D01*
G01X202750D02*
X197250D01*
Y165750D01*
Y172250D01*
X202750D01*
G01X203350Y167250D02*
Y170250D01*
G01X204050Y167250D02*
Y170250D01*
G01X210250Y165250D02*
X204750D01*
G01X207333Y187200D02*
X207625Y186850D01*
X207975Y186617D01*
X208383Y186500D01*
X208850Y186617D01*
X209200Y186850D01*
X209550Y187200D01*
X209667Y187667D01*
Y190000D01*
G01X212500Y186500D02*
Y190000D01*
X211800Y189300D01*
G01Y186500D02*
X213200D01*
G01X217500Y0D02*
Y3750D01*
G01Y21250D02*
Y25000D01*
G01X221583Y32000D02*
Y35500D01*
X223042D01*
X223508Y35325D01*
X223800Y35092D01*
X223917Y34625D01*
X223800Y34158D01*
X223450Y33867D01*
X223042Y33692D01*
X221583D01*
G01X223042D02*
X223917Y32000D01*
G01X226750D02*
Y35500D01*
X226050Y34800D01*
G01Y32000D02*
X227450D01*
G01X229000Y27500D02*
X228799D01*
G01X221201D02*
X221000D01*
Y30500D01*
X221201D01*
G01X228799D02*
X229000D01*
Y27500D01*
G01X232583Y32000D02*
Y35500D01*
X234042D01*
X234508Y35325D01*
X234800Y35092D01*
X234917Y34625D01*
X234800Y34158D01*
X234450Y33867D01*
X234042Y33692D01*
X232583D01*
G01X234042D02*
X234917Y32000D01*
G01X236642Y34917D02*
X236992Y35267D01*
X237400Y35442D01*
X237867Y35500D01*
X238450Y35383D01*
X238858Y35092D01*
X238975Y34742D01*
X238917Y34392D01*
X238683Y34100D01*
X237517Y33517D01*
X236992Y33108D01*
X236642Y32525D01*
X236525Y32000D01*
X238975D01*
G01X230701Y27500D02*
X230500D01*
Y30500D01*
X230701D01*
G01X227533Y96708D02*
X227183Y96883D01*
X226775Y97000D01*
X226308D01*
X225783Y96825D01*
X225375Y96533D01*
X225083Y96183D01*
X224850Y95600D01*
X224792Y95075D01*
X224908Y94550D01*
X225083Y94200D01*
X225433Y93850D01*
X225842Y93617D01*
X226250Y93500D01*
X226658D01*
X227067Y93617D01*
X227417Y93792D01*
X227708Y94025D01*
G01X230250Y93500D02*
Y97000D01*
X229550Y96300D01*
G01Y93500D02*
X230950D01*
G01X216500Y98750D02*
X216299D01*
G01Y101750D02*
X216500D01*
Y98750D01*
G01X237533Y94708D02*
X237183Y94883D01*
X236775Y95000D01*
X236308D01*
X235783Y94825D01*
X235375Y94533D01*
X235083Y94183D01*
X234850Y93600D01*
X234792Y93075D01*
X234908Y92550D01*
X235083Y92200D01*
X235433Y91850D01*
X235842Y91617D01*
X236250Y91500D01*
X236658D01*
X237067Y91617D01*
X237417Y91792D01*
X237708Y92025D01*
G01X239142Y94417D02*
X239492Y94767D01*
X239900Y94942D01*
X240367Y95000D01*
X240950Y94883D01*
X241358Y94592D01*
X241475Y94242D01*
X241417Y93892D01*
X241183Y93600D01*
X240017Y93017D01*
X239492Y92608D01*
X239142Y92025D01*
X239025Y91500D01*
X241475D01*
G01X219467Y125500D02*
Y122992D01*
X219700Y122467D01*
X220167Y122117D01*
X220750Y122000D01*
X221333Y122117D01*
X221800Y122467D01*
X222033Y122992D01*
Y125500D01*
G01X224750Y122000D02*
Y125500D01*
X224050Y124800D01*
G01Y122000D02*
X225450D01*
G01X217500Y190000D02*
Y193750D01*
G01Y211250D02*
Y215000D01*
G01X238500Y27500D02*
X238299D01*
G01Y30500D02*
X238500D01*
Y27500D01*
G01X246967Y93000D02*
Y96500D01*
X248133D01*
X248600Y96325D01*
X248950Y96092D01*
X249242Y95742D01*
X249475Y95333D01*
X249533Y94750D01*
X249475Y94167D01*
X249242Y93758D01*
X248950Y93408D01*
X248600Y93175D01*
X248133Y93000D01*
X246967D01*
G01X252250D02*
Y96500D01*
X251550Y95800D01*
G01Y93000D02*
X252950D01*
G01X270583Y-26800D02*
X270875Y-27150D01*
X271225Y-27383D01*
X271633Y-27500D01*
X272100Y-27383D01*
X272450Y-27150D01*
X272800Y-26800D01*
X272917Y-26333D01*
Y-24000D01*
G01X274642Y-26042D02*
X275050Y-25633D01*
X275400Y-25400D01*
X275867Y-25283D01*
X276275Y-25400D01*
X276567Y-25633D01*
X276800Y-25983D01*
X276858Y-26392D01*
X276800Y-26742D01*
X276567Y-27092D01*
X276217Y-27383D01*
X275808Y-27500D01*
X275342Y-27383D01*
X274933Y-27033D01*
X274700Y-26508D01*
X274642Y-25925D01*
X274758Y-25167D01*
X274933Y-24758D01*
X275225Y-24350D01*
X275633Y-24058D01*
X276042Y-24000D01*
X276450Y-24117D01*
X276742Y-24408D01*
G01X267500Y0D02*
Y3750D01*
G01Y21250D02*
Y25000D01*
G01Y190000D02*
Y193750D01*
G01Y211250D02*
Y215000D01*
G01X272083Y238700D02*
X272375Y238350D01*
X272725Y238117D01*
X273133Y238000D01*
X273600Y238117D01*
X273950Y238350D01*
X274300Y238700D01*
X274417Y239167D01*
Y241500D01*
G01X277950Y238000D02*
Y241500D01*
X275792Y238992D01*
X278708D01*
G01X305800Y6000D02*
Y11000D01*
X303333Y7417D01*
X306667D01*
G01X308533Y6750D02*
X308933Y6333D01*
X309400Y6083D01*
X310000Y6000D01*
X310600Y6167D01*
X311067Y6500D01*
X311400Y7083D01*
X311467Y7750D01*
X311333Y8417D01*
X311000Y8833D01*
X310533Y9167D01*
X310067Y9250D01*
X309600Y9167D01*
X309000Y8833D01*
X309200Y11000D01*
X311000D01*
G01X305800Y15500D02*
Y20500D01*
X303333Y16917D01*
X306667D01*
G01X308733Y17583D02*
X309200Y18167D01*
X309600Y18500D01*
X310133Y18667D01*
X310600Y18500D01*
X310933Y18167D01*
X311200Y17667D01*
X311267Y17083D01*
X311200Y16583D01*
X310933Y16083D01*
X310533Y15667D01*
X310067Y15500D01*
X309533Y15667D01*
X309067Y16167D01*
X308800Y16917D01*
X308733Y17750D01*
X308867Y18833D01*
X309067Y19417D01*
X309400Y20000D01*
X309867Y20417D01*
X310333Y20500D01*
X310800Y20333D01*
X311133Y19917D01*
G01X306300Y195500D02*
Y200500D01*
X303833Y196917D01*
X307167D01*
G01X309033Y196250D02*
X309433Y195833D01*
X309900Y195583D01*
X310500Y195500D01*
X311100Y195667D01*
X311567Y196000D01*
X311900Y196583D01*
X311967Y197250D01*
X311833Y197917D01*
X311500Y198333D01*
X311033Y198667D01*
X310567Y198750D01*
X310100Y198667D01*
X309500Y198333D01*
X309700Y200500D01*
X311500D01*
G01X305800Y204000D02*
Y209000D01*
X303333Y205417D01*
X306667D01*
G01X308733Y206083D02*
X309200Y206667D01*
X309600Y207000D01*
X310133Y207167D01*
X310600Y207000D01*
X310933Y206667D01*
X311200Y206167D01*
X311267Y205583D01*
X311200Y205083D01*
X310933Y204583D01*
X310533Y204167D01*
X310067Y204000D01*
X309533Y204167D01*
X309067Y204667D01*
X308800Y205417D01*
X308733Y206250D01*
X308867Y207333D01*
X309067Y207917D01*
X309400Y208500D01*
X309867Y208917D01*
X310333Y209000D01*
X310800Y208833D01*
X311133Y208417D01*
G01X5100Y6100D02*
Y20704D01*
G01X37600D02*
Y6100D01*
X28850D01*
Y-10200D01*
X13850D01*
Y6100D01*
X5100D01*
G01Y28896D02*
Y29800D01*
X37600D01*
Y28896D01*
G01X7000Y44500D02*
X12000D01*
G01Y40500D02*
X7000D01*
G01X10400Y35000D02*
G03X10000Y35400I-400J0D01*
G01D02*
G03X9600Y35000I0J-400D01*
G01D02*
G03X10000Y34600I400J0D01*
G01D02*
G03X10400Y35000I0J400D01*
G01X11000Y48500D02*
X9000Y46500D01*
X11000Y44500D01*
Y48500D01*
G01X9000D02*
Y44500D01*
G01X72500Y60000D02*
Y80000D01*
X22500D01*
Y60000D01*
X72500D01*
G01X52500Y1500D02*
X42500D01*
Y23500D01*
X52500D01*
Y1500D01*
G01X42500Y213500D02*
X52500D01*
Y191500D01*
X42500D01*
Y213500D01*
G01X82500Y2500D02*
X302500D01*
Y22500D01*
X82500D01*
X72500D01*
Y2500D01*
X82500D01*
G01Y192500D02*
X302500D01*
Y212500D01*
X82500D01*
X72500D01*
Y192500D01*
X82500D01*
G01X108501Y115400D02*
X107650D01*
Y99600D01*
X108501D01*
G01X111499D02*
X113501D01*
G01X116499D02*
X118501D01*
G01X121499D02*
X123501D01*
G01X126499D02*
X127350D01*
Y115400D01*
G01X130000Y103750D02*
G03X135000Y98750I5000J0D01*
G01X127350Y115400D02*
X126499D01*
G01X123501D02*
X121499D01*
G01X118501D02*
X116499D01*
G01X113501D02*
X111499D01*
G01X127200Y108700D02*
X124800D01*
Y106300D01*
X127200D01*
Y108700D01*
G01X135000Y108750D02*
G03X130000Y103750I0J-5000D01*
G01X135000Y133750D02*
G03X130000Y128750I0J-5000D01*
G01D02*
G03X135000Y123750I5000J0D01*
G01Y98750D02*
G03X140000Y103750I0J5000D01*
G01D02*
G03X135000Y108750I-5000J0D01*
G01X140000Y128750D02*
G03X135000Y133750I-5000J0D01*
G01Y123750D02*
G03X140000Y128750I0J5000D01*
G54D13*
G01X64500Y-48000D02*
X44500D01*
G01X64500Y236000D02*
X44500D01*
G01X54500Y-58000D02*
Y-38087D01*
G01Y226000D02*
Y246000D01*
G01X197500Y105000D02*
Y109873D01*
G01Y120127D02*
Y125000D01*
X202373D01*
G01X217500Y109873D02*
Y108500D01*
X214000Y105000D01*
X212627D01*
G01X202373D02*
X197500D01*
G01X212627Y125000D02*
X217500D01*
Y120127D01*
G01X231500Y104500D02*
Y99000D01*
X224500D01*
G01D02*
Y104500D01*
G01Y106500D02*
Y112000D01*
X225000D01*
X231500D01*
Y106500D01*
G01X226500Y105900D02*
X229500D01*
G01X226500Y105200D02*
X229500D01*
G01X220500Y111000D02*
G03I-1000J0D01*
G01X250500Y67500D02*
X263000D01*
G54D14*
G01X42500Y-68500D02*
X267500D01*
Y-19538D01*
G01Y-3262D02*
Y-1500D01*
X42500D01*
Y-68500D01*
G01Y216500D02*
X267500D01*
Y265462D01*
G01Y281738D02*
Y283500D01*
X42500D01*
Y216500D01*
G01X87333Y-407000D02*
Y-397000D01*
X90667D01*
X92000Y-397500D01*
X93000Y-398167D01*
X93833Y-399167D01*
X94500Y-400334D01*
X94667Y-402000D01*
X94500Y-403667D01*
X93833Y-404833D01*
X93000Y-405834D01*
X92000Y-406500D01*
X90667Y-407000D01*
X87333D01*
G01X97833D02*
X102000Y-397000D01*
X106167Y-407000D01*
G01X104667Y-403500D02*
X99333D01*
G01X113000Y-397000D02*
Y-407000D01*
G01X109167Y-397000D02*
X116833D01*
G01X127333Y-407000D02*
X120667D01*
Y-397000D01*
X127333D01*
G01X124667Y-401833D02*
X120667D01*
G01X135000Y-407333D02*
X134667Y-407167D01*
Y-406833D01*
X135000Y-406667D01*
X135333Y-406833D01*
Y-407167D01*
X135000Y-407333D01*
G01Y-402834D02*
X134667Y-402667D01*
Y-402333D01*
X135000Y-402167D01*
X135333Y-402333D01*
Y-402667D01*
X135000Y-402834D01*
G01X76117Y-373233D02*
X76550Y-372833D01*
X76875Y-372167D01*
X77092Y-371233D01*
X76875Y-370433D01*
X76442Y-369900D01*
X75683Y-369500D01*
X72758D01*
Y-377500D01*
X76333D01*
X77092Y-376967D01*
X77525Y-376167D01*
X77742Y-375233D01*
X77525Y-374300D01*
X76875Y-373500D01*
X76117Y-373233D01*
X72758D01*
G01X81125Y-373900D02*
X84592D01*
X84267Y-372967D01*
X83725Y-372433D01*
X82967Y-372167D01*
X82208Y-372300D01*
X81558Y-372700D01*
X81125Y-373633D01*
X80908Y-374434D01*
Y-375233D01*
X81125Y-376033D01*
X81667Y-376833D01*
X82317Y-377367D01*
X83075Y-377500D01*
X83833Y-377233D01*
X84592Y-376434D01*
G01X92200Y-377500D02*
Y-372167D01*
G01Y-373100D02*
X91767Y-372567D01*
X91117Y-372300D01*
X90358Y-372167D01*
X89600Y-372433D01*
X88950Y-372967D01*
X88517Y-373767D01*
X88300Y-374833D01*
X88517Y-375900D01*
X88950Y-376700D01*
X89600Y-377233D01*
X90358Y-377500D01*
X91117Y-377367D01*
X91767Y-376967D01*
X92200Y-376434D01*
G01X96233Y-379500D02*
X96992Y-380033D01*
X97858Y-380167D01*
X98617Y-380033D01*
X99267Y-379367D01*
X99700Y-378433D01*
Y-372167D01*
G01Y-373233D02*
X99267Y-372700D01*
X98617Y-372300D01*
X97858Y-372167D01*
X96992Y-372433D01*
X96450Y-372967D01*
X96017Y-373900D01*
X95800Y-374833D01*
X95908Y-375633D01*
X96342Y-376567D01*
X96992Y-377233D01*
X97858Y-377500D01*
X98508Y-377367D01*
X99267Y-376833D01*
X99700Y-376300D01*
G01X105250Y-377500D02*
Y-369500D01*
G01X111125Y-373900D02*
X114592D01*
X114267Y-372967D01*
X113725Y-372433D01*
X112967Y-372167D01*
X112208Y-372300D01*
X111558Y-372700D01*
X111125Y-373633D01*
X110908Y-374434D01*
Y-375233D01*
X111125Y-376033D01*
X111667Y-376833D01*
X112317Y-377367D01*
X113075Y-377500D01*
X113833Y-377233D01*
X114592Y-376434D01*
G01X121117Y-373233D02*
X121550Y-372833D01*
X121875Y-372167D01*
X122092Y-371233D01*
X121875Y-370433D01*
X121442Y-369900D01*
X120683Y-369500D01*
X117758D01*
Y-377500D01*
X121333D01*
X122092Y-376967D01*
X122525Y-376167D01*
X122742Y-375233D01*
X122525Y-374300D01*
X121875Y-373500D01*
X121117Y-373233D01*
X117758D01*
G01X127750Y-377500D02*
X127100Y-377367D01*
X126450Y-376833D01*
X126017Y-375900D01*
X125800Y-374833D01*
X126017Y-373767D01*
X126450Y-372833D01*
X127100Y-372300D01*
X127750Y-372167D01*
X128400Y-372300D01*
X129050Y-372833D01*
X129483Y-373767D01*
X129592Y-374833D01*
X129483Y-375900D01*
X129050Y-376833D01*
X128400Y-377367D01*
X127750Y-377500D01*
G01X133408D02*
Y-372167D01*
G01Y-373500D02*
X133842Y-372833D01*
X134492Y-372300D01*
X135358Y-372167D01*
X136117Y-372300D01*
X136767Y-372833D01*
X137092Y-373767D01*
Y-377500D01*
G01X141125Y-373900D02*
X144592D01*
X144267Y-372967D01*
X143725Y-372433D01*
X142967Y-372167D01*
X142208Y-372300D01*
X141558Y-372700D01*
X141125Y-373633D01*
X140908Y-374434D01*
Y-375233D01*
X141125Y-376033D01*
X141667Y-376833D01*
X142317Y-377367D01*
X143075Y-377500D01*
X143833Y-377233D01*
X144592Y-376434D01*
G01X158617Y-373233D02*
X159050Y-372833D01*
X159375Y-372167D01*
X159592Y-371233D01*
X159375Y-370433D01*
X158942Y-369900D01*
X158183Y-369500D01*
X155258D01*
Y-377500D01*
X158833D01*
X159592Y-376967D01*
X160025Y-376167D01*
X160242Y-375233D01*
X160025Y-374300D01*
X159375Y-373500D01*
X158617Y-373233D01*
X155258D01*
G01X167200Y-377500D02*
Y-372167D01*
G01Y-373100D02*
X166767Y-372567D01*
X166117Y-372300D01*
X165358Y-372167D01*
X164600Y-372433D01*
X163950Y-372967D01*
X163517Y-373767D01*
X163300Y-374833D01*
X163517Y-375900D01*
X163950Y-376700D01*
X164600Y-377233D01*
X165358Y-377500D01*
X166117Y-377367D01*
X166767Y-376967D01*
X167200Y-376434D01*
G01X172750Y-369500D02*
Y-377500D01*
G01X171233Y-372167D02*
X174267D01*
G01X180250Y-369500D02*
Y-377500D01*
G01X178733Y-372167D02*
X181767D01*
G01X186125Y-373900D02*
X189592D01*
X189267Y-372967D01*
X188725Y-372433D01*
X187967Y-372167D01*
X187208Y-372300D01*
X186558Y-372700D01*
X186125Y-373633D01*
X185908Y-374434D01*
Y-375233D01*
X186125Y-376033D01*
X186667Y-376833D01*
X187317Y-377367D01*
X188075Y-377500D01*
X188833Y-377233D01*
X189592Y-376434D01*
G01X193733Y-377500D02*
Y-372167D01*
G01Y-373233D02*
X194275Y-372700D01*
X194817Y-372300D01*
X195575Y-372167D01*
X196117Y-372300D01*
X196767Y-372700D01*
G01X200475Y-379900D02*
X201125Y-380167D01*
X201992Y-379900D01*
X202533Y-379367D01*
X202967Y-378700D01*
X203617Y-376567D01*
X205025Y-372167D01*
G01X201558D02*
X203617Y-376567D01*
G01X220133Y-370167D02*
X219483Y-369767D01*
X218725Y-369500D01*
X217858D01*
X216883Y-369900D01*
X216125Y-370567D01*
X215583Y-371367D01*
X215150Y-372700D01*
X215042Y-373900D01*
X215258Y-375100D01*
X215583Y-375900D01*
X216233Y-376700D01*
X216992Y-377233D01*
X217750Y-377500D01*
X218508D01*
X219267Y-377233D01*
X219917Y-376833D01*
X220458Y-376300D01*
G01X227200Y-377500D02*
Y-372167D01*
G01Y-373100D02*
X226767Y-372567D01*
X226117Y-372300D01*
X225358Y-372167D01*
X224600Y-372433D01*
X223950Y-372967D01*
X223517Y-373767D01*
X223300Y-374833D01*
X223517Y-375900D01*
X223950Y-376700D01*
X224600Y-377233D01*
X225358Y-377500D01*
X226117Y-377367D01*
X226767Y-376967D01*
X227200Y-376434D01*
G01X230800Y-380167D02*
Y-372167D01*
G01Y-373367D02*
X231342Y-372700D01*
X231883Y-372300D01*
X232750Y-372167D01*
X233508Y-372300D01*
X234267Y-372967D01*
X234592Y-373900D01*
X234700Y-374833D01*
X234592Y-375767D01*
X234267Y-376700D01*
X233617Y-377233D01*
X232750Y-377500D01*
X231992Y-377367D01*
X231233Y-376967D01*
X230800Y-376434D01*
G01X238625Y-373900D02*
X242092D01*
X241767Y-372967D01*
X241225Y-372433D01*
X240467Y-372167D01*
X239708Y-372300D01*
X239058Y-372700D01*
X238625Y-373633D01*
X238408Y-374434D01*
Y-375233D01*
X238625Y-376033D01*
X239167Y-376833D01*
X239817Y-377367D01*
X240575Y-377500D01*
X241333Y-377233D01*
X242092Y-376434D01*
G01X134167Y-341833D02*
X133167Y-341333D01*
X132000Y-341000D01*
X130667D01*
X129166Y-341500D01*
X128000Y-342333D01*
X127167Y-343333D01*
X126500Y-345000D01*
X126333Y-346500D01*
X126667Y-348000D01*
X127167Y-349000D01*
X128167Y-350000D01*
X129333Y-350667D01*
X130500Y-351000D01*
X131667D01*
X132833Y-350667D01*
X133833Y-350167D01*
X134667Y-349500D01*
G01X141500Y-344334D02*
Y-351000D01*
G01Y-341667D02*
X141167Y-341500D01*
Y-341167D01*
X141500Y-341000D01*
X141833Y-341167D01*
Y-341500D01*
X141500Y-341667D01*
G01X150167Y-351000D02*
Y-344334D01*
G01Y-345667D02*
X151000Y-345000D01*
X151833Y-344500D01*
X153000Y-344334D01*
X153833Y-344500D01*
X154833Y-345000D01*
G01X166167Y-345167D02*
X165000Y-344500D01*
X164000Y-344334D01*
X162667Y-344667D01*
X161667Y-345333D01*
X161000Y-346500D01*
X160833Y-347667D01*
X161000Y-348833D01*
X161667Y-349834D01*
X162667Y-350667D01*
X164000Y-351000D01*
X165167Y-350667D01*
X166167Y-350000D01*
G01X171667Y-344334D02*
Y-349000D01*
X172333Y-350167D01*
X173333Y-350833D01*
X174500Y-351000D01*
X175667Y-350833D01*
X176667Y-350167D01*
X177333Y-349000D01*
G01Y-351000D02*
Y-344334D01*
G01X185500D02*
Y-351000D01*
G01Y-341667D02*
X185167Y-341500D01*
Y-341167D01*
X185500Y-341000D01*
X185833Y-341167D01*
Y-341500D01*
X185500Y-341667D01*
G01X196500Y-341000D02*
Y-351000D01*
G01X194167Y-344334D02*
X198833D01*
G01X222167Y-341833D02*
X221167Y-341333D01*
X220000Y-341000D01*
X218667D01*
X217166Y-341500D01*
X216000Y-342333D01*
X215167Y-343333D01*
X214500Y-345000D01*
X214333Y-346500D01*
X214667Y-348000D01*
X215167Y-349000D01*
X216167Y-350000D01*
X217333Y-350667D01*
X218500Y-351000D01*
X219667D01*
X220833Y-350667D01*
X221833Y-350167D01*
X222667Y-349500D01*
G01X229500Y-351000D02*
X228500Y-350833D01*
X227500Y-350167D01*
X226833Y-349000D01*
X226500Y-347667D01*
X226833Y-346333D01*
X227500Y-345167D01*
X228500Y-344500D01*
X229500Y-344334D01*
X230500Y-344500D01*
X231500Y-345167D01*
X232167Y-346333D01*
X232333Y-347667D01*
X232167Y-349000D01*
X231500Y-350167D01*
X230500Y-350833D01*
X229500Y-351000D01*
G01X240500Y-351333D02*
X240167Y-351167D01*
Y-350833D01*
X240500Y-350667D01*
X240833Y-350833D01*
Y-351167D01*
X240500Y-351333D01*
G01X138600Y103750D02*
G03I-3600J0D01*
G01Y128750D02*
G03I-3600J0D01*
G01X148500Y-397000D02*
X147166Y-397333D01*
X146167Y-398167D01*
X145500Y-399167D01*
X145000Y-400500D01*
X144833Y-402000D01*
X145000Y-403500D01*
X145500Y-404833D01*
X146167Y-405834D01*
X147166Y-406667D01*
X148500Y-407000D01*
X149833Y-406667D01*
X150833Y-405834D01*
X151500Y-404833D01*
X152000Y-403500D01*
X152167Y-402000D01*
X152000Y-400500D01*
X151500Y-399167D01*
X150833Y-398167D01*
X149833Y-397333D01*
X148500Y-397000D01*
G01X156333Y-398667D02*
X157333Y-397667D01*
X158500Y-397167D01*
X159833Y-397000D01*
X161500Y-397333D01*
X162667Y-398167D01*
X163000Y-399167D01*
X162833Y-400167D01*
X162167Y-401000D01*
X158833Y-402667D01*
X157333Y-403833D01*
X156333Y-405500D01*
X156000Y-407000D01*
X163000D01*
G01X167500Y-407333D02*
X173500Y-397000D01*
G01X181500D02*
X180166Y-397333D01*
X179167Y-398167D01*
X178500Y-399167D01*
X178000Y-400500D01*
X177833Y-402000D01*
X178000Y-403500D01*
X178500Y-404833D01*
X179167Y-405834D01*
X180166Y-406667D01*
X181500Y-407000D01*
X182833Y-406667D01*
X183833Y-405834D01*
X184500Y-404833D01*
X185000Y-403500D01*
X185167Y-402000D01*
X185000Y-400500D01*
X184500Y-399167D01*
X183833Y-398167D01*
X182833Y-397333D01*
X181500Y-397000D01*
G01X192500Y-407000D02*
X193667Y-406833D01*
X195000Y-406333D01*
X195833Y-405500D01*
X196167Y-404333D01*
X195833Y-403167D01*
X194833Y-402167D01*
X193333Y-401667D01*
X191667D01*
X190667Y-401333D01*
X189833Y-400500D01*
X189500Y-399333D01*
X190000Y-398167D01*
X191166Y-397333D01*
X192500Y-397000D01*
X193833Y-397333D01*
X195000Y-398167D01*
X195500Y-399333D01*
X195167Y-400500D01*
X194333Y-401333D01*
X193333Y-401667D01*
X191667D01*
X190167Y-402167D01*
X189167Y-403167D01*
X188833Y-404333D01*
X189167Y-405500D01*
X190000Y-406333D01*
X191333Y-406833D01*
X192500Y-407000D01*
G01X200500Y-407333D02*
X206500Y-397000D01*
G01X211333Y-398667D02*
X212333Y-397667D01*
X213500Y-397167D01*
X214833Y-397000D01*
X216500Y-397333D01*
X217667Y-398167D01*
X218000Y-399167D01*
X217833Y-400167D01*
X217167Y-401000D01*
X213833Y-402667D01*
X212333Y-403833D01*
X211333Y-405500D01*
X211000Y-407000D01*
X218000D01*
G01X225500Y-397000D02*
X224166Y-397333D01*
X223167Y-398167D01*
X222500Y-399167D01*
X222000Y-400500D01*
X221833Y-402000D01*
X222000Y-403500D01*
X222500Y-404833D01*
X223167Y-405834D01*
X224166Y-406667D01*
X225500Y-407000D01*
X226833Y-406667D01*
X227833Y-405834D01*
X228500Y-404833D01*
X229000Y-403500D01*
X229167Y-402000D01*
X229000Y-400500D01*
X228500Y-399167D01*
X227833Y-398167D01*
X226833Y-397333D01*
X225500Y-397000D01*
G01X236500Y-407000D02*
Y-397000D01*
X234500Y-399000D01*
G01Y-407000D02*
X238500D01*
G01X244333Y-398667D02*
X245333Y-397667D01*
X246500Y-397167D01*
X247833Y-397000D01*
X249500Y-397333D01*
X250667Y-398167D01*
X251000Y-399167D01*
X250833Y-400167D01*
X250167Y-401000D01*
X246833Y-402667D01*
X245333Y-403833D01*
X244333Y-405500D01*
X244000Y-407000D01*
X251000D01*
G01X151750Y-273000D02*
Y-281000D01*
G01X149258Y-273000D02*
X154242D01*
G01X156975Y-279934D02*
X157842Y-280600D01*
X158817Y-281000D01*
X159683D01*
X160550Y-280600D01*
X161200Y-279934D01*
X161525Y-279000D01*
X161308Y-278067D01*
X160767Y-277267D01*
X159792Y-276733D01*
X158492Y-276467D01*
X157733Y-275933D01*
X157408Y-275000D01*
X157625Y-274067D01*
X158167Y-273400D01*
X158925Y-273000D01*
X159683D01*
X160442Y-273267D01*
X161092Y-273933D01*
G01X164583Y-273000D02*
Y-281000D01*
X168917D01*
G01X171867D02*
Y-273000D01*
G01X175983D02*
X171867Y-277934D01*
G01X176633Y-281000D02*
X173708Y-275667D01*
G01X189000Y141250D02*
Y130250D01*
X221000D01*
Y141250D01*
G01X189000Y151250D02*
Y162250D01*
X221000D01*
Y151250D01*
G01X239500Y115000D02*
X236500D01*
G01X252083Y-377500D02*
Y-369500D01*
X254792D01*
X255658Y-369900D01*
X256200Y-370433D01*
X256417Y-371500D01*
X256200Y-372567D01*
X255550Y-373233D01*
X254792Y-373633D01*
X252083D01*
G01X254792D02*
X256417Y-377500D01*
G01X260125Y-373900D02*
X263592D01*
X263267Y-372967D01*
X262725Y-372433D01*
X261967Y-372167D01*
X261208Y-372300D01*
X260558Y-372700D01*
X260125Y-373633D01*
X259908Y-374434D01*
Y-375233D01*
X260125Y-376033D01*
X260667Y-376833D01*
X261317Y-377367D01*
X262075Y-377500D01*
X262833Y-377233D01*
X263592Y-376434D01*
G01X267300Y-372167D02*
X269250Y-377500D01*
X271200Y-372167D01*
G01X274042Y-377500D02*
X276750Y-369500D01*
X279458Y-377500D01*
G01X278483Y-374700D02*
X275017D01*
G01X264500Y-43500D02*
X244500D01*
G01X249500Y107451D02*
Y106500D01*
G01X251500D02*
X247500D01*
X249500Y104000D01*
X251500Y106500D01*
G01Y104000D02*
X247500D01*
G01X249500D02*
Y102549D01*
G01X239000Y104500D02*
G03I-1000J0D01*
G01X238000Y116500D02*
Y113500D01*
G01X265500Y241500D02*
X245500D01*
M02*
