G04 ================== begin FILE IDENTIFICATION RECORD ==================*
G04 Layout Name:  BeagleBone-Battery-RevA-allegro_deletelogo.brd*
G04 Film Name:    Bbone_batt_bslk*
G04 File Format:  Gerber RS274X*
G04 File Origin:  Cadence Allegro 16.5-P002*
G04 Origin Date:  Thu Mar 15 13:15:55 2012*
G04 *
G04 Layer:  PACKAGE GEOMETRY/DISPLAY_BOTTOM*
G04 Layer:  MANUFACTURING/AUTOSILK_BOTTOM*
G04 Layer:  BOARD GEOMETRY/TOOLING_CORNERS*
G04 Layer:  REF DES/SILKSCREEN_BOTTOM*
G04 Layer:  DRAWING FORMAT/TITLE_BLOCK*
G04 Layer:  BOARD GEOMETRY/SILKSCREEN_BOTTOM*
G04 *
G04 Offset:    (0.00 0.00)*
G04 Mirror:    No*
G04 Mode:      Positive*
G04 Rotation:  0*
G04 FullContactRelief:  No*
G04 UndefLineWidth:     5.00*
G04 ================== end FILE IDENTIFICATION RECORD ====================*
%FSLAX25Y25*MOIN*%
%IR0*IPPOS*OFA0.00000B0.00000*MIA0B0*SFA1.00000B1.00000*%
%ADD10C,.02*%
%ADD11C,.005*%
%ADD12C,.006*%
%ADD13C,.008*%
G75*
%LPD*%
G75*
G36*
G01X-5000Y-15000D02*
Y-5000D01*
X-15000D01*
Y0D01*
X0D01*
Y-15000D01*
X-5000D01*
G37*
G36*
G01X92500Y152500D02*
Y95000D01*
X105000D01*
Y152500D01*
X92500D01*
G37*
G54D10*
G01X60000Y-333500D02*
X59990Y-415790D01*
G01X59500Y-415500D02*
X292500D01*
X292490Y-415290D01*
X292500Y-333000D01*
X60000D01*
G01X59990Y-387790D02*
X292490D01*
G01X59990Y-360290D02*
X292490D01*
G54D11*
G01X25000Y60000D02*
X22500D01*
G01Y80000D02*
Y77500D01*
G01Y60000D02*
Y62500D01*
G01Y67500D02*
Y72500D01*
G01X25000Y80000D02*
X22500D01*
G01X45000Y60000D02*
X40000D01*
G01X35000D02*
X30000D01*
G01X35000Y80000D02*
X30000D01*
G01X45000D02*
X40000D01*
G01X65000Y60000D02*
X60000D01*
G01X55000D02*
X50000D01*
G01X55000Y80000D02*
X50000D01*
G01X65000D02*
X60000D01*
G01X72500Y60000D02*
X70000D01*
G01X72500Y80000D02*
X70000D01*
G01X72500D02*
Y77500D01*
G01Y67500D02*
Y72500D01*
G01Y60000D02*
Y62500D01*
G01X18500Y64500D02*
Y68000D01*
X19200Y67300D01*
G01Y64500D02*
X17800D01*
G01X19608Y77917D02*
X19258Y78267D01*
X18850Y78442D01*
X18383Y78500D01*
X17800Y78383D01*
X17392Y78092D01*
X17275Y77742D01*
X17333Y77392D01*
X17567Y77100D01*
X18733Y76517D01*
X19258Y76108D01*
X19608Y75525D01*
X19725Y75000D01*
X17275D01*
G01X47917Y53700D02*
X47625Y53350D01*
X47275Y53117D01*
X46867Y53000D01*
X46400Y53117D01*
X46050Y53350D01*
X45700Y53700D01*
X45583Y54167D01*
Y56500D01*
G01X44033Y53700D02*
X43683Y53292D01*
X43217Y53058D01*
X42692Y53000D01*
X42225Y53058D01*
X41758Y53350D01*
X41467Y53700D01*
X41408Y54050D01*
X41525Y54458D01*
X41933Y54750D01*
X42342Y54867D01*
X42867D01*
G01X42342D02*
X41992Y55042D01*
X41700Y55333D01*
X41583Y55683D01*
X41700Y56033D01*
X41992Y56325D01*
X42517Y56500D01*
X43042Y56442D01*
X43567Y56208D01*
G01X59417Y-47300D02*
X59125Y-47650D01*
X58775Y-47883D01*
X58367Y-48000D01*
X57900Y-47883D01*
X57550Y-47650D01*
X57200Y-47300D01*
X57083Y-46833D01*
Y-44500D01*
G01X54367Y-48000D02*
X54250Y-47242D01*
X54075Y-46600D01*
X53842Y-46017D01*
X53550Y-45375D01*
X53083Y-44500D01*
X55417D01*
G01X72608Y19917D02*
X72258Y20267D01*
X71850Y20442D01*
X71383Y20500D01*
X70800Y20383D01*
X70392Y20092D01*
X70275Y19742D01*
X70333Y19392D01*
X70567Y19100D01*
X71733Y18517D01*
X72258Y18108D01*
X72608Y17525D01*
X72725Y17000D01*
X70275D01*
G01X71500Y5500D02*
Y9000D01*
X72200Y8300D01*
G01Y5500D02*
X70800D01*
G01X71608Y208417D02*
X71258Y208767D01*
X70850Y208942D01*
X70383Y209000D01*
X69800Y208883D01*
X69392Y208592D01*
X69275Y208242D01*
X69333Y207892D01*
X69567Y207600D01*
X70733Y207017D01*
X71258Y206608D01*
X71608Y206025D01*
X71725Y205500D01*
X69275D01*
G01X70500Y193000D02*
Y196500D01*
X71200Y195800D01*
G01Y193000D02*
X69800D01*
G01X59417Y224200D02*
X59125Y223850D01*
X58775Y223617D01*
X58367Y223500D01*
X57900Y223617D01*
X57550Y223850D01*
X57200Y224200D01*
X57083Y224667D01*
Y227000D01*
G01X55533Y224025D02*
X55183Y223733D01*
X54775Y223558D01*
X54250Y223500D01*
X53725Y223617D01*
X53317Y223850D01*
X53025Y224258D01*
X52967Y224725D01*
X53083Y225192D01*
X53375Y225483D01*
X53783Y225717D01*
X54192Y225775D01*
X54600Y225717D01*
X55125Y225483D01*
X54950Y227000D01*
X53375D01*
G01X80000Y75000D02*
Y78500D01*
X80700Y77800D01*
G01Y75000D02*
X79300D01*
G01X76000Y78500D02*
X76467Y78383D01*
X76817Y78092D01*
X77050Y77742D01*
X77225Y77275D01*
X77283Y76750D01*
X77225Y76225D01*
X77050Y75758D01*
X76817Y75408D01*
X76467Y75117D01*
X76000Y75000D01*
X75533Y75117D01*
X75183Y75408D01*
X74950Y75758D01*
X74775Y76225D01*
X74717Y76750D01*
X74775Y77275D01*
X74950Y77742D01*
X75183Y78092D01*
X75533Y78383D01*
X76000Y78500D01*
G01X77742Y62908D02*
X77333Y62617D01*
X76867Y62500D01*
X76400Y62617D01*
X75992Y62967D01*
X75700Y63492D01*
X75583Y64017D01*
Y64658D01*
X75700Y65183D01*
X75992Y65650D01*
X76342Y65883D01*
X76750Y66000D01*
X77217Y65883D01*
X77567Y65650D01*
X77800Y65300D01*
X77917Y64833D01*
X77800Y64425D01*
X77508Y64017D01*
X77158Y63783D01*
X76750Y63725D01*
X76283Y63842D01*
X75933Y64133D01*
X75583Y64658D01*
G01X95467Y80525D02*
X95175Y80992D01*
X95000Y81517D01*
Y81983D01*
X95175Y82450D01*
X95467Y82800D01*
X95875Y82975D01*
X96283Y82858D01*
X96633Y82567D01*
X96867Y82042D01*
X96983Y81342D01*
X97217Y80933D01*
X97625Y80758D01*
X98033Y80875D01*
X98325Y81167D01*
X98500Y81575D01*
Y81983D01*
X98383Y82392D01*
X98092Y82742D01*
G01X94883Y84700D02*
X98500Y86800D01*
G01X95000Y88408D02*
X98500D01*
X95000Y91092D01*
X98500D01*
G01X117500Y10500D02*
Y14250D01*
G01Y200625D02*
Y204375D01*
G01X167500Y10500D02*
Y14250D01*
G01Y200625D02*
Y204375D01*
G01X188667Y186200D02*
X188375Y185850D01*
X188025Y185617D01*
X187617Y185500D01*
X187150Y185617D01*
X186800Y185850D01*
X186450Y186200D01*
X186333Y186667D01*
Y189000D01*
G01X183500Y185500D02*
Y189000D01*
X184200Y188300D01*
G01Y185500D02*
X182800D01*
G01X204667Y25200D02*
X204375Y24850D01*
X204025Y24617D01*
X203617Y24500D01*
X203150Y24617D01*
X202800Y24850D01*
X202450Y25200D01*
X202333Y25667D01*
Y28000D01*
G01X200608Y27417D02*
X200258Y27767D01*
X199850Y27942D01*
X199383Y28000D01*
X198800Y27883D01*
X198392Y27592D01*
X198275Y27242D01*
X198333Y26892D01*
X198567Y26600D01*
X199733Y26017D01*
X200258Y25608D01*
X200608Y25025D01*
X200725Y24500D01*
X198275D01*
G01X217500Y10500D02*
Y14250D01*
G01Y200625D02*
Y204375D01*
G01X267500Y10500D02*
Y14250D01*
G01Y200625D02*
Y204375D01*
G01X306800Y7000D02*
Y10500D01*
X308958Y7992D01*
X306042D01*
G01X304783Y7525D02*
X304433Y7233D01*
X304025Y7058D01*
X303500Y7000D01*
X302975Y7117D01*
X302567Y7350D01*
X302275Y7758D01*
X302217Y8225D01*
X302333Y8692D01*
X302625Y8983D01*
X303033Y9217D01*
X303442Y9275D01*
X303850Y9217D01*
X304375Y8983D01*
X304200Y10500D01*
X302625D01*
G01X306800Y16500D02*
Y20000D01*
X308958Y17492D01*
X306042D01*
G01X304608Y17958D02*
X304200Y18367D01*
X303850Y18600D01*
X303383Y18717D01*
X302975Y18600D01*
X302683Y18367D01*
X302450Y18017D01*
X302392Y17608D01*
X302450Y17258D01*
X302683Y16908D01*
X303033Y16617D01*
X303442Y16500D01*
X303908Y16617D01*
X304317Y16967D01*
X304550Y17492D01*
X304608Y18075D01*
X304492Y18833D01*
X304317Y19242D01*
X304025Y19650D01*
X303617Y19942D01*
X303208Y20000D01*
X302800Y19883D01*
X302508Y19592D01*
G01X307300Y194000D02*
Y197500D01*
X309458Y194992D01*
X306542D01*
G01X305283Y194525D02*
X304933Y194233D01*
X304525Y194058D01*
X304000Y194000D01*
X303475Y194117D01*
X303067Y194350D01*
X302775Y194758D01*
X302717Y195225D01*
X302833Y195692D01*
X303125Y195983D01*
X303533Y196217D01*
X303942Y196275D01*
X304350Y196217D01*
X304875Y195983D01*
X304700Y197500D01*
X303125D01*
G01X307300Y206500D02*
Y210000D01*
X309458Y207492D01*
X306542D01*
G01X305108Y207958D02*
X304700Y208367D01*
X304350Y208600D01*
X303883Y208717D01*
X303475Y208600D01*
X303183Y208367D01*
X302950Y208017D01*
X302892Y207608D01*
X302950Y207258D01*
X303183Y206908D01*
X303533Y206617D01*
X303942Y206500D01*
X304408Y206617D01*
X304817Y206967D01*
X305050Y207492D01*
X305108Y208075D01*
X304992Y208833D01*
X304817Y209242D01*
X304525Y209650D01*
X304117Y209942D01*
X303708Y210000D01*
X303300Y209883D01*
X303008Y209592D01*
G54D12*
G01X265500Y-50000D02*
X285500D01*
G01X275500Y-60000D02*
Y-40000D01*
G01X276000Y225500D02*
Y245500D01*
G01X266000Y235500D02*
X286000D01*
G54D13*
G01X287500Y-68500D02*
X62500D01*
Y-19538D01*
G01X67000Y-44000D02*
X87000D01*
G01X62500Y-3262D02*
Y-1500D01*
X287500D01*
Y-68500D01*
G01Y216500D02*
X62500D01*
Y265462D01*
G01X65000Y240000D02*
X85000D01*
G01X62500Y281738D02*
Y283500D01*
X287500D01*
Y216500D01*
G01X87333Y-407000D02*
Y-397000D01*
X90667D01*
X92000Y-397500D01*
X93000Y-398167D01*
X93833Y-399167D01*
X94500Y-400334D01*
X94667Y-402000D01*
X94500Y-403667D01*
X93833Y-404833D01*
X93000Y-405834D01*
X92000Y-406500D01*
X90667Y-407000D01*
X87333D01*
G01X97833D02*
X102000Y-397000D01*
X106167Y-407000D01*
G01X104667Y-403500D02*
X99333D01*
G01X113000Y-397000D02*
Y-407000D01*
G01X109167Y-397000D02*
X116833D01*
G01X127333Y-407000D02*
X120667D01*
Y-397000D01*
X127333D01*
G01X124667Y-401833D02*
X120667D01*
G01X135000Y-407333D02*
X134667Y-407167D01*
Y-406833D01*
X135000Y-406667D01*
X135333Y-406833D01*
Y-407167D01*
X135000Y-407333D01*
G01Y-402834D02*
X134667Y-402667D01*
Y-402333D01*
X135000Y-402167D01*
X135333Y-402333D01*
Y-402667D01*
X135000Y-402834D01*
G01X76117Y-373233D02*
X76550Y-372833D01*
X76875Y-372167D01*
X77092Y-371233D01*
X76875Y-370433D01*
X76442Y-369900D01*
X75683Y-369500D01*
X72758D01*
Y-377500D01*
X76333D01*
X77092Y-376967D01*
X77525Y-376167D01*
X77742Y-375233D01*
X77525Y-374300D01*
X76875Y-373500D01*
X76117Y-373233D01*
X72758D01*
G01X81125Y-373900D02*
X84592D01*
X84267Y-372967D01*
X83725Y-372433D01*
X82967Y-372167D01*
X82208Y-372300D01*
X81558Y-372700D01*
X81125Y-373633D01*
X80908Y-374434D01*
Y-375233D01*
X81125Y-376033D01*
X81667Y-376833D01*
X82317Y-377367D01*
X83075Y-377500D01*
X83833Y-377233D01*
X84592Y-376434D01*
G01X92200Y-377500D02*
Y-372167D01*
G01Y-373100D02*
X91767Y-372567D01*
X91117Y-372300D01*
X90358Y-372167D01*
X89600Y-372433D01*
X88950Y-372967D01*
X88517Y-373767D01*
X88300Y-374833D01*
X88517Y-375900D01*
X88950Y-376700D01*
X89600Y-377233D01*
X90358Y-377500D01*
X91117Y-377367D01*
X91767Y-376967D01*
X92200Y-376434D01*
G01X96233Y-379500D02*
X96992Y-380033D01*
X97858Y-380167D01*
X98617Y-380033D01*
X99267Y-379367D01*
X99700Y-378433D01*
Y-372167D01*
G01Y-373233D02*
X99267Y-372700D01*
X98617Y-372300D01*
X97858Y-372167D01*
X96992Y-372433D01*
X96450Y-372967D01*
X96017Y-373900D01*
X95800Y-374833D01*
X95908Y-375633D01*
X96342Y-376567D01*
X96992Y-377233D01*
X97858Y-377500D01*
X98508Y-377367D01*
X99267Y-376833D01*
X99700Y-376300D01*
G01X105250Y-377500D02*
Y-369500D01*
G01X111125Y-373900D02*
X114592D01*
X114267Y-372967D01*
X113725Y-372433D01*
X112967Y-372167D01*
X112208Y-372300D01*
X111558Y-372700D01*
X111125Y-373633D01*
X110908Y-374434D01*
Y-375233D01*
X111125Y-376033D01*
X111667Y-376833D01*
X112317Y-377367D01*
X113075Y-377500D01*
X113833Y-377233D01*
X114592Y-376434D01*
G01X121117Y-373233D02*
X121550Y-372833D01*
X121875Y-372167D01*
X122092Y-371233D01*
X121875Y-370433D01*
X121442Y-369900D01*
X120683Y-369500D01*
X117758D01*
Y-377500D01*
X121333D01*
X122092Y-376967D01*
X122525Y-376167D01*
X122742Y-375233D01*
X122525Y-374300D01*
X121875Y-373500D01*
X121117Y-373233D01*
X117758D01*
G01X127750Y-377500D02*
X127100Y-377367D01*
X126450Y-376833D01*
X126017Y-375900D01*
X125800Y-374833D01*
X126017Y-373767D01*
X126450Y-372833D01*
X127100Y-372300D01*
X127750Y-372167D01*
X128400Y-372300D01*
X129050Y-372833D01*
X129483Y-373767D01*
X129592Y-374833D01*
X129483Y-375900D01*
X129050Y-376833D01*
X128400Y-377367D01*
X127750Y-377500D01*
G01X133408D02*
Y-372167D01*
G01Y-373500D02*
X133842Y-372833D01*
X134492Y-372300D01*
X135358Y-372167D01*
X136117Y-372300D01*
X136767Y-372833D01*
X137092Y-373767D01*
Y-377500D01*
G01X141125Y-373900D02*
X144592D01*
X144267Y-372967D01*
X143725Y-372433D01*
X142967Y-372167D01*
X142208Y-372300D01*
X141558Y-372700D01*
X141125Y-373633D01*
X140908Y-374434D01*
Y-375233D01*
X141125Y-376033D01*
X141667Y-376833D01*
X142317Y-377367D01*
X143075Y-377500D01*
X143833Y-377233D01*
X144592Y-376434D01*
G01X158617Y-373233D02*
X159050Y-372833D01*
X159375Y-372167D01*
X159592Y-371233D01*
X159375Y-370433D01*
X158942Y-369900D01*
X158183Y-369500D01*
X155258D01*
Y-377500D01*
X158833D01*
X159592Y-376967D01*
X160025Y-376167D01*
X160242Y-375233D01*
X160025Y-374300D01*
X159375Y-373500D01*
X158617Y-373233D01*
X155258D01*
G01X167200Y-377500D02*
Y-372167D01*
G01Y-373100D02*
X166767Y-372567D01*
X166117Y-372300D01*
X165358Y-372167D01*
X164600Y-372433D01*
X163950Y-372967D01*
X163517Y-373767D01*
X163300Y-374833D01*
X163517Y-375900D01*
X163950Y-376700D01*
X164600Y-377233D01*
X165358Y-377500D01*
X166117Y-377367D01*
X166767Y-376967D01*
X167200Y-376434D01*
G01X172750Y-369500D02*
Y-377500D01*
G01X171233Y-372167D02*
X174267D01*
G01X180250Y-369500D02*
Y-377500D01*
G01X178733Y-372167D02*
X181767D01*
G01X186125Y-373900D02*
X189592D01*
X189267Y-372967D01*
X188725Y-372433D01*
X187967Y-372167D01*
X187208Y-372300D01*
X186558Y-372700D01*
X186125Y-373633D01*
X185908Y-374434D01*
Y-375233D01*
X186125Y-376033D01*
X186667Y-376833D01*
X187317Y-377367D01*
X188075Y-377500D01*
X188833Y-377233D01*
X189592Y-376434D01*
G01X193733Y-377500D02*
Y-372167D01*
G01Y-373233D02*
X194275Y-372700D01*
X194817Y-372300D01*
X195575Y-372167D01*
X196117Y-372300D01*
X196767Y-372700D01*
G01X200475Y-379900D02*
X201125Y-380167D01*
X201992Y-379900D01*
X202533Y-379367D01*
X202967Y-378700D01*
X203617Y-376567D01*
X205025Y-372167D01*
G01X201558D02*
X203617Y-376567D01*
G01X220133Y-370167D02*
X219483Y-369767D01*
X218725Y-369500D01*
X217858D01*
X216883Y-369900D01*
X216125Y-370567D01*
X215583Y-371367D01*
X215150Y-372700D01*
X215042Y-373900D01*
X215258Y-375100D01*
X215583Y-375900D01*
X216233Y-376700D01*
X216992Y-377233D01*
X217750Y-377500D01*
X218508D01*
X219267Y-377233D01*
X219917Y-376833D01*
X220458Y-376300D01*
G01X227200Y-377500D02*
Y-372167D01*
G01Y-373100D02*
X226767Y-372567D01*
X226117Y-372300D01*
X225358Y-372167D01*
X224600Y-372433D01*
X223950Y-372967D01*
X223517Y-373767D01*
X223300Y-374833D01*
X223517Y-375900D01*
X223950Y-376700D01*
X224600Y-377233D01*
X225358Y-377500D01*
X226117Y-377367D01*
X226767Y-376967D01*
X227200Y-376434D01*
G01X230800Y-380167D02*
Y-372167D01*
G01Y-373367D02*
X231342Y-372700D01*
X231883Y-372300D01*
X232750Y-372167D01*
X233508Y-372300D01*
X234267Y-372967D01*
X234592Y-373900D01*
X234700Y-374833D01*
X234592Y-375767D01*
X234267Y-376700D01*
X233617Y-377233D01*
X232750Y-377500D01*
X231992Y-377367D01*
X231233Y-376967D01*
X230800Y-376434D01*
G01X238625Y-373900D02*
X242092D01*
X241767Y-372967D01*
X241225Y-372433D01*
X240467Y-372167D01*
X239708Y-372300D01*
X239058Y-372700D01*
X238625Y-373633D01*
X238408Y-374434D01*
Y-375233D01*
X238625Y-376033D01*
X239167Y-376833D01*
X239817Y-377367D01*
X240575Y-377500D01*
X241333Y-377233D01*
X242092Y-376434D01*
G01X134167Y-341833D02*
X133167Y-341333D01*
X132000Y-341000D01*
X130667D01*
X129166Y-341500D01*
X128000Y-342333D01*
X127167Y-343333D01*
X126500Y-345000D01*
X126333Y-346500D01*
X126667Y-348000D01*
X127167Y-349000D01*
X128167Y-350000D01*
X129333Y-350667D01*
X130500Y-351000D01*
X131667D01*
X132833Y-350667D01*
X133833Y-350167D01*
X134667Y-349500D01*
G01X141500Y-344334D02*
Y-351000D01*
G01Y-341667D02*
X141167Y-341500D01*
Y-341167D01*
X141500Y-341000D01*
X141833Y-341167D01*
Y-341500D01*
X141500Y-341667D01*
G01X150167Y-351000D02*
Y-344334D01*
G01Y-345667D02*
X151000Y-345000D01*
X151833Y-344500D01*
X153000Y-344334D01*
X153833Y-344500D01*
X154833Y-345000D01*
G01X166167Y-345167D02*
X165000Y-344500D01*
X164000Y-344334D01*
X162667Y-344667D01*
X161667Y-345333D01*
X161000Y-346500D01*
X160833Y-347667D01*
X161000Y-348833D01*
X161667Y-349834D01*
X162667Y-350667D01*
X164000Y-351000D01*
X165167Y-350667D01*
X166167Y-350000D01*
G01X171667Y-344334D02*
Y-349000D01*
X172333Y-350167D01*
X173333Y-350833D01*
X174500Y-351000D01*
X175667Y-350833D01*
X176667Y-350167D01*
X177333Y-349000D01*
G01Y-351000D02*
Y-344334D01*
G01X185500D02*
Y-351000D01*
G01Y-341667D02*
X185167Y-341500D01*
Y-341167D01*
X185500Y-341000D01*
X185833Y-341167D01*
Y-341500D01*
X185500Y-341667D01*
G01X196500Y-341000D02*
Y-351000D01*
G01X194167Y-344334D02*
X198833D01*
G01X222167Y-341833D02*
X221167Y-341333D01*
X220000Y-341000D01*
X218667D01*
X217166Y-341500D01*
X216000Y-342333D01*
X215167Y-343333D01*
X214500Y-345000D01*
X214333Y-346500D01*
X214667Y-348000D01*
X215167Y-349000D01*
X216167Y-350000D01*
X217333Y-350667D01*
X218500Y-351000D01*
X219667D01*
X220833Y-350667D01*
X221833Y-350167D01*
X222667Y-349500D01*
G01X229500Y-351000D02*
X228500Y-350833D01*
X227500Y-350167D01*
X226833Y-349000D01*
X226500Y-347667D01*
X226833Y-346333D01*
X227500Y-345167D01*
X228500Y-344500D01*
X229500Y-344334D01*
X230500Y-344500D01*
X231500Y-345167D01*
X232167Y-346333D01*
X232333Y-347667D01*
X232167Y-349000D01*
X231500Y-350167D01*
X230500Y-350833D01*
X229500Y-351000D01*
G01X240500Y-351333D02*
X240167Y-351167D01*
Y-350833D01*
X240500Y-350667D01*
X240833Y-350833D01*
Y-351167D01*
X240500Y-351333D01*
G01X148500Y-397000D02*
X147166Y-397333D01*
X146167Y-398167D01*
X145500Y-399167D01*
X145000Y-400500D01*
X144833Y-402000D01*
X145000Y-403500D01*
X145500Y-404833D01*
X146167Y-405834D01*
X147166Y-406667D01*
X148500Y-407000D01*
X149833Y-406667D01*
X150833Y-405834D01*
X151500Y-404833D01*
X152000Y-403500D01*
X152167Y-402000D01*
X152000Y-400500D01*
X151500Y-399167D01*
X150833Y-398167D01*
X149833Y-397333D01*
X148500Y-397000D01*
G01X156333Y-398667D02*
X157333Y-397667D01*
X158500Y-397167D01*
X159833Y-397000D01*
X161500Y-397333D01*
X162667Y-398167D01*
X163000Y-399167D01*
X162833Y-400167D01*
X162167Y-401000D01*
X158833Y-402667D01*
X157333Y-403833D01*
X156333Y-405500D01*
X156000Y-407000D01*
X163000D01*
G01X167500Y-407333D02*
X173500Y-397000D01*
G01X181500D02*
X180166Y-397333D01*
X179167Y-398167D01*
X178500Y-399167D01*
X178000Y-400500D01*
X177833Y-402000D01*
X178000Y-403500D01*
X178500Y-404833D01*
X179167Y-405834D01*
X180166Y-406667D01*
X181500Y-407000D01*
X182833Y-406667D01*
X183833Y-405834D01*
X184500Y-404833D01*
X185000Y-403500D01*
X185167Y-402000D01*
X185000Y-400500D01*
X184500Y-399167D01*
X183833Y-398167D01*
X182833Y-397333D01*
X181500Y-397000D01*
G01X192500Y-407000D02*
X193667Y-406833D01*
X195000Y-406333D01*
X195833Y-405500D01*
X196167Y-404333D01*
X195833Y-403167D01*
X194833Y-402167D01*
X193333Y-401667D01*
X191667D01*
X190667Y-401333D01*
X189833Y-400500D01*
X189500Y-399333D01*
X190000Y-398167D01*
X191166Y-397333D01*
X192500Y-397000D01*
X193833Y-397333D01*
X195000Y-398167D01*
X195500Y-399333D01*
X195167Y-400500D01*
X194333Y-401333D01*
X193333Y-401667D01*
X191667D01*
X190167Y-402167D01*
X189167Y-403167D01*
X188833Y-404333D01*
X189167Y-405500D01*
X190000Y-406333D01*
X191333Y-406833D01*
X192500Y-407000D01*
G01X200500Y-407333D02*
X206500Y-397000D01*
G01X211333Y-398667D02*
X212333Y-397667D01*
X213500Y-397167D01*
X214833Y-397000D01*
X216500Y-397333D01*
X217667Y-398167D01*
X218000Y-399167D01*
X217833Y-400167D01*
X217167Y-401000D01*
X213833Y-402667D01*
X212333Y-403833D01*
X211333Y-405500D01*
X211000Y-407000D01*
X218000D01*
G01X225500Y-397000D02*
X224166Y-397333D01*
X223167Y-398167D01*
X222500Y-399167D01*
X222000Y-400500D01*
X221833Y-402000D01*
X222000Y-403500D01*
X222500Y-404833D01*
X223167Y-405834D01*
X224166Y-406667D01*
X225500Y-407000D01*
X226833Y-406667D01*
X227833Y-405834D01*
X228500Y-404833D01*
X229000Y-403500D01*
X229167Y-402000D01*
X229000Y-400500D01*
X228500Y-399167D01*
X227833Y-398167D01*
X226833Y-397333D01*
X225500Y-397000D01*
G01X236500Y-407000D02*
Y-397000D01*
X234500Y-399000D01*
G01Y-407000D02*
X238500D01*
G01X244333Y-398667D02*
X245333Y-397667D01*
X246500Y-397167D01*
X247833Y-397000D01*
X249500Y-397333D01*
X250667Y-398167D01*
X251000Y-399167D01*
X250833Y-400167D01*
X250167Y-401000D01*
X246833Y-402667D01*
X245333Y-403833D01*
X244333Y-405500D01*
X244000Y-407000D01*
X251000D01*
G01X159117Y-282733D02*
X159550Y-282333D01*
X159875Y-281667D01*
X160092Y-280733D01*
X159875Y-279933D01*
X159442Y-279400D01*
X158683Y-279000D01*
X155758D01*
Y-287000D01*
X159333D01*
X160092Y-286467D01*
X160525Y-285667D01*
X160742Y-284733D01*
X160525Y-283800D01*
X159875Y-283000D01*
X159117Y-282733D01*
X155758D01*
G01X163475Y-285934D02*
X164342Y-286600D01*
X165317Y-287000D01*
X166183D01*
X167050Y-286600D01*
X167700Y-285934D01*
X168025Y-285000D01*
X167808Y-284067D01*
X167267Y-283267D01*
X166292Y-282733D01*
X164992Y-282467D01*
X164233Y-281933D01*
X163908Y-281000D01*
X164125Y-280067D01*
X164667Y-279400D01*
X165425Y-279000D01*
X166183D01*
X166942Y-279267D01*
X167592Y-279933D01*
G01X171083Y-279000D02*
Y-287000D01*
X175417D01*
G01X178367D02*
Y-279000D01*
G01X182483D02*
X178367Y-283934D01*
G01X183133Y-287000D02*
X180208Y-281667D01*
G01X252083Y-377500D02*
Y-369500D01*
X254792D01*
X255658Y-369900D01*
X256200Y-370433D01*
X256417Y-371500D01*
X256200Y-372567D01*
X255550Y-373233D01*
X254792Y-373633D01*
X252083D01*
G01X254792D02*
X256417Y-377500D01*
G01X260125Y-373900D02*
X263592D01*
X263267Y-372967D01*
X262725Y-372433D01*
X261967Y-372167D01*
X261208Y-372300D01*
X260558Y-372700D01*
X260125Y-373633D01*
X259908Y-374434D01*
Y-375233D01*
X260125Y-376033D01*
X260667Y-376833D01*
X261317Y-377367D01*
X262075Y-377500D01*
X262833Y-377233D01*
X263592Y-376434D01*
G01X267300Y-372167D02*
X269250Y-377500D01*
X271200Y-372167D01*
G01X274042Y-377500D02*
X276750Y-369500D01*
X279458Y-377500D01*
G01X278483Y-374700D02*
X275017D01*
M02*
