<?xml version="1.0" encoding="UTF-8" standalone="no"?>
<!-- Created with Inkscape (http://www.inkscape.org/) -->

<svg
   xmlns:dc="http://purl.org/dc/elements/1.1/"
   xmlns:cc="http://creativecommons.org/ns#"
   xmlns:rdf="http://www.w3.org/1999/02/22-rdf-syntax-ns#"
   xmlns:svg="http://www.w3.org/2000/svg"
   xmlns="http://www.w3.org/2000/svg"
   xmlns:sodipodi="http://sodipodi.sourceforge.net/DTD/sodipodi-0.dtd"
   xmlns:inkscape="http://www.inkscape.org/namespaces/inkscape"
   width="744.09448819"
   height="1052.3622047"
   id="svg3080"
   version="1.1"
   inkscape:version="0.48.2 r9819"
   sodipodi:docname="yin-yang-silk-screen.svg"
   inkscape:export-filename="C:\Users\jon\Documents\GitHub\BoneClamp\logo\yin-yang-silk-screen.png"
   inkscape:export-xdpi="250.00999"
   inkscape:export-ydpi="250.00999">
  <defs
     id="defs3082" />
  <sodipodi:namedview
     id="base"
     pagecolor="#ffffff"
     bordercolor="#666666"
     borderopacity="1.0"
     inkscape:pageopacity="0.0"
     inkscape:pageshadow="2"
     inkscape:zoom="0.35"
     inkscape:cx="561.69512"
     inkscape:cy="696.10987"
     inkscape:document-units="px"
     inkscape:current-layer="layer1"
     showgrid="false"
     inkscape:window-width="1680"
     inkscape:window-height="988"
     inkscape:window-x="-8"
     inkscape:window-y="-8"
     inkscape:window-maximized="1" />
  <metadata
     id="metadata3085">
    <rdf:RDF>
      <cc:Work
         rdf:about="">
        <dc:format>image/svg+xml</dc:format>
        <dc:type
           rdf:resource="http://purl.org/dc/dcmitype/StillImage" />
        <dc:title></dc:title>
      </cc:Work>
    </rdf:RDF>
  </metadata>
  <g
     inkscape:label="Layer 1"
     inkscape:groupmode="layer"
     id="layer1">
    <g
       id="g3057"
       transform="translate(201.28571,110.79075)"
       inkscape:export-xdpi="250.00999"
       inkscape:export-ydpi="250.00999">
      <circle
         id="circle3041"
         r="231"
         cy="233"
         cx="233"
         sodipodi:cx="233"
         sodipodi:cy="233"
         sodipodi:rx="231"
         sodipodi:ry="231"
         d="M 464,233 C 464,360.57778 360.57778,464 233,464 105.42222,464 2,360.57778 2,233 2,105.42222 105.42222,2 233,2 360.57778,2 464,105.42222 464,233 z" />
      <path
         id="path3043"
         d="m 233,459 a 226,226 0 0 1 0,-452 113,113 0 0 1 0,226 z"
         inkscape:connector-curvature="0"
         style="fill:#ffffff" />
      <circle
         id="circle3045"
         r="113"
         cy="346"
         cx="233"
         sodipodi:cx="233"
         sodipodi:cy="346"
         sodipodi:rx="113"
         sodipodi:ry="113"
         style="fill:#000000"
         d="m 346,346 c 0,62.40818 -50.59182,113 -113,113 -62.40818,0 -113,-50.59182 -113,-113 0,-62.40818 50.59182,-113 113,-113 62.40818,0 113,50.59182 113,113 z" />
      <circle
         id="circle3047"
         r="30"
         cy="120"
         cx="233"
         sodipodi:cx="233"
         sodipodi:cy="120"
         sodipodi:rx="30"
         sodipodi:ry="30"
         d="m 263,120 c 0,16.56854 -13.43146,30 -30,30 -16.56854,0 -30,-13.43146 -30,-30 0,-16.56854 13.43146,-30 30,-30 16.56854,0 30,13.43146 30,30 z" />
      <circle
         id="circle3049"
         r="30"
         cy="346"
         cx="233"
         sodipodi:cx="233"
         sodipodi:cy="346"
         sodipodi:rx="30"
         sodipodi:ry="30"
         style="fill:#ffffff"
         d="m 263,346 c 0,16.56854 -13.43146,30 -30,30 -16.56854,0 -30,-13.43146 -30,-30 0,-16.56854 13.43146,-30 30,-30 16.56854,0 30,13.43146 30,30 z" />
    </g>
    <g
       transform="matrix(-0.00196611,-1.1252789,1.1252789,-0.00196611,23.741906,429.01764)"
       style="font-size:8px;font-style:normal;font-variant:normal;font-weight:normal;font-stretch:normal;line-height:125%;letter-spacing:0px;word-spacing:0px;fill:#000000;fill-opacity:1;stroke:none;font-family:Arial;-inkscape-font-specification:Arial"
       id="text3238">
      <path
         d="m 93.274977,134.65558 8.852103,-44.949137 16.95558,3.339163 c 2.98431,0.587766 5.23527,1.179695 6.75288,1.77579 2.1351,0.802726 3.84711,1.867129 5.13604,3.193211 1.28884,1.326153 2.20492,3.008833 2.74826,5.048043 0.54324,2.03927 0.5955,4.1729 0.15676,6.40092 -0.75281,3.82243 -2.60607,6.81765 -5.55978,8.98567 -2.95378,2.16805 -7.60919,2.6261 -13.96622,1.37416 l -11.52856,-2.27039 -3.598813,18.274 z m 10.591683,-22.40694 11.62055,2.2885 c 3.84282,0.75682 6.71255,0.5788 8.60918,-0.53405 1.89657,-1.11282 3.10049,-2.96722 3.61177,-5.56321 0.37031,-1.88052 0.21207,-3.58382 -0.47471,-5.1099 -0.68687,-1.52602 -1.76475,-2.65665 -3.23368,-3.391873 -0.94929,-0.462946 -2.77301,-0.960119 -5.47115,-1.491522 l -11.49791,-2.264351 z"
         style="font-size:64px"
         id="path2994"
         inkscape:connector-curvature="0" />
      <path
         d="m 154.64362,151.5375 1.73996,-4.55392 c -3.75164,2.58098 -7.70006,3.07957 -11.84527,1.49577 -1.82937,-0.69897 -3.40324,-1.70175 -4.72163,-3.00836 -1.31841,-1.30662 -2.15934,-2.6371 -2.52281,-3.99144 -0.36347,-1.35434 -0.40719,-2.85972 -0.13114,-4.51613 0.18002,-1.11323 0.69758,-2.78886 1.55269,-5.02691 l 7.33906,-19.20819 5.25452,2.00765 -6.56946,17.19396 c -1.04845,2.74403 -1.6478,4.63374 -1.79807,5.66912 -0.19711,1.50816 0.0889,2.8608 0.85819,4.05794 0.7692,1.19715 1.94199,2.09686 3.51836,2.69916 1.57634,0.60229 3.20968,0.76358 4.90002,0.48388 1.69031,-0.2797 3.08835,-1.00561 4.19413,-2.17773 1.10573,-1.17212 2.16424,-3.08154 3.17553,-5.72827 l 6.34638,-16.61012 5.25452,2.00764 -11.8451,31.00168 z"
         style="font-size:64px"
         id="path2996"
         inkscape:connector-curvature="0" />
      <path
         d="m 165.12509,158.9873 4.33961,3.42567 c -0.6408,1.57783 -0.70116,2.9602 -0.18108,4.14713 0.69255,1.59805 2.08698,2.99826 4.18332,4.20064 2.25896,1.29563 4.26202,1.84408 6.00918,1.64534 1.74712,-0.19877 3.30399,-0.98699 4.6706,-2.36467 0.82307,-0.84885 2.13772,-2.86877 3.94395,-6.05976 -3.57326,1.28887 -6.95019,1.02118 -10.13081,-0.80309 -3.95773,-2.26999 -6.20205,-5.45457 -6.73295,-9.55373 -0.53092,-4.09917 0.34898,-8.14569 2.6397,-12.13956 1.5755,-2.7469 3.5262,-4.99642 5.85209,-6.74858 2.32586,-1.75212 4.79583,-2.71912 7.40992,-2.901 2.61405,-0.18184 5.19514,0.45798 7.74329,1.91945 3.39747,1.94868 5.41084,4.92875 6.04012,8.9402 l 1.99012,-3.46979 4.49988,2.58094 -14.27291,24.88487 c -2.5706,4.48179 -4.8486,7.39619 -6.834,8.74319 -1.98545,1.34697 -4.27855,1.99512 -6.8793,1.94446 -2.60079,-0.0507 -5.34692,-0.90526 -8.2384,-2.56368 -3.43364,-1.96941 -5.76455,-4.33304 -6.99272,-7.09089 -1.22818,-2.75788 -0.91471,-5.67026 0.94039,-8.73714 z m 13.95857,-14.97808 c -2.16635,3.77701 -2.99706,6.96311 -2.49215,9.55831 0.50488,2.59521 1.88682,4.54064 4.14581,5.83629 2.24088,1.28528 4.61529,1.50034 7.12322,0.64517 2.50788,-0.85519 4.81909,-3.1261 6.93362,-6.81274 2.02118,-3.524 2.76327,-6.62885 2.22625,-9.31455 -0.53709,-2.68569 -1.908,-4.66082 -4.11272,-5.92539 -2.16865,-1.24381 -4.51727,-1.42006 -7.04589,-0.52876 -2.52866,0.89134 -4.78804,3.07189 -6.77814,6.54167 z"
         style="font-size:64px"
         id="path2998"
         inkscape:connector-curvature="0" />
      <path
         d="m 195.45425,176.92385 3.75849,4.05477 c -0.87679,1.45993 -1.14992,2.8164 -0.81938,4.06941 0.43743,1.68583 1.5989,3.28459 3.48439,4.7963 2.03176,1.62896 3.92609,2.48018 5.68298,2.55365 1.75686,0.0734 3.41678,-0.46489 4.97976,-1.61498 0.94429,-0.71156 2.55512,-2.50421 4.83249,-5.37796 -3.72944,0.72156 -7.02451,-0.0645 -9.88524,-2.35804 -3.55968,-2.85398 -5.28525,-6.34696 -5.17671,-10.47894 0.10852,-4.13198 1.6028,-7.99405 4.48284,-11.58624 1.98083,-2.47062 4.25553,-4.3919 6.82412,-5.76383 2.56855,-1.37189 5.15823,-1.94583 7.76905,-1.72182 2.61076,0.22405 5.06207,1.25481 7.35395,3.09229 3.05575,2.45 4.58473,5.70525 4.58694,9.76576 l 2.50211,-3.12081 4.0473,3.24493 -17.94484,22.38203 c -3.23192,4.03102 -5.93268,6.55864 -8.10229,7.58286 -2.16965,1.02418 -4.53534,1.31042 -7.09707,0.85871 -2.56175,-0.45176 -5.14296,-1.72018 -7.74363,-3.80525 -3.08829,-2.47606 -5.0262,-5.17132 -5.81372,-8.08576 -0.78752,-2.91447 -0.028,-5.74349 2.27846,-8.48708 z m 16.10428,-12.64265 c -2.72366,3.39713 -4.03647,6.41671 -3.93841,9.05876 0.098,2.64204 1.16293,4.77755 3.19472,6.40654 2.0155,1.61593 4.32821,2.19511 6.93812,1.73752 2.60987,-0.45761 5.24406,-2.34434 7.90258,-5.66019 2.54118,-3.16957 3.75386,-6.12256 3.63806,-8.85898 -0.11587,-2.73642 -1.16529,-4.89956 -3.14827,-6.48946 -1.95053,-1.56381 -4.24376,-2.10066 -6.87969,-1.61057 -2.63598,0.49013 -5.20501,2.29558 -7.70711,5.41638 z"
         style="font-size:64px"
         id="path3000"
         inkscape:connector-curvature="0" />
      <path
         d="m 225.01413,198.40608 32.3425,-32.44608 3.98383,3.97111 -32.3425,32.44608 z"
         style="font-size:64px"
         id="path3002"
         inkscape:connector-curvature="0" />
      <path
         d="m 257.88919,219.45209 3.09262,4.97368 c -3.21789,1.42031 -6.33498,1.75508 -9.35128,1.00432 -3.01634,-0.7508 -5.73523,-2.62546 -8.15666,-5.62397 -3.04973,-3.77654 -4.30496,-7.71014 -3.7657,-11.80082 0.53924,-4.09069 2.90783,-7.83104 7.10579,-11.22108 4.34379,-3.50782 8.61825,-5.11194 12.82336,-4.81237 4.20507,0.2996 7.74739,2.23229 10.62699,5.7981 2.78789,3.45237 3.89027,7.22155 3.30711,11.30756 -0.58324,4.086 -3.00622,7.8502 -7.26896,11.29259 -0.25936,0.20941 -0.6549,0.51544 -1.18663,0.91809 L 249.5662,202.03276 c -2.70557,2.45265 -4.22957,5.00887 -4.57202,7.66868 -0.34247,2.65979 0.35672,5.06755 2.09756,7.22325 1.29578,1.60461 2.82321,2.6339 4.58228,3.08787 1.75904,0.45394 3.83075,0.26712 6.21517,-0.56047 z m -4.52842,-20.08194 11.64259,14.41726 c 2.01481,-1.94842 3.19872,-3.81494 3.55173,-5.59955 0.55998,-2.75516 -0.0566,-5.24301 -1.84975,-7.46354 -1.62306,-2.00982 -3.66022,-3.15634 -6.11149,-3.43957 -2.45133,-0.28321 -4.86235,0.41192 -7.23308,2.0854 z"
         style="font-size:64px"
         id="path3004"
         inkscape:connector-curvature="0" />
      <path
         d="m 257.62517,236.92377 39.98384,-22.36242 8.38972,15.00076 c 1.7084,3.0547 2.67416,5.73109 2.89727,8.02918 0.223,2.29807 -0.21405,4.4402 -1.31116,6.42638 -1.09722,1.98616 -2.56403,3.4928 -4.40043,4.51992 -1.70923,0.9559 -3.57772,1.39223 -5.60548,1.30898 -2.02784,-0.0833 -4.02912,-0.802 -6.00385,-2.15617 0.64336,2.8149 0.47403,5.35034 -0.508,7.60635 -0.98211,2.25596 -2.63683,4.03479 -4.96419,5.33649 -1.87285,1.04742 -3.83503,1.62566 -5.88654,1.73473 -2.05157,0.109 -3.83914,-0.17426 -5.36273,-0.84979 -1.52363,-0.6756 -2.99884,-1.76612 -4.42564,-3.27158 -1.42684,-1.50551 -2.8521,-3.53104 -4.2758,-6.0766 z m 26.14228,-7.67475 4.83553,8.64589 c 1.31181,2.34556 2.40703,3.94103 3.28565,4.78639 1.15252,1.12178 2.38313,1.76429 3.69184,1.92752 1.30863,0.1632 2.663,-0.14671 4.06311,-0.92974 1.32729,-0.74238 2.31757,-1.71395 2.97083,-2.91474 0.65317,-1.2008 0.83564,-2.49637 0.54743,-3.88672 -0.28831,-1.39035 -1.23582,-3.52196 -2.84253,-6.39483 l -4.46944,-7.99131 z m -18.46457,10.32698 5.56772,9.95505 c 0.9559,1.70916 1.69072,2.87362 2.20445,3.4934 0.89952,1.09619 1.83266,1.91104 2.79942,2.44454 0.96671,0.53346 2.08393,0.79182 3.35164,0.77508 1.26766,-0.0168 2.5379,-0.38109 3.81072,-1.09292 1.49095,-0.83391 2.57291,-1.94032 3.24589,-3.31922 0.67291,-1.37894 0.85331,-2.87028 0.5412,-4.47402 -0.31217,-1.60378 -1.1801,-3.67845 -2.60378,-6.22402 l -5.17111,-9.24593 z"
         style="font-size:64px"
         id="path3006"
         inkscape:connector-curvature="0" />
      <path
         d="m 292.32682,266.82807 c 5.79477,-2.04736 10.65593,-1.95305 14.58351,0.28295 3.26869,1.87219 5.58666,4.74316 6.95392,8.6129 1.51987,4.30188 1.35276,8.316 -0.50133,12.04236 -1.85417,3.72632 -5.26612,6.46743 -10.23585,8.22333 -4.02691,1.42272 -7.40781,1.93779 -10.14271,1.54523 -2.73493,-0.39262 -5.14853,-1.5174 -7.24081,-3.37436 -2.0923,-1.857 -3.62079,-4.1507 -4.58548,-6.8811 -1.54767,-4.38048 -1.39414,-8.41742 0.46058,-12.11082 1.85471,-3.69341 5.4241,-6.47357 10.70817,-8.34049 z m 1.92591,5.45102 c -4.00726,1.41581 -6.69894,3.35005 -8.07504,5.80275 -1.37613,2.45268 -1.59573,5.00494 -0.65879,7.65681 0.92998,2.63219 2.70562,4.46847 5.32693,5.50885 2.62129,1.04033 5.98466,0.83526 10.09014,-0.61523 3.86972,-1.36724 6.49091,-3.2821 7.86359,-5.7446 1.37262,-2.46252 1.59742,-5.00006 0.6744,-7.61261 -0.93696,-2.65186 -2.70625,-4.50143 -5.30788,-5.54873 -2.60168,-1.04729 -5.90613,-0.86304 -9.91335,0.55276 z"
         style="font-size:64px"
         id="path3008"
         inkscape:connector-curvature="0" />
      <path
         d="m 296.61755,328.70149 c -2.12193,-1.72442 -3.71752,-3.46725 -4.78677,-5.22849 -1.06925,-1.76127 -1.80578,-3.72745 -2.20958,-5.89853 -0.66667,-3.58438 -0.30344,-6.50207 1.08969,-8.75309 1.39312,-2.25103 3.45173,-3.62988 6.17586,-4.13654 1.59759,-0.29714 3.12455,-0.20501 4.5809,0.27639 1.45631,0.4814 2.6934,1.23667 3.71127,2.26582 1.01782,1.02915 1.86871,2.24298 2.55266,3.64151 0.48863,1.0322 1.0699,2.61934 1.7438,4.76141 1.36298,4.36603 2.60935,7.5353 3.73911,9.50783 0.76162,-0.12049 1.24485,-0.19977 1.4497,-0.23784 2.253,-0.41907 3.74322,-1.2366 4.47066,-2.45259 0.98651,-1.64566 1.22074,-3.86126 0.70268,-6.64681 -0.48384,-2.60123 -1.2967,-4.43666 -2.4386,-5.5063 -1.14195,-1.06965 -2.92539,-1.68622 -5.35031,-1.84972 l -0.26836,-5.54441 c 2.40588,0.0611 4.42534,0.52252 6.0584,1.38427 1.63299,0.86175 3.03164,2.28627 4.19594,4.27355 1.16423,1.98727 2.00731,4.38393 2.52925,7.18999 0.51805,2.78555 0.61129,5.10976 0.27971,6.97266 -0.33166,1.86286 -0.91796,3.29632 -1.75893,4.30039 -0.84103,1.00402 -1.98889,1.81085 -3.44358,2.42049 -0.90792,0.35955 -2.59079,0.76791 -5.04861,1.22507 l -7.37355,1.37143 c -5.14101,0.95615 -8.37064,1.67868 -9.68887,2.16759 -1.31826,0.48884 -2.53733,1.19767 -3.6572,2.12647 l -1.07428,-5.77595 c 1.04032,-0.78685 2.31333,-1.40505 3.81901,-1.8546 z m 12.26498,-2.75798 c -1.19263,-1.85488 -2.44902,-4.73622 -3.76916,-8.64402 -0.75059,-2.21257 -1.41831,-3.75184 -2.00317,-4.61782 -0.5849,-0.86599 -1.31923,-1.48168 -2.20302,-1.84705 -0.88381,-0.3654 -1.80703,-0.45857 -2.76968,-0.27951 -1.47472,0.27427 -2.59983,1.06098 -3.37535,2.36012 -0.77552,1.29912 -0.96329,3.02399 -0.56328,5.17462 0.39618,2.13012 1.21453,3.93804 2.45504,5.42378 1.24049,1.48569 2.74216,2.46723 4.50502,2.94462 1.35987,0.36158 3.25849,0.31571 5.69588,-0.13759 z"
         style="font-size:64px"
         id="path3010"
         inkscape:connector-curvature="0" />
      <path
         d="m 294.18483,343.27514 33.12899,-1.96981 0.30048,5.05358 -5.02238,0.29862 c 2.42665,1.14966 4.04679,2.24814 4.86042,3.29545 0.81356,1.0473 1.25931,2.22604 1.33724,3.53624 0.11249,1.89248 -0.37623,3.85202 -1.46616,5.87864 l -5.32455,-1.62433 c 0.72943,-1.42082 1.05335,-2.81751 0.97177,-4.19007 -0.073,-1.22701 -0.50766,-2.30728 -1.30403,-3.24081 -0.79642,-0.93355 -1.86208,-1.56934 -3.19697,-1.90736 -2.03359,-0.5052 -4.23578,-0.68731 -6.60658,-0.54634 l -17.34436,1.03128 z"
         style="font-size:64px"
         id="path3012"
         inkscape:connector-curvature="0" />
      <path
         d="m 293.99816,386.19828 4.17901,0.2666 c -3.15102,-2.30949 -4.59655,-5.50175 -4.33657,-9.57677 0.16845,-2.64048 1.051,-5.02141 2.64764,-7.1428 1.59663,-2.12141 3.73838,-3.70701 6.42526,-4.75682 2.68687,-1.04982 5.72477,-1.46662 9.11373,-1.25041 3.30576,0.21089 6.26972,0.95319 8.89188,2.22689 2.62212,1.27369 4.58018,3.05822 5.87419,5.35361 1.29396,2.29536 1.85407,4.80486 1.68034,7.5285 -0.12737,1.99593 -0.66179,3.7467 -1.60328,5.25233 -0.94155,1.50559 -2.11919,2.70387 -3.53292,3.59486 l 16.40415,1.04654 -0.35614,5.5824 -45.71955,-2.91677 z m 17.66099,-16.69068 c -4.24139,-0.2706 -7.46906,0.42114 -9.68302,2.07521 -2.21397,1.65405 -3.39855,3.69736 -3.55374,6.12993 -0.15652,2.45333 0.71368,4.60163 2.61059,6.44491 1.8969,1.84324 4.90367,2.89618 9.02031,3.15884 4.53243,0.28913 7.91471,-0.37187 10.14684,-1.983 2.23208,-1.61118 3.42971,-3.69541 3.59288,-6.25269 0.15914,-2.49494 -0.72664,-4.64424 -2.65737,-6.44789 -1.93077,-1.80368 -5.0896,-2.84545 -9.47649,-3.12531 z"
         style="font-size:64px"
         id="path3014"
         inkscape:connector-curvature="0" />
    </g>
  </g>
</svg>
