G75*
%MOIN*%
%OFA0B0*%
%FSLAX24Y24*%
%IPPOS*%
%LPD*%
%AMOC8*
5,1,8,0,0,1.08239X$1,22.5*
%
%ADD10R,0.0591X0.0591*%
%ADD11C,0.0591*%
%ADD12OC8,0.1005*%
%ADD13R,0.0420X0.0350*%
%ADD14R,0.0350X0.0420*%
%ADD15OC8,0.0660*%
%ADD16R,0.0220X0.0500*%
%ADD17R,0.0220X0.0780*%
%ADD18C,0.0270*%
%ADD19C,0.0100*%
%ADD20C,0.0160*%
%ADD21C,0.0531*%
%ADD22C,0.0240*%
%ADD23C,0.0070*%
%ADD24C,0.0180*%
D10*
X005946Y008000D03*
X019196Y003250D03*
X024946Y008000D03*
D11*
X024946Y009000D03*
X024946Y010000D03*
X024946Y011000D03*
X024946Y012000D03*
X024946Y013000D03*
X024946Y014000D03*
X024946Y015000D03*
X024946Y016000D03*
X024946Y017000D03*
X024946Y018000D03*
X024946Y019000D03*
X024946Y020000D03*
X024946Y021000D03*
X024946Y022000D03*
X024946Y023000D03*
X024946Y024000D03*
X024946Y025000D03*
X024946Y026000D03*
X024946Y027000D03*
X024946Y028000D03*
X024946Y029000D03*
X024946Y030000D03*
X023946Y030000D03*
X023946Y029000D03*
X023946Y028000D03*
X023946Y027000D03*
X023946Y026000D03*
X023946Y025000D03*
X023946Y024000D03*
X023946Y023000D03*
X023946Y022000D03*
X023946Y021000D03*
X023946Y020000D03*
X023946Y019000D03*
X023946Y018000D03*
X023946Y017000D03*
X023946Y016000D03*
X023946Y015000D03*
X023946Y014000D03*
X023946Y013000D03*
X023946Y012000D03*
X023946Y011000D03*
X023946Y010000D03*
X023946Y009000D03*
X023946Y008000D03*
X019196Y007250D03*
X019196Y006250D03*
X018196Y006250D03*
X018196Y007250D03*
X018196Y005250D03*
X018196Y004250D03*
X018196Y003250D03*
X019196Y004250D03*
X019196Y005250D03*
X005946Y009000D03*
X005946Y010000D03*
X004946Y010000D03*
X004946Y009000D03*
X004946Y008000D03*
X004946Y011000D03*
X004946Y012000D03*
X004946Y013000D03*
X004946Y014000D03*
X004946Y015000D03*
X004946Y016000D03*
X004946Y017000D03*
X004946Y018000D03*
X004946Y019000D03*
X004946Y020000D03*
X004946Y021000D03*
X004946Y022000D03*
X004946Y023000D03*
X004946Y024000D03*
X004946Y025000D03*
X004946Y026000D03*
X004946Y027000D03*
X004946Y028000D03*
X004946Y029000D03*
X004946Y030000D03*
X005946Y030000D03*
X005946Y029000D03*
X005946Y028000D03*
X005946Y027000D03*
X005946Y026000D03*
X005946Y025000D03*
X005946Y024000D03*
X005946Y023000D03*
X005946Y022000D03*
X005946Y021000D03*
X005946Y020000D03*
X005946Y019000D03*
X005946Y018000D03*
X005946Y017000D03*
X005946Y016000D03*
X005946Y015000D03*
X005946Y014000D03*
X005946Y013000D03*
X005946Y012000D03*
X005946Y011000D03*
D12*
X018146Y001200D03*
X019296Y001200D03*
X004896Y031500D03*
X004896Y032650D03*
X004896Y033800D03*
D13*
X007496Y030640D03*
X007496Y029960D03*
X007496Y029240D03*
X007496Y028560D03*
X009996Y028560D03*
X009996Y029240D03*
X009996Y029960D03*
X009996Y030640D03*
X011996Y030590D03*
X011996Y029910D03*
X011996Y029190D03*
X011996Y028510D03*
X014496Y028510D03*
X014496Y029190D03*
X014496Y029910D03*
X014496Y030590D03*
X015471Y024690D03*
X015471Y024010D03*
X016071Y024010D03*
X016071Y024690D03*
X019896Y026560D03*
X019896Y027240D03*
X020396Y024440D03*
X020396Y023760D03*
X021846Y026610D03*
X022446Y026610D03*
X022446Y027290D03*
X021846Y027290D03*
X021846Y028660D03*
X021846Y029340D03*
X022446Y029340D03*
X022446Y028660D03*
X022446Y030710D03*
X021846Y030710D03*
X021846Y031390D03*
X022446Y031390D03*
X022446Y032810D03*
X021846Y032810D03*
X021846Y033490D03*
X022446Y033490D03*
D14*
X022036Y022300D03*
X022036Y021700D03*
X021356Y021700D03*
X021356Y022300D03*
X019036Y021800D03*
X019036Y021200D03*
X018356Y021200D03*
X018356Y021800D03*
X017136Y021850D03*
X017136Y021250D03*
X016456Y021250D03*
X016456Y021850D03*
D15*
X017896Y028050D03*
X017896Y029050D03*
X017896Y030050D03*
X018896Y030050D03*
X018896Y029050D03*
X018896Y028050D03*
X013396Y032700D03*
X013396Y033700D03*
X012396Y033700D03*
X012396Y032700D03*
X011396Y032700D03*
X010396Y032700D03*
X010396Y033700D03*
X011396Y033700D03*
X009396Y033700D03*
X009396Y032700D03*
X008396Y032700D03*
X008396Y033700D03*
X007396Y033700D03*
X007396Y032700D03*
D16*
X020476Y032590D03*
X020846Y032590D03*
X021216Y032590D03*
X021216Y033610D03*
X020476Y033610D03*
X020476Y031560D03*
X021216Y031560D03*
X021216Y030540D03*
X020846Y030540D03*
X020476Y030540D03*
X020476Y029510D03*
X021216Y029510D03*
X021216Y028490D03*
X020846Y028490D03*
X020476Y028490D03*
X020476Y027460D03*
X020476Y026440D03*
X020846Y026440D03*
X021216Y026440D03*
X021216Y027460D03*
D17*
X021446Y025070D03*
X020946Y025070D03*
X021946Y025070D03*
X022446Y025070D03*
X022446Y023130D03*
X021946Y023130D03*
X021446Y023130D03*
X020946Y023130D03*
D18*
X004696Y003450D03*
X004696Y004050D03*
X004696Y004650D03*
X004696Y005250D03*
X004696Y005850D03*
X004696Y006450D03*
X006846Y006550D03*
X007796Y005200D03*
X007646Y003650D03*
X009146Y003650D03*
X009646Y005550D03*
X010096Y005500D03*
X015746Y010000D03*
X018846Y010200D03*
X018846Y010550D03*
X018996Y009850D03*
X019396Y009850D03*
X019996Y010750D03*
X020746Y010750D03*
X021146Y009750D03*
X021946Y009700D03*
X021946Y010300D03*
X021946Y010850D03*
X021946Y011350D03*
X021946Y011900D03*
X022046Y012800D03*
X021546Y012800D03*
X021046Y012800D03*
X020796Y012450D03*
X020796Y012100D03*
X020796Y011750D03*
X020546Y012800D03*
X020046Y012800D03*
X019396Y012550D03*
X019046Y012550D03*
X018846Y012250D03*
X018846Y011900D03*
X019746Y018050D03*
X019846Y019500D03*
X019446Y020900D03*
X019446Y021600D03*
X020146Y021150D03*
X020146Y022750D03*
X019846Y023400D03*
X019846Y024050D03*
X019746Y024950D03*
X018946Y023800D03*
X018396Y022300D03*
X017946Y021850D03*
X017596Y021850D03*
X016996Y022300D03*
X015996Y021700D03*
X015996Y021350D03*
X014646Y022750D03*
X014496Y020950D03*
X012346Y020000D03*
X012296Y018950D03*
X012296Y018550D03*
X012296Y018150D03*
X012296Y017750D03*
X011696Y015600D03*
X011696Y015200D03*
X011396Y015400D03*
X011096Y015600D03*
X011096Y015200D03*
X010596Y014500D03*
X009496Y014500D03*
X008696Y015200D03*
X008396Y015400D03*
X008096Y015600D03*
X008096Y015200D03*
X008696Y015600D03*
X007596Y014500D03*
X009296Y017700D03*
X009296Y018100D03*
X009296Y018500D03*
X009296Y018900D03*
X009596Y019650D03*
X008096Y019750D03*
X008296Y021450D03*
X009196Y022050D03*
X009296Y022900D03*
X008096Y023650D03*
X007346Y023250D03*
X006646Y024300D03*
X007696Y024800D03*
X008396Y024800D03*
X009096Y024800D03*
X009796Y024800D03*
X010796Y025250D03*
X010396Y023300D03*
X011446Y022400D03*
X011646Y021250D03*
X012196Y024800D03*
X012896Y024800D03*
X013596Y024800D03*
X014296Y024800D03*
X014946Y024800D03*
X014846Y026150D03*
X014146Y026900D03*
X014353Y027374D03*
X014496Y028100D03*
X013796Y028350D03*
X013796Y029550D03*
X013846Y030700D03*
X014496Y031000D03*
X014928Y031150D03*
X015196Y031700D03*
X015196Y030300D03*
X014928Y028782D03*
X016146Y025750D03*
X016646Y024750D03*
X016646Y024300D03*
X017846Y024400D03*
X017846Y024950D03*
X021346Y021100D03*
X022046Y021150D03*
X021946Y024450D03*
X022596Y024450D03*
X022446Y026200D03*
X021846Y026200D03*
X022296Y027700D03*
X022446Y028250D03*
X021846Y028250D03*
X022446Y029750D03*
X022446Y030300D03*
X021846Y030300D03*
X022446Y031800D03*
X022446Y032400D03*
X021846Y032350D03*
X022896Y033150D03*
X019446Y032900D03*
X019446Y032450D03*
X018896Y032000D03*
X018396Y032000D03*
X018046Y032000D03*
X017296Y032450D03*
X017296Y032900D03*
X018046Y033250D03*
X018396Y033500D03*
X018696Y033250D03*
X016046Y033050D03*
X014396Y033050D03*
X012646Y030700D03*
X011996Y031000D03*
X012396Y031700D03*
X011296Y030300D03*
X010428Y030318D03*
X010396Y030950D03*
X010846Y031850D03*
X009346Y030750D03*
X009296Y029600D03*
X009296Y028450D03*
X009771Y027474D03*
X009996Y028150D03*
X011546Y028800D03*
X011996Y028100D03*
X012139Y027374D03*
X012346Y026900D03*
X012696Y028350D03*
X012696Y029550D03*
X008196Y029600D03*
X008196Y028450D03*
X007496Y028150D03*
X007696Y027450D03*
X007096Y030350D03*
X007096Y030950D03*
X006646Y031850D03*
X008146Y030750D03*
X007146Y022050D03*
X012496Y014500D03*
X021246Y001100D03*
X024446Y012500D03*
X025296Y012500D03*
X024446Y019500D03*
D19*
X025196Y019500D01*
X025446Y019750D01*
X025446Y022376D01*
X025358Y022588D02*
X024946Y023000D01*
X025358Y022588D02*
X025381Y022563D01*
X025400Y022536D01*
X025416Y022506D01*
X025429Y022475D01*
X025438Y022443D01*
X025444Y022410D01*
X025446Y022376D01*
X023446Y018874D02*
X023448Y018840D01*
X023454Y018807D01*
X023463Y018775D01*
X023476Y018744D01*
X023492Y018714D01*
X023511Y018687D01*
X023534Y018662D01*
X023558Y018638D01*
X023246Y018424D02*
X023248Y018390D01*
X023254Y018357D01*
X023263Y018325D01*
X023276Y018294D01*
X023292Y018264D01*
X023311Y018237D01*
X023334Y018212D01*
X023458Y018088D01*
X023046Y017924D02*
X023048Y017890D01*
X023054Y017857D01*
X023063Y017825D01*
X023076Y017794D01*
X023092Y017764D01*
X023111Y017737D01*
X023134Y017712D01*
X023258Y017588D01*
X023470Y017500D02*
X024472Y017500D01*
X024684Y017588D02*
X024858Y017762D01*
X024946Y017974D02*
X024946Y018000D01*
X025446Y018200D02*
X025096Y018550D01*
X023770Y018550D01*
X023458Y018088D02*
X023483Y018065D01*
X023510Y018046D01*
X023540Y018030D01*
X023571Y018017D01*
X023603Y018008D01*
X023636Y018002D01*
X023670Y018000D01*
X023946Y018000D01*
X023470Y017500D02*
X023436Y017502D01*
X023403Y017508D01*
X023371Y017517D01*
X023340Y017530D01*
X023310Y017546D01*
X023283Y017565D01*
X023258Y017588D01*
X023046Y017924D02*
X023046Y029576D01*
X022958Y029788D02*
X022834Y029912D01*
X022622Y030000D02*
X022020Y030000D01*
X021808Y029912D02*
X021494Y029598D01*
X021282Y029510D02*
X021216Y029510D01*
X021282Y029510D02*
X021316Y029512D01*
X021349Y029518D01*
X021381Y029527D01*
X021412Y029540D01*
X021442Y029556D01*
X021469Y029575D01*
X021494Y029598D01*
X021808Y029912D02*
X021833Y029935D01*
X021860Y029954D01*
X021890Y029970D01*
X021921Y029983D01*
X021953Y029992D01*
X021986Y029998D01*
X022020Y030000D01*
X022622Y030000D02*
X022656Y029998D01*
X022689Y029992D01*
X022721Y029983D01*
X022752Y029970D01*
X022782Y029954D01*
X022809Y029935D01*
X022834Y029912D01*
X022958Y029788D02*
X022981Y029763D01*
X023000Y029736D01*
X023016Y029706D01*
X023029Y029675D01*
X023038Y029643D01*
X023044Y029610D01*
X023046Y029576D01*
X022422Y027950D02*
X022020Y027950D01*
X021808Y027862D02*
X021494Y027548D01*
X021282Y027460D02*
X021216Y027460D01*
X021282Y027460D02*
X021316Y027462D01*
X021349Y027468D01*
X021381Y027477D01*
X021412Y027490D01*
X021442Y027506D01*
X021469Y027525D01*
X021494Y027548D01*
X021808Y027862D02*
X021833Y027885D01*
X021860Y027904D01*
X021890Y027920D01*
X021921Y027933D01*
X021953Y027942D01*
X021986Y027948D01*
X022020Y027950D01*
X022422Y027950D02*
X022456Y027948D01*
X022489Y027942D01*
X022521Y027933D01*
X022552Y027920D01*
X022582Y027904D01*
X022609Y027885D01*
X022634Y027862D01*
X022758Y027738D01*
X022846Y027526D02*
X022846Y016424D01*
X022934Y016212D02*
X023058Y016088D01*
X023270Y016000D02*
X023946Y016000D01*
X023270Y016000D02*
X023236Y016002D01*
X023203Y016008D01*
X023171Y016017D01*
X023140Y016030D01*
X023110Y016046D01*
X023083Y016065D01*
X023058Y016088D01*
X022934Y016212D02*
X022911Y016237D01*
X022892Y016264D01*
X022876Y016294D01*
X022863Y016325D01*
X022854Y016357D01*
X022848Y016390D01*
X022846Y016424D01*
X023246Y018424D02*
X023246Y031676D01*
X023158Y031888D02*
X023034Y032012D01*
X022822Y032100D02*
X022070Y032100D01*
X021858Y032012D02*
X021494Y031648D01*
X021282Y031560D02*
X021216Y031560D01*
X021282Y031560D02*
X021316Y031562D01*
X021349Y031568D01*
X021381Y031577D01*
X021412Y031590D01*
X021442Y031606D01*
X021469Y031625D01*
X021494Y031648D01*
X021858Y032012D02*
X021883Y032035D01*
X021910Y032054D01*
X021940Y032070D01*
X021971Y032083D01*
X022003Y032092D01*
X022036Y032098D01*
X022070Y032100D01*
X022822Y032100D02*
X022856Y032098D01*
X022889Y032092D01*
X022921Y032083D01*
X022952Y032070D01*
X022982Y032054D01*
X023009Y032035D01*
X023034Y032012D01*
X023158Y031888D02*
X023181Y031863D01*
X023200Y031836D01*
X023216Y031806D01*
X023229Y031775D01*
X023238Y031743D01*
X023244Y031710D01*
X023246Y031676D01*
X023446Y032979D02*
X023444Y033013D01*
X023438Y033046D01*
X023429Y033078D01*
X023416Y033109D01*
X023400Y033139D01*
X023381Y033166D01*
X023358Y033191D01*
X022767Y033782D01*
X022555Y033870D02*
X021490Y033870D01*
X021278Y033782D02*
X021216Y033720D01*
X021216Y033610D01*
X021278Y033782D02*
X021303Y033805D01*
X021330Y033824D01*
X021360Y033840D01*
X021391Y033853D01*
X021423Y033862D01*
X021456Y033868D01*
X021490Y033870D01*
X022555Y033870D02*
X022589Y033868D01*
X022622Y033862D01*
X022654Y033853D01*
X022685Y033840D01*
X022715Y033824D01*
X022742Y033805D01*
X022767Y033782D01*
X023446Y032979D02*
X023446Y018874D01*
X023558Y018638D02*
X023583Y018615D01*
X023610Y018596D01*
X023640Y018580D01*
X023671Y018567D01*
X023703Y018558D01*
X023736Y018552D01*
X023770Y018550D01*
X024472Y017500D02*
X024506Y017502D01*
X024539Y017508D01*
X024571Y017517D01*
X024602Y017530D01*
X024632Y017546D01*
X024659Y017565D01*
X024684Y017588D01*
X024858Y017762D02*
X024881Y017787D01*
X024900Y017814D01*
X024916Y017844D01*
X024929Y017875D01*
X024938Y017907D01*
X024944Y017940D01*
X024946Y017974D01*
X025446Y018200D02*
X025446Y016624D01*
X025358Y016412D02*
X024946Y016000D01*
X025358Y016412D02*
X025381Y016437D01*
X025400Y016464D01*
X025416Y016494D01*
X025429Y016525D01*
X025438Y016557D01*
X025444Y016590D01*
X025446Y016624D01*
X025296Y012500D02*
X025296Y012400D01*
X025446Y012250D01*
X025446Y007200D01*
X024846Y006600D01*
X020646Y006600D01*
X018496Y008750D01*
X010346Y008750D01*
X010096Y008500D01*
X010096Y005500D01*
X009796Y005200D01*
X007796Y005200D01*
X009646Y005550D02*
X009846Y005750D01*
X009846Y008600D01*
X010246Y009000D01*
X018546Y009000D01*
X020746Y006800D01*
X023896Y006800D01*
X024446Y007350D01*
X024446Y012500D01*
X019846Y019500D02*
X019846Y022076D01*
X019758Y022288D02*
X018734Y023312D01*
X018834Y023512D02*
X018809Y023535D01*
X018782Y023554D01*
X018752Y023570D01*
X018721Y023583D01*
X018689Y023592D01*
X018656Y023598D01*
X018622Y023600D01*
X018420Y023600D01*
X018270Y023400D02*
X018236Y023402D01*
X018203Y023408D01*
X018171Y023417D01*
X018140Y023430D01*
X018110Y023446D01*
X018083Y023465D01*
X018058Y023488D01*
X017934Y023612D01*
X017846Y023824D02*
X017846Y024400D01*
X018146Y024526D02*
X018144Y024560D01*
X018138Y024593D01*
X018129Y024625D01*
X018116Y024656D01*
X018100Y024686D01*
X018081Y024713D01*
X018058Y024738D01*
X017846Y024950D01*
X017675Y025125D02*
X013436Y025125D01*
X013436Y025027D02*
X013503Y025027D01*
X013547Y025045D02*
X013457Y025008D01*
X013436Y024986D01*
X013436Y025360D01*
X015625Y025360D01*
X015825Y025560D01*
X015990Y025560D01*
X016007Y025542D01*
X016097Y025505D01*
X016195Y025505D01*
X016285Y025542D01*
X016354Y025611D01*
X016391Y025701D01*
X016391Y025799D01*
X016354Y025889D01*
X016285Y025958D01*
X016195Y025995D01*
X016097Y025995D01*
X016007Y025958D01*
X015990Y025940D01*
X015667Y025940D01*
X015556Y025829D01*
X015467Y025740D01*
X013436Y025740D01*
X013436Y028484D01*
X013480Y028440D01*
X013551Y028369D01*
X013551Y028301D01*
X013588Y028211D01*
X013657Y028142D01*
X013747Y028105D01*
X013845Y028105D01*
X013935Y028142D01*
X014004Y028211D01*
X014041Y028301D01*
X014041Y028399D01*
X014004Y028489D01*
X013935Y028558D01*
X013845Y028595D01*
X013777Y028595D01*
X013706Y028666D01*
X013706Y030334D01*
X013827Y030455D01*
X013895Y030455D01*
X013985Y030492D01*
X014054Y030561D01*
X014091Y030651D01*
X014091Y030749D01*
X014054Y030839D01*
X013985Y030908D01*
X013895Y030945D01*
X013797Y030945D01*
X013707Y030908D01*
X013638Y030839D01*
X013601Y030749D01*
X013601Y030681D01*
X013436Y030516D01*
X013436Y031471D01*
X013475Y031510D01*
X013849Y031510D01*
X013961Y031621D01*
X014586Y032247D01*
X014586Y032894D01*
X014604Y032911D01*
X014641Y033001D01*
X014641Y033099D01*
X014604Y033189D01*
X014535Y033258D01*
X014445Y033295D01*
X014347Y033295D01*
X014257Y033258D01*
X014188Y033189D01*
X014151Y033099D01*
X014151Y033001D01*
X014188Y032911D01*
X014206Y032894D01*
X014206Y032404D01*
X013692Y031890D01*
X013317Y031890D01*
X013246Y031819D01*
X013175Y031890D01*
X012553Y031890D01*
X012535Y031908D01*
X012445Y031945D01*
X012347Y031945D01*
X012257Y031908D01*
X012188Y031839D01*
X012151Y031749D01*
X012151Y031651D01*
X012188Y031561D01*
X012257Y031492D01*
X012347Y031455D01*
X012445Y031455D01*
X012535Y031492D01*
X012553Y031510D01*
X013017Y031510D01*
X013056Y031471D01*
X013056Y030516D01*
X013012Y030560D01*
X012891Y030681D01*
X012891Y030749D01*
X012854Y030839D01*
X012785Y030908D01*
X012695Y030945D01*
X012597Y030945D01*
X012507Y030908D01*
X012438Y030839D01*
X012401Y030749D01*
X012401Y030651D01*
X012438Y030561D01*
X012507Y030492D01*
X012597Y030455D01*
X012665Y030455D01*
X012786Y030334D01*
X012786Y029778D01*
X012745Y029795D01*
X012647Y029795D01*
X012557Y029758D01*
X012540Y029740D01*
X012316Y029740D01*
X012316Y030131D01*
X012252Y030195D01*
X011741Y030195D01*
X011706Y030161D01*
X011706Y030339D01*
X011741Y030305D01*
X012252Y030305D01*
X012316Y030369D01*
X012316Y030811D01*
X012252Y030875D01*
X012226Y030875D01*
X012226Y030915D01*
X012241Y030951D01*
X012241Y031049D01*
X012226Y031085D01*
X012226Y031095D01*
X012219Y031103D01*
X012204Y031139D01*
X012135Y031208D01*
X012099Y031223D01*
X012091Y031230D01*
X012081Y031230D01*
X012045Y031245D01*
X011947Y031245D01*
X011911Y031230D01*
X011901Y031230D01*
X011894Y031223D01*
X011857Y031208D01*
X011788Y031139D01*
X011773Y031103D01*
X011766Y031095D01*
X011766Y031085D01*
X011751Y031049D01*
X011751Y030951D01*
X011766Y030915D01*
X011766Y030875D01*
X011741Y030875D01*
X011706Y030841D01*
X011706Y031784D01*
X012198Y032276D01*
X012214Y032260D01*
X012578Y032260D01*
X012836Y032518D01*
X012836Y032882D01*
X012578Y033140D01*
X012214Y033140D01*
X011956Y032882D01*
X011956Y032518D01*
X011972Y032502D01*
X011386Y031916D01*
X011386Y030528D01*
X011345Y030545D01*
X011247Y030545D01*
X011157Y030508D01*
X011088Y030439D01*
X011051Y030349D01*
X011051Y030251D01*
X011088Y030161D01*
X011136Y030114D01*
X011136Y028151D01*
X011894Y027393D01*
X011894Y027326D01*
X011931Y027236D01*
X012000Y027167D01*
X012090Y027129D01*
X012188Y027129D01*
X012278Y027167D01*
X012347Y027236D01*
X012384Y027326D01*
X012384Y027423D01*
X012347Y027513D01*
X012278Y027582D01*
X012188Y027619D01*
X012120Y027619D01*
X011456Y028283D01*
X011456Y028572D01*
X011497Y028555D01*
X011595Y028555D01*
X011676Y028589D01*
X011676Y028289D01*
X011741Y028225D01*
X011766Y028225D01*
X011766Y028185D01*
X011751Y028149D01*
X011751Y028051D01*
X011766Y028015D01*
X011766Y028005D01*
X011773Y027997D01*
X011788Y027961D01*
X011857Y027892D01*
X011894Y027877D01*
X011901Y027870D01*
X011911Y027870D01*
X011947Y027855D01*
X012045Y027855D01*
X012081Y027870D01*
X012091Y027870D01*
X012099Y027877D01*
X012135Y027892D01*
X012204Y027961D01*
X012219Y027997D01*
X012226Y028005D01*
X012226Y028015D01*
X012241Y028051D01*
X012241Y028149D01*
X012226Y028185D01*
X012226Y028225D01*
X012252Y028225D01*
X012316Y028289D01*
X012316Y028731D01*
X012252Y028795D01*
X011791Y028795D01*
X011791Y028849D01*
X011768Y028905D01*
X012252Y028905D01*
X012316Y028969D01*
X012316Y029360D01*
X012540Y029360D01*
X012557Y029342D01*
X012647Y029305D01*
X012745Y029305D01*
X012786Y029322D01*
X012786Y028666D01*
X012715Y028595D01*
X012647Y028595D01*
X012557Y028558D01*
X012488Y028489D01*
X012451Y028399D01*
X012451Y028301D01*
X012488Y028211D01*
X012557Y028142D01*
X012647Y028105D01*
X012745Y028105D01*
X012835Y028142D01*
X012904Y028211D01*
X012941Y028301D01*
X012941Y028369D01*
X013056Y028484D01*
X013056Y024986D01*
X013035Y025008D01*
X012945Y025045D01*
X012847Y025045D01*
X012757Y025008D01*
X012688Y024939D01*
X012651Y024849D01*
X012651Y024751D01*
X012688Y024661D01*
X012757Y024592D01*
X012847Y024555D01*
X012945Y024555D01*
X013035Y024592D01*
X013056Y024614D01*
X013056Y024071D01*
X014401Y022726D01*
X014401Y022701D01*
X014438Y022611D01*
X014456Y022594D01*
X014456Y021682D01*
X014214Y021440D01*
X011803Y021440D01*
X011785Y021458D01*
X011695Y021495D01*
X011597Y021495D01*
X011507Y021458D01*
X011490Y021440D01*
X008575Y021440D01*
X008541Y021474D01*
X008541Y021499D01*
X008504Y021589D01*
X008435Y021658D01*
X008345Y021695D01*
X008247Y021695D01*
X008157Y021658D01*
X008088Y021589D01*
X008051Y021499D01*
X008051Y021401D01*
X008088Y021311D01*
X008157Y021242D01*
X008247Y021205D01*
X008272Y021205D01*
X008417Y021060D01*
X011490Y021060D01*
X011507Y021042D01*
X011597Y021005D01*
X011695Y021005D01*
X011785Y021042D01*
X011803Y021060D01*
X014277Y021060D01*
X014251Y020999D01*
X014251Y020901D01*
X014288Y020811D01*
X014357Y020742D01*
X014447Y020705D01*
X014545Y020705D01*
X014635Y020742D01*
X014704Y020811D01*
X014741Y020901D01*
X014741Y020999D01*
X014704Y021089D01*
X014635Y021158D01*
X014545Y021195D01*
X014506Y021195D01*
X014725Y021414D01*
X014836Y021525D01*
X014836Y022594D01*
X014854Y022611D01*
X014891Y022701D01*
X014891Y022799D01*
X014854Y022889D01*
X014785Y022958D01*
X014695Y022995D01*
X014670Y022995D01*
X013436Y024229D01*
X013436Y024614D01*
X013457Y024592D01*
X013547Y024555D01*
X013645Y024555D01*
X013735Y024592D01*
X013804Y024661D01*
X013841Y024751D01*
X013841Y024849D01*
X013804Y024939D01*
X013735Y025008D01*
X013645Y025045D01*
X013547Y025045D01*
X013689Y025027D02*
X014203Y025027D01*
X014247Y025045D02*
X014157Y025008D01*
X014088Y024939D01*
X014051Y024849D01*
X014051Y024751D01*
X014088Y024661D01*
X014157Y024592D01*
X014247Y024555D01*
X014345Y024555D01*
X014435Y024592D01*
X014504Y024661D01*
X014541Y024751D01*
X014541Y024849D01*
X014504Y024939D01*
X014435Y025008D01*
X014345Y025045D01*
X014247Y025045D01*
X014389Y025027D02*
X014853Y025027D01*
X014897Y025045D02*
X014807Y025008D01*
X014738Y024939D01*
X014701Y024849D01*
X014701Y024751D01*
X014738Y024661D01*
X014807Y024592D01*
X014897Y024555D01*
X014995Y024555D01*
X015014Y024563D01*
X015067Y024510D01*
X015151Y024510D01*
X015151Y024469D01*
X015216Y024405D01*
X015727Y024405D01*
X015771Y024449D01*
X015816Y024405D01*
X016327Y024405D01*
X016391Y024469D01*
X016391Y024911D01*
X016327Y024975D01*
X015816Y024975D01*
X015771Y024931D01*
X015727Y024975D01*
X015216Y024975D01*
X015178Y024937D01*
X015125Y024990D01*
X015103Y024990D01*
X015085Y025008D01*
X014995Y025045D01*
X014897Y025045D01*
X015039Y025027D02*
X017613Y025027D01*
X017601Y024999D02*
X017601Y024901D01*
X017638Y024811D01*
X017696Y024754D01*
X017696Y024596D01*
X017638Y024539D01*
X017601Y024449D01*
X017601Y024351D01*
X017638Y024261D01*
X017686Y024214D01*
X017686Y023733D01*
X017696Y023709D01*
X017696Y022074D01*
X017645Y022095D01*
X017547Y022095D01*
X017457Y022058D01*
X017440Y022040D01*
X017421Y022040D01*
X017421Y022106D01*
X017357Y022170D01*
X017208Y022170D01*
X017696Y022170D01*
X017696Y022269D02*
X017241Y022269D01*
X017241Y022251D02*
X017241Y022349D01*
X017204Y022439D01*
X017135Y022508D01*
X017045Y022545D01*
X016947Y022545D01*
X016857Y022508D01*
X016788Y022439D01*
X016751Y022349D01*
X016751Y022251D01*
X016788Y022161D01*
X016851Y022099D01*
X016851Y021594D01*
X016896Y021550D01*
X016851Y021506D01*
X016851Y020994D01*
X016916Y020930D01*
X017357Y020930D01*
X017421Y020994D01*
X017421Y021110D01*
X017469Y021110D01*
X017483Y021125D01*
X017496Y021127D01*
X017496Y019650D01*
X016996Y019150D01*
X013896Y019150D01*
X013396Y018650D01*
X013396Y011500D01*
X006346Y011500D01*
X006346Y011907D01*
X006351Y011919D01*
X006351Y012081D01*
X006346Y012093D01*
X006346Y012907D01*
X006351Y012919D01*
X006351Y013081D01*
X006346Y013093D01*
X006346Y013907D01*
X006351Y013919D01*
X006351Y014081D01*
X006346Y014093D01*
X013396Y014093D01*
X013396Y013995D02*
X006351Y013995D01*
X006346Y014093D02*
X006346Y014907D01*
X006351Y014919D01*
X006351Y015081D01*
X006346Y015093D01*
X006346Y015907D01*
X006351Y015919D01*
X006351Y016081D01*
X006346Y016093D01*
X006346Y016907D01*
X006351Y016919D01*
X006351Y017081D01*
X006346Y017093D01*
X006346Y017907D01*
X006351Y017919D01*
X006351Y018081D01*
X006346Y018093D01*
X006346Y018907D01*
X006351Y018919D01*
X006351Y019081D01*
X006346Y019093D01*
X006346Y019907D01*
X006351Y019919D01*
X006351Y020081D01*
X006346Y020093D01*
X006346Y020907D01*
X006351Y020919D01*
X006351Y021081D01*
X006346Y021093D01*
X006346Y021907D01*
X006351Y021919D01*
X006351Y022081D01*
X006346Y022093D01*
X006346Y022907D01*
X006351Y022919D01*
X006351Y023081D01*
X006346Y023093D01*
X006346Y023907D01*
X006351Y023919D01*
X006351Y024081D01*
X006346Y024093D01*
X006346Y024907D01*
X006351Y024919D01*
X006351Y025081D01*
X006346Y025093D01*
X006346Y025907D01*
X006351Y025919D01*
X006351Y026081D01*
X006346Y026093D01*
X006346Y026907D01*
X006351Y026919D01*
X006351Y027081D01*
X006346Y027093D01*
X006346Y027907D01*
X006351Y027919D01*
X006351Y028081D01*
X006346Y028093D01*
X006346Y028907D01*
X006351Y028919D01*
X006351Y029081D01*
X006346Y029093D01*
X006346Y029907D01*
X006351Y029919D01*
X006351Y030081D01*
X006346Y030093D01*
X006346Y030500D01*
X004421Y030500D01*
X004421Y032259D01*
X004642Y032038D01*
X005150Y032038D01*
X005509Y032396D01*
X005509Y032904D01*
X005187Y033225D01*
X005509Y033546D01*
X005509Y034054D01*
X005287Y034275D01*
X016196Y034275D01*
X016196Y033246D01*
X016185Y033258D01*
X016095Y033295D01*
X015997Y033295D01*
X015907Y033258D01*
X015838Y033189D01*
X015801Y033099D01*
X015801Y033001D01*
X015838Y032911D01*
X015907Y032842D01*
X015997Y032805D01*
X016095Y032805D01*
X016185Y032842D01*
X016196Y032854D01*
X016196Y027350D01*
X017696Y025850D01*
X017696Y025146D01*
X017638Y025089D01*
X017601Y024999D01*
X017601Y024928D02*
X016815Y024928D01*
X016785Y024958D02*
X016695Y024995D01*
X016597Y024995D01*
X016507Y024958D01*
X016438Y024889D01*
X016401Y024799D01*
X016401Y024701D01*
X016438Y024611D01*
X016507Y024542D01*
X016549Y024525D01*
X016507Y024508D01*
X016438Y024439D01*
X016401Y024349D01*
X016401Y024251D01*
X016422Y024200D01*
X016391Y024200D01*
X016391Y024231D01*
X016327Y024295D01*
X015816Y024295D01*
X015771Y024251D01*
X015727Y024295D01*
X015216Y024295D01*
X015151Y024231D01*
X015151Y023789D01*
X015216Y023725D01*
X015727Y023725D01*
X015771Y023769D01*
X015816Y023725D01*
X016327Y023725D01*
X016391Y023789D01*
X016391Y023820D01*
X016635Y023820D01*
X016725Y023910D01*
X016836Y024021D01*
X016836Y024144D01*
X016854Y024161D01*
X016891Y024251D01*
X016891Y024349D01*
X016854Y024439D01*
X016785Y024508D01*
X016743Y024525D01*
X016785Y024542D01*
X016854Y024611D01*
X016891Y024701D01*
X016891Y024799D01*
X016854Y024889D01*
X016785Y024958D01*
X016878Y024830D02*
X017631Y024830D01*
X017696Y024731D02*
X016891Y024731D01*
X016863Y024633D02*
X017696Y024633D01*
X017637Y024534D02*
X016765Y024534D01*
X016855Y024436D02*
X017601Y024436D01*
X017607Y024337D02*
X016891Y024337D01*
X016886Y024239D02*
X017661Y024239D01*
X017686Y024140D02*
X016836Y024140D01*
X016836Y024042D02*
X017686Y024042D01*
X017686Y023943D02*
X016758Y023943D01*
X016659Y023845D02*
X017686Y023845D01*
X017686Y023746D02*
X016348Y023746D01*
X016383Y024239D02*
X016406Y024239D01*
X016401Y024337D02*
X013436Y024337D01*
X013436Y024239D02*
X015159Y024239D01*
X015151Y024140D02*
X013525Y024140D01*
X013623Y024042D02*
X015151Y024042D01*
X015151Y023943D02*
X013722Y023943D01*
X013820Y023845D02*
X015151Y023845D01*
X015195Y023746D02*
X013919Y023746D01*
X014017Y023648D02*
X017696Y023648D01*
X017696Y023549D02*
X014116Y023549D01*
X014214Y023451D02*
X017696Y023451D01*
X017696Y023352D02*
X014313Y023352D01*
X014411Y023254D02*
X017696Y023254D01*
X017696Y023155D02*
X014510Y023155D01*
X014608Y023057D02*
X017696Y023057D01*
X017696Y022958D02*
X014784Y022958D01*
X014866Y022860D02*
X017696Y022860D01*
X017696Y022761D02*
X014891Y022761D01*
X014875Y022663D02*
X017696Y022663D01*
X017696Y022564D02*
X014836Y022564D01*
X014836Y022466D02*
X016815Y022466D01*
X016759Y022367D02*
X014836Y022367D01*
X014836Y022269D02*
X016751Y022269D01*
X016785Y022170D02*
X014836Y022170D01*
X014836Y022072D02*
X016171Y022072D01*
X016171Y022040D02*
X016171Y022106D01*
X016236Y022170D01*
X016677Y022170D01*
X016741Y022106D01*
X016741Y021594D01*
X016697Y021550D01*
X016741Y021506D01*
X016741Y020994D01*
X016677Y020930D01*
X016236Y020930D01*
X016171Y020994D01*
X016171Y021110D01*
X016057Y021110D01*
X016045Y021105D01*
X015947Y021105D01*
X015857Y021142D01*
X015788Y021211D01*
X015751Y021301D01*
X015751Y021399D01*
X015788Y021489D01*
X015825Y021525D01*
X015788Y021561D01*
X015751Y021651D01*
X015751Y021749D01*
X015788Y021839D01*
X015857Y021908D01*
X015947Y021945D01*
X015972Y021945D01*
X016067Y022040D01*
X016171Y022040D01*
X016001Y021973D02*
X014836Y021973D01*
X014836Y021875D02*
X015824Y021875D01*
X015762Y021776D02*
X014836Y021776D01*
X014836Y021678D02*
X015751Y021678D01*
X015781Y021579D02*
X014836Y021579D01*
X014792Y021481D02*
X015785Y021481D01*
X015751Y021382D02*
X014693Y021382D01*
X014595Y021284D02*
X015759Y021284D01*
X015815Y021185D02*
X014569Y021185D01*
X014705Y021087D02*
X016171Y021087D01*
X016178Y020988D02*
X014741Y020988D01*
X014736Y020890D02*
X017496Y020890D01*
X017496Y020988D02*
X017415Y020988D01*
X017421Y021087D02*
X017496Y021087D01*
X017496Y020791D02*
X014684Y020791D01*
X014309Y020791D02*
X006346Y020791D01*
X006346Y020693D02*
X017496Y020693D01*
X017496Y020594D02*
X006346Y020594D01*
X006346Y020496D02*
X017496Y020496D01*
X017496Y020397D02*
X006346Y020397D01*
X006346Y020299D02*
X017496Y020299D01*
X017496Y020200D02*
X012493Y020200D01*
X012485Y020208D02*
X012395Y020245D01*
X012297Y020245D01*
X012207Y020208D01*
X012138Y020139D01*
X012101Y020049D01*
X012101Y019951D01*
X012138Y019861D01*
X012207Y019792D01*
X012297Y019755D01*
X012395Y019755D01*
X012485Y019792D01*
X012554Y019861D01*
X012591Y019951D01*
X012591Y020049D01*
X012554Y020139D01*
X012485Y020208D01*
X012569Y020102D02*
X017496Y020102D01*
X017496Y020003D02*
X012591Y020003D01*
X012572Y019905D02*
X017496Y019905D01*
X017496Y019806D02*
X012499Y019806D01*
X012200Y020200D02*
X006346Y020200D01*
X006346Y020102D02*
X012123Y020102D01*
X012101Y020003D02*
X006351Y020003D01*
X006346Y019905D02*
X007904Y019905D01*
X007888Y019889D02*
X007851Y019799D01*
X007851Y019701D01*
X007888Y019611D01*
X007957Y019542D01*
X008047Y019505D01*
X008145Y019505D01*
X008235Y019542D01*
X008304Y019611D01*
X008341Y019701D01*
X008341Y019799D01*
X008304Y019889D01*
X008235Y019958D01*
X008145Y019995D01*
X008047Y019995D01*
X007957Y019958D01*
X007888Y019889D01*
X007854Y019806D02*
X006346Y019806D01*
X006346Y019708D02*
X007851Y019708D01*
X007891Y019609D02*
X006346Y019609D01*
X006346Y019511D02*
X008034Y019511D01*
X008158Y019511D02*
X009389Y019511D01*
X009388Y019511D02*
X009457Y019442D01*
X009547Y019405D01*
X009645Y019405D01*
X009735Y019442D01*
X009804Y019511D01*
X009841Y019601D01*
X009841Y019699D01*
X009804Y019789D01*
X009735Y019858D01*
X009645Y019895D01*
X009547Y019895D01*
X009457Y019858D01*
X009388Y019789D01*
X009351Y019699D01*
X009351Y019601D01*
X009388Y019511D01*
X009351Y019609D02*
X008302Y019609D01*
X008341Y019708D02*
X009355Y019708D01*
X009406Y019806D02*
X008338Y019806D01*
X008288Y019905D02*
X012121Y019905D01*
X012194Y019806D02*
X009787Y019806D01*
X009838Y019708D02*
X017496Y019708D01*
X017455Y019609D02*
X009841Y019609D01*
X009803Y019511D02*
X017357Y019511D01*
X017258Y019412D02*
X009662Y019412D01*
X009530Y019412D02*
X006346Y019412D01*
X006346Y019314D02*
X017160Y019314D01*
X017061Y019215D02*
X006346Y019215D01*
X006346Y019117D02*
X012116Y019117D01*
X012088Y019089D02*
X012051Y018999D01*
X012051Y018901D01*
X012088Y018811D01*
X012150Y018750D01*
X012088Y018689D01*
X012051Y018599D01*
X012051Y018501D01*
X012088Y018411D01*
X012150Y018350D01*
X012088Y018289D01*
X012051Y018199D01*
X012051Y018101D01*
X012088Y018011D01*
X012150Y017950D01*
X012088Y017889D01*
X012051Y017799D01*
X012051Y017701D01*
X012088Y017611D01*
X012157Y017542D01*
X012247Y017505D01*
X012345Y017505D01*
X012435Y017542D01*
X012504Y017611D01*
X012541Y017701D01*
X012541Y017799D01*
X012504Y017889D01*
X012443Y017950D01*
X012504Y018011D01*
X012541Y018101D01*
X012541Y018199D01*
X012504Y018289D01*
X012443Y018350D01*
X012504Y018411D01*
X012541Y018501D01*
X012541Y018599D01*
X012504Y018689D01*
X012443Y018750D01*
X012504Y018811D01*
X012541Y018901D01*
X012541Y018999D01*
X012504Y019089D01*
X012435Y019158D01*
X012345Y019195D01*
X012247Y019195D01*
X012157Y019158D01*
X012088Y019089D01*
X012059Y019018D02*
X006351Y019018D01*
X006351Y018920D02*
X012051Y018920D01*
X012084Y018821D02*
X006346Y018821D01*
X006346Y018723D02*
X012122Y018723D01*
X012062Y018624D02*
X006346Y018624D01*
X006346Y018526D02*
X012051Y018526D01*
X012082Y018427D02*
X006346Y018427D01*
X006346Y018329D02*
X012128Y018329D01*
X012064Y018230D02*
X006346Y018230D01*
X006346Y018132D02*
X012051Y018132D01*
X012079Y018033D02*
X006351Y018033D01*
X006351Y017935D02*
X012134Y017935D01*
X012067Y017836D02*
X006346Y017836D01*
X006346Y017738D02*
X012051Y017738D01*
X012077Y017639D02*
X006346Y017639D01*
X006346Y017541D02*
X012162Y017541D01*
X012431Y017541D02*
X013396Y017541D01*
X013396Y017639D02*
X012515Y017639D01*
X012541Y017738D02*
X013396Y017738D01*
X013396Y017836D02*
X012526Y017836D01*
X012458Y017935D02*
X013396Y017935D01*
X013396Y018033D02*
X012513Y018033D01*
X012541Y018132D02*
X013396Y018132D01*
X013396Y018230D02*
X012528Y018230D01*
X012464Y018329D02*
X013396Y018329D01*
X013396Y018427D02*
X012510Y018427D01*
X012541Y018526D02*
X013396Y018526D01*
X013396Y018624D02*
X012531Y018624D01*
X012470Y018723D02*
X013469Y018723D01*
X013567Y018821D02*
X012508Y018821D01*
X012541Y018920D02*
X013666Y018920D01*
X013764Y019018D02*
X012533Y019018D01*
X012476Y019117D02*
X013863Y019117D01*
X013396Y017442D02*
X006346Y017442D01*
X006346Y017344D02*
X013396Y017344D01*
X013396Y017245D02*
X006346Y017245D01*
X006346Y017147D02*
X013396Y017147D01*
X013396Y017048D02*
X006351Y017048D01*
X006351Y016950D02*
X013396Y016950D01*
X013396Y016851D02*
X006346Y016851D01*
X006346Y016753D02*
X013396Y016753D01*
X013396Y016654D02*
X006346Y016654D01*
X006346Y016556D02*
X013396Y016556D01*
X013396Y016457D02*
X006346Y016457D01*
X006346Y016359D02*
X013396Y016359D01*
X013396Y016260D02*
X006346Y016260D01*
X006346Y016162D02*
X013396Y016162D01*
X013396Y016063D02*
X006351Y016063D01*
X006351Y015965D02*
X013396Y015965D01*
X013396Y015866D02*
X006346Y015866D01*
X006346Y015768D02*
X007917Y015768D01*
X007888Y015739D02*
X007851Y015649D01*
X007851Y015551D01*
X007888Y015461D01*
X007950Y015400D01*
X007888Y015339D01*
X007851Y015249D01*
X007851Y015151D01*
X007888Y015061D01*
X007957Y014992D01*
X008047Y014955D01*
X008145Y014955D01*
X008235Y014992D01*
X008304Y015061D01*
X008341Y015151D01*
X008341Y015158D01*
X008347Y015155D01*
X008445Y015155D01*
X008451Y015158D01*
X008451Y015151D01*
X008488Y015061D01*
X008557Y014992D01*
X008647Y014955D01*
X008745Y014955D01*
X008835Y014992D01*
X008904Y015061D01*
X008941Y015151D01*
X008941Y015249D01*
X008904Y015339D01*
X008843Y015400D01*
X008904Y015461D01*
X008941Y015551D01*
X008941Y015649D01*
X008904Y015739D01*
X008835Y015808D01*
X008745Y015845D01*
X008647Y015845D01*
X008557Y015808D01*
X008488Y015739D01*
X008451Y015649D01*
X008451Y015642D01*
X008445Y015645D01*
X008347Y015645D01*
X008341Y015642D01*
X008341Y015649D01*
X008304Y015739D01*
X008235Y015808D01*
X008145Y015845D01*
X008047Y015845D01*
X007957Y015808D01*
X007888Y015739D01*
X007860Y015669D02*
X006346Y015669D01*
X006346Y015571D02*
X007851Y015571D01*
X007884Y015472D02*
X006346Y015472D01*
X006346Y015374D02*
X007923Y015374D01*
X007862Y015275D02*
X006346Y015275D01*
X006346Y015177D02*
X007851Y015177D01*
X007882Y015078D02*
X006351Y015078D01*
X006351Y014980D02*
X007988Y014980D01*
X008204Y014980D02*
X008588Y014980D01*
X008482Y015078D02*
X008311Y015078D01*
X008804Y014980D02*
X010988Y014980D01*
X010957Y014992D02*
X011047Y014955D01*
X011145Y014955D01*
X011235Y014992D01*
X011304Y015061D01*
X011341Y015151D01*
X011341Y015158D01*
X011347Y015155D01*
X011445Y015155D01*
X011451Y015158D01*
X011451Y015151D01*
X011488Y015061D01*
X011557Y014992D01*
X011647Y014955D01*
X011745Y014955D01*
X011835Y014992D01*
X011904Y015061D01*
X011941Y015151D01*
X011941Y015249D01*
X011904Y015339D01*
X011843Y015400D01*
X011904Y015461D01*
X011941Y015551D01*
X011941Y015649D01*
X011904Y015739D01*
X011835Y015808D01*
X011745Y015845D01*
X011647Y015845D01*
X011557Y015808D01*
X011488Y015739D01*
X011451Y015649D01*
X011451Y015642D01*
X011445Y015645D01*
X011347Y015645D01*
X011341Y015642D01*
X011341Y015649D01*
X011304Y015739D01*
X011235Y015808D01*
X011145Y015845D01*
X011047Y015845D01*
X010957Y015808D01*
X010888Y015739D01*
X010851Y015649D01*
X010851Y015551D01*
X010888Y015461D01*
X010950Y015400D01*
X010888Y015339D01*
X010851Y015249D01*
X010851Y015151D01*
X010888Y015061D01*
X010957Y014992D01*
X010882Y015078D02*
X008911Y015078D01*
X008941Y015177D02*
X010851Y015177D01*
X010862Y015275D02*
X008930Y015275D01*
X008869Y015374D02*
X010923Y015374D01*
X010884Y015472D02*
X008908Y015472D01*
X008941Y015571D02*
X010851Y015571D01*
X010860Y015669D02*
X008933Y015669D01*
X008875Y015768D02*
X010917Y015768D01*
X011275Y015768D02*
X011517Y015768D01*
X011460Y015669D02*
X011333Y015669D01*
X011875Y015768D02*
X013396Y015768D01*
X013396Y015669D02*
X011933Y015669D01*
X011941Y015571D02*
X013396Y015571D01*
X013396Y015472D02*
X011908Y015472D01*
X011869Y015374D02*
X013396Y015374D01*
X013396Y015275D02*
X011930Y015275D01*
X011941Y015177D02*
X013396Y015177D01*
X013396Y015078D02*
X011911Y015078D01*
X011804Y014980D02*
X013396Y014980D01*
X013396Y014881D02*
X006346Y014881D01*
X006346Y014783D02*
X013396Y014783D01*
X013396Y014684D02*
X012659Y014684D01*
X012635Y014708D02*
X012704Y014639D01*
X012741Y014549D01*
X012741Y014451D01*
X012704Y014361D01*
X012635Y014292D01*
X012545Y014255D01*
X012447Y014255D01*
X012357Y014292D01*
X012340Y014310D01*
X010753Y014310D01*
X010735Y014292D01*
X010645Y014255D01*
X010547Y014255D01*
X010457Y014292D01*
X010388Y014361D01*
X010351Y014451D01*
X010351Y014549D01*
X010388Y014639D01*
X010457Y014708D01*
X010547Y014745D01*
X010645Y014745D01*
X010735Y014708D01*
X010753Y014690D01*
X012340Y014690D01*
X012357Y014708D01*
X012447Y014745D01*
X012545Y014745D01*
X012635Y014708D01*
X012726Y014586D02*
X013396Y014586D01*
X013396Y014487D02*
X012741Y014487D01*
X012715Y014389D02*
X013396Y014389D01*
X013396Y014290D02*
X012629Y014290D01*
X012363Y014290D02*
X010729Y014290D01*
X010463Y014290D02*
X009629Y014290D01*
X009635Y014292D02*
X009704Y014361D01*
X009741Y014451D01*
X009741Y014549D01*
X009704Y014639D01*
X009635Y014708D01*
X009545Y014745D01*
X009447Y014745D01*
X009357Y014708D01*
X009350Y014700D01*
X007743Y014700D01*
X007735Y014708D01*
X007645Y014745D01*
X007547Y014745D01*
X007457Y014708D01*
X007388Y014639D01*
X007351Y014549D01*
X007351Y014451D01*
X007388Y014361D01*
X007457Y014292D01*
X007547Y014255D01*
X007645Y014255D01*
X007735Y014292D01*
X007743Y014300D01*
X009350Y014300D01*
X009357Y014292D01*
X009447Y014255D01*
X009545Y014255D01*
X009635Y014292D01*
X009715Y014389D02*
X010377Y014389D01*
X010351Y014487D02*
X009741Y014487D01*
X009726Y014586D02*
X010366Y014586D01*
X010434Y014684D02*
X009659Y014684D01*
X009363Y014290D02*
X007729Y014290D01*
X007463Y014290D02*
X006346Y014290D01*
X006346Y014192D02*
X013396Y014192D01*
X013396Y013896D02*
X006346Y013896D01*
X006346Y013798D02*
X013396Y013798D01*
X013396Y013699D02*
X006346Y013699D01*
X006346Y013601D02*
X013396Y013601D01*
X013396Y013502D02*
X006346Y013502D01*
X006346Y013404D02*
X013396Y013404D01*
X013396Y013305D02*
X006346Y013305D01*
X006346Y013207D02*
X013396Y013207D01*
X013396Y013108D02*
X006346Y013108D01*
X006351Y013010D02*
X013396Y013010D01*
X013396Y012911D02*
X006348Y012911D01*
X006346Y012813D02*
X013396Y012813D01*
X013396Y012714D02*
X006346Y012714D01*
X006346Y012616D02*
X013396Y012616D01*
X013396Y012517D02*
X006346Y012517D01*
X006346Y012419D02*
X013396Y012419D01*
X013396Y012320D02*
X006346Y012320D01*
X006346Y012222D02*
X013396Y012222D01*
X013396Y012123D02*
X006346Y012123D01*
X006351Y012025D02*
X013396Y012025D01*
X013396Y011926D02*
X006351Y011926D01*
X006346Y011828D02*
X013396Y011828D01*
X013396Y011729D02*
X006346Y011729D01*
X006346Y011631D02*
X013396Y011631D01*
X013396Y011532D02*
X006346Y011532D01*
X006346Y014389D02*
X007377Y014389D01*
X007351Y014487D02*
X006346Y014487D01*
X006346Y014586D02*
X007366Y014586D01*
X007434Y014684D02*
X006346Y014684D01*
X008275Y015768D02*
X008517Y015768D01*
X008460Y015669D02*
X008333Y015669D01*
X011204Y014980D02*
X011588Y014980D01*
X011482Y015078D02*
X011311Y015078D01*
X014256Y020890D02*
X006346Y020890D01*
X006351Y020988D02*
X014251Y020988D01*
X014254Y021481D02*
X011730Y021481D01*
X011563Y021481D02*
X008541Y021481D01*
X008508Y021579D02*
X014353Y021579D01*
X014451Y021678D02*
X008387Y021678D01*
X008205Y021678D02*
X006346Y021678D01*
X006346Y021776D02*
X014456Y021776D01*
X014456Y021875D02*
X009367Y021875D01*
X009335Y021842D02*
X009404Y021911D01*
X009441Y022001D01*
X009441Y022099D01*
X009404Y022189D01*
X009335Y022258D01*
X009245Y022295D01*
X009147Y022295D01*
X009057Y022258D01*
X008988Y022189D01*
X008951Y022099D01*
X008951Y022001D01*
X008988Y021911D01*
X009057Y021842D01*
X009147Y021805D01*
X009245Y021805D01*
X009335Y021842D01*
X009429Y021973D02*
X014456Y021973D01*
X014456Y022072D02*
X009441Y022072D01*
X009412Y022170D02*
X011361Y022170D01*
X011397Y022155D02*
X011495Y022155D01*
X011585Y022192D01*
X011654Y022261D01*
X011691Y022351D01*
X011691Y022449D01*
X011654Y022539D01*
X011585Y022608D01*
X011495Y022645D01*
X011397Y022645D01*
X011307Y022608D01*
X011238Y022539D01*
X011201Y022449D01*
X011201Y022351D01*
X011238Y022261D01*
X011307Y022192D01*
X011397Y022155D01*
X011531Y022170D02*
X014456Y022170D01*
X014456Y022269D02*
X011657Y022269D01*
X011691Y022367D02*
X014456Y022367D01*
X014456Y022466D02*
X011684Y022466D01*
X011629Y022564D02*
X014456Y022564D01*
X014417Y022663D02*
X009363Y022663D01*
X009345Y022655D02*
X009435Y022692D01*
X009504Y022761D01*
X009541Y022851D01*
X009541Y022949D01*
X009504Y023039D01*
X009435Y023108D01*
X009345Y023145D01*
X009247Y023145D01*
X009157Y023108D01*
X009088Y023039D01*
X009051Y022949D01*
X009051Y022851D01*
X009088Y022761D01*
X009157Y022692D01*
X009247Y022655D01*
X009345Y022655D01*
X009229Y022663D02*
X006346Y022663D01*
X006346Y022761D02*
X009089Y022761D01*
X009051Y022860D02*
X006346Y022860D01*
X006351Y022958D02*
X009055Y022958D01*
X009106Y023057D02*
X007499Y023057D01*
X007485Y023042D02*
X007554Y023111D01*
X007591Y023201D01*
X007591Y023299D01*
X007554Y023389D01*
X007485Y023458D01*
X007395Y023495D01*
X007297Y023495D01*
X007207Y023458D01*
X007138Y023389D01*
X007101Y023299D01*
X007101Y023201D01*
X007138Y023111D01*
X007207Y023042D01*
X007297Y023005D01*
X007395Y023005D01*
X007485Y023042D01*
X007572Y023155D02*
X010195Y023155D01*
X010188Y023161D02*
X010257Y023092D01*
X010347Y023055D01*
X010445Y023055D01*
X010535Y023092D01*
X010604Y023161D01*
X010641Y023251D01*
X010641Y023349D01*
X010604Y023439D01*
X010535Y023508D01*
X010445Y023545D01*
X010347Y023545D01*
X010257Y023508D01*
X010188Y023439D01*
X010151Y023349D01*
X010151Y023251D01*
X010188Y023161D01*
X010151Y023254D02*
X007591Y023254D01*
X007569Y023352D02*
X010153Y023352D01*
X010200Y023451D02*
X008243Y023451D01*
X008235Y023442D02*
X008304Y023511D01*
X008341Y023601D01*
X008341Y023699D01*
X008304Y023789D01*
X008235Y023858D01*
X008145Y023895D01*
X008047Y023895D01*
X007957Y023858D01*
X007888Y023789D01*
X007851Y023699D01*
X007851Y023601D01*
X007888Y023511D01*
X007957Y023442D01*
X008047Y023405D01*
X008145Y023405D01*
X008235Y023442D01*
X008320Y023549D02*
X013578Y023549D01*
X013480Y023648D02*
X008341Y023648D01*
X008322Y023746D02*
X013381Y023746D01*
X013283Y023845D02*
X008248Y023845D01*
X007944Y023845D02*
X006346Y023845D01*
X006351Y023943D02*
X013184Y023943D01*
X013086Y024042D02*
X006351Y024042D01*
X006346Y024140D02*
X006460Y024140D01*
X006438Y024161D02*
X006507Y024092D01*
X006597Y024055D01*
X006695Y024055D01*
X006785Y024092D01*
X006803Y024110D01*
X010521Y024110D01*
X010875Y024464D01*
X010986Y024575D01*
X010986Y025094D01*
X011004Y025111D01*
X011041Y025201D01*
X011041Y025299D01*
X011004Y025389D01*
X010935Y025458D01*
X010845Y025495D01*
X010747Y025495D01*
X010657Y025458D01*
X010588Y025389D01*
X010551Y025299D01*
X010551Y025201D01*
X010588Y025111D01*
X010606Y025094D01*
X010606Y024732D01*
X010364Y024490D01*
X006803Y024490D01*
X006785Y024508D01*
X006695Y024545D01*
X006597Y024545D01*
X006507Y024508D01*
X006438Y024439D01*
X006401Y024349D01*
X006401Y024251D01*
X006438Y024161D01*
X006406Y024239D02*
X006346Y024239D01*
X006346Y024337D02*
X006401Y024337D01*
X006437Y024436D02*
X006346Y024436D01*
X006346Y024534D02*
X006571Y024534D01*
X006721Y024534D02*
X010408Y024534D01*
X010506Y024633D02*
X009975Y024633D01*
X010004Y024661D02*
X010041Y024751D01*
X010041Y024849D01*
X010004Y024939D01*
X009935Y025008D01*
X009845Y025045D01*
X009747Y025045D01*
X009657Y025008D01*
X009588Y024939D01*
X009551Y024849D01*
X009551Y024751D01*
X009588Y024661D01*
X009657Y024592D01*
X009747Y024555D01*
X009845Y024555D01*
X009935Y024592D01*
X010004Y024661D01*
X010033Y024731D02*
X010605Y024731D01*
X010606Y024830D02*
X010041Y024830D01*
X010008Y024928D02*
X010606Y024928D01*
X010606Y025027D02*
X009889Y025027D01*
X009703Y025027D02*
X009189Y025027D01*
X009145Y025045D02*
X009047Y025045D01*
X008957Y025008D01*
X008888Y024939D01*
X008851Y024849D01*
X008851Y024751D01*
X008888Y024661D01*
X008957Y024592D01*
X009047Y024555D01*
X009145Y024555D01*
X009235Y024592D01*
X009304Y024661D01*
X009341Y024751D01*
X009341Y024849D01*
X009304Y024939D01*
X009235Y025008D01*
X009145Y025045D01*
X009003Y025027D02*
X008489Y025027D01*
X008445Y025045D02*
X008347Y025045D01*
X008257Y025008D01*
X008188Y024939D01*
X008151Y024849D01*
X008151Y024751D01*
X008188Y024661D01*
X008257Y024592D01*
X008347Y024555D01*
X008445Y024555D01*
X008535Y024592D01*
X008604Y024661D01*
X008641Y024751D01*
X008641Y024849D01*
X008604Y024939D01*
X008535Y025008D01*
X008445Y025045D01*
X008303Y025027D02*
X007789Y025027D01*
X007745Y025045D02*
X007835Y025008D01*
X007904Y024939D01*
X007941Y024849D01*
X007941Y024751D01*
X007904Y024661D01*
X007835Y024592D01*
X007745Y024555D01*
X007647Y024555D01*
X007557Y024592D01*
X007488Y024661D01*
X007451Y024751D01*
X007451Y024849D01*
X007488Y024939D01*
X007557Y025008D01*
X007647Y025045D01*
X007745Y025045D01*
X007603Y025027D02*
X006351Y025027D01*
X006346Y025125D02*
X010583Y025125D01*
X010551Y025224D02*
X006346Y025224D01*
X006346Y025322D02*
X010561Y025322D01*
X010620Y025421D02*
X006346Y025421D01*
X006346Y025519D02*
X013056Y025519D01*
X013056Y025421D02*
X010972Y025421D01*
X011032Y025322D02*
X013056Y025322D01*
X013056Y025224D02*
X011041Y025224D01*
X011010Y025125D02*
X013056Y025125D01*
X013056Y025027D02*
X012989Y025027D01*
X012803Y025027D02*
X012289Y025027D01*
X012245Y025045D02*
X012147Y025045D01*
X012057Y025008D01*
X011988Y024939D01*
X011951Y024849D01*
X011951Y024751D01*
X011988Y024661D01*
X012057Y024592D01*
X012147Y024555D01*
X012245Y024555D01*
X012335Y024592D01*
X012404Y024661D01*
X012441Y024751D01*
X012441Y024849D01*
X012404Y024939D01*
X012335Y025008D01*
X012245Y025045D01*
X012103Y025027D02*
X010986Y025027D01*
X010986Y024928D02*
X011984Y024928D01*
X011951Y024830D02*
X010986Y024830D01*
X010986Y024731D02*
X011960Y024731D01*
X012017Y024633D02*
X010986Y024633D01*
X010945Y024534D02*
X013056Y024534D01*
X013056Y024436D02*
X010847Y024436D01*
X010748Y024337D02*
X013056Y024337D01*
X013056Y024239D02*
X010650Y024239D01*
X010551Y024140D02*
X013056Y024140D01*
X013436Y024436D02*
X015185Y024436D01*
X015043Y024534D02*
X013436Y024534D01*
X013775Y024633D02*
X014117Y024633D01*
X014060Y024731D02*
X013833Y024731D01*
X013841Y024830D02*
X014051Y024830D01*
X014084Y024928D02*
X013808Y024928D01*
X013436Y025224D02*
X017696Y025224D01*
X017696Y025322D02*
X013436Y025322D01*
X013056Y025618D02*
X006346Y025618D01*
X006346Y025716D02*
X013056Y025716D01*
X013056Y025815D02*
X006346Y025815D01*
X006349Y025913D02*
X013056Y025913D01*
X013056Y026012D02*
X006351Y026012D01*
X006346Y026110D02*
X013056Y026110D01*
X013056Y026209D02*
X006346Y026209D01*
X006346Y026307D02*
X013056Y026307D01*
X013056Y026406D02*
X006346Y026406D01*
X006346Y026504D02*
X013056Y026504D01*
X013056Y026603D02*
X006346Y026603D01*
X006346Y026701D02*
X012199Y026701D01*
X012207Y026692D02*
X012297Y026655D01*
X012395Y026655D01*
X012485Y026692D01*
X012554Y026761D01*
X012591Y026851D01*
X012591Y026949D01*
X012554Y027039D01*
X012485Y027108D01*
X012395Y027145D01*
X012297Y027145D01*
X012207Y027108D01*
X012138Y027039D01*
X012101Y026949D01*
X012101Y026851D01*
X012138Y026761D01*
X012207Y026692D01*
X012123Y026800D02*
X006346Y026800D01*
X006346Y026898D02*
X012101Y026898D01*
X012121Y026997D02*
X006351Y026997D01*
X006346Y027095D02*
X012195Y027095D01*
X012305Y027194D02*
X013056Y027194D01*
X013056Y027292D02*
X012370Y027292D01*
X012384Y027391D02*
X013056Y027391D01*
X013056Y027489D02*
X012357Y027489D01*
X012265Y027588D02*
X013056Y027588D01*
X013056Y027686D02*
X012054Y027686D01*
X011955Y027785D02*
X013056Y027785D01*
X013056Y027883D02*
X012113Y027883D01*
X012212Y027982D02*
X013056Y027982D01*
X013056Y028080D02*
X012241Y028080D01*
X012229Y028179D02*
X012521Y028179D01*
X012461Y028277D02*
X012304Y028277D01*
X012316Y028376D02*
X012451Y028376D01*
X012482Y028474D02*
X012316Y028474D01*
X012316Y028573D02*
X012593Y028573D01*
X012786Y028671D02*
X012316Y028671D01*
X012277Y028770D02*
X012786Y028770D01*
X012786Y028868D02*
X011783Y028868D01*
X011546Y028800D02*
X011546Y031850D01*
X012396Y032700D01*
X011956Y032710D02*
X011836Y032710D01*
X011836Y032808D02*
X011956Y032808D01*
X011981Y032907D02*
X011812Y032907D01*
X011836Y032882D02*
X011578Y033140D01*
X011214Y033140D01*
X010956Y032882D01*
X010956Y032518D01*
X011214Y032260D01*
X011578Y032260D01*
X011836Y032518D01*
X011836Y032882D01*
X011713Y033005D02*
X012079Y033005D01*
X012178Y033104D02*
X011615Y033104D01*
X011578Y033260D02*
X011836Y033518D01*
X011836Y033882D01*
X011578Y034140D01*
X011214Y034140D01*
X010956Y033882D01*
X010956Y033518D01*
X011214Y033260D01*
X011578Y033260D01*
X011619Y033301D02*
X012173Y033301D01*
X012214Y033260D02*
X011956Y033518D01*
X011956Y033882D01*
X012214Y034140D01*
X012578Y034140D01*
X012836Y033882D01*
X012836Y033518D01*
X012578Y033260D01*
X012214Y033260D01*
X012075Y033399D02*
X011718Y033399D01*
X011816Y033498D02*
X011976Y033498D01*
X011956Y033596D02*
X011836Y033596D01*
X011836Y033695D02*
X011956Y033695D01*
X011956Y033793D02*
X011836Y033793D01*
X011827Y033892D02*
X011966Y033892D01*
X012064Y033990D02*
X011728Y033990D01*
X011630Y034089D02*
X012163Y034089D01*
X012630Y034089D02*
X013163Y034089D01*
X013214Y034140D02*
X012956Y033882D01*
X012956Y033518D01*
X013214Y033260D01*
X013578Y033260D01*
X013836Y033518D01*
X013836Y033882D01*
X013578Y034140D01*
X013214Y034140D01*
X013064Y033990D02*
X012728Y033990D01*
X012827Y033892D02*
X012966Y033892D01*
X012956Y033793D02*
X012836Y033793D01*
X012836Y033695D02*
X012956Y033695D01*
X012956Y033596D02*
X012836Y033596D01*
X012816Y033498D02*
X012976Y033498D01*
X013075Y033399D02*
X012718Y033399D01*
X012619Y033301D02*
X013173Y033301D01*
X013214Y033140D02*
X012956Y032882D01*
X012956Y032518D01*
X013214Y032260D01*
X013578Y032260D01*
X013836Y032518D01*
X013836Y032882D01*
X013578Y033140D01*
X013214Y033140D01*
X013178Y033104D02*
X012615Y033104D01*
X012713Y033005D02*
X013079Y033005D01*
X012981Y032907D02*
X012812Y032907D01*
X012836Y032808D02*
X012956Y032808D01*
X012956Y032710D02*
X012836Y032710D01*
X012836Y032611D02*
X012956Y032611D01*
X012961Y032513D02*
X012831Y032513D01*
X012733Y032414D02*
X013060Y032414D01*
X013158Y032316D02*
X012634Y032316D01*
X012501Y031922D02*
X013723Y031922D01*
X013822Y032020D02*
X011943Y032020D01*
X012041Y032119D02*
X013920Y032119D01*
X014019Y032217D02*
X012140Y032217D01*
X011884Y032414D02*
X011733Y032414D01*
X011785Y032316D02*
X011634Y032316D01*
X011687Y032217D02*
X005329Y032217D01*
X005231Y032119D02*
X011588Y032119D01*
X011490Y032020D02*
X011023Y032020D01*
X011054Y031989D02*
X010985Y032058D01*
X010895Y032095D01*
X010797Y032095D01*
X010707Y032058D01*
X010638Y031989D01*
X010601Y031899D01*
X010601Y031801D01*
X010638Y031711D01*
X010707Y031642D01*
X010797Y031605D01*
X010895Y031605D01*
X010985Y031642D01*
X011054Y031711D01*
X011091Y031801D01*
X011091Y031899D01*
X011054Y031989D01*
X011082Y031922D02*
X011391Y031922D01*
X011386Y031823D02*
X011091Y031823D01*
X011059Y031725D02*
X011386Y031725D01*
X011386Y031626D02*
X010946Y031626D01*
X010747Y031626D02*
X006746Y031626D01*
X006785Y031642D02*
X006854Y031711D01*
X006891Y031801D01*
X006891Y031899D01*
X006854Y031989D01*
X006785Y032058D01*
X006695Y032095D01*
X006597Y032095D01*
X006507Y032058D01*
X006438Y031989D01*
X006401Y031899D01*
X006401Y031801D01*
X006438Y031711D01*
X006507Y031642D01*
X006597Y031605D01*
X006695Y031605D01*
X006785Y031642D01*
X006859Y031725D02*
X010633Y031725D01*
X010601Y031823D02*
X006891Y031823D01*
X006882Y031922D02*
X010611Y031922D01*
X010670Y032020D02*
X006823Y032020D01*
X007158Y032316D02*
X005428Y032316D01*
X005509Y032414D02*
X007060Y032414D01*
X006961Y032513D02*
X005509Y032513D01*
X005509Y032611D02*
X006956Y032611D01*
X006956Y032518D02*
X007214Y032260D01*
X007578Y032260D01*
X007836Y032518D01*
X007836Y032882D01*
X007578Y033140D01*
X007214Y033140D01*
X006956Y032882D01*
X006956Y032518D01*
X006956Y032710D02*
X005509Y032710D01*
X005509Y032808D02*
X006956Y032808D01*
X006981Y032907D02*
X005506Y032907D01*
X005407Y033005D02*
X007079Y033005D01*
X007178Y033104D02*
X005309Y033104D01*
X005210Y033202D02*
X014202Y033202D01*
X014153Y033104D02*
X013615Y033104D01*
X013713Y033005D02*
X014151Y033005D01*
X014193Y032907D02*
X013812Y032907D01*
X013836Y032808D02*
X014206Y032808D01*
X014206Y032710D02*
X013836Y032710D01*
X013836Y032611D02*
X014206Y032611D01*
X014206Y032513D02*
X013831Y032513D01*
X013733Y032414D02*
X014206Y032414D01*
X014117Y032316D02*
X013634Y032316D01*
X013251Y031823D02*
X013242Y031823D01*
X013056Y031429D02*
X011706Y031429D01*
X011706Y031331D02*
X013056Y031331D01*
X013056Y031232D02*
X012076Y031232D01*
X011916Y031232D02*
X011706Y031232D01*
X011706Y031134D02*
X011786Y031134D01*
X011751Y031035D02*
X011706Y031035D01*
X011706Y030937D02*
X011757Y030937D01*
X011706Y030247D02*
X012786Y030247D01*
X012786Y030149D02*
X012298Y030149D01*
X012316Y030050D02*
X012786Y030050D01*
X012786Y029952D02*
X012316Y029952D01*
X012316Y029853D02*
X012786Y029853D01*
X012554Y029755D02*
X012316Y029755D01*
X012316Y029262D02*
X012786Y029262D01*
X012786Y029164D02*
X012316Y029164D01*
X012316Y029065D02*
X012786Y029065D01*
X012786Y028967D02*
X012313Y028967D01*
X012696Y028350D02*
X012946Y028600D01*
X012946Y030400D01*
X012646Y030700D01*
X012457Y030543D02*
X012316Y030543D01*
X012316Y030641D02*
X012405Y030641D01*
X012401Y030740D02*
X012316Y030740D01*
X012289Y030838D02*
X012438Y030838D01*
X012577Y030937D02*
X012235Y030937D01*
X012241Y031035D02*
X013056Y031035D01*
X013056Y030937D02*
X012715Y030937D01*
X012854Y030838D02*
X013056Y030838D01*
X013056Y030740D02*
X012891Y030740D01*
X012931Y030641D02*
X013056Y030641D01*
X013056Y030543D02*
X013030Y030543D01*
X012774Y030346D02*
X012292Y030346D01*
X012316Y030444D02*
X012676Y030444D01*
X013056Y031134D02*
X012206Y031134D01*
X012222Y031528D02*
X011706Y031528D01*
X011706Y031626D02*
X012162Y031626D01*
X012151Y031725D02*
X011706Y031725D01*
X011746Y031823D02*
X012182Y031823D01*
X012291Y031922D02*
X011844Y031922D01*
X011831Y032513D02*
X011961Y032513D01*
X011956Y032611D02*
X011836Y032611D01*
X011158Y032316D02*
X010634Y032316D01*
X010578Y032260D02*
X010836Y032518D01*
X010836Y032882D01*
X010578Y033140D01*
X010214Y033140D01*
X009956Y032882D01*
X009956Y032518D01*
X010214Y032260D01*
X010578Y032260D01*
X010733Y032414D02*
X011060Y032414D01*
X010961Y032513D02*
X010831Y032513D01*
X010836Y032611D02*
X010956Y032611D01*
X010956Y032710D02*
X010836Y032710D01*
X010836Y032808D02*
X010956Y032808D01*
X010981Y032907D02*
X010812Y032907D01*
X010713Y033005D02*
X011079Y033005D01*
X011178Y033104D02*
X010615Y033104D01*
X010578Y033260D02*
X010836Y033518D01*
X010836Y033882D01*
X010578Y034140D01*
X010214Y034140D01*
X009956Y033882D01*
X009956Y033518D01*
X010214Y033260D01*
X010578Y033260D01*
X010619Y033301D02*
X011173Y033301D01*
X011075Y033399D02*
X010718Y033399D01*
X010816Y033498D02*
X010976Y033498D01*
X010956Y033596D02*
X010836Y033596D01*
X010836Y033695D02*
X010956Y033695D01*
X010956Y033793D02*
X010836Y033793D01*
X010827Y033892D02*
X010966Y033892D01*
X011064Y033990D02*
X010728Y033990D01*
X010630Y034089D02*
X011163Y034089D01*
X010163Y034089D02*
X009630Y034089D01*
X009578Y034140D02*
X009836Y033882D01*
X009836Y033518D01*
X009578Y033260D01*
X009214Y033260D01*
X008956Y033518D01*
X008956Y033882D01*
X009214Y034140D01*
X009578Y034140D01*
X009728Y033990D02*
X010064Y033990D01*
X009966Y033892D02*
X009827Y033892D01*
X009836Y033793D02*
X009956Y033793D01*
X009956Y033695D02*
X009836Y033695D01*
X009836Y033596D02*
X009956Y033596D01*
X009976Y033498D02*
X009816Y033498D01*
X009718Y033399D02*
X010075Y033399D01*
X010173Y033301D02*
X009619Y033301D01*
X009578Y033140D02*
X009214Y033140D01*
X008956Y032882D01*
X008956Y032518D01*
X009214Y032260D01*
X009578Y032260D01*
X009836Y032518D01*
X009836Y032882D01*
X009578Y033140D01*
X009615Y033104D02*
X010178Y033104D01*
X010079Y033005D02*
X009713Y033005D01*
X009812Y032907D02*
X009981Y032907D01*
X009956Y032808D02*
X009836Y032808D01*
X009836Y032710D02*
X009956Y032710D01*
X009956Y032611D02*
X009836Y032611D01*
X009831Y032513D02*
X009961Y032513D01*
X010060Y032414D02*
X009733Y032414D01*
X009634Y032316D02*
X010158Y032316D01*
X010151Y031180D02*
X009896Y030925D01*
X009741Y030925D01*
X009676Y030861D01*
X009676Y030419D01*
X009741Y030355D01*
X010183Y030355D01*
X010183Y030269D01*
X010221Y030179D01*
X010268Y030131D01*
X010268Y028828D01*
X010252Y028845D01*
X009741Y028845D01*
X009676Y028781D01*
X009676Y028339D01*
X009741Y028275D01*
X009766Y028275D01*
X009766Y028235D01*
X009751Y028199D01*
X009751Y028101D01*
X009766Y028065D01*
X009766Y028055D01*
X009773Y028047D01*
X009788Y028011D01*
X009857Y027942D01*
X009894Y027927D01*
X009901Y027920D01*
X009911Y027920D01*
X009947Y027905D01*
X009975Y027905D01*
X009789Y027719D01*
X009722Y027719D01*
X009632Y027682D01*
X009563Y027613D01*
X009526Y027523D01*
X009526Y027426D01*
X009563Y027336D01*
X009632Y027267D01*
X009722Y027229D01*
X009819Y027229D01*
X009909Y027267D01*
X009978Y027336D01*
X010016Y027426D01*
X010016Y027493D01*
X010495Y027972D01*
X010588Y028066D01*
X010588Y030131D01*
X010636Y030179D01*
X010673Y030269D01*
X010673Y030366D01*
X010636Y030456D01*
X010567Y030525D01*
X010477Y030563D01*
X010380Y030563D01*
X010316Y030536D01*
X010316Y030695D01*
X010333Y030711D01*
X010347Y030705D01*
X010445Y030705D01*
X010481Y030720D01*
X010491Y030720D01*
X010499Y030727D01*
X010535Y030742D01*
X010604Y030811D01*
X010619Y030847D01*
X010626Y030855D01*
X010626Y030865D01*
X010641Y030901D01*
X010641Y030999D01*
X010626Y031035D01*
X010626Y031045D01*
X010619Y031053D01*
X010604Y031089D01*
X010535Y031158D01*
X010499Y031173D01*
X010491Y031180D01*
X010481Y031180D01*
X010445Y031195D01*
X010347Y031195D01*
X010311Y031180D01*
X010151Y031180D01*
X010104Y031134D02*
X007438Y031134D01*
X007391Y031180D02*
X007181Y031180D01*
X007145Y031195D01*
X007047Y031195D01*
X007011Y031180D01*
X007001Y031180D01*
X006994Y031173D01*
X006957Y031158D01*
X006888Y031089D01*
X006873Y031053D01*
X006866Y031045D01*
X006866Y031035D01*
X006851Y030999D01*
X006851Y030901D01*
X006866Y030865D01*
X006866Y030855D01*
X006873Y030847D01*
X006888Y030811D01*
X006957Y030742D01*
X006994Y030727D01*
X007001Y030720D01*
X007011Y030720D01*
X007047Y030705D01*
X007145Y030705D01*
X007176Y030718D01*
X007176Y030582D01*
X007145Y030595D01*
X007047Y030595D01*
X006957Y030558D01*
X006888Y030489D01*
X006851Y030399D01*
X006851Y030301D01*
X006888Y030211D01*
X006936Y030164D01*
X006936Y027984D01*
X007451Y027469D01*
X007451Y027401D01*
X007488Y027311D01*
X007557Y027242D01*
X007647Y027205D01*
X007745Y027205D01*
X007835Y027242D01*
X007904Y027311D01*
X007941Y027401D01*
X007941Y027499D01*
X007904Y027589D01*
X007835Y027658D01*
X007745Y027695D01*
X007677Y027695D01*
X007467Y027905D01*
X007545Y027905D01*
X007581Y027920D01*
X007591Y027920D01*
X007599Y027927D01*
X007635Y027942D01*
X007704Y028011D01*
X007719Y028047D01*
X007726Y028055D01*
X007726Y028065D01*
X007741Y028101D01*
X007741Y028199D01*
X007726Y028235D01*
X007726Y028275D01*
X007752Y028275D01*
X007816Y028339D01*
X007816Y028781D01*
X007752Y028845D01*
X007256Y028845D01*
X007256Y028955D01*
X007752Y028955D01*
X007816Y029019D01*
X007816Y029410D01*
X008040Y029410D01*
X008057Y029392D01*
X008147Y029355D01*
X008245Y029355D01*
X008286Y029372D01*
X008286Y028766D01*
X008215Y028695D01*
X008147Y028695D01*
X008057Y028658D01*
X007988Y028589D01*
X007951Y028499D01*
X007951Y028401D01*
X007988Y028311D01*
X008057Y028242D01*
X008147Y028205D01*
X008245Y028205D01*
X008335Y028242D01*
X008404Y028311D01*
X008441Y028401D01*
X008441Y028469D01*
X008606Y028634D01*
X008606Y030516D01*
X008512Y030610D01*
X008391Y030731D01*
X008391Y030799D01*
X008354Y030889D01*
X008285Y030958D01*
X008195Y030995D01*
X008097Y030995D01*
X008007Y030958D01*
X007938Y030889D01*
X007901Y030799D01*
X007901Y030701D01*
X007938Y030611D01*
X008007Y030542D01*
X008097Y030505D01*
X008165Y030505D01*
X008286Y030384D01*
X008286Y029828D01*
X008245Y029845D01*
X008147Y029845D01*
X008057Y029808D01*
X008040Y029790D01*
X007816Y029790D01*
X007816Y030181D01*
X007752Y030245D01*
X007318Y030245D01*
X007341Y030301D01*
X007341Y030355D01*
X007752Y030355D01*
X007816Y030419D01*
X007816Y030861D01*
X007752Y030925D01*
X007646Y030925D01*
X007526Y031045D01*
X007391Y031180D01*
X007536Y031035D02*
X010006Y031035D01*
X009907Y030937D02*
X009506Y030937D01*
X009485Y030958D02*
X009554Y030889D01*
X009591Y030799D01*
X009591Y030701D01*
X009554Y030611D01*
X009485Y030542D01*
X009395Y030505D01*
X009327Y030505D01*
X009206Y030384D01*
X009206Y028766D01*
X009277Y028695D01*
X009345Y028695D01*
X009435Y028658D01*
X009504Y028589D01*
X009541Y028499D01*
X009541Y028401D01*
X009504Y028311D01*
X009435Y028242D01*
X009345Y028205D01*
X009247Y028205D01*
X009157Y028242D01*
X009088Y028311D01*
X009051Y028401D01*
X009051Y028469D01*
X008980Y028540D01*
X008886Y028634D01*
X008886Y030516D01*
X009101Y030731D01*
X009101Y030799D01*
X009138Y030889D01*
X009207Y030958D01*
X009297Y030995D01*
X009395Y030995D01*
X009485Y030958D01*
X009575Y030838D02*
X009676Y030838D01*
X009676Y030740D02*
X009591Y030740D01*
X009566Y030641D02*
X009676Y030641D01*
X009676Y030543D02*
X009485Y030543D01*
X009676Y030444D02*
X009267Y030444D01*
X009206Y030346D02*
X010183Y030346D01*
X010193Y030247D02*
X009206Y030247D01*
X009206Y030149D02*
X010251Y030149D01*
X010268Y030050D02*
X009206Y030050D01*
X009206Y029952D02*
X010268Y029952D01*
X010268Y029853D02*
X009206Y029853D01*
X009206Y029755D02*
X010268Y029755D01*
X010268Y029656D02*
X009206Y029656D01*
X009206Y029558D02*
X010268Y029558D01*
X010268Y029459D02*
X009206Y029459D01*
X009206Y029361D02*
X010268Y029361D01*
X010268Y029262D02*
X009206Y029262D01*
X009206Y029164D02*
X010268Y029164D01*
X010268Y029065D02*
X009206Y029065D01*
X009206Y028967D02*
X010268Y028967D01*
X010268Y028868D02*
X009206Y028868D01*
X009206Y028770D02*
X009676Y028770D01*
X009676Y028671D02*
X009403Y028671D01*
X009511Y028573D02*
X009676Y028573D01*
X009676Y028474D02*
X009541Y028474D01*
X009531Y028376D02*
X009676Y028376D01*
X009739Y028277D02*
X009470Y028277D01*
X009296Y028450D02*
X009046Y028700D01*
X009046Y030450D01*
X009346Y030750D01*
X009117Y030838D02*
X008375Y030838D01*
X008391Y030740D02*
X009101Y030740D01*
X009011Y030641D02*
X008481Y030641D01*
X008580Y030543D02*
X008912Y030543D01*
X008886Y030444D02*
X008606Y030444D01*
X008606Y030346D02*
X008886Y030346D01*
X008886Y030247D02*
X008606Y030247D01*
X008606Y030149D02*
X008886Y030149D01*
X008886Y030050D02*
X008606Y030050D01*
X008606Y029952D02*
X008886Y029952D01*
X008886Y029853D02*
X008606Y029853D01*
X008606Y029755D02*
X008886Y029755D01*
X008886Y029656D02*
X008606Y029656D01*
X008606Y029558D02*
X008886Y029558D01*
X008886Y029459D02*
X008606Y029459D01*
X008606Y029361D02*
X008886Y029361D01*
X008886Y029262D02*
X008606Y029262D01*
X008606Y029164D02*
X008886Y029164D01*
X008886Y029065D02*
X008606Y029065D01*
X008606Y028967D02*
X008886Y028967D01*
X008886Y028868D02*
X008606Y028868D01*
X008606Y028770D02*
X008886Y028770D01*
X008886Y028671D02*
X008606Y028671D01*
X008545Y028573D02*
X008947Y028573D01*
X009046Y028474D02*
X008447Y028474D01*
X008431Y028376D02*
X009062Y028376D01*
X009123Y028277D02*
X008370Y028277D01*
X008196Y028450D02*
X008446Y028700D01*
X008446Y030450D01*
X008146Y030750D01*
X007917Y030838D02*
X007816Y030838D01*
X007816Y030740D02*
X007901Y030740D01*
X007926Y030641D02*
X007816Y030641D01*
X007816Y030543D02*
X008007Y030543D01*
X007816Y030444D02*
X008226Y030444D01*
X008286Y030346D02*
X007341Y030346D01*
X007319Y030247D02*
X008286Y030247D01*
X008286Y030149D02*
X007816Y030149D01*
X007816Y030050D02*
X008286Y030050D01*
X008286Y029952D02*
X007816Y029952D01*
X007816Y029853D02*
X008286Y029853D01*
X008258Y029361D02*
X008286Y029361D01*
X008286Y029262D02*
X007816Y029262D01*
X007816Y029164D02*
X008286Y029164D01*
X008286Y029065D02*
X007816Y029065D01*
X007763Y028967D02*
X008286Y028967D01*
X008286Y028868D02*
X007256Y028868D01*
X006936Y028868D02*
X006346Y028868D01*
X006346Y028770D02*
X006936Y028770D01*
X006936Y028671D02*
X006346Y028671D01*
X006346Y028573D02*
X006936Y028573D01*
X006936Y028474D02*
X006346Y028474D01*
X006346Y028376D02*
X006936Y028376D01*
X006936Y028277D02*
X006346Y028277D01*
X006346Y028179D02*
X006936Y028179D01*
X006936Y028080D02*
X006351Y028080D01*
X006351Y027982D02*
X006938Y027982D01*
X007037Y027883D02*
X006346Y027883D01*
X006346Y027785D02*
X007135Y027785D01*
X007234Y027686D02*
X006346Y027686D01*
X006346Y027588D02*
X007332Y027588D01*
X007431Y027489D02*
X006346Y027489D01*
X006346Y027391D02*
X007456Y027391D01*
X007508Y027292D02*
X006346Y027292D01*
X006346Y027194D02*
X011973Y027194D01*
X011908Y027292D02*
X009935Y027292D01*
X010001Y027391D02*
X011894Y027391D01*
X011798Y027489D02*
X010016Y027489D01*
X010110Y027588D02*
X011699Y027588D01*
X011601Y027686D02*
X010209Y027686D01*
X010307Y027785D02*
X011502Y027785D01*
X011404Y027883D02*
X010406Y027883D01*
X010504Y027982D02*
X011305Y027982D01*
X011207Y028080D02*
X010588Y028080D01*
X010588Y028179D02*
X011136Y028179D01*
X011136Y028277D02*
X010588Y028277D01*
X010588Y028376D02*
X011136Y028376D01*
X011136Y028474D02*
X010588Y028474D01*
X010588Y028573D02*
X011136Y028573D01*
X011136Y028671D02*
X010588Y028671D01*
X010588Y028770D02*
X011136Y028770D01*
X011136Y028868D02*
X010588Y028868D01*
X010588Y028967D02*
X011136Y028967D01*
X011136Y029065D02*
X010588Y029065D01*
X010588Y029164D02*
X011136Y029164D01*
X011136Y029262D02*
X010588Y029262D01*
X010588Y029361D02*
X011136Y029361D01*
X011136Y029459D02*
X010588Y029459D01*
X010588Y029558D02*
X011136Y029558D01*
X011136Y029656D02*
X010588Y029656D01*
X010588Y029755D02*
X011136Y029755D01*
X011136Y029853D02*
X010588Y029853D01*
X010588Y029952D02*
X011136Y029952D01*
X011136Y030050D02*
X010588Y030050D01*
X010606Y030149D02*
X011101Y030149D01*
X011053Y030247D02*
X010664Y030247D01*
X010673Y030346D02*
X011051Y030346D01*
X011094Y030444D02*
X010641Y030444D01*
X010526Y030543D02*
X011242Y030543D01*
X011351Y030543D02*
X011386Y030543D01*
X011386Y030641D02*
X010316Y030641D01*
X010316Y030543D02*
X010331Y030543D01*
X010428Y030318D02*
X010428Y028132D01*
X009771Y027474D01*
X009606Y027292D02*
X007885Y027292D01*
X007937Y027391D02*
X009540Y027391D01*
X009526Y027489D02*
X007941Y027489D01*
X007904Y027588D02*
X009552Y027588D01*
X009641Y027686D02*
X007766Y027686D01*
X007588Y027785D02*
X009854Y027785D01*
X009953Y027883D02*
X007489Y027883D01*
X007674Y027982D02*
X009818Y027982D01*
X009760Y028080D02*
X007732Y028080D01*
X007741Y028179D02*
X009751Y028179D01*
X011296Y028217D02*
X011296Y030300D01*
X011386Y030740D02*
X010528Y030740D01*
X010615Y030838D02*
X011386Y030838D01*
X011386Y030937D02*
X010641Y030937D01*
X010626Y031035D02*
X011386Y031035D01*
X011386Y031134D02*
X010559Y031134D01*
X011386Y031232D02*
X004421Y031232D01*
X004421Y031134D02*
X006933Y031134D01*
X006866Y031035D02*
X004421Y031035D01*
X004421Y030937D02*
X006851Y030937D01*
X006877Y030838D02*
X004421Y030838D01*
X004421Y030740D02*
X006964Y030740D01*
X006942Y030543D02*
X004421Y030543D01*
X004421Y030641D02*
X007176Y030641D01*
X007096Y030350D02*
X007096Y028050D01*
X007696Y027450D01*
X007754Y028277D02*
X008023Y028277D01*
X007962Y028376D02*
X007816Y028376D01*
X007816Y028474D02*
X007951Y028474D01*
X007982Y028573D02*
X007816Y028573D01*
X007816Y028671D02*
X008090Y028671D01*
X008286Y028770D02*
X007816Y028770D01*
X007816Y029361D02*
X008134Y029361D01*
X007986Y030937D02*
X007635Y030937D01*
X008306Y030937D02*
X009186Y030937D01*
X009158Y032316D02*
X008634Y032316D01*
X008578Y032260D02*
X008836Y032518D01*
X008836Y032882D01*
X008578Y033140D01*
X008214Y033140D01*
X007956Y032882D01*
X007956Y032518D01*
X008214Y032260D01*
X008578Y032260D01*
X008733Y032414D02*
X009060Y032414D01*
X008961Y032513D02*
X008831Y032513D01*
X008836Y032611D02*
X008956Y032611D01*
X008956Y032710D02*
X008836Y032710D01*
X008836Y032808D02*
X008956Y032808D01*
X008981Y032907D02*
X008812Y032907D01*
X008713Y033005D02*
X009079Y033005D01*
X009178Y033104D02*
X008615Y033104D01*
X008578Y033260D02*
X008836Y033518D01*
X008836Y033882D01*
X008578Y034140D01*
X008214Y034140D01*
X007956Y033882D01*
X007956Y033518D01*
X008214Y033260D01*
X008578Y033260D01*
X008619Y033301D02*
X009173Y033301D01*
X009075Y033399D02*
X008718Y033399D01*
X008816Y033498D02*
X008976Y033498D01*
X008956Y033596D02*
X008836Y033596D01*
X008836Y033695D02*
X008956Y033695D01*
X008956Y033793D02*
X008836Y033793D01*
X008827Y033892D02*
X008966Y033892D01*
X009064Y033990D02*
X008728Y033990D01*
X008630Y034089D02*
X009163Y034089D01*
X008163Y034089D02*
X007630Y034089D01*
X007578Y034140D02*
X007214Y034140D01*
X006956Y033882D01*
X006956Y033518D01*
X007214Y033260D01*
X007578Y033260D01*
X007836Y033518D01*
X007836Y033882D01*
X007578Y034140D01*
X007728Y033990D02*
X008064Y033990D01*
X007966Y033892D02*
X007827Y033892D01*
X007836Y033793D02*
X007956Y033793D01*
X007956Y033695D02*
X007836Y033695D01*
X007836Y033596D02*
X007956Y033596D01*
X007976Y033498D02*
X007816Y033498D01*
X007718Y033399D02*
X008075Y033399D01*
X008173Y033301D02*
X007619Y033301D01*
X007615Y033104D02*
X008178Y033104D01*
X008079Y033005D02*
X007713Y033005D01*
X007812Y032907D02*
X007981Y032907D01*
X007956Y032808D02*
X007836Y032808D01*
X007836Y032710D02*
X007956Y032710D01*
X007956Y032611D02*
X007836Y032611D01*
X007831Y032513D02*
X007961Y032513D01*
X008060Y032414D02*
X007733Y032414D01*
X007634Y032316D02*
X008158Y032316D01*
X007173Y033301D02*
X005263Y033301D01*
X005361Y033399D02*
X007075Y033399D01*
X006976Y033498D02*
X005460Y033498D01*
X005509Y033596D02*
X006956Y033596D01*
X006956Y033695D02*
X005509Y033695D01*
X005509Y033793D02*
X006956Y033793D01*
X006966Y033892D02*
X005509Y033892D01*
X005509Y033990D02*
X007064Y033990D01*
X007163Y034089D02*
X005474Y034089D01*
X005375Y034187D02*
X016196Y034187D01*
X016196Y034089D02*
X013630Y034089D01*
X013728Y033990D02*
X016196Y033990D01*
X016196Y033892D02*
X013827Y033892D01*
X013836Y033793D02*
X016196Y033793D01*
X016196Y033695D02*
X013836Y033695D01*
X013836Y033596D02*
X016196Y033596D01*
X016196Y033498D02*
X013816Y033498D01*
X013718Y033399D02*
X016196Y033399D01*
X016196Y033301D02*
X013619Y033301D01*
X014458Y032119D02*
X016196Y032119D01*
X016196Y032217D02*
X014556Y032217D01*
X014586Y032316D02*
X016196Y032316D01*
X016196Y032414D02*
X014586Y032414D01*
X014586Y032513D02*
X016196Y032513D01*
X016196Y032611D02*
X014586Y032611D01*
X014586Y032710D02*
X016196Y032710D01*
X016196Y032808D02*
X016102Y032808D01*
X015990Y032808D02*
X014586Y032808D01*
X014599Y032907D02*
X015843Y032907D01*
X015801Y033005D02*
X014641Y033005D01*
X014639Y033104D02*
X015803Y033104D01*
X015852Y033202D02*
X014591Y033202D01*
X014359Y032020D02*
X016196Y032020D01*
X016196Y031922D02*
X015301Y031922D01*
X015335Y031908D02*
X015245Y031945D01*
X015147Y031945D01*
X015057Y031908D01*
X014988Y031839D01*
X014951Y031749D01*
X014951Y031651D01*
X014988Y031561D01*
X015036Y031514D01*
X015036Y031371D01*
X014977Y031395D01*
X014880Y031395D01*
X014790Y031358D01*
X014721Y031289D01*
X014683Y031199D01*
X014683Y031159D01*
X014635Y031208D01*
X014599Y031223D01*
X014591Y031230D01*
X014581Y031230D01*
X014545Y031245D01*
X014447Y031245D01*
X014411Y031230D01*
X014401Y031230D01*
X014394Y031223D01*
X014357Y031208D01*
X014288Y031139D01*
X014273Y031103D01*
X014266Y031095D01*
X014266Y031085D01*
X014251Y031049D01*
X014251Y030951D01*
X014266Y030915D01*
X014266Y030875D01*
X014241Y030875D01*
X014176Y030811D01*
X014176Y030369D01*
X014241Y030305D01*
X014752Y030305D01*
X014768Y030322D01*
X014768Y028969D01*
X014721Y028921D01*
X014683Y028831D01*
X014683Y028795D01*
X014241Y028795D01*
X014176Y028731D01*
X014176Y028289D01*
X014241Y028225D01*
X014266Y028225D01*
X014266Y028185D01*
X014251Y028149D01*
X014251Y028051D01*
X014266Y028015D01*
X014266Y028005D01*
X014273Y027997D01*
X014288Y027961D01*
X014357Y027892D01*
X014394Y027877D01*
X014401Y027870D01*
X014411Y027870D01*
X014447Y027855D01*
X014545Y027855D01*
X014581Y027870D01*
X014591Y027870D01*
X014599Y027877D01*
X014635Y027892D01*
X014704Y027961D01*
X014719Y027997D01*
X014726Y028005D01*
X014726Y028015D01*
X014741Y028051D01*
X014741Y028149D01*
X014726Y028185D01*
X014726Y028225D01*
X014752Y028225D01*
X014816Y028289D01*
X014816Y028564D01*
X014880Y028537D01*
X014977Y028537D01*
X015036Y028562D01*
X015036Y028283D01*
X014372Y027619D01*
X014305Y027619D01*
X014215Y027582D01*
X014146Y027513D01*
X014108Y027423D01*
X014108Y027326D01*
X014146Y027236D01*
X014215Y027167D01*
X014305Y027129D01*
X014402Y027129D01*
X014492Y027167D01*
X014561Y027236D01*
X014598Y027326D01*
X014598Y027393D01*
X015356Y028151D01*
X015356Y030114D01*
X015404Y030161D01*
X015441Y030251D01*
X015441Y030349D01*
X015404Y030439D01*
X015356Y030486D01*
X015356Y031514D01*
X015404Y031561D01*
X015441Y031651D01*
X015441Y031749D01*
X015404Y031839D01*
X015335Y031908D01*
X015410Y031823D02*
X016196Y031823D01*
X016196Y031725D02*
X015441Y031725D01*
X015431Y031626D02*
X016196Y031626D01*
X016196Y031528D02*
X015370Y031528D01*
X015356Y031429D02*
X016196Y031429D01*
X016196Y031331D02*
X015356Y031331D01*
X015356Y031232D02*
X016196Y031232D01*
X016196Y031134D02*
X015356Y031134D01*
X015356Y031035D02*
X016196Y031035D01*
X016196Y030937D02*
X015356Y030937D01*
X015356Y030838D02*
X016196Y030838D01*
X016196Y030740D02*
X015356Y030740D01*
X015356Y030641D02*
X016196Y030641D01*
X016196Y030543D02*
X015356Y030543D01*
X015399Y030444D02*
X016196Y030444D01*
X016196Y030346D02*
X015441Y030346D01*
X015439Y030247D02*
X016196Y030247D01*
X016196Y030149D02*
X015391Y030149D01*
X015356Y030050D02*
X016196Y030050D01*
X016196Y029952D02*
X015356Y029952D01*
X015356Y029853D02*
X016196Y029853D01*
X016196Y029755D02*
X015356Y029755D01*
X015356Y029656D02*
X016196Y029656D01*
X016196Y029558D02*
X015356Y029558D01*
X015356Y029459D02*
X016196Y029459D01*
X016196Y029361D02*
X015356Y029361D01*
X015356Y029262D02*
X016196Y029262D01*
X016196Y029164D02*
X015356Y029164D01*
X015356Y029065D02*
X016196Y029065D01*
X016196Y028967D02*
X015356Y028967D01*
X015356Y028868D02*
X016196Y028868D01*
X016196Y028770D02*
X015356Y028770D01*
X015356Y028671D02*
X016196Y028671D01*
X016196Y028573D02*
X015356Y028573D01*
X015356Y028474D02*
X016196Y028474D01*
X016196Y028376D02*
X015356Y028376D01*
X015356Y028277D02*
X016196Y028277D01*
X016196Y028179D02*
X015356Y028179D01*
X015285Y028080D02*
X016196Y028080D01*
X016196Y027982D02*
X015187Y027982D01*
X015088Y027883D02*
X016196Y027883D01*
X016196Y027785D02*
X014990Y027785D01*
X014891Y027686D02*
X016196Y027686D01*
X016196Y027588D02*
X014793Y027588D01*
X014694Y027489D02*
X016196Y027489D01*
X016196Y027391D02*
X014598Y027391D01*
X014585Y027292D02*
X016254Y027292D01*
X016353Y027194D02*
X014519Y027194D01*
X014354Y027039D02*
X014285Y027108D01*
X014195Y027145D01*
X014097Y027145D01*
X014007Y027108D01*
X013938Y027039D01*
X013901Y026949D01*
X013901Y026851D01*
X013938Y026761D01*
X014007Y026692D01*
X014097Y026655D01*
X014195Y026655D01*
X014285Y026692D01*
X014354Y026761D01*
X014391Y026851D01*
X014391Y026949D01*
X014354Y027039D01*
X014371Y026997D02*
X016550Y026997D01*
X016451Y027095D02*
X014298Y027095D01*
X014188Y027194D02*
X013436Y027194D01*
X013436Y027292D02*
X014122Y027292D01*
X014108Y027391D02*
X013436Y027391D01*
X013436Y027489D02*
X014136Y027489D01*
X014228Y027588D02*
X013436Y027588D01*
X013436Y027686D02*
X014439Y027686D01*
X014537Y027785D02*
X013436Y027785D01*
X013436Y027883D02*
X014380Y027883D01*
X014280Y027982D02*
X013436Y027982D01*
X013436Y028080D02*
X014251Y028080D01*
X014264Y028179D02*
X013971Y028179D01*
X014031Y028277D02*
X014189Y028277D01*
X014176Y028376D02*
X014041Y028376D01*
X014010Y028474D02*
X014176Y028474D01*
X014176Y028573D02*
X013899Y028573D01*
X013706Y028671D02*
X014176Y028671D01*
X014215Y028770D02*
X013706Y028770D01*
X013706Y028868D02*
X014699Y028868D01*
X014766Y028967D02*
X013706Y028967D01*
X013706Y029065D02*
X014768Y029065D01*
X014768Y029164D02*
X013706Y029164D01*
X013706Y029262D02*
X014768Y029262D01*
X014768Y029361D02*
X013706Y029361D01*
X013706Y029459D02*
X014768Y029459D01*
X014768Y029558D02*
X013706Y029558D01*
X013706Y029656D02*
X014768Y029656D01*
X014768Y029755D02*
X013706Y029755D01*
X013706Y029853D02*
X014768Y029853D01*
X014768Y029952D02*
X013706Y029952D01*
X013706Y030050D02*
X014768Y030050D01*
X014768Y030149D02*
X013706Y030149D01*
X013706Y030247D02*
X014768Y030247D01*
X015196Y030300D02*
X015196Y031700D01*
X015022Y031528D02*
X013867Y031528D01*
X013965Y031626D02*
X014962Y031626D01*
X014951Y031725D02*
X014064Y031725D01*
X014162Y031823D02*
X014982Y031823D01*
X015091Y031922D02*
X014261Y031922D01*
X014416Y031232D02*
X013436Y031232D01*
X013436Y031134D02*
X014286Y031134D01*
X014251Y031035D02*
X013436Y031035D01*
X013436Y030937D02*
X013777Y030937D01*
X013915Y030937D02*
X014257Y030937D01*
X014204Y030838D02*
X014054Y030838D01*
X014091Y030740D02*
X014176Y030740D01*
X014176Y030641D02*
X014087Y030641D01*
X014035Y030543D02*
X014176Y030543D01*
X014176Y030444D02*
X013817Y030444D01*
X013718Y030346D02*
X014200Y030346D01*
X013846Y030700D02*
X013546Y030400D01*
X013546Y028600D01*
X013796Y028350D01*
X013621Y028179D02*
X013436Y028179D01*
X013436Y028277D02*
X013561Y028277D01*
X013544Y028376D02*
X013436Y028376D01*
X013436Y028474D02*
X013446Y028474D01*
X013056Y028474D02*
X013047Y028474D01*
X013056Y028376D02*
X012948Y028376D01*
X012931Y028277D02*
X013056Y028277D01*
X013056Y028179D02*
X012871Y028179D01*
X013056Y027095D02*
X012498Y027095D01*
X012571Y026997D02*
X013056Y026997D01*
X013056Y026898D02*
X012591Y026898D01*
X012570Y026800D02*
X013056Y026800D01*
X013056Y026701D02*
X012494Y026701D01*
X012139Y027374D02*
X011296Y028217D01*
X011463Y028277D02*
X011689Y028277D01*
X011676Y028376D02*
X011456Y028376D01*
X011456Y028474D02*
X011676Y028474D01*
X011676Y028573D02*
X011637Y028573D01*
X011561Y028179D02*
X011764Y028179D01*
X011751Y028080D02*
X011660Y028080D01*
X011758Y027982D02*
X011780Y027982D01*
X011857Y027883D02*
X011880Y027883D01*
X013436Y027095D02*
X013995Y027095D01*
X013921Y026997D02*
X013436Y026997D01*
X013436Y026898D02*
X013901Y026898D01*
X013923Y026800D02*
X013436Y026800D01*
X013436Y026701D02*
X013999Y026701D01*
X014294Y026701D02*
X016845Y026701D01*
X016747Y026800D02*
X014370Y026800D01*
X014391Y026898D02*
X016648Y026898D01*
X016944Y026603D02*
X013436Y026603D01*
X013436Y026504D02*
X017042Y026504D01*
X017141Y026406D02*
X013436Y026406D01*
X013436Y026307D02*
X014657Y026307D01*
X014638Y026289D02*
X014601Y026199D01*
X014601Y026101D01*
X014638Y026011D01*
X014707Y025942D01*
X014797Y025905D01*
X014895Y025905D01*
X014985Y025942D01*
X015054Y026011D01*
X015091Y026101D01*
X015091Y026199D01*
X015054Y026289D01*
X014985Y026358D01*
X014895Y026395D01*
X014797Y026395D01*
X014707Y026358D01*
X014638Y026289D01*
X014605Y026209D02*
X013436Y026209D01*
X013436Y026110D02*
X014601Y026110D01*
X014638Y026012D02*
X013436Y026012D01*
X013436Y025913D02*
X014778Y025913D01*
X014914Y025913D02*
X015641Y025913D01*
X015542Y025815D02*
X013436Y025815D01*
X012684Y024928D02*
X012408Y024928D01*
X012441Y024830D02*
X012651Y024830D01*
X012660Y024731D02*
X012433Y024731D01*
X012375Y024633D02*
X012717Y024633D01*
X013677Y023451D02*
X010592Y023451D01*
X010640Y023352D02*
X013775Y023352D01*
X013874Y023254D02*
X010641Y023254D01*
X010598Y023155D02*
X013972Y023155D01*
X014071Y023057D02*
X010449Y023057D01*
X010344Y023057D02*
X009486Y023057D01*
X009537Y022958D02*
X014169Y022958D01*
X014268Y022860D02*
X009541Y022860D01*
X009504Y022761D02*
X014366Y022761D01*
X015748Y023746D02*
X015795Y023746D01*
X015785Y024436D02*
X015757Y024436D01*
X015685Y025421D02*
X017696Y025421D01*
X017696Y025519D02*
X016229Y025519D01*
X016357Y025618D02*
X017696Y025618D01*
X017696Y025716D02*
X016391Y025716D01*
X016385Y025815D02*
X017696Y025815D01*
X017633Y025913D02*
X016330Y025913D01*
X016063Y025519D02*
X015784Y025519D01*
X015054Y026012D02*
X017535Y026012D01*
X017436Y026110D02*
X015091Y026110D01*
X015087Y026209D02*
X017338Y026209D01*
X017239Y026307D02*
X015036Y026307D01*
X014353Y027374D02*
X015196Y028217D01*
X015196Y030300D01*
X014928Y031150D02*
X014928Y028782D01*
X015036Y028474D02*
X014816Y028474D01*
X014816Y028376D02*
X015036Y028376D01*
X015030Y028277D02*
X014804Y028277D01*
X014729Y028179D02*
X014931Y028179D01*
X014833Y028080D02*
X014741Y028080D01*
X014734Y027982D02*
X014712Y027982D01*
X014636Y027883D02*
X014613Y027883D01*
X013462Y030543D02*
X013436Y030543D01*
X013436Y030641D02*
X013561Y030641D01*
X013601Y030740D02*
X013436Y030740D01*
X013436Y030838D02*
X013638Y030838D01*
X013436Y031331D02*
X014763Y031331D01*
X014697Y031232D02*
X014576Y031232D01*
X015036Y031429D02*
X013436Y031429D01*
X011386Y031429D02*
X004421Y031429D01*
X004421Y031331D02*
X011386Y031331D01*
X011386Y031528D02*
X004421Y031528D01*
X004421Y031626D02*
X006547Y031626D01*
X006433Y031725D02*
X004421Y031725D01*
X004421Y031823D02*
X006401Y031823D01*
X006411Y031922D02*
X004421Y031922D01*
X004421Y032020D02*
X006470Y032020D01*
X006346Y030444D02*
X006870Y030444D01*
X006851Y030346D02*
X006346Y030346D01*
X006346Y030247D02*
X006874Y030247D01*
X006936Y030149D02*
X006346Y030149D01*
X006351Y030050D02*
X006936Y030050D01*
X006936Y029952D02*
X006351Y029952D01*
X006346Y029853D02*
X006936Y029853D01*
X006936Y029755D02*
X006346Y029755D01*
X006346Y029656D02*
X006936Y029656D01*
X006936Y029558D02*
X006346Y029558D01*
X006346Y029459D02*
X006936Y029459D01*
X006936Y029361D02*
X006346Y029361D01*
X006346Y029262D02*
X006936Y029262D01*
X006936Y029164D02*
X006346Y029164D01*
X006351Y029065D02*
X006936Y029065D01*
X006936Y028967D02*
X006351Y028967D01*
X004561Y032119D02*
X004421Y032119D01*
X004421Y032217D02*
X004463Y032217D01*
X006351Y024928D02*
X007484Y024928D01*
X007451Y024830D02*
X006346Y024830D01*
X006346Y024731D02*
X007460Y024731D01*
X007517Y024633D02*
X006346Y024633D01*
X006346Y023746D02*
X007871Y023746D01*
X007851Y023648D02*
X006346Y023648D01*
X006346Y023549D02*
X007873Y023549D01*
X007949Y023451D02*
X007492Y023451D01*
X007200Y023451D02*
X006346Y023451D01*
X006346Y023352D02*
X007123Y023352D01*
X007101Y023254D02*
X006346Y023254D01*
X006346Y023155D02*
X007120Y023155D01*
X007193Y023057D02*
X006351Y023057D01*
X006346Y022564D02*
X011264Y022564D01*
X011208Y022466D02*
X006346Y022466D01*
X006346Y022367D02*
X011201Y022367D01*
X011235Y022269D02*
X009309Y022269D01*
X009084Y022269D02*
X007259Y022269D01*
X007285Y022258D02*
X007195Y022295D01*
X007097Y022295D01*
X007007Y022258D01*
X006938Y022189D01*
X006901Y022099D01*
X006901Y022001D01*
X006938Y021911D01*
X007007Y021842D01*
X007097Y021805D01*
X007195Y021805D01*
X007285Y021842D01*
X007354Y021911D01*
X007391Y022001D01*
X007391Y022099D01*
X007354Y022189D01*
X007285Y022258D01*
X007362Y022170D02*
X008981Y022170D01*
X008951Y022072D02*
X007391Y022072D01*
X007379Y021973D02*
X008963Y021973D01*
X009025Y021875D02*
X007317Y021875D01*
X007034Y022269D02*
X006346Y022269D01*
X006346Y022170D02*
X006931Y022170D01*
X006901Y022072D02*
X006351Y022072D01*
X006351Y021973D02*
X006913Y021973D01*
X006975Y021875D02*
X006346Y021875D01*
X006346Y021579D02*
X008084Y021579D01*
X008051Y021481D02*
X006346Y021481D01*
X006346Y021382D02*
X008059Y021382D01*
X008116Y021284D02*
X006346Y021284D01*
X006346Y021185D02*
X008292Y021185D01*
X008391Y021087D02*
X006349Y021087D01*
X007875Y024633D02*
X008217Y024633D01*
X008160Y024731D02*
X007933Y024731D01*
X007941Y024830D02*
X008151Y024830D01*
X008184Y024928D02*
X007908Y024928D01*
X008608Y024928D02*
X008884Y024928D01*
X008851Y024830D02*
X008641Y024830D01*
X008633Y024731D02*
X008860Y024731D01*
X008917Y024633D02*
X008575Y024633D01*
X009275Y024633D02*
X009617Y024633D01*
X009560Y024731D02*
X009333Y024731D01*
X009341Y024830D02*
X009551Y024830D01*
X009584Y024928D02*
X009308Y024928D01*
X014475Y024633D02*
X014767Y024633D01*
X014710Y024731D02*
X014533Y024731D01*
X014541Y024830D02*
X014701Y024830D01*
X014734Y024928D02*
X014508Y024928D01*
X016374Y024928D02*
X016478Y024928D01*
X016414Y024830D02*
X016391Y024830D01*
X016391Y024731D02*
X016401Y024731D01*
X016391Y024633D02*
X016430Y024633D01*
X016391Y024534D02*
X016527Y024534D01*
X016437Y024436D02*
X016357Y024436D01*
X017177Y022466D02*
X017696Y022466D01*
X017696Y022367D02*
X017234Y022367D01*
X017241Y022251D02*
X017208Y022170D01*
X017421Y022072D02*
X017491Y022072D01*
X016867Y021579D02*
X016726Y021579D01*
X016741Y021481D02*
X016851Y021481D01*
X016851Y021382D02*
X016741Y021382D01*
X016741Y021284D02*
X016851Y021284D01*
X016851Y021185D02*
X016741Y021185D01*
X016741Y021087D02*
X016851Y021087D01*
X016858Y020988D02*
X016735Y020988D01*
X016496Y021250D02*
X016496Y021300D01*
X016496Y021250D02*
X016456Y021250D01*
X016741Y021678D02*
X016851Y021678D01*
X016851Y021776D02*
X016741Y021776D01*
X016741Y021875D02*
X016851Y021875D01*
X016851Y021973D02*
X016741Y021973D01*
X016741Y022072D02*
X016851Y022072D01*
X017934Y023612D02*
X017911Y023637D01*
X017892Y023664D01*
X017876Y023694D01*
X017863Y023725D01*
X017854Y023757D01*
X017848Y023790D01*
X017846Y023824D01*
X018146Y023838D02*
X018146Y024526D01*
X018208Y023688D02*
X018233Y023665D01*
X018260Y023646D01*
X018290Y023630D01*
X018321Y023617D01*
X018353Y023608D01*
X018386Y023602D01*
X018420Y023600D01*
X018522Y023400D02*
X018270Y023400D01*
X018522Y023400D02*
X018556Y023398D01*
X018589Y023392D01*
X018621Y023383D01*
X018652Y023370D01*
X018682Y023354D01*
X018709Y023335D01*
X018734Y023312D01*
X018834Y023512D02*
X019508Y022838D01*
X019720Y022750D02*
X020146Y022750D01*
X020146Y021150D01*
X019846Y022076D02*
X019844Y022110D01*
X019838Y022143D01*
X019829Y022175D01*
X019816Y022206D01*
X019800Y022236D01*
X019781Y022263D01*
X019758Y022288D01*
X019720Y022750D02*
X019686Y022752D01*
X019653Y022758D01*
X019621Y022767D01*
X019590Y022780D01*
X019560Y022796D01*
X019533Y022815D01*
X019508Y022838D01*
X018208Y023688D02*
X018190Y023709D01*
X018174Y023732D01*
X018162Y023757D01*
X018153Y023783D01*
X018148Y023810D01*
X018146Y023838D01*
X020946Y025070D02*
X020946Y025450D01*
X021196Y025700D01*
X022196Y025700D01*
X022446Y025450D01*
X022446Y025070D01*
X022446Y024550D01*
X022546Y024450D01*
X022596Y024450D01*
X021946Y024450D02*
X021946Y025070D01*
X021946Y025450D01*
X021896Y025500D01*
X021496Y025500D01*
X021446Y025450D01*
X021446Y025070D01*
X022846Y027526D02*
X022844Y027560D01*
X022838Y027593D01*
X022829Y027625D01*
X022816Y027656D01*
X022800Y027686D01*
X022781Y027713D01*
X022758Y027738D01*
D20*
X022446Y027550D02*
X022446Y027290D01*
X021846Y027290D01*
X021216Y026660D01*
X021216Y026440D01*
X020846Y026440D02*
X020846Y026150D01*
X021046Y025950D01*
X021596Y025950D01*
X021846Y026200D01*
X021846Y026610D01*
X022446Y026610D02*
X022446Y026200D01*
X022446Y027550D02*
X022296Y027700D01*
X022446Y028250D02*
X022446Y028660D01*
X022446Y029340D02*
X022446Y029750D01*
X022456Y029350D02*
X022446Y029340D01*
X021846Y029340D01*
X021216Y028710D01*
X021216Y028490D01*
X020846Y028490D02*
X020846Y028200D01*
X021046Y028000D01*
X021596Y028000D01*
X021846Y028250D01*
X021846Y028660D01*
X021596Y030050D02*
X021046Y030050D01*
X020846Y030250D01*
X020846Y030540D01*
X021216Y030540D02*
X021216Y030760D01*
X021846Y031390D01*
X022446Y031390D01*
X022446Y031800D01*
X022456Y031400D02*
X022446Y031390D01*
X022446Y030710D02*
X022446Y030300D01*
X021846Y030300D02*
X021596Y030050D01*
X021846Y030300D02*
X021846Y030710D01*
X021596Y032100D02*
X021046Y032100D01*
X020846Y032300D01*
X020846Y032590D01*
X021216Y032590D02*
X021216Y032860D01*
X021846Y033490D01*
X022446Y033490D01*
X022456Y033490D01*
X022446Y033500D01*
X022546Y033500D01*
X022896Y033150D01*
X022446Y032810D02*
X022446Y032400D01*
X021846Y032350D02*
X021596Y032100D01*
X021846Y032350D02*
X021846Y032810D01*
X016146Y025750D02*
X015746Y025750D01*
X015546Y025550D01*
X013246Y025550D01*
X013246Y031550D01*
X013396Y031700D01*
X013771Y031700D01*
X014396Y032326D01*
X014396Y033050D01*
X013096Y031700D02*
X013246Y031550D01*
X013096Y031700D02*
X012396Y031700D01*
X012696Y029550D02*
X011996Y029550D01*
X013796Y029550D02*
X014496Y029550D01*
X013246Y025550D02*
X013246Y024150D01*
X014646Y022750D01*
X014646Y021604D01*
X014293Y021250D01*
X011646Y021250D01*
X008496Y021250D01*
X008296Y021450D01*
X006646Y024300D02*
X010443Y024300D01*
X010796Y024654D01*
X010796Y025250D01*
X008196Y029600D02*
X007496Y029600D01*
X009996Y030640D02*
X009996Y030700D01*
X014946Y024800D02*
X015046Y024800D01*
X015146Y024700D01*
X015481Y024700D01*
X015471Y024690D01*
X016071Y024690D01*
X016071Y024010D02*
X016556Y024010D01*
X016646Y024100D01*
X016646Y024300D01*
X016071Y024010D02*
X015471Y024010D01*
X015471Y024690D02*
X015456Y024690D01*
X015481Y024700D02*
X015496Y024700D01*
X016146Y021850D02*
X015996Y021700D01*
X016146Y021850D02*
X016456Y021850D01*
X016456Y021840D01*
X016496Y021800D01*
X016446Y021800D01*
X016496Y021300D02*
X016046Y021300D01*
X015996Y021350D01*
X017136Y021250D02*
X017390Y021300D01*
X017596Y021506D01*
X017596Y021850D01*
X017136Y021850D01*
X017946Y021850D02*
X017946Y021524D01*
X018170Y021300D01*
X018356Y021200D01*
X018356Y021800D02*
X018356Y021850D01*
X017946Y021850D01*
X019036Y021800D02*
X019046Y021850D01*
X019196Y021850D01*
X019446Y021600D01*
X019146Y021200D02*
X019446Y020900D01*
X019146Y021200D02*
X019036Y021200D01*
X018996Y021200D01*
X020946Y022710D02*
X021356Y022300D01*
X021356Y021700D01*
X021346Y021700D01*
X021346Y021100D01*
X022046Y021150D02*
X022046Y021700D01*
X022036Y021700D01*
X022036Y022300D01*
X022446Y022710D01*
X022446Y023130D01*
X020946Y023130D02*
X020946Y022710D01*
X012496Y014500D02*
X010596Y014500D01*
D21*
X017946Y014550D03*
X017946Y016950D03*
X021646Y016950D03*
D22*
X019996Y010750D02*
X021046Y009700D01*
X021496Y009700D01*
X021146Y009750D01*
X014496Y028100D02*
X014496Y028510D01*
X014496Y030590D02*
X014496Y031000D01*
X011996Y031000D02*
X011996Y030590D01*
X011996Y029910D02*
X011996Y029550D01*
X011996Y029190D01*
X011996Y028510D02*
X011996Y028100D01*
X010396Y030950D02*
X010246Y030950D01*
X009996Y030700D01*
X009996Y028560D02*
X009996Y028150D01*
X007496Y028150D02*
X007496Y028560D01*
X007496Y029240D02*
X007496Y029600D01*
X007496Y029960D01*
X007496Y030000D01*
X007496Y030640D02*
X007496Y030750D01*
X007296Y030950D01*
X007096Y030950D01*
D23*
X017796Y032036D02*
X017796Y032876D01*
X017884Y033088D02*
X018046Y033250D01*
X017884Y033088D02*
X017861Y033063D01*
X017842Y033036D01*
X017826Y033006D01*
X017813Y032975D01*
X017804Y032943D01*
X017798Y032910D01*
X017796Y032876D01*
X018396Y032774D02*
X018396Y033500D01*
X018696Y033250D02*
X019108Y032838D01*
X019196Y032626D02*
X019196Y031816D01*
X018984Y031720D02*
X018961Y031745D01*
X018942Y031772D01*
X018926Y031802D01*
X018913Y031833D01*
X018904Y031865D01*
X018898Y031898D01*
X018896Y031932D01*
X018896Y032000D01*
X018646Y031916D02*
X018648Y031882D01*
X018654Y031849D01*
X018663Y031817D01*
X018676Y031786D01*
X018692Y031756D01*
X018711Y031729D01*
X018734Y031704D01*
X019823Y030615D01*
X019693Y030561D02*
X018484Y031770D01*
X018646Y031916D02*
X018646Y032276D01*
X018558Y032488D02*
X018484Y032562D01*
X018461Y032587D01*
X018442Y032614D01*
X018426Y032644D01*
X018413Y032675D01*
X018404Y032707D01*
X018398Y032740D01*
X018396Y032774D01*
X018558Y032488D02*
X018581Y032463D01*
X018600Y032436D01*
X018616Y032406D01*
X018629Y032375D01*
X018638Y032343D01*
X018644Y032310D01*
X018646Y032276D01*
X018396Y031982D02*
X018398Y031948D01*
X018404Y031915D01*
X018413Y031883D01*
X018426Y031852D01*
X018442Y031822D01*
X018461Y031795D01*
X018484Y031770D01*
X018396Y031982D02*
X018396Y032000D01*
X018065Y031677D02*
X018038Y031690D01*
X018012Y031705D01*
X017988Y031723D01*
X017966Y031743D01*
X017965Y031743D02*
X017884Y031824D01*
X018065Y031677D02*
X018198Y031623D01*
X018297Y031557D02*
X019343Y030511D01*
X019473Y030565D02*
X018046Y031992D01*
X018046Y032000D01*
X017884Y031824D02*
X017861Y031849D01*
X017842Y031876D01*
X017826Y031906D01*
X017813Y031937D01*
X017804Y031969D01*
X017798Y032002D01*
X017796Y032036D01*
X018198Y031623D02*
X018225Y031610D01*
X018251Y031595D01*
X018275Y031577D01*
X018297Y031557D01*
X018984Y031720D02*
X019631Y031073D01*
X019685Y031203D02*
X019284Y031604D01*
X019261Y031629D01*
X019242Y031656D01*
X019226Y031686D01*
X019213Y031717D01*
X019204Y031749D01*
X019198Y031782D01*
X019196Y031816D01*
X019446Y032450D02*
X019993Y032997D01*
X019882Y033127D02*
X019907Y033150D01*
X019934Y033169D01*
X019964Y033185D01*
X019995Y033198D01*
X020027Y033207D01*
X020060Y033213D01*
X020094Y033215D01*
X020311Y033215D01*
X020446Y033350D01*
X020446Y033580D01*
X020476Y033610D01*
X020311Y033085D02*
X020205Y033085D01*
X020311Y033085D02*
X020446Y032950D01*
X020446Y032620D01*
X020476Y032590D01*
X020205Y033085D02*
X020171Y033083D01*
X020138Y033077D01*
X020106Y033068D01*
X020075Y033055D01*
X020045Y033039D01*
X020018Y033020D01*
X019993Y032997D01*
X019881Y033127D02*
X019742Y032988D01*
X019530Y032900D02*
X019446Y032900D01*
X019530Y032900D02*
X019564Y032902D01*
X019597Y032908D01*
X019629Y032917D01*
X019660Y032930D01*
X019690Y032946D01*
X019717Y032965D01*
X019742Y032988D01*
X019108Y032838D02*
X019131Y032813D01*
X019150Y032786D01*
X019166Y032756D01*
X019179Y032725D01*
X019188Y032693D01*
X019194Y032660D01*
X019196Y032626D01*
X019685Y031203D02*
X019710Y031180D01*
X019737Y031161D01*
X019767Y031145D01*
X019798Y031132D01*
X019830Y031123D01*
X019863Y031117D01*
X019897Y031115D01*
X020137Y031115D01*
X020137Y030985D02*
X019844Y030985D01*
X019810Y030987D01*
X019777Y030993D01*
X019745Y031002D01*
X019714Y031015D01*
X019684Y031031D01*
X019657Y031050D01*
X019632Y031073D01*
X020137Y031115D02*
X020171Y031117D01*
X020204Y031123D01*
X020236Y031132D01*
X020267Y031145D01*
X020297Y031161D01*
X020324Y031180D01*
X020349Y031203D01*
X020358Y031212D01*
X020446Y031424D02*
X020446Y031530D01*
X020476Y031560D01*
X020446Y031424D02*
X020444Y031390D01*
X020438Y031357D01*
X020429Y031325D01*
X020416Y031294D01*
X020400Y031264D01*
X020381Y031237D01*
X020358Y031212D01*
X020349Y030897D02*
X020358Y030888D01*
X020446Y030676D02*
X020446Y030570D01*
X020476Y030540D01*
X020446Y030676D02*
X020444Y030710D01*
X020438Y030743D01*
X020429Y030775D01*
X020416Y030806D01*
X020400Y030836D01*
X020381Y030863D01*
X020358Y030888D01*
X020349Y030897D02*
X020324Y030920D01*
X020297Y030939D01*
X020267Y030955D01*
X020236Y030968D01*
X020204Y030977D01*
X020171Y030983D01*
X020137Y030985D01*
X019911Y030403D02*
X019911Y029501D01*
X019781Y029447D02*
X019781Y030349D01*
X019911Y030403D02*
X019909Y030437D01*
X019903Y030470D01*
X019894Y030502D01*
X019881Y030533D01*
X019865Y030563D01*
X019846Y030590D01*
X019823Y030615D01*
X019561Y030353D02*
X019561Y027363D01*
X019431Y027197D02*
X019431Y030299D01*
X019781Y030349D02*
X019779Y030383D01*
X019773Y030416D01*
X019764Y030448D01*
X019751Y030479D01*
X019735Y030509D01*
X019716Y030536D01*
X019693Y030561D01*
X019473Y030565D02*
X019496Y030540D01*
X019515Y030513D01*
X019531Y030483D01*
X019544Y030452D01*
X019553Y030420D01*
X019559Y030387D01*
X019561Y030353D01*
X019431Y030299D02*
X019429Y030333D01*
X019423Y030366D01*
X019414Y030398D01*
X019401Y030429D01*
X019385Y030459D01*
X019366Y030486D01*
X019343Y030511D01*
X019781Y029447D02*
X019783Y029413D01*
X019789Y029380D01*
X019798Y029348D01*
X019811Y029317D01*
X019827Y029287D01*
X019846Y029260D01*
X019869Y029235D01*
X020066Y029038D01*
X020100Y029188D02*
X019999Y029289D01*
X020388Y029142D02*
X020411Y029167D01*
X020430Y029194D01*
X020446Y029224D01*
X020459Y029255D01*
X020468Y029287D01*
X020474Y029320D01*
X020476Y029354D01*
X020476Y029510D01*
X020446Y029480D01*
X020312Y029100D02*
X020278Y029102D01*
X020245Y029108D01*
X020213Y029117D01*
X020182Y029130D01*
X020152Y029146D01*
X020125Y029165D01*
X020100Y029188D01*
X020067Y029038D02*
X020092Y029015D01*
X020119Y028996D01*
X020149Y028980D01*
X020180Y028967D01*
X020212Y028958D01*
X020245Y028952D01*
X020279Y028950D01*
X020300Y028949D01*
X020321Y028944D01*
X020341Y028938D01*
X020361Y028928D01*
X020378Y028916D01*
X020394Y028902D01*
X020476Y028704D02*
X020476Y028490D01*
X020446Y028520D01*
X020477Y028704D02*
X020475Y028735D01*
X020470Y028767D01*
X020461Y028797D01*
X020449Y028826D01*
X020434Y028854D01*
X020416Y028879D01*
X020395Y028903D01*
X020370Y029124D02*
X020388Y029142D01*
X020370Y029124D02*
X020358Y029114D01*
X020343Y029106D01*
X020328Y029102D01*
X020312Y029100D01*
X019999Y029289D02*
X019976Y029314D01*
X019957Y029341D01*
X019941Y029371D01*
X019928Y029402D01*
X019919Y029434D01*
X019913Y029467D01*
X019911Y029501D01*
X018896Y029050D02*
X018896Y029035D01*
X018549Y028688D01*
X018461Y028476D02*
X018461Y026994D01*
X018331Y026994D02*
X018331Y028476D01*
X018243Y028688D02*
X017896Y029035D01*
X017896Y029050D01*
X018243Y028688D02*
X018266Y028663D01*
X018285Y028636D01*
X018301Y028606D01*
X018314Y028575D01*
X018323Y028543D01*
X018329Y028510D01*
X018331Y028476D01*
X018461Y028476D02*
X018463Y028510D01*
X018469Y028543D01*
X018478Y028575D01*
X018491Y028606D01*
X018507Y028636D01*
X018526Y028663D01*
X018549Y028688D01*
X019649Y027151D02*
X019662Y027141D01*
X019676Y027133D01*
X019692Y027129D01*
X019708Y027127D01*
X019883Y027127D01*
X019896Y027240D01*
X020132Y027240D01*
X020344Y027328D02*
X020476Y027460D01*
X020344Y027328D02*
X020319Y027305D01*
X020292Y027286D01*
X020262Y027270D01*
X020231Y027257D01*
X020199Y027248D01*
X020166Y027242D01*
X020132Y027240D01*
X019649Y027151D02*
X019626Y027176D01*
X019607Y027203D01*
X019591Y027233D01*
X019578Y027264D01*
X019569Y027296D01*
X019563Y027329D01*
X019561Y027363D01*
X019431Y027197D02*
X019433Y027163D01*
X019439Y027130D01*
X019448Y027098D01*
X019461Y027067D01*
X019477Y027037D01*
X019496Y027010D01*
X019519Y026985D01*
X019669Y026835D01*
X019921Y026585D01*
X019896Y026560D01*
X020006Y026550D01*
X020122Y026550D01*
X020333Y026462D02*
X020345Y026453D01*
X020358Y026446D01*
X020372Y026441D01*
X020387Y026440D01*
X020476Y026440D01*
X020334Y026462D02*
X020309Y026485D01*
X020282Y026504D01*
X020252Y026520D01*
X020221Y026533D01*
X020189Y026542D01*
X020156Y026548D01*
X020122Y026550D01*
X018811Y026229D02*
X018811Y026165D01*
X018573Y026165D02*
X018573Y026229D01*
X018811Y026229D02*
X018809Y026258D01*
X018804Y026286D01*
X018795Y026314D01*
X018784Y026341D01*
X018769Y026365D01*
X018751Y026388D01*
X018730Y026409D01*
X018707Y026427D01*
X018683Y026442D01*
X018656Y026453D01*
X018628Y026462D01*
X018600Y026467D01*
X018571Y026469D01*
X018221Y026469D01*
X018202Y026471D01*
X018183Y026476D01*
X018166Y026484D01*
X018150Y026495D01*
X018137Y026508D01*
X018126Y026524D01*
X018118Y026541D01*
X018113Y026560D01*
X018111Y026579D01*
X018111Y026644D01*
X018113Y026663D01*
X018118Y026682D01*
X018126Y026699D01*
X018137Y026715D01*
X018150Y026728D01*
X018166Y026739D01*
X018183Y026747D01*
X018202Y026752D01*
X018221Y026754D01*
X018221Y026884D02*
X018192Y026882D01*
X018164Y026877D01*
X018136Y026868D01*
X018109Y026857D01*
X018085Y026842D01*
X018062Y026824D01*
X018041Y026803D01*
X018023Y026780D01*
X018008Y026756D01*
X017997Y026729D01*
X017988Y026701D01*
X017983Y026673D01*
X017981Y026644D01*
X017981Y026579D01*
X017983Y026550D01*
X017988Y026522D01*
X017997Y026494D01*
X018008Y026467D01*
X018023Y026443D01*
X018041Y026420D01*
X018062Y026399D01*
X018085Y026381D01*
X018109Y026366D01*
X018136Y026355D01*
X018164Y026346D01*
X018192Y026341D01*
X018221Y026339D01*
X018463Y026339D01*
X018482Y026337D01*
X018501Y026332D01*
X018518Y026324D01*
X018534Y026313D01*
X018547Y026300D01*
X018558Y026284D01*
X018566Y026267D01*
X018571Y026248D01*
X018573Y026229D01*
X018811Y026165D02*
X018809Y026136D01*
X018804Y026108D01*
X018795Y026080D01*
X018784Y026053D01*
X018769Y026029D01*
X018751Y026006D01*
X018730Y025985D01*
X018707Y025967D01*
X018683Y025952D01*
X018656Y025941D01*
X018628Y025932D01*
X018600Y025927D01*
X018571Y025925D01*
X018221Y025925D01*
X018202Y025923D01*
X018183Y025918D01*
X018166Y025910D01*
X018150Y025899D01*
X018137Y025886D01*
X018126Y025870D01*
X018118Y025853D01*
X018113Y025834D01*
X018111Y025815D01*
X018111Y025750D01*
X018113Y025731D01*
X018118Y025712D01*
X018126Y025695D01*
X018137Y025679D01*
X018150Y025666D01*
X018166Y025655D01*
X018183Y025647D01*
X018202Y025642D01*
X018221Y025640D01*
X018221Y025510D02*
X018192Y025512D01*
X018164Y025517D01*
X018136Y025526D01*
X018109Y025537D01*
X018085Y025552D01*
X018062Y025570D01*
X018041Y025591D01*
X018023Y025614D01*
X018008Y025638D01*
X017997Y025665D01*
X017988Y025693D01*
X017983Y025721D01*
X017981Y025750D01*
X017981Y025815D01*
X017983Y025844D01*
X017988Y025872D01*
X017997Y025900D01*
X018008Y025927D01*
X018023Y025951D01*
X018041Y025974D01*
X018062Y025995D01*
X018085Y026013D01*
X018109Y026028D01*
X018136Y026039D01*
X018164Y026048D01*
X018192Y026053D01*
X018221Y026055D01*
X018463Y026055D01*
X018482Y026057D01*
X018501Y026062D01*
X018518Y026070D01*
X018534Y026081D01*
X018547Y026094D01*
X018558Y026110D01*
X018566Y026127D01*
X018571Y026146D01*
X018573Y026165D01*
X018461Y025400D02*
X018461Y024951D01*
X018331Y024897D02*
X018331Y025400D01*
X018461Y025400D02*
X018459Y025429D01*
X018454Y025457D01*
X018445Y025485D01*
X018434Y025512D01*
X018419Y025536D01*
X018401Y025559D01*
X018380Y025580D01*
X018357Y025598D01*
X018333Y025613D01*
X018306Y025624D01*
X018278Y025633D01*
X018250Y025638D01*
X018221Y025640D01*
X018221Y025510D02*
X018240Y025508D01*
X018259Y025503D01*
X018276Y025495D01*
X018292Y025484D01*
X018305Y025471D01*
X018316Y025455D01*
X018324Y025438D01*
X018329Y025419D01*
X018331Y025400D01*
X018331Y024897D02*
X018333Y024863D01*
X018339Y024830D01*
X018348Y024798D01*
X018361Y024767D01*
X018377Y024737D01*
X018396Y024710D01*
X018419Y024685D01*
X018531Y024573D01*
X018585Y024703D02*
X018549Y024739D01*
X018532Y024573D02*
X018557Y024550D01*
X018584Y024531D01*
X018614Y024515D01*
X018645Y024502D01*
X018677Y024493D01*
X018710Y024487D01*
X018744Y024485D01*
X019674Y024485D01*
X019749Y024615D02*
X018797Y024615D01*
X018763Y024617D01*
X018730Y024623D01*
X018698Y024632D01*
X018667Y024645D01*
X018637Y024661D01*
X018610Y024680D01*
X018585Y024703D01*
X018549Y024739D02*
X018526Y024764D01*
X018507Y024791D01*
X018491Y024821D01*
X018478Y024852D01*
X018469Y024884D01*
X018463Y024917D01*
X018461Y024951D01*
X019674Y024485D02*
X019708Y024483D01*
X019741Y024477D01*
X019773Y024468D01*
X019804Y024455D01*
X019834Y024439D01*
X019861Y024420D01*
X019886Y024397D01*
X020396Y023887D01*
X020396Y023760D01*
X020346Y023835D01*
X020396Y023760D02*
X021112Y023760D01*
X021324Y023672D02*
X021358Y023638D01*
X021446Y023426D02*
X021446Y023130D01*
X021946Y023368D02*
X021944Y023402D01*
X021938Y023435D01*
X021929Y023467D01*
X021916Y023498D01*
X021900Y023528D01*
X021881Y023555D01*
X021858Y023580D01*
X021086Y024352D01*
X020874Y024440D02*
X020396Y024440D01*
X020302Y024396D01*
X020216Y024396D01*
X020346Y024365D02*
X020396Y024440D01*
X020216Y024396D02*
X020182Y024398D01*
X020149Y024404D01*
X020117Y024413D01*
X020086Y024426D01*
X020056Y024442D01*
X020029Y024461D01*
X020004Y024484D01*
X019961Y024527D01*
X019936Y024550D01*
X019909Y024569D01*
X019879Y024585D01*
X019848Y024598D01*
X019816Y024607D01*
X019783Y024613D01*
X019749Y024615D01*
X020874Y024440D02*
X020908Y024438D01*
X020941Y024432D01*
X020973Y024423D01*
X021004Y024410D01*
X021034Y024394D01*
X021061Y024375D01*
X021086Y024352D01*
X021112Y023760D02*
X021146Y023758D01*
X021179Y023752D01*
X021211Y023743D01*
X021242Y023730D01*
X021272Y023714D01*
X021299Y023695D01*
X021324Y023672D01*
X021358Y023638D02*
X021381Y023613D01*
X021400Y023586D01*
X021416Y023556D01*
X021429Y023525D01*
X021438Y023493D01*
X021444Y023460D01*
X021446Y023426D01*
X021946Y023368D02*
X021946Y023130D01*
X018221Y026754D02*
X018250Y026756D01*
X018278Y026761D01*
X018306Y026770D01*
X018333Y026781D01*
X018357Y026796D01*
X018380Y026814D01*
X018401Y026835D01*
X018419Y026858D01*
X018434Y026882D01*
X018445Y026909D01*
X018454Y026937D01*
X018459Y026965D01*
X018461Y026994D01*
X018331Y026994D02*
X018329Y026975D01*
X018324Y026956D01*
X018316Y026939D01*
X018305Y026923D01*
X018292Y026910D01*
X018276Y026899D01*
X018259Y026891D01*
X018240Y026886D01*
X018221Y026884D01*
D24*
X009496Y014500D02*
X007596Y014500D01*
M02*
