%
M48
M72
T01C0.0130
T02C0.0236
T03C0.0394
T04C0.0400
T05C0.0670
%
T01
X6096Y7000
X7296Y6200
X8396Y9300
X7496Y10400
X6996Y11500
X7496Y12000
X9196Y11800
X11046Y13400
X11196Y12700
X11396Y15000
X10596Y15000
X9796Y15000
X8996Y15000
X8196Y15000
X7396Y15000
X7996Y16650
X7546Y17200
X7696Y17900
X8046Y18650
X9196Y17900
X9246Y17200
X8796Y16650
X10096Y17300
X10546Y16750
X10096Y17950
X9696Y18650
X10546Y18650
X11196Y18450
X11596Y18000
X11796Y17300
X11396Y16750
X12046Y18900
X12046Y19600
X13246Y20200
X13196Y20800
X12596Y21300
X10806Y22860
X10296Y22300
X10546Y21950
X9296Y22000
X8246Y22100
X7896Y22750
X6696Y23500
X7496Y24550
X7246Y25550
X6846Y25950
X6846Y26650
X7296Y27050
X8646Y26250
X8646Y25850
X9816Y25580
X10796Y25800
X11196Y26300
X11896Y26500
X12896Y26550
X13596Y26550
X14196Y26550
X14896Y26550
X15496Y26550
X16196Y26550
X16696Y26550
X17496Y26550
X18496Y25650
X18546Y24650
X19646Y24350
X19996Y24500
X20046Y23900
X19896Y23200
X20396Y22700
X20896Y21500
X20396Y21000
X19296Y19200
X19096Y18900
X18896Y18600
X19296Y18600
X18896Y19200
X19996Y18100
X19296Y16400
X19096Y16100
X18896Y15800
X19296Y15800
X18896Y16400
X18196Y16900
X16296Y15500
X19096Y11650
X19096Y11150
X19596Y11150
X19596Y11650
X20096Y11650
X20096Y12150
X20096Y12650
X20596Y12650
X20596Y12150
X20596Y11650
X20596Y11150
X20096Y11150
X21096Y11650
X21096Y12150
X21096Y12650
X21596Y11650
X22096Y11650
X22096Y11150
X22596Y11150
X22596Y11650
X22496Y15200
X22096Y15200
X21696Y15200
X21896Y19400
X22896Y22500
X21746Y22950
X21596Y23300
X21396Y23700
X21096Y25650
X21296Y26900
X21846Y26950
X22396Y26900
X22696Y28100
X21796Y28500
X20696Y29200
X20296Y30200
X21096Y30200
X22696Y31100
X23296Y30000
X23296Y29200
X22396Y25650
X20296Y27000
X19846Y27500
X19596Y28500
X18696Y28100
X18196Y28600
X18196Y29200
X17696Y29200
X17696Y30000
X18196Y30000
X18196Y30600
X18696Y31100
X19046Y31650
X17196Y31100
X16796Y32200
X15596Y29700
X15696Y29300
X14796Y29700
X14696Y29300
X13196Y28100
X12696Y28600
X12696Y29200
X12696Y30000
X12696Y30600
X13196Y31100
X16746Y28600
X17196Y28100
X18996Y26800
X19796Y25650
X18796Y22650
X18196Y22350
X17696Y22550
X17096Y23000
X17796Y21800
X17096Y21400
X16696Y19800
X16296Y19800
X15896Y19800
X15496Y19800
X15196Y22150
X15246Y23800
X13596Y24600
X12296Y24000
X11996Y24800
X11596Y24750
X11196Y24800
X11096Y24400
X10996Y24000
X8396Y20200
X7346Y20150
X4646Y19500
X4546Y24550
X13696Y13400
X14096Y10100
X13096Y10100
X11396Y9500
X11396Y8900
X20396Y1100
T02
X14846Y9350
X12346Y9350
X17996Y31700
X20196Y32200
X21146Y32200
T03
X23946Y30000
X23946Y29000
X23946Y28000
X23946Y27000
X23946Y26000
X23946Y25000
X23946Y24000
X23946Y23000
X23946Y22000
X23946Y21000
X23946Y20000
X23946Y19000
X23946Y18000
X23946Y17000
X23946Y16000
X23946Y15000
X23946Y14000
X23946Y13000
X23946Y12000
X23946Y11000
X23946Y10000
X23946Y9000
X23946Y8000
X24946Y8000
X24946Y9000
X24946Y10000
X24946Y11000
X24946Y12000
X24946Y13000
X24946Y14000
X24946Y15000
X24946Y16000
X24946Y17000
X24946Y18000
X24946Y19000
X24946Y20000
X24946Y21000
X24946Y22000
X24946Y23000
X24946Y24000
X24946Y25000
X24946Y26000
X24946Y27000
X24946Y28000
X24946Y29000
X24946Y30000
X19196Y7250
X19196Y6250
X19196Y5250
X19196Y4250
X19196Y3250
X18196Y3250
X18196Y4250
X18196Y5250
X18196Y6250
X18196Y7250
X5946Y8000
X5946Y9000
X5946Y10000
X5946Y11000
X5946Y12000
X5946Y13000
X5946Y14000
X5946Y15000
X5946Y16000
X5946Y17000
X5946Y18000
X5946Y19000
X5946Y20000
X5946Y21000
X5946Y22000
X5946Y23000
X5946Y24000
X5946Y25000
X5946Y26000
X5946Y27000
X5946Y28000
X5946Y29000
X5946Y30000
X4946Y30000
X4946Y29000
X4946Y28000
X4946Y27000
X4946Y26000
X4946Y25000
X4946Y24000
X4946Y23000
X4946Y22000
X4946Y21000
X4946Y20000
X4946Y19000
X4946Y18000
X4946Y17000
X4946Y16000
X4946Y15000
X4946Y14000
X4946Y13000
X4946Y12000
X4946Y11000
X4946Y10000
X4946Y9000
X4946Y8000
T04
X4746Y32900
X4746Y33900
X5746Y33900
X5746Y32900
X6746Y32900
X6746Y33900
X7746Y33900
X7746Y32900
X8746Y32900
X8746Y33900
X9746Y33900
X9746Y32900
X15896Y32900
X15896Y33900
X16896Y33900
X16896Y32900
X17896Y32900
X17896Y33900
X18896Y33900
X18896Y32900
X19896Y32900
X19896Y33900
T05
X4946Y3500
X9696Y3500
X23496Y32700
X13496Y33800
X11896Y33800
M30
