G75*
%MOIN*%
%OFA0B0*%
%FSLAX24Y24*%
%IPPOS*%
%LPD*%
%AMOC8*
5,1,8,0,0,1.08239X$1,22.5*
%
%ADD10R,0.0671X0.0671*%
%ADD11C,0.0671*%
%ADD12OC8,0.1085*%
%ADD13R,0.0500X0.0430*%
%ADD14R,0.0430X0.0500*%
%ADD15OC8,0.0740*%
%ADD16R,0.0300X0.0580*%
%ADD17R,0.0300X0.0860*%
D10*
X005946Y008000D03*
X019196Y003250D03*
X024946Y008000D03*
D11*
X004946Y008000D03*
X004946Y009000D03*
X004946Y010000D03*
X004946Y011000D03*
X004946Y012000D03*
X004946Y013000D03*
X004946Y014000D03*
X004946Y015000D03*
X004946Y016000D03*
X004946Y017000D03*
X004946Y018000D03*
X004946Y019000D03*
X004946Y020000D03*
X004946Y021000D03*
X004946Y022000D03*
X004946Y023000D03*
X004946Y024000D03*
X004946Y025000D03*
X004946Y026000D03*
X004946Y027000D03*
X004946Y028000D03*
X004946Y029000D03*
X004946Y030000D03*
X005946Y030000D03*
X005946Y029000D03*
X005946Y028000D03*
X005946Y027000D03*
X005946Y026000D03*
X005946Y025000D03*
X005946Y024000D03*
X005946Y023000D03*
X005946Y022000D03*
X005946Y021000D03*
X005946Y020000D03*
X005946Y019000D03*
X005946Y018000D03*
X005946Y017000D03*
X005946Y016000D03*
X005946Y015000D03*
X005946Y014000D03*
X005946Y013000D03*
X005946Y012000D03*
X005946Y011000D03*
X005946Y010000D03*
X005946Y009000D03*
X018196Y007250D03*
X018196Y006250D03*
X018196Y005250D03*
X018196Y004250D03*
X018196Y003250D03*
X019196Y004250D03*
X019196Y005250D03*
X019196Y006250D03*
X019196Y007250D03*
X023946Y008000D03*
X023946Y009000D03*
X023946Y010000D03*
X023946Y011000D03*
X023946Y012000D03*
X023946Y013000D03*
X023946Y014000D03*
X023946Y015000D03*
X023946Y016000D03*
X023946Y017000D03*
X023946Y018000D03*
X023946Y019000D03*
X023946Y020000D03*
X023946Y021000D03*
X023946Y022000D03*
X023946Y023000D03*
X023946Y024000D03*
X023946Y025000D03*
X023946Y026000D03*
X023946Y027000D03*
X023946Y028000D03*
X023946Y029000D03*
X023946Y030000D03*
X024946Y030000D03*
X024946Y029000D03*
X024946Y028000D03*
X024946Y027000D03*
X024946Y026000D03*
X024946Y025000D03*
X024946Y024000D03*
X024946Y023000D03*
X024946Y022000D03*
X024946Y021000D03*
X024946Y020000D03*
X024946Y019000D03*
X024946Y018000D03*
X024946Y017000D03*
X024946Y016000D03*
X024946Y015000D03*
X024946Y014000D03*
X024946Y013000D03*
X024946Y012000D03*
X024946Y011000D03*
X024946Y010000D03*
X024946Y009000D03*
D12*
X019296Y001200D03*
X018146Y001200D03*
X004896Y031500D03*
X004896Y032650D03*
X004896Y033800D03*
D13*
X007496Y030640D03*
X007496Y029960D03*
X007496Y029240D03*
X007496Y028560D03*
X009996Y028560D03*
X009996Y029240D03*
X009996Y029960D03*
X009996Y030640D03*
X011996Y030590D03*
X011996Y029910D03*
X011996Y029190D03*
X011996Y028510D03*
X014496Y028510D03*
X014496Y029190D03*
X014496Y029910D03*
X014496Y030590D03*
X015471Y024690D03*
X015471Y024010D03*
X016071Y024010D03*
X016071Y024690D03*
X019896Y026560D03*
X019896Y027240D03*
X020396Y024440D03*
X020396Y023760D03*
X021846Y026610D03*
X022446Y026610D03*
X022446Y027290D03*
X021846Y027290D03*
X021846Y028660D03*
X021846Y029340D03*
X022446Y029340D03*
X022446Y028660D03*
X022446Y030710D03*
X021846Y030710D03*
X021846Y031390D03*
X022446Y031390D03*
X022446Y032810D03*
X021846Y032810D03*
X021846Y033490D03*
X022446Y033490D03*
D14*
X022036Y022300D03*
X022036Y021700D03*
X021356Y021700D03*
X021356Y022300D03*
X019036Y021800D03*
X019036Y021200D03*
X018356Y021200D03*
X018356Y021800D03*
X017136Y021850D03*
X017136Y021250D03*
X016456Y021250D03*
X016456Y021850D03*
D15*
X017896Y028050D03*
X017896Y029050D03*
X017896Y030050D03*
X018896Y030050D03*
X018896Y029050D03*
X018896Y028050D03*
X013396Y032700D03*
X013396Y033700D03*
X012396Y033700D03*
X012396Y032700D03*
X011396Y032700D03*
X010396Y032700D03*
X010396Y033700D03*
X011396Y033700D03*
X009396Y033700D03*
X009396Y032700D03*
X008396Y032700D03*
X008396Y033700D03*
X007396Y033700D03*
X007396Y032700D03*
D16*
X020476Y032590D03*
X020846Y032590D03*
X021216Y032590D03*
X021216Y033610D03*
X020476Y033610D03*
X020476Y031560D03*
X021216Y031560D03*
X021216Y030540D03*
X020846Y030540D03*
X020476Y030540D03*
X020476Y029510D03*
X021216Y029510D03*
X021216Y028490D03*
X020846Y028490D03*
X020476Y028490D03*
X020476Y027460D03*
X020476Y026440D03*
X020846Y026440D03*
X021216Y026440D03*
X021216Y027460D03*
D17*
X021446Y025070D03*
X020946Y025070D03*
X021946Y025070D03*
X022446Y025070D03*
X022446Y023130D03*
X021946Y023130D03*
X021446Y023130D03*
X020946Y023130D03*
M02*
