%
M48
M72
T01C0.0130
T02C0.0236
T03C0.0394
T04C0.0400
T05C0.0670
%
T01
X3600Y6200
X2400Y7000
X3800Y10400
X3300Y11500
X3800Y12000
X5500Y11800
X4700Y9300
X7500Y12700
X7350Y13400
X7700Y15000
X6900Y15000
X6100Y15000
X5300Y15000
X4500Y15000
X3700Y15000
X4100Y16500
X3500Y17100
X4900Y16500
X5400Y17100
X5450Y17900
X6850Y18600
X5900Y19800
X5050Y19800
X4700Y20200
X4650Y22000
X4200Y22750
X3000Y23500
X3550Y24550
X4900Y25900
X5300Y27000
X5750Y26900
X6120Y25580
X7100Y25800
X7550Y26600
X8300Y26700
X9200Y26550
X9900Y26550
X10500Y26550
X11200Y26550
X11800Y26550
X12500Y26550
X13000Y26550
X13800Y26550
X14800Y25650
X14850Y24650
X15950Y24350
X16300Y24500
X16350Y23900
X16200Y23200
X16700Y22700
X17200Y21500
X16700Y21000
X15600Y19200
X15400Y18900
X15200Y18600
X15600Y18600
X15200Y19200
X16300Y18100
X15600Y16400
X15400Y16100
X15200Y15800
X15600Y15800
X15200Y16400
X14500Y16900
X12600Y15500
X10000Y13400
X10400Y10100
X9400Y10100
X7700Y9500
X7700Y8900
X7500Y16950
X8000Y17450
X8000Y18000
X8000Y18500
X8350Y18900
X8350Y19600
X9500Y20800
X9550Y20200
X8900Y21300
X7110Y22860
X6850Y21950
X6600Y22300
X5600Y22000
X7300Y24000
X7400Y24400
X7300Y24900
X7900Y24700
X8300Y24900
X8750Y25500
X8600Y24000
X9900Y24600
X11500Y22150
X11550Y23800
X13400Y23000
X13900Y22450
X13400Y21400
X13000Y19800
X12600Y19800
X12200Y19800
X11800Y19800
X15000Y21600
X15700Y23100
X16100Y25650
X16600Y27000
X16150Y27500
X15900Y28500
X15000Y28100
X14500Y28600
X14500Y29200
X14000Y29200
X14000Y30000
X14500Y30000
X14500Y30600
X15000Y31100
X15350Y31650
X16600Y30200
X17000Y29200
X17400Y30200
X18100Y28500
X19000Y28100
X19600Y29200
X19600Y30000
X19000Y31100
X18700Y26900
X18150Y26950
X17600Y26900
X17400Y25650
X18700Y25650
X17700Y23700
X17900Y23300
X18050Y22950
X19200Y22500
X18200Y19400
X18000Y15200
X18400Y15200
X18800Y15200
X17400Y12650
X17400Y12150
X17400Y11650
X16900Y11650
X16900Y11150
X16400Y11150
X16400Y11650
X16400Y12150
X16400Y12650
X16900Y12650
X16900Y12150
X17900Y11650
X18400Y11650
X18400Y11150
X18900Y11150
X18900Y11650
X15900Y11650
X15900Y11150
X15400Y11150
X15400Y11650
X16700Y1100
X850Y24550
X4150Y26600
X4650Y27050
X9000Y28600
X9000Y29200
X9000Y30000
X9000Y30600
X9500Y31100
X11000Y29300
X11100Y29700
X11900Y29700
X12000Y29300
X13050Y28600
X13500Y28100
X15300Y26800
X13500Y31100
X13100Y32200
X9500Y28100
T02
X14300Y31700
X16500Y32200
X17450Y32200
T03
X20250Y30000
X20250Y29000
X20250Y28000
X20250Y27000
X20250Y26000
X20250Y25000
X20250Y24000
X20250Y23000
X20250Y22000
X20250Y21000
X20250Y20000
X20250Y19000
X20250Y18000
X20250Y17000
X20250Y16000
X20250Y15000
X20250Y14000
X20250Y13000
X20250Y12000
X20250Y11000
X20250Y10000
X20250Y9000
X20250Y8000
X21250Y8000
X21250Y9000
X21250Y10000
X21250Y11000
X21250Y12000
X21250Y13000
X21250Y14000
X21250Y15000
X21250Y16000
X21250Y17000
X21250Y18000
X21250Y19000
X21250Y20000
X21250Y21000
X21250Y22000
X21250Y23000
X21250Y24000
X21250Y25000
X21250Y26000
X21250Y27000
X21250Y28000
X21250Y29000
X21250Y30000
X15500Y7250
X15500Y6250
X15500Y5250
X15500Y4250
X15500Y3250
X14500Y3250
X14500Y4250
X14500Y5250
X14500Y6250
X14500Y7250
X2250Y8000
X2250Y9000
X2250Y10000
X2250Y11000
X2250Y12000
X2250Y13000
X2250Y14000
X2250Y15000
X2250Y16000
X2250Y17000
X2250Y18000
X2250Y19000
X2250Y20000
X2250Y21000
X2250Y22000
X2250Y23000
X2250Y24000
X2250Y25000
X2250Y26000
X2250Y27000
X2250Y28000
X2250Y29000
X2250Y30000
X1250Y30000
X1250Y29000
X1250Y28000
X1250Y27000
X1250Y26000
X1250Y25000
X1250Y24000
X1250Y23000
X1250Y22000
X1250Y21000
X1250Y20000
X1250Y19000
X1250Y18000
X1250Y17000
X1250Y16000
X1250Y15000
X1250Y14000
X1250Y13000
X1250Y12000
X1250Y11000
X1250Y10000
X1250Y9000
X1250Y8000
T04
X1050Y32900
X1050Y33900
X2050Y33900
X2050Y32900
X3050Y32900
X3050Y33900
X4050Y33900
X4050Y32900
X5050Y32900
X5050Y33900
X6050Y33900
X6050Y32900
X7050Y32900
X7050Y33900
X8050Y33900
X8050Y32900
X12200Y32900
X12200Y33900
X13200Y33900
X13200Y32900
X14200Y32900
X14200Y33900
X15200Y33900
X15200Y32900
X16200Y32900
X16200Y33900
T05
X1250Y3500
X6000Y3500
X19800Y32700
X10700Y33800
X9500Y33800
M30
