G75*
G70*
%OFA0B0*%
%FSLAX24Y24*%
%IPPOS*%
%LPD*%
%AMOC8*
5,1,8,0,0,1.08239X$1,22.5*
%
%ADD10C,0.0591*%
%ADD11C,0.1005*%
%ADD12C,0.0600*%
%ADD13C,0.0270*%
%ADD14C,0.0320*%
%ADD15C,0.0376*%
%ADD16C,0.0160*%
%ADD17C,0.0100*%
D10*
X004946Y008000D03*
X004946Y009000D03*
X004946Y010000D03*
X004946Y011000D03*
X004946Y012000D03*
X004946Y013000D03*
X004946Y014000D03*
X004946Y015000D03*
X004946Y016000D03*
X004946Y017000D03*
X004946Y018000D03*
X004946Y019000D03*
X004946Y020000D03*
X004946Y021000D03*
X004946Y022000D03*
X004946Y023000D03*
X004946Y024000D03*
X004946Y025000D03*
X004946Y026000D03*
X004946Y027000D03*
X004946Y028000D03*
X004946Y029000D03*
X004946Y030000D03*
X005946Y030000D03*
X005946Y029000D03*
X005946Y028000D03*
X005946Y027000D03*
X005946Y026000D03*
X005946Y025000D03*
X005946Y024000D03*
X005946Y023000D03*
X005946Y022000D03*
X005946Y021000D03*
X005946Y020000D03*
X005946Y019000D03*
X005946Y018000D03*
X005946Y017000D03*
X005946Y016000D03*
X005946Y015000D03*
X005946Y014000D03*
X005946Y013000D03*
X005946Y012000D03*
X005946Y011000D03*
X005946Y010000D03*
X005946Y009000D03*
X005946Y008000D03*
X018196Y007250D03*
X018196Y006250D03*
X018196Y005250D03*
X018196Y004250D03*
X018196Y003250D03*
X019196Y003250D03*
X019196Y004250D03*
X019196Y005250D03*
X019196Y006250D03*
X019196Y007250D03*
X023946Y008000D03*
X023946Y009000D03*
X023946Y010000D03*
X023946Y011000D03*
X023946Y012000D03*
X023946Y013000D03*
X023946Y014000D03*
X023946Y015000D03*
X023946Y016000D03*
X023946Y017000D03*
X023946Y018000D03*
X023946Y019000D03*
X023946Y020000D03*
X023946Y021000D03*
X023946Y022000D03*
X023946Y023000D03*
X023946Y024000D03*
X023946Y025000D03*
X023946Y026000D03*
X023946Y027000D03*
X023946Y028000D03*
X023946Y029000D03*
X023946Y030000D03*
X024946Y030000D03*
X024946Y029000D03*
X024946Y028000D03*
X024946Y027000D03*
X024946Y026000D03*
X024946Y025000D03*
X024946Y024000D03*
X024946Y023000D03*
X024946Y022000D03*
X024946Y021000D03*
X024946Y020000D03*
X024946Y019000D03*
X024946Y018000D03*
X024946Y017000D03*
X024946Y016000D03*
X024946Y015000D03*
X024946Y014000D03*
X024946Y013000D03*
X024946Y012000D03*
X024946Y011000D03*
X024946Y010000D03*
X024946Y009000D03*
X024946Y008000D03*
D11*
X009696Y003500D03*
X004946Y003500D03*
X023496Y032700D03*
X013496Y033800D03*
X011896Y033800D03*
D12*
X009746Y033900D03*
X009746Y032900D03*
X008746Y032900D03*
X008746Y033900D03*
X007746Y033900D03*
X007746Y032900D03*
X006746Y032900D03*
X006746Y033900D03*
X005746Y033900D03*
X005746Y032900D03*
X004746Y032900D03*
X004746Y033900D03*
X015896Y033900D03*
X015896Y032900D03*
X016896Y032900D03*
X016896Y033900D03*
X017896Y033900D03*
X017896Y032900D03*
X018896Y032900D03*
X018896Y033900D03*
X019896Y033900D03*
X019896Y032900D03*
D13*
X019046Y031650D03*
X018696Y031100D03*
X018196Y030600D03*
X018196Y030000D03*
X017696Y030000D03*
X017696Y029200D03*
X018196Y029200D03*
X018196Y028600D03*
X018696Y028100D03*
X019596Y028500D03*
X019846Y027500D03*
X020296Y027000D03*
X019796Y025650D03*
X019996Y024500D03*
X019646Y024350D03*
X020046Y023900D03*
X019896Y023200D03*
X020396Y022700D03*
X020896Y021500D03*
X020396Y021000D03*
X019296Y019200D03*
X019096Y018900D03*
X018896Y018600D03*
X019296Y018600D03*
X018896Y019200D03*
X019996Y018100D03*
X019296Y016400D03*
X019096Y016100D03*
X018896Y015800D03*
X019296Y015800D03*
X018896Y016400D03*
X018196Y016900D03*
X016296Y015500D03*
X019096Y011650D03*
X019096Y011150D03*
X019596Y011150D03*
X019596Y011650D03*
X020096Y011650D03*
X020096Y012150D03*
X020096Y012650D03*
X020596Y012650D03*
X020596Y012150D03*
X020596Y011650D03*
X020596Y011150D03*
X020096Y011150D03*
X021096Y011650D03*
X021096Y012150D03*
X021096Y012650D03*
X021596Y011650D03*
X022096Y011650D03*
X022096Y011150D03*
X022596Y011150D03*
X022596Y011650D03*
X022496Y015200D03*
X022096Y015200D03*
X021696Y015200D03*
X021896Y019400D03*
X022896Y022500D03*
X021746Y022950D03*
X021596Y023300D03*
X021396Y023700D03*
X021096Y025650D03*
X021296Y026900D03*
X021846Y026950D03*
X022396Y026900D03*
X022696Y028100D03*
X021796Y028500D03*
X020696Y029200D03*
X020296Y030200D03*
X021096Y030200D03*
X022696Y031100D03*
X023296Y030000D03*
X023296Y029200D03*
X022396Y025650D03*
X018996Y026800D03*
X018496Y025650D03*
X018546Y024650D03*
X018796Y022650D03*
X018196Y022350D03*
X017696Y022550D03*
X017096Y023000D03*
X017796Y021800D03*
X017096Y021400D03*
X016696Y019800D03*
X016296Y019800D03*
X015896Y019800D03*
X015496Y019800D03*
X015196Y022150D03*
X015246Y023800D03*
X013596Y024600D03*
X012296Y024000D03*
X011996Y024800D03*
X011596Y024750D03*
X011196Y024800D03*
X011096Y024400D03*
X010996Y024000D03*
X010806Y022860D03*
X010296Y022300D03*
X010546Y021950D03*
X009296Y022000D03*
X008246Y022100D03*
X007896Y022750D03*
X006696Y023500D03*
X007496Y024550D03*
X007246Y025550D03*
X006846Y025950D03*
X006846Y026650D03*
X007296Y027050D03*
X008646Y026250D03*
X008646Y025850D03*
X009816Y025580D03*
X010796Y025800D03*
X011196Y026300D03*
X011896Y026500D03*
X012896Y026550D03*
X013596Y026550D03*
X014196Y026550D03*
X014896Y026550D03*
X015496Y026550D03*
X016196Y026550D03*
X016696Y026550D03*
X017496Y026550D03*
X017196Y028100D03*
X016746Y028600D03*
X015696Y029300D03*
X015596Y029700D03*
X014796Y029700D03*
X014696Y029300D03*
X013196Y028100D03*
X012696Y028600D03*
X012696Y029200D03*
X012696Y030000D03*
X012696Y030600D03*
X013196Y031100D03*
X016796Y032200D03*
X017196Y031100D03*
X012596Y021300D03*
X013196Y020800D03*
X013246Y020200D03*
X012046Y019600D03*
X012046Y018900D03*
X011596Y018000D03*
X011196Y018450D03*
X010546Y018650D03*
X010096Y017950D03*
X010096Y017300D03*
X010546Y016750D03*
X011396Y016750D03*
X011796Y017300D03*
X011396Y015000D03*
X010596Y015000D03*
X009796Y015000D03*
X008996Y015000D03*
X008196Y015000D03*
X007396Y015000D03*
X007996Y016650D03*
X007546Y017200D03*
X007696Y017900D03*
X008046Y018650D03*
X009196Y017900D03*
X009246Y017200D03*
X008796Y016650D03*
X009696Y018650D03*
X008396Y020200D03*
X007346Y020150D03*
X004646Y019500D03*
X004546Y024550D03*
X011046Y013400D03*
X011196Y012700D03*
X013096Y010100D03*
X014096Y010100D03*
X013696Y013400D03*
X011396Y009500D03*
X011396Y008900D03*
X009196Y011800D03*
X007496Y012000D03*
X006996Y011500D03*
X007496Y010400D03*
X008396Y009300D03*
X007296Y006200D03*
X006096Y007000D03*
X020396Y001100D03*
D14*
X021696Y015200D02*
X022946Y015200D01*
X023296Y015600D01*
X023296Y029200D01*
X023296Y030000D01*
X023296Y031700D01*
X022996Y032000D01*
X022796Y032200D01*
X021146Y032200D01*
X020196Y032200D02*
X018496Y032200D01*
X017996Y031700D01*
D15*
X017996Y031700D03*
X020196Y032200D03*
X021146Y032200D03*
X014846Y009350D03*
X012346Y009350D03*
D16*
X022996Y032000D02*
X023496Y032500D01*
X023496Y032700D01*
D17*
X004421Y019403D02*
X004421Y003833D01*
X004427Y003847D01*
X004599Y004019D01*
X004824Y004112D01*
X005068Y004112D01*
X005293Y004019D01*
X005465Y003847D01*
X005559Y003622D01*
X005559Y003378D01*
X005465Y003153D01*
X005357Y003045D01*
X010221Y003045D01*
X010221Y008450D01*
X010322Y008625D01*
X010322Y008625D01*
X010322Y008625D01*
X010496Y008725D01*
X011225Y008725D01*
X011188Y008761D01*
X011151Y008851D01*
X011151Y008949D01*
X011188Y009039D01*
X011257Y009108D01*
X011347Y009145D01*
X011445Y009145D01*
X011535Y009108D01*
X011604Y009039D01*
X011641Y008949D01*
X011641Y008851D01*
X011604Y008761D01*
X011568Y008725D01*
X017397Y008725D01*
X017571Y008625D01*
X017571Y008625D01*
X017571Y008625D01*
X017671Y008450D01*
X017671Y007900D01*
X023046Y007900D01*
X023346Y007580D01*
X023496Y007400D01*
X024146Y007400D01*
X024146Y007644D01*
X024027Y007595D01*
X023866Y007595D01*
X023717Y007656D01*
X023603Y007770D01*
X023541Y007919D01*
X023541Y008081D01*
X023603Y008230D01*
X023717Y008344D01*
X023866Y008405D01*
X024027Y008405D01*
X024146Y008356D01*
X024146Y009350D01*
X023646Y009350D01*
X022996Y008723D01*
X018546Y008700D01*
X018296Y008700D01*
X015596Y011350D01*
X015596Y014419D01*
X014815Y015200D01*
X010896Y015200D01*
X009646Y016450D01*
X009646Y017700D01*
X008796Y018600D01*
X008796Y020100D01*
X009696Y021000D01*
X009696Y021750D01*
X009532Y021930D01*
X009504Y021861D01*
X009435Y021792D01*
X009345Y021755D01*
X009247Y021755D01*
X009157Y021792D01*
X009088Y021861D01*
X009051Y021951D01*
X009051Y022049D01*
X009088Y022139D01*
X009157Y022208D01*
X009247Y022245D01*
X009196Y022300D01*
X009196Y025659D01*
X009587Y026050D01*
X010496Y026050D01*
X010496Y034275D01*
X009912Y034275D01*
X009978Y034248D01*
X010094Y034132D01*
X010156Y033982D01*
X010156Y033818D01*
X010094Y033668D01*
X009978Y033552D01*
X009828Y033490D01*
X009665Y033490D01*
X009514Y033552D01*
X009399Y033668D01*
X009336Y033818D01*
X009336Y033982D01*
X009399Y034132D01*
X009514Y034248D01*
X009580Y034275D01*
X008912Y034275D01*
X008978Y034248D01*
X009094Y034132D01*
X009156Y033982D01*
X009156Y033818D01*
X009094Y033668D01*
X008978Y033552D01*
X008828Y033490D01*
X008665Y033490D01*
X008514Y033552D01*
X008399Y033668D01*
X008336Y033818D01*
X008336Y033982D01*
X008399Y034132D01*
X008514Y034248D01*
X008580Y034275D01*
X007912Y034275D01*
X007978Y034248D01*
X008094Y034132D01*
X008156Y033982D01*
X008156Y033818D01*
X008094Y033668D01*
X007978Y033552D01*
X007828Y033490D01*
X007665Y033490D01*
X007514Y033552D01*
X007399Y033668D01*
X007336Y033818D01*
X007336Y033982D01*
X007399Y034132D01*
X007514Y034248D01*
X007580Y034275D01*
X006912Y034275D01*
X006978Y034248D01*
X007094Y034132D01*
X007156Y033982D01*
X007156Y033818D01*
X007094Y033668D01*
X006978Y033552D01*
X006828Y033490D01*
X006665Y033490D01*
X006514Y033552D01*
X006399Y033668D01*
X006336Y033818D01*
X006336Y033982D01*
X006399Y034132D01*
X006514Y034248D01*
X006580Y034275D01*
X005912Y034275D01*
X005978Y034248D01*
X006094Y034132D01*
X006156Y033982D01*
X006156Y033818D01*
X006094Y033668D01*
X005978Y033552D01*
X005828Y033490D01*
X005665Y033490D01*
X005514Y033552D01*
X005399Y033668D01*
X005336Y033818D01*
X005336Y033982D01*
X005399Y034132D01*
X005514Y034248D01*
X005580Y034275D01*
X004912Y034275D01*
X004978Y034248D01*
X005094Y034132D01*
X005156Y033982D01*
X005156Y033818D01*
X005094Y033668D01*
X004978Y033552D01*
X004828Y033490D01*
X004665Y033490D01*
X004514Y033552D01*
X004421Y033645D01*
X004421Y024763D01*
X004497Y024795D01*
X004592Y024795D01*
X004541Y024919D01*
X004541Y025081D01*
X004603Y025230D01*
X004717Y025344D01*
X004866Y025405D01*
X005027Y025405D01*
X005176Y025344D01*
X005290Y025230D01*
X005351Y025081D01*
X005351Y024919D01*
X005290Y024770D01*
X005176Y024656D01*
X005027Y024595D01*
X004866Y024595D01*
X004778Y024631D01*
X004791Y024599D01*
X004791Y024501D01*
X004754Y024411D01*
X004685Y024342D01*
X004595Y024305D01*
X004497Y024305D01*
X004421Y024337D01*
X004421Y019597D01*
X004438Y019639D01*
X004507Y019708D01*
X004597Y019745D01*
X004628Y019745D01*
X004603Y019770D01*
X004541Y019919D01*
X004541Y020081D01*
X004603Y020230D01*
X004717Y020344D01*
X004866Y020405D01*
X005027Y020405D01*
X005176Y020344D01*
X005290Y020230D01*
X005351Y020081D01*
X005351Y019919D01*
X005290Y019770D01*
X005176Y019656D01*
X005027Y019595D01*
X004872Y019595D01*
X004891Y019549D01*
X004891Y019451D01*
X004872Y019405D01*
X005027Y019405D01*
X005176Y019344D01*
X005290Y019230D01*
X005351Y019081D01*
X005351Y018919D01*
X005290Y018770D01*
X005176Y018656D01*
X005027Y018595D01*
X004866Y018595D01*
X004717Y018656D01*
X004603Y018770D01*
X004541Y018919D01*
X004541Y019081D01*
X004603Y019230D01*
X004628Y019255D01*
X004597Y019255D01*
X004507Y019292D01*
X004438Y019361D01*
X004421Y019403D01*
X004421Y019314D02*
X004486Y019314D01*
X004421Y019215D02*
X004597Y019215D01*
X004556Y019117D02*
X004421Y019117D01*
X004421Y019018D02*
X004541Y019018D01*
X004541Y018920D02*
X004421Y018920D01*
X004421Y018821D02*
X004582Y018821D01*
X004650Y018723D02*
X004421Y018723D01*
X004421Y018624D02*
X004795Y018624D01*
X004866Y018405D02*
X004717Y018344D01*
X004603Y018230D01*
X004421Y018230D01*
X004421Y018132D02*
X004562Y018132D01*
X004541Y018081D02*
X004541Y017919D01*
X004603Y017770D01*
X004717Y017656D01*
X004866Y017595D01*
X005027Y017595D01*
X005176Y017656D01*
X005290Y017770D01*
X005351Y017919D01*
X005351Y018081D01*
X005290Y018230D01*
X005176Y018344D01*
X005027Y018405D01*
X004866Y018405D01*
X004702Y018329D02*
X004421Y018329D01*
X004421Y018427D02*
X007944Y018427D01*
X007907Y018442D02*
X007997Y018405D01*
X008095Y018405D01*
X008185Y018442D01*
X008254Y018511D01*
X008291Y018601D01*
X008291Y018699D01*
X008254Y018789D01*
X008185Y018858D01*
X008095Y018895D01*
X007997Y018895D01*
X007907Y018858D01*
X007838Y018789D01*
X007801Y018699D01*
X007801Y018601D01*
X007838Y018511D01*
X007907Y018442D01*
X007833Y018526D02*
X004421Y018526D01*
X004603Y018230D02*
X004541Y018081D01*
X004541Y018033D02*
X004421Y018033D01*
X004421Y017935D02*
X004541Y017935D01*
X004575Y017836D02*
X004421Y017836D01*
X004421Y017738D02*
X004635Y017738D01*
X004759Y017639D02*
X004421Y017639D01*
X004421Y017541D02*
X009646Y017541D01*
X009646Y017639D02*
X006134Y017639D01*
X006176Y017656D02*
X006290Y017770D01*
X006351Y017919D01*
X006351Y018081D01*
X006290Y018230D01*
X006176Y018344D01*
X006027Y018405D01*
X005866Y018405D01*
X005717Y018344D01*
X005603Y018230D01*
X005289Y018230D01*
X005330Y018132D02*
X005562Y018132D01*
X005541Y018081D02*
X005541Y017919D01*
X005603Y017770D01*
X005717Y017656D01*
X005866Y017595D01*
X006027Y017595D01*
X006176Y017656D01*
X006257Y017738D02*
X007512Y017738D01*
X007488Y017761D02*
X007557Y017692D01*
X007647Y017655D01*
X007745Y017655D01*
X007835Y017692D01*
X007904Y017761D01*
X007941Y017851D01*
X007941Y017949D01*
X007904Y018039D01*
X007835Y018108D01*
X007745Y018145D01*
X007647Y018145D01*
X007557Y018108D01*
X007488Y018039D01*
X007451Y017949D01*
X007451Y017851D01*
X007488Y017761D01*
X007457Y017836D02*
X006317Y017836D01*
X006351Y017935D02*
X007451Y017935D01*
X007486Y018033D02*
X006351Y018033D01*
X006330Y018132D02*
X007615Y018132D01*
X007777Y018132D02*
X009239Y018132D01*
X009146Y018230D02*
X006289Y018230D01*
X006191Y018329D02*
X009053Y018329D01*
X008960Y018427D02*
X008148Y018427D01*
X008260Y018526D02*
X008866Y018526D01*
X008796Y018624D02*
X008291Y018624D01*
X008281Y018723D02*
X008796Y018723D01*
X008796Y018821D02*
X008222Y018821D01*
X007871Y018821D02*
X006311Y018821D01*
X006290Y018770D02*
X006351Y018919D01*
X006351Y019081D01*
X006290Y019230D01*
X006176Y019344D01*
X006027Y019405D01*
X005866Y019405D01*
X005717Y019344D01*
X005603Y019230D01*
X005541Y019081D01*
X005541Y018919D01*
X005603Y018770D01*
X005717Y018656D01*
X005866Y018595D01*
X006027Y018595D01*
X006176Y018656D01*
X006290Y018770D01*
X006242Y018723D02*
X007811Y018723D01*
X007801Y018624D02*
X006098Y018624D01*
X005795Y018624D02*
X005098Y018624D01*
X005242Y018723D02*
X005650Y018723D01*
X005582Y018821D02*
X005311Y018821D01*
X005351Y018920D02*
X005541Y018920D01*
X005541Y019018D02*
X005351Y019018D01*
X005337Y019117D02*
X005556Y019117D01*
X005597Y019215D02*
X005296Y019215D01*
X005206Y019314D02*
X005687Y019314D01*
X005831Y019609D02*
X005061Y019609D01*
X005227Y019708D02*
X005665Y019708D01*
X005717Y019656D02*
X005603Y019770D01*
X005541Y019919D01*
X005541Y020081D01*
X005603Y020230D01*
X005717Y020344D01*
X005866Y020405D01*
X006027Y020405D01*
X006176Y020344D01*
X006290Y020230D01*
X006351Y020081D01*
X006351Y019919D01*
X006290Y019770D01*
X006176Y019656D01*
X006027Y019595D01*
X005866Y019595D01*
X005717Y019656D01*
X005588Y019806D02*
X005305Y019806D01*
X005345Y019905D02*
X005547Y019905D01*
X005541Y020003D02*
X005351Y020003D01*
X005343Y020102D02*
X005550Y020102D01*
X005590Y020200D02*
X005302Y020200D01*
X005221Y020299D02*
X005672Y020299D01*
X005846Y020397D02*
X005047Y020397D01*
X005027Y020595D02*
X004866Y020595D01*
X004717Y020656D01*
X004603Y020770D01*
X004541Y020919D01*
X004541Y021081D01*
X004603Y021230D01*
X004717Y021344D01*
X004866Y021405D01*
X005027Y021405D01*
X005176Y021344D01*
X005290Y021230D01*
X005351Y021081D01*
X005351Y020919D01*
X005290Y020770D01*
X005176Y020656D01*
X005027Y020595D01*
X005212Y020693D02*
X005680Y020693D01*
X005717Y020656D02*
X005603Y020770D01*
X005541Y020919D01*
X005541Y021081D01*
X005603Y021230D01*
X005717Y021344D01*
X005866Y021405D01*
X006027Y021405D01*
X006176Y021344D01*
X006290Y021230D01*
X006351Y021081D01*
X006351Y020919D01*
X006290Y020770D01*
X006176Y020656D01*
X006027Y020595D01*
X005866Y020595D01*
X005717Y020656D01*
X005594Y020791D02*
X005298Y020791D01*
X005339Y020890D02*
X005553Y020890D01*
X005541Y020988D02*
X005351Y020988D01*
X005349Y021087D02*
X005543Y021087D01*
X005584Y021185D02*
X005308Y021185D01*
X005236Y021284D02*
X005657Y021284D01*
X005810Y021382D02*
X005083Y021382D01*
X005027Y021595D02*
X005176Y021656D01*
X005290Y021770D01*
X005351Y021919D01*
X005351Y022081D01*
X005290Y022230D01*
X005176Y022344D01*
X005027Y022405D01*
X004866Y022405D01*
X004717Y022344D01*
X004603Y022230D01*
X004541Y022081D01*
X004541Y021919D01*
X004603Y021770D01*
X004717Y021656D01*
X004866Y021595D01*
X005027Y021595D01*
X005197Y021678D02*
X005695Y021678D01*
X005717Y021656D02*
X005866Y021595D01*
X006027Y021595D01*
X006176Y021656D01*
X006290Y021770D01*
X006351Y021919D01*
X006351Y022081D01*
X006290Y022230D01*
X006176Y022344D01*
X006027Y022405D01*
X005866Y022405D01*
X005717Y022344D01*
X005603Y022230D01*
X005541Y022081D01*
X005541Y021919D01*
X005603Y021770D01*
X005717Y021656D01*
X005600Y021776D02*
X005292Y021776D01*
X005333Y021875D02*
X005559Y021875D01*
X005541Y021973D02*
X005351Y021973D01*
X005351Y022072D02*
X005541Y022072D01*
X005578Y022170D02*
X005314Y022170D01*
X005251Y022269D02*
X005642Y022269D01*
X005773Y022367D02*
X005119Y022367D01*
X005027Y022595D02*
X004866Y022595D01*
X004717Y022656D01*
X004603Y022770D01*
X004541Y022919D01*
X004541Y023081D01*
X004603Y023230D01*
X004717Y023344D01*
X004866Y023405D01*
X005027Y023405D01*
X005176Y023344D01*
X005290Y023230D01*
X005351Y023081D01*
X005351Y022919D01*
X005290Y022770D01*
X005176Y022656D01*
X005027Y022595D01*
X005182Y022663D02*
X005710Y022663D01*
X005717Y022656D02*
X005866Y022595D01*
X006027Y022595D01*
X006176Y022656D01*
X006290Y022770D01*
X006351Y022919D01*
X006351Y023081D01*
X006290Y023230D01*
X006176Y023344D01*
X006027Y023405D01*
X005866Y023405D01*
X005717Y023344D01*
X005603Y023230D01*
X005541Y023081D01*
X005541Y022919D01*
X005603Y022770D01*
X005717Y022656D01*
X005612Y022761D02*
X005280Y022761D01*
X005327Y022860D02*
X005566Y022860D01*
X005541Y022958D02*
X005351Y022958D01*
X005351Y023057D02*
X005541Y023057D01*
X005572Y023155D02*
X005321Y023155D01*
X005266Y023254D02*
X005627Y023254D01*
X005737Y023352D02*
X005155Y023352D01*
X005027Y023595D02*
X005176Y023656D01*
X005290Y023770D01*
X005351Y023919D01*
X005351Y024081D01*
X005290Y024230D01*
X005176Y024344D01*
X005027Y024405D01*
X004866Y024405D01*
X004717Y024344D01*
X004603Y024230D01*
X004541Y024081D01*
X004541Y023919D01*
X004603Y023770D01*
X004717Y023656D01*
X004866Y023595D01*
X005027Y023595D01*
X005154Y023648D02*
X005738Y023648D01*
X005717Y023656D02*
X005866Y023595D01*
X006027Y023595D01*
X006176Y023656D01*
X006290Y023770D01*
X006351Y023919D01*
X006351Y024081D01*
X006290Y024230D01*
X006176Y024344D01*
X006027Y024405D01*
X005866Y024405D01*
X005717Y024344D01*
X005603Y024230D01*
X005541Y024081D01*
X005541Y023919D01*
X005603Y023770D01*
X005717Y023656D01*
X005627Y023746D02*
X005265Y023746D01*
X005320Y023845D02*
X005572Y023845D01*
X005541Y023943D02*
X005351Y023943D01*
X005351Y024042D02*
X005541Y024042D01*
X005566Y024140D02*
X005327Y024140D01*
X005281Y024239D02*
X005612Y024239D01*
X005710Y024337D02*
X005182Y024337D01*
X005118Y024633D02*
X005774Y024633D01*
X005717Y024656D02*
X005866Y024595D01*
X006027Y024595D01*
X006176Y024656D01*
X006290Y024770D01*
X006351Y024919D01*
X006351Y025081D01*
X006290Y025230D01*
X006176Y025344D01*
X006027Y025405D01*
X005866Y025405D01*
X005717Y025344D01*
X005603Y025230D01*
X005541Y025081D01*
X005541Y024919D01*
X005603Y024770D01*
X005717Y024656D01*
X005642Y024731D02*
X005250Y024731D01*
X005314Y024830D02*
X005578Y024830D01*
X005541Y024928D02*
X005351Y024928D01*
X005351Y025027D02*
X005541Y025027D01*
X005559Y025125D02*
X005333Y025125D01*
X005292Y025224D02*
X005600Y025224D01*
X005695Y025322D02*
X005197Y025322D01*
X005082Y025618D02*
X005810Y025618D01*
X005866Y025595D02*
X006027Y025595D01*
X006176Y025656D01*
X006290Y025770D01*
X006351Y025919D01*
X006351Y026081D01*
X006290Y026230D01*
X006176Y026344D01*
X006027Y026405D01*
X005866Y026405D01*
X005717Y026344D01*
X005603Y026230D01*
X005541Y026081D01*
X005541Y025919D01*
X005603Y025770D01*
X005717Y025656D01*
X005866Y025595D01*
X006082Y025618D02*
X008567Y025618D01*
X008597Y025605D02*
X008695Y025605D01*
X008785Y025642D01*
X008854Y025711D01*
X008891Y025801D01*
X008891Y025899D01*
X008854Y025989D01*
X008793Y026050D01*
X008854Y026111D01*
X008891Y026201D01*
X008891Y026299D01*
X008854Y026389D01*
X008785Y026458D01*
X008695Y026495D01*
X008597Y026495D01*
X008507Y026458D01*
X008438Y026389D01*
X008401Y026299D01*
X008401Y026201D01*
X008438Y026111D01*
X008500Y026050D01*
X008438Y025989D01*
X008401Y025899D01*
X008401Y025801D01*
X008438Y025711D01*
X008507Y025642D01*
X008597Y025605D01*
X008725Y025618D02*
X009196Y025618D01*
X009196Y025519D02*
X004421Y025519D01*
X004421Y025421D02*
X009196Y025421D01*
X009196Y025322D02*
X006197Y025322D01*
X006292Y025224D02*
X009196Y025224D01*
X009196Y025125D02*
X006333Y025125D01*
X006351Y025027D02*
X009196Y025027D01*
X009196Y024928D02*
X006351Y024928D01*
X006314Y024830D02*
X009196Y024830D01*
X009196Y024731D02*
X007662Y024731D01*
X007635Y024758D02*
X007545Y024795D01*
X007447Y024795D01*
X007357Y024758D01*
X007288Y024689D01*
X007251Y024599D01*
X007251Y024501D01*
X007288Y024411D01*
X007357Y024342D01*
X007447Y024305D01*
X007545Y024305D01*
X007635Y024342D01*
X007704Y024411D01*
X007741Y024501D01*
X007741Y024599D01*
X007704Y024689D01*
X007635Y024758D01*
X007727Y024633D02*
X009196Y024633D01*
X009196Y024534D02*
X007741Y024534D01*
X007714Y024436D02*
X009196Y024436D01*
X009196Y024337D02*
X007622Y024337D01*
X007370Y024337D02*
X006182Y024337D01*
X006281Y024239D02*
X009196Y024239D01*
X009196Y024140D02*
X006327Y024140D01*
X006351Y024042D02*
X009196Y024042D01*
X009196Y023943D02*
X006351Y023943D01*
X006320Y023845D02*
X009196Y023845D01*
X009196Y023746D02*
X006265Y023746D01*
X006154Y023648D02*
X009196Y023648D01*
X009196Y023549D02*
X004421Y023549D01*
X004421Y023451D02*
X009196Y023451D01*
X009196Y023352D02*
X006155Y023352D01*
X006266Y023254D02*
X009196Y023254D01*
X009196Y023155D02*
X006321Y023155D01*
X006351Y023057D02*
X009196Y023057D01*
X009196Y022958D02*
X008034Y022958D01*
X008035Y022958D02*
X007945Y022995D01*
X007847Y022995D01*
X007757Y022958D01*
X007688Y022889D01*
X007651Y022799D01*
X007651Y022701D01*
X007688Y022611D01*
X007757Y022542D01*
X007847Y022505D01*
X007945Y022505D01*
X008035Y022542D01*
X008104Y022611D01*
X008141Y022701D01*
X008141Y022799D01*
X008104Y022889D01*
X008035Y022958D01*
X008116Y022860D02*
X009196Y022860D01*
X009196Y022761D02*
X008141Y022761D01*
X008125Y022663D02*
X009196Y022663D01*
X009196Y022564D02*
X008057Y022564D01*
X008197Y022345D02*
X008107Y022308D01*
X008038Y022239D01*
X008001Y022149D01*
X008001Y022051D01*
X008038Y021961D01*
X008107Y021892D01*
X008197Y021855D01*
X008295Y021855D01*
X008385Y021892D01*
X008454Y021961D01*
X008491Y022051D01*
X008491Y022149D01*
X008454Y022239D01*
X008385Y022308D01*
X008295Y022345D01*
X008197Y022345D01*
X008068Y022269D02*
X006251Y022269D01*
X006314Y022170D02*
X008010Y022170D01*
X008001Y022072D02*
X006351Y022072D01*
X006351Y021973D02*
X008034Y021973D01*
X008150Y021875D02*
X006333Y021875D01*
X006292Y021776D02*
X009197Y021776D01*
X009083Y021875D02*
X008342Y021875D01*
X008459Y021973D02*
X009051Y021973D01*
X009061Y022072D02*
X008491Y022072D01*
X008482Y022170D02*
X009120Y022170D01*
X009225Y022269D02*
X008424Y022269D01*
X007758Y022958D02*
X006351Y022958D01*
X006327Y022860D02*
X007676Y022860D01*
X007651Y022761D02*
X006280Y022761D01*
X006182Y022663D02*
X007667Y022663D01*
X007736Y022564D02*
X004421Y022564D01*
X004421Y022466D02*
X009196Y022466D01*
X009196Y022367D02*
X006119Y022367D01*
X006197Y021678D02*
X009696Y021678D01*
X009696Y021579D02*
X004421Y021579D01*
X004421Y021481D02*
X009696Y021481D01*
X009696Y021382D02*
X006083Y021382D01*
X006236Y021284D02*
X009696Y021284D01*
X009696Y021185D02*
X006308Y021185D01*
X006349Y021087D02*
X009696Y021087D01*
X009684Y020988D02*
X006351Y020988D01*
X006339Y020890D02*
X009586Y020890D01*
X009487Y020791D02*
X006298Y020791D01*
X006212Y020693D02*
X009389Y020693D01*
X009290Y020594D02*
X004421Y020594D01*
X004421Y020496D02*
X009192Y020496D01*
X009093Y020397D02*
X008546Y020397D01*
X008535Y020408D02*
X008445Y020445D01*
X008347Y020445D01*
X008257Y020408D01*
X008188Y020339D01*
X008151Y020249D01*
X008151Y020151D01*
X008188Y020061D01*
X008257Y019992D01*
X008347Y019955D01*
X008445Y019955D01*
X008535Y019992D01*
X008604Y020061D01*
X008641Y020151D01*
X008641Y020249D01*
X008604Y020339D01*
X008535Y020408D01*
X008621Y020299D02*
X008995Y020299D01*
X008896Y020200D02*
X008641Y020200D01*
X008621Y020102D02*
X008798Y020102D01*
X008796Y020003D02*
X008546Y020003D01*
X008796Y019905D02*
X006345Y019905D01*
X006351Y020003D02*
X007147Y020003D01*
X007138Y020011D02*
X007207Y019942D01*
X007297Y019905D01*
X007395Y019905D01*
X007485Y019942D01*
X007554Y020011D01*
X007591Y020101D01*
X007591Y020199D01*
X007554Y020289D01*
X007485Y020358D01*
X007395Y020395D01*
X007297Y020395D01*
X007207Y020358D01*
X007138Y020289D01*
X007101Y020199D01*
X007101Y020101D01*
X007138Y020011D01*
X007101Y020102D02*
X006343Y020102D01*
X006302Y020200D02*
X007102Y020200D01*
X007148Y020299D02*
X006221Y020299D01*
X006047Y020397D02*
X008247Y020397D01*
X008172Y020299D02*
X007544Y020299D01*
X007591Y020200D02*
X008151Y020200D01*
X008172Y020102D02*
X007591Y020102D01*
X007546Y020003D02*
X008247Y020003D01*
X008796Y019806D02*
X006305Y019806D01*
X006227Y019708D02*
X008796Y019708D01*
X008796Y019609D02*
X006061Y019609D01*
X006206Y019314D02*
X008796Y019314D01*
X008796Y019412D02*
X004875Y019412D01*
X004891Y019511D02*
X008796Y019511D01*
X008996Y019511D02*
X011818Y019511D01*
X011801Y019551D02*
X011838Y019461D01*
X011907Y019392D01*
X011997Y019355D01*
X012095Y019355D01*
X012185Y019392D01*
X012254Y019461D01*
X012291Y019551D01*
X012291Y019649D01*
X012254Y019739D01*
X012185Y019808D01*
X012095Y019845D01*
X011997Y019845D01*
X011907Y019808D01*
X011838Y019739D01*
X011801Y019649D01*
X011801Y019551D01*
X011801Y019609D02*
X008996Y019609D01*
X008996Y019708D02*
X011826Y019708D01*
X011906Y019806D02*
X008996Y019806D01*
X008996Y019905D02*
X017696Y019905D01*
X017696Y020000D02*
X017696Y019041D01*
X017655Y019000D01*
X015196Y019000D01*
X015196Y016704D01*
X014732Y016240D01*
X010156Y016240D01*
X009846Y016550D01*
X009846Y017800D01*
X008996Y018700D01*
X008996Y020000D01*
X009896Y020900D01*
X009896Y021800D01*
X009396Y022350D01*
X009396Y025580D01*
X009666Y025850D01*
X010552Y025850D01*
X010551Y025849D01*
X010551Y025751D01*
X010588Y025661D01*
X010657Y025592D01*
X010747Y025555D01*
X010845Y025555D01*
X010935Y025592D01*
X011004Y025661D01*
X011041Y025751D01*
X011041Y025849D01*
X011004Y025939D01*
X010935Y026008D01*
X010845Y026045D01*
X010747Y026045D01*
X010746Y026044D01*
X010746Y034275D01*
X011505Y034275D01*
X011377Y034147D01*
X011284Y033922D01*
X011284Y033678D01*
X011377Y033453D01*
X011549Y033281D01*
X011774Y033188D01*
X012018Y033188D01*
X012243Y033281D01*
X012415Y033453D01*
X012509Y033678D01*
X012509Y033922D01*
X012415Y034147D01*
X012287Y034275D01*
X015730Y034275D01*
X015664Y034248D01*
X015549Y034132D01*
X015486Y033982D01*
X015486Y033818D01*
X015549Y033668D01*
X015664Y033552D01*
X015815Y033490D01*
X015978Y033490D01*
X016128Y033552D01*
X016244Y033668D01*
X016306Y033818D01*
X016306Y033982D01*
X016244Y034132D01*
X016128Y034248D01*
X016062Y034275D01*
X016730Y034275D01*
X016664Y034248D01*
X016549Y034132D01*
X016486Y033982D01*
X016486Y033818D01*
X016549Y033668D01*
X016664Y033552D01*
X016815Y033490D01*
X016978Y033490D01*
X017128Y033552D01*
X017244Y033668D01*
X017306Y033818D01*
X017306Y033982D01*
X017244Y034132D01*
X017128Y034248D01*
X017062Y034275D01*
X017730Y034275D01*
X017664Y034248D01*
X017549Y034132D01*
X017486Y033982D01*
X017486Y033818D01*
X017549Y033668D01*
X017664Y033552D01*
X017815Y033490D01*
X017978Y033490D01*
X018128Y033552D01*
X018244Y033668D01*
X018306Y033818D01*
X018306Y033982D01*
X018244Y034132D01*
X018128Y034248D01*
X018062Y034275D01*
X018730Y034275D01*
X018664Y034248D01*
X018549Y034132D01*
X018486Y033982D01*
X018486Y033818D01*
X018549Y033668D01*
X018664Y033552D01*
X018815Y033490D01*
X018978Y033490D01*
X019128Y033552D01*
X019244Y033668D01*
X019306Y033818D01*
X019306Y033982D01*
X019244Y034132D01*
X019128Y034248D01*
X019062Y034275D01*
X019730Y034275D01*
X019664Y034248D01*
X019549Y034132D01*
X019486Y033982D01*
X019486Y033818D01*
X019549Y033668D01*
X019664Y033552D01*
X019815Y033490D01*
X019978Y033490D01*
X020128Y033552D01*
X020244Y033668D01*
X020306Y033818D01*
X020306Y033982D01*
X020244Y034132D01*
X020128Y034248D01*
X020062Y034275D01*
X020696Y034275D01*
X021071Y034260D01*
X021811Y034143D01*
X022523Y033912D01*
X023191Y033571D01*
X023354Y033453D01*
X023494Y033312D01*
X023374Y033312D01*
X023149Y033219D01*
X022977Y033047D01*
X022884Y032822D01*
X022884Y032578D01*
X022945Y032431D01*
X022850Y032470D01*
X021273Y032470D01*
X021205Y032498D01*
X021087Y032498D01*
X020977Y032453D01*
X020893Y032369D01*
X020848Y032259D01*
X020848Y032141D01*
X020893Y032031D01*
X020977Y031947D01*
X021087Y031902D01*
X021205Y031902D01*
X021273Y031930D01*
X022684Y031930D01*
X022843Y031771D01*
X022843Y031771D01*
X023026Y031588D01*
X023026Y022711D01*
X022945Y022745D01*
X022847Y022745D01*
X022757Y022708D01*
X022688Y022639D01*
X022651Y022549D01*
X022651Y022451D01*
X022688Y022361D01*
X022757Y022292D01*
X022847Y022255D01*
X022945Y022255D01*
X023026Y022289D01*
X023026Y020000D01*
X017696Y020000D01*
X017696Y019806D02*
X012187Y019806D01*
X012267Y019708D02*
X017696Y019708D01*
X017696Y019609D02*
X012291Y019609D01*
X012274Y019511D02*
X017696Y019511D01*
X017696Y019412D02*
X012205Y019412D01*
X012095Y019145D02*
X011997Y019145D01*
X011907Y019108D01*
X011838Y019039D01*
X011801Y018949D01*
X011801Y018851D01*
X011838Y018761D01*
X011907Y018692D01*
X011997Y018655D01*
X012095Y018655D01*
X012185Y018692D01*
X012254Y018761D01*
X012291Y018851D01*
X012291Y018949D01*
X012254Y019039D01*
X012185Y019108D01*
X012095Y019145D01*
X012164Y019117D02*
X017696Y019117D01*
X017696Y019215D02*
X008996Y019215D01*
X008996Y019117D02*
X011929Y019117D01*
X011830Y019018D02*
X008996Y019018D01*
X008996Y018920D02*
X011801Y018920D01*
X011814Y018821D02*
X010722Y018821D01*
X010754Y018789D02*
X010685Y018858D01*
X010595Y018895D01*
X010497Y018895D01*
X010407Y018858D01*
X010338Y018789D01*
X010301Y018699D01*
X010301Y018601D01*
X010338Y018511D01*
X010407Y018442D01*
X010497Y018405D01*
X010595Y018405D01*
X010685Y018442D01*
X010754Y018511D01*
X010791Y018601D01*
X010791Y018699D01*
X010754Y018789D01*
X010781Y018723D02*
X011877Y018723D01*
X011430Y018526D02*
X015196Y018526D01*
X015196Y018624D02*
X011369Y018624D01*
X011335Y018658D02*
X011245Y018695D01*
X011147Y018695D01*
X011057Y018658D01*
X010988Y018589D01*
X010951Y018499D01*
X010951Y018401D01*
X010988Y018311D01*
X011057Y018242D01*
X011147Y018205D01*
X011245Y018205D01*
X011335Y018242D01*
X011404Y018311D01*
X011441Y018401D01*
X011441Y018499D01*
X011404Y018589D01*
X011335Y018658D01*
X011441Y018427D02*
X015196Y018427D01*
X015196Y018329D02*
X011411Y018329D01*
X011457Y018208D02*
X011388Y018139D01*
X011351Y018049D01*
X011351Y017951D01*
X011388Y017861D01*
X011457Y017792D01*
X011547Y017755D01*
X011645Y017755D01*
X011735Y017792D01*
X011804Y017861D01*
X011841Y017951D01*
X011841Y018049D01*
X011804Y018139D01*
X011735Y018208D01*
X011645Y018245D01*
X011547Y018245D01*
X011457Y018208D01*
X011511Y018230D02*
X011305Y018230D01*
X011385Y018132D02*
X009533Y018132D01*
X009440Y018230D02*
X011087Y018230D01*
X010981Y018329D02*
X009347Y018329D01*
X009254Y018427D02*
X009594Y018427D01*
X009557Y018442D02*
X009647Y018405D01*
X009745Y018405D01*
X009835Y018442D01*
X009904Y018511D01*
X009941Y018601D01*
X009941Y018699D01*
X009904Y018789D01*
X009835Y018858D01*
X009745Y018895D01*
X009647Y018895D01*
X009557Y018858D01*
X009488Y018789D01*
X009451Y018699D01*
X009451Y018601D01*
X009488Y018511D01*
X009557Y018442D01*
X009483Y018526D02*
X009161Y018526D01*
X009068Y018624D02*
X009451Y018624D01*
X009461Y018723D02*
X008996Y018723D01*
X008996Y018821D02*
X009521Y018821D01*
X009798Y018427D02*
X010444Y018427D01*
X010333Y018526D02*
X009910Y018526D01*
X009941Y018624D02*
X010301Y018624D01*
X010311Y018723D02*
X009931Y018723D01*
X009872Y018821D02*
X010371Y018821D01*
X010791Y018624D02*
X011024Y018624D01*
X010962Y018526D02*
X010760Y018526D01*
X010648Y018427D02*
X010951Y018427D01*
X011351Y018033D02*
X009626Y018033D01*
X009719Y017935D02*
X011358Y017935D01*
X011414Y017836D02*
X009812Y017836D01*
X009846Y017738D02*
X015196Y017738D01*
X015196Y017836D02*
X011779Y017836D01*
X011834Y017935D02*
X015196Y017935D01*
X015196Y018033D02*
X011841Y018033D01*
X011807Y018132D02*
X015196Y018132D01*
X015196Y018230D02*
X011681Y018230D01*
X011747Y017545D02*
X011657Y017508D01*
X011588Y017439D01*
X011551Y017349D01*
X011551Y017251D01*
X011588Y017161D01*
X011657Y017092D01*
X011747Y017055D01*
X011845Y017055D01*
X011935Y017092D01*
X012004Y017161D01*
X012041Y017251D01*
X012041Y017349D01*
X012004Y017439D01*
X011935Y017508D01*
X011845Y017545D01*
X011747Y017545D01*
X011737Y017541D02*
X009846Y017541D01*
X009846Y017639D02*
X015196Y017639D01*
X015196Y017541D02*
X011856Y017541D01*
X012001Y017442D02*
X015196Y017442D01*
X015196Y017344D02*
X012041Y017344D01*
X012039Y017245D02*
X015196Y017245D01*
X015196Y017147D02*
X011989Y017147D01*
X011604Y016889D02*
X011641Y016799D01*
X011641Y016701D01*
X011604Y016611D01*
X011535Y016542D01*
X011445Y016505D01*
X011347Y016505D01*
X011257Y016542D01*
X011188Y016611D01*
X011151Y016701D01*
X011151Y016799D01*
X011188Y016889D01*
X011257Y016958D01*
X011347Y016995D01*
X011445Y016995D01*
X011535Y016958D01*
X011604Y016889D01*
X011620Y016851D02*
X015196Y016851D01*
X015196Y016753D02*
X011641Y016753D01*
X011622Y016654D02*
X015146Y016654D01*
X015048Y016556D02*
X011548Y016556D01*
X011244Y016556D02*
X009846Y016556D01*
X009846Y016654D02*
X011171Y016654D01*
X011151Y016753D02*
X009846Y016753D01*
X009846Y016851D02*
X011173Y016851D01*
X011249Y016950D02*
X009846Y016950D01*
X009846Y017048D02*
X015196Y017048D01*
X015196Y016950D02*
X011543Y016950D01*
X011603Y017147D02*
X009846Y017147D01*
X009846Y017245D02*
X011554Y017245D01*
X011551Y017344D02*
X009846Y017344D01*
X009846Y017442D02*
X011592Y017442D01*
X012215Y018723D02*
X015196Y018723D01*
X015196Y018821D02*
X012279Y018821D01*
X012291Y018920D02*
X015196Y018920D01*
X013454Y020061D02*
X013491Y020151D01*
X013491Y020249D01*
X013454Y020339D01*
X013385Y020408D01*
X013295Y020445D01*
X013197Y020445D01*
X013107Y020408D01*
X013038Y020339D01*
X013001Y020249D01*
X013001Y020151D01*
X013038Y020061D01*
X013107Y019992D01*
X013197Y019955D01*
X013295Y019955D01*
X013385Y019992D01*
X013454Y020061D01*
X013471Y020102D02*
X023026Y020102D01*
X023026Y020200D02*
X013491Y020200D01*
X013471Y020299D02*
X023026Y020299D01*
X023026Y020397D02*
X013396Y020397D01*
X013335Y020592D02*
X013404Y020661D01*
X013441Y020751D01*
X013441Y020849D01*
X013404Y020939D01*
X013335Y021008D01*
X013245Y021045D01*
X013147Y021045D01*
X013057Y021008D01*
X012988Y020939D01*
X012951Y020849D01*
X012951Y020751D01*
X012988Y020661D01*
X013057Y020592D01*
X013147Y020555D01*
X013245Y020555D01*
X013335Y020592D01*
X013337Y020594D02*
X023026Y020594D01*
X023026Y020496D02*
X009492Y020496D01*
X009590Y020594D02*
X013056Y020594D01*
X012976Y020693D02*
X009689Y020693D01*
X009787Y020791D02*
X012951Y020791D01*
X012968Y020890D02*
X009886Y020890D01*
X009896Y020988D02*
X013038Y020988D01*
X012804Y021161D02*
X012841Y021251D01*
X012841Y021349D01*
X012804Y021439D01*
X012735Y021508D01*
X012645Y021545D01*
X012547Y021545D01*
X012457Y021508D01*
X012388Y021439D01*
X012351Y021349D01*
X012351Y021251D01*
X012388Y021161D01*
X012457Y021092D01*
X012547Y021055D01*
X012645Y021055D01*
X012735Y021092D01*
X012804Y021161D01*
X012814Y021185D02*
X020235Y021185D01*
X020257Y021208D02*
X020188Y021139D01*
X020151Y021049D01*
X020151Y020951D01*
X020188Y020861D01*
X020257Y020792D01*
X020347Y020755D01*
X020445Y020755D01*
X020535Y020792D01*
X020604Y020861D01*
X020641Y020951D01*
X020641Y021049D01*
X020604Y021139D01*
X020535Y021208D01*
X020445Y021245D01*
X020347Y021245D01*
X020257Y021208D01*
X020167Y021087D02*
X012721Y021087D01*
X012841Y021284D02*
X020779Y021284D01*
X020757Y021292D02*
X020847Y021255D01*
X020945Y021255D01*
X021035Y021292D01*
X021104Y021361D01*
X021141Y021451D01*
X021141Y021549D01*
X021104Y021639D01*
X021035Y021708D01*
X020945Y021745D01*
X020847Y021745D01*
X020757Y021708D01*
X020688Y021639D01*
X020651Y021549D01*
X020651Y021451D01*
X020688Y021361D01*
X020757Y021292D01*
X020680Y021382D02*
X012827Y021382D01*
X012762Y021481D02*
X020651Y021481D01*
X020664Y021579D02*
X017903Y021579D01*
X017935Y021592D02*
X018004Y021661D01*
X018041Y021751D01*
X018041Y021849D01*
X018004Y021939D01*
X017935Y022008D01*
X017845Y022045D01*
X017747Y022045D01*
X017657Y022008D01*
X017588Y021939D01*
X017551Y021849D01*
X017551Y021751D01*
X017588Y021661D01*
X017657Y021592D01*
X017747Y021555D01*
X017845Y021555D01*
X017935Y021592D01*
X018011Y021678D02*
X020727Y021678D01*
X021065Y021678D02*
X023026Y021678D01*
X023026Y021776D02*
X018041Y021776D01*
X018030Y021875D02*
X023026Y021875D01*
X023026Y021973D02*
X017970Y021973D01*
X018057Y022142D02*
X018147Y022105D01*
X018245Y022105D01*
X018335Y022142D01*
X018404Y022211D01*
X018441Y022301D01*
X018441Y022399D01*
X018404Y022489D01*
X018335Y022558D01*
X018245Y022595D01*
X018147Y022595D01*
X018057Y022558D01*
X017988Y022489D01*
X017951Y022399D01*
X017951Y022301D01*
X017988Y022211D01*
X018057Y022142D01*
X018030Y022170D02*
X015441Y022170D01*
X015441Y022199D02*
X015404Y022289D01*
X015335Y022358D01*
X015245Y022395D01*
X015147Y022395D01*
X015057Y022358D01*
X014988Y022289D01*
X014951Y022199D01*
X014951Y022101D01*
X014988Y022011D01*
X015057Y021942D01*
X015147Y021905D01*
X015245Y021905D01*
X015335Y021942D01*
X015404Y022011D01*
X015441Y022101D01*
X015441Y022199D01*
X015412Y022269D02*
X017965Y022269D01*
X017951Y022367D02*
X017860Y022367D01*
X017835Y022342D02*
X017904Y022411D01*
X017941Y022501D01*
X017941Y022599D01*
X017904Y022689D01*
X017835Y022758D01*
X017745Y022795D01*
X017647Y022795D01*
X017557Y022758D01*
X017488Y022689D01*
X017451Y022599D01*
X017451Y022501D01*
X017488Y022411D01*
X017557Y022342D01*
X017647Y022305D01*
X017745Y022305D01*
X017835Y022342D01*
X017926Y022466D02*
X017979Y022466D01*
X017941Y022564D02*
X018073Y022564D01*
X017915Y022663D02*
X018551Y022663D01*
X018551Y022699D02*
X018551Y022601D01*
X018588Y022511D01*
X018657Y022442D01*
X018747Y022405D01*
X018845Y022405D01*
X018935Y022442D01*
X019004Y022511D01*
X019041Y022601D01*
X019041Y022699D01*
X019004Y022789D01*
X018935Y022858D01*
X018845Y022895D01*
X018747Y022895D01*
X018657Y022858D01*
X018588Y022789D01*
X018551Y022699D01*
X018577Y022761D02*
X017827Y022761D01*
X017565Y022761D02*
X017160Y022761D01*
X017145Y022755D02*
X017235Y022792D01*
X017304Y022861D01*
X017341Y022951D01*
X017341Y023049D01*
X017304Y023139D01*
X017235Y023208D01*
X017145Y023245D01*
X017047Y023245D01*
X016957Y023208D01*
X016888Y023139D01*
X016851Y023049D01*
X016851Y022951D01*
X016888Y022861D01*
X016957Y022792D01*
X017047Y022755D01*
X017145Y022755D01*
X017033Y022761D02*
X011030Y022761D01*
X011014Y022721D02*
X011051Y022811D01*
X011051Y022909D01*
X011014Y022999D01*
X010945Y023068D01*
X010855Y023105D01*
X010757Y023105D01*
X010667Y023068D01*
X010598Y022999D01*
X010561Y022909D01*
X010561Y022811D01*
X010598Y022721D01*
X010667Y022652D01*
X010757Y022615D01*
X010855Y022615D01*
X010945Y022652D01*
X011014Y022721D01*
X010955Y022663D02*
X017478Y022663D01*
X017451Y022564D02*
X009396Y022564D01*
X009396Y022466D02*
X010115Y022466D01*
X010088Y022439D02*
X010157Y022508D01*
X010247Y022545D01*
X010345Y022545D01*
X010435Y022508D01*
X010504Y022439D01*
X010541Y022349D01*
X010541Y022251D01*
X010518Y022195D01*
X010595Y022195D01*
X010685Y022158D01*
X010754Y022089D01*
X010791Y021999D01*
X010791Y021901D01*
X010754Y021811D01*
X010685Y021742D01*
X010595Y021705D01*
X010497Y021705D01*
X010407Y021742D01*
X010338Y021811D01*
X010301Y021901D01*
X010301Y021999D01*
X010324Y022055D01*
X010247Y022055D01*
X010157Y022092D01*
X010088Y022161D01*
X010051Y022251D01*
X010051Y022349D01*
X010088Y022439D01*
X010059Y022367D02*
X009396Y022367D01*
X009470Y022269D02*
X010051Y022269D01*
X010085Y022170D02*
X009560Y022170D01*
X009649Y022072D02*
X010207Y022072D01*
X010301Y021973D02*
X009739Y021973D01*
X009828Y021875D02*
X010312Y021875D01*
X010374Y021776D02*
X009896Y021776D01*
X009896Y021678D02*
X017582Y021678D01*
X017551Y021776D02*
X010719Y021776D01*
X010780Y021875D02*
X017562Y021875D01*
X017623Y021973D02*
X015366Y021973D01*
X015429Y022072D02*
X023026Y022072D01*
X023026Y022170D02*
X018363Y022170D01*
X018428Y022269D02*
X022815Y022269D01*
X022686Y022367D02*
X018441Y022367D01*
X018414Y022466D02*
X018634Y022466D01*
X018567Y022564D02*
X018320Y022564D01*
X018662Y022860D02*
X017302Y022860D01*
X017341Y022958D02*
X019840Y022958D01*
X019847Y022955D02*
X019945Y022955D01*
X020035Y022992D01*
X020104Y023061D01*
X020141Y023151D01*
X020141Y023249D01*
X020104Y023339D01*
X020035Y023408D01*
X019945Y023445D01*
X019847Y023445D01*
X019757Y023408D01*
X019688Y023339D01*
X019651Y023249D01*
X019651Y023151D01*
X019688Y023061D01*
X019757Y022992D01*
X019847Y022955D01*
X019952Y022958D02*
X023026Y022958D01*
X023026Y022860D02*
X020583Y022860D01*
X020604Y022839D02*
X020535Y022908D01*
X020445Y022945D01*
X020347Y022945D01*
X020257Y022908D01*
X020188Y022839D01*
X020151Y022749D01*
X020151Y022651D01*
X020188Y022561D01*
X020257Y022492D01*
X020347Y022455D01*
X020445Y022455D01*
X020535Y022492D01*
X020604Y022561D01*
X020641Y022651D01*
X020641Y022749D01*
X020604Y022839D01*
X020636Y022761D02*
X023026Y022761D01*
X023026Y023057D02*
X020099Y023057D01*
X020141Y023155D02*
X023026Y023155D01*
X023026Y023254D02*
X020139Y023254D01*
X020091Y023352D02*
X023026Y023352D01*
X023026Y023451D02*
X009396Y023451D01*
X009396Y023549D02*
X021201Y023549D01*
X021188Y023561D02*
X021257Y023492D01*
X021347Y023455D01*
X021445Y023455D01*
X021535Y023492D01*
X021604Y023561D01*
X021641Y023651D01*
X021641Y023749D01*
X021604Y023839D01*
X021535Y023908D01*
X021445Y023945D01*
X021347Y023945D01*
X021257Y023908D01*
X021188Y023839D01*
X021151Y023749D01*
X021151Y023651D01*
X021188Y023561D01*
X021153Y023648D02*
X015440Y023648D01*
X015454Y023661D02*
X015491Y023751D01*
X015491Y023849D01*
X015454Y023939D01*
X015385Y024008D01*
X015295Y024045D01*
X015197Y024045D01*
X015107Y024008D01*
X015038Y023939D01*
X015001Y023849D01*
X015001Y023751D01*
X015038Y023661D01*
X015107Y023592D01*
X015197Y023555D01*
X015295Y023555D01*
X015385Y023592D01*
X015454Y023661D01*
X015489Y023746D02*
X019854Y023746D01*
X019838Y023761D02*
X019907Y023692D01*
X019997Y023655D01*
X020095Y023655D01*
X020185Y023692D01*
X020254Y023761D01*
X020291Y023851D01*
X020291Y023949D01*
X020254Y024039D01*
X020185Y024108D01*
X020095Y024145D01*
X019997Y024145D01*
X019907Y024108D01*
X019838Y024039D01*
X019801Y023949D01*
X019801Y023851D01*
X019838Y023761D01*
X019804Y023845D02*
X015491Y023845D01*
X015450Y023943D02*
X019801Y023943D01*
X019841Y024042D02*
X015303Y024042D01*
X015189Y024042D02*
X012541Y024042D01*
X012541Y024049D02*
X012504Y024139D01*
X012435Y024208D01*
X012345Y024245D01*
X012247Y024245D01*
X012157Y024208D01*
X012088Y024139D01*
X012051Y024049D01*
X012051Y023951D01*
X012088Y023861D01*
X012157Y023792D01*
X012247Y023755D01*
X012345Y023755D01*
X012435Y023792D01*
X012504Y023861D01*
X012541Y023951D01*
X012541Y024049D01*
X012503Y024140D02*
X019513Y024140D01*
X019507Y024142D02*
X019597Y024105D01*
X019695Y024105D01*
X019785Y024142D01*
X019854Y024211D01*
X019883Y024282D01*
X019947Y024255D01*
X020045Y024255D01*
X020135Y024292D01*
X020204Y024361D01*
X020241Y024451D01*
X020241Y024549D01*
X020204Y024639D01*
X020135Y024708D01*
X020045Y024745D01*
X019947Y024745D01*
X019857Y024708D01*
X019788Y024639D01*
X019759Y024568D01*
X019695Y024595D01*
X019597Y024595D01*
X019507Y024558D01*
X019438Y024489D01*
X019401Y024399D01*
X019401Y024301D01*
X019438Y024211D01*
X019507Y024142D01*
X019427Y024239D02*
X012360Y024239D01*
X012232Y024239D02*
X011281Y024239D01*
X011304Y024261D02*
X011341Y024351D01*
X011341Y024449D01*
X011304Y024539D01*
X011275Y024568D01*
X011335Y024592D01*
X011378Y024636D01*
X011388Y024611D01*
X011457Y024542D01*
X011547Y024505D01*
X011645Y024505D01*
X011735Y024542D01*
X011804Y024611D01*
X011814Y024636D01*
X011857Y024592D01*
X011947Y024555D01*
X012045Y024555D01*
X012135Y024592D01*
X012204Y024661D01*
X012241Y024751D01*
X012241Y024849D01*
X012204Y024939D01*
X012135Y025008D01*
X012045Y025045D01*
X011947Y025045D01*
X011857Y025008D01*
X011788Y024939D01*
X011778Y024914D01*
X011735Y024958D01*
X011645Y024995D01*
X011547Y024995D01*
X011457Y024958D01*
X011414Y024914D01*
X011404Y024939D01*
X011335Y025008D01*
X011245Y025045D01*
X011147Y025045D01*
X011057Y025008D01*
X010988Y024939D01*
X010951Y024849D01*
X010951Y024751D01*
X010988Y024661D01*
X011017Y024632D01*
X010957Y024608D01*
X010888Y024539D01*
X010851Y024449D01*
X010851Y024351D01*
X010888Y024261D01*
X010917Y024232D01*
X010857Y024208D01*
X010788Y024139D01*
X010751Y024049D01*
X010751Y023951D01*
X010788Y023861D01*
X010857Y023792D01*
X010947Y023755D01*
X011045Y023755D01*
X011135Y023792D01*
X011204Y023861D01*
X011241Y023951D01*
X011241Y024049D01*
X011204Y024139D01*
X011175Y024168D01*
X011235Y024192D01*
X011304Y024261D01*
X011335Y024337D02*
X019401Y024337D01*
X019416Y024436D02*
X018669Y024436D01*
X018685Y024442D02*
X018754Y024511D01*
X018791Y024601D01*
X018791Y024699D01*
X018754Y024789D01*
X018685Y024858D01*
X018595Y024895D01*
X018497Y024895D01*
X018407Y024858D01*
X018338Y024789D01*
X018301Y024699D01*
X018301Y024601D01*
X018338Y024511D01*
X018407Y024442D01*
X018497Y024405D01*
X018595Y024405D01*
X018685Y024442D01*
X018763Y024534D02*
X019484Y024534D01*
X019786Y024633D02*
X018791Y024633D01*
X018778Y024731D02*
X019914Y024731D01*
X020079Y024731D02*
X023026Y024731D01*
X023026Y024633D02*
X020206Y024633D01*
X020241Y024534D02*
X023026Y024534D01*
X023026Y024436D02*
X020235Y024436D01*
X020180Y024337D02*
X023026Y024337D01*
X023026Y024239D02*
X019865Y024239D01*
X019780Y024140D02*
X019986Y024140D01*
X020107Y024140D02*
X023026Y024140D01*
X023026Y024042D02*
X020251Y024042D01*
X020291Y023943D02*
X021343Y023943D01*
X021450Y023943D02*
X023026Y023943D01*
X023026Y023845D02*
X021598Y023845D01*
X021641Y023746D02*
X023026Y023746D01*
X023026Y023648D02*
X021640Y023648D01*
X021592Y023549D02*
X023026Y023549D01*
X022712Y022663D02*
X020641Y022663D01*
X020605Y022564D02*
X022658Y022564D01*
X022651Y022466D02*
X020470Y022466D01*
X020322Y022466D02*
X018958Y022466D01*
X019026Y022564D02*
X020187Y022564D01*
X020151Y022663D02*
X019041Y022663D01*
X019015Y022761D02*
X020156Y022761D01*
X020209Y022860D02*
X018930Y022860D01*
X019651Y023155D02*
X017288Y023155D01*
X017338Y023057D02*
X019693Y023057D01*
X019653Y023254D02*
X009396Y023254D01*
X009396Y023352D02*
X019702Y023352D01*
X020239Y023746D02*
X021151Y023746D01*
X021194Y023845D02*
X020288Y023845D01*
X019845Y025405D02*
X019935Y025442D01*
X020004Y025511D01*
X020041Y025601D01*
X020041Y025699D01*
X020004Y025789D01*
X019935Y025858D01*
X019845Y025895D01*
X019747Y025895D01*
X019657Y025858D01*
X019588Y025789D01*
X019551Y025699D01*
X019551Y025601D01*
X019588Y025511D01*
X019657Y025442D01*
X019747Y025405D01*
X019845Y025405D01*
X019882Y025421D02*
X021010Y025421D01*
X021047Y025405D02*
X021145Y025405D01*
X021235Y025442D01*
X021304Y025511D01*
X021341Y025601D01*
X021341Y025699D01*
X021304Y025789D01*
X021235Y025858D01*
X021145Y025895D01*
X021047Y025895D01*
X020957Y025858D01*
X020888Y025789D01*
X020851Y025699D01*
X020851Y025601D01*
X020888Y025511D01*
X020957Y025442D01*
X021047Y025405D01*
X021182Y025421D02*
X022310Y025421D01*
X022347Y025405D02*
X022445Y025405D01*
X022535Y025442D01*
X022604Y025511D01*
X022641Y025601D01*
X022641Y025699D01*
X022604Y025789D01*
X022535Y025858D01*
X022445Y025895D01*
X022347Y025895D01*
X022257Y025858D01*
X022188Y025789D01*
X022151Y025699D01*
X022151Y025601D01*
X022188Y025511D01*
X022257Y025442D01*
X022347Y025405D01*
X022482Y025421D02*
X023026Y025421D01*
X023026Y025519D02*
X022607Y025519D01*
X022641Y025618D02*
X023026Y025618D01*
X023026Y025716D02*
X022634Y025716D01*
X022578Y025815D02*
X023026Y025815D01*
X023026Y025913D02*
X011015Y025913D01*
X011041Y025815D02*
X018314Y025815D01*
X018288Y025789D02*
X018251Y025699D01*
X018251Y025601D01*
X018288Y025511D01*
X018357Y025442D01*
X018447Y025405D01*
X018545Y025405D01*
X018635Y025442D01*
X018704Y025511D01*
X018741Y025601D01*
X018741Y025699D01*
X018704Y025789D01*
X018635Y025858D01*
X018545Y025895D01*
X018447Y025895D01*
X018357Y025858D01*
X018288Y025789D01*
X018258Y025716D02*
X011027Y025716D01*
X010960Y025618D02*
X018251Y025618D01*
X018285Y025519D02*
X010056Y025519D01*
X010061Y025531D02*
X010024Y025441D01*
X009955Y025372D01*
X009865Y025335D01*
X009767Y025335D01*
X009677Y025372D01*
X009608Y025441D01*
X009571Y025531D01*
X009571Y025629D01*
X009608Y025719D01*
X009677Y025788D01*
X009767Y025825D01*
X009865Y025825D01*
X009955Y025788D01*
X010024Y025719D01*
X010061Y025629D01*
X010061Y025531D01*
X010061Y025618D02*
X010632Y025618D01*
X010566Y025716D02*
X010025Y025716D01*
X009890Y025815D02*
X010551Y025815D01*
X010496Y026110D02*
X008853Y026110D01*
X008831Y026012D02*
X009548Y026012D01*
X009450Y025913D02*
X008885Y025913D01*
X008891Y025815D02*
X009351Y025815D01*
X009253Y025716D02*
X008856Y025716D01*
X008891Y026209D02*
X010496Y026209D01*
X010496Y026307D02*
X008888Y026307D01*
X008837Y026406D02*
X010496Y026406D01*
X010496Y026504D02*
X007047Y026504D01*
X007054Y026511D02*
X007091Y026601D01*
X007091Y026699D01*
X007054Y026789D01*
X006985Y026858D01*
X006895Y026895D01*
X006797Y026895D01*
X006707Y026858D01*
X006638Y026789D01*
X006601Y026699D01*
X006601Y026601D01*
X006638Y026511D01*
X006707Y026442D01*
X006797Y026405D01*
X006895Y026405D01*
X006985Y026442D01*
X007054Y026511D01*
X007091Y026603D02*
X010496Y026603D01*
X010496Y026701D02*
X007090Y026701D01*
X007043Y026800D02*
X010496Y026800D01*
X010496Y026898D02*
X007491Y026898D01*
X007504Y026911D02*
X007435Y026842D01*
X007345Y026805D01*
X007247Y026805D01*
X007157Y026842D01*
X007088Y026911D01*
X007051Y027001D01*
X007051Y027099D01*
X007088Y027189D01*
X007157Y027258D01*
X007247Y027295D01*
X007345Y027295D01*
X007435Y027258D01*
X007504Y027189D01*
X007541Y027099D01*
X007541Y027001D01*
X007504Y026911D01*
X007539Y026997D02*
X010496Y026997D01*
X010496Y027095D02*
X007541Y027095D01*
X007499Y027194D02*
X010496Y027194D01*
X010496Y027292D02*
X007352Y027292D01*
X007240Y027292D02*
X006227Y027292D01*
X006176Y027344D02*
X006290Y027230D01*
X006351Y027081D01*
X006351Y026919D01*
X006290Y026770D01*
X006176Y026656D01*
X006027Y026595D01*
X005866Y026595D01*
X005717Y026656D01*
X005603Y026770D01*
X005541Y026919D01*
X005541Y027081D01*
X005603Y027230D01*
X005717Y027344D01*
X005866Y027405D01*
X006027Y027405D01*
X006176Y027344D01*
X006062Y027391D02*
X010496Y027391D01*
X010496Y027489D02*
X004421Y027489D01*
X004421Y027391D02*
X004830Y027391D01*
X004866Y027405D02*
X004717Y027344D01*
X004603Y027230D01*
X004541Y027081D01*
X004541Y026919D01*
X004603Y026770D01*
X004717Y026656D01*
X004866Y026595D01*
X005027Y026595D01*
X005176Y026656D01*
X005290Y026770D01*
X005351Y026919D01*
X005351Y027081D01*
X005290Y027230D01*
X005176Y027344D01*
X005027Y027405D01*
X004866Y027405D01*
X004866Y027595D02*
X005027Y027595D01*
X005176Y027656D01*
X005290Y027770D01*
X005351Y027919D01*
X005351Y028081D01*
X005290Y028230D01*
X005176Y028344D01*
X005027Y028405D01*
X004866Y028405D01*
X004717Y028344D01*
X004603Y028230D01*
X004541Y028081D01*
X004541Y027919D01*
X004603Y027770D01*
X004717Y027656D01*
X004866Y027595D01*
X004687Y027686D02*
X004421Y027686D01*
X004421Y027588D02*
X010496Y027588D01*
X010496Y027686D02*
X006205Y027686D01*
X006176Y027656D02*
X006290Y027770D01*
X006351Y027919D01*
X006351Y028081D01*
X006290Y028230D01*
X006176Y028344D01*
X006027Y028405D01*
X005866Y028405D01*
X005717Y028344D01*
X005603Y028230D01*
X005541Y028081D01*
X005541Y027919D01*
X005603Y027770D01*
X005717Y027656D01*
X005866Y027595D01*
X006027Y027595D01*
X006176Y027656D01*
X006296Y027785D02*
X010496Y027785D01*
X010496Y027883D02*
X006336Y027883D01*
X006351Y027982D02*
X010496Y027982D01*
X010496Y028080D02*
X006351Y028080D01*
X006311Y028179D02*
X010496Y028179D01*
X010496Y028277D02*
X006242Y028277D01*
X006099Y028376D02*
X010496Y028376D01*
X010496Y028474D02*
X004421Y028474D01*
X004421Y028376D02*
X004794Y028376D01*
X004650Y028277D02*
X004421Y028277D01*
X004421Y028179D02*
X004581Y028179D01*
X004541Y028080D02*
X004421Y028080D01*
X004421Y027982D02*
X004541Y027982D01*
X004556Y027883D02*
X004421Y027883D01*
X004421Y027785D02*
X004597Y027785D01*
X004665Y027292D02*
X004421Y027292D01*
X004421Y027194D02*
X004588Y027194D01*
X004547Y027095D02*
X004421Y027095D01*
X004421Y026997D02*
X004541Y026997D01*
X004550Y026898D02*
X004421Y026898D01*
X004421Y026800D02*
X004591Y026800D01*
X004672Y026701D02*
X004421Y026701D01*
X004421Y026603D02*
X004847Y026603D01*
X004866Y026405D02*
X004717Y026344D01*
X004603Y026230D01*
X004541Y026081D01*
X004541Y025919D01*
X004603Y025770D01*
X004717Y025656D01*
X004866Y025595D01*
X005027Y025595D01*
X005176Y025656D01*
X005290Y025770D01*
X005351Y025919D01*
X005351Y026081D01*
X005290Y026230D01*
X005176Y026344D01*
X005027Y026405D01*
X004866Y026405D01*
X004680Y026307D02*
X004421Y026307D01*
X004421Y026209D02*
X004594Y026209D01*
X004553Y026110D02*
X004421Y026110D01*
X004421Y026012D02*
X004541Y026012D01*
X004544Y025913D02*
X004421Y025913D01*
X004421Y025815D02*
X004584Y025815D01*
X004657Y025716D02*
X004421Y025716D01*
X004421Y025618D02*
X004810Y025618D01*
X004695Y025322D02*
X004421Y025322D01*
X004421Y025224D02*
X004600Y025224D01*
X004559Y025125D02*
X004421Y025125D01*
X004421Y025027D02*
X004541Y025027D01*
X004541Y024928D02*
X004421Y024928D01*
X004421Y024830D02*
X004578Y024830D01*
X004791Y024534D02*
X007251Y024534D01*
X007265Y024633D02*
X006118Y024633D01*
X006250Y024731D02*
X007331Y024731D01*
X007278Y024436D02*
X004764Y024436D01*
X004710Y024337D02*
X004672Y024337D01*
X004612Y024239D02*
X004421Y024239D01*
X004421Y024140D02*
X004566Y024140D01*
X004541Y024042D02*
X004421Y024042D01*
X004421Y023943D02*
X004541Y023943D01*
X004572Y023845D02*
X004421Y023845D01*
X004421Y023746D02*
X004627Y023746D01*
X004738Y023648D02*
X004421Y023648D01*
X004421Y023352D02*
X004737Y023352D01*
X004627Y023254D02*
X004421Y023254D01*
X004421Y023155D02*
X004572Y023155D01*
X004541Y023057D02*
X004421Y023057D01*
X004421Y022958D02*
X004541Y022958D01*
X004566Y022860D02*
X004421Y022860D01*
X004421Y022761D02*
X004612Y022761D01*
X004710Y022663D02*
X004421Y022663D01*
X004421Y022367D02*
X004773Y022367D01*
X004642Y022269D02*
X004421Y022269D01*
X004421Y022170D02*
X004578Y022170D01*
X004541Y022072D02*
X004421Y022072D01*
X004421Y021973D02*
X004541Y021973D01*
X004559Y021875D02*
X004421Y021875D01*
X004421Y021776D02*
X004600Y021776D01*
X004695Y021678D02*
X004421Y021678D01*
X004421Y021382D02*
X004810Y021382D01*
X004657Y021284D02*
X004421Y021284D01*
X004421Y021185D02*
X004584Y021185D01*
X004543Y021087D02*
X004421Y021087D01*
X004421Y020988D02*
X004541Y020988D01*
X004553Y020890D02*
X004421Y020890D01*
X004421Y020791D02*
X004594Y020791D01*
X004680Y020693D02*
X004421Y020693D01*
X004421Y020397D02*
X004846Y020397D01*
X004672Y020299D02*
X004421Y020299D01*
X004421Y020200D02*
X004590Y020200D01*
X004550Y020102D02*
X004421Y020102D01*
X004421Y020003D02*
X004541Y020003D01*
X004547Y019905D02*
X004421Y019905D01*
X004421Y019806D02*
X004588Y019806D01*
X004507Y019708D02*
X004421Y019708D01*
X004421Y019609D02*
X004426Y019609D01*
X005191Y018329D02*
X005702Y018329D01*
X005603Y018230D02*
X005541Y018081D01*
X005541Y018033D02*
X005351Y018033D01*
X005351Y017935D02*
X005541Y017935D01*
X005575Y017836D02*
X005317Y017836D01*
X005257Y017738D02*
X005635Y017738D01*
X005759Y017639D02*
X005134Y017639D01*
X005027Y017405D02*
X004866Y017405D01*
X004717Y017344D01*
X004603Y017230D01*
X004541Y017081D01*
X004541Y016919D01*
X004603Y016770D01*
X004717Y016656D01*
X004866Y016595D01*
X005027Y016595D01*
X005176Y016656D01*
X005290Y016770D01*
X005351Y016919D01*
X005351Y017081D01*
X005290Y017230D01*
X005176Y017344D01*
X005027Y017405D01*
X005176Y017344D02*
X005717Y017344D01*
X005603Y017230D01*
X005541Y017081D01*
X005541Y016919D01*
X005603Y016770D01*
X005717Y016656D01*
X005866Y016595D01*
X006027Y016595D01*
X006176Y016656D01*
X006290Y016770D01*
X006351Y016919D01*
X006351Y017081D01*
X006290Y017230D01*
X006176Y017344D01*
X006027Y017405D01*
X005866Y017405D01*
X005717Y017344D01*
X005618Y017245D02*
X005274Y017245D01*
X005324Y017147D02*
X005568Y017147D01*
X005541Y017048D02*
X005351Y017048D01*
X005351Y016950D02*
X005541Y016950D01*
X005569Y016851D02*
X005323Y016851D01*
X005272Y016753D02*
X005620Y016753D01*
X005722Y016654D02*
X005170Y016654D01*
X005027Y016405D02*
X004866Y016405D01*
X004717Y016344D01*
X004603Y016230D01*
X004541Y016081D01*
X004541Y015919D01*
X004603Y015770D01*
X004717Y015656D01*
X004866Y015595D01*
X005027Y015595D01*
X005176Y015656D01*
X005290Y015770D01*
X005351Y015919D01*
X005351Y016081D01*
X005290Y016230D01*
X005176Y016344D01*
X005027Y016405D01*
X005140Y016359D02*
X005753Y016359D01*
X005717Y016344D02*
X005603Y016230D01*
X005541Y016081D01*
X005541Y015919D01*
X005603Y015770D01*
X005717Y015656D01*
X005866Y015595D01*
X006027Y015595D01*
X006176Y015656D01*
X006290Y015770D01*
X006351Y015919D01*
X006351Y016081D01*
X006290Y016230D01*
X006176Y016344D01*
X006027Y016405D01*
X005866Y016405D01*
X005717Y016344D01*
X005633Y016260D02*
X005259Y016260D01*
X005318Y016162D02*
X005574Y016162D01*
X005541Y016063D02*
X005351Y016063D01*
X005351Y015965D02*
X005541Y015965D01*
X005563Y015866D02*
X005329Y015866D01*
X005287Y015768D02*
X005605Y015768D01*
X005704Y015669D02*
X005188Y015669D01*
X005103Y015374D02*
X005789Y015374D01*
X005717Y015344D02*
X005603Y015230D01*
X005541Y015081D01*
X005541Y014919D01*
X005603Y014770D01*
X005717Y014656D01*
X005866Y014595D01*
X006027Y014595D01*
X006176Y014656D01*
X006290Y014770D01*
X006351Y014919D01*
X006351Y015081D01*
X006290Y015230D01*
X006176Y015344D01*
X006027Y015405D01*
X005866Y015405D01*
X005717Y015344D01*
X005648Y015275D02*
X005244Y015275D01*
X005290Y015230D02*
X005176Y015344D01*
X005027Y015405D01*
X004866Y015405D01*
X004717Y015344D01*
X004603Y015230D01*
X004541Y015081D01*
X004541Y014919D01*
X004603Y014770D01*
X004717Y014656D01*
X004866Y014595D01*
X005027Y014595D01*
X005176Y014656D01*
X005290Y014770D01*
X005351Y014919D01*
X005351Y015081D01*
X005290Y015230D01*
X005312Y015177D02*
X005581Y015177D01*
X005541Y015078D02*
X005351Y015078D01*
X005351Y014980D02*
X005541Y014980D01*
X005557Y014881D02*
X005336Y014881D01*
X005295Y014783D02*
X005598Y014783D01*
X005689Y014684D02*
X005203Y014684D01*
X005067Y014389D02*
X005825Y014389D01*
X005866Y014405D02*
X005717Y014344D01*
X005603Y014230D01*
X005541Y014081D01*
X005541Y013919D01*
X005603Y013770D01*
X005717Y013656D01*
X005866Y013595D01*
X006027Y013595D01*
X006176Y013656D01*
X006290Y013770D01*
X006351Y013919D01*
X006351Y014081D01*
X006290Y014230D01*
X006176Y014344D01*
X006027Y014405D01*
X005866Y014405D01*
X006067Y014389D02*
X015596Y014389D01*
X015596Y014290D02*
X006229Y014290D01*
X006306Y014192D02*
X015596Y014192D01*
X015596Y014093D02*
X006346Y014093D01*
X006351Y013995D02*
X015596Y013995D01*
X015596Y013896D02*
X006342Y013896D01*
X006301Y013798D02*
X015596Y013798D01*
X015596Y013699D02*
X006218Y013699D01*
X006041Y013601D02*
X010900Y013601D01*
X010907Y013608D02*
X010838Y013539D01*
X010801Y013449D01*
X010801Y013351D01*
X010838Y013261D01*
X010907Y013192D01*
X010997Y013155D01*
X011095Y013155D01*
X011185Y013192D01*
X011254Y013261D01*
X011291Y013351D01*
X011291Y013449D01*
X011254Y013539D01*
X011185Y013608D01*
X011095Y013645D01*
X010997Y013645D01*
X010907Y013608D01*
X010823Y013502D02*
X004421Y013502D01*
X004421Y013404D02*
X004861Y013404D01*
X004866Y013405D02*
X004717Y013344D01*
X004603Y013230D01*
X004541Y013081D01*
X004541Y012919D01*
X004603Y012770D01*
X004717Y012656D01*
X004866Y012595D01*
X005027Y012595D01*
X005176Y012656D01*
X005290Y012770D01*
X005351Y012919D01*
X005351Y013081D01*
X005290Y013230D01*
X005176Y013344D01*
X005027Y013405D01*
X004866Y013405D01*
X005031Y013404D02*
X005861Y013404D01*
X005866Y013405D02*
X005717Y013344D01*
X005603Y013230D01*
X005541Y013081D01*
X005541Y012919D01*
X005603Y012770D01*
X005717Y012656D01*
X005866Y012595D01*
X006027Y012595D01*
X006176Y012656D01*
X006290Y012770D01*
X006351Y012919D01*
X006351Y013081D01*
X006290Y013230D01*
X006176Y013344D01*
X006027Y013405D01*
X005866Y013405D01*
X006031Y013404D02*
X010801Y013404D01*
X010820Y013305D02*
X006214Y013305D01*
X006299Y013207D02*
X010893Y013207D01*
X011199Y013207D02*
X013543Y013207D01*
X013557Y013192D02*
X013647Y013155D01*
X013745Y013155D01*
X013835Y013192D01*
X013904Y013261D01*
X013941Y013351D01*
X013941Y013449D01*
X013904Y013539D01*
X013835Y013608D01*
X013745Y013645D01*
X013647Y013645D01*
X013557Y013608D01*
X013488Y013539D01*
X013451Y013449D01*
X013451Y013351D01*
X013488Y013261D01*
X013557Y013192D01*
X013470Y013305D02*
X011272Y013305D01*
X011291Y013404D02*
X013451Y013404D01*
X013473Y013502D02*
X011269Y013502D01*
X011192Y013601D02*
X013550Y013601D01*
X013842Y013601D02*
X015596Y013601D01*
X015596Y013502D02*
X013919Y013502D01*
X013941Y013404D02*
X015596Y013404D01*
X015596Y013305D02*
X013922Y013305D01*
X013849Y013207D02*
X015596Y013207D01*
X015596Y013108D02*
X006340Y013108D01*
X006351Y013010D02*
X015596Y013010D01*
X015596Y012911D02*
X011327Y012911D01*
X011335Y012908D02*
X011245Y012945D01*
X011147Y012945D01*
X011057Y012908D01*
X010988Y012839D01*
X010951Y012749D01*
X010951Y012651D01*
X010988Y012561D01*
X011057Y012492D01*
X011147Y012455D01*
X011245Y012455D01*
X011335Y012492D01*
X011404Y012561D01*
X011441Y012651D01*
X011441Y012749D01*
X011404Y012839D01*
X011335Y012908D01*
X011415Y012813D02*
X015596Y012813D01*
X015596Y012714D02*
X011441Y012714D01*
X011426Y012616D02*
X015596Y012616D01*
X015596Y012517D02*
X011360Y012517D01*
X011033Y012517D02*
X004421Y012517D01*
X004421Y012419D02*
X015596Y012419D01*
X015596Y012320D02*
X006199Y012320D01*
X006176Y012344D02*
X006027Y012405D01*
X005866Y012405D01*
X005717Y012344D01*
X005603Y012230D01*
X005541Y012081D01*
X005541Y011919D01*
X005603Y011770D01*
X005717Y011656D01*
X005866Y011595D01*
X006027Y011595D01*
X006176Y011656D01*
X006290Y011770D01*
X006351Y011919D01*
X006351Y012081D01*
X006290Y012230D01*
X006176Y012344D01*
X006293Y012222D02*
X007391Y012222D01*
X007357Y012208D02*
X007288Y012139D01*
X007251Y012049D01*
X007251Y011951D01*
X007288Y011861D01*
X007357Y011792D01*
X007447Y011755D01*
X007545Y011755D01*
X007635Y011792D01*
X007704Y011861D01*
X007741Y011951D01*
X007741Y012049D01*
X007704Y012139D01*
X007635Y012208D01*
X007545Y012245D01*
X007447Y012245D01*
X007357Y012208D01*
X007282Y012123D02*
X006334Y012123D01*
X006351Y012025D02*
X007251Y012025D01*
X007262Y011926D02*
X006351Y011926D01*
X006313Y011828D02*
X007322Y011828D01*
X007135Y011708D02*
X007045Y011745D01*
X006947Y011745D01*
X006857Y011708D01*
X006788Y011639D01*
X006751Y011549D01*
X006751Y011451D01*
X006788Y011361D01*
X006857Y011292D01*
X006947Y011255D01*
X007045Y011255D01*
X007135Y011292D01*
X007204Y011361D01*
X007241Y011451D01*
X007241Y011549D01*
X007204Y011639D01*
X007135Y011708D01*
X007083Y011729D02*
X008960Y011729D01*
X008951Y011751D02*
X008988Y011661D01*
X009057Y011592D01*
X009147Y011555D01*
X009245Y011555D01*
X009335Y011592D01*
X009404Y011661D01*
X009441Y011751D01*
X009441Y011849D01*
X009404Y011939D01*
X009335Y012008D01*
X009245Y012045D01*
X009147Y012045D01*
X009057Y012008D01*
X008988Y011939D01*
X008951Y011849D01*
X008951Y011751D01*
X008951Y011828D02*
X007670Y011828D01*
X007731Y011926D02*
X008983Y011926D01*
X009098Y012025D02*
X007741Y012025D01*
X007710Y012123D02*
X015596Y012123D01*
X015596Y012025D02*
X009294Y012025D01*
X009409Y011926D02*
X015596Y011926D01*
X015596Y011828D02*
X009441Y011828D01*
X009432Y011729D02*
X015596Y011729D01*
X015596Y011631D02*
X009373Y011631D01*
X009019Y011631D02*
X007207Y011631D01*
X007241Y011532D02*
X015596Y011532D01*
X015596Y011434D02*
X007234Y011434D01*
X007178Y011335D02*
X015611Y011335D01*
X015712Y011237D02*
X006283Y011237D01*
X006290Y011230D02*
X006176Y011344D01*
X006027Y011405D01*
X005866Y011405D01*
X005717Y011344D01*
X005603Y011230D01*
X005541Y011081D01*
X005541Y010919D01*
X005603Y010770D01*
X005717Y010656D01*
X005866Y010595D01*
X006027Y010595D01*
X006176Y010656D01*
X006290Y010770D01*
X006351Y010919D01*
X006351Y011081D01*
X006290Y011230D01*
X006328Y011138D02*
X015812Y011138D01*
X015913Y011040D02*
X006351Y011040D01*
X006351Y010941D02*
X016013Y010941D01*
X016113Y010843D02*
X006320Y010843D01*
X006263Y010744D02*
X016214Y010744D01*
X016314Y010646D02*
X006149Y010646D01*
X006027Y010405D02*
X005866Y010405D01*
X005717Y010344D01*
X005603Y010230D01*
X005541Y010081D01*
X005541Y009919D01*
X005603Y009770D01*
X005717Y009656D01*
X005866Y009595D01*
X006027Y009595D01*
X006176Y009656D01*
X006290Y009770D01*
X006351Y009919D01*
X006351Y010081D01*
X006290Y010230D01*
X006176Y010344D01*
X006027Y010405D01*
X006160Y010350D02*
X016615Y010350D01*
X016715Y010252D02*
X014291Y010252D01*
X014304Y010239D02*
X014235Y010308D01*
X014145Y010345D01*
X014047Y010345D01*
X013957Y010308D01*
X013888Y010239D01*
X013851Y010149D01*
X013851Y010051D01*
X013888Y009961D01*
X013957Y009892D01*
X014047Y009855D01*
X014145Y009855D01*
X014235Y009892D01*
X014304Y009961D01*
X014341Y010051D01*
X014341Y010149D01*
X014304Y010239D01*
X014339Y010153D02*
X016816Y010153D01*
X016916Y010055D02*
X014341Y010055D01*
X014299Y009956D02*
X017016Y009956D01*
X017117Y009858D02*
X014151Y009858D01*
X014041Y009858D02*
X013151Y009858D01*
X013145Y009855D02*
X013235Y009892D01*
X013304Y009961D01*
X013341Y010051D01*
X013341Y010149D01*
X013304Y010239D01*
X013235Y010308D01*
X013145Y010345D01*
X013047Y010345D01*
X012957Y010308D01*
X012888Y010239D01*
X012851Y010149D01*
X012851Y010051D01*
X012888Y009961D01*
X012957Y009892D01*
X013047Y009855D01*
X013145Y009855D01*
X013041Y009858D02*
X006326Y009858D01*
X006351Y009956D02*
X012894Y009956D01*
X012851Y010055D02*
X006351Y010055D01*
X006321Y010153D02*
X012853Y010153D01*
X012901Y010252D02*
X006268Y010252D01*
X006278Y009759D02*
X017217Y009759D01*
X017318Y009661D02*
X011582Y009661D01*
X011604Y009639D02*
X011535Y009708D01*
X011445Y009745D01*
X011347Y009745D01*
X011257Y009708D01*
X011188Y009639D01*
X011151Y009549D01*
X011151Y009451D01*
X011188Y009361D01*
X011257Y009292D01*
X011347Y009255D01*
X011445Y009255D01*
X011535Y009292D01*
X011604Y009361D01*
X011641Y009451D01*
X011641Y009549D01*
X011604Y009639D01*
X011636Y009562D02*
X012137Y009562D01*
X012177Y009603D02*
X012093Y009519D01*
X012048Y009409D01*
X012048Y009291D01*
X012093Y009181D01*
X012177Y009097D01*
X012287Y009052D01*
X012405Y009052D01*
X012515Y009097D01*
X012599Y009181D01*
X012644Y009291D01*
X012644Y009409D01*
X012599Y009519D01*
X012515Y009603D01*
X012405Y009648D01*
X012287Y009648D01*
X012177Y009603D01*
X012071Y009464D02*
X011641Y009464D01*
X011605Y009365D02*
X012048Y009365D01*
X012058Y009267D02*
X011473Y009267D01*
X011320Y009267D02*
X008641Y009267D01*
X008641Y009251D02*
X008604Y009161D01*
X008535Y009092D01*
X008445Y009055D01*
X008347Y009055D01*
X008257Y009092D01*
X008188Y009161D01*
X008151Y009251D01*
X008151Y009349D01*
X008188Y009439D01*
X008257Y009508D01*
X008347Y009545D01*
X008445Y009545D01*
X008535Y009508D01*
X008604Y009439D01*
X008641Y009349D01*
X008641Y009251D01*
X008607Y009168D02*
X012107Y009168D01*
X012244Y009070D02*
X011573Y009070D01*
X011632Y008971D02*
X018020Y008971D01*
X017920Y009070D02*
X012448Y009070D01*
X012586Y009168D02*
X017819Y009168D01*
X017719Y009267D02*
X012634Y009267D01*
X012644Y009365D02*
X017619Y009365D01*
X017518Y009464D02*
X012622Y009464D01*
X012556Y009562D02*
X017418Y009562D01*
X017482Y008676D02*
X024146Y008676D01*
X024146Y008774D02*
X023049Y008774D01*
X023151Y008873D02*
X024146Y008873D01*
X024146Y008971D02*
X023253Y008971D01*
X023355Y009070D02*
X024146Y009070D01*
X024146Y009168D02*
X023457Y009168D01*
X023560Y009267D02*
X024146Y009267D01*
X024146Y008577D02*
X017598Y008577D01*
X017655Y008479D02*
X024146Y008479D01*
X024146Y008380D02*
X024088Y008380D01*
X023805Y008380D02*
X017671Y008380D01*
X017671Y008282D02*
X023655Y008282D01*
X023583Y008183D02*
X017671Y008183D01*
X017671Y008085D02*
X023543Y008085D01*
X023541Y007986D02*
X017671Y007986D01*
X018221Y008774D02*
X011609Y008774D01*
X011641Y008873D02*
X018120Y008873D01*
X016515Y010449D02*
X004421Y010449D01*
X004421Y010547D02*
X016414Y010547D01*
X015596Y012222D02*
X007602Y012222D01*
X006909Y011729D02*
X006248Y011729D01*
X006113Y011631D02*
X006785Y011631D01*
X006751Y011532D02*
X004421Y011532D01*
X004421Y011434D02*
X006759Y011434D01*
X006815Y011335D02*
X006184Y011335D01*
X005708Y011335D02*
X005184Y011335D01*
X005176Y011344D02*
X005027Y011405D01*
X004866Y011405D01*
X004717Y011344D01*
X004603Y011230D01*
X004541Y011081D01*
X004541Y010919D01*
X004603Y010770D01*
X004717Y010656D01*
X004866Y010595D01*
X005027Y010595D01*
X005176Y010656D01*
X005290Y010770D01*
X005351Y010919D01*
X005351Y011081D01*
X005290Y011230D01*
X005176Y011344D01*
X005283Y011237D02*
X005610Y011237D01*
X005565Y011138D02*
X005328Y011138D01*
X005351Y011040D02*
X005541Y011040D01*
X005541Y010941D02*
X005351Y010941D01*
X005320Y010843D02*
X005573Y010843D01*
X005629Y010744D02*
X005263Y010744D01*
X005149Y010646D02*
X005743Y010646D01*
X005732Y010350D02*
X005160Y010350D01*
X005176Y010344D02*
X005027Y010405D01*
X004866Y010405D01*
X004717Y010344D01*
X004603Y010230D01*
X004541Y010081D01*
X004541Y009919D01*
X004603Y009770D01*
X004717Y009656D01*
X004866Y009595D01*
X005027Y009595D01*
X005176Y009656D01*
X005290Y009770D01*
X005351Y009919D01*
X005351Y010081D01*
X005290Y010230D01*
X005176Y010344D01*
X005268Y010252D02*
X005625Y010252D01*
X005571Y010153D02*
X005321Y010153D01*
X005351Y010055D02*
X005541Y010055D01*
X005541Y009956D02*
X005351Y009956D01*
X005326Y009858D02*
X005567Y009858D01*
X005614Y009759D02*
X005278Y009759D01*
X005180Y009661D02*
X005713Y009661D01*
X005866Y009405D02*
X005717Y009344D01*
X005603Y009230D01*
X005541Y009081D01*
X005541Y008919D01*
X005603Y008770D01*
X005717Y008656D01*
X005866Y008595D01*
X006027Y008595D01*
X006176Y008656D01*
X006290Y008770D01*
X006351Y008919D01*
X006351Y009081D01*
X006290Y009230D01*
X006176Y009344D01*
X006027Y009405D01*
X005866Y009405D01*
X005768Y009365D02*
X005124Y009365D01*
X005176Y009344D02*
X005027Y009405D01*
X004866Y009405D01*
X004717Y009344D01*
X004603Y009230D01*
X004541Y009081D01*
X004541Y008919D01*
X004603Y008770D01*
X004717Y008656D01*
X004866Y008595D01*
X005027Y008595D01*
X005176Y008656D01*
X005290Y008770D01*
X005351Y008919D01*
X005351Y009081D01*
X005290Y009230D01*
X005176Y009344D01*
X005253Y009267D02*
X005640Y009267D01*
X005577Y009168D02*
X005315Y009168D01*
X005351Y009070D02*
X005541Y009070D01*
X005541Y008971D02*
X005351Y008971D01*
X005332Y008873D02*
X005560Y008873D01*
X005601Y008774D02*
X005291Y008774D01*
X005195Y008676D02*
X005698Y008676D01*
X005805Y008380D02*
X005088Y008380D01*
X005027Y008405D02*
X004866Y008405D01*
X004717Y008344D01*
X004603Y008230D01*
X004541Y008081D01*
X004541Y007919D01*
X004603Y007770D01*
X004717Y007656D01*
X004866Y007595D01*
X005027Y007595D01*
X005176Y007656D01*
X005290Y007770D01*
X005351Y007919D01*
X005351Y008081D01*
X005290Y008230D01*
X005176Y008344D01*
X005027Y008405D01*
X004805Y008380D02*
X004421Y008380D01*
X004421Y008282D02*
X004655Y008282D01*
X004583Y008183D02*
X004421Y008183D01*
X004421Y008085D02*
X004543Y008085D01*
X004541Y007986D02*
X004421Y007986D01*
X004421Y007888D02*
X004554Y007888D01*
X004595Y007789D02*
X004421Y007789D01*
X004421Y007691D02*
X004683Y007691D01*
X004421Y007592D02*
X010221Y007592D01*
X010221Y007494D02*
X004421Y007494D01*
X004421Y007395D02*
X010221Y007395D01*
X010221Y007297D02*
X004421Y007297D01*
X004421Y007198D02*
X010221Y007198D01*
X010221Y007100D02*
X004421Y007100D01*
X004421Y007001D02*
X010221Y007001D01*
X010221Y006903D02*
X004421Y006903D01*
X004421Y006804D02*
X010221Y006804D01*
X010221Y006706D02*
X004421Y006706D01*
X004421Y006607D02*
X010221Y006607D01*
X010221Y006509D02*
X004421Y006509D01*
X004421Y006410D02*
X007163Y006410D01*
X007157Y006408D02*
X007088Y006339D01*
X007051Y006249D01*
X007051Y006151D01*
X007088Y006061D01*
X007157Y005992D01*
X007247Y005955D01*
X007345Y005955D01*
X007435Y005992D01*
X007504Y006061D01*
X007541Y006151D01*
X007541Y006249D01*
X007504Y006339D01*
X007435Y006408D01*
X007345Y006445D01*
X007247Y006445D01*
X007157Y006408D01*
X007077Y006312D02*
X004421Y006312D01*
X004421Y006213D02*
X007051Y006213D01*
X007066Y006115D02*
X004421Y006115D01*
X004421Y006016D02*
X007134Y006016D01*
X007459Y006016D02*
X010221Y006016D01*
X010221Y005918D02*
X004421Y005918D01*
X004421Y005819D02*
X010221Y005819D01*
X010221Y005721D02*
X004421Y005721D01*
X004421Y005622D02*
X010221Y005622D01*
X010221Y005524D02*
X004421Y005524D01*
X004421Y005425D02*
X010221Y005425D01*
X010221Y005327D02*
X004421Y005327D01*
X004421Y005228D02*
X010221Y005228D01*
X010221Y005130D02*
X004421Y005130D01*
X004421Y005031D02*
X010221Y005031D01*
X010221Y004933D02*
X004421Y004933D01*
X004421Y004834D02*
X010221Y004834D01*
X010221Y004736D02*
X004421Y004736D01*
X004421Y004637D02*
X010221Y004637D01*
X010221Y004539D02*
X004421Y004539D01*
X004421Y004440D02*
X010221Y004440D01*
X010221Y004342D02*
X004421Y004342D01*
X004421Y004243D02*
X010221Y004243D01*
X010221Y004145D02*
X004421Y004145D01*
X004421Y004046D02*
X004664Y004046D01*
X004527Y003948D02*
X004421Y003948D01*
X004421Y003849D02*
X004429Y003849D01*
X005229Y004046D02*
X010221Y004046D01*
X010221Y003948D02*
X005365Y003948D01*
X005463Y003849D02*
X010221Y003849D01*
X010221Y003751D02*
X005505Y003751D01*
X005546Y003652D02*
X010221Y003652D01*
X010221Y003554D02*
X005559Y003554D01*
X005559Y003455D02*
X010221Y003455D01*
X010221Y003357D02*
X005550Y003357D01*
X005509Y003258D02*
X010221Y003258D01*
X010221Y003160D02*
X005468Y003160D01*
X005373Y003061D02*
X010221Y003061D01*
X010221Y006115D02*
X007526Y006115D01*
X007541Y006213D02*
X010221Y006213D01*
X010221Y006312D02*
X007515Y006312D01*
X007429Y006410D02*
X010221Y006410D01*
X010221Y007691D02*
X006210Y007691D01*
X006176Y007656D02*
X006290Y007770D01*
X006351Y007919D01*
X006351Y008081D01*
X006290Y008230D01*
X006176Y008344D01*
X006027Y008405D01*
X005866Y008405D01*
X005717Y008344D01*
X005603Y008230D01*
X005541Y008081D01*
X005541Y007919D01*
X005603Y007770D01*
X005717Y007656D01*
X005866Y007595D01*
X006027Y007595D01*
X006176Y007656D01*
X006297Y007789D02*
X010221Y007789D01*
X010221Y007888D02*
X006338Y007888D01*
X006351Y007986D02*
X010221Y007986D01*
X010221Y008085D02*
X006350Y008085D01*
X006309Y008183D02*
X010221Y008183D01*
X010221Y008282D02*
X006238Y008282D01*
X006088Y008380D02*
X010221Y008380D01*
X010237Y008479D02*
X004421Y008479D01*
X004421Y008577D02*
X010294Y008577D01*
X010410Y008676D02*
X006195Y008676D01*
X006291Y008774D02*
X011183Y008774D01*
X011151Y008873D02*
X006332Y008873D01*
X006351Y008971D02*
X011160Y008971D01*
X011219Y009070D02*
X008480Y009070D01*
X008312Y009070D02*
X006351Y009070D01*
X006315Y009168D02*
X008186Y009168D01*
X008151Y009267D02*
X006253Y009267D01*
X006124Y009365D02*
X008158Y009365D01*
X008213Y009464D02*
X004421Y009464D01*
X004421Y009562D02*
X011157Y009562D01*
X011151Y009464D02*
X008579Y009464D01*
X008634Y009365D02*
X011187Y009365D01*
X011210Y009661D02*
X006180Y009661D01*
X005655Y008282D02*
X005238Y008282D01*
X005309Y008183D02*
X005583Y008183D01*
X005543Y008085D02*
X005350Y008085D01*
X005351Y007986D02*
X005541Y007986D01*
X005554Y007888D02*
X005338Y007888D01*
X005297Y007789D02*
X005595Y007789D01*
X005683Y007691D02*
X005210Y007691D01*
X004698Y008676D02*
X004421Y008676D01*
X004421Y008774D02*
X004601Y008774D01*
X004560Y008873D02*
X004421Y008873D01*
X004421Y008971D02*
X004541Y008971D01*
X004541Y009070D02*
X004421Y009070D01*
X004421Y009168D02*
X004577Y009168D01*
X004640Y009267D02*
X004421Y009267D01*
X004421Y009365D02*
X004768Y009365D01*
X004713Y009661D02*
X004421Y009661D01*
X004421Y009759D02*
X004614Y009759D01*
X004567Y009858D02*
X004421Y009858D01*
X004421Y009956D02*
X004541Y009956D01*
X004541Y010055D02*
X004421Y010055D01*
X004421Y010153D02*
X004571Y010153D01*
X004625Y010252D02*
X004421Y010252D01*
X004421Y010350D02*
X004732Y010350D01*
X004743Y010646D02*
X004421Y010646D01*
X004421Y010744D02*
X004629Y010744D01*
X004573Y010843D02*
X004421Y010843D01*
X004421Y010941D02*
X004541Y010941D01*
X004541Y011040D02*
X004421Y011040D01*
X004421Y011138D02*
X004565Y011138D01*
X004610Y011237D02*
X004421Y011237D01*
X004421Y011335D02*
X004708Y011335D01*
X004866Y011595D02*
X005027Y011595D01*
X005176Y011656D01*
X005290Y011770D01*
X005351Y011919D01*
X005351Y012081D01*
X005290Y012230D01*
X005176Y012344D01*
X005027Y012405D01*
X004866Y012405D01*
X004717Y012344D01*
X004603Y012230D01*
X004541Y012081D01*
X004541Y011919D01*
X004603Y011770D01*
X004717Y011656D01*
X004866Y011595D01*
X004779Y011631D02*
X004421Y011631D01*
X004421Y011729D02*
X004644Y011729D01*
X004579Y011828D02*
X004421Y011828D01*
X004421Y011926D02*
X004541Y011926D01*
X004541Y012025D02*
X004421Y012025D01*
X004421Y012123D02*
X004558Y012123D01*
X004599Y012222D02*
X004421Y012222D01*
X004421Y012320D02*
X004693Y012320D01*
X004815Y012616D02*
X004421Y012616D01*
X004421Y012714D02*
X004659Y012714D01*
X004585Y012813D02*
X004421Y012813D01*
X004421Y012911D02*
X004544Y012911D01*
X004541Y013010D02*
X004421Y013010D01*
X004421Y013108D02*
X004552Y013108D01*
X004593Y013207D02*
X004421Y013207D01*
X004421Y013305D02*
X004678Y013305D01*
X004852Y013601D02*
X004421Y013601D01*
X004421Y013699D02*
X004674Y013699D01*
X004717Y013656D02*
X004866Y013595D01*
X005027Y013595D01*
X005176Y013656D01*
X005290Y013770D01*
X005351Y013919D01*
X005351Y014081D01*
X005290Y014230D01*
X005176Y014344D01*
X005027Y014405D01*
X004866Y014405D01*
X004717Y014344D01*
X004603Y014230D01*
X004541Y014081D01*
X004541Y013919D01*
X004603Y013770D01*
X004717Y013656D01*
X004591Y013798D02*
X004421Y013798D01*
X004421Y013896D02*
X004551Y013896D01*
X004541Y013995D02*
X004421Y013995D01*
X004421Y014093D02*
X004546Y014093D01*
X004587Y014192D02*
X004421Y014192D01*
X004421Y014290D02*
X004663Y014290D01*
X004825Y014389D02*
X004421Y014389D01*
X004421Y014487D02*
X015528Y014487D01*
X015430Y014586D02*
X004421Y014586D01*
X004421Y014684D02*
X004689Y014684D01*
X004598Y014783D02*
X004421Y014783D01*
X004421Y014881D02*
X004557Y014881D01*
X004541Y014980D02*
X004421Y014980D01*
X004421Y015078D02*
X004541Y015078D01*
X004581Y015177D02*
X004421Y015177D01*
X004421Y015275D02*
X004648Y015275D01*
X004789Y015374D02*
X004421Y015374D01*
X004421Y015472D02*
X010624Y015472D01*
X010526Y015571D02*
X004421Y015571D01*
X004421Y015669D02*
X004704Y015669D01*
X004605Y015768D02*
X004421Y015768D01*
X004421Y015866D02*
X004563Y015866D01*
X004541Y015965D02*
X004421Y015965D01*
X004421Y016063D02*
X004541Y016063D01*
X004574Y016162D02*
X004421Y016162D01*
X004421Y016260D02*
X004633Y016260D01*
X004753Y016359D02*
X004421Y016359D01*
X004421Y016457D02*
X007843Y016457D01*
X007857Y016442D02*
X007947Y016405D01*
X008045Y016405D01*
X008135Y016442D01*
X008204Y016511D01*
X008241Y016601D01*
X008241Y016699D01*
X008204Y016789D01*
X008135Y016858D01*
X008045Y016895D01*
X007947Y016895D01*
X007857Y016858D01*
X007788Y016789D01*
X007751Y016699D01*
X007751Y016601D01*
X007788Y016511D01*
X007857Y016442D01*
X007770Y016556D02*
X004421Y016556D01*
X004421Y016654D02*
X004722Y016654D01*
X004620Y016753D02*
X004421Y016753D01*
X004421Y016851D02*
X004569Y016851D01*
X004541Y016950D02*
X004421Y016950D01*
X004421Y017048D02*
X004541Y017048D01*
X004568Y017147D02*
X004421Y017147D01*
X004421Y017245D02*
X004618Y017245D01*
X004717Y017344D02*
X004421Y017344D01*
X004421Y017442D02*
X007490Y017442D01*
X007497Y017445D02*
X007407Y017408D01*
X007338Y017339D01*
X007301Y017249D01*
X007301Y017151D01*
X007338Y017061D01*
X007407Y016992D01*
X007497Y016955D01*
X007595Y016955D01*
X007685Y016992D01*
X007754Y017061D01*
X007791Y017151D01*
X007791Y017249D01*
X007754Y017339D01*
X007685Y017408D01*
X007595Y017445D01*
X007497Y017445D01*
X007602Y017442D02*
X009646Y017442D01*
X009646Y017344D02*
X007749Y017344D01*
X007791Y017245D02*
X009646Y017245D01*
X009646Y017147D02*
X007789Y017147D01*
X007741Y017048D02*
X009646Y017048D01*
X009646Y016950D02*
X006351Y016950D01*
X006351Y017048D02*
X007352Y017048D01*
X007303Y017147D02*
X006324Y017147D01*
X006274Y017245D02*
X007301Y017245D01*
X007343Y017344D02*
X006176Y017344D01*
X006323Y016851D02*
X007851Y016851D01*
X007773Y016753D02*
X006272Y016753D01*
X006170Y016654D02*
X007751Y016654D01*
X008142Y016851D02*
X009646Y016851D01*
X009646Y016753D02*
X008219Y016753D01*
X008241Y016654D02*
X009646Y016654D01*
X009646Y016556D02*
X008222Y016556D01*
X008150Y016457D02*
X009646Y016457D01*
X009738Y016359D02*
X006140Y016359D01*
X006259Y016260D02*
X009836Y016260D01*
X009935Y016162D02*
X006318Y016162D01*
X006351Y016063D02*
X010033Y016063D01*
X010132Y015965D02*
X006351Y015965D01*
X006329Y015866D02*
X010230Y015866D01*
X010329Y015768D02*
X006287Y015768D01*
X006188Y015669D02*
X010427Y015669D01*
X010723Y015374D02*
X006103Y015374D01*
X006244Y015275D02*
X010821Y015275D01*
X010136Y016260D02*
X014752Y016260D01*
X014851Y016359D02*
X010038Y016359D01*
X009939Y016457D02*
X014949Y016457D01*
X014839Y015177D02*
X006312Y015177D01*
X006351Y015078D02*
X014937Y015078D01*
X015036Y014980D02*
X006351Y014980D01*
X006336Y014881D02*
X015134Y014881D01*
X015233Y014783D02*
X006295Y014783D01*
X006203Y014684D02*
X015331Y014684D01*
X013901Y010252D02*
X013291Y010252D01*
X013339Y010153D02*
X013853Y010153D01*
X013851Y010055D02*
X013341Y010055D01*
X013299Y009956D02*
X013894Y009956D01*
X010966Y012616D02*
X006077Y012616D01*
X006233Y012714D02*
X010951Y012714D01*
X010978Y012813D02*
X006307Y012813D01*
X006348Y012911D02*
X011065Y012911D01*
X009611Y017738D02*
X007880Y017738D01*
X007935Y017836D02*
X009518Y017836D01*
X009425Y017935D02*
X007941Y017935D01*
X007906Y018033D02*
X009332Y018033D01*
X008796Y018920D02*
X006351Y018920D01*
X006351Y019018D02*
X008796Y019018D01*
X008796Y019117D02*
X006337Y019117D01*
X006296Y019215D02*
X008796Y019215D01*
X008996Y019314D02*
X017696Y019314D01*
X017673Y019018D02*
X012262Y019018D01*
X011888Y019412D02*
X008996Y019412D01*
X008999Y020003D02*
X013097Y020003D01*
X013022Y020102D02*
X009098Y020102D01*
X009196Y020200D02*
X013001Y020200D01*
X013022Y020299D02*
X009295Y020299D01*
X009393Y020397D02*
X013097Y020397D01*
X013417Y020693D02*
X023026Y020693D01*
X023026Y020791D02*
X020532Y020791D01*
X020616Y020890D02*
X023026Y020890D01*
X023026Y020988D02*
X020641Y020988D01*
X020626Y021087D02*
X023026Y021087D01*
X023026Y021185D02*
X020558Y021185D01*
X020177Y020890D02*
X013424Y020890D01*
X013441Y020791D02*
X020260Y020791D01*
X020151Y020988D02*
X013355Y020988D01*
X012471Y021087D02*
X009896Y021087D01*
X009896Y021185D02*
X012379Y021185D01*
X012351Y021284D02*
X009896Y021284D01*
X009896Y021382D02*
X012365Y021382D01*
X012430Y021481D02*
X009896Y021481D01*
X009896Y021579D02*
X017689Y021579D01*
X017533Y022367D02*
X015312Y022367D01*
X015080Y022367D02*
X010534Y022367D01*
X010541Y022269D02*
X014980Y022269D01*
X014951Y022170D02*
X010655Y022170D01*
X010761Y022072D02*
X014963Y022072D01*
X015027Y021973D02*
X010791Y021973D01*
X010477Y022466D02*
X017466Y022466D01*
X016890Y022860D02*
X011051Y022860D01*
X011031Y022958D02*
X016851Y022958D01*
X016854Y023057D02*
X010956Y023057D01*
X010656Y023057D02*
X009396Y023057D01*
X009396Y023155D02*
X016905Y023155D01*
X018329Y024534D02*
X013834Y024534D01*
X013841Y024551D02*
X013804Y024461D01*
X013735Y024392D01*
X013645Y024355D01*
X013547Y024355D01*
X013457Y024392D01*
X013388Y024461D01*
X013351Y024551D01*
X013351Y024649D01*
X013388Y024739D01*
X013457Y024808D01*
X013547Y024845D01*
X013645Y024845D01*
X013735Y024808D01*
X013804Y024739D01*
X013841Y024649D01*
X013841Y024551D01*
X013841Y024633D02*
X018301Y024633D01*
X018315Y024731D02*
X013807Y024731D01*
X013682Y024830D02*
X018379Y024830D01*
X018713Y024830D02*
X023026Y024830D01*
X023026Y024928D02*
X012208Y024928D01*
X012241Y024830D02*
X013510Y024830D01*
X013385Y024731D02*
X012233Y024731D01*
X012175Y024633D02*
X013351Y024633D01*
X013358Y024534D02*
X011715Y024534D01*
X011813Y024633D02*
X011817Y024633D01*
X011784Y024928D02*
X011765Y024928D01*
X011903Y025027D02*
X011289Y025027D01*
X011408Y024928D02*
X011428Y024928D01*
X011380Y024633D02*
X011375Y024633D01*
X011306Y024534D02*
X011477Y024534D01*
X011341Y024436D02*
X013414Y024436D01*
X013778Y024436D02*
X018424Y024436D01*
X018410Y025421D02*
X010003Y025421D01*
X009629Y025421D02*
X009396Y025421D01*
X009396Y025519D02*
X009576Y025519D01*
X009571Y025618D02*
X009434Y025618D01*
X009532Y025716D02*
X009607Y025716D01*
X009631Y025815D02*
X009742Y025815D01*
X009396Y025322D02*
X023026Y025322D01*
X023026Y025224D02*
X009396Y025224D01*
X009396Y025125D02*
X023026Y025125D01*
X023026Y025027D02*
X012089Y025027D01*
X012090Y024140D02*
X011203Y024140D01*
X011241Y024042D02*
X012051Y024042D01*
X012055Y023943D02*
X011238Y023943D01*
X011187Y023845D02*
X012105Y023845D01*
X012487Y023845D02*
X015001Y023845D01*
X015003Y023746D02*
X009396Y023746D01*
X009396Y023648D02*
X015052Y023648D01*
X015043Y023943D02*
X012538Y023943D01*
X010911Y024239D02*
X009396Y024239D01*
X009396Y024337D02*
X010857Y024337D01*
X010851Y024436D02*
X009396Y024436D01*
X009396Y024534D02*
X010887Y024534D01*
X011017Y024633D02*
X009396Y024633D01*
X009396Y024731D02*
X010960Y024731D01*
X010951Y024830D02*
X009396Y024830D01*
X009396Y024928D02*
X010984Y024928D01*
X011103Y025027D02*
X009396Y025027D01*
X009396Y024140D02*
X010790Y024140D01*
X010751Y024042D02*
X009396Y024042D01*
X009396Y023943D02*
X010755Y023943D01*
X010805Y023845D02*
X009396Y023845D01*
X009396Y022958D02*
X010582Y022958D01*
X010561Y022860D02*
X009396Y022860D01*
X009396Y022761D02*
X010582Y022761D01*
X010657Y022663D02*
X009396Y022663D01*
X009509Y021875D02*
X009583Y021875D01*
X009672Y021776D02*
X009396Y021776D01*
X008436Y025716D02*
X006235Y025716D01*
X006308Y025815D02*
X008401Y025815D01*
X008407Y025913D02*
X006349Y025913D01*
X006351Y026012D02*
X008461Y026012D01*
X008440Y026110D02*
X006339Y026110D01*
X006298Y026209D02*
X008401Y026209D01*
X008405Y026307D02*
X006212Y026307D01*
X006046Y026603D02*
X006601Y026603D01*
X006602Y026701D02*
X006220Y026701D01*
X006302Y026800D02*
X006649Y026800D01*
X006646Y026504D02*
X004421Y026504D01*
X004421Y026406D02*
X006796Y026406D01*
X006896Y026406D02*
X008455Y026406D01*
X007102Y026898D02*
X006343Y026898D01*
X006351Y026997D02*
X007053Y026997D01*
X007051Y027095D02*
X006345Y027095D01*
X006305Y027194D02*
X007093Y027194D01*
X006176Y028656D02*
X006290Y028770D01*
X006351Y028919D01*
X006351Y029081D01*
X006290Y029230D01*
X006176Y029344D01*
X006027Y029405D01*
X005866Y029405D01*
X005717Y029344D01*
X005603Y029230D01*
X005541Y029081D01*
X005541Y028919D01*
X005603Y028770D01*
X005717Y028656D01*
X005866Y028595D01*
X006027Y028595D01*
X006176Y028656D01*
X006190Y028671D02*
X010496Y028671D01*
X010496Y028573D02*
X004421Y028573D01*
X004421Y028671D02*
X004702Y028671D01*
X004717Y028656D02*
X004866Y028595D01*
X005027Y028595D01*
X005176Y028656D01*
X005290Y028770D01*
X005351Y028919D01*
X005351Y029081D01*
X005290Y029230D01*
X005176Y029344D01*
X005027Y029405D01*
X004866Y029405D01*
X004717Y029344D01*
X004603Y029230D01*
X004541Y029081D01*
X004541Y028919D01*
X004603Y028770D01*
X004717Y028656D01*
X004603Y028770D02*
X004421Y028770D01*
X004421Y028868D02*
X004562Y028868D01*
X004541Y028967D02*
X004421Y028967D01*
X004421Y029065D02*
X004541Y029065D01*
X004575Y029164D02*
X004421Y029164D01*
X004421Y029262D02*
X004635Y029262D01*
X004758Y029361D02*
X004421Y029361D01*
X004421Y029459D02*
X010496Y029459D01*
X010496Y029361D02*
X006135Y029361D01*
X006257Y029262D02*
X010496Y029262D01*
X010496Y029164D02*
X006317Y029164D01*
X006351Y029065D02*
X010496Y029065D01*
X010496Y028967D02*
X006351Y028967D01*
X006330Y028868D02*
X010496Y028868D01*
X010496Y028770D02*
X006289Y028770D01*
X005702Y028671D02*
X005190Y028671D01*
X005289Y028770D02*
X005603Y028770D01*
X005562Y028868D02*
X005330Y028868D01*
X005351Y028967D02*
X005541Y028967D01*
X005541Y029065D02*
X005351Y029065D01*
X005317Y029164D02*
X005575Y029164D01*
X005635Y029262D02*
X005257Y029262D01*
X005135Y029361D02*
X005758Y029361D01*
X005866Y029595D02*
X006027Y029595D01*
X006176Y029656D01*
X006290Y029770D01*
X006351Y029919D01*
X006351Y030081D01*
X006290Y030230D01*
X006176Y030344D01*
X006027Y030405D01*
X005866Y030405D01*
X005717Y030344D01*
X005603Y030230D01*
X005541Y030081D01*
X005541Y029919D01*
X005603Y029770D01*
X005717Y029656D01*
X005175Y029656D01*
X005176Y029656D02*
X005290Y029770D01*
X005351Y029919D01*
X005351Y030081D01*
X005290Y030230D01*
X005176Y030344D01*
X005027Y030405D01*
X004866Y030405D01*
X004717Y030344D01*
X004603Y030230D01*
X004541Y030081D01*
X004541Y029919D01*
X004603Y029770D01*
X004717Y029656D01*
X004421Y029656D01*
X004421Y029558D02*
X010496Y029558D01*
X010496Y029656D02*
X006175Y029656D01*
X006274Y029755D02*
X010496Y029755D01*
X010496Y029853D02*
X006324Y029853D01*
X006351Y029952D02*
X010496Y029952D01*
X010496Y030050D02*
X006351Y030050D01*
X006323Y030149D02*
X010496Y030149D01*
X010496Y030247D02*
X006272Y030247D01*
X006171Y030346D02*
X010496Y030346D01*
X010496Y030444D02*
X004421Y030444D01*
X004421Y030346D02*
X004721Y030346D01*
X004620Y030247D02*
X004421Y030247D01*
X004421Y030149D02*
X004569Y030149D01*
X004541Y030050D02*
X004421Y030050D01*
X004421Y029952D02*
X004541Y029952D01*
X004568Y029853D02*
X004421Y029853D01*
X004421Y029755D02*
X004618Y029755D01*
X004717Y029656D02*
X004866Y029595D01*
X005027Y029595D01*
X005176Y029656D01*
X005274Y029755D02*
X005618Y029755D01*
X005568Y029853D02*
X005324Y029853D01*
X005351Y029952D02*
X005541Y029952D01*
X005541Y030050D02*
X005351Y030050D01*
X005323Y030149D02*
X005569Y030149D01*
X005620Y030247D02*
X005272Y030247D01*
X005171Y030346D02*
X005721Y030346D01*
X005717Y029656D02*
X005866Y029595D01*
X005794Y028376D02*
X005099Y028376D01*
X005242Y028277D02*
X005650Y028277D01*
X005581Y028179D02*
X005311Y028179D01*
X005351Y028080D02*
X005541Y028080D01*
X005541Y027982D02*
X005351Y027982D01*
X005336Y027883D02*
X005556Y027883D01*
X005597Y027785D02*
X005296Y027785D01*
X005205Y027686D02*
X005687Y027686D01*
X005830Y027391D02*
X005062Y027391D01*
X005227Y027292D02*
X005665Y027292D01*
X005588Y027194D02*
X005305Y027194D01*
X005345Y027095D02*
X005547Y027095D01*
X005541Y026997D02*
X005351Y026997D01*
X005343Y026898D02*
X005550Y026898D01*
X005591Y026800D02*
X005302Y026800D01*
X005220Y026701D02*
X005672Y026701D01*
X005847Y026603D02*
X005046Y026603D01*
X005212Y026307D02*
X005680Y026307D01*
X005594Y026209D02*
X005298Y026209D01*
X005339Y026110D02*
X005553Y026110D01*
X005541Y026012D02*
X005351Y026012D01*
X005349Y025913D02*
X005544Y025913D01*
X005584Y025815D02*
X005308Y025815D01*
X005235Y025716D02*
X005657Y025716D01*
X004421Y030543D02*
X010496Y030543D01*
X010496Y030641D02*
X004421Y030641D01*
X004421Y030740D02*
X010496Y030740D01*
X010496Y030838D02*
X004421Y030838D01*
X004421Y030937D02*
X010496Y030937D01*
X010496Y031035D02*
X004421Y031035D01*
X004421Y031134D02*
X010496Y031134D01*
X010496Y031232D02*
X004421Y031232D01*
X004421Y031331D02*
X010496Y031331D01*
X010496Y031429D02*
X004421Y031429D01*
X004421Y031528D02*
X010496Y031528D01*
X010496Y031626D02*
X004421Y031626D01*
X004421Y031725D02*
X010496Y031725D01*
X010496Y031823D02*
X004421Y031823D01*
X004421Y031922D02*
X010496Y031922D01*
X010496Y032020D02*
X004421Y032020D01*
X004421Y032119D02*
X010496Y032119D01*
X010496Y032217D02*
X004421Y032217D01*
X004421Y032316D02*
X010496Y032316D01*
X010496Y032414D02*
X004421Y032414D01*
X004421Y032513D02*
X005610Y032513D01*
X005665Y032490D02*
X005514Y032552D01*
X005399Y032668D01*
X005336Y032818D01*
X005336Y032982D01*
X005399Y033132D01*
X005514Y033248D01*
X005665Y033310D01*
X005828Y033310D01*
X005978Y033248D01*
X006094Y033132D01*
X006156Y032982D01*
X006156Y032818D01*
X006094Y032668D01*
X005978Y032552D01*
X005828Y032490D01*
X005665Y032490D01*
X005882Y032513D02*
X006610Y032513D01*
X006665Y032490D02*
X006514Y032552D01*
X006399Y032668D01*
X006336Y032818D01*
X006336Y032982D01*
X006399Y033132D01*
X006514Y033248D01*
X006665Y033310D01*
X006828Y033310D01*
X006978Y033248D01*
X007094Y033132D01*
X007156Y032982D01*
X007156Y032818D01*
X007094Y032668D01*
X006978Y032552D01*
X006828Y032490D01*
X006665Y032490D01*
X006882Y032513D02*
X007610Y032513D01*
X007665Y032490D02*
X007514Y032552D01*
X007399Y032668D01*
X007336Y032818D01*
X007336Y032982D01*
X007399Y033132D01*
X007514Y033248D01*
X007665Y033310D01*
X007828Y033310D01*
X007978Y033248D01*
X008094Y033132D01*
X008156Y032982D01*
X008156Y032818D01*
X008094Y032668D01*
X007978Y032552D01*
X007828Y032490D01*
X007665Y032490D01*
X007882Y032513D02*
X008610Y032513D01*
X008665Y032490D02*
X008828Y032490D01*
X008978Y032552D01*
X009094Y032668D01*
X009156Y032818D01*
X009156Y032982D01*
X009094Y033132D01*
X008978Y033248D01*
X008828Y033310D01*
X008665Y033310D01*
X008514Y033248D01*
X008399Y033132D01*
X008336Y032982D01*
X008336Y032818D01*
X008399Y032668D01*
X008514Y032552D01*
X008665Y032490D01*
X008882Y032513D02*
X009610Y032513D01*
X009665Y032490D02*
X009828Y032490D01*
X009978Y032552D01*
X010094Y032668D01*
X010156Y032818D01*
X010156Y032982D01*
X010094Y033132D01*
X009978Y033248D01*
X009828Y033310D01*
X009665Y033310D01*
X009514Y033248D01*
X009399Y033132D01*
X009336Y032982D01*
X009336Y032818D01*
X009399Y032668D01*
X009514Y032552D01*
X009665Y032490D01*
X009882Y032513D02*
X010496Y032513D01*
X010496Y032611D02*
X010037Y032611D01*
X010111Y032710D02*
X010496Y032710D01*
X010496Y032808D02*
X010152Y032808D01*
X010156Y032907D02*
X010496Y032907D01*
X010496Y033005D02*
X010146Y033005D01*
X010106Y033104D02*
X010496Y033104D01*
X010496Y033202D02*
X010024Y033202D01*
X009850Y033301D02*
X010496Y033301D01*
X010496Y033399D02*
X004421Y033399D01*
X004421Y033301D02*
X005642Y033301D01*
X005646Y033498D02*
X004846Y033498D01*
X004646Y033498D02*
X004421Y033498D01*
X004421Y033596D02*
X004470Y033596D01*
X004421Y033202D02*
X005468Y033202D01*
X005387Y033104D02*
X004421Y033104D01*
X004421Y033005D02*
X005346Y033005D01*
X005336Y032907D02*
X004421Y032907D01*
X004421Y032808D02*
X005340Y032808D01*
X005381Y032710D02*
X004421Y032710D01*
X004421Y032611D02*
X005455Y032611D01*
X006037Y032611D02*
X006455Y032611D01*
X006381Y032710D02*
X006111Y032710D01*
X006152Y032808D02*
X006340Y032808D01*
X006336Y032907D02*
X006156Y032907D01*
X006146Y033005D02*
X006346Y033005D01*
X006387Y033104D02*
X006106Y033104D01*
X006024Y033202D02*
X006468Y033202D01*
X006642Y033301D02*
X005850Y033301D01*
X005846Y033498D02*
X006646Y033498D01*
X006846Y033498D02*
X007646Y033498D01*
X007642Y033301D02*
X006850Y033301D01*
X007024Y033202D02*
X007468Y033202D01*
X007387Y033104D02*
X007106Y033104D01*
X007146Y033005D02*
X007346Y033005D01*
X007336Y032907D02*
X007156Y032907D01*
X007152Y032808D02*
X007340Y032808D01*
X007381Y032710D02*
X007111Y032710D01*
X007037Y032611D02*
X007455Y032611D01*
X007850Y033301D02*
X008642Y033301D01*
X008646Y033498D02*
X007846Y033498D01*
X008022Y033596D02*
X008470Y033596D01*
X008387Y033695D02*
X008105Y033695D01*
X008146Y033793D02*
X008347Y033793D01*
X008336Y033892D02*
X008156Y033892D01*
X008153Y033990D02*
X008340Y033990D01*
X008381Y034089D02*
X008112Y034089D01*
X008039Y034187D02*
X008453Y034187D01*
X009039Y034187D02*
X009453Y034187D01*
X009381Y034089D02*
X009112Y034089D01*
X009153Y033990D02*
X009340Y033990D01*
X009336Y033892D02*
X009156Y033892D01*
X009146Y033793D02*
X009347Y033793D01*
X009387Y033695D02*
X009105Y033695D01*
X009022Y033596D02*
X009470Y033596D01*
X009646Y033498D02*
X008846Y033498D01*
X008850Y033301D02*
X009642Y033301D01*
X009468Y033202D02*
X009024Y033202D01*
X009106Y033104D02*
X009387Y033104D01*
X009346Y033005D02*
X009146Y033005D01*
X009156Y032907D02*
X009336Y032907D01*
X009340Y032808D02*
X009152Y032808D01*
X009111Y032710D02*
X009381Y032710D01*
X009455Y032611D02*
X009037Y032611D01*
X008455Y032611D02*
X008037Y032611D01*
X008111Y032710D02*
X008381Y032710D01*
X008340Y032808D02*
X008152Y032808D01*
X008156Y032907D02*
X008336Y032907D01*
X008346Y033005D02*
X008146Y033005D01*
X008106Y033104D02*
X008387Y033104D01*
X008468Y033202D02*
X008024Y033202D01*
X007470Y033596D02*
X007022Y033596D01*
X007105Y033695D02*
X007387Y033695D01*
X007347Y033793D02*
X007146Y033793D01*
X007156Y033892D02*
X007336Y033892D01*
X007340Y033990D02*
X007153Y033990D01*
X007112Y034089D02*
X007381Y034089D01*
X007453Y034187D02*
X007039Y034187D01*
X006470Y033596D02*
X006022Y033596D01*
X006105Y033695D02*
X006387Y033695D01*
X006347Y033793D02*
X006146Y033793D01*
X006156Y033892D02*
X006336Y033892D01*
X006340Y033990D02*
X006153Y033990D01*
X006112Y034089D02*
X006381Y034089D01*
X006453Y034187D02*
X006039Y034187D01*
X005453Y034187D02*
X005039Y034187D01*
X005112Y034089D02*
X005381Y034089D01*
X005340Y033990D02*
X005153Y033990D01*
X005156Y033892D02*
X005336Y033892D01*
X005347Y033793D02*
X005146Y033793D01*
X005105Y033695D02*
X005387Y033695D01*
X005470Y033596D02*
X005022Y033596D01*
X009846Y033498D02*
X010496Y033498D01*
X010496Y033596D02*
X010022Y033596D01*
X010105Y033695D02*
X010496Y033695D01*
X010496Y033793D02*
X010146Y033793D01*
X010156Y033892D02*
X010496Y033892D01*
X010496Y033990D02*
X010153Y033990D01*
X010112Y034089D02*
X010496Y034089D01*
X010496Y034187D02*
X010039Y034187D01*
X010746Y034187D02*
X011417Y034187D01*
X011353Y034089D02*
X010746Y034089D01*
X010746Y033990D02*
X011312Y033990D01*
X011284Y033892D02*
X010746Y033892D01*
X010746Y033793D02*
X011284Y033793D01*
X011284Y033695D02*
X010746Y033695D01*
X010746Y033596D02*
X011318Y033596D01*
X011358Y033498D02*
X010746Y033498D01*
X010746Y033399D02*
X011431Y033399D01*
X011529Y033301D02*
X010746Y033301D01*
X010746Y033202D02*
X011739Y033202D01*
X012053Y033202D02*
X015618Y033202D01*
X015664Y033248D02*
X015549Y033132D01*
X015486Y032982D01*
X015486Y032818D01*
X015549Y032668D01*
X015664Y032552D01*
X015815Y032490D01*
X015978Y032490D01*
X016128Y032552D01*
X016244Y032668D01*
X016306Y032818D01*
X016306Y032982D01*
X016244Y033132D01*
X016128Y033248D01*
X015978Y033310D01*
X015815Y033310D01*
X015664Y033248D01*
X015792Y033301D02*
X012263Y033301D01*
X012361Y033399D02*
X023408Y033399D01*
X023346Y033301D02*
X020000Y033301D01*
X019978Y033310D02*
X019815Y033310D01*
X019664Y033248D01*
X019549Y033132D01*
X019486Y032982D01*
X019486Y032818D01*
X019549Y032668D01*
X019664Y032552D01*
X019815Y032490D01*
X019978Y032490D01*
X020128Y032552D01*
X020244Y032668D01*
X020306Y032818D01*
X020306Y032982D01*
X020244Y033132D01*
X020128Y033248D01*
X019978Y033310D01*
X019792Y033301D02*
X019000Y033301D01*
X018978Y033310D02*
X018815Y033310D01*
X018664Y033248D01*
X018549Y033132D01*
X018486Y032982D01*
X018486Y032818D01*
X018549Y032668D01*
X018664Y032552D01*
X018815Y032490D01*
X018978Y032490D01*
X019128Y032552D01*
X019244Y032668D01*
X019306Y032818D01*
X019306Y032982D01*
X019244Y033132D01*
X019128Y033248D01*
X018978Y033310D01*
X018792Y033301D02*
X018000Y033301D01*
X017978Y033310D02*
X017815Y033310D01*
X017664Y033248D01*
X017549Y033132D01*
X017486Y032982D01*
X017486Y032818D01*
X017549Y032668D01*
X017664Y032552D01*
X017815Y032490D01*
X017978Y032490D01*
X018128Y032552D01*
X018244Y032668D01*
X018306Y032818D01*
X018306Y032982D01*
X018244Y033132D01*
X018128Y033248D01*
X017978Y033310D01*
X017792Y033301D02*
X017000Y033301D01*
X016978Y033310D02*
X016815Y033310D01*
X016664Y033248D01*
X016549Y033132D01*
X016486Y032982D01*
X016486Y032818D01*
X016549Y032668D01*
X016664Y032552D01*
X016815Y032490D01*
X016978Y032490D01*
X017128Y032552D01*
X017244Y032668D01*
X017306Y032818D01*
X017306Y032982D01*
X017244Y033132D01*
X017128Y033248D01*
X016978Y033310D01*
X016792Y033301D02*
X016000Y033301D01*
X015996Y033498D02*
X016796Y033498D01*
X016996Y033498D02*
X017796Y033498D01*
X017996Y033498D02*
X018796Y033498D01*
X018996Y033498D02*
X019796Y033498D01*
X019996Y033498D02*
X023293Y033498D01*
X023143Y033596D02*
X020172Y033596D01*
X020255Y033695D02*
X022949Y033695D01*
X022756Y033793D02*
X020296Y033793D01*
X020306Y033892D02*
X022563Y033892D01*
X022282Y033990D02*
X020303Y033990D01*
X020262Y034089D02*
X021979Y034089D01*
X021533Y034187D02*
X020189Y034187D01*
X019603Y034187D02*
X019189Y034187D01*
X019262Y034089D02*
X019531Y034089D01*
X019490Y033990D02*
X019303Y033990D01*
X019306Y033892D02*
X019486Y033892D01*
X019497Y033793D02*
X019296Y033793D01*
X019255Y033695D02*
X019537Y033695D01*
X019620Y033596D02*
X019172Y033596D01*
X019174Y033202D02*
X019618Y033202D01*
X019537Y033104D02*
X019256Y033104D01*
X019296Y033005D02*
X019496Y033005D01*
X019486Y032907D02*
X019306Y032907D01*
X019302Y032808D02*
X019490Y032808D01*
X019531Y032710D02*
X019261Y032710D01*
X019187Y032611D02*
X019605Y032611D01*
X019760Y032513D02*
X019032Y032513D01*
X018760Y032513D02*
X018032Y032513D01*
X018187Y032611D02*
X018605Y032611D01*
X018531Y032710D02*
X018261Y032710D01*
X018302Y032808D02*
X018490Y032808D01*
X018486Y032907D02*
X018306Y032907D01*
X018296Y033005D02*
X018496Y033005D01*
X018537Y033104D02*
X018256Y033104D01*
X018174Y033202D02*
X018618Y033202D01*
X018620Y033596D02*
X018172Y033596D01*
X018255Y033695D02*
X018537Y033695D01*
X018497Y033793D02*
X018296Y033793D01*
X018306Y033892D02*
X018486Y033892D01*
X018490Y033990D02*
X018303Y033990D01*
X018262Y034089D02*
X018531Y034089D01*
X018603Y034187D02*
X018189Y034187D01*
X017603Y034187D02*
X017189Y034187D01*
X017262Y034089D02*
X017531Y034089D01*
X017490Y033990D02*
X017303Y033990D01*
X017306Y033892D02*
X017486Y033892D01*
X017497Y033793D02*
X017296Y033793D01*
X017255Y033695D02*
X017537Y033695D01*
X017620Y033596D02*
X017172Y033596D01*
X017174Y033202D02*
X017618Y033202D01*
X017537Y033104D02*
X017256Y033104D01*
X017296Y033005D02*
X017496Y033005D01*
X017486Y032907D02*
X017306Y032907D01*
X017302Y032808D02*
X017490Y032808D01*
X017531Y032710D02*
X017261Y032710D01*
X017187Y032611D02*
X017605Y032611D01*
X017760Y032513D02*
X017032Y032513D01*
X016935Y032408D02*
X016845Y032445D01*
X016747Y032445D01*
X016657Y032408D01*
X016588Y032339D01*
X016551Y032249D01*
X016551Y032151D01*
X016588Y032061D01*
X016657Y031992D01*
X016747Y031955D01*
X016845Y031955D01*
X016935Y031992D01*
X017004Y032061D01*
X017041Y032151D01*
X017041Y032249D01*
X017004Y032339D01*
X016935Y032408D01*
X016920Y032414D02*
X018328Y032414D01*
X018343Y032429D02*
X017895Y031981D01*
X017827Y031953D01*
X017743Y031869D01*
X017698Y031759D01*
X017698Y031641D01*
X017743Y031531D01*
X017827Y031447D01*
X017937Y031402D01*
X018055Y031402D01*
X018165Y031447D01*
X018249Y031531D01*
X018277Y031599D01*
X018608Y031930D01*
X020069Y031930D01*
X020137Y031902D01*
X020255Y031902D01*
X020365Y031947D01*
X020449Y032031D01*
X020494Y032141D01*
X020494Y032259D01*
X020449Y032369D01*
X020365Y032453D01*
X020255Y032498D01*
X020137Y032498D01*
X020069Y032470D01*
X018550Y032470D01*
X018442Y032470D01*
X018343Y032429D01*
X018230Y032316D02*
X017013Y032316D01*
X017041Y032217D02*
X018131Y032217D01*
X018033Y032119D02*
X017028Y032119D01*
X016963Y032020D02*
X017934Y032020D01*
X017796Y031922D02*
X010746Y031922D01*
X010746Y032020D02*
X016630Y032020D01*
X016565Y032119D02*
X010746Y032119D01*
X010746Y032217D02*
X016551Y032217D01*
X016579Y032316D02*
X010746Y032316D01*
X010746Y032414D02*
X016673Y032414D01*
X016760Y032513D02*
X016032Y032513D01*
X016187Y032611D02*
X016605Y032611D01*
X016531Y032710D02*
X016261Y032710D01*
X016302Y032808D02*
X016490Y032808D01*
X016486Y032907D02*
X016306Y032907D01*
X016296Y033005D02*
X016496Y033005D01*
X016537Y033104D02*
X016256Y033104D01*
X016174Y033202D02*
X016618Y033202D01*
X016620Y033596D02*
X016172Y033596D01*
X016255Y033695D02*
X016537Y033695D01*
X016497Y033793D02*
X016296Y033793D01*
X016306Y033892D02*
X016486Y033892D01*
X016490Y033990D02*
X016303Y033990D01*
X016262Y034089D02*
X016531Y034089D01*
X016603Y034187D02*
X016189Y034187D01*
X015603Y034187D02*
X012375Y034187D01*
X012440Y034089D02*
X015531Y034089D01*
X015490Y033990D02*
X012480Y033990D01*
X012509Y033892D02*
X015486Y033892D01*
X015497Y033793D02*
X012509Y033793D01*
X012509Y033695D02*
X015537Y033695D01*
X015620Y033596D02*
X012475Y033596D01*
X012434Y033498D02*
X015796Y033498D01*
X015537Y033104D02*
X010746Y033104D01*
X010746Y033005D02*
X015496Y033005D01*
X015486Y032907D02*
X010746Y032907D01*
X010746Y032808D02*
X015490Y032808D01*
X015531Y032710D02*
X010746Y032710D01*
X010746Y032611D02*
X015605Y032611D01*
X015760Y032513D02*
X010746Y032513D01*
X010746Y031823D02*
X017724Y031823D01*
X017698Y031725D02*
X010746Y031725D01*
X010746Y031626D02*
X017704Y031626D01*
X017747Y031528D02*
X010746Y031528D01*
X010746Y031429D02*
X017871Y031429D01*
X018121Y031429D02*
X018939Y031429D01*
X018907Y031442D02*
X018997Y031405D01*
X019095Y031405D01*
X019185Y031442D01*
X019254Y031511D01*
X019291Y031601D01*
X019291Y031699D01*
X019254Y031789D01*
X019185Y031858D01*
X019095Y031895D01*
X018997Y031895D01*
X018907Y031858D01*
X018838Y031789D01*
X018801Y031699D01*
X018801Y031601D01*
X018838Y031511D01*
X018907Y031442D01*
X018832Y031528D02*
X018245Y031528D01*
X018304Y031626D02*
X018801Y031626D01*
X018812Y031725D02*
X018403Y031725D01*
X018501Y031823D02*
X018873Y031823D01*
X019220Y031823D02*
X022791Y031823D01*
X022693Y031922D02*
X021253Y031922D01*
X021039Y031922D02*
X020303Y031922D01*
X020438Y032020D02*
X020905Y032020D01*
X020857Y032119D02*
X020485Y032119D01*
X020494Y032217D02*
X020848Y032217D01*
X020871Y032316D02*
X020471Y032316D01*
X020404Y032414D02*
X020939Y032414D01*
X020261Y032710D02*
X022884Y032710D01*
X022884Y032808D02*
X020302Y032808D01*
X020306Y032907D02*
X022919Y032907D01*
X022960Y033005D02*
X020296Y033005D01*
X020256Y033104D02*
X023034Y033104D01*
X023132Y033202D02*
X020174Y033202D01*
X020187Y032611D02*
X022884Y032611D01*
X022911Y032513D02*
X020032Y032513D01*
X020089Y031922D02*
X018600Y031922D01*
X018647Y031345D02*
X018557Y031308D01*
X018488Y031239D01*
X018451Y031149D01*
X018451Y031051D01*
X018488Y030961D01*
X018557Y030892D01*
X018647Y030855D01*
X018745Y030855D01*
X018835Y030892D01*
X018904Y030961D01*
X018941Y031051D01*
X018941Y031149D01*
X018904Y031239D01*
X018835Y031308D01*
X018745Y031345D01*
X018647Y031345D01*
X018613Y031331D02*
X017280Y031331D01*
X017245Y031345D02*
X017147Y031345D01*
X017057Y031308D01*
X016988Y031239D01*
X016951Y031149D01*
X016951Y031051D01*
X016988Y030961D01*
X017057Y030892D01*
X017147Y030855D01*
X017245Y030855D01*
X017335Y030892D01*
X017404Y030961D01*
X017441Y031051D01*
X017441Y031149D01*
X017404Y031239D01*
X017335Y031308D01*
X017245Y031345D01*
X017113Y031331D02*
X013280Y031331D01*
X013245Y031345D02*
X013335Y031308D01*
X013404Y031239D01*
X013441Y031149D01*
X013441Y031051D01*
X013404Y030961D01*
X013335Y030892D01*
X013245Y030855D01*
X013147Y030855D01*
X013057Y030892D01*
X012988Y030961D01*
X012951Y031051D01*
X012951Y031149D01*
X012988Y031239D01*
X013057Y031308D01*
X013147Y031345D01*
X013245Y031345D01*
X013113Y031331D02*
X010746Y031331D01*
X010746Y031232D02*
X012986Y031232D01*
X012951Y031134D02*
X010746Y031134D01*
X010746Y031035D02*
X012958Y031035D01*
X013013Y030937D02*
X010746Y030937D01*
X010746Y030838D02*
X012631Y030838D01*
X012647Y030845D02*
X012557Y030808D01*
X012488Y030739D01*
X012451Y030649D01*
X012451Y030551D01*
X012488Y030461D01*
X012557Y030392D01*
X012647Y030355D01*
X012745Y030355D01*
X012835Y030392D01*
X012904Y030461D01*
X012941Y030551D01*
X012941Y030649D01*
X012904Y030739D01*
X012835Y030808D01*
X012745Y030845D01*
X012647Y030845D01*
X012762Y030838D02*
X018131Y030838D01*
X018147Y030845D02*
X018057Y030808D01*
X017988Y030739D01*
X017951Y030649D01*
X017951Y030551D01*
X017988Y030461D01*
X018057Y030392D01*
X018147Y030355D01*
X018245Y030355D01*
X018335Y030392D01*
X018404Y030461D01*
X018441Y030551D01*
X018441Y030649D01*
X018404Y030739D01*
X018335Y030808D01*
X018245Y030845D01*
X018147Y030845D01*
X018262Y030838D02*
X023026Y030838D01*
X023026Y030740D02*
X018403Y030740D01*
X018441Y030641D02*
X023026Y030641D01*
X023026Y030543D02*
X018438Y030543D01*
X018387Y030444D02*
X020245Y030444D01*
X020247Y030445D02*
X020157Y030408D01*
X020088Y030339D01*
X020051Y030249D01*
X020051Y030151D01*
X020088Y030061D01*
X020157Y029992D01*
X020247Y029955D01*
X020345Y029955D01*
X020435Y029992D01*
X020504Y030061D01*
X020541Y030151D01*
X020541Y030249D01*
X020504Y030339D01*
X020435Y030408D01*
X020345Y030445D01*
X020247Y030445D01*
X020347Y030444D02*
X021045Y030444D01*
X021047Y030445D02*
X020957Y030408D01*
X020888Y030339D01*
X020851Y030249D01*
X020851Y030151D01*
X020888Y030061D01*
X020957Y029992D01*
X021047Y029955D01*
X021145Y029955D01*
X021235Y029992D01*
X021304Y030061D01*
X021341Y030151D01*
X021341Y030249D01*
X021304Y030339D01*
X021235Y030408D01*
X021145Y030445D01*
X021047Y030445D01*
X021147Y030444D02*
X023026Y030444D01*
X023026Y030346D02*
X021297Y030346D01*
X021341Y030247D02*
X023026Y030247D01*
X023026Y030149D02*
X021340Y030149D01*
X021293Y030050D02*
X023026Y030050D01*
X023026Y029952D02*
X017941Y029952D01*
X017941Y029951D02*
X017904Y029861D01*
X017835Y029792D01*
X017745Y029755D01*
X017647Y029755D01*
X017557Y029792D01*
X017488Y029861D01*
X017451Y029951D01*
X017451Y030049D01*
X017488Y030139D01*
X017557Y030208D01*
X017647Y030245D01*
X017745Y030245D01*
X017835Y030208D01*
X017904Y030139D01*
X017941Y030049D01*
X017941Y029951D01*
X017941Y030050D02*
X020100Y030050D01*
X020052Y030149D02*
X017894Y030149D01*
X017896Y029853D02*
X023026Y029853D01*
X023026Y029755D02*
X015839Y029755D01*
X015841Y029749D02*
X015804Y029839D01*
X015735Y029908D01*
X015645Y029945D01*
X015547Y029945D01*
X015457Y029908D01*
X015388Y029839D01*
X015351Y029749D01*
X015351Y029651D01*
X015388Y029561D01*
X015457Y029492D01*
X015517Y029468D01*
X015488Y029439D01*
X015451Y029349D01*
X015451Y029251D01*
X015488Y029161D01*
X015557Y029092D01*
X015647Y029055D01*
X015745Y029055D01*
X015835Y029092D01*
X015904Y029161D01*
X015941Y029251D01*
X015941Y029349D01*
X015904Y029439D01*
X015835Y029508D01*
X015775Y029532D01*
X015804Y029561D01*
X015841Y029651D01*
X015841Y029749D01*
X015841Y029656D02*
X023026Y029656D01*
X023026Y029558D02*
X015800Y029558D01*
X015884Y029459D02*
X023026Y029459D01*
X023026Y029361D02*
X020882Y029361D01*
X020904Y029339D02*
X020835Y029408D01*
X020745Y029445D01*
X020647Y029445D01*
X020557Y029408D01*
X020488Y029339D01*
X020451Y029249D01*
X020451Y029151D01*
X020488Y029061D01*
X020557Y028992D01*
X020647Y028955D01*
X020745Y028955D01*
X020835Y028992D01*
X020904Y029061D01*
X020941Y029151D01*
X020941Y029249D01*
X020904Y029339D01*
X020936Y029262D02*
X023026Y029262D01*
X023026Y029164D02*
X020941Y029164D01*
X020905Y029065D02*
X023026Y029065D01*
X023026Y028967D02*
X020773Y028967D01*
X020620Y028967D02*
X017773Y028967D01*
X017745Y028955D02*
X017835Y028992D01*
X017904Y029061D01*
X017941Y029151D01*
X017941Y029249D01*
X017904Y029339D01*
X017835Y029408D01*
X017745Y029445D01*
X017647Y029445D01*
X017557Y029408D01*
X017488Y029339D01*
X017451Y029249D01*
X017451Y029151D01*
X017488Y029061D01*
X017557Y028992D01*
X017647Y028955D01*
X017745Y028955D01*
X017620Y028967D02*
X010746Y028967D01*
X010746Y029065D02*
X014623Y029065D01*
X014647Y029055D02*
X014745Y029055D01*
X014835Y029092D01*
X014904Y029161D01*
X014941Y029251D01*
X014941Y029349D01*
X014904Y029439D01*
X014875Y029468D01*
X014935Y029492D01*
X015004Y029561D01*
X015041Y029651D01*
X015041Y029749D01*
X015004Y029839D01*
X014935Y029908D01*
X014845Y029945D01*
X014747Y029945D01*
X014657Y029908D01*
X014588Y029839D01*
X014551Y029749D01*
X014551Y029651D01*
X014588Y029561D01*
X014617Y029532D01*
X014557Y029508D01*
X014488Y029439D01*
X014451Y029349D01*
X014451Y029251D01*
X014488Y029161D01*
X014557Y029092D01*
X014647Y029055D01*
X014769Y029065D02*
X015623Y029065D01*
X015769Y029065D02*
X017487Y029065D01*
X017451Y029164D02*
X015905Y029164D01*
X015941Y029262D02*
X017457Y029262D01*
X017510Y029361D02*
X015936Y029361D01*
X015509Y029459D02*
X014884Y029459D01*
X014936Y029361D02*
X015456Y029361D01*
X015451Y029262D02*
X014941Y029262D01*
X014905Y029164D02*
X015488Y029164D01*
X015392Y029558D02*
X015000Y029558D01*
X015041Y029656D02*
X015351Y029656D01*
X015354Y029755D02*
X015039Y029755D01*
X014990Y029853D02*
X015403Y029853D01*
X015790Y029853D02*
X017497Y029853D01*
X017451Y029952D02*
X010746Y029952D01*
X010746Y030050D02*
X017452Y030050D01*
X017498Y030149D02*
X010746Y030149D01*
X010746Y030247D02*
X020051Y030247D01*
X020095Y030346D02*
X010746Y030346D01*
X010746Y030444D02*
X012506Y030444D01*
X012455Y030543D02*
X010746Y030543D01*
X010746Y030641D02*
X012451Y030641D01*
X012489Y030740D02*
X010746Y030740D01*
X010746Y029853D02*
X014603Y029853D01*
X014554Y029755D02*
X010746Y029755D01*
X010746Y029656D02*
X014551Y029656D01*
X014592Y029558D02*
X010746Y029558D01*
X010746Y029459D02*
X014509Y029459D01*
X014456Y029361D02*
X010746Y029361D01*
X010746Y029262D02*
X014451Y029262D01*
X014488Y029164D02*
X010746Y029164D01*
X010746Y028868D02*
X023026Y028868D01*
X023026Y028770D02*
X018373Y028770D01*
X018404Y028739D02*
X018335Y028808D01*
X018245Y028845D01*
X018147Y028845D01*
X018057Y028808D01*
X017988Y028739D01*
X017951Y028649D01*
X017951Y028551D01*
X017988Y028461D01*
X018057Y028392D01*
X018147Y028355D01*
X018245Y028355D01*
X018335Y028392D01*
X018404Y028461D01*
X018441Y028551D01*
X018441Y028649D01*
X018404Y028739D01*
X018432Y028671D02*
X019421Y028671D01*
X019388Y028639D02*
X019351Y028549D01*
X019351Y028451D01*
X019388Y028361D01*
X019457Y028292D01*
X019547Y028255D01*
X019645Y028255D01*
X019735Y028292D01*
X019804Y028361D01*
X019841Y028451D01*
X019841Y028549D01*
X019804Y028639D01*
X019735Y028708D01*
X019645Y028745D01*
X019547Y028745D01*
X019457Y028708D01*
X019388Y028639D01*
X019361Y028573D02*
X018441Y028573D01*
X018409Y028474D02*
X019351Y028474D01*
X019383Y028376D02*
X018295Y028376D01*
X018098Y028376D02*
X016845Y028376D01*
X016885Y028392D02*
X016954Y028461D01*
X016991Y028551D01*
X016991Y028649D01*
X016954Y028739D01*
X016885Y028808D01*
X016795Y028845D01*
X016697Y028845D01*
X016607Y028808D01*
X016538Y028739D01*
X016501Y028649D01*
X016501Y028551D01*
X016538Y028461D01*
X016607Y028392D01*
X016697Y028355D01*
X016795Y028355D01*
X016885Y028392D01*
X016959Y028474D02*
X017983Y028474D01*
X017951Y028573D02*
X016991Y028573D01*
X016982Y028671D02*
X017960Y028671D01*
X018019Y028770D02*
X016923Y028770D01*
X016569Y028770D02*
X012873Y028770D01*
X012904Y028739D02*
X012835Y028808D01*
X012745Y028845D01*
X012647Y028845D01*
X012557Y028808D01*
X012488Y028739D01*
X012451Y028649D01*
X012451Y028551D01*
X012488Y028461D01*
X012557Y028392D01*
X012647Y028355D01*
X012745Y028355D01*
X012835Y028392D01*
X012904Y028461D01*
X012941Y028551D01*
X012941Y028649D01*
X012904Y028739D01*
X012932Y028671D02*
X016510Y028671D01*
X016501Y028573D02*
X012941Y028573D01*
X012909Y028474D02*
X016533Y028474D01*
X016648Y028376D02*
X012795Y028376D01*
X012598Y028376D02*
X010746Y028376D01*
X010746Y028474D02*
X012483Y028474D01*
X012451Y028573D02*
X010746Y028573D01*
X010746Y028671D02*
X012460Y028671D01*
X012519Y028770D02*
X010746Y028770D01*
X010746Y028277D02*
X013027Y028277D01*
X013057Y028308D02*
X012988Y028239D01*
X012951Y028149D01*
X012951Y028051D01*
X012988Y027961D01*
X013057Y027892D01*
X013147Y027855D01*
X013245Y027855D01*
X013335Y027892D01*
X013404Y027961D01*
X013441Y028051D01*
X013441Y028149D01*
X013404Y028239D01*
X013335Y028308D01*
X013245Y028345D01*
X013147Y028345D01*
X013057Y028308D01*
X012964Y028179D02*
X010746Y028179D01*
X010746Y028080D02*
X012951Y028080D01*
X012980Y027982D02*
X010746Y027982D01*
X010746Y027883D02*
X013080Y027883D01*
X013313Y027883D02*
X017080Y027883D01*
X017057Y027892D02*
X017147Y027855D01*
X017245Y027855D01*
X017335Y027892D01*
X017404Y027961D01*
X017441Y028051D01*
X017441Y028149D01*
X017404Y028239D01*
X017335Y028308D01*
X017245Y028345D01*
X017147Y028345D01*
X017057Y028308D01*
X016988Y028239D01*
X016951Y028149D01*
X016951Y028051D01*
X016988Y027961D01*
X017057Y027892D01*
X016980Y027982D02*
X013412Y027982D01*
X013441Y028080D02*
X016951Y028080D01*
X016964Y028179D02*
X013429Y028179D01*
X013366Y028277D02*
X017027Y028277D01*
X017313Y027883D02*
X018580Y027883D01*
X018557Y027892D02*
X018647Y027855D01*
X018745Y027855D01*
X018835Y027892D01*
X018904Y027961D01*
X018941Y028051D01*
X018941Y028149D01*
X018904Y028239D01*
X018835Y028308D01*
X018745Y028345D01*
X018647Y028345D01*
X018557Y028308D01*
X018488Y028239D01*
X018451Y028149D01*
X018451Y028051D01*
X018488Y027961D01*
X018557Y027892D01*
X018480Y027982D02*
X017412Y027982D01*
X017441Y028080D02*
X018451Y028080D01*
X018464Y028179D02*
X017429Y028179D01*
X017366Y028277D02*
X018527Y028277D01*
X018866Y028277D02*
X019494Y028277D01*
X019698Y028277D02*
X021694Y028277D01*
X021657Y028292D02*
X021747Y028255D01*
X021845Y028255D01*
X021935Y028292D01*
X022004Y028361D01*
X022041Y028451D01*
X022041Y028549D01*
X022004Y028639D01*
X021935Y028708D01*
X021845Y028745D01*
X021747Y028745D01*
X021657Y028708D01*
X021588Y028639D01*
X021551Y028549D01*
X021551Y028451D01*
X021588Y028361D01*
X021657Y028292D01*
X021583Y028376D02*
X019810Y028376D01*
X019841Y028474D02*
X021551Y028474D01*
X021561Y028573D02*
X019831Y028573D01*
X019772Y028671D02*
X021621Y028671D01*
X021898Y028277D02*
X022527Y028277D01*
X022557Y028308D02*
X022488Y028239D01*
X022451Y028149D01*
X022451Y028051D01*
X022488Y027961D01*
X022557Y027892D01*
X022647Y027855D01*
X022745Y027855D01*
X022835Y027892D01*
X022904Y027961D01*
X022941Y028051D01*
X022941Y028149D01*
X022904Y028239D01*
X022835Y028308D01*
X022745Y028345D01*
X022647Y028345D01*
X022557Y028308D01*
X022464Y028179D02*
X018929Y028179D01*
X018941Y028080D02*
X022451Y028080D01*
X022480Y027982D02*
X018912Y027982D01*
X018813Y027883D02*
X022580Y027883D01*
X022813Y027883D02*
X023026Y027883D01*
X023026Y027785D02*
X010746Y027785D01*
X010746Y027686D02*
X019686Y027686D01*
X019707Y027708D02*
X019638Y027639D01*
X019601Y027549D01*
X019601Y027451D01*
X019638Y027361D01*
X019707Y027292D01*
X019797Y027255D01*
X019895Y027255D01*
X019985Y027292D01*
X020054Y027361D01*
X020091Y027451D01*
X020091Y027549D01*
X020054Y027639D01*
X019985Y027708D01*
X019895Y027745D01*
X019797Y027745D01*
X019707Y027708D01*
X019617Y027588D02*
X010746Y027588D01*
X010746Y027489D02*
X019601Y027489D01*
X019626Y027391D02*
X010746Y027391D01*
X010746Y027292D02*
X019708Y027292D01*
X019984Y027292D02*
X023026Y027292D01*
X023026Y027194D02*
X021898Y027194D01*
X021895Y027195D02*
X021797Y027195D01*
X021707Y027158D01*
X021638Y027089D01*
X021601Y026999D01*
X021601Y026901D01*
X021638Y026811D01*
X021707Y026742D01*
X021797Y026705D01*
X021895Y026705D01*
X021985Y026742D01*
X022054Y026811D01*
X022091Y026901D01*
X022091Y026999D01*
X022054Y027089D01*
X021985Y027158D01*
X021895Y027195D01*
X021794Y027194D02*
X020449Y027194D01*
X020435Y027208D02*
X020345Y027245D01*
X020247Y027245D01*
X020157Y027208D01*
X020088Y027139D01*
X020051Y027049D01*
X020051Y026951D01*
X020088Y026861D01*
X020157Y026792D01*
X020247Y026755D01*
X020345Y026755D01*
X020435Y026792D01*
X020504Y026861D01*
X020541Y026951D01*
X020541Y027049D01*
X020504Y027139D01*
X020435Y027208D01*
X020522Y027095D02*
X021145Y027095D01*
X021157Y027108D02*
X021088Y027039D01*
X021051Y026949D01*
X021051Y026851D01*
X021088Y026761D01*
X021157Y026692D01*
X021247Y026655D01*
X021345Y026655D01*
X021435Y026692D01*
X021504Y026761D01*
X021541Y026851D01*
X021541Y026949D01*
X021504Y027039D01*
X021435Y027108D01*
X021345Y027145D01*
X021247Y027145D01*
X021157Y027108D01*
X021071Y026997D02*
X020541Y026997D01*
X020519Y026898D02*
X021051Y026898D01*
X021073Y026800D02*
X020442Y026800D01*
X020150Y026800D02*
X019241Y026800D01*
X019241Y026849D02*
X019204Y026939D01*
X019135Y027008D01*
X019045Y027045D01*
X018947Y027045D01*
X018857Y027008D01*
X018788Y026939D01*
X018751Y026849D01*
X018751Y026751D01*
X018788Y026661D01*
X018857Y026592D01*
X018947Y026555D01*
X019045Y026555D01*
X019135Y026592D01*
X019204Y026661D01*
X019241Y026751D01*
X019241Y026849D01*
X019221Y026898D02*
X020073Y026898D01*
X020051Y026997D02*
X019146Y026997D01*
X019220Y026701D02*
X021149Y026701D01*
X021444Y026701D02*
X022249Y026701D01*
X022257Y026692D02*
X022347Y026655D01*
X022445Y026655D01*
X022535Y026692D01*
X022604Y026761D01*
X022641Y026851D01*
X022641Y026949D01*
X022604Y027039D01*
X022535Y027108D01*
X022445Y027145D01*
X022347Y027145D01*
X022257Y027108D01*
X022188Y027039D01*
X022151Y026949D01*
X022151Y026851D01*
X022188Y026761D01*
X022257Y026692D01*
X022173Y026800D02*
X022042Y026800D01*
X022090Y026898D02*
X022151Y026898D01*
X022171Y026997D02*
X022091Y026997D01*
X022048Y027095D02*
X022245Y027095D01*
X022548Y027095D02*
X023026Y027095D01*
X023026Y026997D02*
X022621Y026997D01*
X022641Y026898D02*
X023026Y026898D01*
X023026Y026800D02*
X022620Y026800D01*
X022544Y026701D02*
X023026Y026701D01*
X023026Y026603D02*
X019145Y026603D01*
X018847Y026603D02*
X017740Y026603D01*
X017741Y026599D02*
X017704Y026689D01*
X017635Y026758D01*
X017545Y026795D01*
X017447Y026795D01*
X017357Y026758D01*
X017288Y026689D01*
X017251Y026599D01*
X017251Y026501D01*
X017288Y026411D01*
X017357Y026342D01*
X017447Y026305D01*
X017545Y026305D01*
X017635Y026342D01*
X017704Y026411D01*
X017741Y026501D01*
X017741Y026599D01*
X017741Y026504D02*
X023026Y026504D01*
X023026Y026406D02*
X017698Y026406D01*
X017550Y026307D02*
X023026Y026307D01*
X023026Y026209D02*
X010746Y026209D01*
X010746Y026307D02*
X012842Y026307D01*
X012847Y026305D02*
X012945Y026305D01*
X013035Y026342D01*
X013104Y026411D01*
X013141Y026501D01*
X013141Y026599D01*
X013104Y026689D01*
X013035Y026758D01*
X012945Y026795D01*
X012847Y026795D01*
X012757Y026758D01*
X012688Y026689D01*
X012651Y026599D01*
X012651Y026501D01*
X012688Y026411D01*
X012757Y026342D01*
X012847Y026305D01*
X012950Y026307D02*
X013542Y026307D01*
X013547Y026305D02*
X013645Y026305D01*
X013735Y026342D01*
X013804Y026411D01*
X013841Y026501D01*
X013841Y026599D01*
X013804Y026689D01*
X013735Y026758D01*
X013645Y026795D01*
X013547Y026795D01*
X013457Y026758D01*
X013388Y026689D01*
X013351Y026599D01*
X013351Y026501D01*
X013388Y026411D01*
X013457Y026342D01*
X013547Y026305D01*
X013650Y026307D02*
X014142Y026307D01*
X014147Y026305D02*
X014245Y026305D01*
X014335Y026342D01*
X014404Y026411D01*
X014441Y026501D01*
X014441Y026599D01*
X014404Y026689D01*
X014335Y026758D01*
X014245Y026795D01*
X014147Y026795D01*
X014057Y026758D01*
X013988Y026689D01*
X013951Y026599D01*
X013951Y026501D01*
X013988Y026411D01*
X014057Y026342D01*
X014147Y026305D01*
X014250Y026307D02*
X014842Y026307D01*
X014847Y026305D02*
X014945Y026305D01*
X015035Y026342D01*
X015104Y026411D01*
X015141Y026501D01*
X015141Y026599D01*
X015104Y026689D01*
X015035Y026758D01*
X014945Y026795D01*
X014847Y026795D01*
X014757Y026758D01*
X014688Y026689D01*
X014651Y026599D01*
X014651Y026501D01*
X014688Y026411D01*
X014757Y026342D01*
X014847Y026305D01*
X014950Y026307D02*
X015442Y026307D01*
X015447Y026305D02*
X015545Y026305D01*
X015635Y026342D01*
X015704Y026411D01*
X015741Y026501D01*
X015741Y026599D01*
X015704Y026689D01*
X015635Y026758D01*
X015545Y026795D01*
X015447Y026795D01*
X015357Y026758D01*
X015288Y026689D01*
X015251Y026599D01*
X015251Y026501D01*
X015288Y026411D01*
X015357Y026342D01*
X015447Y026305D01*
X015550Y026307D02*
X016142Y026307D01*
X016147Y026305D02*
X016245Y026305D01*
X016335Y026342D01*
X016404Y026411D01*
X016441Y026501D01*
X016441Y026599D01*
X016404Y026689D01*
X016335Y026758D01*
X016245Y026795D01*
X016147Y026795D01*
X016057Y026758D01*
X015988Y026689D01*
X015951Y026599D01*
X015951Y026501D01*
X015988Y026411D01*
X016057Y026342D01*
X016147Y026305D01*
X016250Y026307D02*
X016642Y026307D01*
X016647Y026305D02*
X016745Y026305D01*
X016835Y026342D01*
X016904Y026411D01*
X016941Y026501D01*
X016941Y026599D01*
X016904Y026689D01*
X016835Y026758D01*
X016745Y026795D01*
X016647Y026795D01*
X016557Y026758D01*
X016488Y026689D01*
X016451Y026599D01*
X016451Y026501D01*
X016488Y026411D01*
X016557Y026342D01*
X016647Y026305D01*
X016750Y026307D02*
X017442Y026307D01*
X017294Y026406D02*
X016898Y026406D01*
X016941Y026504D02*
X017251Y026504D01*
X017253Y026603D02*
X016940Y026603D01*
X016892Y026701D02*
X017301Y026701D01*
X017692Y026701D02*
X018772Y026701D01*
X018751Y026800D02*
X010746Y026800D01*
X010746Y026898D02*
X018772Y026898D01*
X018846Y026997D02*
X010746Y026997D01*
X010746Y027095D02*
X020070Y027095D01*
X020143Y027194D02*
X010746Y027194D01*
X010746Y026701D02*
X012701Y026701D01*
X012653Y026603D02*
X010746Y026603D01*
X010746Y026504D02*
X012651Y026504D01*
X012694Y026406D02*
X010746Y026406D01*
X010746Y026110D02*
X023026Y026110D01*
X023026Y026012D02*
X010926Y026012D01*
X013098Y026406D02*
X013394Y026406D01*
X013351Y026504D02*
X013141Y026504D01*
X013140Y026603D02*
X013353Y026603D01*
X013401Y026701D02*
X013092Y026701D01*
X013792Y026701D02*
X014001Y026701D01*
X013953Y026603D02*
X013840Y026603D01*
X013841Y026504D02*
X013951Y026504D01*
X013994Y026406D02*
X013798Y026406D01*
X014398Y026406D02*
X014694Y026406D01*
X014651Y026504D02*
X014441Y026504D01*
X014440Y026603D02*
X014653Y026603D01*
X014701Y026701D02*
X014392Y026701D01*
X015092Y026701D02*
X015301Y026701D01*
X015253Y026603D02*
X015140Y026603D01*
X015141Y026504D02*
X015251Y026504D01*
X015294Y026406D02*
X015098Y026406D01*
X015698Y026406D02*
X015994Y026406D01*
X015951Y026504D02*
X015741Y026504D01*
X015740Y026603D02*
X015953Y026603D01*
X016001Y026701D02*
X015692Y026701D01*
X016392Y026701D02*
X016501Y026701D01*
X016453Y026603D02*
X016440Y026603D01*
X016441Y026504D02*
X016451Y026504D01*
X016494Y026406D02*
X016398Y026406D01*
X017905Y029065D02*
X020487Y029065D01*
X020451Y029164D02*
X017941Y029164D01*
X017936Y029262D02*
X020457Y029262D01*
X020510Y029361D02*
X017882Y029361D01*
X018006Y030444D02*
X012887Y030444D01*
X012938Y030543D02*
X017955Y030543D01*
X017951Y030641D02*
X012941Y030641D01*
X012903Y030740D02*
X017989Y030740D01*
X018458Y031035D02*
X017434Y031035D01*
X017441Y031134D02*
X018451Y031134D01*
X018486Y031232D02*
X017407Y031232D01*
X017379Y030937D02*
X018513Y030937D01*
X018780Y031331D02*
X022613Y031331D01*
X022647Y031345D02*
X022557Y031308D01*
X022488Y031239D01*
X022451Y031149D01*
X022451Y031051D01*
X022488Y030961D01*
X022557Y030892D01*
X022647Y030855D01*
X022745Y030855D01*
X022835Y030892D01*
X022904Y030961D01*
X022941Y031051D01*
X022941Y031149D01*
X022904Y031239D01*
X022835Y031308D01*
X022745Y031345D01*
X022647Y031345D01*
X022780Y031331D02*
X023026Y031331D01*
X023026Y031429D02*
X019153Y031429D01*
X019261Y031528D02*
X023026Y031528D01*
X022988Y031626D02*
X019291Y031626D01*
X019280Y031725D02*
X022890Y031725D01*
X022907Y031232D02*
X023026Y031232D01*
X023026Y031134D02*
X022941Y031134D01*
X022934Y031035D02*
X023026Y031035D01*
X023026Y030937D02*
X022879Y030937D01*
X022513Y030937D02*
X018879Y030937D01*
X018934Y031035D02*
X022458Y031035D01*
X022451Y031134D02*
X018941Y031134D01*
X018907Y031232D02*
X022486Y031232D01*
X020895Y030346D02*
X020497Y030346D01*
X020541Y030247D02*
X020851Y030247D01*
X020852Y030149D02*
X020540Y030149D01*
X020493Y030050D02*
X020900Y030050D01*
X021972Y028671D02*
X023026Y028671D01*
X023026Y028573D02*
X022031Y028573D01*
X022041Y028474D02*
X023026Y028474D01*
X023026Y028376D02*
X022010Y028376D01*
X022866Y028277D02*
X023026Y028277D01*
X023026Y028179D02*
X022929Y028179D01*
X022941Y028080D02*
X023026Y028080D01*
X023026Y027982D02*
X022912Y027982D01*
X023026Y027686D02*
X020007Y027686D01*
X020075Y027588D02*
X023026Y027588D01*
X023026Y027489D02*
X020091Y027489D01*
X020066Y027391D02*
X023026Y027391D01*
X022214Y025815D02*
X021278Y025815D01*
X021334Y025716D02*
X022158Y025716D01*
X022151Y025618D02*
X021341Y025618D01*
X021307Y025519D02*
X022185Y025519D01*
X021650Y026800D02*
X021520Y026800D01*
X021541Y026898D02*
X021603Y026898D01*
X021601Y026997D02*
X021521Y026997D01*
X021448Y027095D02*
X021645Y027095D01*
X020914Y025815D02*
X019978Y025815D01*
X020034Y025716D02*
X020858Y025716D01*
X020851Y025618D02*
X020041Y025618D01*
X020007Y025519D02*
X020885Y025519D01*
X019710Y025421D02*
X018582Y025421D01*
X018707Y025519D02*
X019585Y025519D01*
X019551Y025618D02*
X018741Y025618D01*
X018734Y025716D02*
X019558Y025716D01*
X019614Y025815D02*
X018678Y025815D01*
X021129Y021579D02*
X023026Y021579D01*
X023026Y021481D02*
X021141Y021481D01*
X021113Y021382D02*
X023026Y021382D01*
X023026Y021284D02*
X021014Y021284D01*
X022978Y022269D02*
X023026Y022269D01*
X023026Y020003D02*
X013396Y020003D01*
X013379Y030937D02*
X017013Y030937D01*
X016958Y031035D02*
X013434Y031035D01*
X013441Y031134D02*
X016951Y031134D01*
X016986Y031232D02*
X013407Y031232D01*
X005663Y014290D02*
X005229Y014290D01*
X005306Y014192D02*
X005587Y014192D01*
X005546Y014093D02*
X005346Y014093D01*
X005351Y013995D02*
X005541Y013995D01*
X005551Y013896D02*
X005342Y013896D01*
X005301Y013798D02*
X005591Y013798D01*
X005674Y013699D02*
X005218Y013699D01*
X005041Y013601D02*
X005852Y013601D01*
X005678Y013305D02*
X005214Y013305D01*
X005299Y013207D02*
X005593Y013207D01*
X005552Y013108D02*
X005340Y013108D01*
X005351Y013010D02*
X005541Y013010D01*
X005544Y012911D02*
X005348Y012911D01*
X005307Y012813D02*
X005585Y012813D01*
X005659Y012714D02*
X005233Y012714D01*
X005077Y012616D02*
X005815Y012616D01*
X005693Y012320D02*
X005199Y012320D01*
X005293Y012222D02*
X005599Y012222D01*
X005558Y012123D02*
X005334Y012123D01*
X005351Y012025D02*
X005541Y012025D01*
X005541Y011926D02*
X005351Y011926D01*
X005313Y011828D02*
X005579Y011828D01*
X005644Y011729D02*
X005248Y011729D01*
X005113Y011631D02*
X005779Y011631D01*
X023058Y007888D02*
X023554Y007888D01*
X023595Y007789D02*
X023150Y007789D01*
X023242Y007691D02*
X023683Y007691D01*
X023418Y007494D02*
X024146Y007494D01*
X024146Y007592D02*
X023335Y007592D01*
M02*
