G75*
%MOIN*%
%OFA0B0*%
%FSLAX24Y24*%
%IPPOS*%
%LPD*%
%AMOC8*
5,1,8,0,0,1.08239X$1,22.5*
%
%ADD10C,0.0200*%
%ADD11R,0.5000X1.7500*%
%ADD12C,0.0050*%
%ADD13C,0.0060*%
%ADD14C,0.0080*%
D10*
X012646Y016161D02*
X012780Y016027D01*
X012646Y016161D02*
X012646Y016428D01*
X012780Y016561D01*
X012913Y016561D01*
X013047Y016428D01*
X013047Y016161D01*
X013180Y016027D01*
X013313Y016027D01*
X013447Y016161D01*
X013447Y016428D01*
X013313Y016561D01*
X012646Y016948D02*
X013447Y017482D01*
X013447Y017869D02*
X012646Y018403D01*
X013447Y018403D01*
X013180Y018790D02*
X013047Y018790D01*
X013047Y018923D01*
X013180Y018923D01*
X013180Y018790D01*
X012780Y018790D02*
X012646Y018790D01*
X012646Y018923D01*
X012780Y018923D01*
X012780Y018790D01*
X012646Y017869D02*
X013447Y017869D01*
D11*
X009246Y018000D03*
D12*
X015171Y023750D02*
X015771Y023750D01*
X015771Y024950D01*
X015171Y024950D01*
X015171Y023750D01*
X015771Y023750D02*
X016371Y023750D01*
X016371Y024950D01*
X015771Y024950D01*
X015771Y023750D01*
X016196Y022150D02*
X016196Y021550D01*
X016196Y020950D01*
X017396Y020950D01*
X017396Y021550D01*
X016196Y021550D01*
X017396Y021550D01*
X017396Y022150D01*
X016196Y022150D01*
X018096Y022100D02*
X018096Y021500D01*
X018096Y020900D01*
X019296Y020900D01*
X019296Y021500D01*
X018096Y021500D01*
X019296Y021500D01*
X019296Y022100D01*
X018096Y022100D01*
X020096Y023500D02*
X020696Y023500D01*
X020696Y024700D01*
X020096Y024700D01*
X020096Y023500D01*
X021096Y022600D02*
X021096Y022000D01*
X021096Y021400D01*
X022296Y021400D01*
X022296Y022000D01*
X021096Y022000D01*
X022296Y022000D01*
X022296Y022600D01*
X021096Y022600D01*
X020196Y026300D02*
X019596Y026300D01*
X019596Y027500D01*
X020196Y027500D01*
X020196Y026300D01*
X021546Y026350D02*
X022146Y026350D01*
X022746Y026350D01*
X022746Y027550D01*
X022146Y027550D01*
X022146Y026350D01*
X022146Y027550D01*
X021546Y027550D01*
X021546Y026350D01*
X021546Y028400D02*
X022146Y028400D01*
X022146Y029600D01*
X021546Y029600D01*
X021546Y028400D01*
X022146Y028400D02*
X022746Y028400D01*
X022746Y029600D01*
X022146Y029600D01*
X022146Y028400D01*
X022146Y030450D02*
X021546Y030450D01*
X021546Y031650D01*
X022146Y031650D01*
X022746Y031650D01*
X022746Y030450D01*
X022146Y030450D01*
X022146Y031650D01*
X022146Y030450D01*
X022146Y032550D02*
X021546Y032550D01*
X021546Y033750D01*
X022146Y033750D01*
X022146Y032550D01*
X022746Y032550D01*
X022746Y033750D01*
X022146Y033750D01*
X022146Y032550D01*
X014796Y030850D02*
X014796Y029650D01*
X014196Y029650D01*
X014196Y030850D01*
X014796Y030850D01*
X014796Y029450D02*
X014196Y029450D01*
X014196Y028250D01*
X014796Y028250D01*
X014796Y029450D01*
X012296Y029450D02*
X012296Y028250D01*
X011696Y028250D01*
X011696Y029450D01*
X012296Y029450D01*
X012296Y029650D02*
X011696Y029650D01*
X011696Y030850D01*
X012296Y030850D01*
X012296Y029650D01*
X010296Y029700D02*
X009696Y029700D01*
X009696Y030900D01*
X010296Y030900D01*
X010296Y029700D01*
X010296Y029500D02*
X009696Y029500D01*
X009696Y028300D01*
X010296Y028300D01*
X010296Y029500D01*
X007796Y029500D02*
X007796Y028300D01*
X007196Y028300D01*
X007196Y029500D01*
X007796Y029500D01*
X007796Y029700D02*
X007196Y029700D01*
X007196Y030900D01*
X007796Y030900D01*
X007796Y029700D01*
D13*
X007086Y029093D02*
X007086Y028919D01*
X006956Y028919D01*
X007000Y029006D01*
X007000Y029049D01*
X006956Y029093D01*
X006870Y029093D01*
X006826Y029049D01*
X006826Y028963D01*
X006870Y028919D01*
X006826Y028798D02*
X006826Y028625D01*
X007000Y028798D01*
X007043Y028798D01*
X007086Y028755D01*
X007086Y028668D01*
X007043Y028625D01*
X007043Y028503D02*
X007086Y028460D01*
X007086Y028373D01*
X007043Y028330D01*
X006870Y028330D01*
X006826Y028373D01*
X006826Y028460D01*
X006870Y028503D01*
X006736Y028460D02*
X006693Y028503D01*
X006520Y028330D01*
X006476Y028373D01*
X006476Y028460D01*
X006520Y028503D01*
X006693Y028503D01*
X006736Y028460D02*
X006736Y028373D01*
X006693Y028330D01*
X006520Y028330D01*
X006520Y028625D02*
X006520Y028668D01*
X006476Y028668D01*
X006476Y028625D01*
X006520Y028625D01*
X006476Y028772D02*
X006476Y028945D01*
X006476Y028859D02*
X006736Y028859D01*
X006650Y028772D01*
X006650Y029067D02*
X006520Y029067D01*
X006476Y029110D01*
X006476Y029240D01*
X006650Y029240D01*
X006606Y029361D02*
X006606Y029448D01*
X006476Y029361D02*
X006736Y029361D01*
X006736Y029535D01*
X007177Y031030D02*
X007177Y031290D01*
X007003Y031290D01*
X007047Y031380D02*
X007047Y031640D01*
X007177Y031510D01*
X007003Y031510D01*
X007090Y031160D02*
X007177Y031160D01*
X007298Y031203D02*
X007298Y031030D01*
X007428Y031030D01*
X007472Y031073D01*
X007472Y031203D01*
X007472Y031380D02*
X007298Y031553D01*
X007298Y031597D01*
X007341Y031640D01*
X007428Y031640D01*
X007472Y031597D01*
X007593Y031597D02*
X007636Y031640D01*
X007723Y031640D01*
X007766Y031597D01*
X007766Y031423D01*
X007723Y031380D01*
X007636Y031380D01*
X007593Y031423D01*
X007472Y031380D02*
X007298Y031380D01*
X007679Y031290D02*
X007679Y031030D01*
X007593Y031030D02*
X007766Y031030D01*
X007766Y031203D02*
X007679Y031290D01*
X009503Y031280D02*
X009677Y031280D01*
X009677Y031020D01*
X009798Y031020D02*
X009798Y031193D01*
X009677Y031150D02*
X009590Y031150D01*
X009503Y031370D02*
X009677Y031370D01*
X009503Y031543D01*
X009503Y031587D01*
X009547Y031630D01*
X009634Y031630D01*
X009677Y031587D01*
X009798Y031587D02*
X009841Y031630D01*
X009928Y031630D01*
X009972Y031587D01*
X010093Y031587D02*
X010136Y031630D01*
X010223Y031630D01*
X010266Y031587D01*
X010266Y031413D01*
X010223Y031370D01*
X010136Y031370D01*
X010093Y031413D01*
X009972Y031370D02*
X009798Y031543D01*
X009798Y031587D01*
X009798Y031370D02*
X009972Y031370D01*
X009972Y031193D02*
X009972Y031063D01*
X009928Y031020D01*
X009798Y031020D01*
X010093Y031020D02*
X010266Y031020D01*
X010179Y031020D02*
X010179Y031280D01*
X010266Y031193D01*
X010626Y029535D02*
X010626Y029361D01*
X010366Y029361D01*
X010366Y029240D02*
X010540Y029240D01*
X010496Y029361D02*
X010496Y029448D01*
X010366Y029240D02*
X010366Y029110D01*
X010410Y029067D01*
X010540Y029067D01*
X010716Y029049D02*
X010716Y028963D01*
X010760Y028919D01*
X010846Y029006D02*
X010846Y029049D01*
X010803Y029093D01*
X010760Y029093D01*
X010716Y029049D01*
X010846Y029049D02*
X010890Y029093D01*
X010933Y029093D01*
X010976Y029049D01*
X010976Y028963D01*
X010933Y028919D01*
X010933Y028798D02*
X010976Y028755D01*
X010976Y028668D01*
X010933Y028625D01*
X010933Y028503D02*
X010976Y028460D01*
X010976Y028373D01*
X010933Y028330D01*
X010760Y028330D01*
X010716Y028373D01*
X010716Y028460D01*
X010760Y028503D01*
X010716Y028625D02*
X010890Y028798D01*
X010933Y028798D01*
X010716Y028798D02*
X010716Y028625D01*
X010583Y028503D02*
X010410Y028330D01*
X010366Y028373D01*
X010366Y028460D01*
X010410Y028503D01*
X010583Y028503D01*
X010626Y028460D01*
X010626Y028373D01*
X010583Y028330D01*
X010410Y028330D01*
X010410Y028625D02*
X010410Y028668D01*
X010366Y028668D01*
X010366Y028625D01*
X010410Y028625D01*
X010366Y028772D02*
X010366Y028945D01*
X010366Y028859D02*
X010626Y028859D01*
X010540Y028772D01*
X011411Y028040D02*
X011585Y028040D01*
X011585Y027780D01*
X011706Y027780D02*
X011706Y027953D01*
X011585Y027910D02*
X011498Y027910D01*
X011706Y027780D02*
X011836Y027780D01*
X011880Y027823D01*
X011880Y027953D01*
X012001Y027780D02*
X012174Y027780D01*
X012087Y027780D02*
X012087Y028040D01*
X012174Y027953D01*
X012278Y027823D02*
X012278Y027780D01*
X012322Y027780D01*
X012322Y027823D01*
X012278Y027823D01*
X012443Y027823D02*
X012486Y027780D01*
X012573Y027780D01*
X012616Y027823D01*
X012443Y027997D01*
X012443Y027823D01*
X012616Y027823D02*
X012616Y027997D01*
X012573Y028040D01*
X012486Y028040D01*
X012443Y027997D01*
X012420Y028480D02*
X012376Y028523D01*
X012376Y028610D01*
X012420Y028653D01*
X012376Y028775D02*
X012376Y028948D01*
X012376Y028861D02*
X012636Y028861D01*
X012550Y028775D01*
X012593Y028653D02*
X012636Y028610D01*
X012636Y028523D01*
X012593Y028480D01*
X012420Y028480D01*
X012420Y029069D02*
X012376Y029113D01*
X012376Y029199D01*
X012420Y029243D01*
X012463Y029243D01*
X012506Y029199D01*
X012506Y029156D01*
X012506Y029199D02*
X012550Y029243D01*
X012593Y029243D01*
X012636Y029199D01*
X012636Y029113D01*
X012593Y029069D01*
X013856Y029079D02*
X013900Y029035D01*
X014073Y029209D01*
X013900Y029209D01*
X013856Y029165D01*
X013856Y029079D01*
X013900Y029035D02*
X014073Y029035D01*
X014116Y029079D01*
X014116Y029165D01*
X014073Y029209D01*
X013856Y028914D02*
X013856Y028741D01*
X013856Y028827D02*
X014116Y028827D01*
X014030Y028741D01*
X014073Y028620D02*
X014116Y028576D01*
X014116Y028489D01*
X014073Y028446D01*
X013900Y028446D01*
X013856Y028489D01*
X013856Y028576D01*
X013900Y028620D01*
X013911Y028040D02*
X014085Y028040D01*
X014085Y027780D01*
X014206Y027780D02*
X014206Y027953D01*
X014085Y027910D02*
X013998Y027910D01*
X014206Y027780D02*
X014336Y027780D01*
X014380Y027823D01*
X014380Y027953D01*
X014501Y027780D02*
X014674Y027780D01*
X014587Y027780D02*
X014587Y028040D01*
X014674Y027953D01*
X014778Y027823D02*
X014778Y027780D01*
X014822Y027780D01*
X014822Y027823D01*
X014778Y027823D01*
X014943Y027823D02*
X014943Y027997D01*
X015116Y027823D01*
X015073Y027780D01*
X014986Y027780D01*
X014943Y027823D01*
X015116Y027823D02*
X015116Y027997D01*
X015073Y028040D01*
X014986Y028040D01*
X014943Y027997D01*
X015601Y026285D02*
X015601Y026111D01*
X015341Y026111D01*
X015341Y025990D02*
X015515Y025990D01*
X015471Y026111D02*
X015471Y026198D01*
X015341Y025990D02*
X015341Y025860D01*
X015385Y025817D01*
X015515Y025817D01*
X015558Y025695D02*
X015385Y025522D01*
X015341Y025522D01*
X015341Y025418D02*
X015341Y025375D01*
X015385Y025375D01*
X015385Y025418D01*
X015341Y025418D01*
X015341Y025210D02*
X015601Y025210D01*
X015471Y025080D01*
X015471Y025253D01*
X015601Y025522D02*
X015601Y025695D01*
X015558Y025695D01*
X015941Y025695D02*
X015941Y025522D01*
X015941Y025609D02*
X016201Y025609D01*
X016115Y025522D01*
X015985Y025418D02*
X015941Y025418D01*
X015941Y025375D01*
X015985Y025375D01*
X015985Y025418D01*
X015985Y025253D02*
X015941Y025210D01*
X015941Y025123D01*
X015985Y025080D01*
X016158Y025253D01*
X015985Y025253D01*
X015985Y025080D02*
X016158Y025080D01*
X016201Y025123D01*
X016201Y025210D01*
X016158Y025253D01*
X016115Y025817D02*
X015985Y025817D01*
X015941Y025860D01*
X015941Y025990D01*
X016115Y025990D01*
X016071Y026111D02*
X016071Y026198D01*
X015941Y026111D02*
X016201Y026111D01*
X016201Y026285D01*
X016201Y023559D02*
X016201Y023385D01*
X016071Y023385D01*
X016115Y023472D01*
X016115Y023515D01*
X016071Y023559D01*
X015985Y023559D01*
X015941Y023515D01*
X015941Y023429D01*
X015985Y023385D01*
X015941Y023264D02*
X015941Y023091D01*
X015941Y023177D02*
X016201Y023177D01*
X016115Y023091D01*
X016158Y022970D02*
X016201Y022926D01*
X016201Y022839D01*
X016158Y022796D01*
X015985Y022796D01*
X015941Y022839D01*
X015941Y022926D01*
X015985Y022970D01*
X015601Y022926D02*
X015601Y022839D01*
X015558Y022796D01*
X015385Y022796D01*
X015341Y022839D01*
X015341Y022926D01*
X015385Y022970D01*
X015341Y023091D02*
X015341Y023264D01*
X015341Y023177D02*
X015601Y023177D01*
X015515Y023091D01*
X015558Y022970D02*
X015601Y022926D01*
X015471Y023385D02*
X015471Y023559D01*
X015341Y023515D02*
X015601Y023515D01*
X015471Y023385D01*
X015641Y022290D02*
X015598Y022247D01*
X015598Y022203D01*
X015641Y022160D01*
X015598Y022117D01*
X015598Y022073D01*
X015641Y022030D01*
X015728Y022030D01*
X015772Y022073D01*
X015893Y022073D02*
X015936Y022030D01*
X016023Y022030D01*
X016066Y022073D01*
X016066Y022247D01*
X016023Y022290D01*
X015936Y022290D01*
X015893Y022247D01*
X015772Y022247D02*
X015728Y022290D01*
X015641Y022290D01*
X015641Y022160D02*
X015685Y022160D01*
X015624Y021940D02*
X015451Y021940D01*
X015451Y021897D01*
X015624Y021723D01*
X015624Y021680D01*
X015728Y021680D02*
X015772Y021680D01*
X015772Y021723D01*
X015728Y021723D01*
X015728Y021680D01*
X015936Y021680D02*
X015936Y021940D01*
X016066Y021810D01*
X015893Y021810D01*
X015936Y021490D02*
X016023Y021490D01*
X016066Y021447D01*
X016066Y021273D01*
X016023Y021230D01*
X015936Y021230D01*
X015893Y021273D01*
X015936Y021140D02*
X015893Y021097D01*
X016066Y020923D01*
X016023Y020880D01*
X015936Y020880D01*
X015893Y020923D01*
X015893Y021097D01*
X015936Y021140D02*
X016023Y021140D01*
X016066Y021097D01*
X016066Y020923D01*
X015772Y020923D02*
X015772Y020880D01*
X015728Y020880D01*
X015728Y020923D01*
X015772Y020923D01*
X015624Y020880D02*
X015451Y020880D01*
X015537Y020880D02*
X015537Y021140D01*
X015624Y021053D01*
X015641Y021230D02*
X015641Y021490D01*
X015772Y021360D01*
X015598Y021360D01*
X015893Y021447D02*
X015936Y021490D01*
X015330Y021723D02*
X015286Y021680D01*
X015156Y021680D01*
X015156Y021853D01*
X015035Y021810D02*
X014948Y021810D01*
X015035Y021680D02*
X015035Y021940D01*
X014861Y021940D01*
X015330Y021853D02*
X015330Y021723D01*
X015035Y021140D02*
X014861Y021140D01*
X014948Y021010D02*
X015035Y021010D01*
X015156Y021053D02*
X015156Y020880D01*
X015286Y020880D01*
X015330Y020923D01*
X015330Y021053D01*
X015035Y021140D02*
X015035Y020880D01*
X017556Y023020D02*
X017730Y023020D01*
X017643Y023020D02*
X017643Y023280D01*
X017730Y023193D01*
X017851Y023237D02*
X017851Y023063D01*
X017894Y023020D01*
X017981Y023020D01*
X018024Y023063D01*
X017851Y023237D01*
X017894Y023280D01*
X017981Y023280D01*
X018024Y023237D01*
X018024Y023063D01*
X018145Y023020D02*
X018319Y023020D01*
X018145Y023193D01*
X018145Y023237D01*
X018189Y023280D01*
X018276Y023280D01*
X018319Y023237D01*
X018440Y023237D02*
X018440Y023063D01*
X018484Y023020D01*
X018614Y023020D01*
X018614Y023280D01*
X018484Y023280D01*
X018440Y023237D01*
X018735Y023280D02*
X018735Y023107D01*
X018822Y023020D01*
X018908Y023107D01*
X018908Y023280D01*
X019029Y023020D02*
X019203Y023020D01*
X019203Y023280D01*
X019324Y023280D02*
X019324Y023020D01*
X019498Y023020D02*
X019498Y023280D01*
X019411Y023193D01*
X019324Y023280D01*
X019619Y023280D02*
X019792Y023280D01*
X019792Y023150D01*
X019705Y023193D01*
X019662Y023193D01*
X019619Y023150D01*
X019619Y023063D01*
X019662Y023020D01*
X019749Y023020D01*
X019792Y023063D01*
X019913Y023063D02*
X019913Y023107D01*
X019957Y023150D01*
X020087Y023150D01*
X020087Y023063D01*
X020044Y023020D01*
X019957Y023020D01*
X019913Y023063D01*
X020000Y023237D02*
X019913Y023280D01*
X020000Y023237D02*
X020087Y023150D01*
X020208Y023020D02*
X020208Y023280D01*
X020382Y023280D02*
X020208Y023020D01*
X020382Y023020D02*
X020382Y023280D01*
X020503Y023237D02*
X020546Y023280D01*
X020633Y023280D01*
X020676Y023237D01*
X020676Y023193D01*
X020633Y023150D01*
X020546Y023150D01*
X020503Y023107D01*
X020503Y023063D01*
X020546Y023020D01*
X020633Y023020D01*
X020676Y023063D01*
X020716Y023560D02*
X020716Y023980D01*
X020716Y024220D01*
X020716Y024640D01*
X020676Y024780D02*
X020416Y024780D01*
X020503Y024780D02*
X020503Y024910D01*
X020546Y024953D01*
X020633Y024953D01*
X020676Y024910D01*
X020676Y024780D01*
X020503Y024867D02*
X020416Y024953D01*
X020416Y025075D02*
X020590Y025248D01*
X020633Y025248D01*
X020676Y025205D01*
X020676Y025118D01*
X020633Y025075D01*
X020416Y025075D02*
X020416Y025248D01*
X020326Y025248D02*
X020326Y025075D01*
X020196Y025075D01*
X020240Y025161D01*
X020240Y025205D01*
X020196Y025248D01*
X020110Y025248D01*
X020066Y025205D01*
X020066Y025118D01*
X020110Y025075D01*
X020066Y024953D02*
X020066Y024780D01*
X020066Y024867D02*
X020326Y024867D01*
X020240Y024780D01*
X020283Y025369D02*
X020110Y025369D01*
X020283Y025543D01*
X020110Y025543D01*
X020066Y025499D01*
X020066Y025413D01*
X020110Y025369D01*
X020283Y025369D02*
X020326Y025413D01*
X020326Y025499D01*
X020283Y025543D01*
X020416Y025499D02*
X020460Y025543D01*
X020503Y025543D01*
X020546Y025499D01*
X020546Y025456D01*
X020546Y025499D02*
X020590Y025543D01*
X020633Y025543D01*
X020676Y025499D01*
X020676Y025413D01*
X020633Y025369D01*
X020460Y025369D02*
X020416Y025413D01*
X020416Y025499D01*
X020407Y025780D02*
X020363Y025823D01*
X020363Y025867D01*
X020407Y025910D01*
X020537Y025910D01*
X020537Y025823D01*
X020494Y025780D01*
X020407Y025780D01*
X020242Y025823D02*
X020199Y025780D01*
X020112Y025780D01*
X020069Y025823D01*
X020069Y025910D01*
X020112Y025953D01*
X020155Y025953D01*
X020242Y025910D01*
X020242Y026040D01*
X020069Y026040D01*
X019948Y026040D02*
X019948Y025780D01*
X019774Y025780D01*
X019653Y025867D02*
X019653Y026040D01*
X019653Y025867D02*
X019566Y025780D01*
X019479Y025867D01*
X019479Y026040D01*
X019358Y026040D02*
X019358Y025780D01*
X019228Y025780D01*
X019185Y025823D01*
X019185Y025997D01*
X019228Y026040D01*
X019358Y026040D01*
X019064Y025997D02*
X019064Y025953D01*
X019020Y025910D01*
X018934Y025910D01*
X018890Y025867D01*
X018890Y025823D01*
X018934Y025780D01*
X019020Y025780D01*
X019064Y025823D01*
X019064Y025997D02*
X019020Y026040D01*
X018934Y026040D01*
X018890Y025997D01*
X018769Y025997D02*
X018726Y026040D01*
X018639Y026040D01*
X018595Y025997D01*
X018595Y025953D01*
X018769Y025780D01*
X018595Y025780D01*
X019516Y027580D02*
X019516Y027753D01*
X019516Y027667D02*
X019776Y027667D01*
X019690Y027580D01*
X019866Y027580D02*
X020126Y027580D01*
X020126Y027710D01*
X020083Y027753D01*
X019996Y027753D01*
X019953Y027710D01*
X019953Y027580D01*
X019953Y027667D02*
X019866Y027753D01*
X019866Y027875D02*
X020040Y028048D01*
X020083Y028048D01*
X020126Y028005D01*
X020126Y027918D01*
X020083Y027875D01*
X019866Y027875D02*
X019866Y028048D01*
X019776Y028005D02*
X019733Y028048D01*
X019560Y027875D01*
X019516Y027918D01*
X019516Y028005D01*
X019560Y028048D01*
X019733Y028048D01*
X019776Y028005D02*
X019776Y027918D01*
X019733Y027875D01*
X019560Y027875D01*
X019560Y028169D02*
X019733Y028343D01*
X019560Y028343D01*
X019516Y028299D01*
X019516Y028213D01*
X019560Y028169D01*
X019733Y028169D01*
X019776Y028213D01*
X019776Y028299D01*
X019733Y028343D01*
X019866Y028343D02*
X019866Y028169D01*
X020040Y028343D01*
X020083Y028343D01*
X020126Y028299D01*
X020126Y028213D01*
X020083Y028169D01*
X020246Y028790D02*
X020246Y029210D01*
X020550Y029140D02*
X020550Y028880D01*
X020637Y028880D02*
X020463Y028880D01*
X020637Y029053D02*
X020550Y029140D01*
X020716Y029340D02*
X020976Y029340D01*
X021053Y029140D02*
X021053Y028923D01*
X021096Y028880D01*
X021183Y028880D01*
X021226Y028923D01*
X021226Y029140D01*
X021446Y029120D02*
X021446Y028880D01*
X021446Y028790D01*
X021446Y028880D02*
X021425Y028882D01*
X021405Y028887D01*
X021386Y028896D01*
X021369Y028908D01*
X021354Y028923D01*
X021342Y028940D01*
X021333Y028959D01*
X021328Y028979D01*
X021326Y029000D01*
X021328Y029021D01*
X021333Y029041D01*
X021342Y029060D01*
X021354Y029077D01*
X021369Y029092D01*
X021386Y029104D01*
X021405Y029113D01*
X021425Y029118D01*
X021446Y029120D01*
X021446Y029210D01*
X021453Y029670D02*
X021627Y029670D01*
X021453Y029843D01*
X021453Y029887D01*
X021497Y029930D01*
X021584Y029930D01*
X021627Y029887D01*
X021748Y029930D02*
X021922Y029930D01*
X021922Y029800D01*
X021835Y029843D01*
X021791Y029843D01*
X021748Y029800D01*
X021748Y029713D01*
X021791Y029670D01*
X021878Y029670D01*
X021922Y029713D01*
X022043Y029713D02*
X022086Y029670D01*
X022173Y029670D01*
X022216Y029713D01*
X022216Y029887D01*
X022173Y029930D01*
X022086Y029930D01*
X022043Y029887D01*
X022077Y030020D02*
X022250Y030020D01*
X022163Y030020D02*
X022163Y030280D01*
X022250Y030193D01*
X021955Y030193D02*
X021955Y030020D01*
X021782Y030020D02*
X021782Y030150D01*
X021825Y030193D01*
X021955Y030193D01*
X021661Y030150D02*
X021574Y030150D01*
X021661Y030020D02*
X021661Y030280D01*
X021487Y030280D01*
X021446Y030840D02*
X021446Y030930D01*
X021446Y031170D01*
X021446Y031260D01*
X021446Y031170D02*
X021425Y031168D01*
X021405Y031163D01*
X021386Y031154D01*
X021369Y031142D01*
X021354Y031127D01*
X021342Y031110D01*
X021333Y031091D01*
X021328Y031071D01*
X021326Y031050D01*
X021328Y031029D01*
X021333Y031009D01*
X021342Y030990D01*
X021354Y030973D01*
X021369Y030958D01*
X021386Y030946D01*
X021405Y030937D01*
X021425Y030932D01*
X021446Y030930D01*
X021226Y030973D02*
X021183Y030930D01*
X021096Y030930D01*
X021053Y030973D01*
X021053Y031190D01*
X020932Y031103D02*
X020845Y031190D01*
X020845Y030930D01*
X020932Y030930D02*
X020758Y030930D01*
X020637Y030930D02*
X020463Y031103D01*
X020463Y031147D01*
X020507Y031190D01*
X020594Y031190D01*
X020637Y031147D01*
X020637Y030930D02*
X020463Y030930D01*
X020246Y030840D02*
X020246Y031260D01*
X020016Y031303D02*
X019973Y031346D01*
X020016Y031303D02*
X020016Y031216D01*
X019973Y031173D01*
X019886Y031173D01*
X019843Y031216D01*
X019843Y031259D01*
X019886Y031346D01*
X019756Y031346D01*
X019756Y031173D01*
X019756Y031051D02*
X020016Y031051D01*
X020016Y030878D01*
X019929Y030757D02*
X020016Y030670D01*
X019929Y030583D01*
X019756Y030583D01*
X019756Y030462D02*
X019756Y030332D01*
X019799Y030289D01*
X019973Y030289D01*
X020016Y030332D01*
X020016Y030462D01*
X019756Y030462D01*
X019756Y030757D02*
X019929Y030757D01*
X019973Y030167D02*
X020016Y030124D01*
X020016Y030037D01*
X019973Y029994D01*
X019929Y029994D01*
X019886Y030037D01*
X019886Y030124D01*
X019843Y030167D01*
X019799Y030167D01*
X019756Y030124D01*
X019756Y030037D01*
X019799Y029994D01*
X019843Y029873D02*
X019756Y029786D01*
X020016Y029786D01*
X020016Y029873D02*
X020016Y029699D01*
X020845Y029140D02*
X020845Y028880D01*
X020932Y028880D02*
X020758Y028880D01*
X020932Y029053D02*
X020845Y029140D01*
X021487Y028230D02*
X021661Y028230D01*
X021661Y027970D01*
X021584Y027880D02*
X021497Y027880D01*
X021453Y027837D01*
X021453Y027793D01*
X021497Y027750D01*
X021453Y027707D01*
X021453Y027663D01*
X021497Y027620D01*
X021584Y027620D01*
X021627Y027663D01*
X021748Y027663D02*
X021791Y027620D01*
X021878Y027620D01*
X021922Y027663D01*
X021922Y027750D02*
X021835Y027793D01*
X021791Y027793D01*
X021748Y027750D01*
X021748Y027663D01*
X021922Y027750D02*
X021922Y027880D01*
X021748Y027880D01*
X021782Y027970D02*
X021782Y028100D01*
X021825Y028143D01*
X021955Y028143D01*
X021955Y027970D01*
X022077Y027970D02*
X022250Y027970D01*
X022163Y027970D02*
X022163Y028230D01*
X022250Y028143D01*
X022173Y027880D02*
X022216Y027837D01*
X022216Y027663D01*
X022173Y027620D01*
X022086Y027620D01*
X022043Y027663D01*
X022043Y027837D02*
X022086Y027880D01*
X022173Y027880D01*
X021627Y027837D02*
X021584Y027880D01*
X021540Y027750D02*
X021497Y027750D01*
X021574Y028100D02*
X021661Y028100D01*
X021446Y027160D02*
X021446Y027070D01*
X021446Y026830D01*
X021446Y026740D01*
X021446Y026830D02*
X021425Y026832D01*
X021405Y026837D01*
X021386Y026846D01*
X021369Y026858D01*
X021354Y026873D01*
X021342Y026890D01*
X021333Y026909D01*
X021328Y026929D01*
X021326Y026950D01*
X021328Y026971D01*
X021333Y026991D01*
X021342Y027010D01*
X021354Y027027D01*
X021369Y027042D01*
X021386Y027054D01*
X021405Y027063D01*
X021425Y027068D01*
X021446Y027070D01*
X021226Y027090D02*
X021226Y026873D01*
X021183Y026830D01*
X021096Y026830D01*
X021053Y026873D01*
X021053Y027090D01*
X020932Y027003D02*
X020845Y027090D01*
X020845Y026830D01*
X020932Y026830D02*
X020758Y026830D01*
X020637Y026873D02*
X020463Y027047D01*
X020463Y026873D01*
X020507Y026830D01*
X020594Y026830D01*
X020637Y026873D01*
X020637Y027047D01*
X020594Y027090D01*
X020507Y027090D01*
X020463Y027047D01*
X020246Y027160D02*
X020246Y026740D01*
X020716Y027290D02*
X020976Y027290D01*
X021487Y026180D02*
X021661Y026180D01*
X021661Y025920D01*
X021782Y025920D02*
X021782Y026050D01*
X021825Y026093D01*
X021955Y026093D01*
X021955Y025920D01*
X022077Y025920D02*
X022250Y025920D01*
X022163Y025920D02*
X022163Y026180D01*
X022250Y026093D01*
X021661Y026050D02*
X021574Y026050D01*
X021126Y025997D02*
X021126Y025953D01*
X021083Y025910D01*
X020996Y025910D01*
X020953Y025867D01*
X020953Y025823D01*
X020996Y025780D01*
X021083Y025780D01*
X021126Y025823D01*
X021126Y025997D02*
X021083Y026040D01*
X020996Y026040D01*
X020953Y025997D01*
X020832Y026040D02*
X020658Y025780D01*
X020658Y026040D01*
X020832Y026040D02*
X020832Y025780D01*
X020537Y025910D02*
X020450Y025997D01*
X020363Y026040D01*
X020716Y024220D02*
X020737Y024218D01*
X020757Y024213D01*
X020776Y024204D01*
X020793Y024192D01*
X020808Y024177D01*
X020820Y024160D01*
X020829Y024141D01*
X020834Y024121D01*
X020836Y024100D01*
X020834Y024079D01*
X020829Y024059D01*
X020820Y024040D01*
X020808Y024023D01*
X020793Y024008D01*
X020776Y023996D01*
X020757Y023987D01*
X020737Y023982D01*
X020716Y023980D01*
X021293Y024090D02*
X021467Y024090D01*
X021337Y024220D01*
X021337Y023960D01*
X021588Y023960D02*
X021762Y023960D01*
X021675Y023960D02*
X021675Y024220D01*
X021762Y024133D01*
X021883Y024220D02*
X021883Y024003D01*
X021926Y023960D01*
X022013Y023960D01*
X022056Y024003D01*
X022056Y024220D01*
X022676Y024640D02*
X022676Y023560D01*
X022661Y022580D02*
X022487Y022580D01*
X022487Y022537D01*
X022661Y022363D01*
X022661Y022320D01*
X022661Y022230D02*
X022487Y022230D01*
X022574Y022100D02*
X022661Y022100D01*
X022782Y022100D02*
X022782Y021970D01*
X022661Y021970D02*
X022661Y022230D01*
X022782Y022100D02*
X022825Y022143D01*
X022955Y022143D01*
X022955Y021970D01*
X023077Y021970D02*
X023250Y021970D01*
X023163Y021970D02*
X023163Y022230D01*
X023250Y022143D01*
X023207Y022320D02*
X023120Y022320D01*
X023077Y022363D01*
X022955Y022363D02*
X022912Y022320D01*
X022825Y022320D01*
X022782Y022363D01*
X022782Y022450D01*
X022825Y022493D01*
X022869Y022493D01*
X022955Y022450D01*
X022955Y022580D01*
X022782Y022580D01*
X023077Y022537D02*
X023120Y022580D01*
X023207Y022580D01*
X023250Y022537D01*
X023250Y022363D01*
X023207Y022320D01*
X023207Y021830D02*
X023250Y021787D01*
X023250Y021613D01*
X023207Y021570D01*
X023120Y021570D01*
X023077Y021613D01*
X022955Y021613D02*
X022912Y021570D01*
X022825Y021570D01*
X022782Y021613D01*
X022782Y021700D01*
X022825Y021743D01*
X022869Y021743D01*
X022955Y021700D01*
X022955Y021830D01*
X022782Y021830D01*
X022661Y021700D02*
X022531Y021700D01*
X022487Y021657D01*
X022487Y021613D01*
X022531Y021570D01*
X022617Y021570D01*
X022661Y021613D01*
X022661Y021700D01*
X022574Y021787D01*
X022487Y021830D01*
X022487Y021480D02*
X022661Y021480D01*
X022661Y021220D01*
X022782Y021220D02*
X022782Y021393D01*
X022661Y021350D02*
X022574Y021350D01*
X022782Y021220D02*
X022912Y021220D01*
X022955Y021263D01*
X022955Y021393D01*
X023077Y021220D02*
X023250Y021220D01*
X023163Y021220D02*
X023163Y021480D01*
X023250Y021393D01*
X023354Y021263D02*
X023354Y021220D01*
X023397Y021220D01*
X023397Y021263D01*
X023354Y021263D01*
X023519Y021263D02*
X023562Y021220D01*
X023649Y021220D01*
X023692Y021263D01*
X023519Y021437D01*
X023519Y021263D01*
X023692Y021263D02*
X023692Y021437D01*
X023649Y021480D01*
X023562Y021480D01*
X023519Y021437D01*
X023207Y021830D02*
X023120Y021830D01*
X023077Y021787D01*
X020692Y021640D02*
X020519Y021640D01*
X020562Y021510D02*
X020562Y021770D01*
X020692Y021640D01*
X020397Y021553D02*
X020354Y021553D01*
X020354Y021510D01*
X020397Y021510D01*
X020397Y021553D01*
X020250Y021553D02*
X020250Y021510D01*
X020250Y021553D02*
X020077Y021727D01*
X020077Y021770D01*
X020250Y021770D01*
X019955Y021683D02*
X019955Y021553D01*
X019912Y021510D01*
X019782Y021510D01*
X019782Y021683D01*
X019661Y021640D02*
X019574Y021640D01*
X019661Y021510D02*
X019661Y021770D01*
X019487Y021770D01*
X019487Y021860D02*
X019661Y021860D01*
X019574Y021860D02*
X019574Y022120D01*
X019661Y022033D01*
X019782Y022077D02*
X019825Y022120D01*
X019912Y022120D01*
X019955Y022077D01*
X019955Y021903D01*
X019912Y021860D01*
X019825Y021860D01*
X019782Y021903D01*
X019825Y021370D02*
X019912Y021370D01*
X019955Y021327D01*
X019955Y021153D01*
X019912Y021110D01*
X019825Y021110D01*
X019782Y021153D01*
X019661Y021110D02*
X019487Y021283D01*
X019487Y021327D01*
X019531Y021370D01*
X019617Y021370D01*
X019661Y021327D01*
X019782Y021327D02*
X019825Y021370D01*
X019661Y021110D02*
X019487Y021110D01*
X019487Y021020D02*
X019661Y021020D01*
X019661Y020760D01*
X019782Y020760D02*
X019782Y020933D01*
X019661Y020890D02*
X019574Y020890D01*
X019782Y020760D02*
X019912Y020760D01*
X019955Y020803D01*
X019955Y020933D01*
X020077Y020760D02*
X020250Y020760D01*
X020163Y020760D02*
X020163Y021020D01*
X020250Y020933D01*
X020354Y020803D02*
X020354Y020760D01*
X020397Y020760D01*
X020397Y020803D01*
X020354Y020803D01*
X020519Y020803D02*
X020519Y020977D01*
X020692Y020803D01*
X020649Y020760D01*
X020562Y020760D01*
X020519Y020803D01*
X020692Y020803D02*
X020692Y020977D01*
X020649Y021020D01*
X020562Y021020D01*
X020519Y020977D01*
X022860Y026330D02*
X022816Y026373D01*
X022816Y026460D01*
X022860Y026503D01*
X023033Y026503D01*
X022860Y026330D01*
X023033Y026330D01*
X023076Y026373D01*
X023076Y026460D01*
X023033Y026503D01*
X023166Y026460D02*
X023210Y026503D01*
X023166Y026460D02*
X023166Y026373D01*
X023210Y026330D01*
X023383Y026330D01*
X023426Y026373D01*
X023426Y026460D01*
X023383Y026503D01*
X023296Y026625D02*
X023296Y026798D01*
X023253Y026919D02*
X023296Y026963D01*
X023296Y027049D01*
X023253Y027093D01*
X023210Y027093D01*
X023166Y027049D01*
X023166Y026963D01*
X023210Y026919D01*
X023253Y026919D01*
X023296Y026963D02*
X023340Y026919D01*
X023383Y026919D01*
X023426Y026963D01*
X023426Y027049D01*
X023383Y027093D01*
X023340Y027093D01*
X023296Y027049D01*
X023076Y026859D02*
X022816Y026859D01*
X022816Y026945D02*
X022816Y026772D01*
X022816Y026668D02*
X022816Y026625D01*
X022860Y026625D01*
X022860Y026668D01*
X022816Y026668D01*
X022990Y026772D02*
X023076Y026859D01*
X023166Y026755D02*
X023426Y026755D01*
X023296Y026625D01*
X022990Y027067D02*
X022860Y027067D01*
X022816Y027110D01*
X022816Y027240D01*
X022990Y027240D01*
X022946Y027361D02*
X022946Y027448D01*
X022816Y027361D02*
X023076Y027361D01*
X023076Y027535D01*
X023033Y028380D02*
X023076Y028423D01*
X023076Y028510D01*
X023033Y028553D01*
X022860Y028380D01*
X022816Y028423D01*
X022816Y028510D01*
X022860Y028553D01*
X023033Y028553D01*
X023166Y028510D02*
X023210Y028553D01*
X023166Y028510D02*
X023166Y028423D01*
X023210Y028380D01*
X023383Y028380D01*
X023426Y028423D01*
X023426Y028510D01*
X023383Y028553D01*
X023426Y028675D02*
X023296Y028675D01*
X023340Y028761D01*
X023340Y028805D01*
X023296Y028848D01*
X023210Y028848D01*
X023166Y028805D01*
X023166Y028718D01*
X023210Y028675D01*
X023426Y028675D02*
X023426Y028848D01*
X023383Y028969D02*
X023426Y029013D01*
X023426Y029099D01*
X023383Y029143D01*
X023210Y028969D01*
X023166Y029013D01*
X023166Y029099D01*
X023210Y029143D01*
X023383Y029143D01*
X023383Y028969D02*
X023210Y028969D01*
X023076Y028909D02*
X022816Y028909D01*
X022816Y028995D02*
X022816Y028822D01*
X022816Y028718D02*
X022816Y028675D01*
X022860Y028675D01*
X022860Y028718D01*
X022816Y028718D01*
X022990Y028822D02*
X023076Y028909D01*
X022990Y029117D02*
X022860Y029117D01*
X022816Y029160D01*
X022816Y029290D01*
X022990Y029290D01*
X022946Y029411D02*
X022946Y029498D01*
X022816Y029411D02*
X023076Y029411D01*
X023076Y029585D01*
X023033Y030430D02*
X023076Y030473D01*
X023076Y030560D01*
X023033Y030603D01*
X022860Y030430D01*
X022816Y030473D01*
X022816Y030560D01*
X022860Y030603D01*
X023033Y030603D01*
X023166Y030560D02*
X023210Y030603D01*
X023166Y030560D02*
X023166Y030473D01*
X023210Y030430D01*
X023383Y030430D01*
X023426Y030473D01*
X023426Y030560D01*
X023383Y030603D01*
X023426Y030725D02*
X023296Y030725D01*
X023340Y030811D01*
X023340Y030855D01*
X023296Y030898D01*
X023210Y030898D01*
X023166Y030855D01*
X023166Y030768D01*
X023210Y030725D01*
X023426Y030725D02*
X023426Y030898D01*
X023340Y031019D02*
X023426Y031106D01*
X023166Y031106D01*
X023166Y031019D02*
X023166Y031193D01*
X022990Y031167D02*
X022860Y031167D01*
X022816Y031210D01*
X022816Y031340D01*
X022990Y031340D01*
X022946Y031461D02*
X022946Y031548D01*
X022816Y031461D02*
X023076Y031461D01*
X023076Y031635D01*
X022816Y031045D02*
X022816Y030872D01*
X022816Y030959D02*
X023076Y030959D01*
X022990Y030872D01*
X022860Y030768D02*
X022816Y030768D01*
X022816Y030725D01*
X022860Y030725D01*
X022860Y030768D01*
X022860Y030430D02*
X023033Y030430D01*
X022173Y031720D02*
X022086Y031720D01*
X022043Y031763D01*
X021922Y031763D02*
X021878Y031720D01*
X021791Y031720D01*
X021748Y031763D01*
X021748Y031850D01*
X021791Y031893D01*
X021835Y031893D01*
X021922Y031850D01*
X021922Y031980D01*
X021748Y031980D01*
X021782Y032070D02*
X021782Y032200D01*
X021825Y032243D01*
X021955Y032243D01*
X021955Y032070D01*
X022077Y032070D02*
X022250Y032070D01*
X022163Y032070D02*
X022163Y032330D01*
X022250Y032243D01*
X022173Y031980D02*
X022216Y031937D01*
X022216Y031763D01*
X022173Y031720D01*
X022043Y031937D02*
X022086Y031980D01*
X022173Y031980D01*
X021661Y032070D02*
X021661Y032330D01*
X021487Y032330D01*
X021574Y032200D02*
X021661Y032200D01*
X021497Y031980D02*
X021627Y031850D01*
X021453Y031850D01*
X021497Y031720D02*
X021497Y031980D01*
X020976Y031390D02*
X020716Y031390D01*
X021226Y031190D02*
X021226Y030973D01*
X020016Y031511D02*
X019973Y031467D01*
X019929Y031467D01*
X019886Y031511D01*
X019886Y031641D01*
X019973Y031641D01*
X020016Y031597D01*
X020016Y031511D01*
X019886Y031641D02*
X019799Y031554D01*
X019756Y031467D01*
X019756Y031762D02*
X020016Y031762D01*
X019756Y031935D01*
X020016Y031935D01*
X019973Y032057D02*
X020016Y032100D01*
X020016Y032187D01*
X019973Y032230D01*
X019886Y032187D02*
X019886Y032100D01*
X019929Y032057D01*
X019973Y032057D01*
X019886Y032187D02*
X019843Y032230D01*
X019799Y032230D01*
X019756Y032187D01*
X019756Y032100D01*
X019799Y032057D01*
X020246Y032890D02*
X020246Y033310D01*
X020463Y033197D02*
X020463Y033153D01*
X020507Y033110D01*
X020463Y033067D01*
X020463Y033023D01*
X020507Y032980D01*
X020594Y032980D01*
X020637Y033023D01*
X020550Y033110D02*
X020507Y033110D01*
X020463Y033197D02*
X020507Y033240D01*
X020594Y033240D01*
X020637Y033197D01*
X020845Y033240D02*
X020845Y032980D01*
X020932Y032980D02*
X020758Y032980D01*
X020932Y033153D02*
X020845Y033240D01*
X021053Y033240D02*
X021053Y033023D01*
X021096Y032980D01*
X021183Y032980D01*
X021226Y033023D01*
X021226Y033240D01*
X021446Y033220D02*
X021446Y033310D01*
X021446Y033220D02*
X021446Y032980D01*
X021446Y032890D01*
X021446Y032980D02*
X021425Y032982D01*
X021405Y032987D01*
X021386Y032996D01*
X021369Y033008D01*
X021354Y033023D01*
X021342Y033040D01*
X021333Y033059D01*
X021328Y033079D01*
X021326Y033100D01*
X021328Y033121D01*
X021333Y033141D01*
X021342Y033160D01*
X021354Y033177D01*
X021369Y033192D01*
X021386Y033204D01*
X021405Y033213D01*
X021425Y033218D01*
X021446Y033220D01*
X020976Y033440D02*
X020716Y033440D01*
X021453Y033863D02*
X021497Y033820D01*
X021584Y033820D01*
X021627Y033863D01*
X021627Y033950D02*
X021540Y033993D01*
X021497Y033993D01*
X021453Y033950D01*
X021453Y033863D01*
X021627Y033950D02*
X021627Y034080D01*
X021453Y034080D01*
X021748Y034080D02*
X021922Y034080D01*
X021922Y033950D01*
X021835Y033993D01*
X021791Y033993D01*
X021748Y033950D01*
X021748Y033863D01*
X021791Y033820D01*
X021878Y033820D01*
X021922Y033863D01*
X022043Y033863D02*
X022086Y033820D01*
X022173Y033820D01*
X022216Y033863D01*
X022216Y034037D01*
X022173Y034080D01*
X022086Y034080D01*
X022043Y034037D01*
X022816Y033561D02*
X023076Y033561D01*
X023076Y033735D01*
X022946Y033648D02*
X022946Y033561D01*
X022990Y033440D02*
X022816Y033440D01*
X022816Y033310D01*
X022860Y033267D01*
X022990Y033267D01*
X023166Y033249D02*
X023210Y033293D01*
X023383Y033293D01*
X023426Y033249D01*
X023426Y033163D01*
X023383Y033119D01*
X023340Y033119D01*
X023296Y033163D01*
X023296Y033293D01*
X023166Y033249D02*
X023166Y033163D01*
X023210Y033119D01*
X023076Y033059D02*
X022816Y033059D01*
X022816Y033145D02*
X022816Y032972D01*
X022816Y032868D02*
X022816Y032825D01*
X022860Y032825D01*
X022860Y032868D01*
X022816Y032868D01*
X022860Y032703D02*
X022816Y032660D01*
X022816Y032573D01*
X022860Y032530D01*
X023033Y032703D01*
X022860Y032703D01*
X022860Y032530D02*
X023033Y032530D01*
X023076Y032573D01*
X023076Y032660D01*
X023033Y032703D01*
X023166Y032660D02*
X023210Y032703D01*
X023166Y032660D02*
X023166Y032573D01*
X023210Y032530D01*
X023383Y032530D01*
X023426Y032573D01*
X023426Y032660D01*
X023383Y032703D01*
X023296Y032825D02*
X023296Y032998D01*
X023166Y032955D02*
X023426Y032955D01*
X023296Y032825D01*
X023076Y033059D02*
X022990Y032972D01*
X023033Y028380D02*
X022860Y028380D01*
X014766Y031130D02*
X014593Y031130D01*
X014679Y031130D02*
X014679Y031390D01*
X014766Y031303D01*
X014723Y031480D02*
X014636Y031480D01*
X014593Y031523D01*
X014472Y031523D02*
X014472Y031567D01*
X014428Y031610D01*
X014341Y031610D01*
X014298Y031567D01*
X014298Y031523D01*
X014341Y031480D01*
X014428Y031480D01*
X014472Y031523D01*
X014428Y031610D02*
X014472Y031653D01*
X014472Y031697D01*
X014428Y031740D01*
X014341Y031740D01*
X014298Y031697D01*
X014298Y031653D01*
X014341Y031610D01*
X014593Y031697D02*
X014636Y031740D01*
X014723Y031740D01*
X014766Y031697D01*
X014766Y031523D01*
X014723Y031480D01*
X014472Y031303D02*
X014472Y031173D01*
X014428Y031130D01*
X014298Y031130D01*
X014298Y031303D01*
X014177Y031260D02*
X014090Y031260D01*
X014177Y031130D02*
X014177Y031390D01*
X014003Y031390D01*
X012266Y031473D02*
X012223Y031430D01*
X012136Y031430D01*
X012093Y031473D01*
X011972Y031430D02*
X011798Y031430D01*
X011885Y031430D02*
X011885Y031690D01*
X011972Y031603D01*
X012093Y031647D02*
X012136Y031690D01*
X012223Y031690D01*
X012266Y031647D01*
X012266Y031473D01*
X012179Y031340D02*
X012179Y031080D01*
X012093Y031080D02*
X012266Y031080D01*
X012266Y031253D02*
X012179Y031340D01*
X011972Y031253D02*
X011972Y031123D01*
X011928Y031080D01*
X011798Y031080D01*
X011798Y031253D01*
X011677Y031210D02*
X011590Y031210D01*
X011677Y031080D02*
X011677Y031340D01*
X011503Y031340D01*
X011503Y031430D02*
X011677Y031430D01*
X011503Y031603D01*
X011503Y031647D01*
X011547Y031690D01*
X011634Y031690D01*
X011677Y031647D01*
X014396Y014860D02*
X014256Y014070D01*
X013516Y013860D01*
X012966Y014250D01*
X012546Y013830D01*
X012956Y013220D01*
X012816Y012990D01*
X013916Y012530D01*
X014286Y012920D01*
X014856Y012990D01*
X015396Y012720D01*
X015626Y012110D01*
X015466Y011530D01*
X015036Y011200D01*
X014536Y011160D01*
X014056Y011380D01*
X013876Y011640D01*
X012806Y011200D01*
X012976Y010950D01*
X012546Y010340D01*
X012966Y009920D01*
X013586Y010350D01*
X014276Y010050D01*
X014406Y009290D01*
X015026Y009320D01*
X015146Y010080D01*
X015816Y010350D01*
X016446Y009940D01*
X016856Y010350D01*
X016426Y011020D01*
X016686Y011630D01*
X017456Y011780D01*
X017446Y012400D01*
X016676Y012540D01*
X016426Y013180D01*
X016876Y013840D01*
X016426Y014260D01*
X015796Y013830D01*
X015136Y014120D01*
X014996Y014880D01*
X014396Y014860D01*
X014391Y014833D02*
X015005Y014833D01*
X015016Y014774D02*
X014381Y014774D01*
X014371Y014716D02*
X015026Y014716D01*
X015037Y014657D02*
X014360Y014657D01*
X014350Y014599D02*
X015048Y014599D01*
X015059Y014540D02*
X014339Y014540D01*
X014329Y014482D02*
X015070Y014482D01*
X015080Y014423D02*
X014319Y014423D01*
X014308Y014365D02*
X015091Y014365D01*
X015102Y014306D02*
X014298Y014306D01*
X014288Y014248D02*
X015113Y014248D01*
X015123Y014189D02*
X014277Y014189D01*
X014267Y014131D02*
X015134Y014131D01*
X015245Y014072D02*
X014257Y014072D01*
X014057Y014014D02*
X015378Y014014D01*
X015512Y013955D02*
X013851Y013955D01*
X013645Y013897D02*
X015645Y013897D01*
X015778Y013838D02*
X012554Y013838D01*
X012580Y013780D02*
X016835Y013780D01*
X016875Y013838D02*
X015808Y013838D01*
X015894Y013897D02*
X016816Y013897D01*
X016753Y013955D02*
X015979Y013955D01*
X016065Y014014D02*
X016690Y014014D01*
X016628Y014072D02*
X016151Y014072D01*
X016237Y014131D02*
X016565Y014131D01*
X016502Y014189D02*
X016322Y014189D01*
X016408Y014248D02*
X016440Y014248D01*
X016795Y013721D02*
X012619Y013721D01*
X012659Y013663D02*
X016755Y013663D01*
X016715Y013604D02*
X012698Y013604D01*
X012737Y013546D02*
X016675Y013546D01*
X016636Y013487D02*
X012777Y013487D01*
X012816Y013429D02*
X016596Y013429D01*
X016556Y013370D02*
X012855Y013370D01*
X012895Y013312D02*
X016516Y013312D01*
X016476Y013253D02*
X012934Y013253D01*
X012941Y013195D02*
X016436Y013195D01*
X016443Y013136D02*
X012905Y013136D01*
X012869Y013078D02*
X016466Y013078D01*
X016489Y013019D02*
X012834Y013019D01*
X012887Y012961D02*
X014616Y012961D01*
X014915Y012961D02*
X016512Y012961D01*
X016535Y012902D02*
X015032Y012902D01*
X015149Y012844D02*
X016558Y012844D01*
X016580Y012785D02*
X015266Y012785D01*
X015383Y012727D02*
X016603Y012727D01*
X016626Y012668D02*
X015416Y012668D01*
X015438Y012610D02*
X016649Y012610D01*
X016672Y012551D02*
X015460Y012551D01*
X015482Y012493D02*
X016937Y012493D01*
X017259Y012434D02*
X015504Y012434D01*
X015526Y012376D02*
X017447Y012376D01*
X017448Y012317D02*
X015548Y012317D01*
X015570Y012259D02*
X017448Y012259D01*
X017449Y012200D02*
X015592Y012200D01*
X015614Y012142D02*
X017450Y012142D01*
X017451Y012083D02*
X015619Y012083D01*
X015603Y012025D02*
X017452Y012025D01*
X017453Y011966D02*
X015586Y011966D01*
X015570Y011908D02*
X017454Y011908D01*
X017455Y011849D02*
X015554Y011849D01*
X015538Y011791D02*
X017456Y011791D01*
X017210Y011732D02*
X015522Y011732D01*
X015506Y011674D02*
X016910Y011674D01*
X016680Y011615D02*
X015490Y011615D01*
X015474Y011557D02*
X016655Y011557D01*
X016630Y011498D02*
X015425Y011498D01*
X015348Y011440D02*
X016605Y011440D01*
X016580Y011381D02*
X015272Y011381D01*
X015196Y011323D02*
X016555Y011323D01*
X016530Y011264D02*
X015120Y011264D01*
X015043Y011206D02*
X016505Y011206D01*
X016480Y011147D02*
X012842Y011147D01*
X012820Y011206D02*
X014437Y011206D01*
X014309Y011264D02*
X012962Y011264D01*
X013104Y011323D02*
X014182Y011323D01*
X014055Y011381D02*
X013246Y011381D01*
X013389Y011440D02*
X014015Y011440D01*
X013974Y011498D02*
X013531Y011498D01*
X013673Y011557D02*
X013934Y011557D01*
X013893Y011615D02*
X013815Y011615D01*
X013866Y012551D02*
X013936Y012551D01*
X013992Y012610D02*
X013726Y012610D01*
X013586Y012668D02*
X014047Y012668D01*
X014103Y012727D02*
X013446Y012727D01*
X013306Y012785D02*
X014158Y012785D01*
X014214Y012844D02*
X013166Y012844D01*
X013026Y012902D02*
X014269Y012902D01*
X013465Y013897D02*
X012613Y013897D01*
X012671Y013955D02*
X013382Y013955D01*
X013300Y014014D02*
X012730Y014014D01*
X012788Y014072D02*
X013217Y014072D01*
X013135Y014131D02*
X012847Y014131D01*
X012905Y014189D02*
X013052Y014189D01*
X012970Y014248D02*
X012964Y014248D01*
X012882Y011089D02*
X016455Y011089D01*
X016430Y011030D02*
X012922Y011030D01*
X012962Y010972D02*
X016457Y010972D01*
X016495Y010913D02*
X012950Y010913D01*
X012909Y010855D02*
X016532Y010855D01*
X016570Y010796D02*
X012868Y010796D01*
X012826Y010738D02*
X016607Y010738D01*
X016645Y010679D02*
X012785Y010679D01*
X012744Y010621D02*
X016683Y010621D01*
X016720Y010562D02*
X012703Y010562D01*
X012661Y010504D02*
X016758Y010504D01*
X016795Y010445D02*
X012620Y010445D01*
X012579Y010387D02*
X016833Y010387D01*
X016834Y010328D02*
X015850Y010328D01*
X015762Y010328D02*
X013637Y010328D01*
X013555Y010328D02*
X012558Y010328D01*
X012617Y010270D02*
X013470Y010270D01*
X013386Y010211D02*
X012675Y010211D01*
X012734Y010153D02*
X013301Y010153D01*
X013217Y010094D02*
X012792Y010094D01*
X012851Y010036D02*
X013133Y010036D01*
X013048Y009977D02*
X012909Y009977D01*
X013771Y010270D02*
X015617Y010270D01*
X015471Y010211D02*
X013906Y010211D01*
X014040Y010153D02*
X015326Y010153D01*
X015181Y010094D02*
X014175Y010094D01*
X014279Y010036D02*
X015139Y010036D01*
X015130Y009977D02*
X014289Y009977D01*
X014299Y009919D02*
X015121Y009919D01*
X015111Y009860D02*
X014309Y009860D01*
X014319Y009802D02*
X015102Y009802D01*
X015093Y009743D02*
X014329Y009743D01*
X014339Y009685D02*
X015084Y009685D01*
X015075Y009626D02*
X014349Y009626D01*
X014359Y009568D02*
X015065Y009568D01*
X015056Y009509D02*
X014369Y009509D01*
X014379Y009451D02*
X015047Y009451D01*
X015038Y009392D02*
X014389Y009392D01*
X014399Y009334D02*
X015028Y009334D01*
X015940Y010270D02*
X016776Y010270D01*
X016717Y010211D02*
X016030Y010211D01*
X016120Y010153D02*
X016659Y010153D01*
X016600Y010094D02*
X016209Y010094D01*
X016299Y010036D02*
X016542Y010036D01*
X016483Y009977D02*
X016389Y009977D01*
D14*
X016436Y009890D02*
X016896Y010350D01*
X016456Y011010D01*
X016706Y011610D02*
X017486Y011760D01*
X017486Y012410D01*
X016706Y012560D01*
X016456Y013170D02*
X016906Y013830D01*
X016436Y014290D01*
X015796Y013850D01*
X015176Y014120D02*
X015026Y014880D01*
X014376Y014880D01*
X014236Y014130D01*
X013576Y013870D02*
X012956Y014290D01*
X012506Y013830D01*
X012916Y013230D01*
X012766Y012970D01*
X013906Y012490D01*
X013906Y011680D02*
X012766Y011210D01*
X012916Y010950D01*
X012506Y010350D01*
X012966Y009890D01*
X013586Y010310D01*
X014236Y010050D02*
X014376Y009300D01*
X015026Y009300D01*
X015176Y010060D01*
X015796Y010330D02*
X016436Y009890D01*
X013906Y011680D02*
X013934Y011628D01*
X013966Y011578D01*
X014001Y011531D01*
X014038Y011486D01*
X014079Y011443D01*
X014122Y011404D01*
X014168Y011367D01*
X014217Y011333D01*
X014267Y011303D01*
X014319Y011276D01*
X014374Y011253D01*
X014429Y011233D01*
X014486Y011217D01*
X014543Y011205D01*
X014601Y011197D01*
X014660Y011193D01*
X014719Y011192D01*
X014778Y011196D01*
X014836Y011203D01*
X014894Y011214D01*
X014951Y011229D01*
X015006Y011248D01*
X015061Y011271D01*
X015113Y011297D01*
X015164Y011326D01*
X015213Y011359D01*
X015260Y011395D01*
X015304Y011434D01*
X015345Y011476D01*
X015383Y011521D01*
X015419Y011568D01*
X015451Y011617D01*
X015480Y011668D01*
X015505Y011721D01*
X015527Y011776D01*
X015545Y011832D01*
X015559Y011889D01*
X015570Y011947D01*
X015576Y012005D01*
X015579Y012064D01*
X015578Y012123D01*
X015573Y012182D01*
X015564Y012240D01*
X015551Y012297D01*
X015534Y012353D01*
X015514Y012409D01*
X015490Y012462D01*
X015462Y012514D01*
X015431Y012564D01*
X015397Y012612D01*
X015359Y012658D01*
X015319Y012701D01*
X015276Y012741D01*
X015231Y012778D01*
X015183Y012812D01*
X015132Y012843D01*
X015080Y012870D01*
X015027Y012894D01*
X014971Y012914D01*
X014915Y012930D01*
X014857Y012943D01*
X014799Y012952D01*
X014741Y012957D01*
X014682Y012958D01*
X014623Y012955D01*
X014565Y012948D01*
X014507Y012937D01*
X014450Y012923D01*
X014394Y012905D01*
X014339Y012883D01*
X014286Y012857D01*
X014235Y012828D01*
X014186Y012796D01*
X014139Y012760D01*
X014095Y012722D01*
X014053Y012680D01*
X014014Y012636D01*
X013978Y012589D01*
X013946Y012541D01*
X013916Y012490D01*
X013576Y013870D02*
X013653Y013915D01*
X013732Y013956D01*
X013813Y013994D01*
X013895Y014029D01*
X013979Y014060D01*
X014064Y014087D01*
X014150Y014110D01*
X014236Y014130D01*
X015177Y014120D02*
X015258Y014098D01*
X015339Y014072D01*
X015419Y014043D01*
X015498Y014011D01*
X015575Y013975D01*
X015650Y013936D01*
X015724Y013895D01*
X015797Y013850D01*
X015796Y010330D02*
X015724Y010285D01*
X015650Y010244D01*
X015574Y010205D01*
X015497Y010170D01*
X015419Y010137D01*
X015339Y010108D01*
X015258Y010083D01*
X015176Y010060D01*
X014236Y010050D02*
X014151Y010071D01*
X014066Y010094D01*
X013982Y010122D01*
X013900Y010153D01*
X013819Y010187D01*
X013740Y010225D01*
X013662Y010266D01*
X013586Y010310D01*
X016456Y011010D02*
X016496Y011081D01*
X016533Y011153D01*
X016568Y011226D01*
X016599Y011301D01*
X016628Y011376D01*
X016654Y011453D01*
X016676Y011531D01*
X016696Y011610D01*
X016706Y012560D02*
X016686Y012640D01*
X016662Y012719D01*
X016635Y012798D01*
X016605Y012875D01*
X016573Y012951D01*
X016537Y013025D01*
X016498Y013098D01*
X016456Y013170D01*
M02*
