G75*
G70*
%OFA0B0*%
%FSLAX24Y24*%
%IPPOS*%
%LPD*%
%AMOC8*
5,1,8,0,0,1.08239X$1,22.5*
%
%ADD10R,0.0671X0.0671*%
%ADD11C,0.0671*%
%ADD12R,0.0430X0.0500*%
%ADD13C,0.0580*%
%ADD14R,0.0946X0.0316*%
%ADD15R,0.0500X0.0430*%
%ADD16R,0.0660X0.0220*%
%ADD17OC8,0.1085*%
%ADD18R,0.0820X0.0560*%
%ADD19R,0.0680X0.0460*%
%ADD20R,0.0220X0.0660*%
%ADD21R,0.0860X0.0300*%
%ADD22R,0.0460X0.0680*%
%ADD23OC8,0.0740*%
%ADD24R,0.0480X0.1280*%
%ADD25R,0.0552X0.0552*%
%ADD26R,0.0907X0.0631*%
%ADD27R,0.0710X0.0218*%
%ADD28R,0.0510X0.0870*%
%ADD29R,0.0631X0.0631*%
%ADD30R,0.0640X0.0250*%
%ADD31R,0.0700X0.0820*%
%ADD32C,0.0330*%
%ADD33R,0.0560X0.0820*%
%ADD34C,0.0456*%
D10*
X005946Y008000D03*
X019196Y003250D03*
X024946Y008000D03*
D11*
X024946Y009000D03*
X024946Y010000D03*
X024946Y011000D03*
X024946Y012000D03*
X024946Y013000D03*
X024946Y014000D03*
X024946Y015000D03*
X024946Y016000D03*
X024946Y017000D03*
X024946Y018000D03*
X024946Y019000D03*
X024946Y020000D03*
X024946Y021000D03*
X024946Y022000D03*
X024946Y023000D03*
X024946Y024000D03*
X024946Y025000D03*
X024946Y026000D03*
X024946Y027000D03*
X024946Y028000D03*
X024946Y029000D03*
X024946Y030000D03*
X023946Y030000D03*
X023946Y029000D03*
X023946Y028000D03*
X023946Y027000D03*
X023946Y026000D03*
X023946Y025000D03*
X023946Y024000D03*
X023946Y023000D03*
X023946Y022000D03*
X023946Y021000D03*
X023946Y020000D03*
X023946Y019000D03*
X023946Y018000D03*
X023946Y017000D03*
X023946Y016000D03*
X023946Y015000D03*
X023946Y014000D03*
X023946Y013000D03*
X023946Y012000D03*
X023946Y011000D03*
X023946Y010000D03*
X023946Y009000D03*
X023946Y008000D03*
X019196Y007250D03*
X019196Y006250D03*
X019196Y005250D03*
X019196Y004250D03*
X018196Y004250D03*
X018196Y003250D03*
X018196Y005250D03*
X018196Y006250D03*
X018196Y007250D03*
X005946Y009000D03*
X005946Y010000D03*
X005946Y011000D03*
X005946Y012000D03*
X005946Y013000D03*
X005946Y014000D03*
X005946Y015000D03*
X005946Y016000D03*
X005946Y017000D03*
X005946Y018000D03*
X005946Y019000D03*
X005946Y020000D03*
X005946Y021000D03*
X005946Y022000D03*
X005946Y023000D03*
X005946Y024000D03*
X005946Y025000D03*
X005946Y026000D03*
X005946Y027000D03*
X005946Y028000D03*
X005946Y029000D03*
X005946Y030000D03*
X004946Y030000D03*
X004946Y029000D03*
X004946Y028000D03*
X004946Y027000D03*
X004946Y026000D03*
X004946Y025000D03*
X004946Y024000D03*
X004946Y023000D03*
X004946Y022000D03*
X004946Y021000D03*
X004946Y020000D03*
X004946Y019000D03*
X004946Y018000D03*
X004946Y017000D03*
X004946Y016000D03*
X004946Y015000D03*
X004946Y014000D03*
X004946Y013000D03*
X004946Y012000D03*
X004946Y011000D03*
X004946Y010000D03*
X004946Y009000D03*
X004946Y008000D03*
D12*
X004956Y007000D03*
X005636Y007000D03*
X009156Y009100D03*
X009156Y009900D03*
X009836Y009900D03*
X009836Y009100D03*
X015756Y017800D03*
X016436Y017800D03*
X016356Y013250D03*
X017036Y013250D03*
X020356Y020500D03*
X021036Y020500D03*
X021036Y023200D03*
X020356Y023200D03*
X020436Y025200D03*
X021056Y025200D03*
X021056Y026100D03*
X020436Y026100D03*
X019756Y026100D03*
X019136Y026100D03*
X019136Y025200D03*
X019756Y025200D03*
X018456Y025200D03*
X018456Y026100D03*
X017436Y026100D03*
X017436Y025200D03*
X016756Y025200D03*
X016136Y025200D03*
X016136Y026100D03*
X016756Y026100D03*
X015536Y027300D03*
X015536Y028100D03*
X014856Y028100D03*
X014856Y027300D03*
X014836Y026100D03*
X015456Y026100D03*
X015456Y025200D03*
X014836Y025200D03*
X014156Y025200D03*
X013536Y025200D03*
X013536Y026100D03*
X014156Y026100D03*
X012856Y026100D03*
X012856Y025200D03*
X014856Y023400D03*
X015536Y023400D03*
X011186Y018000D03*
X010506Y018000D03*
X008786Y017900D03*
X008106Y017900D03*
X007436Y018500D03*
X006756Y018500D03*
X006756Y019600D03*
X007436Y019600D03*
X007436Y020700D03*
X006756Y020700D03*
X006756Y021800D03*
X007436Y021800D03*
X007436Y022900D03*
X006756Y022900D03*
X006756Y024000D03*
X007436Y024000D03*
X007436Y025100D03*
X006756Y025100D03*
X014856Y031100D03*
X014856Y032000D03*
X015536Y032000D03*
X015536Y031100D03*
X021736Y026100D03*
X022356Y026100D03*
X022356Y025200D03*
X021736Y025200D03*
X023036Y025200D03*
X023036Y026100D03*
X022436Y017200D03*
X021756Y017200D03*
X021856Y010150D03*
X022536Y010150D03*
D13*
X022696Y021650D03*
X023096Y024600D03*
X021796Y024600D03*
X020496Y024600D03*
X019196Y024600D03*
X017946Y027500D03*
X016796Y024600D03*
X015496Y024600D03*
X014196Y024600D03*
X012896Y024600D03*
X018246Y021350D03*
X007446Y008400D03*
X007446Y007200D03*
D14*
X008473Y010850D03*
X008473Y011350D03*
X008473Y011850D03*
X008473Y012350D03*
X010520Y012350D03*
X010520Y011850D03*
X010520Y011350D03*
X010520Y010850D03*
D15*
X010596Y013860D03*
X010596Y014540D03*
X009796Y014540D03*
X009796Y013860D03*
X008996Y013860D03*
X008996Y014540D03*
X008196Y014540D03*
X008196Y013860D03*
X007396Y013860D03*
X007396Y014540D03*
X007496Y011540D03*
X007496Y010860D03*
X011396Y013860D03*
X011396Y014540D03*
X015696Y018560D03*
X015696Y019240D03*
X016496Y019240D03*
X016496Y018560D03*
X016496Y016840D03*
X016496Y016160D03*
X017996Y012540D03*
X017996Y011860D03*
X021696Y015760D03*
X021696Y016440D03*
X022496Y016440D03*
X022496Y015760D03*
X021696Y018160D03*
X021696Y018840D03*
X022296Y023060D03*
X022296Y023740D03*
X023096Y023740D03*
X023096Y023060D03*
X021896Y027360D03*
X021896Y028040D03*
X021096Y028240D03*
X021096Y027560D03*
X020296Y027560D03*
X020296Y028240D03*
X019396Y028090D03*
X019396Y027410D03*
X018696Y028560D03*
X018696Y029240D03*
X018696Y029960D03*
X018696Y030640D03*
X019496Y030960D03*
X019496Y031640D03*
X020296Y031640D03*
X020296Y030960D03*
X021096Y030960D03*
X021096Y031640D03*
X021896Y031640D03*
X021896Y030960D03*
X022696Y030640D03*
X022696Y029960D03*
X022696Y029240D03*
X022696Y028560D03*
X018796Y023740D03*
X018796Y023060D03*
X017996Y023060D03*
X017996Y023740D03*
X017096Y022540D03*
X017096Y021860D03*
X016296Y027560D03*
X016296Y028240D03*
X017196Y028560D03*
X017196Y029240D03*
X017196Y029960D03*
X017196Y030640D03*
X016296Y030960D03*
X016296Y031640D03*
X014096Y031640D03*
X014096Y030960D03*
X013196Y030640D03*
X013196Y029960D03*
X013196Y029240D03*
X013196Y028560D03*
X014096Y028240D03*
X014096Y027560D03*
X011221Y025890D03*
X011221Y025210D03*
X011496Y021640D03*
X011496Y020960D03*
X007296Y025960D03*
X007296Y026640D03*
X007746Y031110D03*
X007746Y031790D03*
X006746Y031790D03*
X006746Y031110D03*
X005746Y031110D03*
X005746Y031790D03*
X004746Y031790D03*
X004746Y031110D03*
X008746Y031110D03*
X008746Y031790D03*
X009746Y031790D03*
X009746Y031110D03*
X025096Y005140D03*
X025096Y004460D03*
D16*
X010306Y024300D03*
X010306Y024560D03*
X010306Y024820D03*
X010306Y025070D03*
X010306Y025330D03*
X010306Y025580D03*
X010306Y025840D03*
X010306Y026100D03*
X008086Y026100D03*
X008086Y025840D03*
X008086Y025580D03*
X008086Y025330D03*
X008086Y025070D03*
X008086Y024820D03*
X008086Y024560D03*
X008086Y024300D03*
D17*
X004946Y003500D03*
X009696Y003500D03*
X023496Y032700D03*
X013496Y033800D03*
X011896Y033800D03*
D18*
X013196Y022550D03*
X013196Y021250D03*
X017296Y019450D03*
X017296Y018150D03*
X017296Y016750D03*
X017296Y015450D03*
X017146Y012500D03*
X017146Y011200D03*
X020896Y015550D03*
X020896Y016850D03*
X020896Y018250D03*
X020896Y019550D03*
D19*
X016246Y012260D03*
X016246Y011440D03*
X011496Y019490D03*
X011496Y020310D03*
X011696Y023440D03*
X011696Y024260D03*
X011921Y025240D03*
X011921Y026060D03*
D20*
X010806Y021450D03*
X010546Y021450D03*
X010296Y021450D03*
X010036Y021450D03*
X009776Y021450D03*
X009526Y021450D03*
X009266Y021450D03*
X009016Y021450D03*
X008756Y021450D03*
X008496Y021450D03*
X008246Y021450D03*
X007986Y021450D03*
X007986Y019150D03*
X008246Y019150D03*
X008496Y019150D03*
X008756Y019150D03*
X009016Y019150D03*
X009266Y019150D03*
X009526Y019150D03*
X009776Y019150D03*
X010036Y019150D03*
X010296Y019150D03*
X010546Y019150D03*
X010806Y019150D03*
D21*
X014226Y021150D03*
X014226Y021650D03*
X014226Y022150D03*
X014226Y022650D03*
X016166Y022650D03*
X016166Y022150D03*
X016166Y021650D03*
X016166Y021150D03*
X019676Y021100D03*
X019676Y021600D03*
X019676Y022100D03*
X019676Y022600D03*
X021616Y022600D03*
X021616Y022100D03*
X021616Y021600D03*
X021616Y021100D03*
D22*
X021286Y013800D03*
X022106Y013800D03*
X011356Y017300D03*
X010536Y017300D03*
X008806Y017200D03*
X007986Y017200D03*
D23*
X007746Y032900D03*
X007746Y033900D03*
X006746Y033900D03*
X006746Y032900D03*
X005746Y032900D03*
X005746Y033900D03*
X004746Y033900D03*
X004746Y032900D03*
X008746Y032900D03*
X008746Y033900D03*
X009746Y033900D03*
X009746Y032900D03*
X015896Y032900D03*
X015896Y033900D03*
X016896Y033900D03*
X016896Y032900D03*
X017896Y032900D03*
X017896Y033900D03*
X018896Y033900D03*
X018896Y032900D03*
X019896Y032900D03*
X019896Y033900D03*
D24*
X014696Y020100D03*
X013696Y018000D03*
X012696Y020100D03*
D25*
X021733Y001100D03*
X022560Y001100D03*
D26*
X009088Y004414D03*
X009088Y006186D03*
X005505Y006186D03*
X005505Y004414D03*
D27*
X014094Y028832D03*
X014094Y029088D03*
X014094Y029344D03*
X014094Y029600D03*
X014094Y029856D03*
X014094Y030112D03*
X014094Y030368D03*
X016299Y030368D03*
X016299Y030112D03*
X016299Y029856D03*
X016299Y029600D03*
X016299Y029344D03*
X016299Y029088D03*
X016299Y028832D03*
X019594Y028832D03*
X019594Y029088D03*
X019594Y029344D03*
X019594Y029600D03*
X019594Y029856D03*
X019594Y030112D03*
X019594Y030368D03*
X021799Y030368D03*
X021799Y030112D03*
X021799Y029856D03*
X021799Y029600D03*
X021799Y029344D03*
X021799Y029088D03*
X021799Y028832D03*
D28*
X014096Y014320D03*
X013096Y014320D03*
X013096Y010780D03*
X014096Y010780D03*
D29*
X011796Y010300D03*
D30*
X018236Y015720D03*
X018236Y015970D03*
X018236Y016230D03*
X018236Y016480D03*
X018236Y018520D03*
X018236Y018770D03*
X018236Y019030D03*
X018236Y019280D03*
X019956Y019280D03*
X019956Y019030D03*
X019956Y018770D03*
X019956Y018520D03*
X019956Y016480D03*
X019956Y016230D03*
X019956Y015970D03*
X019956Y015720D03*
D31*
X019096Y016100D03*
X019096Y018900D03*
D32*
X018846Y012900D03*
X018846Y012400D03*
X018846Y011900D03*
X018846Y011400D03*
X018846Y010900D03*
X019346Y010900D03*
X019346Y011400D03*
X019346Y011900D03*
X019346Y012400D03*
X019346Y012900D03*
X019846Y012900D03*
X019846Y012400D03*
X019846Y011900D03*
X019846Y011400D03*
X019846Y010900D03*
X020346Y010900D03*
X020346Y011400D03*
X020346Y011900D03*
X020346Y012400D03*
X020346Y012900D03*
X020846Y012900D03*
X020846Y012400D03*
X020846Y011900D03*
X020846Y011400D03*
X020846Y010900D03*
X021346Y010900D03*
X021346Y011400D03*
X021346Y011900D03*
X021346Y012400D03*
X021346Y012900D03*
X021846Y012900D03*
X021846Y012400D03*
X021846Y011900D03*
X021846Y011400D03*
X021846Y010900D03*
X022346Y010900D03*
X022346Y011400D03*
X022346Y011900D03*
X022346Y012400D03*
X022346Y012900D03*
D33*
X022596Y009350D03*
X021296Y009350D03*
X014246Y009350D03*
X012946Y009350D03*
D34*
X012346Y009350D03*
X014846Y009350D03*
X017996Y031700D03*
X020196Y032200D03*
X021146Y032200D03*
M02*
