G75*
G70*
%OFA0B0*%
%FSLAX24Y24*%
%IPPOS*%
%LPD*%
%AMOC8*
5,1,8,0,0,1.08239X$1,22.5*
%
%ADD10R,0.0591X0.0591*%
%ADD11C,0.0591*%
%ADD12R,0.0433X0.0394*%
%ADD13R,0.0394X0.0433*%
%ADD14C,0.0500*%
%ADD15R,0.0630X0.0460*%
%ADD16R,0.0866X0.0236*%
%ADD17R,0.0140X0.0580*%
%ADD18OC8,0.1005*%
%ADD19R,0.0520X0.0220*%
%ADD20C,0.0540*%
%ADD21R,0.0790X0.0430*%
%ADD22R,0.0512X0.0591*%
%ADD23R,0.0580X0.0140*%
%ADD24R,0.0500X0.0220*%
%ADD25R,0.0780X0.0220*%
%ADD26R,0.0591X0.0512*%
%ADD27R,0.0709X0.0630*%
%ADD28OC8,0.0600*%
%ADD29R,0.1100X0.0400*%
%ADD30R,0.0472X0.0472*%
%ADD31C,0.0600*%
%ADD32R,0.0827X0.0551*%
%ADD33R,0.0460X0.0630*%
%ADD34C,0.0060*%
%ADD35C,0.0290*%
%ADD36C,0.0320*%
%ADD37C,0.0160*%
%ADD38C,0.0240*%
%ADD39C,0.0100*%
%ADD40C,0.0120*%
%ADD41C,0.0337*%
%ADD42C,0.0416*%
%ADD43C,0.0500*%
%ADD44C,0.0376*%
D10*
X002250Y008000D03*
X015500Y003250D03*
X021250Y008000D03*
D11*
X021250Y009000D03*
X021250Y010000D03*
X021250Y011000D03*
X021250Y012000D03*
X021250Y013000D03*
X021250Y014000D03*
X021250Y015000D03*
X021250Y016000D03*
X021250Y017000D03*
X021250Y018000D03*
X021250Y019000D03*
X021250Y020000D03*
X021250Y021000D03*
X021250Y022000D03*
X021250Y023000D03*
X021250Y024000D03*
X021250Y025000D03*
X021250Y026000D03*
X021250Y027000D03*
X021250Y028000D03*
X021250Y029000D03*
X021250Y030000D03*
X020250Y030000D03*
X020250Y029000D03*
X020250Y028000D03*
X020250Y027000D03*
X020250Y026000D03*
X020250Y025000D03*
X020250Y024000D03*
X020250Y023000D03*
X020250Y022000D03*
X020250Y021000D03*
X020250Y020000D03*
X020250Y019000D03*
X020250Y018000D03*
X020250Y017000D03*
X020250Y016000D03*
X020250Y015000D03*
X020250Y014000D03*
X020250Y013000D03*
X020250Y012000D03*
X020250Y011000D03*
X020250Y010000D03*
X020250Y009000D03*
X020250Y008000D03*
X020300Y006950D03*
X018000Y007050D03*
X015500Y007250D03*
X015500Y006250D03*
X015500Y005250D03*
X015500Y004250D03*
X014500Y004250D03*
X014500Y003250D03*
X014500Y005250D03*
X014500Y006250D03*
X014500Y007250D03*
X002250Y009000D03*
X002250Y010000D03*
X002250Y011000D03*
X002250Y012000D03*
X002250Y013000D03*
X002250Y014000D03*
X002250Y015000D03*
X002250Y016000D03*
X002250Y017000D03*
X002250Y018000D03*
X002250Y019000D03*
X002250Y020000D03*
X002250Y021000D03*
X002250Y022000D03*
X002250Y023000D03*
X002250Y024000D03*
X002250Y025000D03*
X002250Y026000D03*
X002250Y027000D03*
X002250Y028000D03*
X002250Y029000D03*
X002250Y030000D03*
X001250Y030000D03*
X001250Y029000D03*
X001250Y028000D03*
X001250Y027000D03*
X001250Y026000D03*
X001250Y025000D03*
X001250Y024000D03*
X001250Y023000D03*
X001250Y022000D03*
X001250Y021000D03*
X001250Y020000D03*
X001250Y019000D03*
X001250Y018000D03*
X001250Y017000D03*
X001250Y016000D03*
X001250Y015000D03*
X001250Y014000D03*
X001250Y013000D03*
X001250Y012000D03*
X001250Y011000D03*
X001250Y010000D03*
X001250Y009000D03*
X001250Y008000D03*
D12*
X004815Y019100D03*
X004800Y019815D03*
X004800Y020485D03*
X005485Y019100D03*
X004750Y022215D03*
X004750Y022885D03*
X004785Y024050D03*
X004115Y024050D03*
X005765Y022900D03*
X006435Y022900D03*
X008165Y024050D03*
X008835Y024050D03*
X008800Y022885D03*
X008800Y022215D03*
X009865Y022900D03*
X010535Y022900D03*
X012850Y025865D03*
X012850Y026535D03*
X012885Y027700D03*
X012215Y027700D03*
X013865Y026600D03*
X014535Y026600D03*
X014235Y024700D03*
X013565Y024700D03*
X015900Y021935D03*
X015900Y021265D03*
X015800Y020185D03*
X015800Y019515D03*
X017265Y017600D03*
X017935Y017600D03*
X018150Y016085D03*
X018150Y015415D03*
X018285Y019700D03*
X017615Y019700D03*
X017615Y021800D03*
X018285Y021800D03*
X018285Y024700D03*
X017615Y024700D03*
X016900Y025765D03*
X016900Y026435D03*
X016935Y027600D03*
X016265Y027600D03*
X017915Y026600D03*
X018585Y026600D03*
X016935Y031350D03*
X016265Y031350D03*
X012885Y031350D03*
X012215Y031350D03*
X008835Y027700D03*
X008165Y027700D03*
X004785Y027700D03*
X004115Y027700D03*
X009765Y018700D03*
X010435Y018700D03*
X011015Y018700D03*
X011685Y018700D03*
X012500Y018685D03*
X012500Y018015D03*
X013350Y018015D03*
X013350Y018685D03*
X014065Y017300D03*
X014735Y017300D03*
X013000Y015535D03*
X013000Y014865D03*
X012200Y014865D03*
X012200Y015535D03*
X010085Y014900D03*
X009415Y014900D03*
D13*
X008535Y011600D03*
X007865Y011600D03*
X007865Y010550D03*
X008535Y010550D03*
X008535Y009600D03*
X007865Y009600D03*
X006885Y009500D03*
X006215Y009500D03*
X005135Y007450D03*
X004465Y007450D03*
X003550Y010365D03*
X003550Y011035D03*
X005165Y012700D03*
X005835Y012700D03*
X005985Y014850D03*
X005315Y014850D03*
X005765Y022050D03*
X006435Y022050D03*
X007950Y022215D03*
X007950Y022885D03*
X009865Y022050D03*
X010535Y022050D03*
X011050Y023915D03*
X011050Y024585D03*
X009950Y024365D03*
X009950Y025035D03*
X009285Y026150D03*
X008615Y026150D03*
X008035Y026150D03*
X007365Y026150D03*
X005900Y025035D03*
X005900Y024365D03*
X005235Y026150D03*
X004565Y026150D03*
X003985Y026150D03*
X003315Y026150D03*
X003900Y022885D03*
X003900Y022215D03*
X005900Y028015D03*
X005900Y028685D03*
X005235Y029800D03*
X004565Y029800D03*
X003985Y029800D03*
X003315Y029800D03*
X007365Y029800D03*
X008035Y029800D03*
X008615Y029800D03*
X009285Y029800D03*
X009950Y028685D03*
X009950Y028015D03*
X011415Y029800D03*
X012085Y029800D03*
X012665Y029800D03*
X013335Y029800D03*
X014000Y028685D03*
X014000Y028015D03*
X013865Y025750D03*
X014535Y025750D03*
X015800Y023885D03*
X015800Y023215D03*
X016750Y021935D03*
X016750Y021265D03*
X017615Y020900D03*
X018285Y020900D03*
X018950Y020815D03*
X018950Y021485D03*
X018585Y025750D03*
X017915Y025750D03*
X018050Y028015D03*
X018050Y028685D03*
X017385Y029800D03*
X016715Y029800D03*
X016135Y029800D03*
X015465Y029800D03*
X014000Y031665D03*
X014000Y032335D03*
X013335Y033450D03*
X012665Y033450D03*
X012085Y033450D03*
X011415Y033450D03*
X015465Y033450D03*
X016135Y033450D03*
X016715Y033450D03*
X017385Y033450D03*
X018050Y032335D03*
X018050Y031665D03*
X016050Y026435D03*
X016050Y025765D03*
X012000Y025865D03*
X012000Y026535D03*
X015800Y018735D03*
X015800Y018065D03*
X015185Y015000D03*
X014515Y015000D03*
D14*
X012950Y016950D03*
X015150Y021900D03*
X011900Y024550D03*
X009800Y026550D03*
X010050Y029950D03*
X013850Y030200D03*
X014000Y033450D03*
X017900Y030200D03*
X018100Y033450D03*
X019200Y019950D03*
X018650Y012000D03*
X018050Y006300D03*
X018050Y004700D03*
X005750Y026550D03*
X005950Y029850D03*
D15*
X008500Y016950D03*
X008500Y016350D03*
D16*
X006574Y011850D03*
X006574Y011350D03*
X006574Y010850D03*
X006574Y010350D03*
X004526Y010350D03*
X004526Y010850D03*
X004526Y011350D03*
X004526Y011850D03*
D17*
X009750Y015690D03*
X010010Y015690D03*
X010270Y015690D03*
X010520Y015690D03*
X010780Y015690D03*
X011030Y015690D03*
X011290Y015690D03*
X011550Y015690D03*
X011550Y017910D03*
X011290Y017910D03*
X011030Y017910D03*
X010780Y017910D03*
X010520Y017910D03*
X010270Y017910D03*
X010010Y017910D03*
X009750Y017910D03*
D18*
X002150Y031500D03*
X003300Y032800D03*
X020400Y031500D03*
X019150Y001600D03*
X017000Y001600D03*
D19*
X015100Y018030D03*
X015100Y018400D03*
X015100Y018770D03*
X014100Y018770D03*
X014100Y018030D03*
X017290Y018280D03*
X017290Y019020D03*
X018310Y019020D03*
X018310Y018650D03*
X018310Y018280D03*
D20*
X017600Y011870D02*
X017600Y011330D01*
X017600Y010520D02*
X017600Y009980D01*
X016600Y009980D02*
X016600Y010520D01*
X016600Y011330D02*
X016600Y011870D01*
X015600Y011870D02*
X015600Y011330D01*
X015600Y010520D02*
X015600Y009980D01*
X005300Y008820D02*
X005300Y008280D01*
X004300Y008280D02*
X004300Y008820D01*
D21*
X009330Y010150D03*
X009330Y011150D03*
X009330Y012150D03*
X012870Y012150D03*
X012870Y011150D03*
X012870Y010150D03*
D22*
X010474Y019500D03*
X009726Y019500D03*
D23*
X006350Y018460D03*
X006350Y018200D03*
X006350Y017950D03*
X006350Y017690D03*
X006350Y017430D03*
X006350Y017180D03*
X006350Y016920D03*
X006350Y016670D03*
X006350Y016410D03*
X006350Y016150D03*
X006350Y015900D03*
X006350Y015640D03*
X004050Y015640D03*
X004050Y015900D03*
X004050Y016150D03*
X004050Y016410D03*
X004050Y016670D03*
X004050Y016920D03*
X004050Y017180D03*
X004050Y017430D03*
X004050Y017690D03*
X004050Y017950D03*
X004050Y018200D03*
X004050Y018460D03*
D24*
X004090Y024730D03*
X004090Y025470D03*
X005110Y025470D03*
X005110Y025100D03*
X005110Y024730D03*
X005110Y028380D03*
X005110Y028750D03*
X005110Y029120D03*
X004090Y029120D03*
X004090Y028380D03*
X008140Y028380D03*
X008140Y029120D03*
X009160Y029120D03*
X009160Y028750D03*
X009160Y028380D03*
X009160Y025470D03*
X009160Y025100D03*
X009160Y024730D03*
X008140Y024730D03*
X008140Y025470D03*
X012190Y028380D03*
X012190Y029120D03*
X013210Y029120D03*
X013210Y028750D03*
X013210Y028380D03*
X013210Y032030D03*
X013210Y032400D03*
X013210Y032770D03*
X012190Y032770D03*
X012190Y032030D03*
X016240Y032030D03*
X016240Y032770D03*
X017260Y032770D03*
X017260Y032400D03*
X017260Y032030D03*
X017260Y029120D03*
X017260Y028750D03*
X017260Y028380D03*
X016240Y028380D03*
X016240Y029120D03*
D25*
X016980Y024000D03*
X016980Y023500D03*
X016980Y023000D03*
X016980Y022500D03*
X018920Y022500D03*
X018920Y023000D03*
X018920Y023500D03*
X018920Y024000D03*
X014870Y024000D03*
X014870Y023500D03*
X014870Y023000D03*
X014870Y022500D03*
X012930Y022500D03*
X012930Y023000D03*
X012930Y023500D03*
X012930Y024000D03*
X015880Y014450D03*
X015880Y013950D03*
X015880Y013450D03*
X015880Y012950D03*
X017820Y012950D03*
X017820Y013450D03*
X017820Y013950D03*
X017820Y014450D03*
D26*
X007300Y015426D03*
X007300Y016174D03*
X007300Y017026D03*
X007300Y017774D03*
D27*
X011900Y022699D03*
X011900Y023801D03*
X014650Y014001D03*
X014650Y012899D03*
X019050Y012899D03*
X019050Y014001D03*
D28*
X009900Y031100D03*
X009900Y032100D03*
X008900Y032100D03*
X008900Y031100D03*
X007900Y031100D03*
X007900Y032100D03*
X006900Y032100D03*
X006900Y031100D03*
X005900Y031100D03*
X005900Y032100D03*
D29*
X012550Y021600D03*
X012550Y019600D03*
X014550Y020600D03*
D30*
X016600Y020263D03*
X016600Y019437D03*
X019000Y016163D03*
X019000Y015337D03*
D31*
X016900Y016050D03*
X015900Y016050D03*
X014900Y016050D03*
D32*
X001809Y003914D03*
X001809Y005686D03*
X005391Y005686D03*
X005391Y003914D03*
D33*
X019000Y006950D03*
X019600Y006950D03*
D34*
X019400Y012550D02*
X018600Y012550D01*
X018200Y012850D01*
X018000Y012850D01*
X018000Y013050D01*
X018200Y013050D01*
X018500Y013250D01*
X019400Y013250D01*
X019400Y012550D01*
X019400Y012551D02*
X018599Y012551D01*
X018521Y012610D02*
X019400Y012610D01*
X019400Y012668D02*
X018443Y012668D01*
X018365Y012727D02*
X019400Y012727D01*
X019400Y012785D02*
X018287Y012785D01*
X018209Y012844D02*
X019400Y012844D01*
X019400Y012902D02*
X018000Y012902D01*
X018000Y012961D02*
X019400Y012961D01*
X019400Y013019D02*
X018000Y013019D01*
X018241Y013078D02*
X019400Y013078D01*
X019400Y013136D02*
X018329Y013136D01*
X018417Y013195D02*
X019400Y013195D01*
X017500Y017350D02*
X017000Y017350D01*
X017000Y017800D01*
X017050Y018050D01*
X017050Y018400D01*
X017350Y018400D01*
X017350Y018050D01*
X017500Y017800D01*
X017500Y017350D01*
X017500Y017407D02*
X017000Y017407D01*
X017000Y017465D02*
X017500Y017465D01*
X017500Y017524D02*
X017000Y017524D01*
X017000Y017582D02*
X017500Y017582D01*
X017500Y017641D02*
X017000Y017641D01*
X017000Y017699D02*
X017500Y017699D01*
X017500Y017758D02*
X017000Y017758D01*
X017003Y017816D02*
X017490Y017816D01*
X017455Y017875D02*
X017015Y017875D01*
X017027Y017933D02*
X017420Y017933D01*
X017385Y017992D02*
X017038Y017992D01*
X017050Y018050D02*
X017350Y018050D01*
X017350Y018109D02*
X017050Y018109D01*
X017050Y018167D02*
X017350Y018167D01*
X017350Y018226D02*
X017050Y018226D01*
X017050Y018284D02*
X017350Y018284D01*
X017350Y018343D02*
X017050Y018343D01*
X018200Y019200D02*
X018050Y019500D01*
X018050Y019900D01*
X018500Y019900D01*
X018500Y019500D01*
X018400Y019200D01*
X018400Y018950D01*
X018200Y018950D01*
X018200Y019200D01*
X018190Y019220D02*
X018407Y019220D01*
X018400Y019162D02*
X018200Y019162D01*
X018200Y019103D02*
X018400Y019103D01*
X018400Y019045D02*
X018200Y019045D01*
X018200Y018986D02*
X018400Y018986D01*
X018426Y019279D02*
X018161Y019279D01*
X018131Y019337D02*
X018446Y019337D01*
X018465Y019396D02*
X018102Y019396D01*
X018073Y019454D02*
X018485Y019454D01*
X018500Y019513D02*
X018050Y019513D01*
X018050Y019571D02*
X018500Y019571D01*
X018500Y019630D02*
X018050Y019630D01*
X018050Y019688D02*
X018500Y019688D01*
X018500Y019747D02*
X018050Y019747D01*
X018050Y019805D02*
X018500Y019805D01*
X018500Y019864D02*
X018050Y019864D01*
X015000Y014350D02*
X015350Y014050D01*
X015600Y014050D01*
X015600Y013850D01*
X015350Y013850D01*
X015000Y013650D01*
X014200Y013650D01*
X014200Y014350D01*
X015000Y014350D01*
X015051Y014306D02*
X014200Y014306D01*
X014200Y014248D02*
X015120Y014248D01*
X015188Y014189D02*
X014200Y014189D01*
X014200Y014131D02*
X015256Y014131D01*
X015324Y014072D02*
X014200Y014072D01*
X014200Y014014D02*
X015600Y014014D01*
X015600Y013955D02*
X014200Y013955D01*
X014200Y013897D02*
X015600Y013897D01*
X015329Y013838D02*
X014200Y013838D01*
X014200Y013780D02*
X015227Y013780D01*
X015124Y013721D02*
X014200Y013721D01*
X014200Y013663D02*
X015022Y013663D01*
X015000Y013250D02*
X015350Y013050D01*
X015600Y013050D01*
X015600Y012850D01*
X015350Y012850D01*
X015000Y012550D01*
X014200Y012550D01*
X014200Y013250D01*
X015000Y013250D01*
X015097Y013195D02*
X014200Y013195D01*
X014200Y013136D02*
X015199Y013136D01*
X015302Y013078D02*
X014200Y013078D01*
X014200Y013019D02*
X015600Y013019D01*
X015600Y012961D02*
X014200Y012961D01*
X014200Y012902D02*
X015600Y012902D01*
X015342Y012844D02*
X014200Y012844D01*
X014200Y012785D02*
X015274Y012785D01*
X015206Y012727D02*
X014200Y012727D01*
X014200Y012668D02*
X015138Y012668D01*
X015069Y012610D02*
X014200Y012610D01*
X014200Y012551D02*
X015001Y012551D01*
X014300Y017100D02*
X013850Y017100D01*
X013850Y017500D01*
X013950Y017800D01*
X013950Y018050D01*
X014200Y018050D01*
X014200Y017800D01*
X014300Y017500D01*
X014300Y017100D01*
X014300Y017114D02*
X013850Y017114D01*
X013850Y017173D02*
X014300Y017173D01*
X014300Y017231D02*
X013850Y017231D01*
X013850Y017290D02*
X014300Y017290D01*
X014300Y017348D02*
X013850Y017348D01*
X013850Y017407D02*
X014300Y017407D01*
X014300Y017465D02*
X013850Y017465D01*
X013858Y017524D02*
X014292Y017524D01*
X014273Y017582D02*
X013877Y017582D01*
X013897Y017641D02*
X014253Y017641D01*
X014234Y017699D02*
X013916Y017699D01*
X013936Y017758D02*
X014214Y017758D01*
X014200Y017816D02*
X013950Y017816D01*
X013950Y017875D02*
X014200Y017875D01*
X014200Y017933D02*
X013950Y017933D01*
X013950Y017992D02*
X014200Y017992D01*
X011900Y018500D02*
X011600Y018200D01*
X011600Y017950D01*
X011500Y017950D01*
X011500Y018100D01*
X011450Y018500D01*
X011450Y018900D01*
X011900Y018900D01*
X011900Y018500D01*
X011900Y018518D02*
X011450Y018518D01*
X011450Y018577D02*
X011900Y018577D01*
X011900Y018635D02*
X011450Y018635D01*
X011450Y018694D02*
X011900Y018694D01*
X011900Y018752D02*
X011450Y018752D01*
X011450Y018811D02*
X011900Y018811D01*
X011900Y018869D02*
X011450Y018869D01*
X011200Y018869D02*
X010800Y018869D01*
X010800Y018900D02*
X011200Y018900D01*
X011200Y018500D01*
X010850Y018250D01*
X010850Y017900D01*
X010750Y017900D01*
X010750Y018250D01*
X010800Y018500D01*
X010800Y018900D01*
X010800Y018811D02*
X011200Y018811D01*
X011200Y018752D02*
X010800Y018752D01*
X010800Y018694D02*
X011200Y018694D01*
X011200Y018635D02*
X010800Y018635D01*
X010800Y018577D02*
X011200Y018577D01*
X011200Y018518D02*
X010800Y018518D01*
X010792Y018460D02*
X011143Y018460D01*
X011062Y018401D02*
X010780Y018401D01*
X010769Y018343D02*
X010980Y018343D01*
X010898Y018284D02*
X010757Y018284D01*
X010750Y018226D02*
X010850Y018226D01*
X010850Y018167D02*
X010750Y018167D01*
X010750Y018109D02*
X010850Y018109D01*
X010850Y018050D02*
X010750Y018050D01*
X010750Y017992D02*
X010850Y017992D01*
X010850Y017933D02*
X010750Y017933D01*
X010550Y017933D02*
X010485Y017933D01*
X010492Y017875D02*
X010550Y017875D01*
X010550Y017816D02*
X010498Y017816D01*
X010500Y017800D02*
X010450Y018250D01*
X010250Y018500D01*
X010250Y018900D01*
X010600Y018900D01*
X010550Y018250D01*
X010550Y017800D01*
X010500Y017800D01*
X010479Y017992D02*
X010550Y017992D01*
X010550Y018050D02*
X010472Y018050D01*
X010466Y018109D02*
X010550Y018109D01*
X010550Y018167D02*
X010459Y018167D01*
X010453Y018226D02*
X010550Y018226D01*
X010553Y018284D02*
X010423Y018284D01*
X010376Y018343D02*
X010557Y018343D01*
X010562Y018401D02*
X010329Y018401D01*
X010282Y018460D02*
X010566Y018460D01*
X010571Y018518D02*
X010250Y018518D01*
X010250Y018577D02*
X010575Y018577D01*
X010580Y018635D02*
X010250Y018635D01*
X010250Y018694D02*
X010584Y018694D01*
X010589Y018752D02*
X010250Y018752D01*
X010250Y018811D02*
X010593Y018811D01*
X010598Y018869D02*
X010250Y018869D01*
X011455Y018460D02*
X011860Y018460D01*
X011801Y018401D02*
X011462Y018401D01*
X011470Y018343D02*
X011743Y018343D01*
X011684Y018284D02*
X011477Y018284D01*
X011484Y018226D02*
X011626Y018226D01*
X011600Y018167D02*
X011492Y018167D01*
X011499Y018109D02*
X011600Y018109D01*
X011600Y018050D02*
X011500Y018050D01*
X011500Y017992D02*
X011600Y017992D01*
X010250Y015800D02*
X010350Y015400D01*
X010250Y015100D01*
X010250Y014700D01*
X009900Y014700D01*
X009900Y015100D01*
X010110Y015310D01*
X010117Y015310D01*
X010170Y015363D01*
X010170Y015370D01*
X010200Y015400D01*
X010250Y015800D01*
X010246Y015769D02*
X010258Y015769D01*
X010272Y015710D02*
X010239Y015710D01*
X010231Y015652D02*
X010287Y015652D01*
X010302Y015593D02*
X010224Y015593D01*
X010217Y015535D02*
X010316Y015535D01*
X010331Y015476D02*
X010210Y015476D01*
X010202Y015418D02*
X010346Y015418D01*
X010336Y015359D02*
X010166Y015359D01*
X010101Y015301D02*
X010317Y015301D01*
X010297Y015242D02*
X010042Y015242D01*
X009984Y015184D02*
X010278Y015184D01*
X010258Y015125D02*
X009925Y015125D01*
X009900Y015067D02*
X010250Y015067D01*
X010250Y015008D02*
X009900Y015008D01*
X009900Y014950D02*
X010250Y014950D01*
X010250Y014891D02*
X009900Y014891D01*
X009900Y014833D02*
X010250Y014833D01*
X010250Y014774D02*
X009900Y014774D01*
X009900Y014716D02*
X010250Y014716D01*
X007600Y015150D02*
X007000Y015150D01*
X006730Y015690D01*
X006730Y015747D01*
X006677Y015800D01*
X006675Y015800D01*
X006650Y015850D01*
X006100Y015850D01*
X006100Y015950D01*
X006650Y015950D01*
X007000Y015700D01*
X007600Y015700D01*
X007600Y015150D01*
X007600Y015184D02*
X006983Y015184D01*
X006954Y015242D02*
X007600Y015242D01*
X007600Y015301D02*
X006925Y015301D01*
X006895Y015359D02*
X007600Y015359D01*
X007600Y015418D02*
X006866Y015418D01*
X006837Y015476D02*
X007600Y015476D01*
X007600Y015535D02*
X006808Y015535D01*
X006778Y015593D02*
X007600Y015593D01*
X007600Y015652D02*
X006749Y015652D01*
X006730Y015710D02*
X006986Y015710D01*
X006904Y015769D02*
X006709Y015769D01*
X006661Y015827D02*
X006822Y015827D01*
X006740Y015886D02*
X006100Y015886D01*
X006100Y015944D02*
X006658Y015944D01*
X006899Y016061D02*
X007600Y016061D01*
X007600Y016003D02*
X006936Y016003D01*
X006972Y015944D02*
X007600Y015944D01*
X007600Y015900D02*
X007000Y015900D01*
X006750Y016300D01*
X006682Y016305D01*
X006677Y016310D01*
X006620Y016310D01*
X006100Y016350D01*
X006100Y016450D01*
X007600Y016450D01*
X007600Y015900D01*
X007600Y016120D02*
X006863Y016120D01*
X006826Y016178D02*
X007600Y016178D01*
X007600Y016237D02*
X006790Y016237D01*
X006753Y016295D02*
X007600Y016295D01*
X007600Y016354D02*
X006100Y016354D01*
X006100Y016412D02*
X007600Y016412D01*
X007600Y016750D02*
X007000Y016750D01*
X006800Y016650D01*
X006100Y016650D01*
X006100Y016750D01*
X006700Y016750D01*
X007000Y017300D01*
X007600Y017300D01*
X007600Y016750D01*
X007600Y016763D02*
X006707Y016763D01*
X006739Y016822D02*
X007600Y016822D01*
X007600Y016880D02*
X006771Y016880D01*
X006803Y016939D02*
X007600Y016939D01*
X007600Y016997D02*
X006835Y016997D01*
X006867Y017056D02*
X007600Y017056D01*
X007600Y017114D02*
X006899Y017114D01*
X006930Y017173D02*
X007600Y017173D01*
X007600Y017231D02*
X006962Y017231D01*
X006994Y017290D02*
X007600Y017290D01*
X007600Y017500D02*
X007000Y017500D01*
X006650Y017350D01*
X006100Y017350D01*
X006100Y017500D01*
X006650Y017500D01*
X006669Y017530D01*
X006677Y017530D01*
X006730Y017583D01*
X006730Y017626D01*
X007000Y018050D01*
X007600Y018050D01*
X007600Y017500D01*
X007600Y017524D02*
X006665Y017524D01*
X006729Y017582D02*
X007600Y017582D01*
X007600Y017641D02*
X006739Y017641D01*
X006777Y017699D02*
X007600Y017699D01*
X007600Y017758D02*
X006814Y017758D01*
X006851Y017816D02*
X007600Y017816D01*
X007600Y017875D02*
X006888Y017875D01*
X006926Y017933D02*
X007600Y017933D01*
X007600Y017992D02*
X006963Y017992D01*
X006919Y017465D02*
X006100Y017465D01*
X006100Y017407D02*
X006782Y017407D01*
X006909Y016705D02*
X006100Y016705D01*
X004500Y010450D02*
X004100Y010450D01*
X003750Y010550D01*
X003350Y010550D01*
X003350Y010150D01*
X003750Y010150D01*
X004100Y010250D01*
X004500Y010250D01*
X004500Y010450D01*
X004500Y010445D02*
X003350Y010445D01*
X003350Y010387D02*
X004500Y010387D01*
X004500Y010328D02*
X003350Y010328D01*
X003350Y010270D02*
X004500Y010270D01*
X003964Y010211D02*
X003350Y010211D01*
X003350Y010153D02*
X003759Y010153D01*
X003913Y010504D02*
X003350Y010504D01*
X003850Y023800D02*
X003850Y024250D01*
X003900Y024500D01*
X003900Y024850D01*
X004200Y024850D01*
X004200Y024500D01*
X004350Y024250D01*
X004350Y023800D01*
X003850Y023800D01*
X003850Y023842D02*
X004350Y023842D01*
X004350Y023900D02*
X003850Y023900D01*
X003850Y023959D02*
X004350Y023959D01*
X004350Y024017D02*
X003850Y024017D01*
X003850Y024076D02*
X004350Y024076D01*
X004350Y024134D02*
X003850Y024134D01*
X003850Y024193D02*
X004350Y024193D01*
X004349Y024251D02*
X003850Y024251D01*
X003862Y024310D02*
X004314Y024310D01*
X004279Y024368D02*
X003874Y024368D01*
X003885Y024427D02*
X004244Y024427D01*
X004209Y024485D02*
X003897Y024485D01*
X003900Y024544D02*
X004200Y024544D01*
X004200Y024602D02*
X003900Y024602D01*
X003900Y024661D02*
X004200Y024661D01*
X004200Y024719D02*
X003900Y024719D01*
X003900Y024778D02*
X004200Y024778D01*
X004200Y024836D02*
X003900Y024836D01*
X005000Y025000D02*
X005000Y025200D01*
X005350Y025200D01*
X005600Y025250D01*
X006100Y025250D01*
X006100Y024800D01*
X005600Y024800D01*
X005350Y025000D01*
X005000Y025000D01*
X005000Y025012D02*
X006100Y025012D01*
X006100Y025070D02*
X005000Y025070D01*
X005000Y025129D02*
X006100Y025129D01*
X006100Y025187D02*
X005000Y025187D01*
X005409Y024953D02*
X006100Y024953D01*
X006100Y024895D02*
X005482Y024895D01*
X005555Y024836D02*
X006100Y024836D01*
X006100Y025246D02*
X005578Y025246D01*
X004350Y027450D02*
X003850Y027450D01*
X003850Y027900D01*
X003900Y028150D01*
X003900Y028500D01*
X004200Y028500D01*
X004200Y028150D01*
X004350Y027900D01*
X004350Y027450D01*
X004350Y027469D02*
X003850Y027469D01*
X003850Y027527D02*
X004350Y027527D01*
X004350Y027586D02*
X003850Y027586D01*
X003850Y027644D02*
X004350Y027644D01*
X004350Y027703D02*
X003850Y027703D01*
X003850Y027761D02*
X004350Y027761D01*
X004350Y027820D02*
X003850Y027820D01*
X003850Y027878D02*
X004350Y027878D01*
X004328Y027937D02*
X003857Y027937D01*
X003869Y027995D02*
X004293Y027995D01*
X004258Y028054D02*
X003881Y028054D01*
X003892Y028112D02*
X004223Y028112D01*
X004200Y028171D02*
X003900Y028171D01*
X003900Y028229D02*
X004200Y028229D01*
X004200Y028288D02*
X003900Y028288D01*
X003900Y028346D02*
X004200Y028346D01*
X004200Y028405D02*
X003900Y028405D01*
X003900Y028463D02*
X004200Y028463D01*
X005050Y028650D02*
X005050Y028850D01*
X005400Y028850D01*
X005650Y028900D01*
X006150Y028900D01*
X006150Y028450D01*
X005650Y028450D01*
X005400Y028650D01*
X005050Y028650D01*
X005050Y028697D02*
X006150Y028697D01*
X006150Y028639D02*
X005414Y028639D01*
X005487Y028580D02*
X006150Y028580D01*
X006150Y028522D02*
X005560Y028522D01*
X005634Y028463D02*
X006150Y028463D01*
X006150Y028756D02*
X005050Y028756D01*
X005050Y028814D02*
X006150Y028814D01*
X006150Y028873D02*
X005513Y028873D01*
X007950Y028490D02*
X007950Y028150D01*
X007900Y027900D01*
X007900Y027450D01*
X008400Y027450D01*
X008400Y027900D01*
X008250Y028150D01*
X008250Y028500D01*
X008147Y028500D01*
X008137Y028490D01*
X007950Y028490D01*
X007950Y028463D02*
X008250Y028463D01*
X008250Y028405D02*
X007950Y028405D01*
X007950Y028346D02*
X008250Y028346D01*
X008250Y028288D02*
X007950Y028288D01*
X007950Y028229D02*
X008250Y028229D01*
X008250Y028171D02*
X007950Y028171D01*
X007942Y028112D02*
X008273Y028112D01*
X008308Y028054D02*
X007931Y028054D01*
X007919Y027995D02*
X008343Y027995D01*
X008378Y027937D02*
X007907Y027937D01*
X007900Y027878D02*
X008400Y027878D01*
X008400Y027820D02*
X007900Y027820D01*
X007900Y027761D02*
X008400Y027761D01*
X008400Y027703D02*
X007900Y027703D01*
X007900Y027644D02*
X008400Y027644D01*
X008400Y027586D02*
X007900Y027586D01*
X007900Y027527D02*
X008400Y027527D01*
X008400Y027469D02*
X007900Y027469D01*
X009100Y028650D02*
X009100Y028850D01*
X009500Y028850D01*
X009700Y028900D01*
X010200Y028900D01*
X010200Y028450D01*
X009700Y028450D01*
X009450Y028650D01*
X009100Y028650D01*
X009100Y028697D02*
X010200Y028697D01*
X010200Y028639D02*
X009464Y028639D01*
X009537Y028580D02*
X010200Y028580D01*
X010200Y028522D02*
X009610Y028522D01*
X009684Y028463D02*
X010200Y028463D01*
X010200Y028756D02*
X009100Y028756D01*
X009100Y028814D02*
X010200Y028814D01*
X010200Y028873D02*
X009590Y028873D01*
X012000Y028150D02*
X011950Y027900D01*
X011950Y027450D01*
X012450Y027450D01*
X012450Y027900D01*
X012300Y028150D01*
X012300Y028500D01*
X012197Y028500D01*
X012187Y028490D01*
X012000Y028490D01*
X012000Y028150D01*
X012000Y028171D02*
X012300Y028171D01*
X012300Y028229D02*
X012000Y028229D01*
X012000Y028288D02*
X012300Y028288D01*
X012300Y028346D02*
X012000Y028346D01*
X012000Y028405D02*
X012300Y028405D01*
X012300Y028463D02*
X012000Y028463D01*
X011992Y028112D02*
X012323Y028112D01*
X012358Y028054D02*
X011981Y028054D01*
X011969Y027995D02*
X012393Y027995D01*
X012428Y027937D02*
X011957Y027937D01*
X011950Y027878D02*
X012450Y027878D01*
X012450Y027820D02*
X011950Y027820D01*
X011950Y027761D02*
X012450Y027761D01*
X012450Y027703D02*
X011950Y027703D01*
X011950Y027644D02*
X012450Y027644D01*
X012450Y027586D02*
X011950Y027586D01*
X011950Y027527D02*
X012450Y027527D01*
X012450Y027469D02*
X011950Y027469D01*
X013100Y028650D02*
X013100Y028850D01*
X013450Y028850D01*
X013750Y028900D01*
X014150Y028900D01*
X014150Y028500D01*
X013750Y028500D01*
X013450Y028650D01*
X013100Y028650D01*
X013100Y028697D02*
X014150Y028697D01*
X014150Y028639D02*
X013473Y028639D01*
X013590Y028580D02*
X014150Y028580D01*
X014150Y028522D02*
X013707Y028522D01*
X013586Y028873D02*
X014150Y028873D01*
X014150Y028814D02*
X013100Y028814D01*
X013100Y028756D02*
X014150Y028756D01*
X012450Y031100D02*
X011950Y031100D01*
X011950Y031550D01*
X012000Y031800D01*
X012000Y032150D01*
X012300Y032150D01*
X012300Y031800D01*
X012450Y031550D01*
X012450Y031100D01*
X012450Y031154D02*
X011950Y031154D01*
X011950Y031213D02*
X012450Y031213D01*
X012450Y031271D02*
X011950Y031271D01*
X011950Y031330D02*
X012450Y031330D01*
X012450Y031388D02*
X011950Y031388D01*
X011950Y031447D02*
X012450Y031447D01*
X012450Y031505D02*
X011950Y031505D01*
X011953Y031564D02*
X012442Y031564D01*
X012407Y031622D02*
X011964Y031622D01*
X011976Y031681D02*
X012372Y031681D01*
X012337Y031739D02*
X011988Y031739D01*
X012000Y031798D02*
X012301Y031798D01*
X012300Y031856D02*
X012000Y031856D01*
X012000Y031915D02*
X012300Y031915D01*
X012300Y031973D02*
X012000Y031973D01*
X012000Y032032D02*
X012300Y032032D01*
X012300Y032090D02*
X012000Y032090D01*
X012000Y032149D02*
X012300Y032149D01*
X013150Y032300D02*
X013150Y032500D01*
X013500Y032500D01*
X013750Y032550D01*
X014200Y032550D01*
X014200Y032150D01*
X013800Y032150D01*
X013500Y032300D01*
X013150Y032300D01*
X013150Y032324D02*
X014200Y032324D01*
X014200Y032266D02*
X013569Y032266D01*
X013686Y032207D02*
X014200Y032207D01*
X014200Y032383D02*
X013150Y032383D01*
X013150Y032441D02*
X014200Y032441D01*
X014200Y032500D02*
X013150Y032500D01*
X016050Y032150D02*
X016050Y031800D01*
X016000Y031550D01*
X016000Y031100D01*
X016500Y031100D01*
X016500Y031550D01*
X016350Y031800D01*
X016350Y032150D01*
X016050Y032150D01*
X016050Y032149D02*
X016350Y032149D01*
X016350Y032090D02*
X016050Y032090D01*
X016050Y032032D02*
X016350Y032032D01*
X016350Y031973D02*
X016050Y031973D01*
X016050Y031915D02*
X016350Y031915D01*
X016350Y031856D02*
X016050Y031856D01*
X016050Y031798D02*
X016351Y031798D01*
X016387Y031739D02*
X016038Y031739D01*
X016026Y031681D02*
X016422Y031681D01*
X016457Y031622D02*
X016014Y031622D01*
X016003Y031564D02*
X016492Y031564D01*
X016500Y031505D02*
X016000Y031505D01*
X016000Y031447D02*
X016500Y031447D01*
X016500Y031388D02*
X016000Y031388D01*
X016000Y031330D02*
X016500Y031330D01*
X016500Y031271D02*
X016000Y031271D01*
X016000Y031213D02*
X016500Y031213D01*
X016500Y031154D02*
X016000Y031154D01*
X017200Y032300D02*
X017200Y032500D01*
X017550Y032500D01*
X017800Y032550D01*
X018300Y032550D01*
X018300Y032100D01*
X017800Y032100D01*
X017550Y032300D01*
X017200Y032300D01*
X017200Y032500D01*
X017550Y032500D01*
X017800Y032550D01*
X018300Y032550D01*
X018300Y032100D01*
X017800Y032100D01*
X017550Y032300D01*
X017200Y032300D01*
X017200Y032324D02*
X018300Y032324D01*
X017200Y032324D01*
X017200Y032383D02*
X018300Y032383D01*
X017200Y032383D01*
X017200Y032441D02*
X018300Y032441D01*
X017200Y032441D01*
X017200Y032500D02*
X018300Y032500D01*
X017200Y032500D01*
X017593Y032266D02*
X018300Y032266D01*
X017593Y032266D01*
X017666Y032207D02*
X018300Y032207D01*
X017666Y032207D01*
X017739Y032149D02*
X018300Y032149D01*
X017739Y032149D01*
X017750Y028900D02*
X017500Y028850D01*
X017150Y028850D01*
X017150Y028650D01*
X017500Y028650D01*
X017750Y028450D01*
X018250Y028450D01*
X018250Y028900D01*
X017750Y028900D01*
X017613Y028873D02*
X018250Y028873D01*
X018250Y028814D02*
X017150Y028814D01*
X017150Y028756D02*
X018250Y028756D01*
X018250Y028697D02*
X017150Y028697D01*
X017514Y028639D02*
X018250Y028639D01*
X018250Y028580D02*
X017587Y028580D01*
X017660Y028522D02*
X018250Y028522D01*
X018250Y028463D02*
X017734Y028463D01*
X016500Y027850D02*
X016500Y027400D01*
X016000Y027400D01*
X016000Y027850D01*
X016050Y028100D01*
X016050Y028450D01*
X016350Y028450D01*
X016350Y028100D01*
X016500Y027850D01*
X016500Y027820D02*
X016000Y027820D01*
X016006Y027878D02*
X016483Y027878D01*
X016448Y027937D02*
X016017Y027937D01*
X016029Y027995D02*
X016413Y027995D01*
X016378Y028054D02*
X016041Y028054D01*
X016050Y028112D02*
X016350Y028112D01*
X016350Y028171D02*
X016050Y028171D01*
X016050Y028229D02*
X016350Y028229D01*
X016350Y028288D02*
X016050Y028288D01*
X016050Y028346D02*
X016350Y028346D01*
X016350Y028405D02*
X016050Y028405D01*
X016000Y027761D02*
X016500Y027761D01*
X016500Y027703D02*
X016000Y027703D01*
X016000Y027644D02*
X016500Y027644D01*
X016500Y027586D02*
X016000Y027586D01*
X016000Y027527D02*
X016500Y027527D01*
X016500Y027469D02*
X016000Y027469D01*
X016000Y027410D02*
X016500Y027410D01*
X010100Y025250D02*
X010100Y024850D01*
X009750Y024850D01*
X009400Y025000D01*
X009050Y025000D01*
X009050Y025200D01*
X009350Y025200D01*
X010100Y025250D01*
X010100Y025246D02*
X010034Y025246D01*
X010100Y025187D02*
X009050Y025187D01*
X009050Y025129D02*
X010100Y025129D01*
X010100Y025070D02*
X009050Y025070D01*
X009050Y025012D02*
X010100Y025012D01*
X010100Y024953D02*
X009509Y024953D01*
X009646Y024895D02*
X010100Y024895D01*
X008400Y024250D02*
X008400Y023800D01*
X007900Y023800D01*
X007900Y024250D01*
X007950Y024500D01*
X007950Y024840D01*
X008137Y024840D01*
X008147Y024850D01*
X008250Y024850D01*
X008250Y024500D01*
X008400Y024250D01*
X008399Y024251D02*
X007900Y024251D01*
X007900Y024193D02*
X008400Y024193D01*
X008400Y024134D02*
X007900Y024134D01*
X007900Y024076D02*
X008400Y024076D01*
X008400Y024017D02*
X007900Y024017D01*
X007900Y023959D02*
X008400Y023959D01*
X008400Y023900D02*
X007900Y023900D01*
X007900Y023842D02*
X008400Y023842D01*
X008364Y024310D02*
X007912Y024310D01*
X007924Y024368D02*
X008329Y024368D01*
X008294Y024427D02*
X007935Y024427D01*
X007947Y024485D02*
X008259Y024485D01*
X008250Y024544D02*
X007950Y024544D01*
X007950Y024602D02*
X008250Y024602D01*
X008250Y024661D02*
X007950Y024661D01*
X007950Y024719D02*
X008250Y024719D01*
X008250Y024778D02*
X007950Y024778D01*
X007950Y024836D02*
X008250Y024836D01*
D35*
X008100Y025100D03*
X007650Y025500D03*
X007400Y026750D03*
X007700Y027650D03*
X008150Y027250D03*
X008800Y027250D03*
X009300Y027700D03*
X009950Y027550D03*
X010400Y028050D03*
X010400Y028700D03*
X009950Y029150D03*
X010750Y029250D03*
X011400Y030300D03*
X011750Y031350D03*
X012200Y030900D03*
X012850Y030900D03*
X013350Y031350D03*
X014000Y031200D03*
X014450Y031700D03*
X014750Y031200D03*
X014750Y030200D03*
X015450Y030300D03*
X015800Y031300D03*
X016250Y030900D03*
X016950Y030900D03*
X017400Y031350D03*
X018050Y031200D03*
X018500Y031700D03*
X018500Y032350D03*
X018050Y032800D03*
X016200Y032400D03*
X016050Y034100D03*
X014750Y032850D03*
X014450Y032350D03*
X014000Y032800D03*
X012150Y032400D03*
X011400Y034150D03*
X009750Y033000D03*
X006950Y029800D03*
X006700Y029250D03*
X006350Y028700D03*
X005900Y029150D03*
X006350Y028050D03*
X005900Y027550D03*
X005250Y027700D03*
X004750Y027250D03*
X004150Y027250D03*
X003650Y027700D03*
X003300Y029250D03*
X005900Y025500D03*
X006350Y025050D03*
X006350Y024400D03*
X005900Y023900D03*
X005250Y024050D03*
X004750Y023600D03*
X004150Y023600D03*
X003650Y024050D03*
X004000Y020500D03*
X004050Y018750D03*
X004600Y018200D03*
X004600Y017750D03*
X005750Y017300D03*
X005250Y016150D03*
X005250Y015300D03*
X004650Y014850D03*
X003850Y014450D03*
X003200Y013850D03*
X003100Y014600D03*
X004700Y012700D03*
X003550Y011500D03*
X003100Y011050D03*
X003100Y010400D03*
X003550Y009900D03*
X003950Y007450D03*
X003850Y005050D03*
X007450Y009600D03*
X007450Y010550D03*
X007450Y011600D03*
X006550Y012300D03*
X006450Y014850D03*
X007250Y014900D03*
X007850Y015400D03*
X007850Y016200D03*
X007850Y017000D03*
X007850Y017750D03*
X006950Y018300D03*
X007250Y020100D03*
X007250Y021100D03*
X007200Y022100D03*
X006700Y023450D03*
X007700Y024000D03*
X008150Y023600D03*
X008800Y023600D03*
X009300Y024050D03*
X009950Y023900D03*
X010400Y024400D03*
X010400Y025050D03*
X010550Y025500D03*
X009900Y025500D03*
X009750Y025850D03*
X010550Y026400D03*
X011750Y027650D03*
X012200Y027250D03*
X012850Y027250D03*
X013350Y027700D03*
X014000Y027550D03*
X014450Y028000D03*
X014450Y028700D03*
X013950Y029150D03*
X013900Y029600D03*
X014750Y027150D03*
X015300Y025800D03*
X014700Y024700D03*
X014350Y025250D03*
X014100Y023950D03*
X013650Y023550D03*
X013100Y024400D03*
X012000Y025400D03*
X011050Y023450D03*
X010500Y023450D03*
X011250Y022700D03*
X011900Y022100D03*
X012900Y022100D03*
X012450Y020050D03*
X011750Y019600D03*
X011000Y019650D03*
X011000Y019150D03*
X010450Y020050D03*
X009700Y020050D03*
X009200Y019650D03*
X008850Y018950D03*
X009300Y018700D03*
X009450Y018000D03*
X009100Y017050D03*
X010000Y016250D03*
X011000Y016250D03*
X011850Y016150D03*
X012200Y014350D03*
X013000Y014350D03*
X013100Y012650D03*
X013100Y011650D03*
X013100Y010650D03*
X010600Y013050D03*
X010100Y014450D03*
X009400Y014450D03*
X008950Y014900D03*
X008500Y019450D03*
X009550Y021050D03*
X005800Y021100D03*
X005800Y020100D03*
X005500Y019550D03*
X008100Y028750D03*
X012150Y028750D03*
X015750Y029150D03*
X016200Y028750D03*
X015800Y027600D03*
X016250Y027100D03*
X016900Y027150D03*
X017400Y027600D03*
X018050Y027550D03*
X018500Y028050D03*
X018500Y028700D03*
X018000Y029150D03*
X017900Y029550D03*
X018950Y025300D03*
X018250Y025150D03*
X017600Y025150D03*
X017150Y024700D03*
X016250Y023900D03*
X016300Y023150D03*
X016100Y022500D03*
X015600Y022650D03*
X016750Y020800D03*
X017600Y021350D03*
X018000Y021350D03*
X018500Y021350D03*
X018950Y021950D03*
X019450Y021600D03*
X018250Y023000D03*
X017750Y023500D03*
X017600Y020150D03*
X017150Y019700D03*
X016650Y018350D03*
X016250Y018050D03*
X015800Y017600D03*
X015200Y017300D03*
X014750Y016850D03*
X014050Y016850D03*
X013600Y017300D03*
X013800Y018400D03*
X014950Y020150D03*
X016750Y017600D03*
X017200Y017100D03*
X018000Y017100D03*
X018400Y017550D03*
X018800Y018650D03*
X018950Y014650D03*
X018450Y014450D03*
X019750Y014300D03*
D36*
X019349Y014300D01*
X019050Y014001D01*
X018950Y014000D02*
X018950Y014650D01*
X018450Y014450D02*
X017820Y014450D01*
X017820Y013450D02*
X017150Y013450D01*
X016550Y013450D02*
X015880Y013450D01*
X017600Y011600D02*
X017820Y011820D01*
X017820Y012950D01*
X017700Y010250D02*
X017600Y010250D01*
X017700Y010250D02*
X017950Y010000D01*
X020250Y010000D01*
X018000Y017100D02*
X018000Y017550D01*
X018400Y017550D01*
X018310Y018280D02*
X018720Y018280D01*
X019350Y017650D01*
X017600Y019700D02*
X017600Y020150D01*
X017600Y019700D02*
X017150Y019700D01*
X016450Y018550D02*
X015985Y018550D01*
X015800Y018735D01*
X015800Y018050D02*
X015800Y017600D01*
X015800Y018050D02*
X016250Y018050D01*
X016650Y018350D02*
X016450Y018550D01*
X016750Y017600D02*
X017200Y017600D01*
X017200Y017100D01*
X015200Y017300D02*
X014750Y017300D01*
X014750Y016850D01*
X014050Y016850D02*
X014050Y017300D01*
X013600Y017300D01*
X012450Y019600D02*
X012450Y020050D01*
X012200Y019600D02*
X011750Y019600D01*
X011000Y019650D02*
X010450Y019650D01*
X010450Y020050D01*
X010450Y019650D02*
X010450Y019500D01*
X010450Y018800D01*
X011000Y018750D02*
X011015Y018700D01*
X011000Y018750D02*
X011000Y019150D01*
X009800Y018750D02*
X009700Y019450D01*
X009700Y019650D02*
X009700Y020050D01*
X009700Y019650D02*
X009200Y019650D01*
X009300Y018700D02*
X009765Y018700D01*
X009800Y018700D01*
X007850Y017750D02*
X007300Y017750D01*
X007300Y017000D02*
X007850Y017000D01*
X007850Y016200D02*
X007300Y016200D01*
X007300Y015400D02*
X007850Y015400D01*
X007250Y015400D02*
X007250Y014900D01*
X006550Y012300D02*
X006550Y012200D01*
X008950Y014900D02*
X009400Y014900D01*
X009400Y014450D01*
X010100Y014450D02*
X010100Y014900D01*
X005500Y019100D02*
X005500Y019550D01*
X004750Y023600D02*
X004750Y024050D01*
X004800Y024050D02*
X005250Y024050D01*
X005900Y023900D02*
X005900Y024350D01*
X005900Y024400D02*
X006350Y024400D01*
X006350Y025050D02*
X005900Y025050D01*
X005900Y025500D01*
X004750Y027250D02*
X004750Y027700D01*
X004800Y027700D02*
X005250Y027700D01*
X005900Y027550D02*
X005900Y028000D01*
X005950Y028050D02*
X006350Y028050D01*
X006350Y028700D02*
X005900Y028700D01*
X005900Y028750D02*
X005900Y029150D01*
X004150Y027665D02*
X004150Y027250D01*
X004150Y027650D01*
X004100Y027700D01*
X003650Y027700D01*
X004115Y027700D02*
X004150Y027665D01*
X004115Y024050D02*
X004150Y024015D01*
X004150Y023600D01*
X004150Y024000D01*
X004100Y024050D01*
X003650Y024050D01*
X007700Y024000D02*
X008150Y024000D01*
X008150Y023600D01*
X008200Y024000D02*
X008150Y024050D01*
X008165Y024050D02*
X008200Y024015D01*
X008800Y024050D02*
X008800Y023600D01*
X008850Y024050D02*
X009300Y024050D01*
X009950Y023900D02*
X009950Y024400D01*
X010400Y024400D01*
X010400Y025050D02*
X009900Y025050D01*
X009900Y025100D02*
X009900Y025500D01*
X011050Y023900D02*
X011050Y023450D01*
X011250Y022700D02*
X011900Y022700D01*
X011900Y022699D01*
X011900Y022100D01*
X012251Y023500D02*
X012930Y023500D01*
X012251Y023500D02*
X011951Y023800D01*
X012200Y027250D02*
X012200Y027650D01*
X011750Y027650D01*
X012200Y027700D02*
X012250Y027650D01*
X012250Y027665D02*
X012215Y027700D01*
X012850Y027700D02*
X012850Y027250D01*
X012900Y027700D02*
X013350Y027700D01*
X014000Y027550D02*
X014000Y028000D01*
X014450Y028000D01*
X014450Y028700D02*
X013950Y028700D01*
X013950Y028750D02*
X013950Y029150D01*
X012850Y030900D02*
X012850Y031300D01*
X012950Y031350D02*
X013350Y031350D01*
X014000Y031200D02*
X014000Y031650D01*
X014000Y031700D02*
X014450Y031700D01*
X014450Y032350D02*
X014000Y032350D01*
X014000Y032400D02*
X014000Y032800D01*
X012200Y031350D02*
X011750Y031350D01*
X012200Y031300D02*
X012200Y030900D01*
X010400Y028700D02*
X009950Y028700D01*
X009950Y028750D02*
X009950Y029150D01*
X010000Y028050D02*
X010400Y028050D01*
X009950Y028000D02*
X009950Y027550D01*
X009300Y027700D02*
X008850Y027700D01*
X008800Y027700D02*
X008800Y027250D01*
X008150Y027250D02*
X008150Y027650D01*
X007700Y027650D01*
X014235Y024700D02*
X014700Y024700D01*
X015800Y023885D02*
X016235Y023885D01*
X016250Y023900D01*
X015600Y023015D02*
X015600Y022650D01*
X016750Y021265D02*
X016750Y020800D01*
X017600Y021350D02*
X017600Y021785D01*
X017615Y021800D01*
X018950Y021950D02*
X018950Y021485D01*
X018250Y024700D02*
X018250Y025150D01*
X017600Y025150D02*
X017600Y024700D01*
X017150Y024700D01*
X016900Y027150D02*
X016900Y027600D01*
X016950Y027600D02*
X017400Y027600D01*
X018050Y027550D02*
X018050Y028050D01*
X018500Y028050D01*
X018500Y028700D02*
X018000Y028700D01*
X018000Y029150D01*
X016950Y030900D02*
X016950Y031350D01*
X017400Y031350D01*
X018050Y031200D02*
X018050Y031650D01*
X018100Y031700D02*
X018500Y031700D01*
X018500Y032350D02*
X018050Y032350D01*
X018050Y032400D02*
X018050Y032800D01*
X016250Y031300D02*
X016250Y030900D01*
X016250Y031300D02*
X015800Y031300D01*
X016250Y027650D02*
X016300Y027600D01*
X016300Y027615D02*
X016265Y027650D01*
X016250Y027600D02*
X015800Y027600D01*
X016250Y027600D02*
X016250Y027100D01*
X003550Y011500D02*
X003550Y011050D01*
X003500Y011050D02*
X003100Y011050D01*
X003100Y010400D02*
X003550Y010400D01*
X003550Y009900D01*
D37*
X006574Y011350D02*
X006800Y011350D01*
X006574Y011850D02*
X006574Y011976D01*
X006550Y012000D01*
X009330Y011150D02*
X009330Y011050D01*
X006000Y016900D02*
X005600Y016900D01*
X005950Y017200D02*
X006050Y017200D01*
X006350Y018200D02*
X006700Y018200D01*
X006950Y018300D01*
X015185Y015000D02*
X015300Y014885D01*
X016900Y016050D02*
X017150Y016050D01*
X017800Y015400D01*
X018135Y015400D01*
X018150Y015415D01*
X018150Y016085D02*
X018880Y016085D01*
X018951Y016114D02*
X019000Y016163D01*
X018951Y016114D02*
X018936Y016102D01*
X018918Y016093D01*
X018900Y016087D01*
X018880Y016085D01*
X019000Y015337D02*
X018950Y015287D01*
X018950Y014650D01*
X017290Y018280D02*
X016570Y019000D01*
X016350Y019000D01*
X016250Y019100D01*
X015950Y019100D01*
X015835Y019215D01*
X015835Y019515D01*
X015800Y019515D01*
X015800Y020185D02*
X016521Y020185D01*
X016600Y020263D01*
X017150Y019700D02*
X016887Y019437D01*
X016600Y019437D01*
D38*
X015800Y018735D02*
X015765Y018770D01*
X015100Y018770D01*
X015100Y018400D01*
X015100Y018030D02*
X015765Y018030D01*
X015800Y018065D01*
X014950Y020150D02*
X014550Y020600D01*
X014385Y021265D02*
X014050Y021600D01*
X012550Y021600D01*
X012250Y021600D01*
X012250Y021350D01*
X011400Y020500D01*
X004815Y020500D01*
X004800Y020485D01*
X004799Y020491D01*
X004796Y020496D01*
X004791Y020499D01*
X004785Y020500D01*
X004000Y020500D01*
X004800Y019815D02*
X004815Y019800D01*
X004815Y019100D01*
X004815Y018835D01*
X005050Y018600D01*
X005050Y017450D01*
X005600Y016900D01*
X005850Y017200D02*
X005750Y017300D01*
X005850Y017200D02*
X005950Y017200D01*
X006550Y012200D02*
X006550Y012000D01*
X006150Y005700D02*
X005406Y005700D01*
X005391Y005686D01*
X001809Y005686D01*
X001809Y003914D02*
X005391Y003914D01*
X005377Y003900D01*
X005000Y003900D01*
X012870Y010150D02*
X012870Y010420D01*
X013100Y010650D01*
X012870Y011150D02*
X012870Y011420D01*
X013100Y011650D01*
X012870Y012150D02*
X012870Y012420D01*
X013100Y012650D01*
X013350Y018015D02*
X013360Y018023D01*
X013372Y018028D01*
X013385Y018030D01*
X013450Y018045D01*
X013800Y018400D01*
X013556Y018770D02*
X013523Y018768D01*
X013491Y018763D01*
X013460Y018754D01*
X013430Y018741D01*
X013401Y018725D01*
X013375Y018707D01*
X013350Y018685D01*
X013335Y018700D01*
X013100Y018700D01*
X012950Y018550D01*
X012950Y018200D01*
X012765Y018015D01*
X012500Y018015D01*
X012500Y018685D02*
X012500Y019550D01*
X012450Y019550D01*
X012450Y019600D01*
X012500Y019550D02*
X012550Y019600D01*
X011650Y019000D02*
X011400Y019250D01*
X011400Y020500D01*
X010474Y019500D02*
X010450Y019500D01*
X009800Y018750D02*
X009765Y018750D01*
X009765Y018700D01*
X009700Y019450D02*
X009700Y019500D01*
X009726Y019500D01*
X011650Y019000D02*
X011650Y018735D01*
X011685Y018700D01*
X013385Y018030D02*
X014100Y018030D01*
X014100Y018770D02*
X013556Y018770D01*
X014385Y021265D02*
X015100Y021265D01*
X015900Y021265D01*
X015915Y021250D01*
X016200Y021250D01*
X016350Y021400D01*
X016350Y021800D01*
X016485Y021935D01*
X016750Y021935D01*
X016980Y022500D02*
X017500Y022500D01*
X017615Y022385D01*
X017615Y021800D01*
X018000Y021350D02*
X018285Y021635D01*
X018285Y021800D01*
X018285Y022385D01*
X018400Y022500D01*
X018920Y022500D01*
X018920Y023000D02*
X018250Y023000D01*
X018250Y023350D01*
X018400Y023500D01*
X018920Y023500D01*
X018920Y024000D02*
X018950Y024030D01*
X018950Y024300D01*
X018550Y024700D01*
X018285Y024700D01*
X017600Y024000D02*
X017750Y023850D01*
X017750Y023500D01*
X016980Y023500D01*
X016980Y023000D02*
X016450Y023000D01*
X016300Y023150D01*
X015800Y023100D02*
X015700Y023000D01*
X014870Y023000D01*
X015600Y023015D02*
X015800Y023215D01*
X015800Y023100D01*
X016100Y022500D02*
X015900Y022300D01*
X015900Y021935D01*
X015800Y023885D02*
X015800Y023900D01*
X015750Y023950D01*
X015800Y024000D01*
X014870Y024000D01*
X013650Y023550D02*
X013600Y023500D01*
X012930Y023500D01*
X012930Y024000D02*
X013450Y024000D01*
X013565Y024115D01*
X013565Y024700D01*
X013100Y024450D02*
X012500Y025050D01*
X011100Y025050D01*
X011050Y025000D01*
X011050Y024585D01*
X011050Y023915D02*
X011050Y023900D01*
X011900Y023801D02*
X011951Y023800D01*
X011100Y025050D02*
X011050Y025050D01*
X011050Y028700D01*
X010400Y028700D01*
X011050Y028700D02*
X011200Y028700D01*
X011150Y028750D01*
X011150Y029350D01*
X010950Y029550D01*
X010950Y032100D01*
X011250Y032400D01*
X012150Y032400D01*
X011415Y033450D02*
X011415Y034115D01*
X011400Y034150D01*
X015265Y034150D01*
X015465Y033950D01*
X015465Y033450D01*
X016200Y032400D02*
X014500Y032400D01*
X014450Y032350D01*
X014400Y029600D02*
X013900Y029600D01*
X013420Y029120D01*
X013210Y029120D01*
X012150Y028750D02*
X012100Y028700D01*
X011200Y028700D01*
X009750Y025850D02*
X009400Y025500D01*
X009200Y025500D01*
X008100Y025100D02*
X008050Y025050D01*
X006350Y025050D01*
X006600Y025500D02*
X007650Y025500D01*
X006600Y025500D02*
X006200Y025900D01*
X005750Y025900D01*
X005320Y025470D01*
X005110Y025470D01*
X006350Y028700D02*
X008050Y028700D01*
X008100Y028750D01*
X007365Y029800D02*
X006950Y029800D01*
X010400Y025050D02*
X011050Y025050D01*
X013100Y024450D02*
X013100Y024400D01*
X014450Y028700D02*
X016150Y028700D01*
X016200Y028750D01*
X015750Y029150D02*
X014850Y029150D01*
X014400Y029600D01*
X017260Y029120D02*
X017470Y029120D01*
X017900Y029550D01*
X017600Y024000D02*
X016980Y024000D01*
X017550Y024000D01*
X018500Y021350D02*
X018250Y021100D01*
X018250Y020935D01*
X018285Y020900D01*
X018550Y020450D02*
X017850Y020450D01*
X017600Y020700D01*
X017600Y020885D01*
X017615Y020900D01*
X018550Y020450D02*
X018750Y020450D01*
X018950Y020650D01*
X018950Y020800D01*
X019450Y021300D01*
X019450Y021600D01*
X018950Y020815D02*
X018950Y020800D01*
X018310Y019020D02*
X018290Y019000D01*
X017950Y019000D01*
X017800Y018850D01*
X017800Y018450D01*
X017970Y018280D01*
X018310Y018280D01*
X018350Y018650D02*
X018800Y018650D01*
X003300Y029250D02*
X003300Y029585D01*
X003315Y029800D01*
D39*
X001250Y028000D02*
X001677Y027573D01*
X001750Y027396D02*
X001750Y022750D01*
X001752Y022716D01*
X001758Y022683D01*
X001767Y022651D01*
X001780Y022620D01*
X001796Y022590D01*
X001815Y022563D01*
X001838Y022538D01*
X001863Y022515D01*
X001890Y022496D01*
X001920Y022480D01*
X001951Y022467D01*
X001983Y022458D01*
X002016Y022452D01*
X002050Y022450D01*
X002396Y022450D01*
X002573Y022377D02*
X002927Y022023D01*
X003250Y022096D02*
X003248Y022124D01*
X003244Y022152D01*
X003236Y022179D01*
X003225Y022204D01*
X003212Y022229D01*
X003195Y022252D01*
X003177Y022273D01*
X002773Y022677D01*
X002700Y022854D02*
X002700Y026446D01*
X002627Y026623D02*
X002250Y027000D01*
X002627Y026623D02*
X002645Y026602D01*
X002662Y026579D01*
X002675Y026554D01*
X002686Y026529D01*
X002694Y026502D01*
X002698Y026474D01*
X002700Y026446D01*
X001750Y027396D02*
X001748Y027424D01*
X001744Y027452D01*
X001736Y027479D01*
X001725Y027504D01*
X001712Y027529D01*
X001695Y027552D01*
X001677Y027573D01*
X001250Y027000D02*
X000823Y026573D01*
X000750Y026396D02*
X000750Y017800D01*
X000754Y017766D01*
X000762Y017733D01*
X000774Y017701D01*
X000788Y017670D01*
X000806Y017641D01*
X000827Y017614D01*
X000850Y017589D01*
X000876Y017567D01*
X000904Y017547D01*
X000934Y017531D01*
X000966Y017518D01*
X000998Y017508D01*
X001032Y017502D01*
X001066Y017499D01*
X001100Y017500D01*
X001350Y017500D01*
X001389Y017498D01*
X001428Y017492D01*
X001466Y017483D01*
X001503Y017470D01*
X001539Y017453D01*
X001572Y017433D01*
X001604Y017409D01*
X001633Y017383D01*
X001659Y017354D01*
X001683Y017322D01*
X001703Y017289D01*
X001720Y017253D01*
X001733Y017216D01*
X001742Y017178D01*
X001748Y017139D01*
X001750Y017100D01*
X001750Y015926D01*
X001839Y015711D02*
X001911Y015639D01*
X002126Y015550D02*
X002642Y015550D01*
X002686Y015548D01*
X002729Y015542D01*
X002772Y015533D01*
X002814Y015520D01*
X002854Y015503D01*
X002893Y015483D01*
X002930Y015459D01*
X002965Y015433D01*
X002997Y015403D01*
X003154Y015246D01*
X003377Y015473D02*
X002856Y015994D01*
X003064Y016136D02*
X003506Y015694D01*
X003377Y015473D02*
X003398Y015455D01*
X003421Y015438D01*
X003446Y015425D01*
X003471Y015414D01*
X003498Y015406D01*
X003526Y015402D01*
X003554Y015400D01*
X004475Y015400D01*
X004603Y015453D02*
X004925Y015775D01*
X005106Y015850D02*
X005367Y015850D01*
X005509Y015909D02*
X005647Y016047D01*
X005895Y016150D02*
X006350Y016150D01*
X006360Y015650D02*
X006350Y015640D01*
X006360Y015650D02*
X006550Y015650D01*
X006360Y015650D02*
X005326Y015650D01*
X005106Y015850D02*
X005077Y015848D01*
X005049Y015844D01*
X005022Y015836D01*
X004995Y015825D01*
X004970Y015811D01*
X004947Y015794D01*
X004926Y015775D01*
X005026Y015526D02*
X004747Y015247D01*
X004650Y014850D02*
X005315Y014850D01*
X005250Y015015D01*
X005250Y015300D01*
X005026Y015526D02*
X005053Y015551D01*
X005083Y015573D01*
X005114Y015593D01*
X005147Y015610D01*
X005181Y015624D01*
X005216Y015636D01*
X005252Y015644D01*
X005289Y015648D01*
X005326Y015650D01*
X005367Y015850D02*
X005393Y015852D01*
X005419Y015857D01*
X005444Y015865D01*
X005467Y015877D01*
X005489Y015891D01*
X005508Y015909D01*
X005250Y016150D02*
X004850Y016150D01*
X004350Y016650D01*
X004070Y016650D01*
X004050Y016670D01*
X003450Y016425D02*
X003452Y016402D01*
X003456Y016378D01*
X003464Y016356D01*
X003474Y016335D01*
X003487Y016315D01*
X003503Y016298D01*
X003503Y016297D02*
X003617Y016183D01*
X003696Y016150D02*
X004050Y016150D01*
X004050Y015900D02*
X003662Y015900D01*
X003612Y015650D02*
X003589Y015652D01*
X003566Y015657D01*
X003544Y015666D01*
X003524Y015679D01*
X003506Y015694D01*
X003153Y015246D02*
X003186Y015217D01*
X003220Y015190D01*
X003257Y015167D01*
X003296Y015147D01*
X003336Y015130D01*
X003378Y015117D01*
X003420Y015108D01*
X003463Y015102D01*
X003507Y015100D01*
X004392Y015100D01*
X004475Y015400D02*
X004498Y015402D01*
X004522Y015406D01*
X004544Y015414D01*
X004565Y015424D01*
X004585Y015437D01*
X004602Y015453D01*
X004747Y015247D02*
X004715Y015217D01*
X004680Y015191D01*
X004643Y015167D01*
X004604Y015147D01*
X004564Y015130D01*
X004522Y015117D01*
X004479Y015108D01*
X004436Y015102D01*
X004392Y015100D01*
X004050Y015640D02*
X004040Y015650D01*
X003612Y015650D01*
X003556Y015944D02*
X003314Y016186D01*
X002856Y015994D02*
X002827Y016024D01*
X002802Y016057D01*
X002778Y016092D01*
X002758Y016128D01*
X002740Y016166D01*
X002726Y016206D01*
X002715Y016246D01*
X002707Y016287D01*
X002702Y016328D01*
X002700Y016370D01*
X002700Y017100D01*
X002950Y017346D02*
X002948Y017374D01*
X002944Y017402D01*
X002936Y017429D01*
X002925Y017454D01*
X002912Y017479D01*
X002895Y017502D01*
X002877Y017523D01*
X002823Y017577D01*
X003127Y017623D02*
X003145Y017602D01*
X003162Y017579D01*
X003175Y017554D01*
X003186Y017529D01*
X003194Y017502D01*
X003198Y017474D01*
X003200Y017446D01*
X003200Y016462D01*
X002950Y016412D02*
X002952Y016374D01*
X002958Y016336D01*
X002967Y016298D01*
X002980Y016262D01*
X002996Y016228D01*
X003016Y016195D01*
X003039Y016164D01*
X003065Y016136D01*
X002950Y016412D02*
X002950Y017346D01*
X003450Y017546D02*
X003448Y017574D01*
X003444Y017602D01*
X003436Y017629D01*
X003425Y017654D01*
X003412Y017679D01*
X003395Y017702D01*
X003377Y017723D01*
X003323Y017777D01*
X003073Y017677D02*
X003055Y017698D01*
X003038Y017721D01*
X003025Y017746D01*
X003014Y017771D01*
X003006Y017798D01*
X003002Y017826D01*
X003000Y017854D01*
X003000Y021846D01*
X002998Y021874D01*
X002994Y021902D01*
X002986Y021929D01*
X002975Y021954D01*
X002962Y021979D01*
X002945Y022002D01*
X002927Y022023D01*
X003250Y022096D02*
X003250Y017954D01*
X003252Y017926D01*
X003256Y017898D01*
X003264Y017871D01*
X003275Y017846D01*
X003288Y017821D01*
X003305Y017798D01*
X003323Y017777D01*
X003127Y017623D02*
X003073Y017677D01*
X002823Y017577D02*
X002805Y017598D01*
X002788Y017621D01*
X002775Y017646D01*
X002764Y017671D01*
X002756Y017698D01*
X002752Y017726D01*
X002750Y017754D01*
X002750Y021376D01*
X002662Y021588D02*
X002250Y022000D01*
X002396Y022450D02*
X002424Y022448D01*
X002452Y022444D01*
X002479Y022436D01*
X002504Y022425D01*
X002529Y022412D01*
X002552Y022395D01*
X002573Y022377D01*
X002773Y022677D02*
X002755Y022698D01*
X002738Y022721D01*
X002725Y022746D01*
X002714Y022771D01*
X002706Y022798D01*
X002702Y022826D01*
X002700Y022854D01*
X002662Y021588D02*
X002685Y021563D01*
X002704Y021536D01*
X002720Y021506D01*
X002733Y021475D01*
X002742Y021443D01*
X002748Y021410D01*
X002750Y021376D01*
X002250Y021000D02*
X001873Y020623D01*
X001800Y020446D02*
X001800Y017750D01*
X001802Y017720D01*
X001807Y017690D01*
X001816Y017661D01*
X001829Y017634D01*
X001844Y017608D01*
X001863Y017584D01*
X001884Y017563D01*
X001908Y017544D01*
X001934Y017529D01*
X001961Y017516D01*
X001990Y017507D01*
X002020Y017502D01*
X002050Y017500D01*
X002300Y017500D01*
X002339Y017498D01*
X002378Y017492D01*
X002416Y017483D01*
X002453Y017470D01*
X002489Y017453D01*
X002522Y017433D01*
X002554Y017409D01*
X002583Y017383D01*
X002609Y017354D01*
X002633Y017322D01*
X002653Y017289D01*
X002670Y017253D01*
X002683Y017216D01*
X002692Y017178D01*
X002698Y017139D01*
X002700Y017100D01*
X003450Y017546D02*
X003450Y016425D01*
X003200Y016462D02*
X003202Y016424D01*
X003208Y016386D01*
X003217Y016348D01*
X003230Y016312D01*
X003246Y016278D01*
X003266Y016245D01*
X003289Y016214D01*
X003315Y016186D01*
X003556Y015944D02*
X003574Y015929D01*
X003594Y015916D01*
X003616Y015907D01*
X003639Y015902D01*
X003662Y015900D01*
X003696Y016150D02*
X003678Y016151D01*
X003661Y016155D01*
X003645Y016162D01*
X003630Y016171D01*
X003617Y016183D01*
X003100Y014600D02*
X003477Y014223D01*
X003654Y014150D02*
X007564Y014150D01*
X007709Y014450D02*
X007739Y014448D01*
X007769Y014443D01*
X007799Y014435D01*
X007827Y014423D01*
X007853Y014408D01*
X007878Y014391D01*
X007901Y014371D01*
X007900Y014371D02*
X008204Y014067D01*
X008065Y013765D02*
X008086Y013746D01*
X008111Y013730D01*
X008136Y013717D01*
X008164Y013708D01*
X008192Y013702D01*
X008221Y013700D01*
X010276Y013700D01*
X010396Y013400D02*
X010424Y013402D01*
X010452Y013406D01*
X010479Y013414D01*
X010504Y013425D01*
X010529Y013438D01*
X010552Y013455D01*
X010573Y013473D01*
X010951Y013851D01*
X011030Y014042D02*
X011030Y015690D01*
X010800Y015670D02*
X010780Y015690D01*
X010780Y014192D01*
X011030Y014042D02*
X011028Y014012D01*
X011023Y013982D01*
X011015Y013952D01*
X011003Y013924D01*
X010988Y013898D01*
X010971Y013873D01*
X010951Y013850D01*
X010701Y014001D02*
X010488Y013788D01*
X010463Y013765D01*
X010436Y013746D01*
X010406Y013730D01*
X010375Y013717D01*
X010343Y013708D01*
X010310Y013702D01*
X010276Y013700D01*
X010176Y014000D02*
X008366Y014000D01*
X008336Y014002D01*
X008307Y014008D01*
X008278Y014017D01*
X008252Y014031D01*
X008227Y014047D01*
X008204Y014067D01*
X008065Y013765D02*
X007761Y014068D01*
X007738Y014089D01*
X007712Y014107D01*
X007685Y014122D01*
X007656Y014134D01*
X007626Y014143D01*
X007595Y014148D01*
X007564Y014150D01*
X007428Y013850D02*
X003200Y013850D01*
X003477Y014223D02*
X003498Y014205D01*
X003521Y014188D01*
X003546Y014175D01*
X003571Y014164D01*
X003598Y014156D01*
X003626Y014152D01*
X003654Y014150D01*
X003850Y014450D02*
X007709Y014450D01*
X007643Y013761D02*
X007932Y013472D01*
X007821Y013124D02*
X007843Y013105D01*
X007866Y013089D01*
X007891Y013075D01*
X007917Y013064D01*
X007944Y013056D01*
X007973Y013052D01*
X008001Y013050D01*
X010600Y013050D01*
X010396Y013400D02*
X008106Y013400D01*
X008078Y013402D01*
X008051Y013406D01*
X008025Y013414D01*
X007999Y013424D01*
X007975Y013438D01*
X007953Y013454D01*
X007932Y013472D01*
X007821Y013124D02*
X007532Y013413D01*
X007643Y013761D02*
X007618Y013784D01*
X007590Y013803D01*
X007560Y013820D01*
X007528Y013833D01*
X007496Y013842D01*
X007462Y013848D01*
X007428Y013850D01*
X007323Y013500D02*
X001300Y013500D01*
X001258Y013499D01*
X001217Y013503D01*
X001176Y013509D01*
X001136Y013520D01*
X001097Y013534D01*
X001059Y013551D01*
X001023Y013571D01*
X000989Y013595D01*
X000957Y013621D01*
X000927Y013650D01*
X000900Y013682D01*
X000876Y013716D01*
X000855Y013751D01*
X000837Y013789D01*
X000822Y013828D01*
X000811Y013868D01*
X000804Y013909D01*
X000800Y013950D01*
X000800Y016446D01*
X000873Y016623D02*
X001250Y017000D01*
X000873Y016623D02*
X000855Y016602D01*
X000838Y016579D01*
X000825Y016554D01*
X000814Y016529D01*
X000806Y016502D01*
X000802Y016474D01*
X000800Y016446D01*
X001750Y015926D02*
X001752Y015892D01*
X001758Y015858D01*
X001767Y015826D01*
X001780Y015794D01*
X001797Y015764D01*
X001816Y015736D01*
X001839Y015711D01*
X001911Y015639D02*
X001936Y015616D01*
X001964Y015597D01*
X001994Y015580D01*
X002026Y015567D01*
X002058Y015558D01*
X002092Y015552D01*
X002126Y015550D01*
X004526Y011850D02*
X005650Y011850D01*
X005835Y012035D01*
X005835Y012500D01*
X006035Y012700D01*
X009850Y012700D01*
X010850Y011700D01*
X010850Y010450D01*
X012100Y009200D01*
X015500Y009200D01*
X016800Y007900D01*
X016800Y006850D01*
X017675Y005975D01*
X017725Y005975D01*
X018050Y006300D01*
X017675Y005975D02*
X018000Y005650D01*
X020000Y005650D01*
X020800Y006450D01*
X020800Y016450D01*
X020250Y017000D01*
X021250Y017000D02*
X021750Y016500D01*
X021750Y006750D01*
X020250Y005250D01*
X018050Y005250D01*
X017900Y005250D01*
X016350Y006800D01*
X016350Y007800D01*
X015350Y008800D01*
X006915Y008800D01*
X006215Y009500D01*
X005826Y009500D01*
X005611Y009589D02*
X005524Y009676D01*
X005400Y009976D02*
X005400Y011026D01*
X005150Y010750D02*
X005050Y010850D01*
X004526Y010850D01*
X004526Y011350D02*
X005041Y011350D01*
X005312Y011238D02*
X005335Y011213D01*
X005354Y011186D01*
X005370Y011156D01*
X005383Y011125D01*
X005392Y011093D01*
X005398Y011060D01*
X005400Y011026D01*
X005150Y010750D02*
X005150Y010100D01*
X004300Y009250D01*
X004300Y008550D01*
X004465Y007450D02*
X003950Y007450D01*
X005135Y007450D02*
X005300Y007615D01*
X005300Y008550D01*
X005611Y009589D02*
X005636Y009566D01*
X005664Y009547D01*
X005694Y009530D01*
X005726Y009517D01*
X005758Y009508D01*
X005792Y009502D01*
X005826Y009500D01*
X005524Y009676D02*
X005499Y009703D01*
X005477Y009733D01*
X005457Y009764D01*
X005440Y009797D01*
X005426Y009831D01*
X005414Y009866D01*
X005406Y009902D01*
X005402Y009939D01*
X005400Y009976D01*
X005312Y011238D02*
X005284Y011263D01*
X005254Y011285D01*
X005222Y011305D01*
X005188Y011321D01*
X005152Y011334D01*
X005116Y011343D01*
X005079Y011348D01*
X005041Y011350D01*
X005165Y012700D02*
X004700Y012700D01*
X005835Y012700D02*
X005835Y012500D01*
X006800Y011600D02*
X006574Y011374D01*
X006574Y011350D01*
X006800Y011600D02*
X007050Y011600D01*
X007600Y012150D01*
X008550Y012150D01*
X008535Y012135D01*
X008535Y011600D01*
X008550Y012150D02*
X009330Y012150D01*
X009330Y011050D02*
X008500Y011050D01*
X008535Y011015D01*
X008535Y010550D01*
X008550Y010150D02*
X008535Y010135D01*
X008535Y009600D01*
X008550Y010150D02*
X006774Y010150D01*
X006574Y010350D01*
X006574Y010850D02*
X006774Y011050D01*
X008500Y011050D01*
X008550Y010150D02*
X009330Y010150D01*
X007450Y009600D02*
X006985Y009600D01*
X006885Y009500D01*
X007532Y013413D02*
X007508Y013435D01*
X007480Y013455D01*
X007451Y013471D01*
X007421Y013483D01*
X007389Y013493D01*
X007356Y013498D01*
X007323Y013500D01*
X006450Y014850D02*
X005985Y014850D01*
X005648Y016047D02*
X005673Y016071D01*
X005701Y016091D01*
X005730Y016109D01*
X005761Y016123D01*
X005793Y016135D01*
X005827Y016143D01*
X005861Y016148D01*
X005895Y016150D01*
X005500Y019100D02*
X005485Y019100D01*
X005765Y022050D02*
X005765Y022900D01*
X005900Y023035D01*
X005900Y023900D01*
X005900Y024350D02*
X005900Y024365D01*
X005270Y024730D02*
X005110Y024730D01*
X004035Y022885D02*
X003900Y022885D01*
X003900Y022215D02*
X004750Y022215D01*
X006435Y022050D02*
X006435Y022900D01*
X007950Y022885D02*
X008085Y022885D01*
X007950Y022215D02*
X008800Y022215D01*
X009865Y022050D02*
X009865Y022900D01*
X009950Y022985D01*
X010535Y022900D02*
X010535Y022050D01*
X009400Y024700D02*
X009190Y024700D01*
X009160Y024730D01*
X009160Y025470D02*
X009160Y025500D01*
X009200Y025500D01*
X008850Y027700D02*
X008835Y027700D01*
X010000Y029850D02*
X010050Y029850D01*
X010050Y029950D01*
X012190Y032770D02*
X012085Y032875D01*
X012085Y033450D01*
X012885Y031350D02*
X012885Y031300D01*
X012850Y031300D01*
X013865Y026665D02*
X013865Y026600D01*
X012885Y026535D02*
X012850Y026535D01*
X012850Y025865D02*
X012000Y025865D01*
X012000Y026535D02*
X012135Y026535D01*
X012015Y026550D02*
X012000Y026535D01*
X015150Y021900D02*
X015100Y021850D01*
X015100Y021265D01*
X015800Y018065D02*
X015800Y018050D01*
X014750Y017300D02*
X014735Y017300D01*
X013600Y017300D02*
X013300Y017300D01*
X012950Y016950D01*
X013000Y015750D02*
X011800Y016550D01*
X009750Y016550D01*
X009500Y016300D01*
X009500Y015850D01*
X009710Y015690D01*
X009750Y015690D01*
X010000Y015700D02*
X010000Y016250D01*
X010000Y015700D02*
X010010Y015690D01*
X010520Y015690D02*
X010520Y014337D01*
X010780Y014192D02*
X010778Y014162D01*
X010773Y014132D01*
X010765Y014102D01*
X010753Y014074D01*
X010738Y014048D01*
X010721Y014023D01*
X010701Y014000D01*
X010438Y014138D02*
X010388Y014088D01*
X010437Y014138D02*
X010458Y014161D01*
X010477Y014187D01*
X010492Y014215D01*
X010504Y014244D01*
X010513Y014274D01*
X010518Y014305D01*
X010520Y014337D01*
X010388Y014088D02*
X010363Y014065D01*
X010336Y014046D01*
X010306Y014030D01*
X010275Y014017D01*
X010243Y014008D01*
X010210Y014002D01*
X010176Y014000D01*
X009415Y014900D02*
X009400Y014900D01*
X011000Y016250D02*
X011100Y016250D01*
X011300Y016050D01*
X011300Y015420D01*
X011290Y015410D01*
X011290Y015690D01*
X011290Y015410D02*
X011500Y015200D01*
X011865Y015200D01*
X012200Y015535D01*
X012200Y014865D02*
X012200Y014350D01*
X013000Y014350D02*
X013000Y014865D01*
X013000Y015535D02*
X013000Y015750D01*
X011850Y016150D02*
X011650Y016150D01*
X011550Y016050D01*
X011550Y015690D01*
X009750Y017910D02*
X009724Y017933D01*
X009696Y017953D01*
X009666Y017970D01*
X009634Y017983D01*
X009601Y017992D01*
X009567Y017998D01*
X009533Y018000D01*
X009450Y018000D01*
X014515Y015000D02*
X014515Y014876D01*
X014545Y014805D02*
X014700Y014650D01*
X014909Y014650D01*
X014979Y014621D02*
X015400Y014200D01*
X016359Y014200D01*
X016429Y014171D02*
X016550Y014050D01*
X016550Y013541D01*
X016521Y013471D02*
X016550Y013450D01*
X016521Y013470D02*
X016533Y013485D01*
X016542Y013503D01*
X016548Y013521D01*
X016550Y013541D01*
X016430Y014171D02*
X016415Y014183D01*
X016397Y014192D01*
X016379Y014198D01*
X016359Y014200D01*
X015880Y014450D02*
X016900Y015470D01*
X016900Y016050D01*
X017935Y017550D02*
X017935Y017600D01*
X017935Y017550D02*
X018000Y017550D01*
X018310Y018650D02*
X018350Y018650D01*
X017615Y019700D02*
X017600Y019700D01*
X018550Y020450D02*
X018700Y020450D01*
X019200Y019950D01*
X018285Y024700D02*
X018250Y024700D01*
X017615Y024700D02*
X017600Y024700D01*
X017915Y025750D02*
X017915Y026600D01*
X017850Y026600D01*
X018585Y026600D02*
X018585Y025750D01*
X016900Y025765D02*
X016050Y025765D01*
X016050Y026435D02*
X016185Y026435D01*
X017260Y028380D02*
X017320Y028380D01*
X016950Y031350D02*
X016935Y031350D01*
X015300Y014885D02*
X015300Y014550D01*
X015400Y014450D01*
X015880Y014450D01*
X014980Y014621D02*
X014965Y014633D01*
X014947Y014642D01*
X014929Y014648D01*
X014909Y014650D01*
X014544Y014805D02*
X014532Y014820D01*
X014523Y014838D01*
X014517Y014856D01*
X014515Y014876D01*
X017820Y011820D02*
X018470Y011820D01*
X018650Y012000D01*
X018050Y005250D02*
X018050Y004700D01*
X005000Y003900D02*
X003850Y005050D01*
X003550Y011035D02*
X003550Y011050D01*
X001800Y020446D02*
X001802Y020474D01*
X001806Y020502D01*
X001814Y020529D01*
X001825Y020554D01*
X001838Y020579D01*
X001855Y020602D01*
X001873Y020623D01*
X000750Y026396D02*
X000752Y026424D01*
X000756Y026452D01*
X000764Y026479D01*
X000775Y026504D01*
X000788Y026529D01*
X000805Y026552D01*
X000823Y026573D01*
X005110Y029120D02*
X005270Y029120D01*
D40*
X005320Y029170D02*
X005650Y029500D01*
X006000Y029500D01*
X005950Y029550D01*
X005950Y029850D01*
X006000Y029500D02*
X006450Y029500D01*
X006700Y029250D01*
X006250Y030450D02*
X006900Y031100D01*
X006400Y031600D02*
X006900Y032100D01*
X006400Y031600D02*
X005650Y031600D01*
X004900Y030850D01*
X004050Y030850D01*
X003650Y030450D01*
X003650Y028750D01*
X003315Y028415D01*
X003315Y026150D01*
X003985Y026150D02*
X003985Y025575D01*
X004090Y025470D01*
X004650Y025600D02*
X004650Y024900D01*
X004820Y024730D01*
X005110Y024730D01*
X005270Y024730D02*
X005550Y024450D01*
X005550Y023685D01*
X004750Y022885D01*
X004750Y022215D02*
X004750Y022150D01*
X005800Y021100D01*
X005800Y020100D02*
X006350Y019550D01*
X006350Y018460D01*
X006350Y017950D02*
X006350Y017690D01*
X006330Y017200D02*
X006050Y017200D01*
X006330Y017200D02*
X006350Y017180D01*
X006350Y016920D02*
X006348Y016912D01*
X006344Y016906D01*
X006338Y016902D01*
X006330Y016900D01*
X006000Y016900D01*
X004600Y017750D02*
X004400Y017950D01*
X004050Y017950D01*
X004050Y018200D02*
X004600Y018200D01*
X004050Y018460D02*
X004050Y018750D01*
X006435Y021915D02*
X006435Y022050D01*
X006435Y021915D02*
X007250Y021100D01*
X007250Y020100D02*
X007250Y019400D01*
X009500Y017150D01*
X010850Y017150D01*
X011030Y017330D01*
X011030Y017910D01*
X011290Y017910D02*
X011290Y017190D01*
X011000Y016900D01*
X009250Y016900D01*
X009100Y017050D01*
X009650Y017400D02*
X008500Y018550D01*
X008500Y019450D01*
X008850Y018950D02*
X008850Y018650D01*
X009150Y018350D01*
X009850Y018350D01*
X010010Y018190D01*
X010010Y017910D01*
X010270Y017910D02*
X010270Y017520D01*
X010150Y017400D01*
X009650Y017400D01*
X009550Y021050D02*
X010050Y021050D01*
X010535Y021535D01*
X010535Y022050D01*
X010535Y022900D02*
X010500Y022935D01*
X010500Y023450D01*
X009950Y023900D02*
X009950Y022985D01*
X009600Y023685D02*
X009600Y024500D01*
X009400Y024700D01*
X009160Y024730D02*
X008870Y024730D01*
X008700Y024900D01*
X008700Y025600D01*
X008850Y025750D01*
X009200Y025750D01*
X009300Y025850D01*
X009300Y026135D01*
X009285Y026150D01*
X009400Y026150D01*
X009800Y026550D01*
X010550Y026400D02*
X010550Y025500D01*
X009950Y024400D02*
X009935Y024400D01*
X009950Y024365D01*
X009900Y024350D01*
X009600Y023685D02*
X008800Y022885D01*
X008800Y023600D02*
X008085Y022885D01*
X007950Y022215D02*
X007835Y022100D01*
X007200Y022100D01*
X006435Y022900D02*
X006700Y023165D01*
X006700Y023450D01*
X005850Y024300D02*
X005850Y024315D01*
X005885Y024350D01*
X005900Y024350D01*
X005150Y025750D02*
X005250Y025850D01*
X005250Y026135D01*
X005235Y026150D01*
X005350Y026150D01*
X005750Y026550D01*
X005150Y025750D02*
X004800Y025750D01*
X004650Y025600D01*
X004565Y026150D02*
X003985Y026150D01*
X004750Y027700D02*
X004785Y027700D01*
X004800Y027700D01*
X004820Y028380D02*
X004650Y028550D01*
X004650Y029250D01*
X004800Y029400D01*
X005150Y029400D01*
X005250Y029500D01*
X005250Y029785D01*
X005235Y029800D01*
X005235Y030185D01*
X005500Y030450D01*
X006250Y030450D01*
X005320Y029170D02*
X005160Y029170D01*
X005110Y029120D01*
X005110Y028380D02*
X004820Y028380D01*
X004090Y029120D02*
X004060Y029150D01*
X004050Y029150D01*
X004050Y029700D01*
X004055Y029695D01*
X004090Y029695D01*
X003985Y029800D01*
X004565Y029800D01*
X004050Y029750D02*
X004050Y029700D01*
X005900Y028015D02*
X005900Y028000D01*
X005900Y028015D02*
X005935Y028050D01*
X005950Y028050D01*
X007365Y026715D02*
X007365Y026150D01*
X007365Y026715D02*
X007400Y026750D01*
X008035Y026150D02*
X008035Y025575D01*
X008140Y025470D01*
X008035Y026150D02*
X008615Y026150D01*
X008800Y024050D02*
X008835Y024050D01*
X008850Y024050D01*
X009950Y028000D02*
X009950Y028015D01*
X009985Y028050D01*
X010000Y028050D01*
X009160Y028380D02*
X008870Y028380D01*
X008700Y028550D01*
X008700Y029250D01*
X008850Y029400D01*
X009200Y029400D01*
X009300Y029500D01*
X009300Y029785D01*
X009285Y029800D01*
X009300Y029815D01*
X009300Y030150D01*
X008950Y030500D01*
X008150Y030500D01*
X007900Y030750D01*
X007900Y031100D01*
X008400Y031600D02*
X008400Y032550D01*
X009250Y033400D01*
X010450Y033400D01*
X010900Y032950D01*
X011550Y032950D01*
X011750Y033150D01*
X011750Y033750D01*
X011900Y033900D01*
X013200Y033900D01*
X013350Y033750D01*
X013350Y033465D01*
X013335Y033450D01*
X013350Y033385D01*
X013350Y033150D01*
X013250Y033050D01*
X012900Y033050D01*
X012750Y032900D01*
X012750Y032200D01*
X012920Y032030D01*
X013210Y032030D01*
X013210Y032770D02*
X013370Y032770D01*
X013700Y033100D01*
X014050Y033100D01*
X014000Y033150D01*
X014000Y033450D01*
X014050Y033100D02*
X014500Y033100D01*
X014750Y032850D01*
X014000Y031700D02*
X014000Y031665D01*
X014000Y031650D01*
X014750Y031200D02*
X014750Y030200D01*
X015450Y030300D02*
X015450Y029815D01*
X015465Y029800D01*
X016135Y029800D02*
X016135Y029225D01*
X016240Y029120D01*
X016135Y029800D02*
X016715Y029800D01*
X016950Y029400D02*
X016800Y029250D01*
X016800Y028550D01*
X016970Y028380D01*
X017260Y028380D01*
X017320Y028380D02*
X017700Y028000D01*
X017700Y027235D01*
X016900Y026435D01*
X016900Y027150D02*
X016185Y026435D01*
X016050Y025765D02*
X015335Y025765D01*
X015300Y025800D01*
X014535Y025750D02*
X014535Y025435D01*
X014350Y025250D01*
X014535Y025750D02*
X014535Y026600D01*
X014750Y026815D01*
X014750Y027150D01*
X014000Y026800D02*
X014000Y027550D01*
X014000Y028000D02*
X013985Y028050D01*
X014000Y028015D01*
X013950Y028000D01*
X013650Y027940D02*
X013210Y028380D01*
X012920Y028380D01*
X012750Y028550D01*
X012750Y029250D01*
X012900Y029400D01*
X013250Y029400D01*
X013350Y029500D01*
X013350Y029785D01*
X013335Y029800D01*
X013450Y029800D01*
X013850Y030200D01*
X012665Y029800D02*
X012085Y029800D01*
X012085Y029225D01*
X012190Y029120D01*
X011415Y029800D02*
X011400Y029815D01*
X011400Y030300D01*
X010500Y029500D02*
X010750Y029250D01*
X010500Y029500D02*
X010050Y029500D01*
X010000Y029550D01*
X010000Y029850D01*
X010050Y029500D02*
X009700Y029500D01*
X009370Y029170D01*
X009210Y029170D01*
X009160Y029120D01*
X008615Y029800D02*
X008035Y029800D01*
X008035Y029225D01*
X008140Y029120D01*
X008900Y031100D02*
X008400Y031600D01*
X009400Y031600D02*
X009400Y032650D01*
X009750Y033000D01*
X009400Y031600D02*
X009900Y031100D01*
X012190Y032770D02*
X012190Y032810D01*
X012085Y033450D02*
X012665Y033450D01*
X016050Y034100D02*
X017100Y034100D01*
X017350Y033850D01*
X017350Y033485D01*
X017385Y033450D01*
X017400Y033435D01*
X017400Y033150D01*
X017300Y033050D01*
X017000Y033050D01*
X016850Y032900D01*
X016850Y032150D01*
X016970Y032030D01*
X017260Y032030D01*
X017260Y032770D02*
X017420Y032770D01*
X017750Y033100D01*
X018150Y033100D01*
X018100Y033150D01*
X018100Y033450D01*
X018150Y033100D02*
X018600Y033100D01*
X018850Y032850D01*
X018850Y026865D01*
X018585Y026600D01*
X018050Y026800D02*
X017850Y026600D01*
X018050Y026800D02*
X018050Y027550D01*
X018000Y028000D02*
X018050Y028015D01*
X018035Y028050D01*
X018050Y028050D01*
X017300Y029400D02*
X017400Y029500D01*
X017400Y029785D01*
X017385Y029800D01*
X017500Y029800D01*
X017900Y030200D01*
X017300Y029400D02*
X016950Y029400D01*
X016950Y027600D02*
X016935Y027600D01*
X016900Y027600D01*
X018585Y025750D02*
X018585Y025665D01*
X018950Y025300D01*
X018050Y031650D02*
X018050Y031665D01*
X018085Y031700D01*
X018100Y031700D01*
X016715Y033450D02*
X016135Y033450D01*
X016135Y032875D01*
X016240Y032770D01*
X013650Y027940D02*
X013650Y027300D01*
X012885Y026535D01*
X012850Y027250D02*
X012135Y026535D01*
X012000Y025865D02*
X012000Y025400D01*
X011900Y024550D02*
X011900Y023801D01*
X012900Y022100D02*
X013350Y022100D01*
X014100Y022850D01*
X014100Y023950D01*
X013865Y025750D02*
X013865Y026600D01*
X013865Y026665D02*
X014000Y026800D01*
X012900Y027700D02*
X012885Y027700D01*
X012850Y027700D01*
X004800Y024050D02*
X004785Y024050D01*
X004750Y024050D01*
X004750Y023600D02*
X004035Y022885D01*
X007450Y011600D02*
X007865Y011600D01*
X007865Y010550D02*
X007450Y010550D01*
X007450Y009600D02*
X007865Y009600D01*
D41*
X016550Y013450D03*
X017150Y013450D03*
D42*
X008500Y015650D03*
X008500Y017600D03*
D43*
X008500Y016950D01*
X008500Y016350D02*
X008500Y015650D01*
X018000Y007050D02*
X018100Y006950D01*
X019000Y006950D01*
X019600Y006950D02*
X020300Y006950D01*
D44*
X019350Y017650D03*
X006150Y005700D03*
M02*
