G75*
G70*
%OFA0B0*%
%FSLAX24Y24*%
%IPPOS*%
%LPD*%
%AMOC8*
5,1,8,0,0,1.08239X$1,22.5*
%
%ADD10R,0.0591X0.0591*%
%ADD11C,0.0591*%
%ADD12OC8,0.1005*%
%ADD13OC8,0.0660*%
%ADD14C,0.0270*%
%ADD15C,0.0120*%
%ADD16C,0.0376*%
%ADD17C,0.0320*%
%ADD18C,0.0160*%
%ADD19C,0.0100*%
%ADD20C,0.0180*%
%ADD21C,0.0240*%
D10*
X002250Y008000D03*
X015500Y003250D03*
X021250Y008000D03*
D11*
X021250Y009000D03*
X021250Y010000D03*
X021250Y011000D03*
X021250Y012000D03*
X021250Y013000D03*
X021250Y014000D03*
X021250Y015000D03*
X021250Y016000D03*
X021250Y017000D03*
X021250Y018000D03*
X021250Y019000D03*
X021250Y020000D03*
X021250Y021000D03*
X021250Y022000D03*
X021250Y023000D03*
X021250Y024000D03*
X021250Y025000D03*
X021250Y026000D03*
X021250Y027000D03*
X021250Y028000D03*
X021250Y029000D03*
X021250Y030000D03*
X020250Y030000D03*
X020250Y029000D03*
X020250Y028000D03*
X020250Y027000D03*
X020250Y026000D03*
X020250Y025000D03*
X020250Y024000D03*
X020250Y023000D03*
X020250Y022000D03*
X020250Y021000D03*
X020250Y020000D03*
X020250Y019000D03*
X020250Y018000D03*
X020250Y017000D03*
X020250Y016000D03*
X020250Y015000D03*
X020250Y014000D03*
X020250Y013000D03*
X020250Y012000D03*
X020250Y011000D03*
X020250Y010000D03*
X020250Y009000D03*
X020250Y008000D03*
X015500Y007250D03*
X015500Y006250D03*
X015500Y005250D03*
X015500Y004250D03*
X014500Y004250D03*
X014500Y003250D03*
X014500Y005250D03*
X014500Y006250D03*
X014500Y007250D03*
X002250Y009000D03*
X002250Y010000D03*
X002250Y011000D03*
X002250Y012000D03*
X002250Y013000D03*
X002250Y014000D03*
X002250Y015000D03*
X002250Y016000D03*
X002250Y017000D03*
X002250Y018000D03*
X002250Y019000D03*
X002250Y020000D03*
X002250Y021000D03*
X002250Y022000D03*
X002250Y023000D03*
X002250Y024000D03*
X002250Y025000D03*
X002250Y026000D03*
X002250Y027000D03*
X002250Y028000D03*
X002250Y029000D03*
X002250Y030000D03*
X001250Y030000D03*
X001250Y029000D03*
X001250Y028000D03*
X001250Y027000D03*
X001250Y026000D03*
X001250Y025000D03*
X001250Y024000D03*
X001250Y023000D03*
X001250Y022000D03*
X001250Y021000D03*
X001250Y020000D03*
X001250Y019000D03*
X001250Y018000D03*
X001250Y017000D03*
X001250Y016000D03*
X001250Y015000D03*
X001250Y014000D03*
X001250Y013000D03*
X001250Y012000D03*
X001250Y011000D03*
X001250Y010000D03*
X001250Y009000D03*
X001250Y008000D03*
D12*
X001250Y003500D03*
X006000Y003500D03*
X019800Y032700D03*
X010700Y033800D03*
X009500Y033800D03*
D13*
X008050Y033900D03*
X008050Y032900D03*
X007050Y032900D03*
X007050Y033900D03*
X006050Y033900D03*
X006050Y032900D03*
X005050Y032900D03*
X005050Y033900D03*
X004050Y033900D03*
X004050Y032900D03*
X003050Y032900D03*
X003050Y033900D03*
X002050Y033900D03*
X002050Y032900D03*
X001050Y032900D03*
X001050Y033900D03*
X012200Y033900D03*
X012200Y032900D03*
X013200Y032900D03*
X013200Y033900D03*
X014200Y033900D03*
X014200Y032900D03*
X015200Y032900D03*
X015200Y033900D03*
X016200Y033900D03*
X016200Y032900D03*
D14*
X015350Y031650D03*
X015000Y031100D03*
X014500Y030600D03*
X014500Y030000D03*
X014000Y030000D03*
X014000Y029200D03*
X014500Y029200D03*
X014500Y028600D03*
X015000Y028100D03*
X015900Y028500D03*
X016150Y027500D03*
X016600Y027000D03*
X016100Y025650D03*
X016300Y024500D03*
X015950Y024350D03*
X016350Y023900D03*
X016200Y023200D03*
X016700Y022700D03*
X017200Y021500D03*
X016700Y021000D03*
X015600Y019200D03*
X015400Y018900D03*
X015200Y018600D03*
X015600Y018600D03*
X015200Y019200D03*
X016300Y018100D03*
X015600Y016400D03*
X015400Y016100D03*
X015200Y015800D03*
X015600Y015800D03*
X015200Y016400D03*
X014500Y016900D03*
X012600Y015500D03*
X010000Y013400D03*
X010400Y010100D03*
X009400Y010100D03*
X007700Y009500D03*
X007700Y008900D03*
X005500Y011800D03*
X003800Y012000D03*
X003300Y011500D03*
X003800Y010400D03*
X004700Y009300D03*
X003600Y006200D03*
X002400Y007000D03*
X007500Y012700D03*
X007350Y013400D03*
X007700Y015000D03*
X006900Y015000D03*
X006100Y015000D03*
X005300Y015000D03*
X004500Y015000D03*
X003700Y015000D03*
X004100Y016500D03*
X003500Y017100D03*
X004900Y016500D03*
X005400Y017100D03*
X005450Y017900D03*
X006850Y018600D03*
X005900Y019800D03*
X005050Y019800D03*
X004700Y020200D03*
X004650Y022000D03*
X004200Y022750D03*
X003000Y023500D03*
X003550Y024550D03*
X004900Y025900D03*
X005300Y027000D03*
X005750Y026900D03*
X006120Y025580D03*
X007100Y025800D03*
X007550Y026600D03*
X008300Y026700D03*
X009200Y026550D03*
X009900Y026550D03*
X010500Y026550D03*
X011200Y026550D03*
X011800Y026550D03*
X012500Y026550D03*
X013000Y026550D03*
X013800Y026550D03*
X014800Y025650D03*
X014850Y024650D03*
X015700Y023100D03*
X015000Y021600D03*
X013900Y022450D03*
X013400Y023000D03*
X013400Y021400D03*
X013000Y019800D03*
X012600Y019800D03*
X012200Y019800D03*
X011800Y019800D03*
X011500Y022150D03*
X011550Y023800D03*
X009900Y024600D03*
X008750Y025500D03*
X008300Y024900D03*
X007900Y024700D03*
X007400Y024400D03*
X007300Y024000D03*
X007300Y024900D03*
X008600Y024000D03*
X007110Y022860D03*
X006850Y021950D03*
X006600Y022300D03*
X005600Y022000D03*
X008000Y018500D03*
X008350Y018900D03*
X008350Y019600D03*
X008000Y018000D03*
X008000Y017450D03*
X007500Y016950D03*
X009550Y020200D03*
X009500Y020800D03*
X008900Y021300D03*
X009500Y028100D03*
X009000Y028600D03*
X009000Y029200D03*
X009000Y030000D03*
X009000Y030600D03*
X009500Y031100D03*
X011000Y029300D03*
X011100Y029700D03*
X011900Y029700D03*
X012000Y029300D03*
X013050Y028600D03*
X013500Y028100D03*
X015300Y026800D03*
X017000Y029200D03*
X016600Y030200D03*
X017400Y030200D03*
X018100Y028500D03*
X019000Y028100D03*
X019600Y029200D03*
X019600Y030000D03*
X019000Y031100D03*
X018700Y026900D03*
X018150Y026950D03*
X017600Y026900D03*
X017400Y025650D03*
X018700Y025650D03*
X017700Y023700D03*
X017900Y023300D03*
X018050Y022950D03*
X019200Y022500D03*
X018200Y019400D03*
X018000Y015200D03*
X018400Y015200D03*
X018800Y015200D03*
X017400Y012650D03*
X017400Y012150D03*
X017400Y011650D03*
X016900Y011650D03*
X016900Y011150D03*
X016400Y011150D03*
X016400Y011650D03*
X016400Y012150D03*
X016400Y012650D03*
X016900Y012650D03*
X016900Y012150D03*
X017900Y011650D03*
X018400Y011650D03*
X018400Y011150D03*
X018900Y011150D03*
X018900Y011650D03*
X015900Y011650D03*
X015900Y011150D03*
X015400Y011150D03*
X015400Y011650D03*
X016700Y001100D03*
X000850Y024550D03*
X004150Y026600D03*
X004650Y027050D03*
X013100Y032200D03*
X013500Y031100D03*
D15*
X013100Y032200D02*
X012200Y031300D01*
X012200Y030000D01*
X013050Y029200D01*
X013050Y028600D01*
X012000Y029300D02*
X012000Y027400D01*
X012400Y027000D01*
X012600Y027000D01*
X013000Y026550D01*
X012900Y026450D01*
X012900Y025800D01*
X012600Y025500D01*
X009150Y025500D01*
X008850Y025200D01*
X006100Y025200D01*
X006000Y025300D01*
X006000Y025460D01*
X006120Y025580D01*
X007100Y025800D02*
X011500Y025800D01*
X011600Y025900D01*
X011600Y026350D01*
X011800Y026550D01*
X011800Y027300D01*
X011700Y027400D01*
X011700Y029500D01*
X011900Y029700D01*
X011300Y029500D02*
X011300Y027400D01*
X010500Y026550D01*
X010600Y027000D02*
X009650Y027000D01*
X009200Y026550D01*
X008800Y024900D02*
X009600Y024900D01*
X009900Y024600D01*
X008800Y024900D02*
X008300Y024400D01*
X007400Y024400D01*
X007300Y024000D02*
X008600Y024000D01*
X007850Y022850D02*
X012250Y022850D01*
X013750Y024350D01*
X015950Y024350D01*
X015850Y024100D02*
X016050Y023900D01*
X016350Y023900D01*
X015850Y024100D02*
X013850Y024100D01*
X012350Y022600D01*
X008050Y022600D01*
X007650Y022200D01*
X007100Y022200D01*
X006850Y021950D01*
X006600Y022300D02*
X006800Y022500D01*
X007500Y022500D01*
X007850Y022850D01*
X007350Y023100D02*
X012200Y023100D01*
X013750Y024650D01*
X014850Y024650D01*
X015800Y022700D02*
X016700Y022700D01*
X017000Y022050D02*
X017000Y023800D01*
X016300Y024500D01*
X015800Y022700D02*
X015550Y022450D01*
X013900Y022450D01*
X015450Y020500D02*
X017000Y022050D01*
X017200Y021500D02*
X020400Y021500D01*
X020750Y021850D01*
X020750Y024500D01*
X021250Y025000D01*
X018700Y026900D02*
X018700Y028100D01*
X018300Y028500D01*
X018100Y028500D01*
X017800Y027100D02*
X017950Y026950D01*
X018150Y026950D01*
X017800Y027100D02*
X017800Y032900D01*
X017300Y033400D01*
X015700Y033400D01*
X015200Y033900D01*
X015350Y033400D02*
X014700Y033400D01*
X014200Y033900D01*
X014350Y033400D02*
X013700Y033400D01*
X013200Y033900D01*
X014350Y033400D02*
X014700Y033050D01*
X014700Y032300D01*
X015350Y031650D01*
X016200Y032100D02*
X015700Y032600D01*
X015700Y033050D01*
X015350Y033400D01*
X016200Y032100D02*
X016200Y027550D01*
X016150Y027500D01*
X016600Y027000D02*
X016600Y030200D01*
X017400Y030200D02*
X017400Y027100D01*
X017600Y026900D01*
X015900Y028500D02*
X015700Y028500D01*
X015300Y028100D01*
X015300Y026800D01*
X011300Y029500D02*
X011100Y029700D01*
X011000Y029300D02*
X011000Y027400D01*
X010600Y027000D01*
X007350Y023100D02*
X007110Y022860D01*
X008350Y018900D02*
X009050Y018900D01*
X010650Y020500D01*
X015450Y020500D01*
D16*
X014300Y031700D03*
X016500Y032200D03*
X017450Y032200D03*
D17*
X016500Y032200D01*
X014300Y031700D02*
X014000Y031400D01*
X014000Y030000D01*
X014000Y029200D01*
D18*
X016600Y019400D02*
X016300Y019100D01*
X016300Y018100D01*
X016600Y019400D02*
X018200Y019400D01*
D19*
X020250Y017000D02*
X020800Y016450D01*
X020800Y007147D01*
X020353Y006700D01*
X015141Y006700D01*
X015000Y006841D01*
X015000Y007826D01*
X013826Y009000D01*
X008200Y009000D01*
X007700Y009500D01*
X007700Y008900D02*
X007800Y008800D01*
X013726Y008800D01*
X014000Y008526D01*
X014000Y005941D01*
X014141Y005800D01*
X021376Y005800D01*
X021700Y006224D01*
X021700Y016550D01*
X021250Y017000D01*
X010000Y013400D02*
X007350Y013400D01*
X005500Y011800D02*
X005500Y010600D01*
X005300Y010400D01*
X004900Y010400D01*
X004700Y010200D01*
X004700Y009300D01*
X004700Y020200D02*
X005600Y021100D01*
X005600Y022000D01*
X004650Y022000D02*
X004200Y022450D01*
X004200Y022750D01*
X003550Y024550D02*
X000850Y024550D01*
D20*
X012600Y015500D02*
X014200Y015500D01*
X014500Y015800D01*
X014500Y016900D01*
D21*
X014300Y021600D02*
X013750Y022150D01*
X011500Y022150D01*
X014300Y021600D02*
X015000Y021600D01*
X017700Y023700D02*
X017000Y024400D01*
X017000Y029200D01*
M02*
