G75*
G70*
%OFA0B0*%
%FSLAX24Y24*%
%IPPOS*%
%LPD*%
%AMOC8*
5,1,8,0,0,1.08239X$1,22.5*
%
%ADD10C,0.0591*%
%ADD11C,0.1005*%
%ADD12C,0.0600*%
%ADD13C,0.0270*%
%ADD14C,0.0376*%
%ADD15C,0.0100*%
%ADD16C,0.0240*%
D10*
X001250Y008000D03*
X001250Y009000D03*
X001250Y010000D03*
X001250Y011000D03*
X001250Y012000D03*
X001250Y013000D03*
X001250Y014000D03*
X001250Y015000D03*
X001250Y016000D03*
X001250Y017000D03*
X001250Y018000D03*
X001250Y019000D03*
X001250Y020000D03*
X001250Y021000D03*
X001250Y022000D03*
X001250Y023000D03*
X001250Y024000D03*
X001250Y025000D03*
X001250Y026000D03*
X001250Y027000D03*
X001250Y028000D03*
X001250Y029000D03*
X001250Y030000D03*
X002250Y030000D03*
X002250Y029000D03*
X002250Y028000D03*
X002250Y027000D03*
X002250Y026000D03*
X002250Y025000D03*
X002250Y024000D03*
X002250Y023000D03*
X002250Y022000D03*
X002250Y021000D03*
X002250Y020000D03*
X002250Y019000D03*
X002250Y018000D03*
X002250Y017000D03*
X002250Y016000D03*
X002250Y015000D03*
X002250Y014000D03*
X002250Y013000D03*
X002250Y012000D03*
X002250Y011000D03*
X002250Y010000D03*
X002250Y009000D03*
X002250Y008000D03*
X014500Y007250D03*
X014500Y006250D03*
X014500Y005250D03*
X014500Y004250D03*
X014500Y003250D03*
X015500Y003250D03*
X015500Y004250D03*
X015500Y005250D03*
X015500Y006250D03*
X015500Y007250D03*
X020250Y008000D03*
X020250Y009000D03*
X020250Y010000D03*
X020250Y011000D03*
X020250Y012000D03*
X020250Y013000D03*
X020250Y014000D03*
X020250Y015000D03*
X020250Y016000D03*
X020250Y017000D03*
X020250Y018000D03*
X020250Y019000D03*
X020250Y020000D03*
X020250Y021000D03*
X020250Y022000D03*
X020250Y023000D03*
X020250Y024000D03*
X020250Y025000D03*
X020250Y026000D03*
X020250Y027000D03*
X020250Y028000D03*
X020250Y029000D03*
X020250Y030000D03*
X021250Y030000D03*
X021250Y029000D03*
X021250Y028000D03*
X021250Y027000D03*
X021250Y026000D03*
X021250Y025000D03*
X021250Y024000D03*
X021250Y023000D03*
X021250Y022000D03*
X021250Y021000D03*
X021250Y020000D03*
X021250Y019000D03*
X021250Y018000D03*
X021250Y017000D03*
X021250Y016000D03*
X021250Y015000D03*
X021250Y014000D03*
X021250Y013000D03*
X021250Y012000D03*
X021250Y011000D03*
X021250Y010000D03*
X021250Y009000D03*
X021250Y008000D03*
D11*
X006000Y003500D03*
X001250Y003500D03*
X019800Y032700D03*
X010700Y033800D03*
X009500Y033800D03*
D12*
X008050Y033900D03*
X008050Y032900D03*
X007050Y032900D03*
X007050Y033900D03*
X006050Y033900D03*
X006050Y032900D03*
X005050Y032900D03*
X005050Y033900D03*
X004050Y033900D03*
X004050Y032900D03*
X003050Y032900D03*
X003050Y033900D03*
X002050Y033900D03*
X002050Y032900D03*
X001050Y032900D03*
X001050Y033900D03*
X012200Y033900D03*
X012200Y032900D03*
X013200Y032900D03*
X013200Y033900D03*
X014200Y033900D03*
X014200Y032900D03*
X015200Y032900D03*
X015200Y033900D03*
X016200Y033900D03*
X016200Y032900D03*
D13*
X015350Y031650D03*
X015000Y031100D03*
X014500Y030600D03*
X014500Y030000D03*
X014000Y030000D03*
X014000Y029200D03*
X014500Y029200D03*
X014500Y028600D03*
X015000Y028100D03*
X015900Y028500D03*
X016150Y027500D03*
X016600Y027000D03*
X016100Y025650D03*
X016300Y024500D03*
X015950Y024350D03*
X016350Y023900D03*
X016200Y023200D03*
X016700Y022700D03*
X017200Y021500D03*
X016700Y021000D03*
X015600Y019200D03*
X015400Y018900D03*
X015200Y018600D03*
X015600Y018600D03*
X015200Y019200D03*
X016300Y018100D03*
X015600Y016400D03*
X015400Y016100D03*
X015200Y015800D03*
X015600Y015800D03*
X015200Y016400D03*
X014500Y016900D03*
X012600Y015500D03*
X010000Y013400D03*
X010400Y010100D03*
X009400Y010100D03*
X007700Y009500D03*
X007700Y008900D03*
X005500Y011800D03*
X003800Y012000D03*
X003300Y011500D03*
X003800Y010400D03*
X004700Y009300D03*
X003600Y006200D03*
X002400Y007000D03*
X007500Y012700D03*
X007350Y013400D03*
X007700Y015000D03*
X006900Y015000D03*
X006100Y015000D03*
X005300Y015000D03*
X004500Y015000D03*
X003700Y015000D03*
X004100Y016500D03*
X003500Y017100D03*
X004900Y016500D03*
X005400Y017100D03*
X005450Y017900D03*
X006850Y018600D03*
X005900Y019800D03*
X005050Y019800D03*
X004700Y020200D03*
X004650Y022000D03*
X004200Y022750D03*
X003000Y023500D03*
X003550Y024550D03*
X004900Y025900D03*
X005300Y027000D03*
X005750Y026900D03*
X006120Y025580D03*
X007100Y025800D03*
X007550Y026600D03*
X008300Y026700D03*
X009200Y026550D03*
X009900Y026550D03*
X010500Y026550D03*
X011200Y026550D03*
X011800Y026550D03*
X012500Y026550D03*
X013000Y026550D03*
X013800Y026550D03*
X014800Y025650D03*
X014850Y024650D03*
X015700Y023100D03*
X015000Y021600D03*
X013900Y022450D03*
X013400Y023000D03*
X013400Y021400D03*
X013000Y019800D03*
X012600Y019800D03*
X012200Y019800D03*
X011800Y019800D03*
X011500Y022150D03*
X011550Y023800D03*
X009900Y024600D03*
X008750Y025500D03*
X008300Y024900D03*
X007900Y024700D03*
X007400Y024400D03*
X007300Y024000D03*
X007300Y024900D03*
X008600Y024000D03*
X007110Y022860D03*
X006850Y021950D03*
X006600Y022300D03*
X005600Y022000D03*
X008000Y018500D03*
X008350Y018900D03*
X008350Y019600D03*
X008000Y018000D03*
X008000Y017450D03*
X007500Y016950D03*
X009550Y020200D03*
X009500Y020800D03*
X008900Y021300D03*
X009500Y028100D03*
X009000Y028600D03*
X009000Y029200D03*
X009000Y030000D03*
X009000Y030600D03*
X009500Y031100D03*
X011000Y029300D03*
X011100Y029700D03*
X011900Y029700D03*
X012000Y029300D03*
X013050Y028600D03*
X013500Y028100D03*
X015300Y026800D03*
X017000Y029200D03*
X016600Y030200D03*
X017400Y030200D03*
X018100Y028500D03*
X019000Y028100D03*
X019600Y029200D03*
X019600Y030000D03*
X019000Y031100D03*
X018700Y026900D03*
X018150Y026950D03*
X017600Y026900D03*
X017400Y025650D03*
X018700Y025650D03*
X017700Y023700D03*
X017900Y023300D03*
X018050Y022950D03*
X019200Y022500D03*
X018200Y019400D03*
X018000Y015200D03*
X018400Y015200D03*
X018800Y015200D03*
X017400Y012650D03*
X017400Y012150D03*
X017400Y011650D03*
X016900Y011650D03*
X016900Y011150D03*
X016400Y011150D03*
X016400Y011650D03*
X016400Y012150D03*
X016400Y012650D03*
X016900Y012650D03*
X016900Y012150D03*
X017900Y011650D03*
X018400Y011650D03*
X018400Y011150D03*
X018900Y011150D03*
X018900Y011650D03*
X015900Y011650D03*
X015900Y011150D03*
X015400Y011150D03*
X015400Y011650D03*
X016700Y001100D03*
X000850Y024550D03*
X004150Y026600D03*
X004650Y027050D03*
X013100Y032200D03*
X013500Y031100D03*
D14*
X014300Y031700D03*
X016500Y032200D03*
X017450Y032200D03*
D15*
X000725Y024337D02*
X000725Y003045D01*
X005589Y003045D01*
X005481Y003153D01*
X005388Y003378D01*
X005388Y003622D01*
X005481Y003847D01*
X005653Y004019D01*
X005878Y004112D01*
X006122Y004112D01*
X006347Y004019D01*
X006519Y003847D01*
X006525Y003833D01*
X006525Y008450D01*
X006625Y008625D01*
X006625Y008625D01*
X006800Y008725D01*
X007529Y008725D01*
X007492Y008761D01*
X007455Y008851D01*
X007455Y008949D01*
X007492Y009039D01*
X007561Y009108D01*
X007651Y009145D01*
X007749Y009145D01*
X007839Y009108D01*
X007908Y009039D01*
X007945Y008949D01*
X007945Y008851D01*
X007908Y008761D01*
X007871Y008725D01*
X013700Y008725D01*
X013875Y008625D01*
X013875Y008625D01*
X013875Y008625D01*
X013975Y008450D01*
X013975Y000725D01*
X019500Y000725D01*
X019755Y000739D01*
X020251Y000853D01*
X020710Y001074D01*
X021109Y001391D01*
X021426Y001790D01*
X021647Y002249D01*
X021761Y002745D01*
X021775Y003000D01*
X021775Y009300D01*
X021523Y009300D01*
X021594Y009230D01*
X021655Y009081D01*
X021655Y008919D01*
X021594Y008770D01*
X021480Y008656D01*
X021331Y008595D01*
X021169Y008595D01*
X021020Y008656D01*
X020906Y008770D01*
X020845Y008919D01*
X020845Y009081D01*
X020906Y009230D01*
X020977Y009300D01*
X020523Y009300D01*
X020594Y009230D01*
X020655Y009081D01*
X020655Y008919D01*
X020594Y008770D01*
X020480Y008656D01*
X020331Y008595D01*
X020169Y008595D01*
X020020Y008656D01*
X019906Y008770D01*
X019845Y008919D01*
X019845Y009081D01*
X019906Y009230D01*
X019977Y009300D01*
X019800Y009300D01*
X019200Y008600D01*
X014800Y008600D01*
X014000Y009400D01*
X013100Y009400D01*
X011900Y010700D01*
X011900Y014419D01*
X011119Y015200D01*
X007846Y015200D01*
X007908Y015139D01*
X007945Y015049D01*
X007945Y014951D01*
X007908Y014861D01*
X007839Y014792D01*
X007749Y014755D01*
X007651Y014755D01*
X007561Y014792D01*
X007492Y014861D01*
X007455Y014951D01*
X007455Y015049D01*
X007492Y015139D01*
X007554Y015200D01*
X007200Y015200D01*
X005800Y016600D01*
X005800Y017900D01*
X005100Y018600D01*
X005100Y020100D01*
X006000Y021000D01*
X006000Y021750D01*
X005836Y021930D01*
X005808Y021861D01*
X005739Y021792D01*
X005649Y021755D01*
X005551Y021755D01*
X005461Y021792D01*
X005392Y021861D01*
X005355Y021951D01*
X005355Y022049D01*
X005392Y022139D01*
X005461Y022208D01*
X005550Y022245D01*
X005500Y022300D01*
X005500Y026400D01*
X005755Y026655D01*
X005701Y026655D01*
X005611Y026692D01*
X005542Y026761D01*
X005505Y026851D01*
X005505Y026859D01*
X005439Y026792D01*
X005349Y026755D01*
X005251Y026755D01*
X005161Y026792D01*
X005092Y026861D01*
X005055Y026951D01*
X005055Y027049D01*
X005092Y027139D01*
X005161Y027208D01*
X005251Y027245D01*
X005349Y027245D01*
X005439Y027208D01*
X005508Y027139D01*
X005545Y027049D01*
X005545Y027041D01*
X005611Y027108D01*
X005701Y027145D01*
X005799Y027145D01*
X005889Y027108D01*
X005958Y027039D01*
X005995Y026949D01*
X005995Y026895D01*
X006500Y027400D01*
X006500Y029400D01*
X008600Y031500D01*
X008600Y034275D01*
X008216Y034275D01*
X008282Y034248D01*
X008398Y034132D01*
X008460Y033982D01*
X008460Y033818D01*
X008398Y033668D01*
X008282Y033552D01*
X008132Y033490D01*
X007968Y033490D01*
X007818Y033552D01*
X007702Y033668D01*
X007640Y033818D01*
X007640Y033982D01*
X007702Y034132D01*
X007818Y034248D01*
X007884Y034275D01*
X007216Y034275D01*
X007282Y034248D01*
X007398Y034132D01*
X007460Y033982D01*
X007460Y033818D01*
X007398Y033668D01*
X007282Y033552D01*
X007132Y033490D01*
X006968Y033490D01*
X006818Y033552D01*
X006702Y033668D01*
X006640Y033818D01*
X006640Y033982D01*
X006702Y034132D01*
X006818Y034248D01*
X006884Y034275D01*
X006216Y034275D01*
X006282Y034248D01*
X006398Y034132D01*
X006460Y033982D01*
X006460Y033818D01*
X006398Y033668D01*
X006282Y033552D01*
X006132Y033490D01*
X005968Y033490D01*
X005818Y033552D01*
X005702Y033668D01*
X005640Y033818D01*
X005640Y033982D01*
X005702Y034132D01*
X005818Y034248D01*
X005884Y034275D01*
X005216Y034275D01*
X005282Y034248D01*
X005398Y034132D01*
X005460Y033982D01*
X005460Y033818D01*
X005398Y033668D01*
X005282Y033552D01*
X005132Y033490D01*
X004968Y033490D01*
X004818Y033552D01*
X004702Y033668D01*
X004640Y033818D01*
X004640Y033982D01*
X004702Y034132D01*
X004818Y034248D01*
X004884Y034275D01*
X004216Y034275D01*
X004282Y034248D01*
X004398Y034132D01*
X004460Y033982D01*
X004460Y033818D01*
X004398Y033668D01*
X004282Y033552D01*
X004132Y033490D01*
X003968Y033490D01*
X003818Y033552D01*
X003702Y033668D01*
X003640Y033818D01*
X003640Y033982D01*
X003702Y034132D01*
X003818Y034248D01*
X003884Y034275D01*
X003216Y034275D01*
X003282Y034248D01*
X003398Y034132D01*
X003460Y033982D01*
X003460Y033818D01*
X003398Y033668D01*
X003282Y033552D01*
X003132Y033490D01*
X002968Y033490D01*
X002818Y033552D01*
X002702Y033668D01*
X002640Y033818D01*
X002640Y033982D01*
X002702Y034132D01*
X002818Y034248D01*
X002884Y034275D01*
X002216Y034275D01*
X002282Y034248D01*
X002398Y034132D01*
X002460Y033982D01*
X002460Y033818D01*
X002398Y033668D01*
X002282Y033552D01*
X002132Y033490D01*
X001968Y033490D01*
X001818Y033552D01*
X001702Y033668D01*
X001640Y033818D01*
X001640Y033982D01*
X001702Y034132D01*
X001818Y034248D01*
X001884Y034275D01*
X001216Y034275D01*
X001282Y034248D01*
X001398Y034132D01*
X001460Y033982D01*
X001460Y033818D01*
X001398Y033668D01*
X001282Y033552D01*
X001132Y033490D01*
X000968Y033490D01*
X000818Y033552D01*
X000725Y033645D01*
X000725Y033155D01*
X000818Y033248D01*
X000968Y033310D01*
X001132Y033310D01*
X001282Y033248D01*
X001398Y033132D01*
X001460Y032982D01*
X001460Y032818D01*
X001398Y032668D01*
X001282Y032552D01*
X001132Y032490D01*
X000968Y032490D01*
X000818Y032552D01*
X000725Y032645D01*
X000725Y024763D01*
X000801Y024795D01*
X000896Y024795D01*
X000845Y024919D01*
X000845Y025081D01*
X000906Y025230D01*
X001020Y025344D01*
X001169Y025405D01*
X001331Y025405D01*
X001480Y025344D01*
X001594Y025230D01*
X001655Y025081D01*
X001655Y024919D01*
X001594Y024770D01*
X001480Y024656D01*
X001331Y024595D01*
X001169Y024595D01*
X001082Y024631D01*
X001095Y024599D01*
X001095Y024501D01*
X001058Y024411D01*
X000989Y024342D01*
X000899Y024305D01*
X000801Y024305D01*
X000725Y024337D01*
X000725Y024239D02*
X000915Y024239D01*
X000906Y024230D02*
X000845Y024081D01*
X000845Y023919D01*
X000906Y023770D01*
X001020Y023656D01*
X001169Y023595D01*
X001331Y023595D01*
X001480Y023656D01*
X001594Y023770D01*
X001655Y023919D01*
X001655Y024081D01*
X001594Y024230D01*
X001480Y024344D01*
X001331Y024405D01*
X001169Y024405D01*
X001020Y024344D01*
X000906Y024230D01*
X000869Y024140D02*
X000725Y024140D01*
X000725Y024042D02*
X000845Y024042D01*
X000845Y023943D02*
X000725Y023943D01*
X000725Y023845D02*
X000876Y023845D01*
X000931Y023746D02*
X000725Y023746D01*
X000725Y023648D02*
X001042Y023648D01*
X001169Y023405D02*
X001020Y023344D01*
X000906Y023230D01*
X000845Y023081D01*
X000845Y022919D01*
X000906Y022770D01*
X001020Y022656D01*
X001169Y022595D01*
X001331Y022595D01*
X001480Y022656D01*
X001594Y022770D01*
X001655Y022919D01*
X001655Y023081D01*
X001594Y023230D01*
X001480Y023344D01*
X001331Y023405D01*
X001169Y023405D01*
X001041Y023352D02*
X000725Y023352D01*
X000725Y023254D02*
X000930Y023254D01*
X000876Y023155D02*
X000725Y023155D01*
X000725Y023057D02*
X000845Y023057D01*
X000845Y022958D02*
X000725Y022958D01*
X000725Y022860D02*
X000870Y022860D01*
X000916Y022761D02*
X000725Y022761D01*
X000725Y022663D02*
X001014Y022663D01*
X001169Y022405D02*
X001020Y022344D01*
X000906Y022230D01*
X000845Y022081D01*
X000845Y021919D01*
X000906Y021770D01*
X001020Y021656D01*
X001169Y021595D01*
X001331Y021595D01*
X001480Y021656D01*
X001594Y021770D01*
X001655Y021919D01*
X001655Y022081D01*
X001594Y022230D01*
X001480Y022344D01*
X001331Y022405D01*
X001169Y022405D01*
X001077Y022367D02*
X000725Y022367D01*
X000725Y022269D02*
X000945Y022269D01*
X000882Y022170D02*
X000725Y022170D01*
X000725Y022072D02*
X000845Y022072D01*
X000845Y021973D02*
X000725Y021973D01*
X000725Y021875D02*
X000863Y021875D01*
X000904Y021776D02*
X000725Y021776D01*
X000725Y021678D02*
X000999Y021678D01*
X000725Y021579D02*
X006000Y021579D01*
X006000Y021481D02*
X000725Y021481D01*
X000725Y021382D02*
X001113Y021382D01*
X001169Y021405D02*
X001020Y021344D01*
X000906Y021230D01*
X000845Y021081D01*
X000845Y020919D01*
X000906Y020770D01*
X001020Y020656D01*
X001169Y020595D01*
X001331Y020595D01*
X001480Y020656D01*
X001594Y020770D01*
X001655Y020919D01*
X001655Y021081D01*
X001594Y021230D01*
X001480Y021344D01*
X001331Y021405D01*
X001169Y021405D01*
X001387Y021382D02*
X002113Y021382D01*
X002169Y021405D02*
X002020Y021344D01*
X001906Y021230D01*
X001845Y021081D01*
X001845Y020919D01*
X001906Y020770D01*
X002020Y020656D01*
X002169Y020595D01*
X002331Y020595D01*
X002480Y020656D01*
X002594Y020770D01*
X002655Y020919D01*
X002655Y021081D01*
X002594Y021230D01*
X002480Y021344D01*
X002331Y021405D01*
X002169Y021405D01*
X002169Y021595D02*
X002331Y021595D01*
X002480Y021656D01*
X002594Y021770D01*
X002655Y021919D01*
X002655Y022081D01*
X002594Y022230D01*
X002480Y022344D01*
X002331Y022405D01*
X002169Y022405D01*
X002020Y022344D01*
X001906Y022230D01*
X001845Y022081D01*
X001845Y021919D01*
X001906Y021770D01*
X002020Y021656D01*
X002169Y021595D01*
X001999Y021678D02*
X001501Y021678D01*
X001596Y021776D02*
X001904Y021776D01*
X001863Y021875D02*
X001637Y021875D01*
X001655Y021973D02*
X001845Y021973D01*
X001845Y022072D02*
X001655Y022072D01*
X001618Y022170D02*
X001882Y022170D01*
X001945Y022269D02*
X001555Y022269D01*
X001423Y022367D02*
X002077Y022367D01*
X002169Y022595D02*
X002331Y022595D01*
X002480Y022656D01*
X002594Y022770D01*
X002655Y022919D01*
X002655Y023081D01*
X002594Y023230D01*
X002480Y023344D01*
X002331Y023405D01*
X002169Y023405D01*
X002020Y023344D01*
X001906Y023230D01*
X001845Y023081D01*
X001845Y022919D01*
X001906Y022770D01*
X002020Y022656D01*
X002169Y022595D01*
X002014Y022663D02*
X001486Y022663D01*
X001584Y022761D02*
X001916Y022761D01*
X001870Y022860D02*
X001630Y022860D01*
X001655Y022958D02*
X001845Y022958D01*
X001845Y023057D02*
X001655Y023057D01*
X001624Y023155D02*
X001876Y023155D01*
X001930Y023254D02*
X001570Y023254D01*
X001459Y023352D02*
X002041Y023352D01*
X002169Y023595D02*
X002331Y023595D01*
X002480Y023656D01*
X002594Y023770D01*
X002655Y023919D01*
X002655Y024081D01*
X002594Y024230D01*
X002480Y024344D01*
X002331Y024405D01*
X002169Y024405D01*
X002020Y024344D01*
X001906Y024230D01*
X001845Y024081D01*
X001845Y023919D01*
X001906Y023770D01*
X002020Y023656D01*
X002169Y023595D01*
X002042Y023648D02*
X001458Y023648D01*
X001569Y023746D02*
X001931Y023746D01*
X001876Y023845D02*
X001624Y023845D01*
X001655Y023943D02*
X001845Y023943D01*
X001845Y024042D02*
X001655Y024042D01*
X001631Y024140D02*
X001869Y024140D01*
X001915Y024239D02*
X001585Y024239D01*
X001486Y024337D02*
X002014Y024337D01*
X002169Y024595D02*
X002331Y024595D01*
X002480Y024656D01*
X002594Y024770D01*
X002655Y024919D01*
X002655Y025081D01*
X002594Y025230D01*
X002480Y025344D01*
X002331Y025405D01*
X002169Y025405D01*
X002020Y025344D01*
X001906Y025230D01*
X001845Y025081D01*
X001845Y024919D01*
X001906Y024770D01*
X002020Y024656D01*
X002169Y024595D01*
X002078Y024633D02*
X001422Y024633D01*
X001554Y024731D02*
X001946Y024731D01*
X001882Y024830D02*
X001618Y024830D01*
X001655Y024928D02*
X001845Y024928D01*
X001845Y025027D02*
X001655Y025027D01*
X001637Y025125D02*
X001863Y025125D01*
X001904Y025224D02*
X001596Y025224D01*
X001501Y025322D02*
X001999Y025322D01*
X002114Y025618D02*
X001386Y025618D01*
X001331Y025595D02*
X001480Y025656D01*
X001594Y025770D01*
X001655Y025919D01*
X001655Y026081D01*
X001594Y026230D01*
X001480Y026344D01*
X001331Y026405D01*
X001169Y026405D01*
X001020Y026344D01*
X000906Y026230D01*
X000845Y026081D01*
X000845Y025919D01*
X000906Y025770D01*
X001020Y025656D01*
X001169Y025595D01*
X001331Y025595D01*
X001114Y025618D02*
X000725Y025618D01*
X000725Y025716D02*
X000961Y025716D01*
X000888Y025815D02*
X000725Y025815D01*
X000725Y025913D02*
X000847Y025913D01*
X000845Y026012D02*
X000725Y026012D01*
X000725Y026110D02*
X000857Y026110D01*
X000898Y026209D02*
X000725Y026209D01*
X000725Y026307D02*
X000984Y026307D01*
X000725Y026406D02*
X005506Y026406D01*
X005500Y026307D02*
X002516Y026307D01*
X002480Y026344D02*
X002594Y026230D01*
X002655Y026081D01*
X002655Y025919D01*
X002594Y025770D01*
X002480Y025656D01*
X002331Y025595D01*
X002169Y025595D01*
X002020Y025656D01*
X001906Y025770D01*
X001845Y025919D01*
X001845Y026081D01*
X001906Y026230D01*
X002020Y026344D01*
X002169Y026405D01*
X002331Y026405D01*
X002480Y026344D01*
X002602Y026209D02*
X005500Y026209D01*
X005500Y026110D02*
X002643Y026110D01*
X002655Y026012D02*
X005500Y026012D01*
X005500Y025913D02*
X002653Y025913D01*
X002612Y025815D02*
X005500Y025815D01*
X005500Y025716D02*
X002539Y025716D01*
X002386Y025618D02*
X005500Y025618D01*
X005500Y025519D02*
X000725Y025519D01*
X000725Y025421D02*
X005500Y025421D01*
X005500Y025322D02*
X002501Y025322D01*
X002596Y025224D02*
X005500Y025224D01*
X005500Y025125D02*
X002637Y025125D01*
X002655Y025027D02*
X005500Y025027D01*
X005500Y024928D02*
X002655Y024928D01*
X002618Y024830D02*
X005500Y024830D01*
X005500Y024731D02*
X003715Y024731D01*
X003689Y024758D02*
X003599Y024795D01*
X003501Y024795D01*
X003411Y024758D01*
X003342Y024689D01*
X003305Y024599D01*
X003305Y024501D01*
X003342Y024411D01*
X003411Y024342D01*
X003501Y024305D01*
X003599Y024305D01*
X003689Y024342D01*
X003758Y024411D01*
X003795Y024501D01*
X003795Y024599D01*
X003758Y024689D01*
X003689Y024758D01*
X003781Y024633D02*
X005500Y024633D01*
X005500Y024534D02*
X003795Y024534D01*
X003768Y024436D02*
X005500Y024436D01*
X005500Y024337D02*
X003676Y024337D01*
X003424Y024337D02*
X002486Y024337D01*
X002585Y024239D02*
X005500Y024239D01*
X005500Y024140D02*
X002631Y024140D01*
X002655Y024042D02*
X005500Y024042D01*
X005500Y023943D02*
X002655Y023943D01*
X002624Y023845D02*
X005500Y023845D01*
X005500Y023746D02*
X002569Y023746D01*
X002458Y023648D02*
X002801Y023648D01*
X002792Y023639D02*
X002755Y023549D01*
X000725Y023549D01*
X000725Y023451D02*
X002755Y023451D01*
X002792Y023361D01*
X002861Y023292D01*
X002951Y023255D01*
X003049Y023255D01*
X003139Y023292D01*
X003208Y023361D01*
X003245Y023451D01*
X003245Y023549D01*
X005500Y023549D01*
X005500Y023451D02*
X003245Y023451D01*
X003245Y023549D02*
X003208Y023639D01*
X003139Y023708D01*
X003049Y023745D01*
X002951Y023745D01*
X002861Y023708D01*
X002792Y023639D01*
X002755Y023549D02*
X002755Y023451D01*
X002801Y023352D02*
X002459Y023352D01*
X002570Y023254D02*
X005500Y023254D01*
X005500Y023352D02*
X003199Y023352D01*
X003199Y023648D02*
X005500Y023648D01*
X005700Y023648D02*
X017457Y023648D01*
X017455Y023651D02*
X017492Y023561D01*
X017561Y023492D01*
X017651Y023455D01*
X017709Y023455D01*
X017692Y023439D01*
X017655Y023349D01*
X017655Y023251D01*
X017692Y023161D01*
X017761Y023092D01*
X017832Y023063D01*
X017805Y022999D01*
X017805Y022901D01*
X017842Y022811D01*
X017911Y022742D01*
X018001Y022705D01*
X018099Y022705D01*
X018189Y022742D01*
X018258Y022811D01*
X018295Y022901D01*
X018295Y022999D01*
X018258Y023089D01*
X018189Y023158D01*
X018118Y023187D01*
X018145Y023251D01*
X018145Y023349D01*
X018108Y023439D01*
X018039Y023508D01*
X017949Y023545D01*
X017891Y023545D01*
X017908Y023561D01*
X017945Y023651D01*
X017945Y023749D01*
X017908Y023839D01*
X017839Y023908D01*
X017749Y023945D01*
X017651Y023945D01*
X017561Y023908D01*
X017492Y023839D01*
X017455Y023749D01*
X017455Y023651D01*
X017455Y023746D02*
X016543Y023746D01*
X016558Y023761D02*
X016595Y023851D01*
X016595Y023949D01*
X016558Y024039D01*
X016489Y024108D01*
X016399Y024145D01*
X016301Y024145D01*
X016211Y024108D01*
X016142Y024039D01*
X016105Y023949D01*
X016105Y023851D01*
X016142Y023761D01*
X016211Y023692D01*
X016301Y023655D01*
X016399Y023655D01*
X016489Y023692D01*
X016558Y023761D01*
X016592Y023845D02*
X017498Y023845D01*
X017647Y023943D02*
X016595Y023943D01*
X016555Y024042D02*
X019800Y024042D01*
X019800Y024140D02*
X016411Y024140D01*
X016289Y024140D02*
X016083Y024140D01*
X016089Y024142D02*
X016158Y024211D01*
X016187Y024282D01*
X016251Y024255D01*
X016349Y024255D01*
X016439Y024292D01*
X016508Y024361D01*
X016545Y024451D01*
X016545Y024549D01*
X016508Y024639D01*
X016439Y024708D01*
X016349Y024745D01*
X016251Y024745D01*
X016161Y024708D01*
X016092Y024639D01*
X016063Y024568D01*
X015999Y024595D01*
X015901Y024595D01*
X015811Y024558D01*
X015742Y024489D01*
X015705Y024399D01*
X015705Y024301D01*
X015742Y024211D01*
X015811Y024142D01*
X015901Y024105D01*
X015999Y024105D01*
X016089Y024142D01*
X016145Y024042D02*
X008845Y024042D01*
X008845Y024049D02*
X008808Y024139D01*
X008739Y024208D01*
X008649Y024245D01*
X008551Y024245D01*
X008461Y024208D01*
X008392Y024139D01*
X008355Y024049D01*
X008355Y023951D01*
X008392Y023861D01*
X008461Y023792D01*
X008551Y023755D01*
X008649Y023755D01*
X008739Y023792D01*
X008808Y023861D01*
X008845Y023951D01*
X008845Y024049D01*
X008806Y024140D02*
X015817Y024140D01*
X015731Y024239D02*
X008664Y024239D01*
X008536Y024239D02*
X007585Y024239D01*
X007608Y024261D02*
X007645Y024351D01*
X007645Y024449D01*
X007608Y024539D01*
X007539Y024608D01*
X007449Y024645D01*
X007351Y024645D01*
X007261Y024608D01*
X007192Y024539D01*
X007155Y024449D01*
X007155Y024351D01*
X007192Y024261D01*
X007221Y024232D01*
X007161Y024208D01*
X007092Y024139D01*
X007055Y024049D01*
X007055Y023951D01*
X007092Y023861D01*
X007161Y023792D01*
X007251Y023755D01*
X007349Y023755D01*
X007439Y023792D01*
X007508Y023861D01*
X007545Y023951D01*
X007545Y024049D01*
X007508Y024139D01*
X007479Y024168D01*
X007539Y024192D01*
X007608Y024261D01*
X007639Y024337D02*
X015705Y024337D01*
X015720Y024436D02*
X014973Y024436D01*
X014989Y024442D02*
X015058Y024511D01*
X015095Y024601D01*
X015095Y024699D01*
X015058Y024789D01*
X014989Y024858D01*
X014899Y024895D01*
X014801Y024895D01*
X014711Y024858D01*
X014642Y024789D01*
X014605Y024699D01*
X014605Y024601D01*
X014642Y024511D01*
X014711Y024442D01*
X014801Y024405D01*
X014899Y024405D01*
X014989Y024442D01*
X015067Y024534D02*
X015788Y024534D01*
X016090Y024633D02*
X015095Y024633D01*
X015082Y024731D02*
X016218Y024731D01*
X016382Y024731D02*
X019800Y024731D01*
X019800Y024633D02*
X016510Y024633D01*
X016545Y024534D02*
X019800Y024534D01*
X019800Y024436D02*
X016538Y024436D01*
X016484Y024337D02*
X019800Y024337D01*
X019800Y024239D02*
X016169Y024239D01*
X016105Y023943D02*
X008842Y023943D01*
X008791Y023845D02*
X016108Y023845D01*
X016157Y023746D02*
X005700Y023746D01*
X005700Y023845D02*
X007109Y023845D01*
X007058Y023943D02*
X005700Y023943D01*
X005700Y024042D02*
X007055Y024042D01*
X007094Y024140D02*
X005700Y024140D01*
X005700Y024239D02*
X007215Y024239D01*
X007161Y024337D02*
X005700Y024337D01*
X005700Y024436D02*
X007155Y024436D01*
X007190Y024534D02*
X005700Y024534D01*
X005700Y024633D02*
X007321Y024633D01*
X007479Y024633D02*
X009655Y024633D01*
X009655Y024649D02*
X009655Y024551D01*
X009692Y024461D01*
X009761Y024392D01*
X009851Y024355D01*
X009949Y024355D01*
X010039Y024392D01*
X010108Y024461D01*
X010145Y024551D01*
X010145Y024649D01*
X010108Y024739D01*
X010039Y024808D01*
X009949Y024845D01*
X009851Y024845D01*
X009761Y024808D01*
X009692Y024739D01*
X009655Y024649D01*
X009689Y024731D02*
X008478Y024731D01*
X008508Y024761D02*
X008545Y024851D01*
X008545Y024949D01*
X008508Y025039D01*
X008439Y025108D01*
X008349Y025145D01*
X008251Y025145D01*
X008161Y025108D01*
X008092Y025039D01*
X008055Y024949D01*
X008055Y024851D01*
X008092Y024761D01*
X008161Y024692D01*
X008251Y024655D01*
X008349Y024655D01*
X008439Y024692D01*
X008508Y024761D01*
X008536Y024830D02*
X009814Y024830D01*
X009986Y024830D02*
X014683Y024830D01*
X014618Y024731D02*
X010111Y024731D01*
X010145Y024633D02*
X014605Y024633D01*
X014633Y024534D02*
X010138Y024534D01*
X010082Y024436D02*
X014727Y024436D01*
X015017Y024830D02*
X019800Y024830D01*
X019800Y024928D02*
X008545Y024928D01*
X008513Y025027D02*
X019800Y025027D01*
X019800Y025125D02*
X008397Y025125D01*
X008203Y025125D02*
X005700Y025125D01*
X005700Y025027D02*
X008087Y025027D01*
X008055Y024928D02*
X005700Y024928D01*
X005700Y024830D02*
X008064Y024830D01*
X008122Y024731D02*
X005700Y024731D01*
X005700Y025224D02*
X019800Y025224D01*
X019800Y025322D02*
X008919Y025322D01*
X008889Y025292D02*
X008958Y025361D01*
X008995Y025451D01*
X008995Y025549D01*
X008958Y025639D01*
X008889Y025708D01*
X008799Y025745D01*
X008701Y025745D01*
X008611Y025708D01*
X008542Y025639D01*
X008505Y025549D01*
X008505Y025451D01*
X008542Y025361D01*
X008611Y025292D01*
X008701Y025255D01*
X008799Y025255D01*
X008889Y025292D01*
X008982Y025421D02*
X019800Y025421D01*
X019800Y025519D02*
X008995Y025519D01*
X008966Y025618D02*
X019800Y025618D01*
X019800Y025716D02*
X008869Y025716D01*
X008631Y025716D02*
X007330Y025716D01*
X007345Y025751D02*
X007308Y025661D01*
X007239Y025592D01*
X007149Y025555D01*
X007051Y025555D01*
X006961Y025592D01*
X006892Y025661D01*
X006855Y025751D01*
X006855Y025849D01*
X006892Y025939D01*
X006961Y026008D01*
X007051Y026045D01*
X007149Y026045D01*
X007239Y026008D01*
X007308Y025939D01*
X007345Y025849D01*
X007345Y025751D01*
X007345Y025815D02*
X019800Y025815D01*
X019800Y025913D02*
X007318Y025913D01*
X007229Y026012D02*
X019800Y026012D01*
X019800Y026110D02*
X005700Y026110D01*
X005700Y026012D02*
X006971Y026012D01*
X006882Y025913D02*
X005700Y025913D01*
X005700Y025815D02*
X006046Y025815D01*
X006071Y025825D02*
X005981Y025788D01*
X005912Y025719D01*
X005875Y025629D01*
X005875Y025531D01*
X005912Y025441D01*
X005981Y025372D01*
X006071Y025335D01*
X006169Y025335D01*
X006259Y025372D01*
X006328Y025441D01*
X006365Y025531D01*
X006365Y025629D01*
X006328Y025719D01*
X006259Y025788D01*
X006169Y025825D01*
X006071Y025825D01*
X006194Y025815D02*
X006855Y025815D01*
X006870Y025716D02*
X006329Y025716D01*
X006365Y025618D02*
X006936Y025618D01*
X007264Y025618D02*
X008534Y025618D01*
X008505Y025519D02*
X006360Y025519D01*
X006307Y025421D02*
X008518Y025421D01*
X008581Y025322D02*
X005700Y025322D01*
X005700Y025421D02*
X005933Y025421D01*
X005880Y025519D02*
X005700Y025519D01*
X005700Y025618D02*
X005875Y025618D01*
X005911Y025716D02*
X005700Y025716D01*
X005700Y026209D02*
X019800Y026209D01*
X019800Y026307D02*
X013054Y026307D01*
X013049Y026305D02*
X013139Y026342D01*
X013208Y026411D01*
X013245Y026501D01*
X013245Y026599D01*
X013208Y026689D01*
X013139Y026758D01*
X013049Y026795D01*
X012951Y026795D01*
X012861Y026758D01*
X012792Y026689D01*
X012755Y026599D01*
X012755Y026501D01*
X012792Y026411D01*
X012861Y026342D01*
X012951Y026305D01*
X013049Y026305D01*
X012946Y026307D02*
X011854Y026307D01*
X011849Y026305D02*
X011939Y026342D01*
X012008Y026411D01*
X012045Y026501D01*
X012045Y026599D01*
X012008Y026689D01*
X011939Y026758D01*
X011849Y026795D01*
X011751Y026795D01*
X011661Y026758D01*
X011592Y026689D01*
X011555Y026599D01*
X011555Y026501D01*
X011592Y026411D01*
X011661Y026342D01*
X011751Y026305D01*
X011849Y026305D01*
X011746Y026307D02*
X010554Y026307D01*
X010549Y026305D02*
X010639Y026342D01*
X010708Y026411D01*
X010745Y026501D01*
X010745Y026599D01*
X010708Y026689D01*
X010639Y026758D01*
X010549Y026795D01*
X010451Y026795D01*
X010361Y026758D01*
X010292Y026689D01*
X010255Y026599D01*
X010255Y026501D01*
X010292Y026411D01*
X010361Y026342D01*
X010451Y026305D01*
X010549Y026305D01*
X010446Y026307D02*
X009254Y026307D01*
X009249Y026305D02*
X009339Y026342D01*
X009408Y026411D01*
X009445Y026501D01*
X009445Y026599D01*
X009408Y026689D01*
X009339Y026758D01*
X009249Y026795D01*
X009151Y026795D01*
X009061Y026758D01*
X008992Y026689D01*
X008955Y026599D01*
X008955Y026501D01*
X008992Y026411D01*
X009061Y026342D01*
X009151Y026305D01*
X009249Y026305D01*
X009146Y026307D02*
X005707Y026307D01*
X005700Y026300D02*
X006700Y027300D01*
X006700Y029300D01*
X008800Y031400D01*
X008800Y034275D01*
X010309Y034275D01*
X010181Y034147D01*
X010088Y033922D01*
X010088Y033678D01*
X010181Y033453D01*
X010353Y033281D01*
X010578Y033188D01*
X010822Y033188D01*
X011047Y033281D01*
X011219Y033453D01*
X011312Y033678D01*
X011312Y033922D01*
X011219Y034147D01*
X011091Y034275D01*
X013034Y034275D01*
X012968Y034248D01*
X012852Y034132D01*
X012790Y033982D01*
X012790Y033818D01*
X012852Y033668D01*
X012968Y033552D01*
X013118Y033490D01*
X013282Y033490D01*
X013432Y033552D01*
X013548Y033668D01*
X013610Y033818D01*
X013610Y033982D01*
X013548Y034132D01*
X013432Y034248D01*
X013366Y034275D01*
X014034Y034275D01*
X013968Y034248D01*
X013852Y034132D01*
X013790Y033982D01*
X013790Y033818D01*
X013852Y033668D01*
X013968Y033552D01*
X014118Y033490D01*
X014282Y033490D01*
X014432Y033552D01*
X014548Y033668D01*
X014610Y033818D01*
X014610Y033982D01*
X014548Y034132D01*
X014432Y034248D01*
X014366Y034275D01*
X015034Y034275D01*
X014968Y034248D01*
X014852Y034132D01*
X014790Y033982D01*
X014790Y033818D01*
X014852Y033668D01*
X014968Y033552D01*
X015118Y033490D01*
X015282Y033490D01*
X015432Y033552D01*
X015548Y033668D01*
X015610Y033818D01*
X015610Y033982D01*
X015548Y034132D01*
X015432Y034248D01*
X015366Y034275D01*
X016034Y034275D01*
X015968Y034248D01*
X015852Y034132D01*
X015790Y033982D01*
X015790Y033818D01*
X015852Y033668D01*
X015968Y033552D01*
X016118Y033490D01*
X016282Y033490D01*
X016432Y033552D01*
X016548Y033668D01*
X016610Y033818D01*
X016610Y033982D01*
X016548Y034132D01*
X016432Y034248D01*
X016366Y034275D01*
X017000Y034275D01*
X017375Y034260D01*
X018115Y034143D01*
X018827Y033912D01*
X019495Y033571D01*
X019658Y033453D01*
X019798Y033312D01*
X019678Y033312D01*
X019453Y033219D01*
X019281Y033047D01*
X019188Y032822D01*
X019188Y032578D01*
X019281Y032353D01*
X019453Y032181D01*
X019678Y032088D01*
X019800Y032088D01*
X019800Y030146D01*
X019739Y030208D01*
X019649Y030245D01*
X019551Y030245D01*
X019461Y030208D01*
X019392Y030139D01*
X019355Y030049D01*
X019355Y029951D01*
X019392Y029861D01*
X019461Y029792D01*
X019551Y029755D01*
X019649Y029755D01*
X019739Y029792D01*
X019800Y029854D01*
X019800Y029346D01*
X019739Y029408D01*
X019649Y029445D01*
X019551Y029445D01*
X019461Y029408D01*
X019392Y029339D01*
X019355Y029249D01*
X019355Y029151D01*
X019392Y029061D01*
X019461Y028992D01*
X019551Y028955D01*
X019649Y028955D01*
X019739Y028992D01*
X019800Y029054D01*
X019800Y011000D01*
X019845Y010960D01*
X019845Y010919D01*
X019906Y010770D01*
X020020Y010656D01*
X020169Y010595D01*
X020256Y010595D01*
X020700Y010200D01*
X020700Y009600D01*
X020343Y009600D01*
X020480Y009656D01*
X020594Y009770D01*
X020655Y009919D01*
X020655Y010081D01*
X020594Y010230D01*
X020480Y010344D01*
X020331Y010405D01*
X020169Y010405D01*
X020020Y010344D01*
X019906Y010230D01*
X019845Y010081D01*
X019845Y009919D01*
X019906Y009770D01*
X020020Y009656D01*
X020157Y009600D01*
X019800Y009600D01*
X019100Y008800D01*
X014900Y008800D01*
X014100Y009600D01*
X013200Y009600D01*
X012100Y010800D01*
X012100Y014540D01*
X011240Y015400D01*
X007300Y015400D01*
X006000Y016700D01*
X006000Y018000D01*
X005300Y018700D01*
X005300Y020000D01*
X006200Y020900D01*
X006200Y021800D01*
X005700Y022350D01*
X005700Y026300D01*
X005806Y026406D02*
X008998Y026406D01*
X008955Y026504D02*
X005904Y026504D01*
X006003Y026603D02*
X008957Y026603D01*
X009005Y026701D02*
X006101Y026701D01*
X006200Y026800D02*
X015055Y026800D01*
X015055Y026849D02*
X015055Y026751D01*
X015092Y026661D01*
X015161Y026592D01*
X015251Y026555D01*
X015349Y026555D01*
X015439Y026592D01*
X015508Y026661D01*
X015545Y026751D01*
X015545Y026849D01*
X015508Y026939D01*
X015439Y027008D01*
X015349Y027045D01*
X015251Y027045D01*
X015161Y027008D01*
X015092Y026939D01*
X015055Y026849D01*
X015075Y026898D02*
X006298Y026898D01*
X006397Y026997D02*
X015150Y026997D01*
X015450Y026997D02*
X016355Y026997D01*
X016355Y026951D02*
X016392Y026861D01*
X016461Y026792D01*
X016551Y026755D01*
X016649Y026755D01*
X016739Y026792D01*
X016808Y026861D01*
X016845Y026951D01*
X016845Y027049D01*
X016808Y027139D01*
X016739Y027208D01*
X016649Y027245D01*
X016551Y027245D01*
X016461Y027208D01*
X016392Y027139D01*
X016355Y027049D01*
X016355Y026951D01*
X016377Y026898D02*
X015525Y026898D01*
X015545Y026800D02*
X016454Y026800D01*
X016746Y026800D02*
X017376Y026800D01*
X017392Y026761D02*
X017461Y026692D01*
X017551Y026655D01*
X017649Y026655D01*
X017739Y026692D01*
X017808Y026761D01*
X017845Y026851D01*
X017845Y026949D01*
X017808Y027039D01*
X017739Y027108D01*
X017649Y027145D01*
X017551Y027145D01*
X017461Y027108D01*
X017392Y027039D01*
X017355Y026949D01*
X017355Y026851D01*
X017392Y026761D01*
X017452Y026701D02*
X015524Y026701D01*
X015449Y026603D02*
X019800Y026603D01*
X019800Y026701D02*
X018848Y026701D01*
X018839Y026692D02*
X018908Y026761D01*
X018945Y026851D01*
X018945Y026949D01*
X018908Y027039D01*
X018839Y027108D01*
X018749Y027145D01*
X018651Y027145D01*
X018561Y027108D01*
X018492Y027039D01*
X018455Y026949D01*
X018455Y026851D01*
X018492Y026761D01*
X018561Y026692D01*
X018651Y026655D01*
X018749Y026655D01*
X018839Y026692D01*
X018924Y026800D02*
X019800Y026800D01*
X019800Y026898D02*
X018945Y026898D01*
X018925Y026997D02*
X019800Y026997D01*
X019800Y027095D02*
X018851Y027095D01*
X018549Y027095D02*
X018351Y027095D01*
X018358Y027089D02*
X018289Y027158D01*
X018199Y027195D01*
X018101Y027195D01*
X018011Y027158D01*
X017942Y027089D01*
X017905Y026999D01*
X017905Y026901D01*
X017942Y026811D01*
X018011Y026742D01*
X018101Y026705D01*
X018199Y026705D01*
X018289Y026742D01*
X018358Y026811D01*
X018395Y026901D01*
X018395Y026999D01*
X018358Y027089D01*
X018395Y026997D02*
X018475Y026997D01*
X018455Y026898D02*
X018394Y026898D01*
X018346Y026800D02*
X018476Y026800D01*
X018552Y026701D02*
X017748Y026701D01*
X017824Y026800D02*
X017954Y026800D01*
X017906Y026898D02*
X017845Y026898D01*
X017825Y026997D02*
X017905Y026997D01*
X017949Y027095D02*
X017751Y027095D01*
X018098Y027194D02*
X016753Y027194D01*
X016826Y027095D02*
X017449Y027095D01*
X017375Y026997D02*
X016845Y026997D01*
X016823Y026898D02*
X017355Y026898D01*
X018202Y027194D02*
X019800Y027194D01*
X019800Y027292D02*
X016288Y027292D01*
X016289Y027292D02*
X016358Y027361D01*
X016395Y027451D01*
X016395Y027549D01*
X016358Y027639D01*
X016289Y027708D01*
X016199Y027745D01*
X016101Y027745D01*
X016011Y027708D01*
X015942Y027639D01*
X015905Y027549D01*
X015905Y027451D01*
X015942Y027361D01*
X016011Y027292D01*
X016101Y027255D01*
X016199Y027255D01*
X016289Y027292D01*
X016370Y027391D02*
X019800Y027391D01*
X019800Y027489D02*
X016395Y027489D01*
X016379Y027588D02*
X019800Y027588D01*
X019800Y027686D02*
X016310Y027686D01*
X015990Y027686D02*
X006700Y027686D01*
X006700Y027588D02*
X015921Y027588D01*
X015905Y027489D02*
X006700Y027489D01*
X006700Y027391D02*
X015930Y027391D01*
X016012Y027292D02*
X006692Y027292D01*
X006594Y027194D02*
X016447Y027194D01*
X016374Y027095D02*
X006495Y027095D01*
X006392Y027292D02*
X002531Y027292D01*
X002480Y027344D02*
X002331Y027405D01*
X002169Y027405D01*
X002020Y027344D01*
X001906Y027230D01*
X001845Y027081D01*
X001845Y026919D01*
X001906Y026770D01*
X002020Y026656D01*
X002169Y026595D01*
X002331Y026595D01*
X002480Y026656D01*
X002594Y026770D01*
X002655Y026919D01*
X002655Y027081D01*
X002594Y027230D01*
X002480Y027344D01*
X002366Y027391D02*
X006491Y027391D01*
X006500Y027489D02*
X000725Y027489D01*
X000725Y027391D02*
X001134Y027391D01*
X001169Y027405D02*
X001020Y027344D01*
X000906Y027230D01*
X000845Y027081D01*
X000845Y026919D01*
X000906Y026770D01*
X001020Y026656D01*
X001169Y026595D01*
X001331Y026595D01*
X001480Y026656D01*
X001594Y026770D01*
X001655Y026919D01*
X001655Y027081D01*
X001594Y027230D01*
X001480Y027344D01*
X001331Y027405D01*
X001169Y027405D01*
X001169Y027595D02*
X001331Y027595D01*
X001480Y027656D01*
X001594Y027770D01*
X001655Y027919D01*
X001655Y028081D01*
X001594Y028230D01*
X001480Y028344D01*
X001331Y028405D01*
X001169Y028405D01*
X001020Y028344D01*
X000906Y028230D01*
X000845Y028081D01*
X000845Y027919D01*
X000906Y027770D01*
X001020Y027656D01*
X001169Y027595D01*
X000991Y027686D02*
X000725Y027686D01*
X000725Y027588D02*
X006500Y027588D01*
X006500Y027686D02*
X002509Y027686D01*
X002480Y027656D02*
X002594Y027770D01*
X002655Y027919D01*
X002655Y028081D01*
X002594Y028230D01*
X002480Y028344D01*
X002331Y028405D01*
X002169Y028405D01*
X002020Y028344D01*
X001906Y028230D01*
X001845Y028081D01*
X001845Y027919D01*
X001906Y027770D01*
X002020Y027656D01*
X002169Y027595D01*
X002331Y027595D01*
X002480Y027656D01*
X002599Y027785D02*
X006500Y027785D01*
X006500Y027883D02*
X002640Y027883D01*
X002655Y027982D02*
X006500Y027982D01*
X006500Y028080D02*
X002655Y028080D01*
X002615Y028179D02*
X006500Y028179D01*
X006500Y028277D02*
X002546Y028277D01*
X002402Y028376D02*
X006500Y028376D01*
X006500Y028474D02*
X000725Y028474D01*
X000725Y028376D02*
X001098Y028376D01*
X000954Y028277D02*
X000725Y028277D01*
X000725Y028179D02*
X000885Y028179D01*
X000845Y028080D02*
X000725Y028080D01*
X000725Y027982D02*
X000845Y027982D01*
X000860Y027883D02*
X000725Y027883D01*
X000725Y027785D02*
X000901Y027785D01*
X000969Y027292D02*
X000725Y027292D01*
X000725Y027194D02*
X000892Y027194D01*
X000851Y027095D02*
X000725Y027095D01*
X000725Y026997D02*
X000845Y026997D01*
X000854Y026898D02*
X000725Y026898D01*
X000725Y026800D02*
X000894Y026800D01*
X000976Y026701D02*
X000725Y026701D01*
X000725Y026603D02*
X001150Y026603D01*
X001350Y026603D02*
X002150Y026603D01*
X002350Y026603D02*
X005703Y026603D01*
X005604Y026504D02*
X000725Y026504D01*
X001516Y026307D02*
X001984Y026307D01*
X001898Y026209D02*
X001602Y026209D01*
X001643Y026110D02*
X001857Y026110D01*
X001845Y026012D02*
X001655Y026012D01*
X001653Y025913D02*
X001847Y025913D01*
X001888Y025815D02*
X001612Y025815D01*
X001539Y025716D02*
X001961Y025716D01*
X001976Y026701D02*
X001524Y026701D01*
X001606Y026800D02*
X001894Y026800D01*
X001854Y026898D02*
X001646Y026898D01*
X001655Y026997D02*
X001845Y026997D01*
X001851Y027095D02*
X001649Y027095D01*
X001608Y027194D02*
X001892Y027194D01*
X001969Y027292D02*
X001531Y027292D01*
X001366Y027391D02*
X002134Y027391D01*
X001991Y027686D02*
X001509Y027686D01*
X001599Y027785D02*
X001901Y027785D01*
X001860Y027883D02*
X001640Y027883D01*
X001655Y027982D02*
X001845Y027982D01*
X001845Y028080D02*
X001655Y028080D01*
X001615Y028179D02*
X001885Y028179D01*
X001954Y028277D02*
X001546Y028277D01*
X001402Y028376D02*
X002098Y028376D01*
X002169Y028595D02*
X002331Y028595D01*
X002480Y028656D01*
X002594Y028770D01*
X002655Y028919D01*
X002655Y029081D01*
X002594Y029230D01*
X002480Y029344D01*
X002331Y029405D01*
X002169Y029405D01*
X002020Y029344D01*
X001906Y029230D01*
X001845Y029081D01*
X001845Y028919D01*
X001906Y028770D01*
X002020Y028656D01*
X002169Y028595D01*
X002006Y028671D02*
X001494Y028671D01*
X001480Y028656D02*
X001594Y028770D01*
X001655Y028919D01*
X001655Y029081D01*
X001594Y029230D01*
X001480Y029344D01*
X001331Y029405D01*
X001169Y029405D01*
X001020Y029344D01*
X000906Y029230D01*
X000845Y029081D01*
X000845Y028919D01*
X000906Y028770D01*
X001020Y028656D01*
X001169Y028595D01*
X001331Y028595D01*
X001480Y028656D01*
X001593Y028770D02*
X001907Y028770D01*
X001866Y028868D02*
X001634Y028868D01*
X001655Y028967D02*
X001845Y028967D01*
X001845Y029065D02*
X001655Y029065D01*
X001621Y029164D02*
X001879Y029164D01*
X001939Y029262D02*
X001561Y029262D01*
X001439Y029361D02*
X002061Y029361D01*
X002169Y029595D02*
X002331Y029595D01*
X002480Y029656D01*
X002594Y029770D01*
X002655Y029919D01*
X002655Y030081D01*
X002594Y030230D01*
X002480Y030344D01*
X002331Y030405D01*
X002169Y030405D01*
X002020Y030344D01*
X001906Y030230D01*
X001845Y030081D01*
X001845Y029919D01*
X001906Y029770D01*
X002020Y029656D01*
X002169Y029595D01*
X002021Y029656D02*
X001479Y029656D01*
X001480Y029656D02*
X001594Y029770D01*
X001655Y029919D01*
X001655Y030081D01*
X001594Y030230D01*
X001480Y030344D01*
X001331Y030405D01*
X001169Y030405D01*
X001020Y030344D01*
X000906Y030230D01*
X000845Y030081D01*
X000845Y029919D01*
X000906Y029770D01*
X001020Y029656D01*
X001169Y029595D01*
X001331Y029595D01*
X001480Y029656D01*
X001578Y029755D02*
X001922Y029755D01*
X001872Y029853D02*
X001628Y029853D01*
X001655Y029952D02*
X001845Y029952D01*
X001845Y030050D02*
X001655Y030050D01*
X001627Y030149D02*
X001873Y030149D01*
X001924Y030247D02*
X001576Y030247D01*
X001475Y030346D02*
X002025Y030346D01*
X002475Y030346D02*
X007446Y030346D01*
X007544Y030444D02*
X000725Y030444D01*
X000725Y030346D02*
X001025Y030346D01*
X000924Y030247D02*
X000725Y030247D01*
X000725Y030149D02*
X000873Y030149D01*
X000845Y030050D02*
X000725Y030050D01*
X000725Y029952D02*
X000845Y029952D01*
X000872Y029853D02*
X000725Y029853D01*
X000725Y029755D02*
X000922Y029755D01*
X001021Y029656D02*
X000725Y029656D01*
X000725Y029558D02*
X006658Y029558D01*
X006756Y029656D02*
X002479Y029656D01*
X002578Y029755D02*
X006855Y029755D01*
X006953Y029853D02*
X002628Y029853D01*
X002655Y029952D02*
X007052Y029952D01*
X007150Y030050D02*
X002655Y030050D01*
X002627Y030149D02*
X007249Y030149D01*
X007347Y030247D02*
X002576Y030247D01*
X002439Y029361D02*
X006500Y029361D01*
X006500Y029262D02*
X002561Y029262D01*
X002621Y029164D02*
X006500Y029164D01*
X006500Y029065D02*
X002655Y029065D01*
X002655Y028967D02*
X006500Y028967D01*
X006500Y028868D02*
X002634Y028868D01*
X002593Y028770D02*
X006500Y028770D01*
X006500Y028671D02*
X002494Y028671D01*
X002608Y027194D02*
X005147Y027194D01*
X005074Y027095D02*
X002649Y027095D01*
X002655Y026997D02*
X005055Y026997D01*
X005077Y026898D02*
X002646Y026898D01*
X002606Y026800D02*
X005154Y026800D01*
X005446Y026800D02*
X005526Y026800D01*
X005602Y026701D02*
X002524Y026701D01*
X002554Y024731D02*
X003385Y024731D01*
X003319Y024633D02*
X002422Y024633D01*
X003305Y024534D02*
X001095Y024534D01*
X001068Y024436D02*
X003332Y024436D01*
X002624Y023155D02*
X005500Y023155D01*
X005500Y023057D02*
X002655Y023057D01*
X002655Y022958D02*
X004062Y022958D01*
X004061Y022958D02*
X003992Y022889D01*
X003955Y022799D01*
X003955Y022701D01*
X003992Y022611D01*
X004061Y022542D01*
X004151Y022505D01*
X004249Y022505D01*
X004339Y022542D01*
X004408Y022611D01*
X004445Y022701D01*
X004445Y022799D01*
X004408Y022889D01*
X004339Y022958D01*
X004249Y022995D01*
X004151Y022995D01*
X004061Y022958D01*
X003980Y022860D02*
X002630Y022860D01*
X002584Y022761D02*
X003955Y022761D01*
X003971Y022663D02*
X002486Y022663D01*
X002423Y022367D02*
X005500Y022367D01*
X005500Y022466D02*
X000725Y022466D01*
X000725Y022564D02*
X004039Y022564D01*
X004361Y022564D02*
X005500Y022564D01*
X005500Y022663D02*
X004429Y022663D01*
X004445Y022761D02*
X005500Y022761D01*
X005500Y022860D02*
X004420Y022860D01*
X004338Y022958D02*
X005500Y022958D01*
X005700Y022958D02*
X006885Y022958D01*
X006902Y022999D02*
X006865Y022909D01*
X006865Y022811D01*
X006902Y022721D01*
X006971Y022652D01*
X007061Y022615D01*
X007159Y022615D01*
X007249Y022652D01*
X007318Y022721D01*
X007355Y022811D01*
X007355Y022909D01*
X007318Y022999D01*
X007249Y023068D01*
X007159Y023105D01*
X007061Y023105D01*
X006971Y023068D01*
X006902Y022999D01*
X006960Y023057D02*
X005700Y023057D01*
X005700Y023155D02*
X017698Y023155D01*
X017655Y023254D02*
X005700Y023254D01*
X005700Y023352D02*
X017656Y023352D01*
X017704Y023451D02*
X005700Y023451D01*
X005700Y023549D02*
X017504Y023549D01*
X017896Y023549D02*
X019800Y023549D01*
X019800Y023451D02*
X018096Y023451D01*
X018144Y023352D02*
X019800Y023352D01*
X019800Y023254D02*
X018145Y023254D01*
X018191Y023155D02*
X019800Y023155D01*
X019800Y023057D02*
X018271Y023057D01*
X018295Y022958D02*
X019800Y022958D01*
X019800Y022860D02*
X018278Y022860D01*
X018208Y022761D02*
X019800Y022761D01*
X019800Y022663D02*
X016945Y022663D01*
X016945Y022651D02*
X016908Y022561D01*
X016839Y022492D01*
X016749Y022455D01*
X016651Y022455D01*
X016561Y022492D01*
X016492Y022561D01*
X016455Y022651D01*
X016455Y022749D01*
X016492Y022839D01*
X016561Y022908D01*
X016651Y022945D01*
X016749Y022945D01*
X016839Y022908D01*
X016908Y022839D01*
X016945Y022749D01*
X016945Y022651D01*
X016909Y022564D02*
X019800Y022564D01*
X019800Y022466D02*
X016774Y022466D01*
X016626Y022466D02*
X014145Y022466D01*
X014145Y022499D02*
X014108Y022589D01*
X014039Y022658D01*
X013949Y022695D01*
X013851Y022695D01*
X013761Y022658D01*
X013692Y022589D01*
X013655Y022499D01*
X013655Y022401D01*
X013692Y022311D01*
X013761Y022242D01*
X013851Y022205D01*
X013949Y022205D01*
X014039Y022242D01*
X014108Y022311D01*
X014145Y022401D01*
X014145Y022499D01*
X014118Y022564D02*
X016491Y022564D01*
X016455Y022663D02*
X014027Y022663D01*
X013773Y022663D02*
X007259Y022663D01*
X007334Y022761D02*
X016460Y022761D01*
X016513Y022860D02*
X007355Y022860D01*
X007335Y022958D02*
X017805Y022958D01*
X017822Y022860D02*
X016887Y022860D01*
X016940Y022761D02*
X017892Y022761D01*
X017829Y023057D02*
X007260Y023057D01*
X006886Y022761D02*
X005700Y022761D01*
X005700Y022663D02*
X006961Y022663D01*
X006865Y022860D02*
X005700Y022860D01*
X005700Y022564D02*
X013682Y022564D01*
X013655Y022466D02*
X006781Y022466D01*
X006808Y022439D02*
X006739Y022508D01*
X006649Y022545D01*
X006551Y022545D01*
X006461Y022508D01*
X006392Y022439D01*
X006355Y022349D01*
X006355Y022251D01*
X006392Y022161D01*
X006461Y022092D01*
X006551Y022055D01*
X006628Y022055D01*
X006605Y021999D01*
X006605Y021901D01*
X006642Y021811D01*
X006711Y021742D01*
X006801Y021705D01*
X006899Y021705D01*
X006989Y021742D01*
X007058Y021811D01*
X007095Y021901D01*
X007095Y021999D01*
X007058Y022089D01*
X006989Y022158D01*
X006899Y022195D01*
X006822Y022195D01*
X006845Y022251D01*
X006845Y022349D01*
X006808Y022439D01*
X006837Y022367D02*
X011384Y022367D01*
X011361Y022358D02*
X011292Y022289D01*
X011255Y022199D01*
X011255Y022101D01*
X011292Y022011D01*
X011361Y021942D01*
X011451Y021905D01*
X011549Y021905D01*
X011639Y021942D01*
X011708Y022011D01*
X011745Y022101D01*
X011745Y022199D01*
X011708Y022289D01*
X011639Y022358D01*
X011549Y022395D01*
X011451Y022395D01*
X011361Y022358D01*
X011284Y022269D02*
X006845Y022269D01*
X006959Y022170D02*
X011255Y022170D01*
X011267Y022072D02*
X007065Y022072D01*
X007095Y021973D02*
X011330Y021973D01*
X011670Y021973D02*
X019800Y021973D01*
X019800Y021875D02*
X007084Y021875D01*
X007023Y021776D02*
X014830Y021776D01*
X014861Y021808D02*
X014792Y021739D01*
X014755Y021649D01*
X014755Y021551D01*
X014792Y021461D01*
X014861Y021392D01*
X014951Y021355D01*
X015049Y021355D01*
X015139Y021392D01*
X015208Y021461D01*
X015245Y021551D01*
X015245Y021649D01*
X015208Y021739D01*
X015139Y021808D01*
X015049Y021845D01*
X014951Y021845D01*
X014861Y021808D01*
X014767Y021678D02*
X006200Y021678D01*
X006200Y021776D02*
X006677Y021776D01*
X006616Y021875D02*
X006132Y021875D01*
X006043Y021973D02*
X006605Y021973D01*
X006511Y022072D02*
X005953Y022072D01*
X005864Y022170D02*
X006389Y022170D01*
X006355Y022269D02*
X005774Y022269D01*
X005700Y022367D02*
X006363Y022367D01*
X006419Y022466D02*
X005700Y022466D01*
X005529Y022269D02*
X002555Y022269D01*
X002618Y022170D02*
X004474Y022170D01*
X004442Y022139D02*
X004405Y022049D01*
X004405Y021951D01*
X004442Y021861D01*
X004511Y021792D01*
X004601Y021755D01*
X004699Y021755D01*
X004789Y021792D01*
X004858Y021861D01*
X004895Y021951D01*
X004895Y022049D01*
X004858Y022139D01*
X004789Y022208D01*
X004699Y022245D01*
X004601Y022245D01*
X004511Y022208D01*
X004442Y022139D01*
X004414Y022072D02*
X002655Y022072D01*
X002655Y021973D02*
X004405Y021973D01*
X004437Y021875D02*
X002637Y021875D01*
X002596Y021776D02*
X004550Y021776D01*
X004750Y021776D02*
X005500Y021776D01*
X005387Y021875D02*
X004863Y021875D01*
X004895Y021973D02*
X005355Y021973D01*
X005364Y022072D02*
X004886Y022072D01*
X004826Y022170D02*
X005424Y022170D01*
X005700Y021776D02*
X005976Y021776D01*
X006000Y021678D02*
X002501Y021678D01*
X002387Y021382D02*
X006000Y021382D01*
X006000Y021284D02*
X002540Y021284D01*
X002612Y021185D02*
X006000Y021185D01*
X006000Y021087D02*
X002653Y021087D01*
X002655Y020988D02*
X005988Y020988D01*
X005890Y020890D02*
X002643Y020890D01*
X002602Y020791D02*
X005791Y020791D01*
X005693Y020693D02*
X002516Y020693D01*
X002350Y020397D02*
X004551Y020397D01*
X004561Y020408D02*
X004492Y020339D01*
X004455Y020249D01*
X004455Y020151D01*
X004492Y020061D01*
X004561Y019992D01*
X004651Y019955D01*
X004749Y019955D01*
X004839Y019992D01*
X004908Y020061D01*
X004945Y020151D01*
X004945Y020249D01*
X004908Y020339D01*
X004839Y020408D01*
X004749Y020445D01*
X004651Y020445D01*
X004561Y020408D01*
X004476Y020299D02*
X002525Y020299D01*
X002480Y020344D02*
X002331Y020405D01*
X002169Y020405D01*
X002020Y020344D01*
X001906Y020230D01*
X001845Y020081D01*
X001845Y019919D01*
X001906Y019770D01*
X002020Y019656D01*
X002169Y019595D01*
X002331Y019595D01*
X002480Y019656D01*
X002594Y019770D01*
X002655Y019919D01*
X002655Y020081D01*
X002594Y020230D01*
X002480Y020344D01*
X002606Y020200D02*
X004455Y020200D01*
X004476Y020102D02*
X002647Y020102D01*
X002655Y020003D02*
X004550Y020003D01*
X004850Y020003D02*
X005100Y020003D01*
X005100Y019905D02*
X002649Y019905D01*
X002608Y019806D02*
X005100Y019806D01*
X005100Y019708D02*
X002531Y019708D01*
X002365Y019609D02*
X005100Y019609D01*
X005100Y019511D02*
X000725Y019511D01*
X000725Y019609D02*
X001135Y019609D01*
X001169Y019595D02*
X001331Y019595D01*
X001480Y019656D01*
X001594Y019770D01*
X001655Y019919D01*
X001655Y020081D01*
X001594Y020230D01*
X001480Y020344D01*
X001331Y020405D01*
X001169Y020405D01*
X001020Y020344D01*
X000906Y020230D01*
X000845Y020081D01*
X000845Y019919D01*
X000906Y019770D01*
X001020Y019656D01*
X001169Y019595D01*
X001169Y019405D02*
X001020Y019344D01*
X000906Y019230D01*
X000845Y019081D01*
X000845Y018919D01*
X000906Y018770D01*
X001020Y018656D01*
X001169Y018595D01*
X001331Y018595D01*
X001480Y018656D01*
X001594Y018770D01*
X001655Y018919D01*
X001655Y019081D01*
X001594Y019230D01*
X001480Y019344D01*
X001331Y019405D01*
X001169Y019405D01*
X000990Y019314D02*
X000725Y019314D01*
X000725Y019412D02*
X005100Y019412D01*
X005100Y019314D02*
X002510Y019314D01*
X002480Y019344D02*
X002331Y019405D01*
X002169Y019405D01*
X002020Y019344D01*
X001906Y019230D01*
X001845Y019081D01*
X001845Y018919D01*
X001906Y018770D01*
X002020Y018656D01*
X002169Y018595D01*
X002331Y018595D01*
X002480Y018656D01*
X002594Y018770D01*
X002655Y018919D01*
X002655Y019081D01*
X002594Y019230D01*
X002480Y019344D01*
X002600Y019215D02*
X005100Y019215D01*
X005100Y019117D02*
X002640Y019117D01*
X002655Y019018D02*
X005100Y019018D01*
X005100Y018920D02*
X002655Y018920D01*
X002615Y018821D02*
X005100Y018821D01*
X005100Y018723D02*
X002546Y018723D01*
X002401Y018624D02*
X005100Y018624D01*
X005174Y018526D02*
X000725Y018526D01*
X000725Y018624D02*
X001099Y018624D01*
X000954Y018723D02*
X000725Y018723D01*
X000725Y018821D02*
X000885Y018821D01*
X000845Y018920D02*
X000725Y018920D01*
X000725Y019018D02*
X000845Y019018D01*
X000860Y019117D02*
X000725Y019117D01*
X000725Y019215D02*
X000900Y019215D01*
X000969Y019708D02*
X000725Y019708D01*
X000725Y019806D02*
X000892Y019806D01*
X000851Y019905D02*
X000725Y019905D01*
X000725Y020003D02*
X000845Y020003D01*
X000853Y020102D02*
X000725Y020102D01*
X000725Y020200D02*
X000894Y020200D01*
X000975Y020299D02*
X000725Y020299D01*
X000725Y020397D02*
X001150Y020397D01*
X001350Y020397D02*
X002150Y020397D01*
X001975Y020299D02*
X001525Y020299D01*
X001606Y020200D02*
X001894Y020200D01*
X001853Y020102D02*
X001647Y020102D01*
X001655Y020003D02*
X001845Y020003D01*
X001851Y019905D02*
X001649Y019905D01*
X001608Y019806D02*
X001892Y019806D01*
X001969Y019708D02*
X001531Y019708D01*
X001365Y019609D02*
X002135Y019609D01*
X001990Y019314D02*
X001510Y019314D01*
X001600Y019215D02*
X001900Y019215D01*
X001860Y019117D02*
X001640Y019117D01*
X001655Y019018D02*
X001845Y019018D01*
X001845Y018920D02*
X001655Y018920D01*
X001615Y018821D02*
X001885Y018821D01*
X001954Y018723D02*
X001546Y018723D01*
X001401Y018624D02*
X002099Y018624D01*
X002169Y018405D02*
X002020Y018344D01*
X001906Y018230D01*
X001845Y018081D01*
X001845Y017919D01*
X001906Y017770D01*
X002020Y017656D01*
X002169Y017595D01*
X002331Y017595D01*
X002480Y017656D01*
X002594Y017770D01*
X002655Y017919D01*
X002655Y018081D01*
X002594Y018230D01*
X002480Y018344D01*
X002331Y018405D01*
X002169Y018405D01*
X002005Y018329D02*
X001495Y018329D01*
X001480Y018344D02*
X001331Y018405D01*
X001169Y018405D01*
X001020Y018344D01*
X000906Y018230D01*
X000845Y018081D01*
X000845Y017919D01*
X000906Y017770D01*
X001020Y017656D01*
X001169Y017595D01*
X001331Y017595D01*
X001480Y017656D01*
X001594Y017770D01*
X001655Y017919D01*
X001655Y018081D01*
X001594Y018230D01*
X001480Y018344D01*
X001593Y018230D02*
X001907Y018230D01*
X001866Y018132D02*
X001634Y018132D01*
X001655Y018033D02*
X001845Y018033D01*
X001845Y017935D02*
X001655Y017935D01*
X001621Y017836D02*
X001879Y017836D01*
X001939Y017738D02*
X001561Y017738D01*
X001438Y017639D02*
X002062Y017639D01*
X002169Y017405D02*
X002020Y017344D01*
X001906Y017230D01*
X001845Y017081D01*
X001845Y016919D01*
X001906Y016770D01*
X002020Y016656D01*
X002169Y016595D01*
X002331Y016595D01*
X002480Y016656D01*
X002594Y016770D01*
X002655Y016919D01*
X002655Y017081D01*
X002594Y017230D01*
X002480Y017344D01*
X002331Y017405D01*
X002169Y017405D01*
X002020Y017344D02*
X001480Y017344D01*
X001331Y017405D01*
X001169Y017405D01*
X001020Y017344D01*
X000906Y017230D01*
X000845Y017081D01*
X000845Y016919D01*
X000906Y016770D01*
X001020Y016656D01*
X001169Y016595D01*
X001331Y016595D01*
X001480Y016656D01*
X001594Y016770D01*
X001655Y016919D01*
X001655Y017081D01*
X001594Y017230D01*
X001480Y017344D01*
X001578Y017245D02*
X001922Y017245D01*
X001872Y017147D02*
X001628Y017147D01*
X001655Y017048D02*
X001845Y017048D01*
X001845Y016950D02*
X001655Y016950D01*
X001627Y016851D02*
X001873Y016851D01*
X001924Y016753D02*
X001576Y016753D01*
X001474Y016654D02*
X002026Y016654D01*
X002169Y016405D02*
X002020Y016344D01*
X001906Y016230D01*
X001845Y016081D01*
X001845Y015919D01*
X001906Y015770D01*
X002020Y015656D01*
X002169Y015595D01*
X002331Y015595D01*
X002480Y015656D01*
X002594Y015770D01*
X002655Y015919D01*
X002655Y016081D01*
X002594Y016230D01*
X002480Y016344D01*
X002331Y016405D01*
X002169Y016405D01*
X002057Y016359D02*
X001443Y016359D01*
X001480Y016344D02*
X001331Y016405D01*
X001169Y016405D01*
X001020Y016344D01*
X000906Y016230D01*
X000845Y016081D01*
X000845Y015919D01*
X000906Y015770D01*
X001020Y015656D01*
X001169Y015595D01*
X001331Y015595D01*
X001480Y015656D01*
X001594Y015770D01*
X001655Y015919D01*
X001655Y016081D01*
X001594Y016230D01*
X001480Y016344D01*
X001563Y016260D02*
X001937Y016260D01*
X001878Y016162D02*
X001622Y016162D01*
X001655Y016063D02*
X001845Y016063D01*
X001845Y015965D02*
X001655Y015965D01*
X001633Y015866D02*
X001867Y015866D01*
X001909Y015768D02*
X001591Y015768D01*
X001492Y015669D02*
X002008Y015669D01*
X002093Y015374D02*
X001407Y015374D01*
X001480Y015344D02*
X001331Y015405D01*
X001169Y015405D01*
X001020Y015344D01*
X000906Y015230D01*
X000845Y015081D01*
X000845Y014919D01*
X000906Y014770D01*
X001020Y014656D01*
X001169Y014595D01*
X001331Y014595D01*
X001480Y014656D01*
X001594Y014770D01*
X001655Y014919D01*
X001655Y015081D01*
X001594Y015230D01*
X001480Y015344D01*
X001548Y015275D02*
X001952Y015275D01*
X001906Y015230D02*
X001845Y015081D01*
X001845Y014919D01*
X001906Y014770D01*
X002020Y014656D01*
X002169Y014595D01*
X002331Y014595D01*
X002480Y014656D01*
X002594Y014770D01*
X002655Y014919D01*
X002655Y015081D01*
X002594Y015230D01*
X002480Y015344D01*
X002331Y015405D01*
X002169Y015405D01*
X002020Y015344D01*
X001906Y015230D01*
X001884Y015177D02*
X001616Y015177D01*
X001655Y015078D02*
X001845Y015078D01*
X001845Y014980D02*
X001655Y014980D01*
X001639Y014881D02*
X001861Y014881D01*
X001901Y014783D02*
X001599Y014783D01*
X001507Y014684D02*
X001993Y014684D01*
X002129Y014389D02*
X001371Y014389D01*
X001331Y014405D02*
X001480Y014344D01*
X001594Y014230D01*
X001655Y014081D01*
X001655Y013919D01*
X001594Y013770D01*
X001480Y013656D01*
X001331Y013595D01*
X001169Y013595D01*
X001020Y013656D01*
X000906Y013770D01*
X000845Y013919D01*
X000845Y014081D01*
X000906Y014230D01*
X001020Y014344D01*
X001169Y014405D01*
X001331Y014405D01*
X001129Y014389D02*
X000725Y014389D01*
X000725Y014487D02*
X011832Y014487D01*
X011900Y014389D02*
X002371Y014389D01*
X002331Y014405D02*
X002169Y014405D01*
X002020Y014344D01*
X001906Y014230D01*
X001845Y014081D01*
X001845Y013919D01*
X001906Y013770D01*
X002020Y013656D01*
X002169Y013595D01*
X002331Y013595D01*
X002480Y013656D01*
X002594Y013770D01*
X002655Y013919D01*
X002655Y014081D01*
X002594Y014230D01*
X002480Y014344D01*
X002331Y014405D01*
X002533Y014290D02*
X011900Y014290D01*
X011900Y014192D02*
X002609Y014192D01*
X002650Y014093D02*
X011900Y014093D01*
X011900Y013995D02*
X002655Y013995D01*
X002646Y013896D02*
X011900Y013896D01*
X011900Y013798D02*
X002605Y013798D01*
X002522Y013699D02*
X011900Y013699D01*
X011900Y013601D02*
X010146Y013601D01*
X010139Y013608D02*
X010049Y013645D01*
X009951Y013645D01*
X009861Y013608D01*
X009792Y013539D01*
X009755Y013449D01*
X009755Y013351D01*
X009792Y013261D01*
X009861Y013192D01*
X009951Y013155D01*
X010049Y013155D01*
X010139Y013192D01*
X010208Y013261D01*
X010245Y013351D01*
X010245Y013449D01*
X010208Y013539D01*
X010139Y013608D01*
X010223Y013502D02*
X011900Y013502D01*
X011900Y013404D02*
X010245Y013404D01*
X010226Y013305D02*
X011900Y013305D01*
X011900Y013207D02*
X010153Y013207D01*
X009847Y013207D02*
X007503Y013207D01*
X007489Y013192D02*
X007558Y013261D01*
X007595Y013351D01*
X007595Y013449D01*
X007558Y013539D01*
X007489Y013608D01*
X007399Y013645D01*
X007301Y013645D01*
X007211Y013608D01*
X007142Y013539D01*
X007105Y013449D01*
X007105Y013351D01*
X007142Y013261D01*
X007211Y013192D01*
X007301Y013155D01*
X007399Y013155D01*
X007489Y013192D01*
X007576Y013305D02*
X009774Y013305D01*
X009755Y013404D02*
X007595Y013404D01*
X007573Y013502D02*
X009777Y013502D01*
X009854Y013601D02*
X007496Y013601D01*
X007204Y013601D02*
X002345Y013601D01*
X002155Y013601D02*
X001345Y013601D01*
X001155Y013601D02*
X000725Y013601D01*
X000725Y013699D02*
X000978Y013699D01*
X000895Y013798D02*
X000725Y013798D01*
X000725Y013896D02*
X000854Y013896D01*
X000845Y013995D02*
X000725Y013995D01*
X000725Y014093D02*
X000850Y014093D01*
X000891Y014192D02*
X000725Y014192D01*
X000725Y014290D02*
X000967Y014290D01*
X000725Y014586D02*
X011733Y014586D01*
X011635Y014684D02*
X002507Y014684D01*
X002599Y014783D02*
X003585Y014783D01*
X003561Y014792D02*
X003651Y014755D01*
X003749Y014755D01*
X003839Y014792D01*
X003908Y014861D01*
X003945Y014951D01*
X003945Y015049D01*
X003908Y015139D01*
X003839Y015208D01*
X003749Y015245D01*
X003651Y015245D01*
X003561Y015208D01*
X003492Y015139D01*
X003455Y015049D01*
X003455Y014951D01*
X003492Y014861D01*
X003561Y014792D01*
X003484Y014881D02*
X002639Y014881D01*
X002655Y014980D02*
X003455Y014980D01*
X003467Y015078D02*
X002655Y015078D01*
X002616Y015177D02*
X003530Y015177D01*
X003870Y015177D02*
X004330Y015177D01*
X004361Y015208D02*
X004292Y015139D01*
X004255Y015049D01*
X004255Y014951D01*
X004292Y014861D01*
X004361Y014792D01*
X004451Y014755D01*
X004549Y014755D01*
X004639Y014792D01*
X004708Y014861D01*
X004745Y014951D01*
X004745Y015049D01*
X004708Y015139D01*
X004639Y015208D01*
X004549Y015245D01*
X004451Y015245D01*
X004361Y015208D01*
X004267Y015078D02*
X003933Y015078D01*
X003945Y014980D02*
X004255Y014980D01*
X004284Y014881D02*
X003916Y014881D01*
X003815Y014783D02*
X004385Y014783D01*
X004615Y014783D02*
X005185Y014783D01*
X005161Y014792D02*
X005251Y014755D01*
X005349Y014755D01*
X005439Y014792D01*
X005508Y014861D01*
X005545Y014951D01*
X005545Y015049D01*
X005508Y015139D01*
X005439Y015208D01*
X005349Y015245D01*
X005251Y015245D01*
X005161Y015208D01*
X005092Y015139D01*
X005055Y015049D01*
X005055Y014951D01*
X005092Y014861D01*
X005161Y014792D01*
X005084Y014881D02*
X004716Y014881D01*
X004745Y014980D02*
X005055Y014980D01*
X005067Y015078D02*
X004733Y015078D01*
X004670Y015177D02*
X005130Y015177D01*
X005470Y015177D02*
X005930Y015177D01*
X005961Y015208D02*
X005892Y015139D01*
X005855Y015049D01*
X005855Y014951D01*
X005892Y014861D01*
X005961Y014792D01*
X006051Y014755D01*
X006149Y014755D01*
X006239Y014792D01*
X006308Y014861D01*
X006345Y014951D01*
X006345Y015049D01*
X006308Y015139D01*
X006239Y015208D01*
X006149Y015245D01*
X006051Y015245D01*
X005961Y015208D01*
X005867Y015078D02*
X005533Y015078D01*
X005545Y014980D02*
X005855Y014980D01*
X005884Y014881D02*
X005516Y014881D01*
X005415Y014783D02*
X005985Y014783D01*
X006215Y014783D02*
X006785Y014783D01*
X006761Y014792D02*
X006851Y014755D01*
X006949Y014755D01*
X007039Y014792D01*
X007108Y014861D01*
X007145Y014951D01*
X007145Y015049D01*
X007108Y015139D01*
X007039Y015208D01*
X006949Y015245D01*
X006851Y015245D01*
X006761Y015208D01*
X006692Y015139D01*
X006655Y015049D01*
X006655Y014951D01*
X006692Y014861D01*
X006761Y014792D01*
X006684Y014881D02*
X006316Y014881D01*
X006345Y014980D02*
X006655Y014980D01*
X006667Y015078D02*
X006333Y015078D01*
X006270Y015177D02*
X006730Y015177D01*
X007070Y015177D02*
X007530Y015177D01*
X007467Y015078D02*
X007133Y015078D01*
X007145Y014980D02*
X007455Y014980D01*
X007484Y014881D02*
X007116Y014881D01*
X007015Y014783D02*
X007585Y014783D01*
X007815Y014783D02*
X011536Y014783D01*
X011438Y014881D02*
X007916Y014881D01*
X007945Y014980D02*
X011339Y014980D01*
X011241Y015078D02*
X007933Y015078D01*
X007870Y015177D02*
X011142Y015177D01*
X011266Y015374D02*
X012387Y015374D01*
X012392Y015361D02*
X012461Y015292D01*
X012551Y015255D01*
X012649Y015255D01*
X012739Y015292D01*
X012808Y015361D01*
X012845Y015451D01*
X012845Y015549D01*
X012808Y015639D01*
X012739Y015708D01*
X012649Y015745D01*
X012551Y015745D01*
X012461Y015708D01*
X012392Y015639D01*
X012355Y015549D01*
X012355Y015451D01*
X012392Y015361D01*
X012355Y015472D02*
X007228Y015472D01*
X007129Y015571D02*
X012364Y015571D01*
X012423Y015669D02*
X007031Y015669D01*
X006932Y015768D02*
X019800Y015768D01*
X019800Y015866D02*
X006834Y015866D01*
X006735Y015965D02*
X019800Y015965D01*
X019800Y016063D02*
X006637Y016063D01*
X006538Y016162D02*
X019800Y016162D01*
X019800Y016260D02*
X006440Y016260D01*
X006341Y016359D02*
X019800Y016359D01*
X019800Y016457D02*
X006243Y016457D01*
X006144Y016556D02*
X019800Y016556D01*
X019800Y016654D02*
X006046Y016654D01*
X006000Y016753D02*
X014301Y016753D01*
X014292Y016761D02*
X014361Y016692D01*
X014451Y016655D01*
X014549Y016655D01*
X014639Y016692D01*
X014708Y016761D01*
X014745Y016851D01*
X019800Y016851D01*
X019800Y016753D02*
X014699Y016753D01*
X014745Y016851D02*
X014745Y016949D01*
X014708Y017039D01*
X014639Y017108D01*
X014549Y017145D01*
X014451Y017145D01*
X014361Y017108D01*
X014292Y017039D01*
X014255Y016949D01*
X014255Y016851D01*
X006000Y016851D01*
X006000Y016950D02*
X014255Y016950D01*
X014255Y016851D02*
X014292Y016761D01*
X014302Y017048D02*
X006000Y017048D01*
X006000Y017147D02*
X019800Y017147D01*
X019800Y017245D02*
X006000Y017245D01*
X006000Y017344D02*
X019800Y017344D01*
X019800Y017442D02*
X006000Y017442D01*
X006000Y017541D02*
X019800Y017541D01*
X019800Y017639D02*
X006000Y017639D01*
X006000Y017738D02*
X019800Y017738D01*
X019800Y017836D02*
X008183Y017836D01*
X008208Y017861D02*
X008139Y017792D01*
X008049Y017755D01*
X007951Y017755D01*
X007861Y017792D01*
X007792Y017861D01*
X007755Y017951D01*
X007755Y018049D01*
X007792Y018139D01*
X007861Y018208D01*
X007951Y018245D01*
X008049Y018245D01*
X008139Y018208D01*
X008208Y018139D01*
X008245Y018049D01*
X008245Y017951D01*
X008208Y017861D01*
X008238Y017935D02*
X016119Y017935D01*
X016092Y017961D02*
X016161Y017892D01*
X016251Y017855D01*
X016349Y017855D01*
X016439Y017892D01*
X016508Y017961D01*
X016545Y018051D01*
X016545Y018149D01*
X016508Y018239D01*
X016439Y018308D01*
X016349Y018345D01*
X016251Y018345D01*
X016161Y018308D01*
X016092Y018239D01*
X016055Y018149D01*
X016055Y018051D01*
X016092Y017961D01*
X016063Y018033D02*
X008245Y018033D01*
X008211Y018132D02*
X016055Y018132D01*
X016089Y018230D02*
X008085Y018230D01*
X008049Y018255D02*
X008139Y018292D01*
X008208Y018361D01*
X008245Y018451D01*
X008245Y018549D01*
X008208Y018639D01*
X008139Y018708D01*
X008049Y018745D01*
X007951Y018745D01*
X007861Y018708D01*
X007792Y018639D01*
X007755Y018549D01*
X007755Y018451D01*
X007792Y018361D01*
X007861Y018292D01*
X007951Y018255D01*
X008049Y018255D01*
X007915Y018230D02*
X005770Y018230D01*
X005868Y018132D02*
X007789Y018132D01*
X007755Y018033D02*
X005967Y018033D01*
X006000Y017935D02*
X007762Y017935D01*
X007817Y017836D02*
X006000Y017836D01*
X005800Y017836D02*
X002621Y017836D01*
X002655Y017935D02*
X005765Y017935D01*
X005667Y018033D02*
X002655Y018033D01*
X002634Y018132D02*
X005568Y018132D01*
X005470Y018230D02*
X002593Y018230D01*
X002495Y018329D02*
X005371Y018329D01*
X005273Y018427D02*
X000725Y018427D01*
X000725Y018329D02*
X001005Y018329D01*
X000907Y018230D02*
X000725Y018230D01*
X000725Y018132D02*
X000866Y018132D01*
X000845Y018033D02*
X000725Y018033D01*
X000725Y017935D02*
X000845Y017935D01*
X000879Y017836D02*
X000725Y017836D01*
X000725Y017738D02*
X000939Y017738D01*
X001062Y017639D02*
X000725Y017639D01*
X000725Y017541D02*
X005800Y017541D01*
X005800Y017639D02*
X002438Y017639D01*
X002561Y017738D02*
X005800Y017738D01*
X005800Y017442D02*
X000725Y017442D01*
X000725Y017344D02*
X001020Y017344D01*
X000922Y017245D02*
X000725Y017245D01*
X000725Y017147D02*
X000872Y017147D01*
X000845Y017048D02*
X000725Y017048D01*
X000725Y016950D02*
X000845Y016950D01*
X000873Y016851D02*
X000725Y016851D01*
X000725Y016753D02*
X000924Y016753D01*
X001026Y016654D02*
X000725Y016654D01*
X000725Y016556D02*
X003858Y016556D01*
X003855Y016549D02*
X003855Y016451D01*
X003892Y016361D01*
X003961Y016292D01*
X004051Y016255D01*
X004149Y016255D01*
X004239Y016292D01*
X004308Y016361D01*
X004345Y016451D01*
X004345Y016549D01*
X004308Y016639D01*
X004239Y016708D01*
X004149Y016745D01*
X004051Y016745D01*
X003961Y016708D01*
X003892Y016639D01*
X003855Y016549D01*
X003855Y016457D02*
X000725Y016457D01*
X000725Y016359D02*
X001057Y016359D01*
X000937Y016260D02*
X000725Y016260D01*
X000725Y016162D02*
X000878Y016162D01*
X000845Y016063D02*
X000725Y016063D01*
X000725Y015965D02*
X000845Y015965D01*
X000867Y015866D02*
X000725Y015866D01*
X000725Y015768D02*
X000909Y015768D01*
X001008Y015669D02*
X000725Y015669D01*
X000725Y015571D02*
X006829Y015571D01*
X006731Y015669D02*
X002492Y015669D01*
X002591Y015768D02*
X006632Y015768D01*
X006534Y015866D02*
X002633Y015866D01*
X002655Y015965D02*
X006435Y015965D01*
X006337Y016063D02*
X002655Y016063D01*
X002622Y016162D02*
X006238Y016162D01*
X006140Y016260D02*
X004161Y016260D01*
X004039Y016260D02*
X002563Y016260D01*
X002443Y016359D02*
X003895Y016359D01*
X003908Y016654D02*
X002474Y016654D01*
X002576Y016753D02*
X005800Y016753D01*
X005800Y016851D02*
X002627Y016851D01*
X002655Y016950D02*
X003304Y016950D01*
X003292Y016961D02*
X003361Y016892D01*
X003451Y016855D01*
X003549Y016855D01*
X003639Y016892D01*
X003708Y016961D01*
X003745Y017051D01*
X003745Y017149D01*
X003708Y017239D01*
X003639Y017308D01*
X003549Y017345D01*
X003451Y017345D01*
X003361Y017308D01*
X003292Y017239D01*
X003255Y017149D01*
X003255Y017051D01*
X003292Y016961D01*
X003256Y017048D02*
X002655Y017048D01*
X002628Y017147D02*
X003255Y017147D01*
X003299Y017245D02*
X002578Y017245D01*
X002480Y017344D02*
X003448Y017344D01*
X003552Y017344D02*
X005800Y017344D01*
X005800Y017245D02*
X003701Y017245D01*
X003745Y017147D02*
X005800Y017147D01*
X005800Y017048D02*
X003744Y017048D01*
X003696Y016950D02*
X005800Y016950D01*
X005800Y016654D02*
X004292Y016654D01*
X004342Y016556D02*
X005844Y016556D01*
X005943Y016457D02*
X004345Y016457D01*
X004305Y016359D02*
X006041Y016359D01*
X006928Y015472D02*
X000725Y015472D01*
X000725Y015374D02*
X001093Y015374D01*
X000952Y015275D02*
X000725Y015275D01*
X000725Y015177D02*
X000884Y015177D01*
X000845Y015078D02*
X000725Y015078D01*
X000725Y014980D02*
X000845Y014980D01*
X000861Y014881D02*
X000725Y014881D01*
X000725Y014783D02*
X000901Y014783D01*
X000993Y014684D02*
X000725Y014684D01*
X001533Y014290D02*
X001967Y014290D01*
X001891Y014192D02*
X001609Y014192D01*
X001650Y014093D02*
X001850Y014093D01*
X001845Y013995D02*
X001655Y013995D01*
X001646Y013896D02*
X001854Y013896D01*
X001895Y013798D02*
X001605Y013798D01*
X001522Y013699D02*
X001978Y013699D01*
X002165Y013404D02*
X001335Y013404D01*
X001331Y013405D02*
X001480Y013344D01*
X001594Y013230D01*
X001655Y013081D01*
X001655Y012919D01*
X001594Y012770D01*
X001480Y012656D01*
X001331Y012595D01*
X001169Y012595D01*
X001020Y012656D01*
X000906Y012770D01*
X000845Y012919D01*
X000845Y013081D01*
X000906Y013230D01*
X001020Y013344D01*
X001169Y013405D01*
X001331Y013405D01*
X001165Y013404D02*
X000725Y013404D01*
X000725Y013502D02*
X007127Y013502D01*
X007105Y013404D02*
X002335Y013404D01*
X002331Y013405D02*
X002169Y013405D01*
X002020Y013344D01*
X001906Y013230D01*
X001845Y013081D01*
X001845Y012919D01*
X001906Y012770D01*
X002020Y012656D01*
X002169Y012595D01*
X002331Y012595D01*
X002480Y012656D01*
X002594Y012770D01*
X002655Y012919D01*
X002655Y013081D01*
X002594Y013230D01*
X002480Y013344D01*
X002331Y013405D01*
X002518Y013305D02*
X007124Y013305D01*
X007197Y013207D02*
X002603Y013207D01*
X002644Y013108D02*
X011900Y013108D01*
X011900Y013010D02*
X002655Y013010D01*
X002652Y012911D02*
X011900Y012911D01*
X011900Y012813D02*
X002611Y012813D01*
X002537Y012714D02*
X011900Y012714D01*
X011900Y012616D02*
X002381Y012616D01*
X002331Y012405D02*
X002169Y012405D01*
X002020Y012344D01*
X001906Y012230D01*
X001845Y012081D01*
X001845Y011919D01*
X001906Y011770D01*
X002020Y011656D01*
X002169Y011595D01*
X002331Y011595D01*
X002480Y011656D01*
X002594Y011770D01*
X002655Y011919D01*
X002655Y012081D01*
X002594Y012230D01*
X002480Y012344D01*
X002331Y012405D01*
X002503Y012320D02*
X011900Y012320D01*
X011900Y012222D02*
X002597Y012222D01*
X002638Y012123D02*
X011900Y012123D01*
X011900Y012025D02*
X005598Y012025D01*
X005639Y012008D02*
X005549Y012045D01*
X005451Y012045D01*
X005361Y012008D01*
X005292Y011939D01*
X005255Y011849D01*
X005255Y011751D01*
X005292Y011661D01*
X005361Y011592D01*
X005451Y011555D01*
X005549Y011555D01*
X005639Y011592D01*
X005708Y011661D01*
X005745Y011751D01*
X005745Y011849D01*
X005708Y011939D01*
X005639Y012008D01*
X005713Y011926D02*
X011900Y011926D01*
X011900Y011828D02*
X005745Y011828D01*
X005736Y011729D02*
X011900Y011729D01*
X011900Y011631D02*
X005677Y011631D01*
X005402Y012025D02*
X002655Y012025D01*
X002655Y011926D02*
X005287Y011926D01*
X005255Y011828D02*
X002617Y011828D01*
X002552Y011729D02*
X005264Y011729D01*
X005323Y011631D02*
X002417Y011631D01*
X002331Y011405D02*
X002169Y011405D01*
X002020Y011344D01*
X001906Y011230D01*
X001845Y011081D01*
X001845Y010919D01*
X001906Y010770D01*
X002020Y010656D01*
X002169Y010595D01*
X002331Y010595D01*
X002480Y010656D01*
X002594Y010770D01*
X002655Y010919D01*
X002655Y011081D01*
X002594Y011230D01*
X002480Y011344D01*
X002331Y011405D01*
X002488Y011335D02*
X011900Y011335D01*
X011900Y011237D02*
X002587Y011237D01*
X002631Y011138D02*
X011900Y011138D01*
X011900Y011040D02*
X002655Y011040D01*
X002655Y010941D02*
X011900Y010941D01*
X011900Y010843D02*
X002623Y010843D01*
X002567Y010744D02*
X011900Y010744D01*
X011950Y010646D02*
X002453Y010646D01*
X002331Y010405D02*
X002480Y010344D01*
X002594Y010230D01*
X002655Y010081D01*
X002655Y009919D01*
X002594Y009770D01*
X002480Y009656D01*
X002331Y009595D01*
X002169Y009595D01*
X002020Y009656D01*
X001906Y009770D01*
X001845Y009919D01*
X001845Y010081D01*
X001906Y010230D01*
X002020Y010344D01*
X002169Y010405D01*
X002331Y010405D01*
X002464Y010350D02*
X003556Y010350D01*
X003555Y010351D02*
X003592Y010261D01*
X003661Y010192D01*
X003751Y010155D01*
X003849Y010155D01*
X003939Y010192D01*
X004008Y010261D01*
X004045Y010351D01*
X004045Y010449D01*
X004008Y010539D01*
X003939Y010608D01*
X003849Y010645D01*
X003751Y010645D01*
X003661Y010608D01*
X003592Y010539D01*
X003555Y010449D01*
X003555Y010351D01*
X003555Y010449D02*
X000725Y010449D01*
X000725Y010547D02*
X003601Y010547D01*
X003602Y010252D02*
X002572Y010252D01*
X002625Y010153D02*
X012405Y010153D01*
X012496Y010055D02*
X002655Y010055D01*
X002655Y009956D02*
X012587Y009956D01*
X012678Y009858D02*
X002630Y009858D01*
X002582Y009759D02*
X012769Y009759D01*
X012860Y009661D02*
X007886Y009661D01*
X007908Y009639D02*
X007839Y009708D01*
X007749Y009745D01*
X007651Y009745D01*
X007561Y009708D01*
X007492Y009639D01*
X007455Y009549D01*
X007455Y009451D01*
X007492Y009361D01*
X007561Y009292D01*
X007651Y009255D01*
X007749Y009255D01*
X007839Y009292D01*
X007908Y009361D01*
X007945Y009451D01*
X007945Y009549D01*
X007908Y009639D01*
X007939Y009562D02*
X012950Y009562D01*
X013041Y009464D02*
X007945Y009464D01*
X007909Y009365D02*
X014035Y009365D01*
X014133Y009267D02*
X007777Y009267D01*
X007623Y009267D02*
X004945Y009267D01*
X004945Y009251D02*
X004908Y009161D01*
X004839Y009092D01*
X004749Y009055D01*
X004651Y009055D01*
X004561Y009092D01*
X004492Y009161D01*
X004455Y009251D01*
X004455Y009349D01*
X004492Y009439D01*
X004561Y009508D01*
X004651Y009545D01*
X004749Y009545D01*
X004839Y009508D01*
X004908Y009439D01*
X004945Y009349D01*
X004945Y009251D01*
X004911Y009168D02*
X014232Y009168D01*
X014330Y009070D02*
X007877Y009070D01*
X007936Y008971D02*
X014429Y008971D01*
X014527Y008873D02*
X007945Y008873D01*
X007913Y008774D02*
X014626Y008774D01*
X014724Y008676D02*
X013786Y008676D01*
X013902Y008577D02*
X021775Y008577D01*
X021775Y008479D02*
X013959Y008479D01*
X013975Y008380D02*
X021775Y008380D01*
X021775Y008282D02*
X013975Y008282D01*
X013975Y008183D02*
X021775Y008183D01*
X021775Y008085D02*
X013975Y008085D01*
X013975Y007986D02*
X021775Y007986D01*
X021775Y007888D02*
X013975Y007888D01*
X013975Y007789D02*
X021775Y007789D01*
X021775Y007691D02*
X013975Y007691D01*
X013975Y007592D02*
X014269Y007592D01*
X014270Y007594D02*
X014156Y007480D01*
X014095Y007331D01*
X014095Y007169D01*
X014156Y007020D01*
X014270Y006906D01*
X014419Y006845D01*
X014581Y006845D01*
X014730Y006906D01*
X014844Y007020D01*
X014905Y007169D01*
X014905Y007331D01*
X014844Y007480D01*
X014730Y007594D01*
X014581Y007655D01*
X014419Y007655D01*
X014270Y007594D01*
X014170Y007494D02*
X013975Y007494D01*
X013975Y007395D02*
X014121Y007395D01*
X014095Y007297D02*
X013975Y007297D01*
X013975Y007198D02*
X014095Y007198D01*
X014124Y007100D02*
X013975Y007100D01*
X013975Y007001D02*
X014176Y007001D01*
X014280Y006903D02*
X013975Y006903D01*
X013975Y006804D02*
X021775Y006804D01*
X021775Y006706D02*
X013975Y006706D01*
X013975Y006607D02*
X014303Y006607D01*
X014270Y006594D02*
X014156Y006480D01*
X014095Y006331D01*
X014095Y006169D01*
X014156Y006020D01*
X014270Y005906D01*
X014419Y005845D01*
X014581Y005845D01*
X014730Y005906D01*
X014844Y006020D01*
X014905Y006169D01*
X014905Y006331D01*
X014844Y006480D01*
X014730Y006594D01*
X014581Y006655D01*
X014419Y006655D01*
X014270Y006594D01*
X014185Y006509D02*
X013975Y006509D01*
X013975Y006410D02*
X014128Y006410D01*
X014095Y006312D02*
X013975Y006312D01*
X013975Y006213D02*
X014095Y006213D01*
X014117Y006115D02*
X013975Y006115D01*
X013975Y006016D02*
X014161Y006016D01*
X014259Y005918D02*
X013975Y005918D01*
X013975Y005819D02*
X021775Y005819D01*
X021775Y005721D02*
X013975Y005721D01*
X013975Y005622D02*
X014339Y005622D01*
X014270Y005594D02*
X014156Y005480D01*
X014095Y005331D01*
X014095Y005169D01*
X014156Y005020D01*
X014270Y004906D01*
X014419Y004845D01*
X014581Y004845D01*
X014730Y004906D01*
X014844Y005020D01*
X014905Y005169D01*
X014905Y005331D01*
X014844Y005480D01*
X014730Y005594D01*
X014581Y005655D01*
X014419Y005655D01*
X014270Y005594D01*
X014200Y005524D02*
X013975Y005524D01*
X013975Y005425D02*
X014134Y005425D01*
X014095Y005327D02*
X013975Y005327D01*
X013975Y005228D02*
X014095Y005228D01*
X014111Y005130D02*
X013975Y005130D01*
X013975Y005031D02*
X014152Y005031D01*
X014244Y004933D02*
X013975Y004933D01*
X013975Y004834D02*
X021775Y004834D01*
X021775Y004736D02*
X013975Y004736D01*
X013975Y004637D02*
X014375Y004637D01*
X014419Y004655D02*
X014270Y004594D01*
X014156Y004480D01*
X014095Y004331D01*
X014095Y004169D01*
X014156Y004020D01*
X014270Y003906D01*
X014419Y003845D01*
X014581Y003845D01*
X014730Y003906D01*
X014844Y004020D01*
X014905Y004169D01*
X014905Y004331D01*
X014844Y004480D01*
X014730Y004594D01*
X014581Y004655D01*
X014419Y004655D01*
X014625Y004637D02*
X015375Y004637D01*
X015419Y004655D02*
X015270Y004594D01*
X015156Y004480D01*
X015095Y004331D01*
X015095Y004169D01*
X015156Y004020D01*
X015270Y003906D01*
X015419Y003845D01*
X015581Y003845D01*
X015730Y003906D01*
X015844Y004020D01*
X015905Y004169D01*
X015905Y004331D01*
X015844Y004480D01*
X015730Y004594D01*
X015581Y004655D01*
X015419Y004655D01*
X015419Y004845D02*
X015581Y004845D01*
X015730Y004906D01*
X015844Y005020D01*
X015905Y005169D01*
X015905Y005331D01*
X015844Y005480D01*
X015730Y005594D01*
X015581Y005655D01*
X015419Y005655D01*
X015270Y005594D01*
X015156Y005480D01*
X015095Y005331D01*
X015095Y005169D01*
X015156Y005020D01*
X015270Y004906D01*
X015419Y004845D01*
X015244Y004933D02*
X014756Y004933D01*
X014848Y005031D02*
X015152Y005031D01*
X015111Y005130D02*
X014889Y005130D01*
X014905Y005228D02*
X015095Y005228D01*
X015095Y005327D02*
X014905Y005327D01*
X014866Y005425D02*
X015134Y005425D01*
X015200Y005524D02*
X014800Y005524D01*
X014661Y005622D02*
X015339Y005622D01*
X015419Y005845D02*
X015581Y005845D01*
X015730Y005906D01*
X015844Y006020D01*
X015905Y006169D01*
X015905Y006331D01*
X015844Y006480D01*
X015730Y006594D01*
X015581Y006655D01*
X015419Y006655D01*
X015270Y006594D01*
X015156Y006480D01*
X015095Y006331D01*
X015095Y006169D01*
X015156Y006020D01*
X015270Y005906D01*
X015419Y005845D01*
X015259Y005918D02*
X014741Y005918D01*
X014839Y006016D02*
X015161Y006016D01*
X015117Y006115D02*
X014883Y006115D01*
X014905Y006213D02*
X015095Y006213D01*
X015095Y006312D02*
X014905Y006312D01*
X014872Y006410D02*
X015128Y006410D01*
X015185Y006509D02*
X014815Y006509D01*
X014697Y006607D02*
X015303Y006607D01*
X015419Y006845D02*
X015270Y006906D01*
X015156Y007020D01*
X015095Y007169D01*
X015095Y007331D01*
X015156Y007480D01*
X015270Y007594D01*
X015419Y007655D01*
X015581Y007655D01*
X015730Y007594D01*
X015844Y007480D01*
X015905Y007331D01*
X015905Y007169D01*
X015844Y007020D01*
X015730Y006906D01*
X015581Y006845D01*
X015419Y006845D01*
X015280Y006903D02*
X014720Y006903D01*
X014824Y007001D02*
X015176Y007001D01*
X015124Y007100D02*
X014876Y007100D01*
X014905Y007198D02*
X015095Y007198D01*
X015095Y007297D02*
X014905Y007297D01*
X014879Y007395D02*
X015121Y007395D01*
X015170Y007494D02*
X014830Y007494D01*
X014731Y007592D02*
X015269Y007592D01*
X015731Y007592D02*
X021775Y007592D01*
X021775Y007494D02*
X015830Y007494D01*
X015879Y007395D02*
X021775Y007395D01*
X021775Y007297D02*
X015905Y007297D01*
X015905Y007198D02*
X021775Y007198D01*
X021775Y007100D02*
X015876Y007100D01*
X015824Y007001D02*
X021775Y007001D01*
X021775Y006903D02*
X015720Y006903D01*
X015697Y006607D02*
X021775Y006607D01*
X021775Y006509D02*
X015815Y006509D01*
X015872Y006410D02*
X021775Y006410D01*
X021775Y006312D02*
X015905Y006312D01*
X015905Y006213D02*
X021775Y006213D01*
X021775Y006115D02*
X015883Y006115D01*
X015839Y006016D02*
X021775Y006016D01*
X021775Y005918D02*
X015741Y005918D01*
X015661Y005622D02*
X021775Y005622D01*
X021775Y005524D02*
X015800Y005524D01*
X015866Y005425D02*
X021775Y005425D01*
X021775Y005327D02*
X015905Y005327D01*
X015905Y005228D02*
X021775Y005228D01*
X021775Y005130D02*
X015889Y005130D01*
X015848Y005031D02*
X021775Y005031D01*
X021775Y004933D02*
X015756Y004933D01*
X015625Y004637D02*
X021775Y004637D01*
X021775Y004539D02*
X015785Y004539D01*
X015860Y004440D02*
X021775Y004440D01*
X021775Y004342D02*
X015901Y004342D01*
X015905Y004243D02*
X021775Y004243D01*
X021775Y004145D02*
X015895Y004145D01*
X015854Y004046D02*
X021775Y004046D01*
X021775Y003948D02*
X015771Y003948D01*
X015591Y003849D02*
X021775Y003849D01*
X021775Y003751D02*
X013975Y003751D01*
X013975Y003849D02*
X014409Y003849D01*
X014591Y003849D02*
X015409Y003849D01*
X015419Y003655D02*
X015270Y003594D01*
X015156Y003480D01*
X015095Y003331D01*
X015095Y003169D01*
X015156Y003020D01*
X015270Y002906D01*
X015419Y002845D01*
X015581Y002845D01*
X015730Y002906D01*
X015844Y003020D01*
X015905Y003169D01*
X015905Y003331D01*
X015844Y003480D01*
X015730Y003594D01*
X015581Y003655D01*
X015419Y003655D01*
X015411Y003652D02*
X014589Y003652D01*
X014581Y003655D02*
X014419Y003655D01*
X014270Y003594D01*
X014156Y003480D01*
X014095Y003331D01*
X014095Y003169D01*
X014156Y003020D01*
X014270Y002906D01*
X014419Y002845D01*
X014581Y002845D01*
X014730Y002906D01*
X014844Y003020D01*
X014905Y003169D01*
X014905Y003331D01*
X014844Y003480D01*
X014730Y003594D01*
X014581Y003655D01*
X014411Y003652D02*
X013975Y003652D01*
X013975Y003554D02*
X014230Y003554D01*
X014146Y003455D02*
X013975Y003455D01*
X013975Y003357D02*
X014105Y003357D01*
X014095Y003258D02*
X013975Y003258D01*
X013975Y003160D02*
X014099Y003160D01*
X014140Y003061D02*
X013975Y003061D01*
X013975Y002963D02*
X014214Y002963D01*
X014373Y002864D02*
X013975Y002864D01*
X013975Y002766D02*
X021762Y002766D01*
X021767Y002864D02*
X015627Y002864D01*
X015786Y002963D02*
X021773Y002963D01*
X021775Y003061D02*
X015860Y003061D01*
X015901Y003160D02*
X021775Y003160D01*
X021775Y003258D02*
X015905Y003258D01*
X015895Y003357D02*
X021775Y003357D01*
X021775Y003455D02*
X015854Y003455D01*
X015770Y003554D02*
X021775Y003554D01*
X021775Y003652D02*
X015589Y003652D01*
X015230Y003554D02*
X014770Y003554D01*
X014854Y003455D02*
X015146Y003455D01*
X015105Y003357D02*
X014895Y003357D01*
X014905Y003258D02*
X015095Y003258D01*
X015099Y003160D02*
X014901Y003160D01*
X014860Y003061D02*
X015140Y003061D01*
X015214Y002963D02*
X014786Y002963D01*
X014627Y002864D02*
X015373Y002864D01*
X015229Y003948D02*
X014771Y003948D01*
X014854Y004046D02*
X015146Y004046D01*
X015105Y004145D02*
X014895Y004145D01*
X014905Y004243D02*
X015095Y004243D01*
X015099Y004342D02*
X014901Y004342D01*
X014860Y004440D02*
X015140Y004440D01*
X015215Y004539D02*
X014785Y004539D01*
X014215Y004539D02*
X013975Y004539D01*
X013975Y004440D02*
X014140Y004440D01*
X014099Y004342D02*
X013975Y004342D01*
X013975Y004243D02*
X014095Y004243D01*
X014105Y004145D02*
X013975Y004145D01*
X013975Y004046D02*
X014146Y004046D01*
X014229Y003948D02*
X013975Y003948D01*
X013975Y002667D02*
X021743Y002667D01*
X021720Y002569D02*
X013975Y002569D01*
X013975Y002470D02*
X021698Y002470D01*
X021675Y002372D02*
X013975Y002372D01*
X013975Y002273D02*
X021653Y002273D01*
X021612Y002175D02*
X013975Y002175D01*
X013975Y002076D02*
X021564Y002076D01*
X021517Y001978D02*
X013975Y001978D01*
X013975Y001879D02*
X021469Y001879D01*
X021419Y001781D02*
X013975Y001781D01*
X013975Y001682D02*
X021340Y001682D01*
X021262Y001584D02*
X013975Y001584D01*
X013975Y001485D02*
X021183Y001485D01*
X021103Y001387D02*
X013975Y001387D01*
X013975Y001288D02*
X020979Y001288D01*
X020856Y001190D02*
X013975Y001190D01*
X013975Y001091D02*
X020732Y001091D01*
X020542Y000993D02*
X013975Y000993D01*
X013975Y000894D02*
X020337Y000894D01*
X020001Y000796D02*
X013975Y000796D01*
X014827Y008873D02*
X019163Y008873D01*
X019250Y008971D02*
X014729Y008971D01*
X014630Y009070D02*
X019336Y009070D01*
X019422Y009168D02*
X014532Y009168D01*
X014433Y009267D02*
X019508Y009267D01*
X019594Y009365D02*
X014335Y009365D01*
X014236Y009464D02*
X019681Y009464D01*
X019767Y009562D02*
X014138Y009562D01*
X013145Y009661D02*
X020016Y009661D01*
X019918Y009759D02*
X013054Y009759D01*
X012964Y009858D02*
X019870Y009858D01*
X019845Y009956D02*
X012874Y009956D01*
X012783Y010055D02*
X019845Y010055D01*
X019875Y010153D02*
X012693Y010153D01*
X012603Y010252D02*
X019928Y010252D01*
X020036Y010350D02*
X012512Y010350D01*
X012422Y010449D02*
X020420Y010449D01*
X020464Y010350D02*
X020531Y010350D01*
X020572Y010252D02*
X020642Y010252D01*
X020625Y010153D02*
X020700Y010153D01*
X020700Y010055D02*
X020655Y010055D01*
X020655Y009956D02*
X020700Y009956D01*
X020700Y009858D02*
X020630Y009858D01*
X020582Y009759D02*
X020700Y009759D01*
X020700Y009661D02*
X020484Y009661D01*
X020557Y009267D02*
X020943Y009267D01*
X020881Y009168D02*
X020619Y009168D01*
X020655Y009070D02*
X020845Y009070D01*
X020845Y008971D02*
X020655Y008971D01*
X020636Y008873D02*
X020864Y008873D01*
X020905Y008774D02*
X020595Y008774D01*
X020499Y008676D02*
X021001Y008676D01*
X021499Y008676D02*
X021775Y008676D01*
X021775Y008774D02*
X021595Y008774D01*
X021636Y008873D02*
X021775Y008873D01*
X021775Y008971D02*
X021655Y008971D01*
X021655Y009070D02*
X021775Y009070D01*
X021775Y009168D02*
X021619Y009168D01*
X021557Y009267D02*
X021775Y009267D01*
X020310Y010547D02*
X012332Y010547D01*
X012242Y010646D02*
X020047Y010646D01*
X019933Y010744D02*
X012151Y010744D01*
X012100Y010843D02*
X019877Y010843D01*
X019845Y010941D02*
X012100Y010941D01*
X012100Y011040D02*
X019800Y011040D01*
X019800Y011138D02*
X012100Y011138D01*
X012100Y011237D02*
X019800Y011237D01*
X019800Y011335D02*
X012100Y011335D01*
X012100Y011434D02*
X019800Y011434D01*
X019800Y011532D02*
X012100Y011532D01*
X012100Y011631D02*
X019800Y011631D01*
X019800Y011729D02*
X012100Y011729D01*
X012100Y011828D02*
X019800Y011828D01*
X019800Y011926D02*
X012100Y011926D01*
X012100Y012025D02*
X019800Y012025D01*
X019800Y012123D02*
X012100Y012123D01*
X012100Y012222D02*
X019800Y012222D01*
X019800Y012320D02*
X012100Y012320D01*
X012100Y012419D02*
X019800Y012419D01*
X019800Y012517D02*
X012100Y012517D01*
X012100Y012616D02*
X019800Y012616D01*
X019800Y012714D02*
X012100Y012714D01*
X012100Y012813D02*
X019800Y012813D01*
X019800Y012911D02*
X012100Y012911D01*
X012100Y013010D02*
X019800Y013010D01*
X019800Y013108D02*
X012100Y013108D01*
X012100Y013207D02*
X019800Y013207D01*
X019800Y013305D02*
X012100Y013305D01*
X012100Y013404D02*
X019800Y013404D01*
X019800Y013502D02*
X012100Y013502D01*
X012100Y013601D02*
X019800Y013601D01*
X019800Y013699D02*
X012100Y013699D01*
X012100Y013798D02*
X019800Y013798D01*
X019800Y013896D02*
X012100Y013896D01*
X012100Y013995D02*
X019800Y013995D01*
X019800Y014093D02*
X012100Y014093D01*
X012100Y014192D02*
X019800Y014192D01*
X019800Y014290D02*
X012100Y014290D01*
X012100Y014389D02*
X019800Y014389D01*
X019800Y014487D02*
X012100Y014487D01*
X012054Y014586D02*
X019800Y014586D01*
X019800Y014684D02*
X011956Y014684D01*
X011857Y014783D02*
X019800Y014783D01*
X019800Y014881D02*
X011759Y014881D01*
X011660Y014980D02*
X017892Y014980D01*
X017861Y014992D02*
X017951Y014955D01*
X018049Y014955D01*
X018139Y014992D01*
X018200Y015054D01*
X018261Y014992D01*
X018351Y014955D01*
X018449Y014955D01*
X018539Y014992D01*
X018600Y015054D01*
X018661Y014992D01*
X018751Y014955D01*
X018849Y014955D01*
X018939Y014992D01*
X019008Y015061D01*
X019045Y015151D01*
X019045Y015249D01*
X019008Y015339D01*
X018939Y015408D01*
X018849Y015445D01*
X018751Y015445D01*
X018661Y015408D01*
X018600Y015346D01*
X018539Y015408D01*
X018449Y015445D01*
X018351Y015445D01*
X018261Y015408D01*
X018200Y015346D01*
X018139Y015408D01*
X018049Y015445D01*
X017951Y015445D01*
X017861Y015408D01*
X017792Y015339D01*
X017755Y015249D01*
X017755Y015151D01*
X017792Y015061D01*
X017861Y014992D01*
X017785Y015078D02*
X011562Y015078D01*
X011463Y015177D02*
X017755Y015177D01*
X017766Y015275D02*
X012697Y015275D01*
X012813Y015374D02*
X017827Y015374D01*
X018173Y015374D02*
X018227Y015374D01*
X018573Y015374D02*
X018627Y015374D01*
X018692Y014980D02*
X018508Y014980D01*
X018292Y014980D02*
X018108Y014980D01*
X018908Y014980D02*
X019800Y014980D01*
X019800Y015078D02*
X019015Y015078D01*
X019045Y015177D02*
X019800Y015177D01*
X019800Y015275D02*
X019034Y015275D01*
X018973Y015374D02*
X019800Y015374D01*
X019800Y015472D02*
X012845Y015472D01*
X012836Y015571D02*
X019800Y015571D01*
X019800Y015669D02*
X012777Y015669D01*
X012503Y015275D02*
X011365Y015275D01*
X011900Y012517D02*
X000725Y012517D01*
X000725Y012419D02*
X011900Y012419D01*
X011900Y011532D02*
X000725Y011532D01*
X000725Y011434D02*
X011900Y011434D01*
X012041Y010547D02*
X003999Y010547D01*
X004045Y010449D02*
X012132Y010449D01*
X012223Y010350D02*
X004044Y010350D01*
X003998Y010252D02*
X012314Y010252D01*
X014745Y016950D02*
X019800Y016950D01*
X019800Y017048D02*
X014698Y017048D01*
X016212Y018329D02*
X008175Y018329D01*
X008235Y018427D02*
X019800Y018427D01*
X019800Y018329D02*
X016388Y018329D01*
X016511Y018230D02*
X019800Y018230D01*
X019800Y018132D02*
X016545Y018132D01*
X016537Y018033D02*
X019800Y018033D01*
X019800Y017935D02*
X016481Y017935D01*
X017992Y019261D02*
X017955Y019351D01*
X017955Y019449D01*
X017992Y019539D01*
X018061Y019608D01*
X018151Y019645D01*
X018249Y019645D01*
X018339Y019608D01*
X018408Y019539D01*
X018445Y019449D01*
X018445Y019351D01*
X018408Y019261D01*
X018339Y019192D01*
X018249Y019155D01*
X018151Y019155D01*
X018061Y019192D01*
X017992Y019261D01*
X017971Y019314D02*
X005300Y019314D01*
X005300Y019412D02*
X017955Y019412D01*
X017981Y019511D02*
X005300Y019511D01*
X005300Y019609D02*
X011644Y019609D01*
X011661Y019592D02*
X011751Y019555D01*
X011849Y019555D01*
X011939Y019592D01*
X012000Y019654D01*
X012061Y019592D01*
X012151Y019555D01*
X012249Y019555D01*
X012339Y019592D01*
X012400Y019654D01*
X012461Y019592D01*
X012551Y019555D01*
X012649Y019555D01*
X012739Y019592D01*
X012800Y019654D01*
X012861Y019592D01*
X012951Y019555D01*
X013049Y019555D01*
X013139Y019592D01*
X013208Y019661D01*
X013245Y019751D01*
X013245Y019849D01*
X013208Y019939D01*
X013139Y020008D01*
X013049Y020045D01*
X012951Y020045D01*
X012861Y020008D01*
X012800Y019946D01*
X012739Y020008D01*
X012649Y020045D01*
X012551Y020045D01*
X012461Y020008D01*
X012400Y019946D01*
X012339Y020008D01*
X012249Y020045D01*
X012151Y020045D01*
X012061Y020008D01*
X012000Y019946D01*
X011939Y020008D01*
X011849Y020045D01*
X011751Y020045D01*
X011661Y020008D01*
X011592Y019939D01*
X011555Y019849D01*
X011555Y019751D01*
X011592Y019661D01*
X011661Y019592D01*
X011573Y019708D02*
X005300Y019708D01*
X005300Y019806D02*
X011555Y019806D01*
X011578Y019905D02*
X005300Y019905D01*
X005303Y020003D02*
X011657Y020003D01*
X011943Y020003D02*
X012057Y020003D01*
X012343Y020003D02*
X012457Y020003D01*
X012743Y020003D02*
X012857Y020003D01*
X012844Y019609D02*
X012756Y019609D01*
X012444Y019609D02*
X012356Y019609D01*
X012044Y019609D02*
X011956Y019609D01*
X013156Y019609D02*
X018064Y019609D01*
X018336Y019609D02*
X019800Y019609D01*
X019800Y019511D02*
X018419Y019511D01*
X018445Y019412D02*
X019800Y019412D01*
X019800Y019314D02*
X018429Y019314D01*
X018362Y019215D02*
X019800Y019215D01*
X019800Y019117D02*
X008467Y019117D01*
X008489Y019108D02*
X008399Y019145D01*
X008301Y019145D01*
X008211Y019108D01*
X008142Y019039D01*
X008105Y018949D01*
X008105Y018851D01*
X008142Y018761D01*
X008211Y018692D01*
X008301Y018655D01*
X008399Y018655D01*
X008489Y018692D01*
X008558Y018761D01*
X008595Y018851D01*
X008595Y018949D01*
X008558Y019039D01*
X008489Y019108D01*
X008566Y019018D02*
X019800Y019018D01*
X019800Y018920D02*
X008595Y018920D01*
X008582Y018821D02*
X019800Y018821D01*
X019800Y018723D02*
X008519Y018723D01*
X008214Y018624D02*
X019800Y018624D01*
X019800Y018526D02*
X008245Y018526D01*
X008181Y018723D02*
X008103Y018723D01*
X008118Y018821D02*
X005300Y018821D01*
X005300Y018723D02*
X007897Y018723D01*
X007786Y018624D02*
X005376Y018624D01*
X005474Y018526D02*
X007755Y018526D01*
X007765Y018427D02*
X005573Y018427D01*
X005671Y018329D02*
X007825Y018329D01*
X008105Y018920D02*
X005300Y018920D01*
X005300Y019018D02*
X008134Y019018D01*
X008233Y019117D02*
X005300Y019117D01*
X005300Y019215D02*
X018038Y019215D01*
X017249Y021255D02*
X017339Y021292D01*
X017408Y021361D01*
X017445Y021451D01*
X017445Y021549D01*
X017408Y021639D01*
X017339Y021708D01*
X017249Y021745D01*
X017151Y021745D01*
X017061Y021708D01*
X016992Y021639D01*
X016955Y021549D01*
X016955Y021451D01*
X016992Y021361D01*
X017061Y021292D01*
X017151Y021255D01*
X017249Y021255D01*
X017318Y021284D02*
X019800Y021284D01*
X019800Y021382D02*
X017416Y021382D01*
X017445Y021481D02*
X019800Y021481D01*
X019800Y021579D02*
X017432Y021579D01*
X017369Y021678D02*
X019800Y021678D01*
X019800Y021776D02*
X015170Y021776D01*
X015233Y021678D02*
X017031Y021678D01*
X016968Y021579D02*
X015245Y021579D01*
X015216Y021481D02*
X016955Y021481D01*
X016984Y021382D02*
X015114Y021382D01*
X014886Y021382D02*
X013645Y021382D01*
X013645Y021351D02*
X013608Y021261D01*
X013539Y021192D01*
X013449Y021155D01*
X013351Y021155D01*
X013261Y021192D01*
X013192Y021261D01*
X013155Y021351D01*
X013155Y021449D01*
X013192Y021539D01*
X013261Y021608D01*
X013351Y021645D01*
X013449Y021645D01*
X013539Y021608D01*
X013608Y021539D01*
X013645Y021449D01*
X013645Y021351D01*
X013617Y021284D02*
X017082Y021284D01*
X017943Y023648D02*
X019800Y023648D01*
X019800Y023746D02*
X017945Y023746D01*
X017902Y023845D02*
X019800Y023845D01*
X019800Y023943D02*
X017753Y023943D01*
X019800Y022367D02*
X014131Y022367D01*
X014065Y022269D02*
X019800Y022269D01*
X019800Y022170D02*
X011745Y022170D01*
X011733Y022072D02*
X019800Y022072D01*
X019800Y021185D02*
X013521Y021185D01*
X013279Y021185D02*
X006200Y021185D01*
X006200Y021087D02*
X019800Y021087D01*
X019800Y020988D02*
X006200Y020988D01*
X006190Y020890D02*
X019800Y020890D01*
X019800Y020791D02*
X006091Y020791D01*
X005993Y020693D02*
X019800Y020693D01*
X019800Y020594D02*
X005894Y020594D01*
X005796Y020496D02*
X019800Y020496D01*
X019800Y020397D02*
X005697Y020397D01*
X005599Y020299D02*
X019800Y020299D01*
X019800Y020200D02*
X005500Y020200D01*
X005402Y020102D02*
X019800Y020102D01*
X019800Y020003D02*
X013143Y020003D01*
X013222Y019905D02*
X019800Y019905D01*
X019800Y019806D02*
X013245Y019806D01*
X013227Y019708D02*
X019800Y019708D01*
X019800Y026406D02*
X013202Y026406D01*
X013245Y026504D02*
X019800Y026504D01*
X019800Y027785D02*
X006700Y027785D01*
X006700Y027883D02*
X019800Y027883D01*
X019800Y027982D02*
X006700Y027982D01*
X006700Y028080D02*
X019800Y028080D01*
X019800Y028179D02*
X006700Y028179D01*
X006700Y028277D02*
X015798Y028277D01*
X015761Y028292D02*
X015851Y028255D01*
X015949Y028255D01*
X016039Y028292D01*
X016108Y028361D01*
X016145Y028451D01*
X016145Y028549D01*
X016108Y028639D01*
X016039Y028708D01*
X015949Y028745D01*
X015851Y028745D01*
X015761Y028708D01*
X015692Y028639D01*
X015655Y028549D01*
X015655Y028451D01*
X015692Y028361D01*
X015761Y028292D01*
X015686Y028376D02*
X013148Y028376D01*
X013189Y028392D02*
X013258Y028461D01*
X013295Y028551D01*
X013295Y028649D01*
X013258Y028739D01*
X013189Y028808D01*
X013099Y028845D01*
X013001Y028845D01*
X012911Y028808D01*
X012842Y028739D01*
X012805Y028649D01*
X012805Y028551D01*
X012842Y028461D01*
X012911Y028392D01*
X013001Y028355D01*
X013099Y028355D01*
X013189Y028392D01*
X013263Y028474D02*
X015655Y028474D01*
X015665Y028573D02*
X013295Y028573D01*
X013286Y028671D02*
X015725Y028671D01*
X016075Y028671D02*
X017925Y028671D01*
X017892Y028639D02*
X017855Y028549D01*
X017855Y028451D01*
X017892Y028361D01*
X017961Y028292D01*
X018051Y028255D01*
X018149Y028255D01*
X018239Y028292D01*
X018308Y028361D01*
X018345Y028451D01*
X018345Y028549D01*
X018308Y028639D01*
X018239Y028708D01*
X018149Y028745D01*
X018051Y028745D01*
X017961Y028708D01*
X017892Y028639D01*
X017865Y028573D02*
X016135Y028573D01*
X016145Y028474D02*
X017855Y028474D01*
X017886Y028376D02*
X016114Y028376D01*
X016002Y028277D02*
X017998Y028277D01*
X018202Y028277D02*
X019800Y028277D01*
X019800Y028376D02*
X018314Y028376D01*
X018345Y028474D02*
X019800Y028474D01*
X019800Y028573D02*
X018335Y028573D01*
X018275Y028671D02*
X019800Y028671D01*
X019800Y028770D02*
X013227Y028770D01*
X012873Y028770D02*
X006700Y028770D01*
X006700Y028868D02*
X019800Y028868D01*
X019800Y028967D02*
X019677Y028967D01*
X019523Y028967D02*
X017077Y028967D01*
X017049Y028955D02*
X017139Y028992D01*
X017208Y029061D01*
X017245Y029151D01*
X017245Y029249D01*
X017208Y029339D01*
X017139Y029408D01*
X017049Y029445D01*
X016951Y029445D01*
X016861Y029408D01*
X016792Y029339D01*
X016755Y029249D01*
X016755Y029151D01*
X016792Y029061D01*
X016861Y028992D01*
X016951Y028955D01*
X017049Y028955D01*
X016923Y028967D02*
X014577Y028967D01*
X014549Y028955D02*
X014639Y028992D01*
X014708Y029061D01*
X014745Y029151D01*
X014745Y029249D01*
X014708Y029339D01*
X014639Y029408D01*
X014549Y029445D01*
X014451Y029445D01*
X014361Y029408D01*
X014292Y029339D01*
X014255Y029249D01*
X014255Y029151D01*
X014292Y029061D01*
X014361Y028992D01*
X014451Y028955D01*
X014549Y028955D01*
X014423Y028967D02*
X014077Y028967D01*
X014049Y028955D02*
X014139Y028992D01*
X014208Y029061D01*
X014245Y029151D01*
X014245Y029249D01*
X014208Y029339D01*
X014139Y029408D01*
X014049Y029445D01*
X013951Y029445D01*
X013861Y029408D01*
X013792Y029339D01*
X013755Y029249D01*
X013755Y029151D01*
X013792Y029061D01*
X013861Y028992D01*
X013951Y028955D01*
X014049Y028955D01*
X013923Y028967D02*
X009077Y028967D01*
X009049Y028955D02*
X009139Y028992D01*
X009208Y029061D01*
X009245Y029151D01*
X009245Y029249D01*
X009208Y029339D01*
X009139Y029408D01*
X009049Y029445D01*
X008951Y029445D01*
X008861Y029408D01*
X008792Y029339D01*
X008755Y029249D01*
X008755Y029151D01*
X008792Y029061D01*
X008861Y028992D01*
X008951Y028955D01*
X009049Y028955D01*
X008923Y028967D02*
X006700Y028967D01*
X006700Y029065D02*
X008791Y029065D01*
X008755Y029164D02*
X006700Y029164D01*
X006700Y029262D02*
X008761Y029262D01*
X008814Y029361D02*
X006761Y029361D01*
X006859Y029459D02*
X010813Y029459D01*
X010792Y029439D02*
X010861Y029508D01*
X010921Y029532D01*
X010892Y029561D01*
X010855Y029651D01*
X010855Y029749D01*
X010892Y029839D01*
X010961Y029908D01*
X011051Y029945D01*
X011149Y029945D01*
X011239Y029908D01*
X011308Y029839D01*
X011345Y029749D01*
X011345Y029651D01*
X011308Y029561D01*
X011239Y029492D01*
X011179Y029468D01*
X011208Y029439D01*
X011245Y029349D01*
X011245Y029251D01*
X011208Y029161D01*
X011139Y029092D01*
X011049Y029055D01*
X010951Y029055D01*
X010861Y029092D01*
X010792Y029161D01*
X010755Y029251D01*
X010755Y029349D01*
X010792Y029439D01*
X010760Y029361D02*
X009186Y029361D01*
X009239Y029262D02*
X010755Y029262D01*
X010791Y029164D02*
X009245Y029164D01*
X009209Y029065D02*
X010927Y029065D01*
X011073Y029065D02*
X011927Y029065D01*
X011951Y029055D02*
X012049Y029055D01*
X012139Y029092D01*
X012208Y029161D01*
X012245Y029251D01*
X012245Y029349D01*
X012208Y029439D01*
X012139Y029508D01*
X012079Y029532D01*
X012108Y029561D01*
X012145Y029651D01*
X012145Y029749D01*
X012108Y029839D01*
X012039Y029908D01*
X011949Y029945D01*
X011851Y029945D01*
X011761Y029908D01*
X011692Y029839D01*
X011655Y029749D01*
X011655Y029651D01*
X011692Y029561D01*
X011761Y029492D01*
X011821Y029468D01*
X011792Y029439D01*
X011755Y029349D01*
X011755Y029251D01*
X011792Y029161D01*
X011861Y029092D01*
X011951Y029055D01*
X012073Y029065D02*
X013791Y029065D01*
X013755Y029164D02*
X012209Y029164D01*
X012245Y029262D02*
X013761Y029262D01*
X013814Y029361D02*
X012240Y029361D01*
X012187Y029459D02*
X019800Y029459D01*
X019786Y029361D02*
X019800Y029361D01*
X019800Y029558D02*
X012104Y029558D01*
X012145Y029656D02*
X019800Y029656D01*
X019800Y029755D02*
X012143Y029755D01*
X012093Y029853D02*
X013800Y029853D01*
X013792Y029861D02*
X013861Y029792D01*
X013951Y029755D01*
X014049Y029755D01*
X014139Y029792D01*
X014208Y029861D01*
X014245Y029951D01*
X014245Y030049D01*
X014208Y030139D01*
X014139Y030208D01*
X014049Y030245D01*
X013951Y030245D01*
X013861Y030208D01*
X013792Y030139D01*
X013755Y030049D01*
X013755Y029951D01*
X013792Y029861D01*
X013755Y029952D02*
X009245Y029952D01*
X009245Y029951D02*
X009208Y029861D01*
X009139Y029792D01*
X009049Y029755D01*
X008951Y029755D01*
X008861Y029792D01*
X008792Y029861D01*
X008755Y029951D01*
X008755Y030049D01*
X008792Y030139D01*
X008861Y030208D01*
X008951Y030245D01*
X009049Y030245D01*
X009139Y030208D01*
X009208Y030139D01*
X009245Y030049D01*
X009245Y029951D01*
X009244Y030050D02*
X013756Y030050D01*
X013802Y030149D02*
X009198Y030149D01*
X009200Y029853D02*
X010907Y029853D01*
X010857Y029755D02*
X007155Y029755D01*
X007253Y029853D02*
X008800Y029853D01*
X008755Y029952D02*
X007352Y029952D01*
X007450Y030050D02*
X008756Y030050D01*
X008802Y030149D02*
X007549Y030149D01*
X007647Y030247D02*
X016355Y030247D01*
X016355Y030249D02*
X016355Y030151D01*
X016392Y030061D01*
X016461Y029992D01*
X016551Y029955D01*
X016649Y029955D01*
X016739Y029992D01*
X016808Y030061D01*
X016845Y030151D01*
X016845Y030249D01*
X016808Y030339D01*
X016739Y030408D01*
X016649Y030445D01*
X016551Y030445D01*
X016461Y030408D01*
X016392Y030339D01*
X016355Y030249D01*
X016356Y030149D02*
X014698Y030149D01*
X014708Y030139D02*
X014639Y030208D01*
X014549Y030245D01*
X014451Y030245D01*
X014361Y030208D01*
X014292Y030139D01*
X014255Y030049D01*
X014255Y029951D01*
X014292Y029861D01*
X014361Y029792D01*
X014451Y029755D01*
X014549Y029755D01*
X014639Y029792D01*
X014708Y029861D01*
X014745Y029951D01*
X014745Y030049D01*
X014708Y030139D01*
X014744Y030050D02*
X016403Y030050D01*
X016399Y030346D02*
X007746Y030346D01*
X007844Y030444D02*
X016549Y030444D01*
X016651Y030444D02*
X017349Y030444D01*
X017351Y030445D02*
X017261Y030408D01*
X017192Y030339D01*
X017155Y030249D01*
X017155Y030151D01*
X017192Y030061D01*
X017261Y029992D01*
X017351Y029955D01*
X017449Y029955D01*
X017539Y029992D01*
X017608Y030061D01*
X017645Y030151D01*
X017645Y030249D01*
X017608Y030339D01*
X017539Y030408D01*
X017449Y030445D01*
X017351Y030445D01*
X017451Y030444D02*
X019800Y030444D01*
X019800Y030346D02*
X017601Y030346D01*
X017645Y030247D02*
X019800Y030247D01*
X019798Y030149D02*
X019800Y030149D01*
X019800Y029853D02*
X019800Y029853D01*
X019400Y029853D02*
X014700Y029853D01*
X014745Y029952D02*
X019355Y029952D01*
X019356Y030050D02*
X017597Y030050D01*
X017644Y030149D02*
X019402Y030149D01*
X019800Y030543D02*
X007943Y030543D01*
X008041Y030641D02*
X019800Y030641D01*
X019800Y030740D02*
X008140Y030740D01*
X008238Y030838D02*
X019800Y030838D01*
X019800Y030937D02*
X008337Y030937D01*
X008435Y031035D02*
X019800Y031035D01*
X019800Y031134D02*
X008534Y031134D01*
X008632Y031232D02*
X019800Y031232D01*
X019800Y031331D02*
X008731Y031331D01*
X008800Y031429D02*
X014175Y031429D01*
X014131Y031447D02*
X014241Y031402D01*
X014359Y031402D01*
X014469Y031447D01*
X014553Y031531D01*
X014598Y031641D01*
X014598Y031759D01*
X014553Y031869D01*
X014469Y031953D01*
X014359Y031998D01*
X014241Y031998D01*
X014131Y031953D01*
X014047Y031869D01*
X014002Y031759D01*
X014002Y031641D01*
X014047Y031531D01*
X014131Y031447D01*
X014051Y031528D02*
X008800Y031528D01*
X008800Y031626D02*
X014008Y031626D01*
X014002Y031725D02*
X008800Y031725D01*
X008800Y031823D02*
X014028Y031823D01*
X014100Y031922D02*
X008800Y031922D01*
X008800Y032020D02*
X012933Y032020D01*
X012961Y031992D02*
X013051Y031955D01*
X013149Y031955D01*
X013239Y031992D01*
X013308Y032061D01*
X013345Y032151D01*
X013345Y032249D01*
X013308Y032339D01*
X013239Y032408D01*
X013149Y032445D01*
X013051Y032445D01*
X012961Y032408D01*
X012892Y032339D01*
X012855Y032249D01*
X012855Y032151D01*
X012892Y032061D01*
X012961Y031992D01*
X012869Y032119D02*
X008800Y032119D01*
X008800Y032217D02*
X012855Y032217D01*
X012883Y032316D02*
X008800Y032316D01*
X008800Y032414D02*
X012977Y032414D01*
X013064Y032513D02*
X008800Y032513D01*
X008800Y032611D02*
X012909Y032611D01*
X012852Y032668D02*
X012968Y032552D01*
X013118Y032490D01*
X013282Y032490D01*
X013432Y032552D01*
X013548Y032668D01*
X013610Y032818D01*
X013610Y032982D01*
X013548Y033132D01*
X013432Y033248D01*
X013282Y033310D01*
X013118Y033310D01*
X012968Y033248D01*
X012852Y033132D01*
X012790Y032982D01*
X012790Y032818D01*
X012852Y032668D01*
X012835Y032710D02*
X008800Y032710D01*
X008800Y032808D02*
X012794Y032808D01*
X012790Y032907D02*
X008800Y032907D01*
X008800Y033005D02*
X012800Y033005D01*
X012841Y033104D02*
X008800Y033104D01*
X008800Y033202D02*
X010543Y033202D01*
X010333Y033301D02*
X008800Y033301D01*
X008800Y033399D02*
X010235Y033399D01*
X010162Y033498D02*
X008800Y033498D01*
X008800Y033596D02*
X010121Y033596D01*
X010088Y033695D02*
X008800Y033695D01*
X008800Y033793D02*
X010088Y033793D01*
X010088Y033892D02*
X008800Y033892D01*
X008800Y033990D02*
X010116Y033990D01*
X010157Y034089D02*
X008800Y034089D01*
X008800Y034187D02*
X010221Y034187D01*
X010857Y033202D02*
X012922Y033202D01*
X013096Y033301D02*
X011067Y033301D01*
X011165Y033399D02*
X019712Y033399D01*
X019649Y033301D02*
X016304Y033301D01*
X016282Y033310D02*
X016118Y033310D01*
X015968Y033248D01*
X015852Y033132D01*
X015790Y032982D01*
X015790Y032818D01*
X015852Y032668D01*
X015968Y032552D01*
X016118Y032490D01*
X016282Y032490D01*
X016432Y032552D01*
X016548Y032668D01*
X016610Y032818D01*
X016610Y032982D01*
X016548Y033132D01*
X016432Y033248D01*
X016282Y033310D01*
X016096Y033301D02*
X015304Y033301D01*
X015282Y033310D02*
X015118Y033310D01*
X014968Y033248D01*
X014852Y033132D01*
X014790Y032982D01*
X014790Y032818D01*
X014852Y032668D01*
X014968Y032552D01*
X015118Y032490D01*
X015282Y032490D01*
X015432Y032552D01*
X015548Y032668D01*
X015610Y032818D01*
X015610Y032982D01*
X015548Y033132D01*
X015432Y033248D01*
X015282Y033310D01*
X015096Y033301D02*
X014304Y033301D01*
X014282Y033310D02*
X014118Y033310D01*
X013968Y033248D01*
X013852Y033132D01*
X013790Y032982D01*
X013790Y032818D01*
X013852Y032668D01*
X013968Y032552D01*
X014118Y032490D01*
X014282Y032490D01*
X014432Y032552D01*
X014548Y032668D01*
X014610Y032818D01*
X014610Y032982D01*
X014548Y033132D01*
X014432Y033248D01*
X014282Y033310D01*
X014096Y033301D02*
X013304Y033301D01*
X013300Y033498D02*
X014100Y033498D01*
X014300Y033498D02*
X015100Y033498D01*
X015300Y033498D02*
X016100Y033498D01*
X016300Y033498D02*
X019596Y033498D01*
X019446Y033596D02*
X016476Y033596D01*
X016559Y033695D02*
X019253Y033695D01*
X019060Y033793D02*
X016599Y033793D01*
X016610Y033892D02*
X018866Y033892D01*
X018586Y033990D02*
X016606Y033990D01*
X016566Y034089D02*
X018282Y034089D01*
X017837Y034187D02*
X016493Y034187D01*
X015907Y034187D02*
X015493Y034187D01*
X015566Y034089D02*
X015834Y034089D01*
X015794Y033990D02*
X015606Y033990D01*
X015610Y033892D02*
X015790Y033892D01*
X015801Y033793D02*
X015599Y033793D01*
X015559Y033695D02*
X015841Y033695D01*
X015924Y033596D02*
X015476Y033596D01*
X015478Y033202D02*
X015922Y033202D01*
X015841Y033104D02*
X015559Y033104D01*
X015600Y033005D02*
X015800Y033005D01*
X015790Y032907D02*
X015610Y032907D01*
X015606Y032808D02*
X015794Y032808D01*
X015835Y032710D02*
X015565Y032710D01*
X015491Y032611D02*
X015909Y032611D01*
X016064Y032513D02*
X015336Y032513D01*
X015301Y031895D02*
X015211Y031858D01*
X015142Y031789D01*
X015105Y031699D01*
X015105Y031601D01*
X015142Y031511D01*
X015211Y031442D01*
X015301Y031405D01*
X015399Y031405D01*
X015489Y031442D01*
X015558Y031511D01*
X015595Y031601D01*
X015595Y031699D01*
X015558Y031789D01*
X015489Y031858D01*
X015399Y031895D01*
X015301Y031895D01*
X015177Y031823D02*
X014572Y031823D01*
X014598Y031725D02*
X015116Y031725D01*
X015105Y031626D02*
X014592Y031626D01*
X014549Y031528D02*
X015136Y031528D01*
X015243Y031429D02*
X014425Y031429D01*
X014500Y031922D02*
X016393Y031922D01*
X016441Y031902D02*
X016331Y031947D01*
X016247Y032031D01*
X016202Y032141D01*
X016202Y032259D01*
X016247Y032369D01*
X016331Y032453D01*
X016441Y032498D01*
X016559Y032498D01*
X016669Y032453D01*
X016753Y032369D01*
X016798Y032259D01*
X016798Y032141D01*
X016753Y032031D01*
X016669Y031947D01*
X016559Y031902D01*
X016441Y031902D01*
X016607Y031922D02*
X017343Y031922D01*
X017391Y031902D02*
X017509Y031902D01*
X017619Y031947D01*
X017703Y032031D01*
X017748Y032141D01*
X017748Y032259D01*
X017703Y032369D01*
X017619Y032453D01*
X017509Y032498D01*
X017391Y032498D01*
X017281Y032453D01*
X017197Y032369D01*
X017152Y032259D01*
X017152Y032141D01*
X017197Y032031D01*
X017281Y031947D01*
X017391Y031902D01*
X017557Y031922D02*
X019800Y031922D01*
X019800Y032020D02*
X017692Y032020D01*
X017739Y032119D02*
X019603Y032119D01*
X019417Y032217D02*
X017748Y032217D01*
X017725Y032316D02*
X019318Y032316D01*
X019255Y032414D02*
X017658Y032414D01*
X017242Y032414D02*
X016708Y032414D01*
X016775Y032316D02*
X017175Y032316D01*
X017152Y032217D02*
X016798Y032217D01*
X016789Y032119D02*
X017161Y032119D01*
X017208Y032020D02*
X016742Y032020D01*
X016258Y032020D02*
X013267Y032020D01*
X013331Y032119D02*
X016211Y032119D01*
X016202Y032217D02*
X013345Y032217D01*
X013317Y032316D02*
X016225Y032316D01*
X016292Y032414D02*
X013223Y032414D01*
X013336Y032513D02*
X014064Y032513D01*
X013909Y032611D02*
X013491Y032611D01*
X013565Y032710D02*
X013835Y032710D01*
X013794Y032808D02*
X013606Y032808D01*
X013610Y032907D02*
X013790Y032907D01*
X013800Y033005D02*
X013600Y033005D01*
X013559Y033104D02*
X013841Y033104D01*
X013922Y033202D02*
X013478Y033202D01*
X013476Y033596D02*
X013924Y033596D01*
X013841Y033695D02*
X013559Y033695D01*
X013599Y033793D02*
X013801Y033793D01*
X013790Y033892D02*
X013610Y033892D01*
X013606Y033990D02*
X013794Y033990D01*
X013834Y034089D02*
X013566Y034089D01*
X013493Y034187D02*
X013907Y034187D01*
X014493Y034187D02*
X014907Y034187D01*
X014834Y034089D02*
X014566Y034089D01*
X014606Y033990D02*
X014794Y033990D01*
X014790Y033892D02*
X014610Y033892D01*
X014599Y033793D02*
X014801Y033793D01*
X014841Y033695D02*
X014559Y033695D01*
X014476Y033596D02*
X014924Y033596D01*
X014922Y033202D02*
X014478Y033202D01*
X014559Y033104D02*
X014841Y033104D01*
X014800Y033005D02*
X014600Y033005D01*
X014610Y032907D02*
X014790Y032907D01*
X014794Y032808D02*
X014606Y032808D01*
X014565Y032710D02*
X014835Y032710D01*
X014909Y032611D02*
X014491Y032611D01*
X014336Y032513D02*
X015064Y032513D01*
X015523Y031823D02*
X019800Y031823D01*
X019800Y031725D02*
X015584Y031725D01*
X015595Y031626D02*
X019800Y031626D01*
X019800Y031528D02*
X015564Y031528D01*
X015457Y031429D02*
X019800Y031429D01*
X019215Y032513D02*
X016336Y032513D01*
X016491Y032611D02*
X019188Y032611D01*
X019188Y032710D02*
X016565Y032710D01*
X016606Y032808D02*
X019188Y032808D01*
X019223Y032907D02*
X016610Y032907D01*
X016600Y033005D02*
X019263Y033005D01*
X019337Y033104D02*
X016559Y033104D01*
X016478Y033202D02*
X019436Y033202D01*
X017199Y030346D02*
X016801Y030346D01*
X016845Y030247D02*
X017155Y030247D01*
X017156Y030149D02*
X016844Y030149D01*
X016797Y030050D02*
X017203Y030050D01*
X017186Y029361D02*
X019414Y029361D01*
X019361Y029262D02*
X017239Y029262D01*
X017245Y029164D02*
X019355Y029164D01*
X019391Y029065D02*
X017209Y029065D01*
X016791Y029065D02*
X014709Y029065D01*
X014745Y029164D02*
X016755Y029164D01*
X016761Y029262D02*
X014739Y029262D01*
X014686Y029361D02*
X016814Y029361D01*
X015076Y026701D02*
X013195Y026701D01*
X013243Y026603D02*
X015151Y026603D01*
X014291Y029065D02*
X014209Y029065D01*
X014245Y029164D02*
X014255Y029164D01*
X014261Y029262D02*
X014239Y029262D01*
X014186Y029361D02*
X014314Y029361D01*
X014300Y029853D02*
X014200Y029853D01*
X014245Y029952D02*
X014255Y029952D01*
X014244Y030050D02*
X014256Y030050D01*
X014302Y030149D02*
X014198Y030149D01*
X012952Y028376D02*
X006700Y028376D01*
X006700Y028474D02*
X012837Y028474D01*
X012805Y028573D02*
X006700Y028573D01*
X006700Y028671D02*
X012814Y028671D01*
X011791Y029164D02*
X011209Y029164D01*
X011245Y029262D02*
X011755Y029262D01*
X011760Y029361D02*
X011240Y029361D01*
X011187Y029459D02*
X011813Y029459D01*
X011696Y029558D02*
X011304Y029558D01*
X011345Y029656D02*
X011655Y029656D01*
X011657Y029755D02*
X011343Y029755D01*
X011293Y029853D02*
X011707Y029853D01*
X010896Y029558D02*
X006958Y029558D01*
X007056Y029656D02*
X010855Y029656D01*
X010695Y026701D02*
X011605Y026701D01*
X011557Y026603D02*
X010743Y026603D01*
X010745Y026504D02*
X011555Y026504D01*
X011598Y026406D02*
X010702Y026406D01*
X010298Y026406D02*
X009402Y026406D01*
X009445Y026504D02*
X010255Y026504D01*
X010257Y026603D02*
X009443Y026603D01*
X009395Y026701D02*
X010305Y026701D01*
X009662Y024534D02*
X007610Y024534D01*
X007645Y024436D02*
X009718Y024436D01*
X008394Y024140D02*
X007506Y024140D01*
X007545Y024042D02*
X008355Y024042D01*
X008358Y023943D02*
X007542Y023943D01*
X007491Y023845D02*
X008409Y023845D01*
X006200Y021579D02*
X013233Y021579D01*
X013168Y021481D02*
X006200Y021481D01*
X006200Y021382D02*
X013155Y021382D01*
X013183Y021284D02*
X006200Y021284D01*
X005887Y021875D02*
X005813Y021875D01*
X005594Y020594D02*
X000725Y020594D01*
X000725Y020496D02*
X005496Y020496D01*
X005397Y020397D02*
X004849Y020397D01*
X004924Y020299D02*
X005299Y020299D01*
X005200Y020200D02*
X004945Y020200D01*
X004924Y020102D02*
X005102Y020102D01*
X007026Y015374D02*
X002407Y015374D01*
X002548Y015275D02*
X007125Y015275D01*
X007514Y009661D02*
X002484Y009661D01*
X002331Y009405D02*
X002480Y009344D01*
X002594Y009230D01*
X002655Y009081D01*
X002655Y008919D01*
X002594Y008770D01*
X002480Y008656D01*
X002331Y008595D01*
X002169Y008595D01*
X002020Y008656D01*
X001906Y008770D01*
X001845Y008919D01*
X001845Y009081D01*
X001906Y009230D01*
X002020Y009344D01*
X002169Y009405D01*
X002331Y009405D01*
X002428Y009365D02*
X004462Y009365D01*
X004455Y009267D02*
X002557Y009267D01*
X002619Y009168D02*
X004489Y009168D01*
X004616Y009070D02*
X002655Y009070D01*
X002655Y008971D02*
X007464Y008971D01*
X007455Y008873D02*
X002636Y008873D01*
X002595Y008774D02*
X007487Y008774D01*
X007523Y009070D02*
X004784Y009070D01*
X004938Y009365D02*
X007491Y009365D01*
X007455Y009464D02*
X004883Y009464D01*
X004517Y009464D02*
X000725Y009464D01*
X000725Y009562D02*
X007461Y009562D01*
X006714Y008676D02*
X002499Y008676D01*
X002001Y008676D02*
X001499Y008676D01*
X001480Y008656D02*
X001331Y008595D01*
X001169Y008595D01*
X001020Y008656D01*
X000906Y008770D01*
X000845Y008919D01*
X000845Y009081D01*
X000906Y009230D01*
X001020Y009344D01*
X001169Y009405D01*
X001331Y009405D01*
X001480Y009344D01*
X001594Y009230D01*
X001655Y009081D01*
X001655Y008919D01*
X001594Y008770D01*
X001480Y008656D01*
X001595Y008774D02*
X001905Y008774D01*
X001864Y008873D02*
X001636Y008873D01*
X001655Y008971D02*
X001845Y008971D01*
X001845Y009070D02*
X001655Y009070D01*
X001619Y009168D02*
X001881Y009168D01*
X001943Y009267D02*
X001557Y009267D01*
X001428Y009365D02*
X002072Y009365D01*
X002016Y009661D02*
X001484Y009661D01*
X001480Y009656D02*
X001594Y009770D01*
X001655Y009919D01*
X001655Y010081D01*
X001594Y010230D01*
X001480Y010344D01*
X001331Y010405D01*
X001169Y010405D01*
X001020Y010344D01*
X000906Y010230D01*
X000845Y010081D01*
X000845Y009919D01*
X000906Y009770D01*
X001020Y009656D01*
X001169Y009595D01*
X001331Y009595D01*
X001480Y009656D01*
X001582Y009759D02*
X001918Y009759D01*
X001870Y009858D02*
X001630Y009858D01*
X001655Y009956D02*
X001845Y009956D01*
X001845Y010055D02*
X001655Y010055D01*
X001625Y010153D02*
X001875Y010153D01*
X001928Y010252D02*
X001572Y010252D01*
X001464Y010350D02*
X002036Y010350D01*
X002047Y010646D02*
X001453Y010646D01*
X001480Y010656D02*
X001594Y010770D01*
X001655Y010919D01*
X001655Y011081D01*
X001594Y011230D01*
X001480Y011344D01*
X001331Y011405D01*
X001169Y011405D01*
X001020Y011344D01*
X000906Y011230D01*
X000845Y011081D01*
X000845Y010919D01*
X000906Y010770D01*
X001020Y010656D01*
X001169Y010595D01*
X001331Y010595D01*
X001480Y010656D01*
X001567Y010744D02*
X001933Y010744D01*
X001877Y010843D02*
X001623Y010843D01*
X001655Y010941D02*
X001845Y010941D01*
X001845Y011040D02*
X001655Y011040D01*
X001631Y011138D02*
X001869Y011138D01*
X001913Y011237D02*
X001587Y011237D01*
X001488Y011335D02*
X002012Y011335D01*
X002083Y011631D02*
X001417Y011631D01*
X001480Y011656D02*
X001594Y011770D01*
X001655Y011919D01*
X001655Y012081D01*
X001594Y012230D01*
X001480Y012344D01*
X001331Y012405D01*
X001169Y012405D01*
X001020Y012344D01*
X000906Y012230D01*
X000845Y012081D01*
X000845Y011919D01*
X000906Y011770D01*
X001020Y011656D01*
X001169Y011595D01*
X001331Y011595D01*
X001480Y011656D01*
X001552Y011729D02*
X001948Y011729D01*
X001883Y011828D02*
X001617Y011828D01*
X001655Y011926D02*
X001845Y011926D01*
X001845Y012025D02*
X001655Y012025D01*
X001638Y012123D02*
X001862Y012123D01*
X001903Y012222D02*
X001597Y012222D01*
X001503Y012320D02*
X001997Y012320D01*
X002119Y012616D02*
X001381Y012616D01*
X001537Y012714D02*
X001963Y012714D01*
X001889Y012813D02*
X001611Y012813D01*
X001652Y012911D02*
X001848Y012911D01*
X001845Y013010D02*
X001655Y013010D01*
X001644Y013108D02*
X001856Y013108D01*
X001897Y013207D02*
X001603Y013207D01*
X001518Y013305D02*
X001982Y013305D01*
X001119Y012616D02*
X000725Y012616D01*
X000725Y012714D02*
X000963Y012714D01*
X000889Y012813D02*
X000725Y012813D01*
X000725Y012911D02*
X000848Y012911D01*
X000845Y013010D02*
X000725Y013010D01*
X000725Y013108D02*
X000856Y013108D01*
X000897Y013207D02*
X000725Y013207D01*
X000725Y013305D02*
X000982Y013305D01*
X000997Y012320D02*
X000725Y012320D01*
X000725Y012222D02*
X000903Y012222D01*
X000862Y012123D02*
X000725Y012123D01*
X000725Y012025D02*
X000845Y012025D01*
X000845Y011926D02*
X000725Y011926D01*
X000725Y011828D02*
X000883Y011828D01*
X000948Y011729D02*
X000725Y011729D01*
X000725Y011631D02*
X001083Y011631D01*
X001012Y011335D02*
X000725Y011335D01*
X000725Y011237D02*
X000913Y011237D01*
X000869Y011138D02*
X000725Y011138D01*
X000725Y011040D02*
X000845Y011040D01*
X000845Y010941D02*
X000725Y010941D01*
X000725Y010843D02*
X000877Y010843D01*
X000933Y010744D02*
X000725Y010744D01*
X000725Y010646D02*
X001047Y010646D01*
X001036Y010350D02*
X000725Y010350D01*
X000725Y010252D02*
X000928Y010252D01*
X000875Y010153D02*
X000725Y010153D01*
X000725Y010055D02*
X000845Y010055D01*
X000845Y009956D02*
X000725Y009956D01*
X000725Y009858D02*
X000870Y009858D01*
X000918Y009759D02*
X000725Y009759D01*
X000725Y009661D02*
X001016Y009661D01*
X001072Y009365D02*
X000725Y009365D01*
X000725Y009267D02*
X000943Y009267D01*
X000881Y009168D02*
X000725Y009168D01*
X000725Y009070D02*
X000845Y009070D01*
X000845Y008971D02*
X000725Y008971D01*
X000725Y008873D02*
X000864Y008873D01*
X000905Y008774D02*
X000725Y008774D01*
X000725Y008676D02*
X001001Y008676D01*
X000725Y008577D02*
X006598Y008577D01*
X006541Y008479D02*
X000725Y008479D01*
X000725Y008380D02*
X006525Y008380D01*
X006525Y008282D02*
X000725Y008282D01*
X000725Y008183D02*
X006525Y008183D01*
X006525Y008085D02*
X000725Y008085D01*
X000725Y007986D02*
X006525Y007986D01*
X006525Y007888D02*
X000725Y007888D01*
X000725Y007789D02*
X006525Y007789D01*
X006525Y007691D02*
X000725Y007691D01*
X000725Y007592D02*
X006525Y007592D01*
X006525Y007494D02*
X000725Y007494D01*
X000725Y007395D02*
X006525Y007395D01*
X006525Y007297D02*
X000725Y007297D01*
X000725Y007198D02*
X002252Y007198D01*
X002261Y007208D02*
X002192Y007139D01*
X002155Y007049D01*
X002155Y006951D01*
X002192Y006861D01*
X002261Y006792D01*
X002351Y006755D01*
X002449Y006755D01*
X002539Y006792D01*
X002608Y006861D01*
X002645Y006951D01*
X002645Y007049D01*
X002608Y007139D01*
X002539Y007208D01*
X002449Y007245D01*
X002351Y007245D01*
X002261Y007208D01*
X002176Y007100D02*
X000725Y007100D01*
X000725Y007001D02*
X002155Y007001D01*
X002175Y006903D02*
X000725Y006903D01*
X000725Y006804D02*
X002250Y006804D01*
X002550Y006804D02*
X006525Y006804D01*
X006525Y006706D02*
X000725Y006706D01*
X000725Y006607D02*
X006525Y006607D01*
X006525Y006509D02*
X000725Y006509D01*
X000725Y006410D02*
X006525Y006410D01*
X006525Y006312D02*
X000725Y006312D01*
X000725Y006213D02*
X006525Y006213D01*
X006525Y006115D02*
X000725Y006115D01*
X000725Y006016D02*
X006525Y006016D01*
X006525Y005918D02*
X000725Y005918D01*
X000725Y005819D02*
X006525Y005819D01*
X006525Y005721D02*
X000725Y005721D01*
X000725Y005622D02*
X006525Y005622D01*
X006525Y005524D02*
X000725Y005524D01*
X000725Y005425D02*
X006525Y005425D01*
X006525Y005327D02*
X000725Y005327D01*
X000725Y005228D02*
X006525Y005228D01*
X006525Y005130D02*
X000725Y005130D01*
X000725Y005031D02*
X006525Y005031D01*
X006525Y004933D02*
X000725Y004933D01*
X000725Y004834D02*
X006525Y004834D01*
X006525Y004736D02*
X000725Y004736D01*
X000725Y004637D02*
X006525Y004637D01*
X006525Y004539D02*
X000725Y004539D01*
X000725Y004440D02*
X006525Y004440D01*
X006525Y004342D02*
X000725Y004342D01*
X000725Y004243D02*
X006525Y004243D01*
X006525Y004145D02*
X000725Y004145D01*
X000725Y004046D02*
X005718Y004046D01*
X005581Y003948D02*
X000725Y003948D01*
X000725Y003849D02*
X005483Y003849D01*
X005441Y003751D02*
X000725Y003751D01*
X000725Y003652D02*
X005400Y003652D01*
X005388Y003554D02*
X000725Y003554D01*
X000725Y003455D02*
X005388Y003455D01*
X005396Y003357D02*
X000725Y003357D01*
X000725Y003258D02*
X005437Y003258D01*
X005478Y003160D02*
X000725Y003160D01*
X000725Y003061D02*
X005573Y003061D01*
X006282Y004046D02*
X006525Y004046D01*
X006525Y003948D02*
X006419Y003948D01*
X006517Y003849D02*
X006525Y003849D01*
X006525Y006903D02*
X002625Y006903D01*
X002645Y007001D02*
X006525Y007001D01*
X006525Y007100D02*
X002624Y007100D01*
X002548Y007198D02*
X006525Y007198D01*
X001984Y020693D02*
X001516Y020693D01*
X001602Y020791D02*
X001898Y020791D01*
X001857Y020890D02*
X001643Y020890D01*
X001655Y020988D02*
X001845Y020988D01*
X001847Y021087D02*
X001653Y021087D01*
X001612Y021185D02*
X001888Y021185D01*
X001960Y021284D02*
X001540Y021284D01*
X000960Y021284D02*
X000725Y021284D01*
X000725Y021185D02*
X000888Y021185D01*
X000847Y021087D02*
X000725Y021087D01*
X000725Y020988D02*
X000845Y020988D01*
X000857Y020890D02*
X000725Y020890D01*
X000725Y020791D02*
X000898Y020791D01*
X000984Y020693D02*
X000725Y020693D01*
X000976Y024337D02*
X001014Y024337D01*
X000882Y024830D02*
X000725Y024830D01*
X000725Y024928D02*
X000845Y024928D01*
X000845Y025027D02*
X000725Y025027D01*
X000725Y025125D02*
X000863Y025125D01*
X000904Y025224D02*
X000725Y025224D01*
X000725Y025322D02*
X000999Y025322D01*
X000725Y028573D02*
X006500Y028573D01*
X006559Y029459D02*
X000725Y029459D01*
X000725Y029361D02*
X001061Y029361D01*
X000939Y029262D02*
X000725Y029262D01*
X000725Y029164D02*
X000879Y029164D01*
X000845Y029065D02*
X000725Y029065D01*
X000725Y028967D02*
X000845Y028967D01*
X000866Y028868D02*
X000725Y028868D01*
X000725Y028770D02*
X000907Y028770D01*
X001006Y028671D02*
X000725Y028671D01*
X000725Y030543D02*
X007643Y030543D01*
X007741Y030641D02*
X000725Y030641D01*
X000725Y030740D02*
X007840Y030740D01*
X007938Y030838D02*
X000725Y030838D01*
X000725Y030937D02*
X008037Y030937D01*
X008135Y031035D02*
X000725Y031035D01*
X000725Y031134D02*
X008234Y031134D01*
X008332Y031232D02*
X000725Y031232D01*
X000725Y031331D02*
X008431Y031331D01*
X008529Y031429D02*
X000725Y031429D01*
X000725Y031528D02*
X008600Y031528D01*
X008600Y031626D02*
X000725Y031626D01*
X000725Y031725D02*
X008600Y031725D01*
X008600Y031823D02*
X000725Y031823D01*
X000725Y031922D02*
X008600Y031922D01*
X008600Y032020D02*
X000725Y032020D01*
X000725Y032119D02*
X008600Y032119D01*
X008600Y032217D02*
X000725Y032217D01*
X000725Y032316D02*
X008600Y032316D01*
X008600Y032414D02*
X000725Y032414D01*
X000725Y032513D02*
X000914Y032513D01*
X000759Y032611D02*
X000725Y032611D01*
X000725Y033202D02*
X000772Y033202D01*
X000725Y033301D02*
X000946Y033301D01*
X000950Y033498D02*
X000725Y033498D01*
X000725Y033596D02*
X000774Y033596D01*
X000725Y033399D02*
X008600Y033399D01*
X008600Y033301D02*
X001154Y033301D01*
X001150Y033498D02*
X001950Y033498D01*
X002150Y033498D02*
X002950Y033498D01*
X003150Y033498D02*
X003950Y033498D01*
X004150Y033498D02*
X004950Y033498D01*
X005150Y033498D02*
X005950Y033498D01*
X006150Y033498D02*
X006950Y033498D01*
X007150Y033498D02*
X007950Y033498D01*
X008150Y033498D02*
X008600Y033498D01*
X008600Y033596D02*
X008326Y033596D01*
X008409Y033695D02*
X008600Y033695D01*
X008600Y033793D02*
X008449Y033793D01*
X008460Y033892D02*
X008600Y033892D01*
X008600Y033990D02*
X008456Y033990D01*
X008416Y034089D02*
X008600Y034089D01*
X008600Y034187D02*
X008343Y034187D01*
X007774Y033596D02*
X007326Y033596D01*
X007409Y033695D02*
X007691Y033695D01*
X007651Y033793D02*
X007449Y033793D01*
X007460Y033892D02*
X007640Y033892D01*
X007644Y033990D02*
X007456Y033990D01*
X007416Y034089D02*
X007684Y034089D01*
X007757Y034187D02*
X007343Y034187D01*
X006757Y034187D02*
X006343Y034187D01*
X006416Y034089D02*
X006684Y034089D01*
X006644Y033990D02*
X006456Y033990D01*
X006460Y033892D02*
X006640Y033892D01*
X006651Y033793D02*
X006449Y033793D01*
X006409Y033695D02*
X006691Y033695D01*
X006774Y033596D02*
X006326Y033596D01*
X005774Y033596D02*
X005326Y033596D01*
X005409Y033695D02*
X005691Y033695D01*
X005651Y033793D02*
X005449Y033793D01*
X005460Y033892D02*
X005640Y033892D01*
X005644Y033990D02*
X005456Y033990D01*
X005416Y034089D02*
X005684Y034089D01*
X005757Y034187D02*
X005343Y034187D01*
X004757Y034187D02*
X004343Y034187D01*
X004416Y034089D02*
X004684Y034089D01*
X004644Y033990D02*
X004456Y033990D01*
X004460Y033892D02*
X004640Y033892D01*
X004651Y033793D02*
X004449Y033793D01*
X004409Y033695D02*
X004691Y033695D01*
X004774Y033596D02*
X004326Y033596D01*
X003774Y033596D02*
X003326Y033596D01*
X003409Y033695D02*
X003691Y033695D01*
X003651Y033793D02*
X003449Y033793D01*
X003460Y033892D02*
X003640Y033892D01*
X003644Y033990D02*
X003456Y033990D01*
X003416Y034089D02*
X003684Y034089D01*
X003757Y034187D02*
X003343Y034187D01*
X002757Y034187D02*
X002343Y034187D01*
X002416Y034089D02*
X002684Y034089D01*
X002644Y033990D02*
X002456Y033990D01*
X002460Y033892D02*
X002640Y033892D01*
X002651Y033793D02*
X002449Y033793D01*
X002409Y033695D02*
X002691Y033695D01*
X002774Y033596D02*
X002326Y033596D01*
X001774Y033596D02*
X001326Y033596D01*
X001409Y033695D02*
X001691Y033695D01*
X001651Y033793D02*
X001449Y033793D01*
X001460Y033892D02*
X001640Y033892D01*
X001644Y033990D02*
X001456Y033990D01*
X001416Y034089D02*
X001684Y034089D01*
X001757Y034187D02*
X001343Y034187D01*
X001328Y033202D02*
X008600Y033202D01*
X008600Y033104D02*
X001409Y033104D01*
X001450Y033005D02*
X008600Y033005D01*
X008600Y032907D02*
X001460Y032907D01*
X001456Y032808D02*
X008600Y032808D01*
X008600Y032710D02*
X001415Y032710D01*
X001341Y032611D02*
X008600Y032611D01*
X008600Y032513D02*
X001186Y032513D01*
X005453Y027194D02*
X006294Y027194D01*
X006195Y027095D02*
X005901Y027095D01*
X005975Y026997D02*
X006097Y026997D01*
X005998Y026898D02*
X005995Y026898D01*
X005599Y027095D02*
X005526Y027095D01*
X011238Y033498D02*
X013100Y033498D01*
X012924Y033596D02*
X011278Y033596D01*
X011312Y033695D02*
X012841Y033695D01*
X012801Y033793D02*
X011312Y033793D01*
X011312Y033892D02*
X012790Y033892D01*
X012794Y033990D02*
X011284Y033990D01*
X011243Y034089D02*
X012834Y034089D01*
X012907Y034187D02*
X011179Y034187D01*
X011995Y026701D02*
X012805Y026701D01*
X012757Y026603D02*
X012043Y026603D01*
X012045Y026504D02*
X012755Y026504D01*
X012798Y026406D02*
X012002Y026406D01*
X011616Y022367D02*
X013669Y022367D01*
X013735Y022269D02*
X011716Y022269D01*
X013567Y021579D02*
X014755Y021579D01*
X014784Y021481D02*
X013632Y021481D01*
X019771Y009267D02*
X019943Y009267D01*
X019881Y009168D02*
X019687Y009168D01*
X019602Y009070D02*
X019845Y009070D01*
X019845Y008971D02*
X019518Y008971D01*
X019434Y008873D02*
X019864Y008873D01*
X019905Y008774D02*
X019349Y008774D01*
X019265Y008676D02*
X020001Y008676D01*
D16*
X005900Y019800D02*
X005050Y019800D01*
M02*
