G75*
G70*
%OFA0B0*%
%FSLAX24Y24*%
%IPPOS*%
%LPD*%
%AMOC8*
5,1,8,0,0,1.08239X$1,22.5*
%
%ADD10R,0.0591X0.0591*%
%ADD11C,0.0591*%
%ADD12R,0.0350X0.0420*%
%ADD13C,0.0500*%
%ADD14R,0.0866X0.0236*%
%ADD15R,0.0420X0.0350*%
%ADD16R,0.0580X0.0140*%
%ADD17OC8,0.1005*%
%ADD18R,0.0740X0.0480*%
%ADD19R,0.0600X0.0380*%
%ADD20R,0.0140X0.0580*%
%ADD21R,0.0780X0.0220*%
%ADD22R,0.0380X0.0600*%
%ADD23OC8,0.0660*%
%ADD24R,0.0400X0.1200*%
%ADD25R,0.0472X0.0472*%
%ADD26R,0.0827X0.0551*%
%ADD27R,0.0630X0.0138*%
%ADD28R,0.0430X0.0790*%
%ADD29R,0.0551X0.0551*%
%ADD30R,0.0560X0.0170*%
%ADD31R,0.0620X0.0740*%
%ADD32C,0.0250*%
%ADD33R,0.0480X0.0740*%
%ADD34C,0.0100*%
%ADD35C,0.0180*%
%ADD36C,0.0120*%
%ADD37C,0.0270*%
%ADD38C,0.0240*%
%ADD39C,0.0160*%
%ADD40C,0.0376*%
%ADD41C,0.0400*%
%ADD42C,0.0320*%
D10*
X002250Y008000D03*
X015500Y003250D03*
X021250Y008000D03*
D11*
X021250Y009000D03*
X021250Y010000D03*
X021250Y011000D03*
X021250Y012000D03*
X021250Y013000D03*
X021250Y014000D03*
X021250Y015000D03*
X021250Y016000D03*
X021250Y017000D03*
X021250Y018000D03*
X021250Y019000D03*
X021250Y020000D03*
X021250Y021000D03*
X021250Y022000D03*
X021250Y023000D03*
X021250Y024000D03*
X021250Y025000D03*
X021250Y026000D03*
X021250Y027000D03*
X021250Y028000D03*
X021250Y029000D03*
X021250Y030000D03*
X020250Y030000D03*
X020250Y029000D03*
X020250Y028000D03*
X020250Y027000D03*
X020250Y026000D03*
X020250Y025000D03*
X020250Y024000D03*
X020250Y023000D03*
X020250Y022000D03*
X020250Y021000D03*
X020250Y020000D03*
X020250Y019000D03*
X020250Y018000D03*
X020250Y017000D03*
X020250Y016000D03*
X020250Y015000D03*
X020250Y014000D03*
X020250Y013000D03*
X020250Y012000D03*
X020250Y011000D03*
X020250Y010000D03*
X020250Y009000D03*
X020250Y008000D03*
X015500Y007250D03*
X015500Y006250D03*
X015500Y005250D03*
X015500Y004250D03*
X014500Y004250D03*
X014500Y003250D03*
X014500Y005250D03*
X014500Y006250D03*
X014500Y007250D03*
X002250Y009000D03*
X002250Y010000D03*
X002250Y011000D03*
X002250Y012000D03*
X002250Y013000D03*
X002250Y014000D03*
X002250Y015000D03*
X002250Y016000D03*
X002250Y017000D03*
X002250Y018000D03*
X002250Y019000D03*
X002250Y020000D03*
X002250Y021000D03*
X002250Y022000D03*
X002250Y023000D03*
X002250Y024000D03*
X002250Y025000D03*
X002250Y026000D03*
X002250Y027000D03*
X002250Y028000D03*
X002250Y029000D03*
X002250Y030000D03*
X001250Y030000D03*
X001250Y029000D03*
X001250Y028000D03*
X001250Y027000D03*
X001250Y026000D03*
X001250Y025000D03*
X001250Y024000D03*
X001250Y023000D03*
X001250Y022000D03*
X001250Y021000D03*
X001250Y020000D03*
X001250Y019000D03*
X001250Y018000D03*
X001250Y017000D03*
X001250Y016000D03*
X001250Y015000D03*
X001250Y014000D03*
X001250Y013000D03*
X001250Y012000D03*
X001250Y011000D03*
X001250Y010000D03*
X001250Y009000D03*
X001250Y008000D03*
D12*
X001260Y007000D03*
X001940Y007000D03*
X005460Y009100D03*
X005460Y009900D03*
X006140Y009900D03*
X006140Y009100D03*
X005040Y017900D03*
X004360Y017900D03*
X003740Y018500D03*
X003060Y018500D03*
X003060Y019600D03*
X003740Y019600D03*
X003740Y020700D03*
X003060Y020700D03*
X003060Y021800D03*
X003740Y021800D03*
X003740Y022900D03*
X003060Y022900D03*
X003060Y024000D03*
X003740Y024000D03*
X003740Y025100D03*
X003060Y025100D03*
X004660Y026550D03*
X005340Y026550D03*
X009160Y026100D03*
X009840Y026100D03*
X010460Y026100D03*
X011140Y026100D03*
X011760Y026100D03*
X012440Y026100D03*
X013060Y026100D03*
X013740Y026100D03*
X013740Y025200D03*
X013060Y025200D03*
X012440Y025200D03*
X011760Y025200D03*
X011140Y025200D03*
X010460Y025200D03*
X009840Y025200D03*
X009160Y025200D03*
X011160Y023400D03*
X011840Y023400D03*
X011840Y027300D03*
X011160Y027300D03*
X011160Y028100D03*
X011840Y028100D03*
X011840Y031100D03*
X011160Y031100D03*
X011160Y032000D03*
X011840Y032000D03*
X014760Y026100D03*
X015440Y026100D03*
X016060Y026100D03*
X016740Y026100D03*
X017360Y026100D03*
X018040Y026100D03*
X018660Y026100D03*
X019340Y026100D03*
X019340Y025200D03*
X018660Y025200D03*
X018040Y025200D03*
X017360Y025200D03*
X016740Y025200D03*
X016060Y025200D03*
X015440Y025200D03*
X014760Y025200D03*
X016660Y023200D03*
X017340Y023200D03*
X017340Y020500D03*
X016660Y020500D03*
X018060Y017200D03*
X018740Y017200D03*
X018840Y010150D03*
X018160Y010150D03*
X013340Y013250D03*
X012660Y013250D03*
X012740Y017800D03*
X012060Y017800D03*
D13*
X015000Y021050D03*
X015500Y024600D03*
X016800Y024600D03*
X018100Y024600D03*
X019400Y024600D03*
X019000Y021650D03*
X014250Y027500D03*
X013100Y024600D03*
X011800Y024600D03*
X010500Y024600D03*
X009200Y024600D03*
X003750Y008400D03*
X003750Y007200D03*
D14*
X004776Y010850D03*
X004776Y011350D03*
X004776Y011850D03*
X004776Y012350D03*
X006824Y012350D03*
X006824Y011850D03*
X006824Y011350D03*
X006824Y010850D03*
D15*
X006900Y013860D03*
X006900Y014540D03*
X007700Y014540D03*
X007700Y013860D03*
X006100Y013860D03*
X006100Y014540D03*
X005300Y014540D03*
X005300Y013860D03*
X004500Y013860D03*
X004500Y014540D03*
X003700Y014540D03*
X003700Y013860D03*
X003800Y011540D03*
X003800Y010860D03*
X006700Y017460D03*
X006700Y018140D03*
X007800Y020960D03*
X007800Y021640D03*
X007900Y023610D03*
X007900Y024290D03*
X007550Y025460D03*
X007550Y026140D03*
X009500Y028560D03*
X009500Y029240D03*
X009500Y029960D03*
X009500Y030640D03*
X010400Y030960D03*
X010400Y031640D03*
X012600Y031640D03*
X012600Y030960D03*
X013500Y030640D03*
X013500Y029960D03*
X013500Y029240D03*
X013500Y028560D03*
X012600Y028240D03*
X012600Y027560D03*
X010400Y027560D03*
X010400Y028240D03*
X007800Y031110D03*
X007800Y031790D03*
X007050Y031790D03*
X007050Y031110D03*
X006050Y031110D03*
X006050Y031790D03*
X005050Y031790D03*
X005050Y031110D03*
X004050Y031110D03*
X004050Y031790D03*
X003050Y031790D03*
X003050Y031110D03*
X002050Y031110D03*
X002050Y031790D03*
X001050Y031790D03*
X001050Y031110D03*
X012000Y019240D03*
X012000Y018560D03*
X012800Y018560D03*
X012800Y019240D03*
X012800Y016840D03*
X012800Y016160D03*
X014300Y012540D03*
X014300Y011860D03*
X018000Y015760D03*
X018000Y016440D03*
X018800Y016440D03*
X018800Y015760D03*
X018000Y018160D03*
X018000Y018840D03*
X018600Y023060D03*
X018600Y023740D03*
X019400Y023740D03*
X019400Y023060D03*
X018200Y027360D03*
X018200Y028040D03*
X019000Y028560D03*
X019000Y029240D03*
X019000Y029960D03*
X019000Y030640D03*
X018200Y030960D03*
X018200Y031640D03*
X017400Y031640D03*
X017400Y030960D03*
X016600Y030960D03*
X016600Y031640D03*
X015800Y031640D03*
X015800Y030960D03*
X015000Y030640D03*
X015000Y029960D03*
X015000Y029240D03*
X015000Y028560D03*
X015700Y028090D03*
X015700Y027410D03*
X016600Y027560D03*
X016600Y028240D03*
X017400Y028240D03*
X017400Y027560D03*
X015100Y023740D03*
X015100Y023060D03*
X014300Y023060D03*
X014300Y023740D03*
X013400Y022540D03*
X013400Y021860D03*
X021400Y005140D03*
X021400Y004460D03*
D16*
X006610Y024300D03*
X006610Y024560D03*
X006610Y024820D03*
X006610Y025070D03*
X006610Y025330D03*
X006610Y025580D03*
X006610Y025840D03*
X006610Y026100D03*
X004390Y026100D03*
X004390Y025840D03*
X004390Y025580D03*
X004390Y025330D03*
X004390Y025070D03*
X004390Y024820D03*
X004390Y024560D03*
X004390Y024300D03*
D17*
X001250Y003500D03*
X006000Y003500D03*
X019800Y032700D03*
X010700Y033800D03*
X009500Y033800D03*
D18*
X009500Y022550D03*
X009500Y021250D03*
X013600Y019450D03*
X013600Y018150D03*
X013600Y016750D03*
X013600Y015450D03*
X013450Y012500D03*
X013450Y011200D03*
X017200Y015550D03*
X017200Y016850D03*
X017200Y018250D03*
X017200Y019550D03*
D19*
X012550Y012260D03*
X012550Y011440D03*
X007500Y017390D03*
X007500Y018210D03*
X007800Y019490D03*
X007800Y020310D03*
X008250Y025390D03*
X008250Y026210D03*
D20*
X007110Y021450D03*
X006850Y021450D03*
X006600Y021450D03*
X006340Y021450D03*
X006080Y021450D03*
X005830Y021450D03*
X005570Y021450D03*
X005320Y021450D03*
X005060Y021450D03*
X004800Y021450D03*
X004550Y021450D03*
X004290Y021450D03*
X004290Y019150D03*
X004550Y019150D03*
X004800Y019150D03*
X005060Y019150D03*
X005320Y019150D03*
X005570Y019150D03*
X005830Y019150D03*
X006080Y019150D03*
X006340Y019150D03*
X006600Y019150D03*
X006850Y019150D03*
X007110Y019150D03*
D21*
X010530Y021150D03*
X010530Y021650D03*
X010530Y022150D03*
X010530Y022650D03*
X012470Y022650D03*
X012470Y022150D03*
X012470Y021650D03*
X012470Y021150D03*
X015980Y021100D03*
X015980Y021600D03*
X015980Y022100D03*
X015980Y022600D03*
X017920Y022600D03*
X017920Y022100D03*
X017920Y021600D03*
X017920Y021100D03*
D22*
X017590Y013800D03*
X018410Y013800D03*
X004910Y017100D03*
X004090Y017100D03*
D23*
X004050Y032900D03*
X004050Y033900D03*
X005050Y033900D03*
X005050Y032900D03*
X006050Y032900D03*
X006050Y033900D03*
X007050Y033900D03*
X007050Y032900D03*
X008050Y032900D03*
X008050Y033900D03*
X012200Y033900D03*
X012200Y032900D03*
X013200Y032900D03*
X013200Y033900D03*
X014200Y033900D03*
X014200Y032900D03*
X015200Y032900D03*
X015200Y033900D03*
X016200Y033900D03*
X016200Y032900D03*
X003050Y032900D03*
X003050Y033900D03*
X002050Y033900D03*
X002050Y032900D03*
X001050Y032900D03*
X001050Y033900D03*
D24*
X009000Y020100D03*
X010000Y018000D03*
X011000Y020100D03*
D25*
X018037Y001100D03*
X018863Y001100D03*
D26*
X005391Y004414D03*
X005391Y006186D03*
X001809Y006186D03*
X001809Y004414D03*
D27*
X010398Y028832D03*
X010398Y029088D03*
X010398Y029344D03*
X010398Y029600D03*
X010398Y029856D03*
X010398Y030112D03*
X010398Y030368D03*
X012602Y030368D03*
X012602Y030112D03*
X012602Y029856D03*
X012602Y029600D03*
X012602Y029344D03*
X012602Y029088D03*
X012602Y028832D03*
X015898Y028832D03*
X015898Y029088D03*
X015898Y029344D03*
X015898Y029600D03*
X015898Y029856D03*
X015898Y030112D03*
X015898Y030368D03*
X018102Y030368D03*
X018102Y030112D03*
X018102Y029856D03*
X018102Y029600D03*
X018102Y029344D03*
X018102Y029088D03*
X018102Y028832D03*
D28*
X010400Y014320D03*
X009400Y014320D03*
X009400Y010780D03*
X010400Y010780D03*
D29*
X008100Y010300D03*
D30*
X014540Y015720D03*
X014540Y015970D03*
X014540Y016230D03*
X014540Y016480D03*
X014540Y018520D03*
X014540Y018770D03*
X014540Y019030D03*
X014540Y019280D03*
X016260Y019280D03*
X016260Y019030D03*
X016260Y018770D03*
X016260Y018520D03*
X016260Y016480D03*
X016260Y016230D03*
X016260Y015970D03*
X016260Y015720D03*
D31*
X015400Y016100D03*
X015400Y018900D03*
D32*
X015150Y012900D03*
X015150Y012400D03*
X015150Y011900D03*
X015150Y011400D03*
X015150Y010900D03*
X015650Y010900D03*
X015650Y011400D03*
X015650Y011900D03*
X015650Y012400D03*
X015650Y012900D03*
X016150Y012900D03*
X016150Y012400D03*
X016150Y011900D03*
X016150Y011400D03*
X016150Y010900D03*
X016650Y010900D03*
X016650Y011400D03*
X016650Y011900D03*
X016650Y012400D03*
X016650Y012900D03*
X017150Y012900D03*
X017150Y012400D03*
X017150Y011900D03*
X017150Y011400D03*
X017150Y010900D03*
X017650Y010900D03*
X017650Y011400D03*
X017650Y011900D03*
X017650Y012400D03*
X017650Y012900D03*
X018150Y012900D03*
X018150Y012400D03*
X018150Y011900D03*
X018150Y011400D03*
X018150Y010900D03*
X018650Y010900D03*
X018650Y011400D03*
X018650Y011900D03*
X018650Y012400D03*
X018650Y012900D03*
D33*
X018900Y009350D03*
X017600Y009350D03*
D34*
X016900Y010350D02*
X012700Y010300D01*
X012150Y010850D01*
X012150Y011700D01*
X013980Y011671D01*
X013980Y011639D01*
X014044Y011575D01*
X014556Y011575D01*
X014620Y011639D01*
X014620Y011661D01*
X015300Y011650D01*
X015400Y011750D01*
X015400Y012150D01*
X015900Y012150D01*
X015900Y014500D01*
X017900Y014500D01*
X017900Y011750D01*
X018000Y011650D01*
X018300Y011650D01*
X018400Y011750D01*
X018400Y012150D01*
X019290Y012150D01*
X019290Y010588D01*
X019300Y010564D01*
X019300Y008900D01*
X018450Y008900D01*
X018427Y009877D01*
X018445Y009894D01*
X018445Y010406D01*
X018414Y010436D01*
X018400Y011050D01*
X018300Y011150D01*
X017752Y011150D01*
X017704Y011170D01*
X017596Y011170D01*
X017548Y011150D01*
X017000Y011150D01*
X016900Y011050D01*
X016900Y010350D01*
X012650Y010350D01*
X012551Y010449D02*
X016900Y010449D01*
X016900Y010547D02*
X012453Y010547D01*
X012354Y010646D02*
X016900Y010646D01*
X016900Y010744D02*
X012256Y010744D01*
X012157Y010843D02*
X016900Y010843D01*
X016900Y010941D02*
X012150Y010941D01*
X012150Y011040D02*
X016900Y011040D01*
X016988Y011138D02*
X012150Y011138D01*
X012150Y011237D02*
X019290Y011237D01*
X019290Y011335D02*
X012150Y011335D01*
X012150Y011434D02*
X019290Y011434D01*
X019290Y011532D02*
X012150Y011532D01*
X012150Y011631D02*
X013989Y011631D01*
X013980Y012050D02*
X013050Y012050D01*
X013050Y013650D01*
X015740Y013650D01*
X015740Y012310D01*
X015334Y012310D01*
X015240Y012216D01*
X015240Y012150D01*
X014650Y012150D01*
X014600Y012100D01*
X014556Y012145D01*
X014044Y012145D01*
X013980Y012081D01*
X013980Y012050D01*
X014022Y012123D02*
X013050Y012123D01*
X013050Y012222D02*
X015245Y012222D01*
X015400Y012123D02*
X017900Y012123D01*
X017900Y012025D02*
X015400Y012025D01*
X015400Y011926D02*
X017900Y011926D01*
X017900Y011828D02*
X015400Y011828D01*
X015379Y011729D02*
X017921Y011729D01*
X018060Y012150D02*
X018060Y014500D01*
X019600Y014500D01*
X019600Y012150D01*
X019460Y012150D01*
X019460Y012216D01*
X019366Y012310D01*
X018334Y012310D01*
X018240Y012216D01*
X018240Y012150D01*
X018060Y012150D01*
X018060Y012222D02*
X018245Y012222D01*
X018400Y012123D02*
X019290Y012123D01*
X019290Y012025D02*
X018400Y012025D01*
X018400Y011926D02*
X019290Y011926D01*
X019290Y011828D02*
X018400Y011828D01*
X018379Y011729D02*
X019290Y011729D01*
X019290Y011631D02*
X014611Y011631D01*
X014623Y012123D02*
X014578Y012123D01*
X015740Y012320D02*
X013050Y012320D01*
X013050Y012419D02*
X015740Y012419D01*
X015740Y012517D02*
X013050Y012517D01*
X013050Y012616D02*
X015740Y012616D01*
X015740Y012714D02*
X013050Y012714D01*
X013050Y012813D02*
X015740Y012813D01*
X015740Y012911D02*
X013050Y012911D01*
X013050Y013010D02*
X015740Y013010D01*
X015740Y013108D02*
X013050Y013108D01*
X013050Y013207D02*
X015740Y013207D01*
X015740Y013305D02*
X013050Y013305D01*
X013050Y013404D02*
X015740Y013404D01*
X015740Y013502D02*
X013050Y013502D01*
X013050Y013601D02*
X015740Y013601D01*
X015900Y013601D02*
X017900Y013601D01*
X017900Y013699D02*
X015900Y013699D01*
X015900Y013798D02*
X017900Y013798D01*
X017900Y013896D02*
X015900Y013896D01*
X015900Y013995D02*
X017900Y013995D01*
X017900Y014093D02*
X015900Y014093D01*
X015900Y014192D02*
X017900Y014192D01*
X017900Y014290D02*
X015900Y014290D01*
X015900Y014389D02*
X017900Y014389D01*
X017900Y014487D02*
X015900Y014487D01*
X015900Y015200D02*
X014900Y015200D01*
X014900Y015559D01*
X014930Y015589D01*
X014930Y016611D01*
X014900Y016641D01*
X014900Y016700D01*
X014700Y016700D01*
X014700Y016754D01*
X014708Y016761D01*
X014745Y016851D01*
X018547Y016851D01*
X018548Y016880D02*
X018546Y016725D01*
X018544Y016725D01*
X018480Y016661D01*
X018480Y016630D01*
X018320Y016630D01*
X018320Y016661D01*
X018256Y016725D01*
X017744Y016725D01*
X017680Y016661D01*
X017680Y016400D01*
X016800Y016400D01*
X016800Y016700D01*
X015900Y016700D01*
X015900Y016391D01*
X015870Y016361D01*
X015870Y015589D01*
X015900Y015559D01*
X015900Y015200D01*
X015900Y015275D02*
X014900Y015275D01*
X014900Y015374D02*
X015900Y015374D01*
X015900Y015472D02*
X014900Y015472D01*
X014911Y015571D02*
X015889Y015571D01*
X015870Y015669D02*
X014930Y015669D01*
X014930Y015768D02*
X015870Y015768D01*
X015870Y015866D02*
X014930Y015866D01*
X014930Y015965D02*
X015870Y015965D01*
X015870Y016063D02*
X014930Y016063D01*
X014930Y016162D02*
X015870Y016162D01*
X015870Y016260D02*
X014930Y016260D01*
X014930Y016359D02*
X015870Y016359D01*
X015900Y016457D02*
X014930Y016457D01*
X014930Y016556D02*
X015900Y016556D01*
X015900Y016654D02*
X014900Y016654D01*
X014700Y016753D02*
X018547Y016753D01*
X018480Y016654D02*
X018320Y016654D01*
X018519Y016880D02*
X018548Y016880D01*
X018519Y016880D02*
X018455Y016944D01*
X018455Y017456D01*
X018519Y017520D01*
X018961Y017520D01*
X019025Y017456D01*
X019025Y016944D01*
X018961Y016880D01*
X018928Y016880D01*
X018926Y016725D01*
X019056Y016725D01*
X019120Y016661D01*
X019120Y016400D01*
X019290Y016400D01*
X019290Y018700D01*
X018320Y018700D01*
X018320Y018619D01*
X018256Y018555D01*
X017744Y018555D01*
X017680Y018619D01*
X017680Y018700D01*
X016869Y018700D01*
X016860Y018691D01*
X016800Y018631D01*
X016800Y018300D01*
X016490Y018300D01*
X016490Y018256D01*
X016508Y018239D01*
X016545Y018149D01*
X016545Y018051D01*
X016508Y017961D01*
X016439Y017892D01*
X016349Y017855D01*
X016251Y017855D01*
X016161Y017892D01*
X016092Y017961D01*
X016055Y018051D01*
X016055Y018149D01*
X016092Y018239D01*
X016110Y018256D01*
X016110Y018300D01*
X015900Y018300D01*
X015900Y018359D01*
X015870Y018389D01*
X015870Y019411D01*
X015900Y019441D01*
X015900Y019870D01*
X014900Y019870D01*
X014900Y019441D01*
X014930Y019411D01*
X014930Y018639D01*
X014900Y018609D01*
X014900Y018300D01*
X014000Y018300D01*
X014000Y018610D01*
X013120Y018610D01*
X013120Y018339D01*
X013056Y018275D01*
X012544Y018275D01*
X012480Y018339D01*
X012480Y018370D01*
X012320Y018370D01*
X012320Y018339D01*
X012256Y018275D01*
X012254Y018275D01*
X012253Y018120D01*
X012281Y018120D01*
X012345Y018056D01*
X012345Y017544D01*
X012281Y017480D01*
X011839Y017480D01*
X011775Y017544D01*
X011775Y018056D01*
X011839Y018120D01*
X011873Y018120D01*
X011874Y018275D01*
X011744Y018275D01*
X011680Y018339D01*
X011680Y018700D01*
X011630Y018700D01*
X011630Y018405D01*
X011600Y018375D01*
X011600Y016747D01*
X012047Y016300D01*
X012480Y016300D01*
X012480Y016381D01*
X012544Y016445D01*
X013056Y016445D01*
X013120Y016381D01*
X013120Y016300D01*
X013931Y016300D01*
X014000Y016369D01*
X014000Y016700D01*
X014300Y016700D01*
X014300Y016754D01*
X014292Y016761D01*
X014255Y016851D01*
X011600Y016851D01*
X011600Y016753D02*
X014300Y016753D01*
X014255Y016851D02*
X014255Y016949D01*
X014292Y017039D01*
X014361Y017108D01*
X014451Y017145D01*
X014549Y017145D01*
X014639Y017108D01*
X014708Y017039D01*
X014745Y016949D01*
X014745Y016851D01*
X014745Y016950D02*
X018455Y016950D01*
X018455Y017048D02*
X014698Y017048D01*
X014302Y017048D02*
X011600Y017048D01*
X011600Y016950D02*
X014255Y016950D01*
X014000Y016654D02*
X011693Y016654D01*
X011792Y016556D02*
X014000Y016556D01*
X014000Y016457D02*
X011890Y016457D01*
X011989Y016359D02*
X012480Y016359D01*
X012480Y016100D02*
X012480Y015939D01*
X012544Y015875D01*
X013056Y015875D01*
X013091Y015910D01*
X014079Y015910D01*
X014150Y015981D01*
X014150Y015839D01*
X014214Y015775D01*
X014740Y015775D01*
X014740Y015134D01*
X014800Y015074D01*
X014800Y013810D01*
X012984Y013810D01*
X012890Y013716D01*
X012890Y013584D01*
X012890Y011984D01*
X012974Y011900D01*
X012100Y011900D01*
X012100Y016100D01*
X012480Y016100D01*
X012480Y016063D02*
X012100Y016063D01*
X012100Y015965D02*
X012480Y015965D01*
X012100Y015866D02*
X014150Y015866D01*
X014150Y015965D02*
X014133Y015965D01*
X013990Y016359D02*
X013120Y016359D01*
X012341Y017541D02*
X019290Y017541D01*
X019290Y017639D02*
X012345Y017639D01*
X012345Y017738D02*
X019290Y017738D01*
X019290Y017836D02*
X012345Y017836D01*
X012345Y017935D02*
X016119Y017935D01*
X016063Y018033D02*
X012345Y018033D01*
X012253Y018132D02*
X016055Y018132D01*
X016089Y018230D02*
X012254Y018230D01*
X012309Y018329D02*
X012491Y018329D01*
X013109Y018329D02*
X014000Y018329D01*
X014000Y018427D02*
X013120Y018427D01*
X013120Y018526D02*
X014000Y018526D01*
X013931Y019000D02*
X011630Y019000D01*
X011630Y019905D01*
X011795Y020070D01*
X014000Y020070D01*
X014000Y019069D01*
X013931Y019000D01*
X013949Y019018D02*
X011630Y019018D01*
X011630Y019117D02*
X014000Y019117D01*
X014000Y019215D02*
X011630Y019215D01*
X011630Y019314D02*
X014000Y019314D01*
X014000Y019412D02*
X011630Y019412D01*
X011630Y019511D02*
X014000Y019511D01*
X014000Y019609D02*
X011630Y019609D01*
X011630Y019708D02*
X014000Y019708D01*
X014000Y019806D02*
X011630Y019806D01*
X011630Y019905D02*
X014000Y019905D01*
X014000Y020003D02*
X011728Y020003D01*
X011680Y018624D02*
X011630Y018624D01*
X011630Y018526D02*
X011680Y018526D01*
X011680Y018427D02*
X011630Y018427D01*
X011600Y018329D02*
X011691Y018329D01*
X011600Y018230D02*
X011874Y018230D01*
X011873Y018132D02*
X011600Y018132D01*
X011600Y018033D02*
X011775Y018033D01*
X011775Y017935D02*
X011600Y017935D01*
X011600Y017836D02*
X011775Y017836D01*
X011775Y017738D02*
X011600Y017738D01*
X011600Y017639D02*
X011775Y017639D01*
X011779Y017541D02*
X011600Y017541D01*
X011600Y017442D02*
X018455Y017442D01*
X018455Y017344D02*
X011600Y017344D01*
X011600Y017245D02*
X018455Y017245D01*
X018455Y017147D02*
X011600Y017147D01*
X012100Y015768D02*
X014740Y015768D01*
X014740Y015669D02*
X012100Y015669D01*
X012100Y015571D02*
X014740Y015571D01*
X014740Y015472D02*
X012100Y015472D01*
X012100Y015374D02*
X014740Y015374D01*
X014740Y015275D02*
X012100Y015275D01*
X012100Y015177D02*
X014740Y015177D01*
X014796Y015078D02*
X012100Y015078D01*
X012100Y014980D02*
X014800Y014980D01*
X014800Y014881D02*
X012100Y014881D01*
X012100Y014783D02*
X014800Y014783D01*
X014800Y014684D02*
X012100Y014684D01*
X012100Y014586D02*
X014800Y014586D01*
X014800Y014487D02*
X012100Y014487D01*
X012100Y014389D02*
X014800Y014389D01*
X014800Y014290D02*
X012100Y014290D01*
X012100Y014192D02*
X014800Y014192D01*
X014800Y014093D02*
X012100Y014093D01*
X012100Y013995D02*
X014800Y013995D01*
X014800Y013896D02*
X012100Y013896D01*
X012100Y013798D02*
X012971Y013798D01*
X012890Y013699D02*
X012100Y013699D01*
X012100Y013601D02*
X012890Y013601D01*
X012890Y013502D02*
X012100Y013502D01*
X012100Y013404D02*
X012890Y013404D01*
X012890Y013305D02*
X012100Y013305D01*
X012100Y013207D02*
X012890Y013207D01*
X012890Y013108D02*
X012100Y013108D01*
X012100Y013010D02*
X012890Y013010D01*
X012890Y012911D02*
X012100Y012911D01*
X012100Y012813D02*
X012890Y012813D01*
X012890Y012714D02*
X012100Y012714D01*
X012100Y012616D02*
X012890Y012616D01*
X012890Y012517D02*
X012100Y012517D01*
X012100Y012419D02*
X012890Y012419D01*
X012890Y012320D02*
X012100Y012320D01*
X012100Y012222D02*
X012890Y012222D01*
X012890Y012123D02*
X012100Y012123D01*
X012100Y012025D02*
X012890Y012025D01*
X012948Y011926D02*
X012100Y011926D01*
X010400Y010780D02*
X010400Y010100D01*
X009400Y010100D02*
X009400Y010780D01*
X008100Y010300D02*
X008000Y010400D01*
X006200Y010400D01*
X005800Y010800D01*
X005800Y011400D01*
X004826Y011400D01*
X004776Y011350D01*
X004826Y011800D02*
X004776Y011850D01*
X004826Y011800D02*
X005500Y011800D01*
X005500Y012600D01*
X004500Y013600D01*
X004500Y013860D01*
X004500Y014540D02*
X004500Y015000D01*
X005300Y015000D02*
X005300Y014540D01*
X005300Y013860D02*
X005300Y013100D01*
X005800Y012600D01*
X005800Y011400D01*
X006000Y011200D02*
X006300Y010900D01*
X006774Y010900D01*
X006824Y010850D01*
X006774Y011300D02*
X006500Y011300D01*
X006200Y011600D01*
X006200Y012600D01*
X006400Y012800D01*
X006700Y012800D01*
X006900Y013000D01*
X006900Y013860D01*
X007350Y013410D01*
X007350Y013400D01*
X007700Y013860D02*
X007800Y013765D01*
X007800Y012100D01*
X007600Y011900D01*
X006874Y011900D01*
X006824Y011850D01*
X006824Y011350D02*
X006774Y011300D01*
X006000Y011200D02*
X006000Y012700D01*
X006100Y012800D01*
X006100Y013860D01*
X006440Y014200D01*
X008900Y014200D01*
X009020Y014320D01*
X009400Y014320D01*
X010000Y013400D02*
X010400Y013800D01*
X010400Y014320D01*
X010400Y014550D01*
X007700Y014540D02*
X007700Y015000D01*
X006900Y015000D02*
X006900Y014540D01*
X006100Y014540D02*
X006100Y015000D01*
X004726Y012400D02*
X004776Y012350D01*
X004726Y012400D02*
X003700Y012400D01*
X003200Y012400D01*
X003000Y012200D01*
X003000Y010300D01*
X003400Y009900D01*
X003800Y009900D01*
X003750Y009850D01*
X003750Y008400D01*
X003750Y007550D02*
X004900Y008700D01*
X004900Y009100D01*
X004700Y009300D01*
X004900Y009100D02*
X005460Y009100D01*
X005460Y009900D02*
X003800Y009900D01*
X003750Y007550D02*
X003750Y007200D01*
X001809Y004414D02*
X001686Y004414D01*
X001200Y004900D01*
X001200Y006935D01*
X001260Y007000D01*
X001000Y007000D01*
X000750Y007250D01*
X000750Y019500D01*
X002400Y019500D01*
X002700Y019800D01*
X002700Y019950D01*
X002900Y020150D01*
X004150Y020150D01*
X004600Y020600D01*
X004800Y020600D01*
X005320Y021120D01*
X005320Y021450D01*
X004800Y021450D02*
X004800Y021800D01*
X004650Y021950D01*
X004650Y022000D01*
X004800Y021800D02*
X005100Y022100D01*
X005100Y025000D01*
X004770Y025330D01*
X004390Y025330D01*
X004390Y025580D02*
X004120Y025580D01*
X004390Y025840D02*
X004390Y026100D01*
X004390Y025840D02*
X004860Y025840D01*
X004900Y025900D01*
X005300Y025400D02*
X005300Y022300D01*
X005600Y022000D01*
X004900Y022850D02*
X004400Y022350D01*
X004400Y021900D01*
X004300Y021800D01*
X004300Y021460D01*
X004290Y021450D01*
X004290Y021510D01*
X004550Y021450D02*
X004550Y020950D01*
X004300Y020700D01*
X003740Y020700D01*
X003060Y020700D02*
X002700Y020700D01*
X002500Y020500D01*
X001750Y020500D01*
X001250Y021000D01*
X001250Y022000D02*
X001750Y022500D01*
X001750Y024300D01*
X001950Y024500D01*
X002850Y024500D01*
X003050Y024700D01*
X003050Y025085D01*
X003060Y025100D01*
X003740Y025100D02*
X003765Y025070D01*
X004390Y025070D01*
X004390Y024820D02*
X004680Y024820D01*
X004900Y024600D01*
X004900Y022850D01*
X004150Y021950D02*
X004300Y021800D01*
X004150Y021950D02*
X003835Y021950D01*
X003740Y021800D01*
X003060Y021800D02*
X003050Y021800D01*
X002250Y021000D01*
X002250Y022000D02*
X003065Y022815D01*
X003060Y022900D01*
X003000Y023500D02*
X003000Y023935D01*
X003060Y024000D01*
X003740Y024000D02*
X004090Y024000D01*
X004390Y024300D01*
X004380Y024550D02*
X004390Y024560D01*
X004380Y024550D02*
X003550Y024550D01*
X003740Y022900D02*
X004050Y022900D01*
X004200Y022750D01*
X004700Y020200D02*
X004450Y019950D01*
X004450Y019600D01*
X004300Y019450D01*
X004250Y019450D01*
X004100Y019600D01*
X003740Y019600D01*
X004250Y019450D02*
X004290Y019410D01*
X004290Y019150D01*
X004800Y019150D02*
X004800Y018800D01*
X004500Y018500D01*
X003740Y018500D01*
X003060Y018500D02*
X003065Y018165D01*
X002400Y017500D01*
X001750Y017500D01*
X001250Y017000D01*
X002250Y018000D02*
X002700Y018450D01*
X002700Y018900D01*
X003065Y019265D01*
X003060Y019600D01*
X004800Y019400D02*
X004800Y019150D01*
X003700Y015000D02*
X003700Y014540D01*
X003700Y013860D02*
X003700Y012400D01*
X006140Y009900D02*
X007300Y009900D01*
X007700Y009500D01*
X007535Y009100D02*
X006140Y009100D01*
X007535Y009100D02*
X007700Y008900D01*
X000750Y019500D02*
X000750Y024450D01*
X000850Y024550D01*
X001250Y027000D02*
X001750Y027500D01*
X003435Y027500D01*
X007050Y031110D01*
X007050Y031790D02*
X007050Y031800D01*
X007550Y032300D01*
X007550Y033400D01*
X007050Y033900D01*
X006550Y033400D02*
X006050Y033900D01*
X005550Y033400D02*
X005050Y033900D01*
X004550Y033400D02*
X004050Y033900D01*
X003550Y033400D02*
X003050Y033900D01*
X002550Y033400D02*
X002050Y033900D01*
X002550Y033400D02*
X002550Y032300D01*
X002050Y031800D01*
X002050Y031790D01*
X002050Y031110D02*
X001710Y031110D01*
X001600Y031000D01*
X001600Y030750D01*
X001750Y030600D01*
X003000Y030600D01*
X003150Y030450D01*
X003150Y030200D01*
X002950Y030000D01*
X002250Y030000D01*
X001750Y029500D02*
X002850Y029500D01*
X003600Y030250D01*
X003600Y030800D01*
X003300Y031100D01*
X003065Y031100D01*
X003050Y031110D01*
X003050Y031790D02*
X003050Y031800D01*
X003550Y032300D01*
X003550Y033400D01*
X004550Y033400D02*
X004550Y032250D01*
X004085Y031785D01*
X004050Y031790D01*
X004050Y031110D02*
X004065Y031100D01*
X004450Y031100D01*
X004600Y030950D01*
X004600Y030450D01*
X004300Y030150D01*
X003850Y030150D01*
X003550Y029850D01*
X003550Y029350D01*
X003200Y029000D01*
X002250Y029000D01*
X001750Y028500D02*
X003200Y028500D01*
X005050Y030350D01*
X005050Y031110D01*
X005050Y031790D02*
X005050Y031800D01*
X005550Y032300D01*
X005550Y033400D01*
X006550Y033400D02*
X006550Y032300D01*
X006050Y031800D01*
X006050Y031790D01*
X006050Y031110D02*
X006050Y030750D01*
X003300Y028000D01*
X002250Y028000D01*
X001750Y028500D02*
X001250Y028000D01*
X001250Y029000D02*
X001750Y029500D01*
X001250Y029900D02*
X001050Y029700D01*
X000850Y029700D01*
X000750Y029800D01*
X000750Y030150D01*
X001000Y030400D01*
X001300Y030400D01*
X001400Y030500D01*
X001400Y030650D01*
X001300Y030750D01*
X000800Y030750D01*
X000750Y030800D01*
X000750Y031050D01*
X000810Y031110D01*
X001050Y031110D01*
X001050Y031790D02*
X001050Y031800D01*
X001550Y032300D01*
X001550Y033400D01*
X001050Y033900D01*
X001250Y030000D02*
X001250Y029900D01*
X002250Y027000D02*
X003685Y027000D01*
X007800Y031110D01*
X007800Y031790D02*
X007985Y031785D01*
X008500Y032300D01*
X008500Y033450D01*
X008050Y033900D01*
X006610Y026100D02*
X006000Y026100D01*
X005300Y025400D01*
X014900Y019806D02*
X015900Y019806D01*
X015900Y019708D02*
X014900Y019708D01*
X014900Y019609D02*
X015900Y019609D01*
X015900Y019511D02*
X014900Y019511D01*
X014929Y019412D02*
X015871Y019412D01*
X015870Y019314D02*
X014930Y019314D01*
X014930Y019215D02*
X015870Y019215D01*
X015870Y019117D02*
X014930Y019117D01*
X014930Y019018D02*
X015870Y019018D01*
X015870Y018920D02*
X014930Y018920D01*
X014930Y018821D02*
X015870Y018821D01*
X015870Y018723D02*
X014930Y018723D01*
X014915Y018624D02*
X015870Y018624D01*
X015870Y018526D02*
X014900Y018526D01*
X014900Y018427D02*
X015870Y018427D01*
X015900Y018329D02*
X014900Y018329D01*
X016060Y019225D02*
X016060Y019870D01*
X017295Y019870D01*
X017325Y019900D01*
X019559Y019900D01*
X019590Y019896D01*
X019620Y019886D01*
X019647Y019869D01*
X019669Y019847D01*
X019686Y019820D01*
X019696Y019790D01*
X019700Y019759D01*
X019700Y018800D01*
X019426Y018800D01*
X019366Y018860D01*
X018320Y018860D01*
X018320Y019061D01*
X018256Y019125D01*
X017744Y019125D01*
X017709Y019090D01*
X016721Y019090D01*
X016650Y019019D01*
X016650Y019161D01*
X016586Y019225D01*
X016060Y019225D01*
X016060Y019314D02*
X019700Y019314D01*
X019700Y019412D02*
X016060Y019412D01*
X016060Y019511D02*
X019700Y019511D01*
X019700Y019609D02*
X016060Y019609D01*
X016060Y019708D02*
X019700Y019708D01*
X019691Y019806D02*
X016060Y019806D01*
X016596Y019215D02*
X019700Y019215D01*
X019700Y019117D02*
X018264Y019117D01*
X018320Y019018D02*
X019700Y019018D01*
X019700Y018920D02*
X018320Y018920D01*
X018320Y018624D02*
X019290Y018624D01*
X019290Y018526D02*
X016800Y018526D01*
X016800Y018624D02*
X017680Y018624D01*
X017736Y019117D02*
X016650Y019117D01*
X016800Y018427D02*
X019290Y018427D01*
X019290Y018329D02*
X016800Y018329D01*
X016511Y018230D02*
X019290Y018230D01*
X019290Y018132D02*
X016545Y018132D01*
X016537Y018033D02*
X019290Y018033D01*
X019290Y017935D02*
X016481Y017935D01*
X016800Y016654D02*
X017680Y016654D01*
X017680Y016556D02*
X016800Y016556D01*
X016800Y016457D02*
X017680Y016457D01*
X017934Y016100D02*
X019290Y016100D01*
X019290Y014660D01*
X016800Y014660D01*
X016800Y015931D01*
X016879Y016010D01*
X017688Y016010D01*
X017689Y016009D01*
X017766Y016010D01*
X017844Y016010D01*
X017845Y016011D01*
X017846Y016011D01*
X017900Y016066D01*
X017934Y016100D01*
X017897Y016063D02*
X019290Y016063D01*
X019290Y015965D02*
X016833Y015965D01*
X016800Y015866D02*
X019290Y015866D01*
X019290Y015768D02*
X016800Y015768D01*
X016800Y015669D02*
X019290Y015669D01*
X019290Y015571D02*
X016800Y015571D01*
X016800Y015472D02*
X019290Y015472D01*
X019290Y015374D02*
X016800Y015374D01*
X016800Y015275D02*
X019290Y015275D01*
X019290Y015177D02*
X016800Y015177D01*
X016800Y015078D02*
X019290Y015078D01*
X019290Y014980D02*
X016800Y014980D01*
X016800Y014881D02*
X019290Y014881D01*
X019290Y014783D02*
X016800Y014783D01*
X016800Y014684D02*
X019290Y014684D01*
X019600Y014487D02*
X018060Y014487D01*
X018060Y014389D02*
X019600Y014389D01*
X019600Y014290D02*
X018060Y014290D01*
X018060Y014192D02*
X019600Y014192D01*
X019600Y014093D02*
X018060Y014093D01*
X018060Y013995D02*
X019600Y013995D01*
X019600Y013896D02*
X018060Y013896D01*
X018060Y013798D02*
X019600Y013798D01*
X019600Y013699D02*
X018060Y013699D01*
X018060Y013601D02*
X019600Y013601D01*
X019600Y013502D02*
X018060Y013502D01*
X018060Y013404D02*
X019600Y013404D01*
X019600Y013305D02*
X018060Y013305D01*
X018060Y013207D02*
X019600Y013207D01*
X019600Y013108D02*
X018060Y013108D01*
X018060Y013010D02*
X019600Y013010D01*
X019600Y012911D02*
X018060Y012911D01*
X018060Y012813D02*
X019600Y012813D01*
X019600Y012714D02*
X018060Y012714D01*
X018060Y012616D02*
X019600Y012616D01*
X019600Y012517D02*
X018060Y012517D01*
X018060Y012419D02*
X019600Y012419D01*
X019600Y012320D02*
X018060Y012320D01*
X017900Y012320D02*
X015900Y012320D01*
X015900Y012222D02*
X017900Y012222D01*
X017900Y012419D02*
X015900Y012419D01*
X015900Y012517D02*
X017900Y012517D01*
X017900Y012616D02*
X015900Y012616D01*
X015900Y012714D02*
X017900Y012714D01*
X017900Y012813D02*
X015900Y012813D01*
X015900Y012911D02*
X017900Y012911D01*
X017900Y013010D02*
X015900Y013010D01*
X015900Y013108D02*
X017900Y013108D01*
X017900Y013207D02*
X015900Y013207D01*
X015900Y013305D02*
X017900Y013305D01*
X017900Y013404D02*
X015900Y013404D01*
X015900Y013502D02*
X017900Y013502D01*
X018312Y011138D02*
X019290Y011138D01*
X019290Y011040D02*
X018400Y011040D01*
X018403Y010941D02*
X019290Y010941D01*
X019290Y010843D02*
X018405Y010843D01*
X018407Y010744D02*
X019290Y010744D01*
X019290Y010646D02*
X018409Y010646D01*
X018412Y010547D02*
X019300Y010547D01*
X019300Y010449D02*
X018414Y010449D01*
X018445Y010350D02*
X019300Y010350D01*
X019300Y010252D02*
X018445Y010252D01*
X018445Y010153D02*
X019300Y010153D01*
X019300Y010055D02*
X018445Y010055D01*
X018445Y009956D02*
X019300Y009956D01*
X019300Y009858D02*
X018428Y009858D01*
X018430Y009759D02*
X019300Y009759D01*
X019300Y009661D02*
X018432Y009661D01*
X018435Y009562D02*
X019300Y009562D01*
X019300Y009464D02*
X018437Y009464D01*
X018439Y009365D02*
X019300Y009365D01*
X019300Y009267D02*
X018441Y009267D01*
X018444Y009168D02*
X019300Y009168D01*
X019300Y009070D02*
X018446Y009070D01*
X018448Y008971D02*
X019300Y008971D01*
X021250Y010000D02*
X021700Y009550D01*
X021700Y007300D01*
X021400Y007000D01*
X021400Y005140D01*
X021400Y004460D02*
X021400Y002500D01*
X020000Y001100D01*
X018863Y001100D01*
X018037Y001100D02*
X016700Y001100D01*
X019455Y012222D02*
X019600Y012222D01*
X019290Y016457D02*
X019120Y016457D01*
X019120Y016556D02*
X019290Y016556D01*
X019290Y016654D02*
X019120Y016654D01*
X019290Y016753D02*
X018927Y016753D01*
X018927Y016851D02*
X019290Y016851D01*
X019290Y016950D02*
X019025Y016950D01*
X019025Y017048D02*
X019290Y017048D01*
X019290Y017147D02*
X019025Y017147D01*
X019025Y017245D02*
X019290Y017245D01*
X019290Y017344D02*
X019025Y017344D01*
X019025Y017442D02*
X019290Y017442D01*
X019405Y018821D02*
X019700Y018821D01*
D35*
X017200Y015550D02*
X017051Y015649D01*
X017000Y015700D01*
X016280Y015700D01*
X016260Y015720D01*
X014540Y015720D02*
X014520Y015700D01*
X013800Y015700D01*
X014540Y016480D02*
X014500Y016520D01*
X014500Y016900D01*
X014540Y019280D02*
X013671Y019280D01*
X013600Y019450D01*
X016880Y019280D02*
X017000Y019400D01*
D36*
X017200Y021500D02*
X017000Y021700D01*
X017000Y022400D01*
X016700Y022700D01*
X015980Y022600D02*
X015980Y022100D01*
X015000Y021600D02*
X015000Y021050D01*
X013900Y022450D02*
X013600Y022200D01*
X012950Y022200D01*
X012520Y022200D01*
X012470Y022150D01*
X013065Y024600D02*
X013060Y025200D01*
X013060Y026100D01*
X013000Y026165D01*
X013000Y026550D01*
X012440Y026100D02*
X012440Y025200D01*
X013065Y024600D02*
X013100Y024600D01*
X013740Y025200D02*
X013740Y026100D01*
X014000Y026900D02*
X014250Y027150D01*
X014250Y027500D01*
X015300Y026800D02*
X014765Y026265D01*
X014760Y026100D01*
X015440Y026100D02*
X015440Y025200D01*
X015435Y024600D01*
X015500Y024600D01*
X015450Y024650D01*
X014850Y024650D01*
X015950Y024350D02*
X016100Y024200D01*
X017700Y024200D01*
X018100Y024600D01*
X018035Y024600D01*
X018040Y025200D01*
X018040Y026100D01*
X017600Y026335D02*
X017600Y026900D01*
X017600Y026335D02*
X017360Y026100D01*
X016740Y026100D02*
X016740Y025200D01*
X016735Y024900D01*
X016450Y024900D01*
X016300Y024750D01*
X016300Y024500D01*
X016735Y024600D02*
X016735Y024900D01*
X016735Y024600D02*
X016800Y024600D01*
X017100Y024000D02*
X017000Y023900D01*
X016350Y023900D01*
X017100Y024000D02*
X018100Y024000D01*
X018650Y024550D01*
X019350Y024550D01*
X019400Y024600D01*
X019335Y024600D01*
X019340Y025200D01*
X019340Y026100D01*
X018700Y026100D02*
X018660Y026100D01*
X018700Y026100D02*
X018700Y026900D01*
X018200Y027360D02*
X018150Y027315D01*
X018150Y026950D01*
X017400Y027560D02*
X017869Y028035D01*
X018200Y028040D01*
X018600Y028435D01*
X018600Y029000D01*
X018512Y029088D01*
X018102Y029088D01*
X018102Y028832D02*
X017632Y028832D01*
X017400Y028600D01*
X017400Y028240D01*
X017635Y028235D01*
X017900Y028500D01*
X018100Y028500D01*
X018102Y029600D02*
X018500Y029600D01*
X018512Y030112D02*
X018600Y030200D01*
X018600Y030565D01*
X018200Y030960D01*
X018135Y030965D01*
X017600Y031500D01*
X017535Y031500D01*
X017400Y031640D01*
X017400Y030960D02*
X017400Y030600D01*
X017632Y030368D01*
X018102Y030368D01*
X017568Y030368D01*
X017400Y030200D01*
X018102Y030112D02*
X018512Y030112D01*
X018200Y031640D02*
X018200Y033000D01*
X017300Y033900D01*
X016200Y033900D01*
X016200Y032900D02*
X015500Y032200D01*
X013800Y032200D01*
X012600Y031000D01*
X012600Y030960D01*
X012600Y030368D01*
X012602Y030368D01*
X012602Y030112D02*
X012188Y030112D01*
X011835Y030465D01*
X011840Y031100D01*
X012369Y031635D01*
X012600Y031640D01*
X012700Y032400D02*
X013200Y032900D01*
X013300Y032400D02*
X014700Y032400D01*
X015200Y032900D01*
X015350Y031650D02*
X015365Y031635D01*
X015800Y031640D01*
X015665Y031635D01*
X015800Y030960D02*
X015865Y030965D01*
X016400Y031500D01*
X016465Y031500D01*
X016600Y031640D01*
X016600Y030960D02*
X016600Y030600D01*
X016368Y030368D01*
X015898Y030368D01*
X016432Y030368D01*
X016600Y030200D01*
X015898Y030112D02*
X015488Y030112D01*
X015400Y030200D01*
X015400Y030565D01*
X015800Y030960D01*
X015898Y029600D02*
X015500Y029600D01*
X015488Y029088D02*
X015400Y029000D01*
X015400Y028435D01*
X015700Y028090D01*
X016131Y028085D01*
X016600Y027560D01*
X016150Y027500D02*
X016065Y027415D01*
X015700Y027410D01*
X016600Y027000D02*
X016065Y026465D01*
X016060Y026100D01*
X016365Y028235D02*
X016100Y028500D01*
X015900Y028500D01*
X015898Y028832D02*
X016368Y028832D01*
X016600Y028600D01*
X016600Y028240D01*
X016365Y028235D01*
X016600Y028240D02*
X016600Y028200D01*
X015898Y029088D02*
X015488Y029088D01*
X013100Y032200D02*
X013300Y032400D01*
X012700Y032400D02*
X010500Y032400D01*
X010000Y031900D01*
X010000Y031365D01*
X010400Y030960D01*
X010400Y030368D01*
X010398Y030368D01*
X010398Y030112D02*
X010409Y030100D01*
X010800Y030100D01*
X010900Y030200D01*
X010900Y030600D01*
X010800Y030700D01*
X010800Y031300D01*
X010465Y031635D01*
X010365Y031665D01*
X010700Y032000D01*
X011160Y032000D01*
X010465Y031635D02*
X010400Y031640D01*
X010350Y032950D02*
X008700Y031300D01*
X008700Y028100D01*
X009000Y027800D01*
X009700Y027800D01*
X010000Y028100D01*
X010000Y028500D01*
X010332Y028832D01*
X010398Y028832D01*
X010400Y028832D01*
X010400Y028240D01*
X010400Y027560D02*
X010631Y027565D01*
X011160Y028100D01*
X011165Y028735D01*
X010812Y029088D01*
X010398Y029088D01*
X010398Y029344D02*
X011000Y029344D01*
X011000Y029300D01*
X011100Y029700D02*
X010944Y029856D01*
X010398Y029856D01*
X010398Y029600D02*
X010000Y029600D01*
X011900Y029700D02*
X012056Y029856D01*
X012602Y029856D01*
X012602Y029600D02*
X013000Y029600D01*
X012602Y029344D02*
X012000Y029344D01*
X012000Y029300D01*
X012188Y029088D02*
X012602Y029088D01*
X012602Y028832D02*
X012602Y028600D01*
X013050Y028600D01*
X012602Y028600D02*
X012602Y028235D01*
X012600Y028240D01*
X012200Y028500D02*
X012200Y027965D01*
X012600Y027560D01*
X012600Y027500D01*
X012400Y027300D01*
X011840Y027300D01*
X011800Y026550D02*
X011800Y026135D01*
X011760Y026100D01*
X011760Y025200D01*
X011765Y024600D01*
X011800Y024600D01*
X011140Y025200D02*
X011140Y026100D01*
X010460Y026100D02*
X010460Y025200D01*
X010465Y024600D01*
X010500Y024600D01*
X009900Y024600D01*
X009840Y025200D02*
X009840Y026100D01*
X010460Y026100D02*
X010465Y026515D01*
X010500Y026550D01*
X009200Y026550D02*
X009165Y026515D01*
X009160Y026100D01*
X009160Y025200D01*
X009165Y024600D01*
X009200Y024600D01*
X008600Y024000D01*
X007400Y024400D02*
X006980Y024820D01*
X006610Y024820D01*
X006610Y024560D02*
X006940Y024560D01*
X007100Y024400D01*
X007100Y024200D01*
X007300Y024000D01*
X006600Y024200D02*
X006600Y024290D01*
X006610Y024300D01*
X006610Y025330D02*
X006630Y025350D01*
X007000Y025350D01*
X007100Y025800D02*
X007060Y025840D01*
X006610Y025840D01*
X006610Y025580D02*
X006120Y025580D01*
X004750Y025550D02*
X004720Y025580D01*
X004390Y025580D01*
X006600Y022300D02*
X006500Y022200D01*
X006500Y021900D01*
X006600Y021800D01*
X006600Y021450D01*
X006850Y021450D02*
X006850Y021950D01*
X007110Y021450D02*
X007110Y022860D01*
X005900Y019800D02*
X005830Y019730D01*
X005830Y019150D01*
X006340Y019150D02*
X006600Y019150D01*
X007110Y019150D02*
X007110Y019140D01*
X007350Y018900D01*
X008350Y018900D01*
X005500Y018600D02*
X005320Y018780D01*
X005320Y019150D01*
X004700Y019700D02*
X004650Y019650D01*
X004650Y019550D01*
X004550Y019450D01*
X004550Y019150D01*
X012200Y028500D02*
X012100Y028600D01*
X012100Y029000D01*
X012188Y029088D01*
X014200Y032900D02*
X013700Y033400D01*
X011500Y033400D01*
X011050Y032950D01*
X010350Y032950D01*
X019400Y023700D02*
X019000Y023300D01*
X019000Y022800D01*
X018900Y022700D01*
X018900Y021750D01*
X019000Y021650D01*
X019400Y023700D02*
X019400Y023740D01*
X018150Y012400D02*
X018150Y011900D01*
X018150Y010900D02*
X018150Y010150D01*
X018160Y010150D01*
X015150Y011900D02*
X014200Y011900D01*
X014300Y011860D01*
X014200Y010800D02*
X014200Y010500D01*
X014187Y010500D01*
D37*
X015400Y011150D03*
X015400Y011650D03*
X015900Y011650D03*
X015900Y011150D03*
X016400Y011150D03*
X016400Y011650D03*
X016400Y012150D03*
X016400Y012650D03*
X016900Y012650D03*
X016900Y012150D03*
X016900Y011650D03*
X016900Y011150D03*
X017400Y011650D03*
X017400Y012150D03*
X017400Y012650D03*
X017900Y011650D03*
X018400Y011650D03*
X018400Y011150D03*
X018900Y011150D03*
X018900Y011650D03*
X018800Y015200D03*
X018400Y015200D03*
X018000Y015200D03*
X016300Y018100D03*
X015600Y018600D03*
X015400Y018900D03*
X015200Y018600D03*
X015200Y019200D03*
X015600Y019200D03*
X016700Y021000D03*
X017200Y021500D03*
X016700Y022700D03*
X016200Y023200D03*
X016350Y023900D03*
X015950Y024350D03*
X016300Y024500D03*
X016100Y025650D03*
X016600Y027000D03*
X016150Y027500D03*
X015900Y028500D03*
X015000Y028100D03*
X014500Y028600D03*
X014500Y029200D03*
X014000Y029200D03*
X014000Y030000D03*
X014500Y030000D03*
X014500Y030600D03*
X015000Y031100D03*
X015350Y031650D03*
X016600Y030200D03*
X017000Y029200D03*
X017400Y030200D03*
X018100Y028500D03*
X019000Y028100D03*
X019600Y029200D03*
X019600Y030000D03*
X019000Y031100D03*
X018700Y026900D03*
X018150Y026950D03*
X017600Y026900D03*
X017400Y025650D03*
X018700Y025650D03*
X017700Y023700D03*
X017900Y023300D03*
X018050Y022950D03*
X019200Y022500D03*
X018200Y019400D03*
X015600Y016400D03*
X015400Y016100D03*
X015200Y015800D03*
X015600Y015800D03*
X015200Y016400D03*
X014500Y016900D03*
X012600Y015500D03*
X010000Y013400D03*
X010400Y010100D03*
X009400Y010100D03*
X007700Y009500D03*
X007700Y008900D03*
X005500Y011800D03*
X003800Y012000D03*
X003300Y011500D03*
X003800Y010400D03*
X004700Y009300D03*
X003600Y006200D03*
X002400Y007000D03*
X007500Y012700D03*
X007350Y013400D03*
X007700Y015000D03*
X006900Y015000D03*
X006100Y015000D03*
X005300Y015000D03*
X004500Y015000D03*
X003700Y015000D03*
X004100Y016500D03*
X003500Y017100D03*
X004900Y016500D03*
X005400Y017100D03*
X005450Y017900D03*
X006850Y018600D03*
X005900Y019800D03*
X005050Y019800D03*
X004700Y020200D03*
X004650Y022000D03*
X004200Y022750D03*
X003000Y023500D03*
X003550Y024550D03*
X004900Y025900D03*
X005300Y027000D03*
X005750Y026900D03*
X006120Y025580D03*
X007100Y025800D03*
X007550Y026600D03*
X008300Y026700D03*
X009200Y026550D03*
X009900Y026550D03*
X010500Y026550D03*
X011200Y026550D03*
X011800Y026550D03*
X012500Y026550D03*
X013000Y026550D03*
X013800Y026550D03*
X014800Y025650D03*
X014850Y024650D03*
X015700Y023100D03*
X015000Y021600D03*
X013900Y022450D03*
X013400Y023000D03*
X013400Y021400D03*
X013000Y019800D03*
X012600Y019800D03*
X012200Y019800D03*
X011800Y019800D03*
X011500Y022150D03*
X011550Y023800D03*
X009900Y024600D03*
X008750Y025500D03*
X008300Y024900D03*
X007900Y024700D03*
X007400Y024400D03*
X007300Y024000D03*
X007300Y024900D03*
X008600Y024000D03*
X007110Y022860D03*
X006850Y021950D03*
X006600Y022300D03*
X005600Y022000D03*
X008000Y018500D03*
X008350Y018900D03*
X008350Y019600D03*
X008000Y018000D03*
X008000Y017450D03*
X007500Y016950D03*
X009550Y020200D03*
X009500Y020800D03*
X008900Y021300D03*
X009500Y028100D03*
X009000Y028600D03*
X009000Y029200D03*
X009000Y030000D03*
X009000Y030600D03*
X009500Y031100D03*
X011000Y029300D03*
X011100Y029700D03*
X011900Y029700D03*
X012000Y029300D03*
X013050Y028600D03*
X013500Y028100D03*
X015300Y026800D03*
X013500Y031100D03*
X013100Y032200D03*
X004650Y027050D03*
X004150Y026600D03*
X000850Y024550D03*
X016700Y001100D03*
D38*
X018650Y012400D02*
X019400Y012400D01*
X019600Y012600D01*
X017200Y020100D02*
X014400Y020100D01*
X014200Y020300D01*
X011700Y020300D01*
X011400Y020000D01*
X011400Y018500D01*
X010900Y018000D01*
X010000Y018000D01*
X009550Y020200D02*
X009100Y020200D01*
X009000Y020100D01*
X009500Y020800D02*
X009500Y021300D01*
X008900Y021300D01*
X009500Y022550D02*
X009699Y022501D01*
X010050Y022150D01*
X010200Y022150D01*
X010500Y022730D02*
X010500Y023100D01*
X010800Y023400D01*
X011160Y023400D01*
X011550Y023800D02*
X011750Y023800D01*
X011850Y023700D01*
X011850Y023400D01*
X011850Y023350D01*
X011850Y023400D02*
X012200Y023400D01*
X012500Y023100D01*
X012500Y022800D01*
X012850Y022650D02*
X013050Y022650D01*
X013200Y022500D01*
X013385Y022500D01*
X013400Y022540D01*
X013400Y023000D01*
X013065Y023735D02*
X012650Y024150D01*
X010950Y024150D01*
X010400Y023600D01*
X007915Y023600D01*
X007900Y023610D01*
X007900Y022700D01*
X007800Y022600D01*
X007800Y021640D01*
X007800Y020960D02*
X007800Y020310D01*
X005930Y020310D01*
X005570Y019950D01*
X005570Y019600D01*
X006080Y019530D02*
X006250Y019700D01*
X007576Y019700D01*
X007800Y019490D01*
X007874Y019600D01*
X008350Y019600D01*
X008000Y018500D02*
X007826Y018500D01*
X007500Y018210D01*
X006775Y018210D01*
X006700Y018140D01*
X005965Y018135D01*
X005600Y018500D01*
X005450Y017900D02*
X005040Y017900D01*
X005000Y017865D01*
X005000Y017600D01*
X004874Y017474D01*
X004910Y017100D01*
X005400Y017100D01*
X004910Y017100D02*
X004900Y017074D01*
X004900Y016500D01*
X004100Y017400D02*
X004365Y017665D01*
X004360Y017900D01*
X004365Y017965D01*
X005000Y018600D01*
X004700Y019700D02*
X004800Y019800D01*
X005050Y019800D01*
X004100Y017400D02*
X004100Y017126D01*
X003526Y017126D01*
X003500Y017100D01*
X004090Y017100D02*
X004100Y017074D01*
X004100Y016500D01*
X004090Y017100D02*
X004100Y017126D01*
X006700Y017460D02*
X006775Y017390D01*
X007500Y017390D01*
X007500Y017450D01*
X007474Y017450D01*
X007500Y017390D01*
X007500Y016950D01*
X007500Y017450D02*
X008000Y017450D01*
X008000Y018000D02*
X007900Y018100D01*
X007450Y018150D01*
X011000Y020100D02*
X011600Y020700D01*
X014100Y020700D01*
X014300Y020900D01*
X014300Y022100D01*
X015980Y022100D01*
X015600Y021600D02*
X015000Y021600D01*
X014300Y022100D02*
X014300Y023060D01*
X014300Y023740D02*
X014300Y026600D01*
X014000Y026900D01*
X011565Y026900D01*
X011160Y027300D01*
X011165Y027365D01*
X011600Y027800D01*
X011700Y027800D01*
X011800Y027900D01*
X011800Y028065D01*
X011840Y028100D01*
X011835Y028465D01*
X011500Y028800D01*
X011500Y030400D01*
X011165Y030735D01*
X011160Y031100D01*
X011200Y031135D01*
X011200Y031300D01*
X011835Y031935D01*
X011840Y032000D01*
X013500Y031100D02*
X013500Y030640D01*
X013500Y030000D02*
X014000Y030000D01*
X014500Y030000D02*
X015000Y030000D01*
X015000Y029960D02*
X015000Y029700D01*
X015000Y029240D01*
X015000Y029200D01*
X014500Y029200D01*
X014000Y029200D02*
X013535Y029200D01*
X013500Y029240D01*
X013500Y029800D01*
X013500Y029960D01*
X013135Y029600D02*
X013000Y029600D01*
X013135Y029600D02*
X013500Y029240D01*
X013500Y028600D02*
X013500Y028560D01*
X013500Y028500D02*
X013500Y028100D01*
X014500Y028600D02*
X015000Y028600D01*
X015000Y028560D01*
X015000Y028500D02*
X015000Y028100D01*
X015000Y029240D02*
X015365Y029600D01*
X015500Y029600D01*
X015000Y030600D02*
X015000Y030640D01*
X015000Y031100D01*
X015000Y030600D02*
X014500Y030600D01*
X017000Y029800D02*
X017000Y029344D01*
X017000Y029200D01*
X018500Y029600D02*
X018635Y029600D01*
X019000Y029240D01*
X019065Y029200D01*
X019600Y029200D01*
X019600Y030000D02*
X019035Y030000D01*
X019000Y029960D01*
X019000Y029800D01*
X019000Y029240D01*
X019000Y028600D02*
X019000Y028100D01*
X019000Y030600D02*
X019000Y030640D01*
X019000Y031100D01*
X018600Y023740D02*
X018565Y023700D01*
X017700Y023700D01*
X017900Y023300D02*
X017800Y023200D01*
X017340Y023200D01*
X017900Y022800D02*
X018050Y022950D01*
X018600Y023060D02*
X018600Y022200D01*
X018500Y022100D01*
X018300Y022100D01*
X018000Y021000D02*
X018000Y020700D01*
X017800Y020500D01*
X017340Y020500D01*
X017335Y020235D01*
X017200Y020100D01*
X016700Y020535D02*
X016700Y021000D01*
X016700Y020535D02*
X016660Y020500D01*
X016200Y020500D01*
X015900Y020800D01*
X015900Y021020D01*
X015665Y023065D02*
X015100Y023060D01*
X015665Y023065D02*
X015700Y023100D01*
X015100Y023740D02*
X014300Y023740D01*
X013065Y023735D01*
X011850Y023400D02*
X011840Y023400D01*
X011500Y022150D02*
X010950Y022150D01*
X012900Y021650D02*
X012950Y021650D01*
X013200Y021900D01*
X013365Y021900D01*
X013400Y021860D01*
X013400Y021400D01*
X013415Y021800D02*
X013400Y021860D01*
X016200Y023200D02*
X016660Y023200D01*
X018600Y023740D02*
X019400Y023740D01*
X019400Y023060D02*
X019400Y022700D01*
X019200Y022500D01*
X011165Y027265D02*
X011160Y027300D01*
X009500Y029200D02*
X009900Y029600D01*
X010000Y029600D01*
X009500Y029700D02*
X009500Y029240D01*
X009500Y029200D02*
X009000Y029200D01*
X009000Y028600D02*
X009500Y028600D01*
X009500Y028560D02*
X009500Y028100D01*
X009500Y029700D02*
X009500Y029960D01*
X009500Y030000D01*
X009000Y030000D01*
X009000Y030600D02*
X009500Y030600D01*
X009500Y030640D02*
X009500Y031100D01*
X008300Y026700D02*
X008300Y026224D01*
X008294Y026216D01*
X008287Y026210D01*
X008278Y026206D01*
X008268Y026205D01*
X008259Y026206D01*
X008250Y026210D01*
X008211Y025465D02*
X008250Y025390D01*
X007620Y025390D01*
X007550Y025460D01*
X007265Y025465D01*
X007150Y025350D01*
X007000Y025350D01*
X007550Y026140D02*
X007550Y026600D01*
X008250Y025450D02*
X008700Y025450D01*
X008750Y025500D01*
X008300Y025376D02*
X008300Y024900D01*
X007900Y024700D02*
X007900Y024290D01*
X007900Y023610D02*
X007035Y023615D01*
X006600Y024050D01*
X006600Y024200D01*
X005400Y026550D02*
X005750Y026900D01*
X005340Y026550D02*
X005300Y026585D01*
X005300Y027000D01*
X004650Y026565D02*
X004660Y026550D01*
X004650Y026565D02*
X004650Y026600D01*
X004150Y026600D01*
X004650Y026600D02*
X004650Y027050D01*
X008250Y025390D02*
X008300Y025376D01*
X007500Y012700D02*
X007174Y012700D01*
X006824Y012350D01*
X004776Y010850D02*
X003815Y010850D01*
X003800Y010860D01*
X003800Y010800D02*
X003800Y010400D01*
X003800Y011500D02*
X003300Y011500D01*
X003800Y011540D02*
X003800Y012000D01*
X002400Y007000D02*
X001940Y007000D01*
D39*
X001809Y006186D02*
X003514Y006186D01*
X003600Y006200D01*
X003786Y006186D01*
X005391Y006186D01*
X005391Y004414D02*
X001809Y004414D01*
X003514Y006186D02*
X003786Y006186D01*
X005600Y018500D02*
X005500Y018600D01*
X005060Y018660D02*
X005060Y019150D01*
X005060Y018660D02*
X005000Y018600D01*
X005570Y019150D02*
X005570Y019600D01*
X006080Y019530D02*
X006080Y019150D01*
X006850Y019150D02*
X006850Y018600D01*
X009500Y021250D02*
X009500Y021300D01*
X010050Y022150D02*
X010530Y022150D01*
X010950Y022150D01*
X010530Y022650D02*
X010500Y022730D01*
X012470Y022650D02*
X012850Y022650D01*
X012500Y022730D02*
X012470Y022650D01*
X012500Y022730D02*
X012500Y022800D01*
X012470Y021650D02*
X012900Y021650D01*
X013035Y018800D02*
X012800Y018560D01*
X012000Y018560D01*
X012065Y018400D01*
X012060Y017800D01*
X013035Y018800D02*
X014000Y018800D01*
X014230Y019030D01*
X014540Y019030D01*
X014540Y018520D02*
X015020Y018520D01*
X015200Y018600D01*
X015400Y018900D01*
X016260Y018770D02*
X016670Y018770D01*
X016800Y018900D01*
X017935Y018900D01*
X017934Y018900D02*
X017948Y018899D01*
X017962Y018895D01*
X017974Y018888D01*
X017985Y018878D01*
X017993Y018867D01*
X017998Y018854D01*
X018000Y018840D01*
X018740Y017200D02*
X018735Y016500D01*
X018800Y016440D01*
X018000Y016440D01*
X017765Y016200D01*
X016800Y016200D01*
X016570Y015970D01*
X016260Y015970D01*
X016260Y016480D02*
X015780Y016480D01*
X015600Y016400D01*
X015400Y016100D01*
X014540Y016230D02*
X014130Y016230D01*
X014000Y016100D01*
X012835Y016100D01*
X012800Y016160D01*
X015900Y021020D02*
X015980Y021100D01*
X015980Y021600D02*
X015600Y021600D01*
X016260Y018520D02*
X016300Y018480D01*
X016300Y018100D01*
X018000Y021000D02*
X018000Y021120D01*
X017920Y021100D01*
X017920Y021600D02*
X017920Y022100D01*
X018300Y022100D01*
X017920Y022600D02*
X017920Y022780D01*
X017900Y022800D01*
X017360Y025200D02*
X017400Y025235D01*
X017400Y025650D01*
X016100Y025650D02*
X016100Y025235D01*
X016060Y025200D01*
X014800Y025235D02*
X014800Y025650D01*
X014800Y025235D02*
X014760Y025200D01*
X013740Y026100D02*
X013800Y026165D01*
X013800Y026550D01*
X013750Y026115D02*
X013740Y026100D01*
X012500Y026165D02*
X012440Y026100D01*
X012450Y026115D01*
X012500Y026165D02*
X012500Y026550D01*
X011200Y026550D02*
X011200Y026165D01*
X011140Y026100D01*
X011150Y026115D01*
X009900Y026165D02*
X009840Y026100D01*
X009850Y026115D01*
X009900Y026165D02*
X009900Y026550D01*
X009700Y029500D02*
X009674Y029502D01*
X009648Y029507D01*
X009623Y029515D01*
X009600Y029527D01*
X009578Y029541D01*
X009559Y029559D01*
X009541Y029578D01*
X009527Y029600D01*
X009515Y029623D01*
X009507Y029648D01*
X009502Y029674D01*
X009500Y029700D01*
X007130Y025070D02*
X006610Y025070D01*
X007130Y025070D02*
X007300Y024900D01*
X005340Y026550D02*
X005250Y026615D01*
X005250Y025800D01*
X005000Y025550D01*
X004750Y025550D01*
X013200Y029500D02*
X013234Y029502D01*
X013267Y029508D01*
X013299Y029517D01*
X013330Y029530D01*
X013360Y029546D01*
X013387Y029565D01*
X013412Y029588D01*
X013435Y029613D01*
X013454Y029640D01*
X013470Y029670D01*
X013483Y029701D01*
X013492Y029733D01*
X013498Y029766D01*
X013500Y029800D01*
X013500Y028560D02*
X013500Y028500D01*
X015000Y029700D02*
X015002Y029674D01*
X015007Y029648D01*
X015015Y029623D01*
X015027Y029600D01*
X015041Y029578D01*
X015059Y029559D01*
X015078Y029541D01*
X015100Y029527D01*
X015123Y029515D01*
X015148Y029507D01*
X015174Y029502D01*
X015200Y029500D01*
X015898Y029344D02*
X017000Y029344D01*
X018102Y029344D01*
X018102Y029856D02*
X017000Y029856D01*
X017000Y029800D01*
X017000Y029856D02*
X015898Y029856D01*
X018800Y029500D02*
X018826Y029502D01*
X018852Y029507D01*
X018877Y029515D01*
X018900Y029527D01*
X018922Y029541D01*
X018941Y029559D01*
X018959Y029578D01*
X018973Y029600D01*
X018985Y029623D01*
X018993Y029648D01*
X018998Y029674D01*
X019000Y029700D01*
X019000Y029800D01*
X018700Y025650D02*
X018700Y025235D01*
X018660Y025200D01*
D40*
X017450Y032200D03*
X016500Y032200D03*
X014300Y031700D03*
D41*
X019600Y019700D02*
X019600Y012600D01*
X019600Y010650D01*
X020250Y010000D01*
D42*
X017650Y009399D02*
X017600Y009350D01*
X017650Y009399D02*
X017650Y010900D01*
M02*
