%
M48
M72
T01C0.0130
T02C0.0354
T03C0.0394
T04C0.0400
T05C0.0670
%
T01
X4696Y3450
X4696Y4050
X4696Y4650
X4696Y5250
X4696Y5850
X4696Y6450
X6846Y6550
X7796Y5200
X7646Y3650
X9146Y3650
X9646Y5550
X10096Y5500
X15746Y10000
X18846Y10200
X18846Y10550
X18996Y9850
X19396Y9850
X19996Y10750
X20746Y10750
X21146Y9750
X21946Y9700
X21946Y10300
X21946Y10850
X21946Y11350
X21946Y11900
X22046Y12800
X21546Y12800
X21046Y12800
X20796Y12450
X20796Y12100
X20796Y11750
X20546Y12800
X20046Y12800
X19396Y12550
X19046Y12550
X18846Y12250
X18846Y11900
X19746Y18050
X19846Y19500
X19446Y20900
X19446Y21600
X20146Y21150
X20146Y22750
X19846Y23400
X19846Y24050
X19746Y24950
X18946Y23800
X18396Y22300
X17946Y21850
X17596Y21850
X16996Y22300
X15996Y21700
X15996Y21350
X14646Y22750
X14496Y20950
X12346Y20000
X12296Y18950
X12296Y18550
X12296Y18150
X12296Y17750
X11696Y15600
X11696Y15200
X11396Y15400
X11096Y15600
X11096Y15200
X10596Y14500
X9496Y14500
X8696Y15200
X8396Y15400
X8096Y15600
X8096Y15200
X8696Y15600
X7596Y14500
X9296Y17700
X9296Y18100
X9296Y18500
X9296Y18900
X9596Y19650
X8096Y19750
X8296Y21450
X9196Y22050
X9296Y22900
X8096Y23650
X7346Y23250
X6646Y24300
X7696Y24800
X8396Y24800
X9096Y24800
X9796Y24800
X10796Y25250
X10396Y23300
X11446Y22400
X11646Y21250
X12196Y24800
X12896Y24800
X13596Y24800
X14296Y24800
X14946Y24800
X14846Y26150
X14146Y26900
X14353Y27374
X14496Y28100
X13796Y28350
X13796Y29550
X13846Y30700
X14496Y31000
X14928Y31150
X15196Y31700
X15196Y30300
X14928Y28782
X16146Y25750
X16646Y24750
X16646Y24300
X17846Y24400
X17846Y24950
X21346Y21100
X22046Y21150
X21946Y24450
X22596Y24450
X22446Y26200
X21846Y26200
X22296Y27700
X22446Y28250
X21846Y28250
X22446Y29750
X22446Y30300
X21846Y30300
X22446Y31800
X22446Y32400
X21846Y32350
X22896Y33150
X19446Y32900
X19446Y32450
X18896Y32000
X18396Y32000
X18046Y32000
X17296Y32450
X17296Y32900
X18046Y33250
X18396Y33500
X18696Y33250
X16046Y33050
X14396Y33050
X12646Y30700
X11996Y31000
X12396Y31700
X11296Y30300
X10428Y30318
X10396Y30950
X10846Y31850
X9346Y30750
X9296Y29600
X9296Y28450
X9771Y27474
X9996Y28150
X11546Y28800
X11996Y28100
X12139Y27374
X12346Y26900
X12696Y28350
X12696Y29550
X8196Y29600
X8196Y28450
X7496Y28150
X7696Y27450
X7096Y30350
X7096Y30950
X6646Y31850
X8146Y30750
X7146Y22050
X12496Y14500
X21246Y1100
X24446Y12500
X25296Y12500
X24446Y19500
T02
X21646Y16950
X17946Y16950
X17946Y14550
T03
X18196Y7250
X18196Y6250
X18196Y5250
X18196Y4250
X18196Y3250
X19196Y3250
X19196Y4250
X19196Y5250
X19196Y6250
X19196Y7250
X23946Y8000
X23946Y9000
X23946Y10000
X23946Y11000
X23946Y12000
X23946Y13000
X23946Y14000
X23946Y15000
X23946Y16000
X23946Y17000
X23946Y18000
X23946Y19000
X23946Y20000
X23946Y21000
X23946Y22000
X23946Y23000
X23946Y24000
X23946Y25000
X23946Y26000
X23946Y27000
X23946Y28000
X23946Y29000
X23946Y30000
X24946Y30000
X24946Y29000
X24946Y28000
X24946Y27000
X24946Y26000
X24946Y25000
X24946Y24000
X24946Y23000
X24946Y22000
X24946Y21000
X24946Y20000
X24946Y19000
X24946Y18000
X24946Y17000
X24946Y16000
X24946Y15000
X24946Y14000
X24946Y13000
X24946Y12000
X24946Y11000
X24946Y10000
X24946Y9000
X24946Y8000
X5946Y8000
X4946Y8000
X4946Y9000
X4946Y10000
X4946Y11000
X4946Y12000
X4946Y13000
X4946Y14000
X4946Y15000
X4946Y16000
X4946Y17000
X4946Y18000
X4946Y19000
X4946Y20000
X4946Y21000
X4946Y22000
X4946Y23000
X4946Y24000
X4946Y25000
X4946Y26000
X4946Y27000
X4946Y28000
X4946Y29000
X4946Y30000
X5946Y30000
X5946Y29000
X5946Y28000
X5946Y27000
X5946Y26000
X5946Y25000
X5946Y24000
X5946Y23000
X5946Y22000
X5946Y21000
X5946Y20000
X5946Y19000
X5946Y18000
X5946Y17000
X5946Y16000
X5946Y15000
X5946Y14000
X5946Y13000
X5946Y12000
X5946Y11000
X5946Y10000
X5946Y9000
T04
X17896Y28050
X17896Y29050
X17896Y30050
X18896Y30050
X18896Y29050
X18896Y28050
X13396Y32700
X13396Y33700
X12396Y33700
X12396Y32700
X11396Y32700
X10396Y32700
X10396Y33700
X11396Y33700
X9396Y33700
X9396Y32700
X8396Y32700
X8396Y33700
X7396Y33700
X7396Y32700
T05
X4896Y32650
X4896Y31500
X4896Y33800
X18146Y1200
X19296Y1200
M30
