G75*
G70*
%OFA0B0*%
%FSLAX24Y24*%
%IPPOS*%
%LPD*%
%AMOC8*
5,1,8,0,0,1.08239X$1,22.5*
%
%ADD10C,0.0020*%
%ADD11R,0.6000X0.1000*%
%ADD12C,0.0080*%
%ADD13C,0.0060*%
D10*
X012973Y008960D02*
X013017Y008960D01*
X013017Y009003D01*
X012973Y009003D01*
X012973Y008960D01*
X013101Y008960D02*
X013101Y009220D01*
X013017Y009133D02*
X013017Y009090D01*
X012973Y009090D01*
X012973Y009133D01*
X013017Y009133D01*
X013101Y008960D02*
X013274Y009220D01*
X013274Y008960D01*
X013532Y008960D02*
X013359Y009220D01*
X013617Y009177D02*
X013660Y009220D01*
X013747Y009220D01*
X013790Y009177D01*
X013790Y009133D01*
X013747Y009090D01*
X013660Y009090D01*
X013617Y009047D01*
X013617Y009003D01*
X013660Y008960D01*
X013747Y008960D01*
X013790Y009003D01*
D11*
X009800Y009150D03*
D12*
X007970Y011940D02*
X007220Y012080D01*
X007220Y012730D01*
X007980Y012880D01*
X008250Y013500D02*
X007810Y014140D01*
X008270Y014610D01*
X008930Y014160D01*
X009540Y014410D02*
X009690Y015190D01*
X010340Y015190D01*
X010490Y014410D01*
X011090Y014160D02*
X011750Y014600D01*
X012210Y014140D01*
X011770Y013500D01*
X012040Y012880D02*
X012800Y012730D01*
X012800Y012080D01*
X012050Y011940D01*
X011790Y011290D02*
X012210Y010670D01*
X011750Y010210D01*
X011150Y010620D01*
X010890Y010470D01*
X010420Y011610D01*
X011790Y011290D02*
X011840Y011377D01*
X011886Y011466D01*
X011928Y011558D01*
X011965Y011651D01*
X011998Y011746D01*
X012026Y011842D01*
X012050Y011940D01*
X011090Y014160D02*
X011009Y014206D01*
X010927Y014248D01*
X010842Y014286D01*
X010756Y014320D01*
X010669Y014351D01*
X010580Y014377D01*
X010490Y014400D01*
X010420Y011610D02*
X010472Y011638D01*
X010522Y011670D01*
X010569Y011705D01*
X010614Y011742D01*
X010657Y011783D01*
X010696Y011826D01*
X010733Y011872D01*
X010767Y011921D01*
X010797Y011971D01*
X010824Y012023D01*
X010847Y012078D01*
X010867Y012133D01*
X010883Y012190D01*
X010895Y012247D01*
X010903Y012305D01*
X010907Y012364D01*
X010908Y012423D01*
X010904Y012482D01*
X010897Y012540D01*
X010886Y012598D01*
X010871Y012655D01*
X010852Y012710D01*
X010829Y012765D01*
X010803Y012817D01*
X010774Y012868D01*
X010741Y012917D01*
X010705Y012964D01*
X010666Y013008D01*
X010624Y013049D01*
X010579Y013087D01*
X010532Y013123D01*
X010483Y013155D01*
X010432Y013184D01*
X010379Y013209D01*
X010324Y013231D01*
X010268Y013249D01*
X010211Y013263D01*
X010153Y013274D01*
X010095Y013280D01*
X010036Y013283D01*
X009977Y013282D01*
X009918Y013277D01*
X009860Y013268D01*
X009803Y013255D01*
X009747Y013238D01*
X009691Y013218D01*
X009638Y013194D01*
X009586Y013166D01*
X009536Y013135D01*
X009488Y013101D01*
X009442Y013063D01*
X009399Y013023D01*
X009359Y012980D01*
X009322Y012935D01*
X009288Y012887D01*
X009257Y012836D01*
X009230Y012784D01*
X009206Y012731D01*
X009186Y012675D01*
X009170Y012619D01*
X009157Y012561D01*
X009148Y012503D01*
X009143Y012445D01*
X009142Y012386D01*
X009145Y012327D01*
X009152Y012269D01*
X009163Y012211D01*
X009177Y012154D01*
X009195Y012098D01*
X009217Y012043D01*
X009243Y011990D01*
X009272Y011939D01*
X009304Y011890D01*
X009340Y011843D01*
X009378Y011799D01*
X009420Y011757D01*
X009464Y011718D01*
X009511Y011682D01*
X009559Y011650D01*
X009610Y011620D01*
X009610Y011610D02*
X009130Y010470D01*
X008870Y010620D01*
X008270Y010210D01*
X007810Y010660D01*
X008230Y011280D01*
X007980Y012880D02*
X008006Y012973D01*
X008036Y013065D01*
X008071Y013156D01*
X008109Y013245D01*
X008152Y013332D01*
X008199Y013417D01*
X008250Y013500D01*
X007970Y011939D02*
X007990Y011853D01*
X008013Y011767D01*
X008040Y011682D01*
X008071Y011598D01*
X008106Y011516D01*
X008144Y011435D01*
X008185Y011356D01*
X008230Y011279D01*
X012040Y012880D02*
X012014Y012974D01*
X011984Y013066D01*
X011949Y013156D01*
X011910Y013245D01*
X011868Y013332D01*
X011821Y013417D01*
X011770Y013500D01*
X009540Y014410D02*
X009449Y014387D01*
X009358Y014359D01*
X009269Y014327D01*
X009182Y014291D01*
X009096Y014251D01*
X009012Y014208D01*
X008930Y014160D01*
D13*
X008921Y014131D02*
X011079Y014131D01*
X011080Y014130D02*
X010470Y014390D01*
X010320Y015160D01*
X009700Y015150D01*
X009560Y014380D01*
X008920Y014130D01*
X008260Y014580D01*
X007840Y014130D01*
X008270Y013500D01*
X007980Y012840D01*
X007220Y012700D01*
X007240Y012100D01*
X008030Y011960D01*
X008240Y011220D01*
X007850Y010670D01*
X008270Y010250D01*
X008880Y010660D01*
X009110Y010520D01*
X009570Y011620D01*
X009180Y011990D01*
X009110Y012560D01*
X009380Y013100D01*
X009990Y013330D01*
X010570Y013170D01*
X010900Y012740D01*
X010940Y012240D01*
X010720Y011760D01*
X010460Y011580D01*
X010900Y010510D01*
X011150Y010680D01*
X011760Y010250D01*
X012180Y010670D01*
X011750Y011290D01*
X012050Y011980D01*
X012810Y012110D01*
X012780Y012730D01*
X012020Y012850D01*
X011750Y013520D01*
X012160Y014150D01*
X011750Y014560D01*
X011080Y014130D01*
X011081Y014131D02*
X012147Y014131D01*
X012121Y014189D02*
X011172Y014189D01*
X011263Y014248D02*
X012062Y014248D01*
X012004Y014306D02*
X011354Y014306D01*
X011445Y014365D02*
X011945Y014365D01*
X011887Y014423D02*
X011537Y014423D01*
X011628Y014482D02*
X011828Y014482D01*
X011770Y014540D02*
X011719Y014540D01*
X012109Y014072D02*
X007880Y014072D01*
X007919Y014014D02*
X012071Y014014D01*
X012033Y013955D02*
X007959Y013955D01*
X007999Y013897D02*
X011995Y013897D01*
X011957Y013838D02*
X008039Y013838D01*
X008079Y013780D02*
X011919Y013780D01*
X011881Y013721D02*
X008119Y013721D01*
X008159Y013663D02*
X011843Y013663D01*
X011805Y013604D02*
X008199Y013604D01*
X008239Y013546D02*
X011767Y013546D01*
X011763Y013487D02*
X008264Y013487D01*
X008239Y013429D02*
X011787Y013429D01*
X011810Y013370D02*
X008213Y013370D01*
X008187Y013312D02*
X009941Y013312D01*
X010057Y013312D02*
X011834Y013312D01*
X011858Y013253D02*
X010269Y013253D01*
X010481Y013195D02*
X011881Y013195D01*
X011905Y013136D02*
X010596Y013136D01*
X010641Y013078D02*
X011928Y013078D01*
X011952Y013019D02*
X010686Y013019D01*
X010731Y012961D02*
X011975Y012961D01*
X011999Y012902D02*
X010776Y012902D01*
X010821Y012844D02*
X012061Y012844D01*
X012431Y012785D02*
X010865Y012785D01*
X010901Y012727D02*
X012780Y012727D01*
X012783Y012668D02*
X010906Y012668D01*
X010910Y012610D02*
X012786Y012610D01*
X012789Y012551D02*
X010915Y012551D01*
X010920Y012493D02*
X012791Y012493D01*
X012794Y012434D02*
X010924Y012434D01*
X010929Y012376D02*
X012797Y012376D01*
X012800Y012317D02*
X010934Y012317D01*
X010939Y012259D02*
X012803Y012259D01*
X012806Y012200D02*
X010922Y012200D01*
X010895Y012142D02*
X012808Y012142D01*
X012652Y012083D02*
X010868Y012083D01*
X010841Y012025D02*
X012310Y012025D01*
X012044Y011966D02*
X010814Y011966D01*
X010788Y011908D02*
X012018Y011908D01*
X011993Y011849D02*
X010761Y011849D01*
X010734Y011791D02*
X011968Y011791D01*
X011942Y011732D02*
X010680Y011732D01*
X010595Y011674D02*
X011917Y011674D01*
X011891Y011615D02*
X010511Y011615D01*
X010470Y011557D02*
X011866Y011557D01*
X011840Y011498D02*
X010494Y011498D01*
X010518Y011440D02*
X011815Y011440D01*
X011790Y011381D02*
X010542Y011381D01*
X010566Y011323D02*
X011764Y011323D01*
X011768Y011264D02*
X010590Y011264D01*
X010614Y011206D02*
X011809Y011206D01*
X011849Y011147D02*
X010638Y011147D01*
X010662Y011089D02*
X011890Y011089D01*
X011930Y011030D02*
X010686Y011030D01*
X010710Y010972D02*
X011971Y010972D01*
X012011Y010913D02*
X010734Y010913D01*
X010758Y010855D02*
X012052Y010855D01*
X012093Y010796D02*
X010782Y010796D01*
X010806Y010738D02*
X012133Y010738D01*
X012174Y010679D02*
X011151Y010679D01*
X011149Y010679D02*
X010830Y010679D01*
X010855Y010621D02*
X011063Y010621D01*
X010977Y010562D02*
X010879Y010562D01*
X011234Y010621D02*
X012131Y010621D01*
X012072Y010562D02*
X011317Y010562D01*
X011400Y010504D02*
X012014Y010504D01*
X011955Y010445D02*
X011483Y010445D01*
X011566Y010387D02*
X011897Y010387D01*
X011838Y010328D02*
X011649Y010328D01*
X011732Y010270D02*
X011780Y010270D01*
X009786Y013253D02*
X008161Y013253D01*
X008136Y013195D02*
X009631Y013195D01*
X009476Y013136D02*
X008110Y013136D01*
X008084Y013078D02*
X009369Y013078D01*
X009340Y013019D02*
X008059Y013019D01*
X008033Y012961D02*
X009310Y012961D01*
X009281Y012902D02*
X008007Y012902D01*
X007982Y012844D02*
X009252Y012844D01*
X009223Y012785D02*
X007682Y012785D01*
X007364Y012727D02*
X009193Y012727D01*
X009164Y012668D02*
X007221Y012668D01*
X007223Y012610D02*
X009135Y012610D01*
X009111Y012551D02*
X007225Y012551D01*
X007227Y012493D02*
X009118Y012493D01*
X009125Y012434D02*
X007229Y012434D01*
X007231Y012376D02*
X009133Y012376D01*
X009140Y012317D02*
X007233Y012317D01*
X007235Y012259D02*
X009147Y012259D01*
X009154Y012200D02*
X007237Y012200D01*
X007239Y012142D02*
X009161Y012142D01*
X009169Y012083D02*
X007336Y012083D01*
X007666Y012025D02*
X009176Y012025D01*
X009205Y011966D02*
X007996Y011966D01*
X008045Y011908D02*
X009267Y011908D01*
X009329Y011849D02*
X008061Y011849D01*
X008078Y011791D02*
X009390Y011791D01*
X009452Y011732D02*
X008095Y011732D01*
X008111Y011674D02*
X009514Y011674D01*
X009568Y011615D02*
X008128Y011615D01*
X008144Y011557D02*
X009543Y011557D01*
X009519Y011498D02*
X008161Y011498D01*
X008178Y011440D02*
X009495Y011440D01*
X009470Y011381D02*
X008194Y011381D01*
X008211Y011323D02*
X009446Y011323D01*
X009421Y011264D02*
X008228Y011264D01*
X008230Y011206D02*
X009397Y011206D01*
X009372Y011147D02*
X008188Y011147D01*
X008147Y011089D02*
X009348Y011089D01*
X009323Y011030D02*
X008105Y011030D01*
X008064Y010972D02*
X009299Y010972D01*
X009274Y010913D02*
X008022Y010913D01*
X007981Y010855D02*
X009250Y010855D01*
X009225Y010796D02*
X007939Y010796D01*
X007898Y010738D02*
X009201Y010738D01*
X009177Y010679D02*
X007856Y010679D01*
X007899Y010621D02*
X008821Y010621D01*
X008734Y010562D02*
X007958Y010562D01*
X008016Y010504D02*
X008647Y010504D01*
X008560Y010445D02*
X008075Y010445D01*
X008133Y010387D02*
X008473Y010387D01*
X008386Y010328D02*
X008192Y010328D01*
X008250Y010270D02*
X008299Y010270D01*
X008945Y010621D02*
X009152Y010621D01*
X009128Y010562D02*
X009041Y010562D01*
X008919Y014131D02*
X007841Y014131D01*
X007895Y014189D02*
X008833Y014189D01*
X008748Y014248D02*
X007950Y014248D01*
X008004Y014306D02*
X008662Y014306D01*
X008576Y014365D02*
X008059Y014365D01*
X008114Y014423D02*
X008490Y014423D01*
X008404Y014482D02*
X008168Y014482D01*
X008223Y014540D02*
X008319Y014540D01*
X009071Y014189D02*
X010941Y014189D01*
X010804Y014248D02*
X009221Y014248D01*
X009371Y014306D02*
X010667Y014306D01*
X010530Y014365D02*
X009520Y014365D01*
X009568Y014423D02*
X010464Y014423D01*
X010452Y014482D02*
X009578Y014482D01*
X009589Y014540D02*
X010441Y014540D01*
X010429Y014599D02*
X009600Y014599D01*
X009610Y014657D02*
X010418Y014657D01*
X010407Y014716D02*
X009621Y014716D01*
X009632Y014774D02*
X010395Y014774D01*
X010384Y014833D02*
X009642Y014833D01*
X009653Y014891D02*
X010372Y014891D01*
X010361Y014950D02*
X009664Y014950D01*
X009674Y015008D02*
X010350Y015008D01*
X010338Y015067D02*
X009685Y015067D01*
X009695Y015125D02*
X010327Y015125D01*
M02*
