G75*
%MOIN*%
%OFA0B0*%
%FSLAX24Y24*%
%IPPOS*%
%LPD*%
%AMOC8*
5,1,8,0,0,1.08239X$1,22.5*
%
%ADD10R,0.0671X0.0671*%
%ADD11C,0.0671*%
%ADD12R,0.0500X0.0430*%
%ADD13C,0.0580*%
%ADD14R,0.0316X0.0946*%
%ADD15R,0.0430X0.0500*%
%ADD16R,0.0660X0.0220*%
%ADD17OC8,0.1085*%
%ADD18R,0.0560X0.0820*%
%ADD19R,0.0460X0.0680*%
%ADD20R,0.0220X0.0660*%
%ADD21R,0.0250X0.0640*%
%ADD22OC8,0.0740*%
%ADD23R,0.0710X0.0592*%
%ADD24R,0.0710X0.0867*%
%ADD25R,0.0552X0.0552*%
%ADD26R,0.0820X0.0560*%
%ADD27R,0.0710X0.0218*%
%ADD28R,0.0870X0.0510*%
%ADD29R,0.0631X0.0631*%
%ADD30R,0.0820X0.0700*%
%ADD31C,0.0330*%
%ADD32R,0.0277X0.0336*%
%ADD33R,0.0356X0.0336*%
%ADD34R,0.0277X0.0356*%
%ADD35R,0.0332X0.0356*%
%ADD36R,0.0230X0.0380*%
%ADD37R,0.0230X0.0480*%
%ADD38R,0.0710X0.1655*%
D10*
X005946Y008000D03*
X019196Y003250D03*
X024946Y008000D03*
D11*
X024946Y009000D03*
X024946Y010000D03*
X024946Y011000D03*
X024946Y012000D03*
X024946Y013000D03*
X024946Y014000D03*
X024946Y015000D03*
X024946Y016000D03*
X024946Y017000D03*
X024946Y018000D03*
X024946Y019000D03*
X024946Y020000D03*
X024946Y021000D03*
X024946Y022000D03*
X024946Y023000D03*
X024946Y024000D03*
X024946Y025000D03*
X024946Y026000D03*
X024946Y027000D03*
X024946Y028000D03*
X024946Y029000D03*
X024946Y030000D03*
X023946Y030000D03*
X023946Y029000D03*
X023946Y028000D03*
X023946Y027000D03*
X023946Y026000D03*
X023946Y025000D03*
X023946Y024000D03*
X023946Y023000D03*
X023946Y022000D03*
X023946Y021000D03*
X023946Y020000D03*
X023946Y019000D03*
X023946Y018000D03*
X023946Y017000D03*
X023946Y016000D03*
X023946Y015000D03*
X023946Y014000D03*
X023946Y013000D03*
X023946Y012000D03*
X023946Y011000D03*
X023946Y010000D03*
X023946Y009000D03*
X023946Y008000D03*
X019196Y007250D03*
X019196Y006250D03*
X018196Y006250D03*
X018196Y007250D03*
X018196Y005250D03*
X018196Y004250D03*
X018196Y003250D03*
X019196Y004250D03*
X019196Y005250D03*
X005946Y009000D03*
X005946Y010000D03*
X004946Y010000D03*
X004946Y009000D03*
X004946Y008000D03*
X004946Y011000D03*
X004946Y012000D03*
X004946Y013000D03*
X004946Y014000D03*
X004946Y015000D03*
X004946Y016000D03*
X004946Y017000D03*
X004946Y018000D03*
X004946Y019000D03*
X004946Y020000D03*
X004946Y021000D03*
X004946Y022000D03*
X004946Y023000D03*
X004946Y024000D03*
X004946Y025000D03*
X004946Y026000D03*
X004946Y027000D03*
X004946Y028000D03*
X004946Y029000D03*
X004946Y030000D03*
X005946Y030000D03*
X005946Y029000D03*
X005946Y028000D03*
X005946Y027000D03*
X005946Y026000D03*
X005946Y025000D03*
X005946Y024000D03*
X005946Y023000D03*
X005946Y022000D03*
X005946Y021000D03*
X005946Y020000D03*
X005946Y019000D03*
X005946Y018000D03*
X005946Y017000D03*
X005946Y016000D03*
X005946Y015000D03*
X005946Y014000D03*
X005946Y013000D03*
X005946Y012000D03*
X005946Y011000D03*
D12*
X009396Y016510D03*
X009396Y017190D03*
X010296Y018060D03*
X010296Y018740D03*
X009196Y020960D03*
X009196Y021640D03*
X007296Y018740D03*
X007296Y018060D03*
X007146Y020960D03*
X007146Y021640D03*
X007696Y025210D03*
X007696Y025890D03*
X008396Y025890D03*
X008396Y025210D03*
X009096Y025210D03*
X009096Y025890D03*
X009796Y025890D03*
X009796Y025210D03*
X012196Y025210D03*
X012196Y025890D03*
X012896Y025890D03*
X012896Y025210D03*
X013596Y025210D03*
X013596Y025890D03*
X014296Y025890D03*
X014296Y025210D03*
X010846Y030760D03*
X010846Y031440D03*
X006646Y031440D03*
X006646Y030760D03*
X012396Y017190D03*
X012396Y016510D03*
X017746Y011590D03*
X017746Y010910D03*
X025096Y005140D03*
X025096Y004460D03*
X019396Y023410D03*
X019396Y024090D03*
D13*
X015446Y027100D03*
X014596Y026850D03*
X011896Y026850D03*
X011046Y027100D03*
X010146Y026450D03*
X009846Y027000D03*
X010796Y025900D03*
X010996Y022800D03*
X007646Y027000D03*
X007346Y026450D03*
X014896Y034000D03*
X009946Y006150D03*
X009696Y003450D03*
D14*
X008746Y004476D03*
X008246Y004476D03*
X007746Y004476D03*
X007246Y004476D03*
X007246Y006524D03*
X007746Y006524D03*
X008246Y006524D03*
X008746Y006524D03*
D15*
X005106Y003450D03*
X005106Y004050D03*
X005106Y004650D03*
X005106Y005250D03*
X005106Y005850D03*
X005106Y006450D03*
X005786Y006450D03*
X005786Y005850D03*
X005786Y005250D03*
X005786Y004650D03*
X005786Y004050D03*
X005786Y003450D03*
X008056Y003650D03*
X008736Y003650D03*
X013156Y011850D03*
X013836Y011850D03*
X013836Y013000D03*
X013156Y013000D03*
X011336Y012800D03*
X011336Y012200D03*
X010656Y012200D03*
X010656Y012800D03*
X008336Y012800D03*
X008336Y012200D03*
X007656Y012200D03*
X007656Y012800D03*
X008056Y018000D03*
X008736Y018000D03*
X008736Y018800D03*
X008056Y018800D03*
X007636Y019750D03*
X006956Y019750D03*
X008506Y019750D03*
X009186Y019750D03*
X011056Y018800D03*
X011056Y018000D03*
X011736Y018000D03*
X011736Y018800D03*
X012756Y020000D03*
X013436Y020000D03*
X014656Y022300D03*
X015336Y022300D03*
X012936Y022550D03*
X012256Y022550D03*
X010386Y022850D03*
X009706Y022850D03*
X008886Y022850D03*
X008206Y022850D03*
X007686Y022850D03*
X007006Y022850D03*
X007006Y023650D03*
X007686Y023650D03*
X014956Y033050D03*
X015636Y033050D03*
X019256Y025400D03*
X019936Y025400D03*
X019736Y018500D03*
X019056Y018500D03*
X021606Y009200D03*
X022286Y009200D03*
D16*
X018356Y023650D03*
X018356Y023910D03*
X018356Y024170D03*
X018356Y024420D03*
X018356Y024680D03*
X018356Y024930D03*
X018356Y025190D03*
X018356Y025450D03*
X016136Y025450D03*
X016136Y025190D03*
X016136Y024930D03*
X016136Y024680D03*
X016136Y024420D03*
X016136Y024170D03*
X016136Y023910D03*
X016136Y023650D03*
D17*
X004896Y031500D03*
X004896Y032650D03*
X004896Y033800D03*
X018146Y001200D03*
X019296Y001200D03*
D18*
X021046Y008400D03*
X022346Y008400D03*
X012046Y013600D03*
X010746Y013600D03*
X009046Y013600D03*
X007746Y013600D03*
X007446Y017200D03*
X008746Y017200D03*
X010446Y017200D03*
X011746Y017200D03*
D19*
X014536Y021500D03*
X015356Y021500D03*
X015286Y026250D03*
X016106Y026250D03*
X021036Y012850D03*
X021856Y012850D03*
D20*
X018656Y020500D03*
X018396Y020500D03*
X018146Y020500D03*
X017886Y020500D03*
X017626Y020500D03*
X017376Y020500D03*
X017116Y020500D03*
X016866Y020500D03*
X016606Y020500D03*
X016346Y020500D03*
X016096Y020500D03*
X015836Y020500D03*
X015836Y022800D03*
X016096Y022800D03*
X016346Y022800D03*
X016606Y022800D03*
X016866Y022800D03*
X017116Y022800D03*
X017376Y022800D03*
X017626Y022800D03*
X017886Y022800D03*
X018146Y022800D03*
X018396Y022800D03*
X018656Y022800D03*
D21*
X011776Y016260D03*
X011526Y016260D03*
X011266Y016260D03*
X011016Y016260D03*
X011016Y014540D03*
X011266Y014540D03*
X011526Y014540D03*
X011776Y014540D03*
X008776Y014540D03*
X008526Y014540D03*
X008266Y014540D03*
X008016Y014540D03*
X008016Y016260D03*
X008266Y016260D03*
X008526Y016260D03*
X008776Y016260D03*
X008526Y020440D03*
X008276Y020440D03*
X008016Y020440D03*
X007766Y020440D03*
X007766Y022160D03*
X008016Y022160D03*
X008276Y022160D03*
X008526Y022160D03*
X009866Y022160D03*
X010116Y022160D03*
X010376Y022160D03*
X010626Y022160D03*
X010626Y020440D03*
X010376Y020440D03*
X010116Y020440D03*
X009866Y020440D03*
D22*
X017896Y028050D03*
X017896Y029050D03*
X017896Y030050D03*
X018896Y030050D03*
X018896Y029050D03*
X018896Y028050D03*
X013396Y032700D03*
X013396Y033700D03*
X012396Y033700D03*
X012396Y032700D03*
X011396Y032700D03*
X010396Y032700D03*
X010396Y033700D03*
X011396Y033700D03*
X009396Y033700D03*
X009396Y032700D03*
X008396Y032700D03*
X008396Y033700D03*
X007396Y033700D03*
X007396Y032700D03*
D23*
X013617Y021800D03*
X013617Y020800D03*
D24*
X012475Y021300D03*
D25*
X021733Y001100D03*
X022560Y001100D03*
D26*
X016896Y010250D03*
X016896Y011550D03*
X011446Y020600D03*
X011446Y021900D03*
D27*
X012144Y028782D03*
X012144Y029038D03*
X012144Y029294D03*
X012144Y029550D03*
X012144Y029806D03*
X012144Y030062D03*
X012144Y030318D03*
X014349Y030318D03*
X014349Y030062D03*
X014349Y029806D03*
X014349Y029550D03*
X014349Y029294D03*
X014349Y029038D03*
X014349Y028782D03*
X009849Y028832D03*
X009849Y029088D03*
X009849Y029344D03*
X009849Y029600D03*
X009849Y029856D03*
X009849Y030112D03*
X009849Y030368D03*
X007644Y030368D03*
X007644Y030112D03*
X007644Y029856D03*
X007644Y029600D03*
X007644Y029344D03*
X007644Y029088D03*
X007644Y028832D03*
D28*
X012176Y010500D03*
X012176Y009500D03*
X015716Y009500D03*
X015716Y010500D03*
D29*
X009346Y006600D03*
D30*
X008396Y015400D03*
X011396Y015400D03*
D31*
X018596Y011950D03*
X018596Y011450D03*
X018596Y010950D03*
X018596Y010450D03*
X018596Y009950D03*
X019096Y009950D03*
X019096Y010450D03*
X019096Y010950D03*
X019096Y011450D03*
X019096Y011950D03*
X019596Y011950D03*
X019596Y011450D03*
X019596Y010950D03*
X019596Y010450D03*
X019596Y009950D03*
X020096Y009950D03*
X020096Y010450D03*
X020096Y010950D03*
X020096Y011450D03*
X020096Y011950D03*
X020596Y011950D03*
X020596Y011450D03*
X020596Y010950D03*
X020596Y010450D03*
X020596Y009950D03*
X021096Y009950D03*
X021096Y010450D03*
X021096Y010950D03*
X021096Y011450D03*
X021096Y011950D03*
X021596Y011950D03*
X021596Y011450D03*
X021596Y010950D03*
X021596Y010450D03*
X021596Y009950D03*
X022096Y009950D03*
X022096Y010450D03*
X022096Y010950D03*
X022096Y011450D03*
X022096Y011950D03*
D32*
X013404Y026404D03*
X013089Y026404D03*
X013089Y026896D03*
X013404Y026896D03*
X008904Y026896D03*
X008589Y026896D03*
X008589Y026404D03*
X008904Y026404D03*
D33*
X009258Y026404D03*
X009258Y026896D03*
X008234Y026896D03*
X008234Y026404D03*
X012734Y026404D03*
X012734Y026896D03*
X013758Y026896D03*
X013758Y026404D03*
D34*
X013404Y027374D03*
X013089Y027374D03*
X013089Y027926D03*
X013404Y027926D03*
X013404Y031124D03*
X013089Y031124D03*
X013089Y031676D03*
X013404Y031676D03*
X008904Y031726D03*
X008589Y031726D03*
X008589Y031174D03*
X008904Y031174D03*
X008904Y027976D03*
X008589Y027976D03*
X008589Y027424D03*
X008904Y027424D03*
D35*
X009246Y027424D03*
X009246Y027976D03*
X008246Y027976D03*
X008246Y027424D03*
X008246Y031174D03*
X008246Y031726D03*
X009246Y031726D03*
X009246Y031174D03*
X012746Y031124D03*
X012746Y031676D03*
X013746Y031676D03*
X013746Y031124D03*
X013746Y027926D03*
X013746Y027374D03*
X012746Y027374D03*
X012746Y027926D03*
D36*
X017621Y032900D03*
X017871Y032900D03*
X018121Y032900D03*
X018371Y032900D03*
X018621Y032900D03*
X018871Y032900D03*
D37*
X018871Y032450D03*
X018621Y032450D03*
X018371Y032450D03*
X018121Y032450D03*
X017871Y032450D03*
X017621Y032450D03*
D38*
X017246Y016951D03*
X017246Y014549D03*
X020946Y014549D03*
X020946Y016951D03*
M02*
