G75*
G70*
%OFA0B0*%
%FSLAX24Y24*%
%IPPOS*%
%LPD*%
%AMOC8*
5,1,8,0,0,1.08239X$1,22.5*
%
%ADD10R,0.0671X0.0671*%
%ADD11C,0.0671*%
%ADD12R,0.0513X0.0474*%
%ADD13R,0.0474X0.0513*%
%ADD14C,0.0580*%
%ADD15R,0.0710X0.0540*%
%ADD16R,0.0720X0.0060*%
%ADD17R,0.0946X0.0316*%
%ADD18R,0.0220X0.0660*%
%ADD19OC8,0.1085*%
%ADD20R,0.0600X0.0300*%
%ADD21C,0.0620*%
%ADD22R,0.0870X0.0510*%
%ADD23R,0.0592X0.0671*%
%ADD24R,0.0660X0.0220*%
%ADD25R,0.0580X0.0300*%
%ADD26R,0.0860X0.0300*%
%ADD27R,0.0671X0.0592*%
%ADD28R,0.0789X0.0710*%
%ADD29OC8,0.0680*%
%ADD30R,0.1180X0.0480*%
%ADD31R,0.0552X0.0552*%
%ADD32C,0.0680*%
%ADD33R,0.0907X0.0631*%
%ADD34R,0.0540X0.0710*%
%ADD35R,0.0060X0.0720*%
%ADD36C,0.0370*%
%ADD37C,0.0417*%
%ADD38C,0.0496*%
%ADD39C,0.0456*%
D10*
X002250Y008000D03*
X015500Y003250D03*
X021250Y008000D03*
D11*
X021250Y009000D03*
X021250Y010000D03*
X021250Y011000D03*
X021250Y012000D03*
X021250Y013000D03*
X021250Y014000D03*
X021250Y015000D03*
X021250Y016000D03*
X021250Y017000D03*
X021250Y018000D03*
X021250Y019000D03*
X021250Y020000D03*
X021250Y021000D03*
X021250Y022000D03*
X021250Y023000D03*
X021250Y024000D03*
X021250Y025000D03*
X021250Y026000D03*
X021250Y027000D03*
X021250Y028000D03*
X021250Y029000D03*
X021250Y030000D03*
X020250Y030000D03*
X020250Y029000D03*
X020250Y028000D03*
X020250Y027000D03*
X020250Y026000D03*
X020250Y025000D03*
X020250Y024000D03*
X020250Y023000D03*
X020250Y022000D03*
X020250Y021000D03*
X020250Y020000D03*
X020250Y019000D03*
X020250Y018000D03*
X020250Y017000D03*
X020250Y016000D03*
X020250Y015000D03*
X020250Y014000D03*
X020250Y013000D03*
X020250Y012000D03*
X020250Y011000D03*
X020250Y010000D03*
X020250Y009000D03*
X020250Y008000D03*
X020300Y006950D03*
X018000Y007050D03*
X015500Y007250D03*
X015500Y006250D03*
X015500Y005250D03*
X015500Y004250D03*
X014500Y004250D03*
X014500Y003250D03*
X014500Y005250D03*
X014500Y006250D03*
X014500Y007250D03*
X002250Y009000D03*
X002250Y010000D03*
X002250Y011000D03*
X002250Y012000D03*
X002250Y013000D03*
X002250Y014000D03*
X002250Y015000D03*
X002250Y016000D03*
X002250Y017000D03*
X002250Y018000D03*
X002250Y019000D03*
X002250Y020000D03*
X002250Y021000D03*
X002250Y022000D03*
X002250Y023000D03*
X002250Y024000D03*
X002250Y025000D03*
X002250Y026000D03*
X002250Y027000D03*
X002250Y028000D03*
X002250Y029000D03*
X002250Y030000D03*
X001250Y030000D03*
X001250Y029000D03*
X001250Y028000D03*
X001250Y027000D03*
X001250Y026000D03*
X001250Y025000D03*
X001250Y024000D03*
X001250Y023000D03*
X001250Y022000D03*
X001250Y021000D03*
X001250Y020000D03*
X001250Y019000D03*
X001250Y018000D03*
X001250Y017000D03*
X001250Y016000D03*
X001250Y015000D03*
X001250Y014000D03*
X001250Y013000D03*
X001250Y012000D03*
X001250Y011000D03*
X001250Y010000D03*
X001250Y009000D03*
X001250Y008000D03*
D12*
X004815Y019100D03*
X004800Y019815D03*
X004800Y020485D03*
X005485Y019100D03*
X004750Y022215D03*
X004750Y022885D03*
X004785Y024050D03*
X004115Y024050D03*
X005765Y022900D03*
X006435Y022900D03*
X008165Y024050D03*
X008835Y024050D03*
X008800Y022885D03*
X008800Y022215D03*
X009865Y022900D03*
X010535Y022900D03*
X012850Y025865D03*
X012850Y026535D03*
X012885Y027700D03*
X012215Y027700D03*
X013865Y026600D03*
X014535Y026600D03*
X014235Y024700D03*
X013565Y024700D03*
X015900Y021935D03*
X015900Y021265D03*
X015800Y020185D03*
X015800Y019515D03*
X017265Y017600D03*
X017935Y017600D03*
X018150Y016085D03*
X018150Y015415D03*
X018285Y019700D03*
X017615Y019700D03*
X017615Y021800D03*
X018285Y021800D03*
X018285Y024700D03*
X017615Y024700D03*
X016900Y025765D03*
X016900Y026435D03*
X016935Y027600D03*
X016265Y027600D03*
X017915Y026600D03*
X018585Y026600D03*
X016935Y031350D03*
X016265Y031350D03*
X012885Y031350D03*
X012215Y031350D03*
X008835Y027700D03*
X008165Y027700D03*
X004785Y027700D03*
X004115Y027700D03*
X009765Y018700D03*
X010435Y018700D03*
X011015Y018700D03*
X011685Y018700D03*
X012500Y018685D03*
X012500Y018015D03*
X013350Y018015D03*
X013350Y018685D03*
X014065Y017300D03*
X014735Y017300D03*
X013000Y015535D03*
X013000Y014865D03*
X012200Y014865D03*
X012200Y015535D03*
X010085Y014900D03*
X009415Y014900D03*
D13*
X008535Y011600D03*
X007865Y011600D03*
X007865Y010550D03*
X008535Y010550D03*
X008535Y009600D03*
X007865Y009600D03*
X006885Y009500D03*
X006215Y009500D03*
X005135Y007450D03*
X004465Y007450D03*
X003550Y010365D03*
X003550Y011035D03*
X005165Y012700D03*
X005835Y012700D03*
X005985Y014850D03*
X005315Y014850D03*
X005765Y022050D03*
X006435Y022050D03*
X007950Y022215D03*
X007950Y022885D03*
X009865Y022050D03*
X010535Y022050D03*
X011050Y023915D03*
X011050Y024585D03*
X009950Y024365D03*
X009950Y025035D03*
X009285Y026150D03*
X008615Y026150D03*
X008035Y026150D03*
X007365Y026150D03*
X005900Y025035D03*
X005900Y024365D03*
X005235Y026150D03*
X004565Y026150D03*
X003985Y026150D03*
X003315Y026150D03*
X003900Y022885D03*
X003900Y022215D03*
X005900Y028015D03*
X005900Y028685D03*
X005235Y029800D03*
X004565Y029800D03*
X003985Y029800D03*
X003315Y029800D03*
X007365Y029800D03*
X008035Y029800D03*
X008615Y029800D03*
X009285Y029800D03*
X009950Y028685D03*
X009950Y028015D03*
X011415Y029800D03*
X012085Y029800D03*
X012665Y029800D03*
X013335Y029800D03*
X014000Y028685D03*
X014000Y028015D03*
X013865Y025750D03*
X014535Y025750D03*
X015800Y023885D03*
X015800Y023215D03*
X016750Y021935D03*
X016750Y021265D03*
X017615Y020900D03*
X018285Y020900D03*
X018950Y020815D03*
X018950Y021485D03*
X018585Y025750D03*
X017915Y025750D03*
X018050Y028015D03*
X018050Y028685D03*
X017385Y029800D03*
X016715Y029800D03*
X016135Y029800D03*
X015465Y029800D03*
X014000Y031665D03*
X014000Y032335D03*
X013335Y033450D03*
X012665Y033450D03*
X012085Y033450D03*
X011415Y033450D03*
X015465Y033450D03*
X016135Y033450D03*
X016715Y033450D03*
X017385Y033450D03*
X018050Y032335D03*
X018050Y031665D03*
X016050Y026435D03*
X016050Y025765D03*
X012000Y025865D03*
X012000Y026535D03*
X015800Y018735D03*
X015800Y018065D03*
X015185Y015000D03*
X014515Y015000D03*
D14*
X012950Y016950D03*
X015150Y021900D03*
X011900Y024550D03*
X009800Y026550D03*
X010050Y029950D03*
X013850Y030200D03*
X014000Y033450D03*
X017900Y030200D03*
X018100Y033450D03*
X019200Y019950D03*
X018650Y012000D03*
X018050Y006300D03*
X018050Y004700D03*
X005750Y026550D03*
X005950Y029850D03*
D15*
X008500Y016950D03*
X008500Y016350D03*
D16*
X008500Y016650D03*
D17*
X006574Y011850D03*
X006574Y011350D03*
X006574Y010850D03*
X006574Y010350D03*
X004526Y010350D03*
X004526Y010850D03*
X004526Y011350D03*
X004526Y011850D03*
D18*
X009750Y015690D03*
X010010Y015690D03*
X010270Y015690D03*
X010520Y015690D03*
X010780Y015690D03*
X011030Y015690D03*
X011290Y015690D03*
X011550Y015690D03*
X011550Y017910D03*
X011290Y017910D03*
X011030Y017910D03*
X010780Y017910D03*
X010520Y017910D03*
X010270Y017910D03*
X010010Y017910D03*
X009750Y017910D03*
D19*
X002150Y031500D03*
X003300Y032800D03*
X020400Y031500D03*
X019150Y001600D03*
X017000Y001600D03*
D20*
X015100Y018030D03*
X015100Y018400D03*
X015100Y018770D03*
X014100Y018770D03*
X014100Y018030D03*
X017290Y018280D03*
X017290Y019020D03*
X018310Y019020D03*
X018310Y018650D03*
X018310Y018280D03*
D21*
X017600Y011870D02*
X017600Y011330D01*
X017600Y010520D02*
X017600Y009980D01*
X016600Y009980D02*
X016600Y010520D01*
X016600Y011330D02*
X016600Y011870D01*
X015600Y011870D02*
X015600Y011330D01*
X015600Y010520D02*
X015600Y009980D01*
X005300Y008820D02*
X005300Y008280D01*
X004300Y008280D02*
X004300Y008820D01*
D22*
X009330Y010150D03*
X009330Y011150D03*
X009330Y012150D03*
X012870Y012150D03*
X012870Y011150D03*
X012870Y010150D03*
D23*
X010474Y019500D03*
X009726Y019500D03*
D24*
X006350Y018460D03*
X006350Y018200D03*
X006350Y017950D03*
X006350Y017690D03*
X006350Y017430D03*
X006350Y017180D03*
X006350Y016920D03*
X006350Y016670D03*
X006350Y016410D03*
X006350Y016150D03*
X006350Y015900D03*
X006350Y015640D03*
X004050Y015640D03*
X004050Y015900D03*
X004050Y016150D03*
X004050Y016410D03*
X004050Y016670D03*
X004050Y016920D03*
X004050Y017180D03*
X004050Y017430D03*
X004050Y017690D03*
X004050Y017950D03*
X004050Y018200D03*
X004050Y018460D03*
D25*
X004090Y024730D03*
X004090Y025470D03*
X005110Y025470D03*
X005110Y025100D03*
X005110Y024730D03*
X005110Y028380D03*
X005110Y028750D03*
X005110Y029120D03*
X004090Y029120D03*
X004090Y028380D03*
X008140Y028380D03*
X008140Y029120D03*
X009160Y029120D03*
X009160Y028750D03*
X009160Y028380D03*
X009160Y025470D03*
X009160Y025100D03*
X009160Y024730D03*
X008140Y024730D03*
X008140Y025470D03*
X012190Y028380D03*
X012190Y029120D03*
X013210Y029120D03*
X013210Y028750D03*
X013210Y028380D03*
X013210Y032030D03*
X013210Y032400D03*
X013210Y032770D03*
X012190Y032770D03*
X012190Y032030D03*
X016240Y032030D03*
X016240Y032770D03*
X017260Y032770D03*
X017260Y032400D03*
X017260Y032030D03*
X017260Y029120D03*
X017260Y028750D03*
X017260Y028380D03*
X016240Y028380D03*
X016240Y029120D03*
D26*
X016980Y024000D03*
X016980Y023500D03*
X016980Y023000D03*
X016980Y022500D03*
X018920Y022500D03*
X018920Y023000D03*
X018920Y023500D03*
X018920Y024000D03*
X014870Y024000D03*
X014870Y023500D03*
X014870Y023000D03*
X014870Y022500D03*
X012930Y022500D03*
X012930Y023000D03*
X012930Y023500D03*
X012930Y024000D03*
X015880Y014450D03*
X015880Y013950D03*
X015880Y013450D03*
X015880Y012950D03*
X017820Y012950D03*
X017820Y013450D03*
X017820Y013950D03*
X017820Y014450D03*
D27*
X007300Y015426D03*
X007300Y016174D03*
X007300Y017026D03*
X007300Y017774D03*
D28*
X011900Y022699D03*
X011900Y023801D03*
X014650Y014001D03*
X014650Y012899D03*
X019050Y012899D03*
X019050Y014001D03*
D29*
X009900Y031100D03*
X009900Y032100D03*
X008900Y032100D03*
X008900Y031100D03*
X007900Y031100D03*
X007900Y032100D03*
X006900Y032100D03*
X006900Y031100D03*
X005900Y031100D03*
X005900Y032100D03*
D30*
X012550Y021600D03*
X012550Y019600D03*
X014550Y020600D03*
D31*
X016600Y020263D03*
X016600Y019437D03*
X019000Y016163D03*
X019000Y015337D03*
D32*
X016900Y016050D03*
X015900Y016050D03*
X014900Y016050D03*
D33*
X001809Y003914D03*
X001809Y005686D03*
X005391Y005686D03*
X005391Y003914D03*
D34*
X019000Y006950D03*
X019600Y006950D03*
D35*
X019300Y006950D03*
D36*
X019750Y014300D03*
X018950Y014650D03*
X018450Y014450D03*
X018000Y017100D03*
X018400Y017550D03*
X018800Y018650D03*
X017600Y020150D03*
X017150Y019700D03*
X016750Y020800D03*
X017600Y021350D03*
X018000Y021350D03*
X018500Y021350D03*
X018950Y021950D03*
X019450Y021600D03*
X018250Y023000D03*
X017750Y023500D03*
X017150Y024700D03*
X017600Y025150D03*
X018250Y025150D03*
X018950Y025300D03*
X018050Y027550D03*
X018500Y028050D03*
X018500Y028700D03*
X018000Y029150D03*
X017900Y029550D03*
X016950Y030900D03*
X017400Y031350D03*
X018050Y031200D03*
X018500Y031700D03*
X018500Y032350D03*
X018050Y032800D03*
X016200Y032400D03*
X015800Y031300D03*
X016250Y030900D03*
X015450Y030300D03*
X014750Y030200D03*
X014750Y031200D03*
X014450Y031700D03*
X014450Y032350D03*
X014750Y032850D03*
X014000Y032800D03*
X013350Y031350D03*
X014000Y031200D03*
X013900Y029600D03*
X013950Y029150D03*
X014450Y028700D03*
X014450Y028000D03*
X014000Y027550D03*
X013350Y027700D03*
X012850Y027250D03*
X012200Y027250D03*
X011750Y027650D03*
X012150Y028750D03*
X011400Y030300D03*
X011750Y031350D03*
X012200Y030900D03*
X012850Y030900D03*
X012150Y032400D03*
X011400Y034150D03*
X009750Y033000D03*
X009950Y029150D03*
X010400Y028700D03*
X010400Y028050D03*
X009950Y027550D03*
X009300Y027700D03*
X008800Y027250D03*
X008150Y027250D03*
X007700Y027650D03*
X007400Y026750D03*
X007650Y025500D03*
X008100Y025100D03*
X007700Y024000D03*
X008150Y023600D03*
X008800Y023600D03*
X009300Y024050D03*
X009950Y023900D03*
X010400Y024400D03*
X010400Y025050D03*
X010550Y025500D03*
X009900Y025500D03*
X009750Y025850D03*
X010550Y026400D03*
X012000Y025400D03*
X013100Y024400D03*
X013650Y023550D03*
X014100Y023950D03*
X014700Y024700D03*
X014350Y025250D03*
X015300Y025800D03*
X014750Y027150D03*
X015800Y027600D03*
X016250Y027100D03*
X016900Y027150D03*
X017400Y027600D03*
X016200Y028750D03*
X015750Y029150D03*
X016050Y034100D03*
X010750Y029250D03*
X008100Y028750D03*
X006950Y029800D03*
X006700Y029250D03*
X006350Y028700D03*
X005900Y029150D03*
X006350Y028050D03*
X005900Y027550D03*
X005250Y027700D03*
X004750Y027250D03*
X004150Y027250D03*
X003650Y027700D03*
X003000Y029300D03*
X005900Y025500D03*
X006350Y025050D03*
X006350Y024400D03*
X005900Y023900D03*
X005250Y024050D03*
X004750Y023600D03*
X004150Y023600D03*
X003650Y024050D03*
X003000Y021600D03*
X004050Y018750D03*
X004600Y018200D03*
X004600Y017750D03*
X005250Y016450D03*
X005750Y017300D03*
X005250Y015300D03*
X004650Y014850D03*
X004700Y012700D03*
X003550Y011500D03*
X003100Y011050D03*
X003100Y010400D03*
X003550Y009900D03*
X003950Y007450D03*
X003850Y005050D03*
X007450Y009600D03*
X007450Y010550D03*
X007450Y011600D03*
X006550Y012300D03*
X006450Y014850D03*
X007250Y014900D03*
X007850Y015400D03*
X007850Y016200D03*
X007850Y017000D03*
X007850Y017750D03*
X006950Y018300D03*
X007250Y020100D03*
X007250Y021100D03*
X007200Y022100D03*
X006700Y023450D03*
X005800Y021100D03*
X005800Y020100D03*
X005500Y019550D03*
X008500Y019450D03*
X008850Y018950D03*
X009300Y018700D03*
X009450Y018000D03*
X009100Y017050D03*
X010000Y016250D03*
X011000Y016250D03*
X011850Y016150D03*
X012200Y014350D03*
X011700Y013900D03*
X013000Y014350D03*
X013100Y012650D03*
X013100Y011650D03*
X013100Y010650D03*
X010100Y014450D03*
X009400Y014450D03*
X008950Y014900D03*
X011000Y019150D03*
X011000Y019650D03*
X010450Y020050D03*
X009700Y020050D03*
X009200Y019650D03*
X009550Y021050D03*
X011250Y022700D03*
X011050Y023450D03*
X010500Y023450D03*
X011900Y022100D03*
X012900Y022100D03*
X012450Y020050D03*
X011750Y019600D03*
X013600Y017300D03*
X014050Y016850D03*
X014750Y016850D03*
X015200Y017300D03*
X015800Y017600D03*
X016250Y018050D03*
X016650Y018350D03*
X016750Y017600D03*
X017200Y017100D03*
X014950Y020150D03*
X013800Y018400D03*
X016100Y022500D03*
X015600Y022650D03*
X016300Y023150D03*
X016250Y023900D03*
D37*
X016550Y013450D03*
X017150Y013450D03*
D38*
X008500Y015650D03*
X008500Y017600D03*
D39*
X006150Y005700D03*
X019350Y017650D03*
M02*
