G75*
G70*
%OFA0B0*%
%FSLAX24Y24*%
%IPPOS*%
%LPD*%
%AMOC8*
5,1,8,0,0,1.08239X$1,22.5*
%
%ADD10C,0.0020*%
%ADD11R,0.6050X0.1000*%
%ADD12C,0.0080*%
%ADD13C,0.0060*%
D10*
X018933Y000760D02*
X018976Y000760D01*
X018976Y000803D01*
X018933Y000803D01*
X018933Y000760D01*
X019060Y000760D02*
X019060Y001020D01*
X018976Y000933D02*
X018976Y000890D01*
X018933Y000890D01*
X018933Y000933D01*
X018976Y000933D01*
X019060Y000760D02*
X019234Y001020D01*
X019234Y000760D01*
X019492Y000760D02*
X019318Y001020D01*
X019576Y000977D02*
X019619Y001020D01*
X019706Y001020D01*
X019750Y000977D01*
X019750Y000933D01*
X019706Y000890D01*
X019619Y000890D01*
X019576Y000847D01*
X019576Y000803D01*
X019619Y000760D01*
X019706Y000760D01*
X019750Y000803D01*
D11*
X015735Y000850D03*
D12*
X013580Y003490D02*
X012830Y003630D01*
X012830Y004280D01*
X013590Y004430D01*
X013860Y005050D02*
X013420Y005690D01*
X013880Y006160D01*
X014540Y005710D01*
X015150Y005960D02*
X015300Y006740D01*
X015950Y006740D01*
X016100Y005960D01*
X016700Y005710D02*
X017360Y006150D01*
X017820Y005690D01*
X017380Y005050D01*
X017650Y004430D02*
X018410Y004280D01*
X018410Y003630D01*
X017660Y003490D01*
X017400Y002840D02*
X017820Y002220D01*
X017360Y001760D01*
X016760Y002170D01*
X016500Y002020D01*
X016030Y003160D01*
X015220Y003160D02*
X014740Y002020D01*
X014480Y002170D01*
X013880Y001760D01*
X013420Y002210D01*
X013840Y002830D01*
X013590Y004430D02*
X013616Y004523D01*
X013646Y004615D01*
X013681Y004706D01*
X013719Y004795D01*
X013762Y004882D01*
X013809Y004967D01*
X013860Y005050D01*
X015219Y003170D02*
X015168Y003200D01*
X015120Y003232D01*
X015073Y003268D01*
X015029Y003307D01*
X014987Y003349D01*
X014949Y003393D01*
X014913Y003440D01*
X014881Y003489D01*
X014852Y003540D01*
X014826Y003593D01*
X014804Y003648D01*
X014786Y003704D01*
X014772Y003761D01*
X014761Y003819D01*
X014754Y003877D01*
X014751Y003936D01*
X014752Y003995D01*
X014757Y004053D01*
X014766Y004111D01*
X014779Y004169D01*
X014795Y004225D01*
X014815Y004281D01*
X014839Y004334D01*
X014866Y004386D01*
X014897Y004437D01*
X014931Y004485D01*
X014968Y004530D01*
X015008Y004573D01*
X015051Y004613D01*
X015097Y004651D01*
X015145Y004685D01*
X015195Y004716D01*
X015247Y004744D01*
X015300Y004768D01*
X015356Y004788D01*
X015412Y004805D01*
X015469Y004818D01*
X015527Y004827D01*
X015586Y004832D01*
X015645Y004833D01*
X015704Y004830D01*
X015762Y004824D01*
X015820Y004813D01*
X015877Y004799D01*
X015933Y004781D01*
X015988Y004759D01*
X016041Y004734D01*
X016092Y004705D01*
X016141Y004673D01*
X016188Y004637D01*
X016233Y004599D01*
X016275Y004558D01*
X016314Y004514D01*
X016350Y004467D01*
X016383Y004418D01*
X016412Y004367D01*
X016438Y004315D01*
X016461Y004260D01*
X016480Y004205D01*
X016495Y004148D01*
X016506Y004090D01*
X016513Y004032D01*
X016517Y003973D01*
X016516Y003914D01*
X016512Y003855D01*
X016504Y003797D01*
X016492Y003740D01*
X016476Y003683D01*
X016456Y003628D01*
X016433Y003573D01*
X016406Y003521D01*
X016376Y003471D01*
X016342Y003422D01*
X016305Y003376D01*
X016266Y003333D01*
X016223Y003292D01*
X016178Y003255D01*
X016131Y003220D01*
X016081Y003188D01*
X016029Y003160D01*
X017400Y002840D02*
X017450Y002927D01*
X017496Y003016D01*
X017538Y003108D01*
X017575Y003201D01*
X017608Y003296D01*
X017636Y003392D01*
X017660Y003490D01*
X016700Y005710D02*
X016619Y005756D01*
X016537Y005798D01*
X016452Y005836D01*
X016366Y005870D01*
X016279Y005901D01*
X016190Y005927D01*
X016100Y005950D01*
X015149Y005960D02*
X015058Y005937D01*
X014967Y005909D01*
X014878Y005877D01*
X014791Y005841D01*
X014705Y005801D01*
X014621Y005758D01*
X014539Y005710D01*
X013580Y003489D02*
X013600Y003403D01*
X013623Y003317D01*
X013650Y003232D01*
X013681Y003148D01*
X013716Y003066D01*
X013754Y002985D01*
X013795Y002906D01*
X013840Y002829D01*
X017650Y004430D02*
X017624Y004524D01*
X017594Y004616D01*
X017559Y004706D01*
X017520Y004795D01*
X017478Y004882D01*
X017431Y004967D01*
X017380Y005050D01*
D13*
X017362Y005064D02*
X013870Y005064D01*
X013880Y005050D02*
X013590Y004390D01*
X012830Y004250D01*
X012850Y003650D01*
X013640Y003510D01*
X013850Y002770D01*
X013460Y002220D01*
X013880Y001800D01*
X014490Y002210D01*
X014720Y002070D01*
X015180Y003170D01*
X014790Y003540D01*
X014720Y004110D01*
X014990Y004650D01*
X015600Y004880D01*
X016180Y004720D01*
X016510Y004290D01*
X016550Y003790D01*
X016330Y003310D01*
X016070Y003130D01*
X016510Y002060D01*
X016760Y002230D01*
X017370Y001800D01*
X017790Y002220D01*
X017360Y002840D01*
X017660Y003530D01*
X018420Y003660D01*
X016490Y003660D01*
X016517Y003719D02*
X018417Y003719D01*
X018414Y003777D02*
X016544Y003777D01*
X016546Y003836D02*
X018411Y003836D01*
X018408Y003894D02*
X016541Y003894D01*
X016537Y003953D02*
X018405Y003953D01*
X018403Y004011D02*
X016532Y004011D01*
X016527Y004070D02*
X018400Y004070D01*
X018397Y004128D02*
X016522Y004128D01*
X016518Y004187D02*
X018394Y004187D01*
X018391Y004245D02*
X016513Y004245D01*
X016499Y004304D02*
X018241Y004304D01*
X018390Y004280D02*
X017630Y004400D01*
X017360Y005070D01*
X017770Y005700D01*
X017360Y006110D01*
X016690Y005680D01*
X016080Y005940D01*
X015930Y006710D01*
X015310Y006700D01*
X015170Y005930D01*
X014530Y005680D01*
X013870Y006130D01*
X013450Y005680D01*
X013880Y005050D01*
X013860Y005006D02*
X017385Y005006D01*
X017409Y004947D02*
X013834Y004947D01*
X013809Y004889D02*
X017433Y004889D01*
X017456Y004830D02*
X015781Y004830D01*
X015993Y004772D02*
X017480Y004772D01*
X017503Y004713D02*
X016185Y004713D01*
X016230Y004655D02*
X017527Y004655D01*
X017551Y004596D02*
X016275Y004596D01*
X016320Y004538D02*
X017574Y004538D01*
X017598Y004479D02*
X016364Y004479D01*
X016409Y004421D02*
X017621Y004421D01*
X017870Y004362D02*
X016454Y004362D01*
X015467Y004830D02*
X013783Y004830D01*
X013757Y004772D02*
X015312Y004772D01*
X015157Y004713D02*
X013731Y004713D01*
X013706Y004655D02*
X015001Y004655D01*
X014963Y004596D02*
X013680Y004596D01*
X013654Y004538D02*
X014933Y004538D01*
X014904Y004479D02*
X013629Y004479D01*
X013603Y004421D02*
X014875Y004421D01*
X014846Y004362D02*
X013438Y004362D01*
X013120Y004304D02*
X014816Y004304D01*
X014787Y004245D02*
X012830Y004245D01*
X012832Y004187D02*
X014758Y004187D01*
X014729Y004128D02*
X012834Y004128D01*
X012836Y004070D02*
X014724Y004070D01*
X014732Y004011D02*
X012837Y004011D01*
X012839Y003953D02*
X014739Y003953D01*
X014746Y003894D02*
X012841Y003894D01*
X012843Y003836D02*
X014753Y003836D01*
X014760Y003777D02*
X012845Y003777D01*
X012847Y003719D02*
X014768Y003719D01*
X014775Y003660D02*
X012849Y003660D01*
X013123Y003602D02*
X014782Y003602D01*
X014789Y003543D02*
X013453Y003543D01*
X013647Y003485D02*
X014848Y003485D01*
X014910Y003426D02*
X013663Y003426D01*
X013680Y003368D02*
X014971Y003368D01*
X015033Y003309D02*
X013697Y003309D01*
X013713Y003251D02*
X015095Y003251D01*
X015156Y003192D02*
X013730Y003192D01*
X013746Y003134D02*
X015164Y003134D01*
X015140Y003075D02*
X013763Y003075D01*
X013780Y003017D02*
X015115Y003017D01*
X015091Y002958D02*
X013796Y002958D01*
X013813Y002900D02*
X015066Y002900D01*
X015042Y002841D02*
X013829Y002841D01*
X013846Y002783D02*
X015017Y002783D01*
X014993Y002724D02*
X013817Y002724D01*
X013775Y002666D02*
X014969Y002666D01*
X014944Y002607D02*
X013734Y002607D01*
X013692Y002549D02*
X014920Y002549D01*
X014895Y002490D02*
X013651Y002490D01*
X013609Y002432D02*
X014871Y002432D01*
X014846Y002373D02*
X013568Y002373D01*
X013527Y002315D02*
X014822Y002315D01*
X014797Y002256D02*
X013485Y002256D01*
X013482Y002198D02*
X014471Y002198D01*
X014510Y002198D02*
X014773Y002198D01*
X014748Y002139D02*
X014606Y002139D01*
X014702Y002081D02*
X014724Y002081D01*
X014384Y002139D02*
X013541Y002139D01*
X013599Y002081D02*
X014297Y002081D01*
X014210Y002022D02*
X013658Y002022D01*
X013716Y001964D02*
X014123Y001964D01*
X014036Y001905D02*
X013775Y001905D01*
X013833Y001847D02*
X013949Y001847D01*
X016212Y002783D02*
X017399Y002783D01*
X017360Y002841D02*
X016188Y002841D01*
X016164Y002900D02*
X017385Y002900D01*
X017411Y002958D02*
X016140Y002958D01*
X016116Y003017D02*
X017436Y003017D01*
X017462Y003075D02*
X016092Y003075D01*
X016075Y003134D02*
X017487Y003134D01*
X017513Y003192D02*
X016159Y003192D01*
X016244Y003251D02*
X017538Y003251D01*
X017563Y003309D02*
X016328Y003309D01*
X016356Y003368D02*
X017589Y003368D01*
X017614Y003426D02*
X016383Y003426D01*
X016410Y003485D02*
X017640Y003485D01*
X017736Y003543D02*
X016436Y003543D01*
X016463Y003602D02*
X018078Y003602D01*
X018420Y003660D02*
X018390Y004280D01*
X017394Y005123D02*
X013830Y005123D01*
X013790Y005181D02*
X017432Y005181D01*
X017470Y005240D02*
X013750Y005240D01*
X013710Y005298D02*
X017508Y005298D01*
X017546Y005357D02*
X013670Y005357D01*
X013630Y005415D02*
X017584Y005415D01*
X017622Y005474D02*
X013590Y005474D01*
X013551Y005532D02*
X017660Y005532D01*
X017698Y005591D02*
X013511Y005591D01*
X013471Y005649D02*
X017736Y005649D01*
X017762Y005708D02*
X016732Y005708D01*
X016625Y005708D02*
X014600Y005708D01*
X014489Y005708D02*
X013475Y005708D01*
X013530Y005766D02*
X014403Y005766D01*
X014318Y005825D02*
X013584Y005825D01*
X013639Y005883D02*
X014232Y005883D01*
X014146Y005942D02*
X013694Y005942D01*
X013748Y006000D02*
X014060Y006000D01*
X013974Y006059D02*
X013803Y006059D01*
X013857Y006117D02*
X013889Y006117D01*
X014750Y005766D02*
X016488Y005766D01*
X016350Y005825D02*
X014899Y005825D01*
X015049Y005883D02*
X016213Y005883D01*
X016079Y005942D02*
X015172Y005942D01*
X015182Y006000D02*
X016068Y006000D01*
X016056Y006059D02*
X015193Y006059D01*
X015204Y006117D02*
X016045Y006117D01*
X016034Y006176D02*
X015214Y006176D01*
X015225Y006234D02*
X016022Y006234D01*
X016011Y006293D02*
X015235Y006293D01*
X015246Y006351D02*
X015999Y006351D01*
X015988Y006410D02*
X015257Y006410D01*
X015267Y006468D02*
X015977Y006468D01*
X015965Y006527D02*
X015278Y006527D01*
X015289Y006585D02*
X015954Y006585D01*
X015942Y006644D02*
X015299Y006644D01*
X015435Y006702D02*
X015931Y006702D01*
X016915Y005825D02*
X017645Y005825D01*
X017586Y005883D02*
X017006Y005883D01*
X017097Y005942D02*
X017528Y005942D01*
X017469Y006000D02*
X017188Y006000D01*
X017279Y006059D02*
X017411Y006059D01*
X017703Y005766D02*
X016824Y005766D01*
X016236Y002724D02*
X017440Y002724D01*
X017481Y002666D02*
X016261Y002666D01*
X016285Y002607D02*
X017521Y002607D01*
X017562Y002549D02*
X016309Y002549D01*
X016333Y002490D02*
X017602Y002490D01*
X017643Y002432D02*
X016357Y002432D01*
X016381Y002373D02*
X017683Y002373D01*
X017724Y002315D02*
X016405Y002315D01*
X016429Y002256D02*
X017765Y002256D01*
X017767Y002198D02*
X016806Y002198D01*
X016712Y002198D02*
X016453Y002198D01*
X016477Y002139D02*
X016626Y002139D01*
X016540Y002081D02*
X016501Y002081D01*
X016889Y002139D02*
X017709Y002139D01*
X017650Y002081D02*
X016972Y002081D01*
X017055Y002022D02*
X017592Y002022D01*
X017533Y001964D02*
X017138Y001964D01*
X017221Y001905D02*
X017475Y001905D01*
X017416Y001847D02*
X017304Y001847D01*
M02*
