G75*
G70*
%OFA0B0*%
%FSLAX24Y24*%
%IPPOS*%
%LPD*%
%AMOC8*
5,1,8,0,0,1.08239X$1,22.5*
%
%ADD10C,0.0000*%
D10*
X002960Y000433D02*
X002960Y009934D01*
X002961Y009966D01*
X002965Y009998D01*
X002973Y010029D01*
X002983Y010060D01*
X002997Y010089D01*
X003014Y010116D01*
X003034Y010142D01*
X003056Y010165D01*
X003080Y010186D01*
X003107Y010205D01*
X003135Y010220D01*
X003165Y010232D01*
X003196Y010241D01*
X003228Y010247D01*
X003260Y010250D01*
X019877Y010250D01*
X019909Y010248D01*
X019940Y010243D01*
X019970Y010234D01*
X020000Y010222D01*
X020028Y010207D01*
X020053Y010188D01*
X020077Y010167D01*
X020098Y010143D01*
X020117Y010118D01*
X020132Y010090D01*
X020144Y010060D01*
X020153Y010030D01*
X020158Y009999D01*
X020160Y009967D01*
X020160Y000433D01*
X020158Y000401D01*
X020153Y000370D01*
X020144Y000340D01*
X020132Y000310D01*
X020117Y000282D01*
X020098Y000257D01*
X020077Y000233D01*
X020053Y000212D01*
X020028Y000193D01*
X020000Y000178D01*
X019970Y000166D01*
X019940Y000157D01*
X019909Y000152D01*
X019877Y000150D01*
X003242Y000150D01*
X003210Y000152D01*
X003179Y000157D01*
X003149Y000166D01*
X003119Y000178D01*
X003091Y000193D01*
X003066Y000212D01*
X003042Y000233D01*
X003021Y000257D01*
X003002Y000282D01*
X002987Y000310D01*
X002975Y000340D01*
X002966Y000370D01*
X002961Y000401D01*
X002959Y000433D01*
M02*
