G75*
G70*
%OFA0B0*%
%FSLAX24Y24*%
%IPPOS*%
%LPD*%
%AMOC8*
5,1,8,0,0,1.08239X$1,22.5*
%
%ADD10C,0.0600*%
%ADD11C,0.0270*%
%ADD12C,0.0100*%
D10*
X003660Y001050D03*
X004660Y001050D03*
X004660Y002050D03*
X003660Y002050D03*
X003660Y003050D03*
X004660Y003050D03*
X004660Y004050D03*
X003660Y004050D03*
X003660Y005050D03*
X004660Y005050D03*
X004660Y006050D03*
X003660Y006050D03*
X003660Y007050D03*
X004660Y007050D03*
X004660Y008050D03*
X003660Y008050D03*
X019460Y007650D03*
X019460Y008650D03*
X019460Y009650D03*
D11*
X018160Y006950D03*
X017710Y006950D03*
X017235Y006000D03*
X016810Y005850D03*
X017135Y005500D03*
X016910Y005225D03*
X017785Y005125D03*
X018585Y005375D03*
X018735Y005675D03*
X019170Y005525D03*
X017360Y004500D03*
X017710Y003950D03*
X018160Y003950D03*
X019335Y003375D03*
X019785Y003375D03*
X018735Y002925D03*
X019145Y002675D03*
X017810Y002125D03*
X017235Y002600D03*
X016935Y002225D03*
X017135Y003100D03*
X016335Y003100D03*
X014060Y004900D03*
X010810Y003750D03*
X010210Y003750D03*
X009760Y004850D03*
X007310Y003750D03*
X006710Y003750D03*
X006260Y004850D03*
X006710Y006750D03*
X007310Y006750D03*
X006260Y007850D03*
X005060Y009050D03*
X004560Y009650D03*
X003760Y009650D03*
X003260Y009050D03*
X009760Y007850D03*
X010210Y006750D03*
X010810Y006750D03*
X009760Y001850D03*
X010210Y000750D03*
X010810Y000750D03*
X007310Y000750D03*
X006710Y000750D03*
X006260Y001850D03*
D12*
X003184Y000374D02*
X003162Y000411D01*
X003160Y000433D01*
X003160Y008826D01*
X003211Y008805D01*
X003308Y008805D01*
X003398Y008842D01*
X003467Y008911D01*
X003505Y009001D01*
X003505Y009099D01*
X003467Y009189D01*
X003398Y009258D01*
X003308Y009295D01*
X003211Y009295D01*
X003160Y009274D01*
X003160Y009854D01*
X003162Y009856D01*
X003160Y009936D01*
X003160Y009940D01*
X003161Y009960D01*
X003176Y010000D01*
X003205Y010030D01*
X003244Y010047D01*
X003264Y010050D01*
X019877Y010050D01*
X019893Y010048D01*
X019923Y010036D01*
X019946Y010013D01*
X019958Y009983D01*
X019960Y009967D01*
X019960Y003546D01*
X019923Y003583D01*
X019833Y003620D01*
X019736Y003620D01*
X019646Y003583D01*
X019577Y003514D01*
X019560Y003472D01*
X019542Y003514D01*
X019473Y003583D01*
X019383Y003620D01*
X019286Y003620D01*
X019196Y003583D01*
X019127Y003514D01*
X019090Y003424D01*
X019090Y003326D01*
X019127Y003236D01*
X019196Y003167D01*
X019286Y003130D01*
X019383Y003130D01*
X019473Y003167D01*
X019542Y003236D01*
X019560Y003278D01*
X019577Y003236D01*
X019646Y003167D01*
X019736Y003130D01*
X019833Y003130D01*
X019923Y003167D01*
X019960Y003204D01*
X019960Y000433D01*
X019958Y000417D01*
X019946Y000387D01*
X019923Y000364D01*
X019893Y000352D01*
X019877Y000350D01*
X003242Y000350D01*
X003221Y000353D01*
X003184Y000374D01*
X003160Y000446D02*
X019960Y000446D01*
X019960Y000544D02*
X003160Y000544D01*
X003160Y000643D02*
X004572Y000643D01*
X004578Y000640D02*
X004741Y000640D01*
X004892Y000702D01*
X005007Y000818D01*
X005070Y000968D01*
X005070Y001132D01*
X005007Y001282D01*
X004892Y001398D01*
X004741Y001460D01*
X004578Y001460D01*
X004427Y001398D01*
X004312Y001282D01*
X004250Y001132D01*
X004250Y000968D01*
X004312Y000818D01*
X004427Y000702D01*
X004578Y000640D01*
X004747Y000643D02*
X019960Y000643D01*
X019960Y000741D02*
X004930Y000741D01*
X005016Y000840D02*
X019960Y000840D01*
X019960Y000938D02*
X005057Y000938D01*
X005070Y001037D02*
X019960Y001037D01*
X019960Y001135D02*
X005068Y001135D01*
X005027Y001234D02*
X019960Y001234D01*
X019960Y001332D02*
X004957Y001332D01*
X004812Y001431D02*
X019960Y001431D01*
X019960Y001529D02*
X003160Y001529D01*
X003160Y001431D02*
X004507Y001431D01*
X004362Y001332D02*
X003160Y001332D01*
X003160Y001234D02*
X004292Y001234D01*
X004251Y001135D02*
X003160Y001135D01*
X003160Y001037D02*
X004250Y001037D01*
X004262Y000938D02*
X003160Y000938D01*
X003160Y000840D02*
X004303Y000840D01*
X004389Y000741D02*
X003160Y000741D01*
X003160Y001628D02*
X006156Y001628D01*
X006121Y001642D02*
X006211Y001605D01*
X006308Y001605D01*
X006398Y001642D01*
X006467Y001711D01*
X006505Y001801D01*
X006505Y001899D01*
X006467Y001989D01*
X006398Y002058D01*
X006308Y002095D01*
X006211Y002095D01*
X006121Y002058D01*
X006052Y001989D01*
X006015Y001899D01*
X006015Y001801D01*
X006052Y001711D01*
X006121Y001642D01*
X006046Y001726D02*
X004915Y001726D01*
X004892Y001702D02*
X005007Y001818D01*
X005070Y001968D01*
X005070Y002132D01*
X005007Y002282D01*
X004892Y002398D01*
X004741Y002460D01*
X004578Y002460D01*
X004427Y002398D01*
X004312Y002282D01*
X004250Y002132D01*
X004250Y001968D01*
X004312Y001818D01*
X004427Y001702D01*
X004578Y001640D01*
X004741Y001640D01*
X004892Y001702D01*
X005010Y001825D02*
X006015Y001825D01*
X006025Y001923D02*
X005051Y001923D01*
X005070Y002022D02*
X006085Y002022D01*
X006434Y002022D02*
X009585Y002022D01*
X009552Y001989D02*
X009621Y002058D01*
X009711Y002095D01*
X009808Y002095D01*
X009898Y002058D01*
X009967Y001989D01*
X010005Y001899D01*
X010005Y001801D01*
X009967Y001711D01*
X009898Y001642D01*
X009808Y001605D01*
X009711Y001605D01*
X009621Y001642D01*
X009552Y001711D01*
X009515Y001801D01*
X009515Y001899D01*
X009552Y001989D01*
X009525Y001923D02*
X006494Y001923D01*
X006505Y001825D02*
X009515Y001825D01*
X009546Y001726D02*
X006473Y001726D01*
X006363Y001628D02*
X009656Y001628D01*
X009863Y001628D02*
X019960Y001628D01*
X019960Y001726D02*
X009973Y001726D01*
X010005Y001825D02*
X019960Y001825D01*
X019960Y001923D02*
X017954Y001923D01*
X017948Y001917D02*
X018017Y001986D01*
X018055Y002076D01*
X018055Y002174D01*
X018017Y002264D01*
X017948Y002333D01*
X017858Y002370D01*
X017761Y002370D01*
X017671Y002333D01*
X017602Y002264D01*
X017565Y002174D01*
X017565Y002076D01*
X017602Y001986D01*
X017671Y001917D01*
X017761Y001880D01*
X017858Y001880D01*
X017948Y001917D01*
X018032Y002022D02*
X019960Y002022D01*
X019960Y002120D02*
X018055Y002120D01*
X018036Y002219D02*
X019960Y002219D01*
X019960Y002317D02*
X017964Y002317D01*
X017655Y002317D02*
X017162Y002317D01*
X017186Y002355D02*
X017283Y002355D01*
X017373Y002392D01*
X017442Y002461D01*
X017480Y002551D01*
X017480Y002649D01*
X017442Y002739D01*
X017373Y002808D01*
X017283Y002845D01*
X017186Y002845D01*
X017096Y002808D01*
X017027Y002739D01*
X016990Y002649D01*
X016990Y002551D01*
X017027Y002461D01*
X017043Y002445D01*
X016983Y002470D01*
X016886Y002470D01*
X016796Y002433D01*
X016727Y002364D01*
X016690Y002274D01*
X016690Y002176D01*
X016727Y002086D01*
X016796Y002017D01*
X016886Y001980D01*
X016983Y001980D01*
X017073Y002017D01*
X017142Y002086D01*
X017180Y002176D01*
X017180Y002274D01*
X017142Y002364D01*
X017126Y002380D01*
X017186Y002355D01*
X017180Y002219D02*
X017583Y002219D01*
X017565Y002120D02*
X017156Y002120D01*
X017078Y002022D02*
X017587Y002022D01*
X017665Y001923D02*
X009994Y001923D01*
X009934Y002022D02*
X016792Y002022D01*
X016713Y002120D02*
X005070Y002120D01*
X005033Y002219D02*
X016690Y002219D01*
X016707Y002317D02*
X004972Y002317D01*
X004848Y002416D02*
X016779Y002416D01*
X017005Y002514D02*
X003160Y002514D01*
X003160Y002416D02*
X004471Y002416D01*
X004347Y002317D02*
X003160Y002317D01*
X003160Y002219D02*
X004286Y002219D01*
X004250Y002120D02*
X003160Y002120D01*
X003160Y002022D02*
X004250Y002022D01*
X004268Y001923D02*
X003160Y001923D01*
X003160Y001825D02*
X004309Y001825D01*
X004404Y001726D02*
X003160Y001726D01*
X003160Y002613D02*
X016990Y002613D01*
X017015Y002711D02*
X004900Y002711D01*
X004892Y002702D02*
X005007Y002818D01*
X005070Y002968D01*
X005070Y003132D01*
X005007Y003282D01*
X004892Y003398D01*
X004741Y003460D01*
X004578Y003460D01*
X004427Y003398D01*
X004312Y003282D01*
X004250Y003132D01*
X004250Y002968D01*
X004312Y002818D01*
X004427Y002702D01*
X004578Y002640D01*
X004741Y002640D01*
X004892Y002702D01*
X004999Y002810D02*
X017100Y002810D01*
X017086Y002855D02*
X016996Y002892D01*
X016927Y002961D01*
X016890Y003051D01*
X016890Y003149D01*
X016927Y003239D01*
X016996Y003308D01*
X017086Y003345D01*
X017183Y003345D01*
X017273Y003308D01*
X017342Y003239D01*
X017380Y003149D01*
X017380Y003051D01*
X017342Y002961D01*
X017273Y002892D01*
X017183Y002855D01*
X017086Y002855D01*
X016980Y002908D02*
X016489Y002908D01*
X016473Y002892D02*
X016542Y002961D01*
X016580Y003051D01*
X016580Y003149D01*
X016542Y003239D01*
X016473Y003308D01*
X016383Y003345D01*
X016286Y003345D01*
X016196Y003308D01*
X016127Y003239D01*
X016090Y003149D01*
X016090Y003051D01*
X016127Y002961D01*
X016196Y002892D01*
X016286Y002855D01*
X016383Y002855D01*
X016473Y002892D01*
X016561Y003007D02*
X016908Y003007D01*
X016890Y003105D02*
X016580Y003105D01*
X016557Y003204D02*
X016912Y003204D01*
X016990Y003302D02*
X016479Y003302D01*
X016190Y003302D02*
X004987Y003302D01*
X005040Y003204D02*
X016112Y003204D01*
X016090Y003105D02*
X005070Y003105D01*
X005070Y003007D02*
X016108Y003007D01*
X016180Y002908D02*
X005044Y002908D01*
X004419Y002711D02*
X003160Y002711D01*
X003160Y002810D02*
X004320Y002810D01*
X004275Y002908D02*
X003160Y002908D01*
X003160Y003007D02*
X004250Y003007D01*
X004250Y003105D02*
X003160Y003105D01*
X003160Y003204D02*
X004279Y003204D01*
X004332Y003302D02*
X003160Y003302D01*
X003160Y003401D02*
X004434Y003401D01*
X004578Y003640D02*
X004427Y003702D01*
X004312Y003818D01*
X004250Y003968D01*
X004250Y004132D01*
X004312Y004282D01*
X004427Y004398D01*
X004578Y004460D01*
X004741Y004460D01*
X004892Y004398D01*
X005007Y004282D01*
X005070Y004132D01*
X005070Y003968D01*
X005007Y003818D01*
X004892Y003702D01*
X004741Y003640D01*
X004578Y003640D01*
X004443Y003696D02*
X003160Y003696D01*
X003160Y003598D02*
X019231Y003598D01*
X019121Y003499D02*
X003160Y003499D01*
X003160Y003795D02*
X004335Y003795D01*
X004281Y003893D02*
X003160Y003893D01*
X003160Y003992D02*
X004250Y003992D01*
X004250Y004090D02*
X003160Y004090D01*
X003160Y004189D02*
X004273Y004189D01*
X004317Y004287D02*
X003160Y004287D01*
X003160Y004386D02*
X004415Y004386D01*
X004578Y004640D02*
X004741Y004640D01*
X004892Y004702D01*
X005007Y004818D01*
X005070Y004968D01*
X005070Y005132D01*
X005007Y005282D01*
X004892Y005398D01*
X004741Y005460D01*
X004578Y005460D01*
X004427Y005398D01*
X004312Y005282D01*
X004250Y005132D01*
X004250Y004968D01*
X004312Y004818D01*
X004427Y004702D01*
X004578Y004640D01*
X004479Y004681D02*
X003160Y004681D01*
X003160Y004583D02*
X019960Y004583D01*
X019960Y004681D02*
X014171Y004681D01*
X014198Y004692D02*
X014267Y004761D01*
X014305Y004851D01*
X014305Y004949D01*
X014267Y005039D01*
X014198Y005108D01*
X014108Y005145D01*
X014011Y005145D01*
X013921Y005108D01*
X013852Y005039D01*
X013815Y004949D01*
X013815Y004851D01*
X013852Y004761D01*
X013921Y004692D01*
X014011Y004655D01*
X014108Y004655D01*
X014198Y004692D01*
X014275Y004780D02*
X019960Y004780D01*
X019960Y004878D02*
X014305Y004878D01*
X014293Y004977D02*
X017587Y004977D01*
X017577Y004986D02*
X017646Y004917D01*
X017736Y004880D01*
X017833Y004880D01*
X017923Y004917D01*
X017992Y004986D01*
X018030Y005076D01*
X018030Y005174D01*
X017992Y005264D01*
X017923Y005333D01*
X017833Y005370D01*
X017736Y005370D01*
X017646Y005333D01*
X017577Y005264D01*
X017540Y005174D01*
X017540Y005076D01*
X017577Y004986D01*
X017540Y005075D02*
X017106Y005075D01*
X017117Y005086D02*
X017155Y005176D01*
X017155Y005255D01*
X017183Y005255D01*
X017273Y005292D01*
X017342Y005361D01*
X017380Y005451D01*
X017380Y005549D01*
X017342Y005639D01*
X017273Y005708D01*
X017183Y005745D01*
X017086Y005745D01*
X017020Y005718D01*
X017055Y005801D01*
X017055Y005834D01*
X017096Y005792D01*
X017186Y005755D01*
X017283Y005755D01*
X017373Y005792D01*
X017442Y005861D01*
X017480Y005951D01*
X017480Y006049D01*
X017442Y006139D01*
X017373Y006208D01*
X017283Y006245D01*
X017186Y006245D01*
X017096Y006208D01*
X017027Y006139D01*
X016990Y006049D01*
X016990Y006016D01*
X016948Y006058D01*
X016858Y006095D01*
X016761Y006095D01*
X016671Y006058D01*
X016602Y005989D01*
X016565Y005899D01*
X016565Y005801D01*
X016602Y005711D01*
X016671Y005642D01*
X016761Y005605D01*
X016858Y005605D01*
X016924Y005632D01*
X016890Y005549D01*
X016890Y005470D01*
X016861Y005470D01*
X016771Y005433D01*
X016702Y005364D01*
X016665Y005274D01*
X016665Y005176D01*
X016702Y005086D01*
X016771Y005017D01*
X016861Y004980D01*
X016958Y004980D01*
X017048Y005017D01*
X017117Y005086D01*
X017153Y005174D02*
X017540Y005174D01*
X017585Y005272D02*
X017224Y005272D01*
X017346Y005371D02*
X018340Y005371D01*
X018340Y005326D02*
X018340Y005424D01*
X018377Y005514D01*
X018446Y005583D01*
X018499Y005605D01*
X018490Y005626D01*
X018490Y005724D01*
X018527Y005814D01*
X018596Y005883D01*
X018686Y005920D01*
X018783Y005920D01*
X018873Y005883D01*
X018942Y005814D01*
X018980Y005724D01*
X018980Y005681D01*
X019031Y005733D01*
X019121Y005770D01*
X019218Y005770D01*
X019308Y005733D01*
X019377Y005664D01*
X019415Y005574D01*
X019415Y005476D01*
X019377Y005386D01*
X019308Y005317D01*
X019218Y005280D01*
X019121Y005280D01*
X019031Y005317D01*
X018962Y005386D01*
X018925Y005476D01*
X018925Y005519D01*
X018873Y005467D01*
X018821Y005445D01*
X018830Y005424D01*
X018830Y005326D01*
X018792Y005236D01*
X018723Y005167D01*
X018633Y005130D01*
X018536Y005130D01*
X018446Y005167D01*
X018377Y005236D01*
X018340Y005326D01*
X018362Y005272D02*
X017984Y005272D01*
X018030Y005174D02*
X018440Y005174D01*
X018730Y005174D02*
X019960Y005174D01*
X019960Y005272D02*
X018807Y005272D01*
X018830Y005371D02*
X018978Y005371D01*
X018928Y005469D02*
X018875Y005469D01*
X018963Y005765D02*
X019108Y005765D01*
X019231Y005765D02*
X019960Y005765D01*
X019960Y005863D02*
X018893Y005863D01*
X018576Y005863D02*
X017443Y005863D01*
X017480Y005962D02*
X019960Y005962D01*
X019960Y006060D02*
X017475Y006060D01*
X017422Y006159D02*
X019960Y006159D01*
X019960Y006257D02*
X005018Y006257D01*
X005007Y006282D02*
X004892Y006398D01*
X004741Y006460D01*
X004578Y006460D01*
X004427Y006398D01*
X004312Y006282D01*
X004250Y006132D01*
X004250Y005968D01*
X004312Y005818D01*
X004427Y005702D01*
X004578Y005640D01*
X004741Y005640D01*
X004892Y005702D01*
X005007Y005818D01*
X005070Y005968D01*
X005070Y006132D01*
X005007Y006282D01*
X004934Y006356D02*
X019960Y006356D01*
X019960Y006454D02*
X004756Y006454D01*
X004741Y006640D02*
X004578Y006640D01*
X004427Y006702D01*
X004312Y006818D01*
X004250Y006968D01*
X004250Y007132D01*
X004312Y007282D01*
X004427Y007398D01*
X004578Y007460D01*
X004741Y007460D01*
X004892Y007398D01*
X005007Y007282D01*
X005070Y007132D01*
X005070Y006968D01*
X005007Y006818D01*
X004892Y006702D01*
X004741Y006640D01*
X004768Y006651D02*
X019960Y006651D01*
X019960Y006553D02*
X003160Y006553D01*
X003160Y006651D02*
X004551Y006651D01*
X004380Y006750D02*
X003160Y006750D01*
X003160Y006848D02*
X004299Y006848D01*
X004259Y006947D02*
X003160Y006947D01*
X003160Y007045D02*
X004250Y007045D01*
X004254Y007144D02*
X003160Y007144D01*
X003160Y007242D02*
X004295Y007242D01*
X004370Y007341D02*
X003160Y007341D01*
X003160Y007439D02*
X004527Y007439D01*
X004578Y007640D02*
X004741Y007640D01*
X004892Y007702D01*
X005007Y007818D01*
X005070Y007968D01*
X005070Y008132D01*
X005007Y008282D01*
X004892Y008398D01*
X004741Y008460D01*
X004578Y008460D01*
X004427Y008398D01*
X004312Y008282D01*
X004250Y008132D01*
X004250Y007968D01*
X004312Y007818D01*
X004427Y007702D01*
X004578Y007640D01*
X004395Y007735D02*
X003924Y007735D01*
X003892Y007702D02*
X004007Y007818D01*
X004070Y007968D01*
X004070Y008132D01*
X004007Y008282D01*
X003892Y008398D01*
X003741Y008460D01*
X003578Y008460D01*
X003427Y008398D01*
X003312Y008282D01*
X003250Y008132D01*
X003250Y007968D01*
X003312Y007818D01*
X003427Y007702D01*
X003578Y007640D01*
X003741Y007640D01*
X003892Y007702D01*
X004013Y007833D02*
X004306Y007833D01*
X004265Y007932D02*
X004054Y007932D01*
X004070Y008030D02*
X004250Y008030D01*
X004250Y008129D02*
X004070Y008129D01*
X004030Y008227D02*
X004289Y008227D01*
X004355Y008326D02*
X003964Y008326D01*
X003828Y008424D02*
X004491Y008424D01*
X004828Y008424D02*
X019109Y008424D01*
X019112Y008418D02*
X019227Y008302D01*
X019378Y008240D01*
X019541Y008240D01*
X019692Y008302D01*
X019807Y008418D01*
X019870Y008568D01*
X019870Y008732D01*
X019807Y008882D01*
X019692Y008998D01*
X019541Y009060D01*
X019378Y009060D01*
X019227Y008998D01*
X019112Y008882D01*
X019050Y008732D01*
X019050Y008568D01*
X019112Y008418D01*
X019069Y008523D02*
X003160Y008523D01*
X003160Y008621D02*
X019050Y008621D01*
X019050Y008720D02*
X003160Y008720D01*
X003160Y008818D02*
X003179Y008818D01*
X003340Y008818D02*
X019085Y008818D01*
X019146Y008917D02*
X003469Y008917D01*
X003505Y009015D02*
X019269Y009015D01*
X019650Y009015D02*
X019960Y009015D01*
X019960Y008917D02*
X019773Y008917D01*
X019834Y008818D02*
X019960Y008818D01*
X019960Y008720D02*
X019870Y008720D01*
X019870Y008621D02*
X019960Y008621D01*
X019960Y008523D02*
X019850Y008523D01*
X019810Y008424D02*
X019960Y008424D01*
X019960Y008326D02*
X019715Y008326D01*
X019960Y008227D02*
X005030Y008227D01*
X005070Y008129D02*
X019960Y008129D01*
X019960Y008030D02*
X019613Y008030D01*
X019541Y008060D02*
X019692Y007998D01*
X019807Y007882D01*
X019870Y007732D01*
X019870Y007568D01*
X019807Y007418D01*
X019692Y007302D01*
X019541Y007240D01*
X019378Y007240D01*
X019227Y007302D01*
X019112Y007418D01*
X019050Y007568D01*
X019050Y007732D01*
X019112Y007882D01*
X019227Y007998D01*
X019378Y008060D01*
X019541Y008060D01*
X019306Y008030D02*
X009926Y008030D01*
X009898Y008058D02*
X009808Y008095D01*
X009711Y008095D01*
X009621Y008058D01*
X009552Y007989D01*
X009515Y007899D01*
X009515Y007801D01*
X009552Y007711D01*
X009621Y007642D01*
X009711Y007605D01*
X009808Y007605D01*
X009898Y007642D01*
X009967Y007711D01*
X010005Y007801D01*
X010005Y007899D01*
X009967Y007989D01*
X009898Y008058D01*
X009991Y007932D02*
X019161Y007932D01*
X019092Y007833D02*
X010005Y007833D01*
X009977Y007735D02*
X019051Y007735D01*
X019050Y007636D02*
X009883Y007636D01*
X009636Y007636D02*
X006383Y007636D01*
X006398Y007642D02*
X006467Y007711D01*
X006505Y007801D01*
X006505Y007899D01*
X006467Y007989D01*
X006398Y008058D01*
X006308Y008095D01*
X006211Y008095D01*
X006121Y008058D01*
X006052Y007989D01*
X006015Y007899D01*
X006015Y007801D01*
X006052Y007711D01*
X006121Y007642D01*
X006211Y007605D01*
X006308Y007605D01*
X006398Y007642D01*
X006477Y007735D02*
X009542Y007735D01*
X009515Y007833D02*
X006505Y007833D01*
X006491Y007932D02*
X009528Y007932D01*
X009593Y008030D02*
X006426Y008030D01*
X006093Y008030D02*
X005070Y008030D01*
X005054Y007932D02*
X006028Y007932D01*
X006015Y007833D02*
X005013Y007833D01*
X004924Y007735D02*
X006042Y007735D01*
X006136Y007636D02*
X003160Y007636D01*
X003160Y007538D02*
X019062Y007538D01*
X019103Y007439D02*
X004792Y007439D01*
X004949Y007341D02*
X019189Y007341D01*
X019373Y007242D02*
X005024Y007242D01*
X005065Y007144D02*
X018007Y007144D01*
X018021Y007158D02*
X017952Y007089D01*
X017915Y006999D01*
X017915Y006901D01*
X017952Y006811D01*
X018021Y006742D01*
X018111Y006705D01*
X018208Y006705D01*
X018298Y006742D01*
X018367Y006811D01*
X018405Y006901D01*
X018405Y006999D01*
X018367Y007089D01*
X018298Y007158D01*
X018208Y007195D01*
X018111Y007195D01*
X018021Y007158D01*
X017934Y007045D02*
X005070Y007045D01*
X005060Y006947D02*
X017915Y006947D01*
X017937Y006848D02*
X005020Y006848D01*
X004939Y006750D02*
X018014Y006750D01*
X018306Y006750D02*
X019960Y006750D01*
X019960Y006848D02*
X018382Y006848D01*
X018405Y006947D02*
X019960Y006947D01*
X019960Y007045D02*
X018385Y007045D01*
X018312Y007144D02*
X019960Y007144D01*
X019960Y007242D02*
X019546Y007242D01*
X019730Y007341D02*
X019960Y007341D01*
X019960Y007439D02*
X019816Y007439D01*
X019857Y007538D02*
X019960Y007538D01*
X019960Y007636D02*
X019870Y007636D01*
X019868Y007735D02*
X019960Y007735D01*
X019960Y007833D02*
X019827Y007833D01*
X019758Y007932D02*
X019960Y007932D01*
X019204Y008326D02*
X004964Y008326D01*
X003491Y008424D02*
X003160Y008424D01*
X003160Y008326D02*
X003355Y008326D01*
X003289Y008227D02*
X003160Y008227D01*
X003160Y008129D02*
X003250Y008129D01*
X003250Y008030D02*
X003160Y008030D01*
X003160Y007932D02*
X003265Y007932D01*
X003306Y007833D02*
X003160Y007833D01*
X003160Y007735D02*
X003395Y007735D01*
X003160Y006454D02*
X004564Y006454D01*
X004385Y006356D02*
X003160Y006356D01*
X003160Y006257D02*
X004301Y006257D01*
X004261Y006159D02*
X003160Y006159D01*
X003160Y006060D02*
X004250Y006060D01*
X004252Y005962D02*
X003160Y005962D01*
X003160Y005863D02*
X004293Y005863D01*
X004365Y005765D02*
X003160Y005765D01*
X003160Y005666D02*
X004515Y005666D01*
X004804Y005666D02*
X016647Y005666D01*
X016580Y005765D02*
X004954Y005765D01*
X005026Y005863D02*
X016565Y005863D01*
X016591Y005962D02*
X005067Y005962D01*
X005070Y006060D02*
X016676Y006060D01*
X016943Y006060D02*
X016994Y006060D01*
X017047Y006159D02*
X005058Y006159D01*
X004919Y005371D02*
X016709Y005371D01*
X016665Y005272D02*
X005011Y005272D01*
X005052Y005174D02*
X016666Y005174D01*
X016713Y005075D02*
X014231Y005075D01*
X013888Y005075D02*
X009856Y005075D01*
X009898Y005058D02*
X009808Y005095D01*
X009711Y005095D01*
X009621Y005058D01*
X009552Y004989D01*
X009515Y004899D01*
X009515Y004801D01*
X009552Y004711D01*
X009621Y004642D01*
X009711Y004605D01*
X009808Y004605D01*
X009898Y004642D01*
X009967Y004711D01*
X010005Y004801D01*
X010005Y004899D01*
X009967Y004989D01*
X009898Y005058D01*
X009972Y004977D02*
X013826Y004977D01*
X013815Y004878D02*
X010005Y004878D01*
X009996Y004780D02*
X013844Y004780D01*
X013948Y004681D02*
X009937Y004681D01*
X009582Y004681D02*
X006437Y004681D01*
X006467Y004711D02*
X006398Y004642D01*
X006308Y004605D01*
X006211Y004605D01*
X006121Y004642D01*
X006052Y004711D01*
X006015Y004801D01*
X006015Y004899D01*
X006052Y004989D01*
X006121Y005058D01*
X006211Y005095D01*
X006308Y005095D01*
X006398Y005058D01*
X006467Y004989D01*
X006505Y004899D01*
X006505Y004801D01*
X006467Y004711D01*
X006496Y004780D02*
X009524Y004780D01*
X009515Y004878D02*
X006505Y004878D01*
X006472Y004977D02*
X009547Y004977D01*
X009663Y005075D02*
X006356Y005075D01*
X006163Y005075D02*
X005070Y005075D01*
X005070Y004977D02*
X006047Y004977D01*
X006015Y004878D02*
X005032Y004878D01*
X004969Y004780D02*
X006024Y004780D01*
X006082Y004681D02*
X004840Y004681D01*
X004904Y004386D02*
X019960Y004386D01*
X019960Y004484D02*
X003160Y004484D01*
X003160Y004780D02*
X004350Y004780D01*
X004287Y004878D02*
X003160Y004878D01*
X003160Y004977D02*
X004250Y004977D01*
X004250Y005075D02*
X003160Y005075D01*
X003160Y005174D02*
X004267Y005174D01*
X004308Y005272D02*
X003160Y005272D01*
X003160Y005371D02*
X004400Y005371D01*
X003160Y005469D02*
X016858Y005469D01*
X016897Y005568D02*
X003160Y005568D01*
X005002Y004287D02*
X019960Y004287D01*
X019960Y004189D02*
X018224Y004189D01*
X018208Y004195D02*
X018111Y004195D01*
X018021Y004158D01*
X017952Y004089D01*
X017915Y003999D01*
X017915Y003901D01*
X017952Y003811D01*
X018021Y003742D01*
X018111Y003705D01*
X018208Y003705D01*
X018298Y003742D01*
X018367Y003811D01*
X018405Y003901D01*
X018405Y003999D01*
X018367Y004089D01*
X018298Y004158D01*
X018208Y004195D01*
X018095Y004189D02*
X005046Y004189D01*
X005070Y004090D02*
X017953Y004090D01*
X017915Y003992D02*
X005070Y003992D01*
X005038Y003893D02*
X017918Y003893D01*
X017969Y003795D02*
X004984Y003795D01*
X004876Y003696D02*
X019960Y003696D01*
X019960Y003598D02*
X019888Y003598D01*
X019681Y003598D02*
X019438Y003598D01*
X019548Y003499D02*
X019571Y003499D01*
X019960Y003795D02*
X018351Y003795D01*
X018401Y003893D02*
X019960Y003893D01*
X019960Y003992D02*
X018405Y003992D01*
X018366Y004090D02*
X019960Y004090D01*
X019090Y003401D02*
X004885Y003401D01*
X003498Y009114D02*
X019960Y009114D01*
X019960Y009212D02*
X003444Y009212D01*
X003160Y009311D02*
X019960Y009311D01*
X019960Y009409D02*
X003818Y009409D01*
X003808Y009405D02*
X003898Y009442D01*
X003967Y009511D01*
X004005Y009601D01*
X004005Y009699D01*
X003967Y009789D01*
X003898Y009858D01*
X003808Y009895D01*
X003711Y009895D01*
X003621Y009858D01*
X003552Y009789D01*
X003515Y009699D01*
X003515Y009601D01*
X003552Y009511D01*
X003621Y009442D01*
X003711Y009405D01*
X003808Y009405D01*
X003701Y009409D02*
X003160Y009409D01*
X003160Y009508D02*
X003556Y009508D01*
X003515Y009606D02*
X003160Y009606D01*
X003160Y009705D02*
X003517Y009705D01*
X003566Y009803D02*
X003160Y009803D01*
X003160Y009902D02*
X019960Y009902D01*
X019951Y010000D02*
X003176Y010000D01*
X003953Y009803D02*
X019960Y009803D01*
X019960Y009705D02*
X004002Y009705D01*
X004005Y009606D02*
X019960Y009606D01*
X019960Y009508D02*
X003964Y009508D01*
X017039Y005765D02*
X017163Y005765D01*
X017306Y005765D02*
X018506Y005765D01*
X018490Y005666D02*
X017315Y005666D01*
X017372Y005568D02*
X018431Y005568D01*
X018358Y005469D02*
X017380Y005469D01*
X018029Y005075D02*
X019960Y005075D01*
X019960Y004977D02*
X017983Y004977D01*
X019362Y005371D02*
X019960Y005371D01*
X019960Y005469D02*
X019412Y005469D01*
X019415Y005568D02*
X019960Y005568D01*
X019960Y005666D02*
X019375Y005666D01*
X019100Y003302D02*
X017279Y003302D01*
X017357Y003204D02*
X019160Y003204D01*
X018942Y003064D02*
X018873Y003133D01*
X018783Y003170D01*
X018686Y003170D01*
X018596Y003133D01*
X018527Y003064D01*
X018490Y002974D01*
X018490Y002876D01*
X018527Y002786D01*
X018596Y002717D01*
X018686Y002680D01*
X018783Y002680D01*
X018873Y002717D01*
X018914Y002758D01*
X018900Y002724D01*
X018900Y002626D01*
X018937Y002536D01*
X019006Y002467D01*
X019096Y002430D01*
X019193Y002430D01*
X019283Y002467D01*
X019352Y002536D01*
X019390Y002626D01*
X019390Y002724D01*
X019352Y002814D01*
X019283Y002883D01*
X019193Y002920D01*
X019096Y002920D01*
X019006Y002883D01*
X018966Y002842D01*
X018980Y002876D01*
X018980Y002974D01*
X018942Y003064D01*
X018901Y003105D02*
X019960Y003105D01*
X019960Y003007D02*
X018966Y003007D01*
X018980Y002908D02*
X019067Y002908D01*
X019222Y002908D02*
X019960Y002908D01*
X019960Y002810D02*
X019354Y002810D01*
X019390Y002711D02*
X019960Y002711D01*
X019960Y002613D02*
X019384Y002613D01*
X019330Y002514D02*
X019960Y002514D01*
X019960Y002416D02*
X017397Y002416D01*
X017464Y002514D02*
X018959Y002514D01*
X018905Y002613D02*
X017480Y002613D01*
X017454Y002711D02*
X018611Y002711D01*
X018517Y002810D02*
X017369Y002810D01*
X017289Y002908D02*
X018490Y002908D01*
X018503Y003007D02*
X017361Y003007D01*
X017380Y003105D02*
X018568Y003105D01*
X018858Y002711D02*
X018900Y002711D01*
X019510Y003204D02*
X019610Y003204D01*
X019960Y003204D02*
X019960Y003204D01*
M02*
