G75*
G70*
%OFA0B0*%
%FSLAX24Y24*%
%IPPOS*%
%LPD*%
%AMOC8*
5,1,8,0,0,1.08239X$1,22.5*
%
%ADD10C,0.0600*%
%ADD11C,0.0100*%
%ADD12C,0.0270*%
%ADD13C,0.0376*%
D10*
X003293Y001050D03*
X003293Y002050D03*
X003293Y003050D03*
X003293Y004050D03*
X003293Y005050D03*
X003293Y006050D03*
X003293Y007050D03*
X003293Y008050D03*
X004293Y008050D03*
X004293Y007050D03*
X004293Y006050D03*
X004293Y005050D03*
X004293Y004050D03*
X004293Y003050D03*
X004293Y002050D03*
X004293Y001050D03*
X010793Y001050D03*
X010793Y002050D03*
X011793Y002050D03*
X011793Y001050D03*
X011793Y003050D03*
X010793Y003050D03*
X010793Y004050D03*
X011793Y004050D03*
X011793Y005050D03*
X010793Y005050D03*
X010793Y006050D03*
X011793Y006050D03*
X011793Y007050D03*
X010793Y007050D03*
X010793Y008050D03*
X011793Y008050D03*
D11*
X002793Y008826D02*
X002793Y000445D01*
X002796Y000428D01*
X002816Y000390D01*
X002848Y000363D01*
X002888Y000350D01*
X002918Y000350D01*
X002993Y000356D01*
X003000Y000350D01*
X012295Y000350D01*
X012306Y000353D01*
X012331Y000370D01*
X012343Y000397D01*
X012343Y000423D01*
X012336Y000496D01*
X012343Y000505D01*
X012343Y009967D01*
X012342Y009983D01*
X012329Y010013D01*
X012306Y010036D01*
X012277Y010048D01*
X012260Y010050D01*
X002898Y010050D01*
X002878Y010047D01*
X002839Y010030D01*
X002810Y010000D01*
X012335Y010000D01*
X012343Y009902D02*
X002794Y009902D01*
X002793Y009936D02*
X002793Y009940D01*
X002795Y009960D01*
X002810Y010000D01*
X002793Y009936D02*
X002795Y009856D01*
X002793Y009854D01*
X002793Y009274D01*
X002845Y009295D01*
X002942Y009295D01*
X003032Y009258D01*
X003101Y009189D01*
X003138Y009099D01*
X003138Y009001D01*
X003101Y008911D01*
X003032Y008842D01*
X002942Y008805D01*
X002845Y008805D01*
X002793Y008826D01*
X002793Y008818D02*
X002813Y008818D01*
X002793Y008720D02*
X012343Y008720D01*
X012343Y008818D02*
X002973Y008818D01*
X003103Y008917D02*
X012343Y008917D01*
X012343Y009015D02*
X003138Y009015D01*
X003132Y009114D02*
X012343Y009114D01*
X012343Y009212D02*
X003078Y009212D01*
X003255Y009442D02*
X003345Y009405D01*
X003442Y009405D01*
X003532Y009442D01*
X003601Y009511D01*
X003638Y009601D01*
X003638Y009699D01*
X003601Y009789D01*
X003532Y009858D01*
X003442Y009895D01*
X003345Y009895D01*
X003255Y009858D01*
X003186Y009789D01*
X003148Y009699D01*
X003148Y009601D01*
X003186Y009511D01*
X003255Y009442D01*
X003335Y009409D02*
X002793Y009409D01*
X002793Y009311D02*
X012343Y009311D01*
X012343Y009409D02*
X005452Y009409D01*
X005442Y009405D02*
X005532Y009442D01*
X005601Y009511D01*
X005638Y009601D01*
X005638Y009699D01*
X005601Y009789D01*
X005532Y009858D01*
X005442Y009895D01*
X005345Y009895D01*
X005255Y009858D01*
X005186Y009789D01*
X005148Y009699D01*
X005148Y009601D01*
X005186Y009511D01*
X005255Y009442D01*
X005345Y009405D01*
X005442Y009405D01*
X005335Y009409D02*
X003452Y009409D01*
X003597Y009508D02*
X005189Y009508D01*
X005148Y009606D02*
X003638Y009606D01*
X003636Y009705D02*
X005151Y009705D01*
X005200Y009803D02*
X003587Y009803D01*
X003200Y009803D02*
X002793Y009803D01*
X002793Y009705D02*
X003151Y009705D01*
X003148Y009606D02*
X002793Y009606D01*
X002793Y009508D02*
X003189Y009508D01*
X002793Y008621D02*
X012343Y008621D01*
X012343Y008523D02*
X002793Y008523D01*
X002793Y008424D02*
X003125Y008424D01*
X003061Y008398D02*
X002946Y008282D01*
X002883Y008132D01*
X002883Y007968D01*
X002946Y007818D01*
X003061Y007702D01*
X003212Y007640D01*
X003375Y007640D01*
X003526Y007702D01*
X003641Y007818D01*
X003703Y007968D01*
X003703Y008132D01*
X003641Y008282D01*
X003526Y008398D01*
X003375Y008460D01*
X003212Y008460D01*
X003061Y008398D01*
X002989Y008326D02*
X002793Y008326D01*
X002793Y008227D02*
X002923Y008227D01*
X002883Y008129D02*
X002793Y008129D01*
X002793Y008030D02*
X002883Y008030D01*
X002899Y007932D02*
X002793Y007932D01*
X002793Y007833D02*
X002939Y007833D01*
X003029Y007735D02*
X002793Y007735D01*
X002793Y007636D02*
X012343Y007636D01*
X012343Y007538D02*
X002793Y007538D01*
X002793Y007439D02*
X004161Y007439D01*
X004212Y007460D02*
X004061Y007398D01*
X003946Y007282D01*
X003883Y007132D01*
X003883Y006968D01*
X003946Y006818D01*
X004061Y006702D01*
X004212Y006640D01*
X004375Y006640D01*
X004526Y006702D01*
X004641Y006818D01*
X004703Y006968D01*
X004703Y007132D01*
X004641Y007282D01*
X004526Y007398D01*
X004375Y007460D01*
X004212Y007460D01*
X004426Y007439D02*
X011661Y007439D01*
X011712Y007460D02*
X011561Y007398D01*
X011446Y007282D01*
X011383Y007132D01*
X011383Y006968D01*
X011446Y006818D01*
X011561Y006702D01*
X011712Y006640D01*
X011875Y006640D01*
X012026Y006702D01*
X012141Y006818D01*
X012203Y006968D01*
X012203Y007132D01*
X012141Y007282D01*
X012026Y007398D01*
X011875Y007460D01*
X011712Y007460D01*
X011926Y007439D02*
X012343Y007439D01*
X012343Y007341D02*
X012083Y007341D01*
X012158Y007242D02*
X012343Y007242D01*
X012343Y007144D02*
X012198Y007144D01*
X012203Y007045D02*
X012343Y007045D01*
X012343Y006947D02*
X012194Y006947D01*
X012153Y006848D02*
X012343Y006848D01*
X012343Y006750D02*
X012073Y006750D01*
X011901Y006651D02*
X012343Y006651D01*
X012343Y006553D02*
X008568Y006553D01*
X008551Y006511D02*
X008588Y006601D01*
X008588Y006699D01*
X008551Y006789D01*
X008482Y006858D01*
X008392Y006895D01*
X008295Y006895D01*
X008205Y006858D01*
X008136Y006789D01*
X008098Y006699D01*
X008098Y006601D01*
X008136Y006511D01*
X008205Y006442D01*
X008295Y006405D01*
X008392Y006405D01*
X008482Y006442D01*
X008551Y006511D01*
X008494Y006454D02*
X011697Y006454D01*
X011712Y006460D02*
X011561Y006398D01*
X011446Y006282D01*
X011383Y006132D01*
X011383Y005968D01*
X011446Y005818D01*
X011561Y005702D01*
X011712Y005640D01*
X011875Y005640D01*
X012026Y005702D01*
X012141Y005818D01*
X012203Y005968D01*
X012203Y006132D01*
X012141Y006282D01*
X012026Y006398D01*
X011875Y006460D01*
X011712Y006460D01*
X011889Y006454D02*
X012343Y006454D01*
X012343Y006356D02*
X012068Y006356D01*
X012151Y006257D02*
X012343Y006257D01*
X012343Y006159D02*
X012192Y006159D01*
X012203Y006060D02*
X012343Y006060D01*
X012343Y005962D02*
X012200Y005962D01*
X012160Y005863D02*
X012343Y005863D01*
X012343Y005765D02*
X012088Y005765D01*
X011938Y005666D02*
X012343Y005666D01*
X012343Y005568D02*
X002793Y005568D01*
X002793Y005666D02*
X004149Y005666D01*
X004212Y005640D02*
X004061Y005702D01*
X003946Y005818D01*
X003883Y005968D01*
X003883Y006132D01*
X003946Y006282D01*
X004061Y006398D01*
X004212Y006460D01*
X004375Y006460D01*
X004526Y006398D01*
X004641Y006282D01*
X004703Y006132D01*
X004703Y005968D01*
X004641Y005818D01*
X004526Y005702D01*
X004375Y005640D01*
X004212Y005640D01*
X004212Y005460D02*
X004061Y005398D01*
X003946Y005282D01*
X003883Y005132D01*
X003883Y004968D01*
X003946Y004818D01*
X004061Y004702D01*
X004212Y004640D01*
X004375Y004640D01*
X004526Y004702D01*
X004641Y004818D01*
X004703Y004968D01*
X004703Y005132D01*
X004641Y005282D01*
X004526Y005398D01*
X004375Y005460D01*
X004212Y005460D01*
X004438Y005666D02*
X011649Y005666D01*
X011499Y005765D02*
X004588Y005765D01*
X004660Y005863D02*
X011427Y005863D01*
X011386Y005962D02*
X008093Y005962D01*
X008107Y005967D02*
X008176Y006036D01*
X008213Y006126D01*
X008213Y006224D01*
X008176Y006314D01*
X008107Y006383D01*
X008017Y006420D01*
X007920Y006420D01*
X007830Y006383D01*
X007761Y006314D01*
X007723Y006224D01*
X007723Y006126D01*
X007761Y006036D01*
X007830Y005967D01*
X007920Y005930D01*
X008017Y005930D01*
X008107Y005967D01*
X008186Y006060D02*
X011383Y006060D01*
X011394Y006159D02*
X008213Y006159D01*
X008200Y006257D02*
X011435Y006257D01*
X011519Y006356D02*
X008134Y006356D01*
X008193Y006454D02*
X006919Y006454D01*
X006907Y006442D02*
X006976Y006511D01*
X007013Y006601D01*
X007013Y006699D01*
X006976Y006789D01*
X006907Y006858D01*
X006817Y006895D01*
X006720Y006895D01*
X006630Y006858D01*
X006561Y006789D01*
X006523Y006699D01*
X006523Y006601D01*
X006561Y006511D01*
X006630Y006442D01*
X006720Y006405D01*
X006817Y006405D01*
X006907Y006442D01*
X006977Y006356D02*
X004568Y006356D01*
X004651Y006257D02*
X006927Y006257D01*
X006923Y006249D02*
X006923Y006151D01*
X006961Y006061D01*
X007030Y005992D01*
X007120Y005955D01*
X007217Y005955D01*
X007307Y005992D01*
X007376Y006061D01*
X007413Y006151D01*
X007413Y006249D01*
X007376Y006339D01*
X007307Y006408D01*
X007217Y006445D01*
X007120Y006445D01*
X007030Y006408D01*
X006961Y006339D01*
X006923Y006249D01*
X006923Y006159D02*
X004692Y006159D01*
X004703Y006060D02*
X006962Y006060D01*
X007104Y005962D02*
X004700Y005962D01*
X004389Y006454D02*
X006618Y006454D01*
X006543Y006553D02*
X002793Y006553D01*
X002793Y006651D02*
X004185Y006651D01*
X004014Y006750D02*
X002793Y006750D01*
X002793Y006848D02*
X003933Y006848D01*
X003892Y006947D02*
X002793Y006947D01*
X002793Y007045D02*
X003883Y007045D01*
X003888Y007144D02*
X002793Y007144D01*
X002793Y007242D02*
X003929Y007242D01*
X004004Y007341D02*
X002793Y007341D01*
X003558Y007735D02*
X004029Y007735D01*
X004061Y007702D02*
X004212Y007640D01*
X004375Y007640D01*
X004526Y007702D01*
X004641Y007818D01*
X004703Y007968D01*
X004703Y008132D01*
X004641Y008282D01*
X004526Y008398D01*
X004375Y008460D01*
X004212Y008460D01*
X004061Y008398D01*
X003946Y008282D01*
X003883Y008132D01*
X003883Y007968D01*
X003946Y007818D01*
X004061Y007702D01*
X003939Y007833D02*
X003647Y007833D01*
X003688Y007932D02*
X003899Y007932D01*
X003883Y008030D02*
X003703Y008030D01*
X003703Y008129D02*
X003883Y008129D01*
X003923Y008227D02*
X003664Y008227D01*
X003598Y008326D02*
X003989Y008326D01*
X004125Y008424D02*
X003462Y008424D01*
X004462Y008424D02*
X010625Y008424D01*
X010561Y008398D02*
X010446Y008282D01*
X010383Y008132D01*
X010383Y007968D01*
X010446Y007818D01*
X010561Y007702D01*
X010712Y007640D01*
X010875Y007640D01*
X011026Y007702D01*
X011141Y007818D01*
X011203Y007968D01*
X011203Y008132D01*
X011141Y008282D01*
X011026Y008398D01*
X010875Y008460D01*
X010712Y008460D01*
X010561Y008398D01*
X010489Y008326D02*
X004598Y008326D01*
X004664Y008227D02*
X010423Y008227D01*
X010383Y008129D02*
X004703Y008129D01*
X004703Y008030D02*
X010383Y008030D01*
X010399Y007932D02*
X004688Y007932D01*
X004647Y007833D02*
X010439Y007833D01*
X010529Y007735D02*
X004558Y007735D01*
X004583Y007341D02*
X011504Y007341D01*
X011429Y007242D02*
X004658Y007242D01*
X004698Y007144D02*
X011388Y007144D01*
X011383Y007045D02*
X004703Y007045D01*
X004694Y006947D02*
X011392Y006947D01*
X011433Y006848D02*
X008492Y006848D01*
X008567Y006750D02*
X011514Y006750D01*
X011685Y006651D02*
X008588Y006651D01*
X008195Y006848D02*
X006917Y006848D01*
X006992Y006750D02*
X008119Y006750D01*
X008098Y006651D02*
X007013Y006651D01*
X006993Y006553D02*
X008118Y006553D01*
X007802Y006356D02*
X007359Y006356D01*
X007410Y006257D02*
X007737Y006257D01*
X007723Y006159D02*
X007413Y006159D01*
X007375Y006060D02*
X007751Y006060D01*
X007843Y005962D02*
X007233Y005962D01*
X006523Y006651D02*
X004401Y006651D01*
X004573Y006750D02*
X006544Y006750D01*
X006620Y006848D02*
X004653Y006848D01*
X004197Y006454D02*
X002793Y006454D01*
X002793Y006356D02*
X004019Y006356D01*
X003935Y006257D02*
X002793Y006257D01*
X002793Y006159D02*
X003894Y006159D01*
X003883Y006060D02*
X002793Y006060D01*
X002793Y005962D02*
X003886Y005962D01*
X003927Y005863D02*
X002793Y005863D01*
X002793Y005765D02*
X003999Y005765D01*
X004034Y005371D02*
X002793Y005371D01*
X002793Y005469D02*
X012343Y005469D01*
X012343Y005371D02*
X012053Y005371D01*
X012026Y005398D02*
X011875Y005460D01*
X011712Y005460D01*
X011561Y005398D01*
X011446Y005282D01*
X011383Y005132D01*
X011383Y004968D01*
X011446Y004818D01*
X011561Y004702D01*
X011712Y004640D01*
X011875Y004640D01*
X012026Y004702D01*
X012141Y004818D01*
X012203Y004968D01*
X012203Y005132D01*
X012141Y005282D01*
X012026Y005398D01*
X012145Y005272D02*
X012343Y005272D01*
X012343Y005174D02*
X012186Y005174D01*
X012203Y005075D02*
X012343Y005075D01*
X012343Y004977D02*
X012203Y004977D01*
X012166Y004878D02*
X012343Y004878D01*
X012343Y004780D02*
X012103Y004780D01*
X011974Y004681D02*
X012343Y004681D01*
X012343Y004583D02*
X002793Y004583D01*
X002793Y004681D02*
X004113Y004681D01*
X003984Y004780D02*
X002793Y004780D01*
X002793Y004878D02*
X003921Y004878D01*
X003883Y004977D02*
X002793Y004977D01*
X002793Y005075D02*
X003883Y005075D01*
X003901Y005174D02*
X002793Y005174D01*
X002793Y005272D02*
X003941Y005272D01*
X004553Y005371D02*
X011534Y005371D01*
X011441Y005272D02*
X004645Y005272D01*
X004686Y005174D02*
X011401Y005174D01*
X011383Y005075D02*
X004703Y005075D01*
X004703Y004977D02*
X011383Y004977D01*
X011421Y004878D02*
X004666Y004878D01*
X004603Y004780D02*
X011484Y004780D01*
X011613Y004681D02*
X004474Y004681D01*
X004375Y004460D02*
X004212Y004460D01*
X004061Y004398D01*
X003946Y004282D01*
X003883Y004132D01*
X003883Y003968D01*
X003946Y003818D01*
X004061Y003702D01*
X004212Y003640D01*
X004375Y003640D01*
X004526Y003702D01*
X004641Y003818D01*
X004703Y003968D01*
X004703Y004132D01*
X004641Y004282D01*
X004526Y004398D01*
X004375Y004460D01*
X004538Y004386D02*
X011549Y004386D01*
X011561Y004398D02*
X011446Y004282D01*
X011383Y004132D01*
X011383Y003968D01*
X011446Y003818D01*
X011561Y003702D01*
X011712Y003640D01*
X011875Y003640D01*
X012026Y003702D01*
X012141Y003818D01*
X012203Y003968D01*
X012203Y004132D01*
X012141Y004282D01*
X012026Y004398D01*
X011875Y004460D01*
X011712Y004460D01*
X011561Y004398D01*
X011450Y004287D02*
X004636Y004287D01*
X004680Y004189D02*
X011407Y004189D01*
X011383Y004090D02*
X004703Y004090D01*
X004703Y003992D02*
X011383Y003992D01*
X011415Y003893D02*
X004672Y003893D01*
X004618Y003795D02*
X011469Y003795D01*
X011577Y003696D02*
X004510Y003696D01*
X004375Y003460D02*
X004212Y003460D01*
X004061Y003398D01*
X003946Y003282D01*
X003883Y003132D01*
X003883Y002968D01*
X003946Y002818D01*
X004061Y002702D01*
X004212Y002640D01*
X004375Y002640D01*
X004526Y002702D01*
X004641Y002818D01*
X004703Y002968D01*
X004703Y003132D01*
X004641Y003282D01*
X004526Y003398D01*
X004375Y003460D01*
X004518Y003401D02*
X011568Y003401D01*
X011561Y003398D02*
X011446Y003282D01*
X011383Y003132D01*
X011383Y002968D01*
X011446Y002818D01*
X011561Y002702D01*
X011712Y002640D01*
X011875Y002640D01*
X012026Y002702D01*
X012141Y002818D01*
X012203Y002968D01*
X012203Y003132D01*
X012141Y003282D01*
X012026Y003398D01*
X011875Y003460D01*
X011712Y003460D01*
X011561Y003398D01*
X011465Y003302D02*
X004621Y003302D01*
X004674Y003204D02*
X011413Y003204D01*
X011383Y003105D02*
X004703Y003105D01*
X004703Y003007D02*
X011383Y003007D01*
X011408Y002908D02*
X004678Y002908D01*
X004633Y002810D02*
X011454Y002810D01*
X011552Y002711D02*
X004534Y002711D01*
X004375Y002460D02*
X004212Y002460D01*
X004061Y002398D01*
X003946Y002282D01*
X003883Y002132D01*
X003883Y001968D01*
X003946Y001818D01*
X004061Y001702D01*
X004212Y001640D01*
X004375Y001640D01*
X004526Y001702D01*
X004641Y001818D01*
X004703Y001968D01*
X004703Y002132D01*
X004641Y002282D01*
X004526Y002398D01*
X004375Y002460D01*
X004482Y002416D02*
X011604Y002416D01*
X011561Y002398D02*
X011446Y002282D01*
X011383Y002132D01*
X011383Y001968D01*
X011446Y001818D01*
X011561Y001702D01*
X011712Y001640D01*
X011875Y001640D01*
X012026Y001702D01*
X012141Y001818D01*
X012203Y001968D01*
X012203Y002132D01*
X012141Y002282D01*
X012026Y002398D01*
X011875Y002460D01*
X011712Y002460D01*
X011561Y002398D01*
X011480Y002317D02*
X004606Y002317D01*
X004667Y002219D02*
X011419Y002219D01*
X011383Y002120D02*
X004703Y002120D01*
X004703Y002022D02*
X011383Y002022D01*
X011402Y001923D02*
X004684Y001923D01*
X004644Y001825D02*
X006246Y001825D01*
X006280Y001858D02*
X006211Y001789D01*
X006173Y001699D01*
X006173Y001601D01*
X006211Y001511D01*
X006280Y001442D01*
X006370Y001405D01*
X006467Y001405D01*
X006557Y001442D01*
X006626Y001511D01*
X006663Y001601D01*
X006663Y001699D01*
X006626Y001789D01*
X006557Y001858D01*
X006467Y001895D01*
X006370Y001895D01*
X006280Y001858D01*
X006185Y001726D02*
X004549Y001726D01*
X004446Y001431D02*
X006308Y001431D01*
X006203Y001529D02*
X002793Y001529D01*
X002793Y001431D02*
X004141Y001431D01*
X004212Y001460D02*
X004061Y001398D01*
X003946Y001282D01*
X003883Y001132D01*
X003883Y000968D01*
X003946Y000818D01*
X004061Y000702D01*
X004212Y000640D01*
X004375Y000640D01*
X004526Y000702D01*
X004641Y000818D01*
X004703Y000968D01*
X004703Y001132D01*
X004641Y001282D01*
X004526Y001398D01*
X004375Y001460D01*
X004212Y001460D01*
X003995Y001332D02*
X002793Y001332D01*
X002793Y001234D02*
X003926Y001234D01*
X003885Y001135D02*
X002793Y001135D01*
X002793Y001037D02*
X003883Y001037D01*
X003896Y000938D02*
X002793Y000938D01*
X002793Y000840D02*
X003937Y000840D01*
X004022Y000741D02*
X002793Y000741D01*
X002793Y000643D02*
X004206Y000643D01*
X004381Y000643D02*
X011706Y000643D01*
X011712Y000640D02*
X011875Y000640D01*
X012026Y000702D01*
X012141Y000818D01*
X012203Y000968D01*
X012203Y001132D01*
X012141Y001282D01*
X012026Y001398D01*
X011875Y001460D01*
X011712Y001460D01*
X011561Y001398D01*
X011446Y001282D01*
X011383Y001132D01*
X011383Y000968D01*
X011446Y000818D01*
X011561Y000702D01*
X011712Y000640D01*
X011881Y000643D02*
X012343Y000643D01*
X012343Y000741D02*
X012064Y000741D01*
X012150Y000840D02*
X012343Y000840D01*
X012343Y000938D02*
X012191Y000938D01*
X012203Y001037D02*
X012343Y001037D01*
X012343Y001135D02*
X012202Y001135D01*
X012161Y001234D02*
X012343Y001234D01*
X012343Y001332D02*
X012091Y001332D01*
X011946Y001431D02*
X012343Y001431D01*
X012343Y001529D02*
X006633Y001529D01*
X006663Y001628D02*
X012343Y001628D01*
X012343Y001726D02*
X012049Y001726D01*
X012144Y001825D02*
X012343Y001825D01*
X012343Y001923D02*
X012184Y001923D01*
X012203Y002022D02*
X012343Y002022D01*
X012343Y002120D02*
X012203Y002120D01*
X012167Y002219D02*
X012343Y002219D01*
X012343Y002317D02*
X012106Y002317D01*
X011982Y002416D02*
X012343Y002416D01*
X012343Y002514D02*
X002793Y002514D01*
X002793Y002416D02*
X004104Y002416D01*
X003980Y002317D02*
X002793Y002317D01*
X002793Y002219D02*
X003919Y002219D01*
X003883Y002120D02*
X002793Y002120D01*
X002793Y002022D02*
X003883Y002022D01*
X003902Y001923D02*
X002793Y001923D01*
X002793Y001825D02*
X003943Y001825D01*
X004037Y001726D02*
X002793Y001726D01*
X002793Y001628D02*
X006173Y001628D01*
X006529Y001431D02*
X011641Y001431D01*
X011495Y001332D02*
X004591Y001332D01*
X004661Y001234D02*
X011426Y001234D01*
X011385Y001135D02*
X004702Y001135D01*
X004703Y001037D02*
X011383Y001037D01*
X011396Y000938D02*
X004691Y000938D01*
X004650Y000840D02*
X011437Y000840D01*
X011522Y000741D02*
X004564Y000741D01*
X002793Y000544D02*
X012343Y000544D01*
X012341Y000446D02*
X002793Y000446D01*
X002793Y002613D02*
X012343Y002613D01*
X012343Y002711D02*
X012034Y002711D01*
X012133Y002810D02*
X012343Y002810D01*
X012343Y002908D02*
X012178Y002908D01*
X012203Y003007D02*
X012343Y003007D01*
X012343Y003105D02*
X012203Y003105D01*
X012174Y003204D02*
X012343Y003204D01*
X012343Y003302D02*
X012121Y003302D01*
X012018Y003401D02*
X012343Y003401D01*
X012343Y003499D02*
X002793Y003499D01*
X002793Y003401D02*
X004068Y003401D01*
X003965Y003302D02*
X002793Y003302D01*
X002793Y003204D02*
X003913Y003204D01*
X003883Y003105D02*
X002793Y003105D01*
X002793Y003007D02*
X003883Y003007D01*
X003908Y002908D02*
X002793Y002908D01*
X002793Y002810D02*
X003954Y002810D01*
X004052Y002711D02*
X002793Y002711D01*
X002793Y003598D02*
X012343Y003598D01*
X012343Y003696D02*
X012010Y003696D01*
X012118Y003795D02*
X012343Y003795D01*
X012343Y003893D02*
X012172Y003893D01*
X012203Y003992D02*
X012343Y003992D01*
X012343Y004090D02*
X012203Y004090D01*
X012180Y004189D02*
X012343Y004189D01*
X012343Y004287D02*
X012136Y004287D01*
X012038Y004386D02*
X012343Y004386D01*
X012343Y004484D02*
X002793Y004484D01*
X002793Y004386D02*
X004049Y004386D01*
X003950Y004287D02*
X002793Y004287D01*
X002793Y004189D02*
X003907Y004189D01*
X003883Y004090D02*
X002793Y004090D01*
X002793Y003992D02*
X003883Y003992D01*
X003915Y003893D02*
X002793Y003893D01*
X002793Y003795D02*
X003969Y003795D01*
X004077Y003696D02*
X002793Y003696D01*
X006590Y001825D02*
X011443Y001825D01*
X011537Y001726D02*
X006652Y001726D01*
X011058Y007735D02*
X011529Y007735D01*
X011561Y007702D02*
X011446Y007818D01*
X011383Y007968D01*
X011383Y008132D01*
X011446Y008282D01*
X011561Y008398D01*
X011712Y008460D01*
X011875Y008460D01*
X012026Y008398D01*
X012141Y008282D01*
X012203Y008132D01*
X012203Y007968D01*
X012141Y007818D01*
X012026Y007702D01*
X011875Y007640D01*
X011712Y007640D01*
X011561Y007702D01*
X011439Y007833D02*
X011147Y007833D01*
X011188Y007932D02*
X011399Y007932D01*
X011383Y008030D02*
X011203Y008030D01*
X011203Y008129D02*
X011383Y008129D01*
X011423Y008227D02*
X011164Y008227D01*
X011098Y008326D02*
X011489Y008326D01*
X011625Y008424D02*
X010962Y008424D01*
X011962Y008424D02*
X012343Y008424D01*
X012343Y008326D02*
X012098Y008326D01*
X012164Y008227D02*
X012343Y008227D01*
X012343Y008129D02*
X012203Y008129D01*
X012203Y008030D02*
X012343Y008030D01*
X012343Y007932D02*
X012188Y007932D01*
X012147Y007833D02*
X012343Y007833D01*
X012343Y007735D02*
X012058Y007735D01*
X012343Y009508D02*
X005597Y009508D01*
X005638Y009606D02*
X012343Y009606D01*
X012343Y009705D02*
X005636Y009705D01*
X005587Y009803D02*
X012343Y009803D01*
D12*
X009043Y006650D03*
X009468Y006200D03*
X008343Y006650D03*
X007968Y006175D03*
X007168Y006200D03*
X006768Y006650D03*
X006068Y006650D03*
X005668Y006200D03*
X005243Y008850D03*
X004693Y009050D03*
X004193Y009650D03*
X003393Y009650D03*
X002893Y009050D03*
X005393Y009650D03*
X006418Y001650D03*
D13*
X008718Y002900D03*
M02*
