G75*
G70*
%OFA0B0*%
%FSLAX24Y24*%
%IPPOS*%
%LPD*%
%AMOC8*
5,1,8,0,0,1.08239X$1,22.5*
%
%ADD10OC8,0.0660*%
%ADD11C,0.0270*%
%ADD12C,0.0376*%
D10*
X003293Y001050D03*
X003293Y002050D03*
X003293Y003050D03*
X003293Y004050D03*
X003293Y005050D03*
X003293Y006050D03*
X003293Y007050D03*
X003293Y008050D03*
X004293Y008050D03*
X004293Y007050D03*
X004293Y006050D03*
X004293Y005050D03*
X004293Y004050D03*
X004293Y003050D03*
X004293Y002050D03*
X004293Y001050D03*
X010793Y001050D03*
X010793Y002050D03*
X011793Y002050D03*
X011793Y001050D03*
X011793Y003050D03*
X010793Y003050D03*
X010793Y004050D03*
X011793Y004050D03*
X011793Y005050D03*
X010793Y005050D03*
X010793Y006050D03*
X011793Y006050D03*
X011793Y007050D03*
X010793Y007050D03*
X010793Y008050D03*
X011793Y008050D03*
D11*
X009468Y006200D03*
X009043Y006650D03*
X008343Y006650D03*
X007968Y006175D03*
X007168Y006200D03*
X006768Y006650D03*
X006068Y006650D03*
X005668Y006200D03*
X005243Y008850D03*
X004693Y009050D03*
X004193Y009650D03*
X003393Y009650D03*
X002893Y009050D03*
X005393Y009650D03*
X006418Y001650D03*
D12*
X008718Y002900D03*
M02*
