%
M48
M72
T01C0.0130
T02C0.0236
T03C0.0400
%
T01
X5668Y6200
X6068Y6650
X6768Y6650
X7168Y6200
X7968Y6175
X8343Y6650
X9043Y6650
X9468Y6200
X5393Y9650
X5243Y8850
X4693Y9050
X4193Y9650
X3393Y9650
X2893Y9050
X6418Y1650
T02
X8718Y2900
T03
X3293Y1050
X3293Y2050
X3293Y3050
X3293Y4050
X3293Y5050
X3293Y6050
X3293Y7050
X3293Y8050
X4293Y8050
X4293Y7050
X4293Y6050
X4293Y5050
X4293Y4050
X4293Y3050
X4293Y2050
X4293Y1050
X10793Y1050
X10793Y2050
X11793Y2050
X11793Y1050
X11793Y3050
X10793Y3050
X10793Y4050
X11793Y4050
X11793Y5050
X10793Y5050
X10793Y6050
X11793Y6050
X11793Y7050
X10793Y7050
X10793Y8050
X11793Y8050
M30
