G75*
G70*
%OFA0B0*%
%FSLAX24Y24*%
%IPPOS*%
%LPD*%
%AMOC8*
5,1,8,0,0,1.08239X$1,22.5*
%
%ADD10C,0.0020*%
%ADD11R,0.5300X0.1000*%
%ADD12R,0.0090X0.0003*%
%ADD13R,0.0205X0.0003*%
%ADD14R,0.0270X0.0003*%
%ADD15R,0.0335X0.0003*%
%ADD16R,0.0375X0.0003*%
%ADD17R,0.0413X0.0003*%
%ADD18R,0.0450X0.0003*%
%ADD19R,0.0490X0.0003*%
%ADD20R,0.0520X0.0003*%
%ADD21R,0.0545X0.0003*%
%ADD22R,0.0575X0.0003*%
%ADD23R,0.0605X0.0003*%
%ADD24R,0.0630X0.0003*%
%ADD25R,0.0655X0.0003*%
%ADD26R,0.0275X0.0003*%
%ADD27R,0.0403X0.0003*%
%ADD28R,0.0243X0.0003*%
%ADD29R,0.0430X0.0003*%
%ADD30R,0.0220X0.0003*%
%ADD31R,0.0460X0.0003*%
%ADD32R,0.0208X0.0003*%
%ADD33R,0.0198X0.0003*%
%ADD34R,0.0515X0.0003*%
%ADD35R,0.0185X0.0003*%
%ADD36R,0.0540X0.0003*%
%ADD37R,0.0175X0.0003*%
%ADD38R,0.0563X0.0003*%
%ADD39R,0.0170X0.0003*%
%ADD40R,0.0583X0.0003*%
%ADD41R,0.0163X0.0003*%
%ADD42R,0.0602X0.0003*%
%ADD43R,0.0160X0.0003*%
%ADD44R,0.0623X0.0003*%
%ADD45R,0.0153X0.0003*%
%ADD46R,0.0640X0.0003*%
%ADD47R,0.0147X0.0003*%
%ADD48R,0.0658X0.0003*%
%ADD49R,0.0143X0.0003*%
%ADD50R,0.0678X0.0003*%
%ADD51R,0.0693X0.0003*%
%ADD52R,0.0138X0.0003*%
%ADD53R,0.0712X0.0003*%
%ADD54R,0.0727X0.0003*%
%ADD55R,0.0133X0.0003*%
%ADD56R,0.0742X0.0003*%
%ADD57R,0.0130X0.0003*%
%ADD58R,0.0757X0.0003*%
%ADD59R,0.0125X0.0003*%
%ADD60R,0.0772X0.0003*%
%ADD61R,0.0123X0.0003*%
%ADD62R,0.0785X0.0003*%
%ADD63R,0.0120X0.0003*%
%ADD64R,0.0800X0.0003*%
%ADD65R,0.0118X0.0003*%
%ADD66R,0.0810X0.0003*%
%ADD67R,0.0825X0.0003*%
%ADD68R,0.0115X0.0003*%
%ADD69R,0.0838X0.0003*%
%ADD70R,0.0113X0.0003*%
%ADD71R,0.0853X0.0003*%
%ADD72R,0.0865X0.0003*%
%ADD73R,0.0110X0.0003*%
%ADD74R,0.0877X0.0003*%
%ADD75R,0.0107X0.0003*%
%ADD76R,0.0890X0.0003*%
%ADD77R,0.0902X0.0003*%
%ADD78R,0.0105X0.0003*%
%ADD79R,0.0912X0.0003*%
%ADD80R,0.0925X0.0003*%
%ADD81R,0.0103X0.0003*%
%ADD82R,0.0935X0.0003*%
%ADD83R,0.0948X0.0003*%
%ADD84R,0.0100X0.0003*%
%ADD85R,0.0958X0.0003*%
%ADD86R,0.0970X0.0003*%
%ADD87R,0.0098X0.0003*%
%ADD88R,0.0980X0.0003*%
%ADD89R,0.0993X0.0003*%
%ADD90R,0.0095X0.0003*%
%ADD91R,0.1003X0.0003*%
%ADD92R,0.0092X0.0003*%
%ADD93R,0.1013X0.0003*%
%ADD94R,0.1025X0.0003*%
%ADD95R,0.1032X0.0003*%
%ADD96R,0.1043X0.0003*%
%ADD97R,0.1053X0.0003*%
%ADD98R,0.0088X0.0003*%
%ADD99R,0.1065X0.0003*%
%ADD100R,0.1073X0.0003*%
%ADD101R,0.1083X0.0003*%
%ADD102R,0.1093X0.0003*%
%ADD103R,0.0085X0.0003*%
%ADD104R,0.1100X0.0003*%
%ADD105R,0.1113X0.0003*%
%ADD106R,0.1120X0.0003*%
%ADD107R,0.1130X0.0003*%
%ADD108R,0.1138X0.0003*%
%ADD109R,0.0083X0.0003*%
%ADD110R,0.1148X0.0003*%
%ADD111R,0.0080X0.0003*%
%ADD112R,0.1155X0.0003*%
%ADD113R,0.1163X0.0003*%
%ADD114R,0.1170X0.0003*%
%ADD115R,0.1180X0.0003*%
%ADD116R,0.0077X0.0003*%
%ADD117R,0.1187X0.0003*%
%ADD118R,0.1198X0.0003*%
%ADD119R,0.1205X0.0003*%
%ADD120R,0.1213X0.0003*%
%ADD121R,0.1223X0.0003*%
%ADD122R,0.1230X0.0003*%
%ADD123R,0.1238X0.0003*%
%ADD124R,0.1248X0.0003*%
%ADD125R,0.0075X0.0003*%
%ADD126R,0.1253X0.0003*%
%ADD127R,0.1260X0.0003*%
%ADD128R,0.1268X0.0003*%
%ADD129R,0.1278X0.0003*%
%ADD130R,0.0073X0.0003*%
%ADD131R,0.1283X0.0003*%
%ADD132R,0.1290X0.0003*%
%ADD133R,0.1300X0.0003*%
%ADD134R,0.1308X0.0003*%
%ADD135R,0.0070X0.0003*%
%ADD136R,0.1313X0.0003*%
%ADD137R,0.1320X0.0003*%
%ADD138R,0.1328X0.0003*%
%ADD139R,0.1335X0.0003*%
%ADD140R,0.1343X0.0003*%
%ADD141R,0.1350X0.0003*%
%ADD142R,0.1358X0.0003*%
%ADD143R,0.1363X0.0003*%
%ADD144R,0.1370X0.0003*%
%ADD145R,0.0067X0.0003*%
%ADD146R,0.1375X0.0003*%
%ADD147R,0.1383X0.0003*%
%ADD148R,0.1390X0.0003*%
%ADD149R,0.1395X0.0003*%
%ADD150R,0.1403X0.0003*%
%ADD151R,0.0065X0.0003*%
%ADD152R,0.1407X0.0003*%
%ADD153R,0.1415X0.0003*%
%ADD154R,0.1422X0.0003*%
%ADD155R,0.1430X0.0003*%
%ADD156R,0.1437X0.0003*%
%ADD157R,0.1442X0.0003*%
%ADD158R,0.1450X0.0003*%
%ADD159R,0.1452X0.0003*%
%ADD160R,0.1460X0.0003*%
%ADD161R,0.1465X0.0003*%
%ADD162R,0.0063X0.0003*%
%ADD163R,0.1472X0.0003*%
%ADD164R,0.1477X0.0003*%
%ADD165R,0.1482X0.0003*%
%ADD166R,0.1490X0.0003*%
%ADD167R,0.1495X0.0003*%
%ADD168R,0.1502X0.0003*%
%ADD169R,0.1508X0.0003*%
%ADD170R,0.0060X0.0003*%
%ADD171R,0.1513X0.0003*%
%ADD172R,0.1520X0.0003*%
%ADD173R,0.1525X0.0003*%
%ADD174R,0.1530X0.0003*%
%ADD175R,0.1535X0.0003*%
%ADD176R,0.1540X0.0003*%
%ADD177R,0.1548X0.0003*%
%ADD178R,0.1553X0.0003*%
%ADD179R,0.1560X0.0003*%
%ADD180R,0.1565X0.0003*%
%ADD181R,0.1570X0.0003*%
%ADD182R,0.1575X0.0003*%
%ADD183R,0.1580X0.0003*%
%ADD184R,0.0057X0.0003*%
%ADD185R,0.1585X0.0003*%
%ADD186R,0.1590X0.0003*%
%ADD187R,0.1595X0.0003*%
%ADD188R,0.1600X0.0003*%
%ADD189R,0.1605X0.0003*%
%ADD190R,0.0055X0.0003*%
%ADD191R,0.1613X0.0003*%
%ADD192R,0.1618X0.0003*%
%ADD193R,0.1620X0.0003*%
%ADD194R,0.1625X0.0003*%
%ADD195R,0.1633X0.0003*%
%ADD196R,0.1638X0.0003*%
%ADD197R,0.1640X0.0003*%
%ADD198R,0.1645X0.0003*%
%ADD199R,0.1653X0.0003*%
%ADD200R,0.1655X0.0003*%
%ADD201R,0.1660X0.0003*%
%ADD202R,0.1665X0.0003*%
%ADD203R,0.1673X0.0003*%
%ADD204R,0.1675X0.0003*%
%ADD205R,0.1680X0.0003*%
%ADD206R,0.1685X0.0003*%
%ADD207R,0.1688X0.0003*%
%ADD208R,0.0053X0.0003*%
%ADD209R,0.1693X0.0003*%
%ADD210R,0.1700X0.0003*%
%ADD211R,0.1703X0.0003*%
%ADD212R,0.1708X0.0003*%
%ADD213R,0.1713X0.0003*%
%ADD214R,0.1715X0.0003*%
%ADD215R,0.1720X0.0003*%
%ADD216R,0.1725X0.0003*%
%ADD217R,0.1730X0.0003*%
%ADD218R,0.1735X0.0003*%
%ADD219R,0.1737X0.0003*%
%ADD220R,0.1742X0.0003*%
%ADD221R,0.1747X0.0003*%
%ADD222R,0.1750X0.0003*%
%ADD223R,0.1755X0.0003*%
%ADD224R,0.1757X0.0003*%
%ADD225R,0.0050X0.0003*%
%ADD226R,0.1765X0.0003*%
%ADD227R,0.1770X0.0003*%
%ADD228R,0.1772X0.0003*%
%ADD229R,0.1777X0.0003*%
%ADD230R,0.1780X0.0003*%
%ADD231R,0.1785X0.0003*%
%ADD232R,0.1787X0.0003*%
%ADD233R,0.1792X0.0003*%
%ADD234R,0.1797X0.0003*%
%ADD235R,0.1800X0.0003*%
%ADD236R,0.1805X0.0003*%
%ADD237R,0.1807X0.0003*%
%ADD238R,0.1812X0.0003*%
%ADD239R,0.1815X0.0003*%
%ADD240R,0.1820X0.0003*%
%ADD241R,0.1823X0.0003*%
%ADD242R,0.1828X0.0003*%
%ADD243R,0.1830X0.0003*%
%ADD244R,0.1835X0.0003*%
%ADD245R,0.1838X0.0003*%
%ADD246R,0.1843X0.0003*%
%ADD247R,0.1845X0.0003*%
%ADD248R,0.1850X0.0003*%
%ADD249R,0.0047X0.0003*%
%ADD250R,0.1853X0.0003*%
%ADD251R,0.1858X0.0003*%
%ADD252R,0.1860X0.0003*%
%ADD253R,0.1865X0.0003*%
%ADD254R,0.1868X0.0003*%
%ADD255R,0.1873X0.0003*%
%ADD256R,0.1875X0.0003*%
%ADD257R,0.1878X0.0003*%
%ADD258R,0.1883X0.0003*%
%ADD259R,0.1885X0.0003*%
%ADD260R,0.1890X0.0003*%
%ADD261R,0.1893X0.0003*%
%ADD262R,0.1898X0.0003*%
%ADD263R,0.1900X0.0003*%
%ADD264R,0.1905X0.0003*%
%ADD265R,0.1908X0.0003*%
%ADD266R,0.1913X0.0003*%
%ADD267R,0.1915X0.0003*%
%ADD268R,0.1920X0.0003*%
%ADD269R,0.1923X0.0003*%
%ADD270R,0.1925X0.0003*%
%ADD271R,0.1930X0.0003*%
%ADD272R,0.1933X0.0003*%
%ADD273R,0.0045X0.0003*%
%ADD274R,0.1938X0.0003*%
%ADD275R,0.1940X0.0003*%
%ADD276R,0.1945X0.0003*%
%ADD277R,0.1948X0.0003*%
%ADD278R,0.1950X0.0003*%
%ADD279R,0.1955X0.0003*%
%ADD280R,0.1958X0.0003*%
%ADD281R,0.1960X0.0003*%
%ADD282R,0.1963X0.0003*%
%ADD283R,0.1965X0.0003*%
%ADD284R,0.1968X0.0003*%
%ADD285R,0.1973X0.0003*%
%ADD286R,0.1975X0.0003*%
%ADD287R,0.1978X0.0003*%
%ADD288R,0.1983X0.0003*%
%ADD289R,0.1985X0.0003*%
%ADD290R,0.1990X0.0003*%
%ADD291R,0.1993X0.0003*%
%ADD292R,0.1995X0.0003*%
%ADD293R,0.1998X0.0003*%
%ADD294R,0.2000X0.0003*%
%ADD295R,0.2003X0.0003*%
%ADD296R,0.2008X0.0003*%
%ADD297R,0.2010X0.0003*%
%ADD298R,0.0043X0.0003*%
%ADD299R,0.2013X0.0003*%
%ADD300R,0.0750X0.0003*%
%ADD301R,0.0725X0.0003*%
%ADD302R,0.1218X0.0003*%
%ADD303R,0.0703X0.0003*%
%ADD304R,0.1208X0.0003*%
%ADD305R,0.0695X0.0003*%
%ADD306R,0.1203X0.0003*%
%ADD307R,0.0688X0.0003*%
%ADD308R,0.0683X0.0003*%
%ADD309R,0.1195X0.0003*%
%ADD310R,0.0673X0.0003*%
%ADD311R,0.1185X0.0003*%
%ADD312R,0.0668X0.0003*%
%ADD313R,0.1182X0.0003*%
%ADD314R,0.0663X0.0003*%
%ADD315R,0.0660X0.0003*%
%ADD316R,0.1177X0.0003*%
%ADD317R,0.1175X0.0003*%
%ADD318R,0.0653X0.0003*%
%ADD319R,0.1172X0.0003*%
%ADD320R,0.0650X0.0003*%
%ADD321R,0.0645X0.0003*%
%ADD322R,0.1168X0.0003*%
%ADD323R,0.0643X0.0003*%
%ADD324R,0.1165X0.0003*%
%ADD325R,0.0638X0.0003*%
%ADD326R,0.0635X0.0003*%
%ADD327R,0.0633X0.0003*%
%ADD328R,0.1160X0.0003*%
%ADD329R,0.0625X0.0003*%
%ADD330R,0.1158X0.0003*%
%ADD331R,0.0620X0.0003*%
%ADD332R,0.0617X0.0003*%
%ADD333R,0.0615X0.0003*%
%ADD334R,0.0612X0.0003*%
%ADD335R,0.0610X0.0003*%
%ADD336R,0.0607X0.0003*%
%ADD337R,0.0600X0.0003*%
%ADD338R,0.0597X0.0003*%
%ADD339R,0.0040X0.0003*%
%ADD340R,0.0595X0.0003*%
%ADD341R,0.0592X0.0003*%
%ADD342R,0.0590X0.0003*%
%ADD343R,0.0587X0.0003*%
%ADD344R,0.0585X0.0003*%
%ADD345R,0.0580X0.0003*%
%ADD346R,0.0578X0.0003*%
%ADD347R,0.1190X0.0003*%
%ADD348R,0.1192X0.0003*%
%ADD349R,0.1200X0.0003*%
%ADD350R,0.1215X0.0003*%
%ADD351R,0.0037X0.0003*%
%ADD352R,0.1220X0.0003*%
%ADD353R,0.1225X0.0003*%
%ADD354R,0.1228X0.0003*%
%ADD355R,0.1233X0.0003*%
%ADD356R,0.1235X0.0003*%
%ADD357R,0.1240X0.0003*%
%ADD358R,0.1243X0.0003*%
%ADD359R,0.1245X0.0003*%
%ADD360R,0.1250X0.0003*%
%ADD361R,0.1255X0.0003*%
%ADD362R,0.1265X0.0003*%
%ADD363R,0.1270X0.0003*%
%ADD364R,0.1273X0.0003*%
%ADD365R,0.1288X0.0003*%
%ADD366R,0.1295X0.0003*%
%ADD367R,0.1298X0.0003*%
%ADD368R,0.1303X0.0003*%
%ADD369R,0.1310X0.0003*%
%ADD370R,0.1315X0.0003*%
%ADD371R,0.1318X0.0003*%
%ADD372R,0.1323X0.0003*%
%ADD373R,0.1325X0.0003*%
%ADD374R,0.0628X0.0003*%
%ADD375R,0.1333X0.0003*%
%ADD376R,0.1340X0.0003*%
%ADD377R,0.1353X0.0003*%
%ADD378R,0.1355X0.0003*%
%ADD379R,0.0648X0.0003*%
%ADD380R,0.1365X0.0003*%
%ADD381R,0.1380X0.0003*%
%ADD382R,0.1385X0.0003*%
%ADD383R,0.0665X0.0003*%
%ADD384R,0.0670X0.0003*%
%ADD385R,0.1398X0.0003*%
%ADD386R,0.0680X0.0003*%
%ADD387R,0.1410X0.0003*%
%ADD388R,0.0685X0.0003*%
%ADD389R,0.1417X0.0003*%
%ADD390R,0.1425X0.0003*%
%ADD391R,0.0700X0.0003*%
%ADD392R,0.1435X0.0003*%
%ADD393R,0.0707X0.0003*%
%ADD394R,0.1445X0.0003*%
%ADD395R,0.0717X0.0003*%
%ADD396R,0.1455X0.0003*%
%ADD397R,0.0735X0.0003*%
%ADD398R,0.1475X0.0003*%
%ADD399R,0.2253X0.0003*%
%ADD400R,0.2255X0.0003*%
%ADD401R,0.2258X0.0003*%
%ADD402R,0.0035X0.0003*%
%ADD403R,0.2250X0.0003*%
%ADD404R,0.2248X0.0003*%
%ADD405R,0.2245X0.0003*%
%ADD406R,0.2243X0.0003*%
%ADD407R,0.2240X0.0003*%
%ADD408R,0.2238X0.0003*%
%ADD409R,0.2235X0.0003*%
%ADD410R,0.2233X0.0003*%
%ADD411R,0.2230X0.0003*%
%ADD412R,0.2228X0.0003*%
%ADD413R,0.2225X0.0003*%
%ADD414R,0.2223X0.0003*%
%ADD415R,0.2220X0.0003*%
%ADD416R,0.2218X0.0003*%
%ADD417R,0.2215X0.0003*%
%ADD418R,0.2213X0.0003*%
%ADD419R,0.2210X0.0003*%
%ADD420R,0.2208X0.0003*%
%ADD421R,0.2205X0.0003*%
%ADD422R,0.2203X0.0003*%
%ADD423R,0.2200X0.0003*%
%ADD424R,0.2198X0.0003*%
%ADD425R,0.2195X0.0003*%
%ADD426R,0.2193X0.0003*%
%ADD427R,0.2190X0.0003*%
%ADD428R,0.2188X0.0003*%
%ADD429R,0.2185X0.0003*%
%ADD430R,0.2183X0.0003*%
%ADD431R,0.2180X0.0003*%
%ADD432R,0.2178X0.0003*%
%ADD433R,0.2175X0.0003*%
%ADD434R,0.2173X0.0003*%
%ADD435R,0.2170X0.0003*%
%ADD436R,0.2168X0.0003*%
%ADD437R,0.2165X0.0003*%
%ADD438R,0.2163X0.0003*%
%ADD439R,0.2160X0.0003*%
%ADD440R,0.2158X0.0003*%
%ADD441R,0.2155X0.0003*%
%ADD442R,0.2153X0.0003*%
%ADD443R,0.2150X0.0003*%
%ADD444R,0.2148X0.0003*%
%ADD445R,0.2145X0.0003*%
%ADD446R,0.2143X0.0003*%
%ADD447R,0.2140X0.0003*%
%ADD448R,0.2138X0.0003*%
%ADD449R,0.2135X0.0003*%
%ADD450R,0.2133X0.0003*%
%ADD451R,0.2130X0.0003*%
%ADD452R,0.2127X0.0003*%
%ADD453R,0.2125X0.0003*%
%ADD454R,0.2122X0.0003*%
%ADD455R,0.2120X0.0003*%
%ADD456R,0.2117X0.0003*%
%ADD457R,0.2115X0.0003*%
%ADD458R,0.2112X0.0003*%
%ADD459R,0.2110X0.0003*%
%ADD460R,0.2107X0.0003*%
%ADD461R,0.2105X0.0003*%
%ADD462R,0.2100X0.0003*%
%ADD463R,0.2097X0.0003*%
%ADD464R,0.2095X0.0003*%
%ADD465R,0.2092X0.0003*%
%ADD466R,0.2090X0.0003*%
%ADD467R,0.2085X0.0003*%
%ADD468R,0.2082X0.0003*%
%ADD469R,0.2080X0.0003*%
%ADD470R,0.2075X0.0003*%
%ADD471R,0.2072X0.0003*%
%ADD472R,0.2070X0.0003*%
%ADD473R,0.2065X0.0003*%
%ADD474R,0.2062X0.0003*%
%ADD475R,0.2060X0.0003*%
%ADD476R,0.2055X0.0003*%
%ADD477R,0.2052X0.0003*%
%ADD478R,0.2047X0.0003*%
%ADD479R,0.2045X0.0003*%
%ADD480R,0.2040X0.0003*%
%ADD481R,0.2037X0.0003*%
%ADD482R,0.0032X0.0003*%
%ADD483R,0.2035X0.0003*%
%ADD484R,0.2032X0.0003*%
%ADD485R,0.2028X0.0003*%
%ADD486R,0.2025X0.0003*%
%ADD487R,0.2020X0.0003*%
%ADD488R,0.2018X0.0003*%
%ADD489R,0.2005X0.0003*%
%ADD490R,0.1988X0.0003*%
%ADD491R,0.1953X0.0003*%
%ADD492R,0.1943X0.0003*%
%ADD493R,0.1910X0.0003*%
%ADD494R,0.1903X0.0003*%
%ADD495R,0.1810X0.0003*%
%ADD496R,0.1802X0.0003*%
%ADD497R,0.1790X0.0003*%
%ADD498R,0.1545X0.0003*%
%ADD499R,0.1518X0.0003*%
%ADD500R,0.1497X0.0003*%
%ADD501R,0.1480X0.0003*%
%ADD502R,0.1467X0.0003*%
%ADD503R,0.1440X0.0003*%
%ADD504R,0.1400X0.0003*%
%ADD505R,0.1348X0.0003*%
%ADD506R,0.1285X0.0003*%
%ADD507R,0.1280X0.0003*%
%ADD508R,0.1263X0.0003*%
%ADD509R,0.1258X0.0003*%
%ADD510R,0.1150X0.0003*%
%ADD511R,0.1143X0.0003*%
%ADD512R,0.1140X0.0003*%
%ADD513R,0.1135X0.0003*%
%ADD514R,0.1133X0.0003*%
%ADD515R,0.1125X0.0003*%
%ADD516R,0.1123X0.0003*%
%ADD517R,0.1110X0.0003*%
%ADD518R,0.1108X0.0003*%
%ADD519R,0.1105X0.0003*%
%ADD520R,0.1098X0.0003*%
%ADD521R,0.1095X0.0003*%
%ADD522R,0.1088X0.0003*%
%ADD523R,0.1080X0.0003*%
%ADD524R,0.1078X0.0003*%
%ADD525R,0.1075X0.0003*%
%ADD526R,0.1070X0.0003*%
%ADD527R,0.1060X0.0003*%
%ADD528R,0.1058X0.0003*%
%ADD529R,0.1055X0.0003*%
%ADD530R,0.1050X0.0003*%
%ADD531R,0.1048X0.0003*%
%ADD532R,0.1045X0.0003*%
%ADD533R,0.1038X0.0003*%
%ADD534R,0.1035X0.0003*%
%ADD535R,0.1030X0.0003*%
%ADD536R,0.1027X0.0003*%
%ADD537R,0.1022X0.0003*%
%ADD538R,0.1020X0.0003*%
%ADD539R,0.1015X0.0003*%
%ADD540R,0.1010X0.0003*%
%ADD541R,0.1008X0.0003*%
%ADD542R,0.1005X0.0003*%
%ADD543R,0.1000X0.0003*%
%ADD544R,0.0998X0.0003*%
%ADD545R,0.0995X0.0003*%
%ADD546R,0.0990X0.0003*%
%ADD547R,0.0985X0.0003*%
%ADD548R,0.0983X0.0003*%
%ADD549R,0.0978X0.0003*%
%ADD550R,0.0975X0.0003*%
%ADD551R,0.0968X0.0003*%
%ADD552R,0.0965X0.0003*%
%ADD553R,0.0963X0.0003*%
%ADD554R,0.0955X0.0003*%
%ADD555R,0.0953X0.0003*%
%ADD556R,0.0950X0.0003*%
%ADD557R,0.0943X0.0003*%
%ADD558R,0.0940X0.0003*%
%ADD559R,0.0938X0.0003*%
%ADD560R,0.0933X0.0003*%
%ADD561R,0.0930X0.0003*%
%ADD562R,0.0927X0.0003*%
%ADD563R,0.0922X0.0003*%
%ADD564R,0.0920X0.0003*%
%ADD565R,0.0917X0.0003*%
%ADD566R,0.0915X0.0003*%
%ADD567R,0.0910X0.0003*%
%ADD568R,0.0907X0.0003*%
%ADD569R,0.0900X0.0003*%
%ADD570R,0.0897X0.0003*%
%ADD571R,0.0892X0.0003*%
%ADD572R,0.0887X0.0003*%
%ADD573R,0.0882X0.0003*%
%ADD574R,0.0880X0.0003*%
%ADD575R,0.0875X0.0003*%
%ADD576R,0.0872X0.0003*%
%ADD577R,0.0870X0.0003*%
%ADD578R,0.0867X0.0003*%
%ADD579R,0.0862X0.0003*%
%ADD580R,0.0860X0.0003*%
%ADD581R,0.0858X0.0003*%
%ADD582R,0.0855X0.0003*%
%ADD583R,0.0850X0.0003*%
%ADD584R,0.0848X0.0003*%
%ADD585R,0.0845X0.0003*%
%ADD586R,0.0843X0.0003*%
%ADD587R,0.0835X0.0003*%
%ADD588R,0.0830X0.0003*%
%ADD589R,0.0828X0.0003*%
%ADD590R,0.0823X0.0003*%
%ADD591R,0.0818X0.0003*%
%ADD592R,0.0815X0.0003*%
%ADD593R,0.0813X0.0003*%
%ADD594R,0.0805X0.0003*%
%ADD595R,0.0803X0.0003*%
%ADD596R,0.0798X0.0003*%
%ADD597R,0.0795X0.0003*%
%ADD598R,0.0793X0.0003*%
%ADD599R,0.0790X0.0003*%
%ADD600R,0.0788X0.0003*%
%ADD601R,0.0783X0.0003*%
%ADD602R,0.0780X0.0003*%
%ADD603R,0.0778X0.0003*%
%ADD604R,0.0775X0.0003*%
%ADD605R,0.0770X0.0003*%
%ADD606R,0.0767X0.0003*%
%ADD607R,0.0765X0.0003*%
%ADD608R,0.0762X0.0003*%
%ADD609R,0.0760X0.0003*%
%ADD610R,0.0755X0.0003*%
%ADD611R,0.0752X0.0003*%
%ADD612R,0.0745X0.0003*%
%ADD613R,0.0740X0.0003*%
%ADD614R,0.0737X0.0003*%
%ADD615R,0.0135X0.0003*%
%ADD616R,0.0732X0.0003*%
%ADD617R,0.0730X0.0003*%
%ADD618R,0.0180X0.0003*%
%ADD619R,0.0193X0.0003*%
%ADD620R,0.0200X0.0003*%
%ADD621R,0.0210X0.0003*%
%ADD622R,0.0720X0.0003*%
%ADD623R,0.0225X0.0003*%
%ADD624R,0.0235X0.0003*%
%ADD625R,0.0240X0.0003*%
%ADD626R,0.0715X0.0003*%
%ADD627R,0.0250X0.0003*%
%ADD628R,0.0255X0.0003*%
%ADD629R,0.0260X0.0003*%
%ADD630R,0.0267X0.0003*%
%ADD631R,0.0710X0.0003*%
%ADD632R,0.0280X0.0003*%
%ADD633R,0.0705X0.0003*%
%ADD634R,0.0285X0.0003*%
%ADD635R,0.0290X0.0003*%
%ADD636R,0.0295X0.0003*%
%ADD637R,0.0300X0.0003*%
%ADD638R,0.0305X0.0003*%
%ADD639R,0.0698X0.0003*%
%ADD640R,0.0310X0.0003*%
%ADD641R,0.0315X0.0003*%
%ADD642R,0.0318X0.0003*%
%ADD643R,0.0320X0.0003*%
%ADD644R,0.0325X0.0003*%
%ADD645R,0.0690X0.0003*%
%ADD646R,0.0330X0.0003*%
%ADD647R,0.0340X0.0003*%
%ADD648R,0.0345X0.0003*%
%ADD649R,0.0348X0.0003*%
%ADD650R,0.0350X0.0003*%
%ADD651R,0.0355X0.0003*%
%ADD652R,0.0360X0.0003*%
%ADD653R,0.0675X0.0003*%
%ADD654R,0.0365X0.0003*%
%ADD655R,0.0370X0.0003*%
%ADD656R,0.0380X0.0003*%
%ADD657R,0.0385X0.0003*%
%ADD658R,0.0390X0.0003*%
%ADD659R,0.0395X0.0003*%
%ADD660R,0.0398X0.0003*%
%ADD661R,0.0400X0.0003*%
%ADD662R,0.0405X0.0003*%
%ADD663R,0.0410X0.0003*%
%ADD664R,0.0415X0.0003*%
%ADD665R,0.0408X0.0003*%
%ADD666R,0.0573X0.0003*%
%ADD667R,0.0570X0.0003*%
%ADD668R,0.0568X0.0003*%
%ADD669R,0.0565X0.0003*%
%ADD670R,0.0372X0.0003*%
%ADD671R,0.0367X0.0003*%
%ADD672R,0.0560X0.0003*%
%ADD673R,0.0558X0.0003*%
%ADD674R,0.0555X0.0003*%
%ADD675R,0.0352X0.0003*%
%ADD676R,0.0553X0.0003*%
%ADD677R,0.0550X0.0003*%
%ADD678R,0.0548X0.0003*%
%ADD679R,0.0543X0.0003*%
%ADD680R,0.0537X0.0003*%
%ADD681R,0.0302X0.0003*%
%ADD682R,0.0535X0.0003*%
%ADD683R,0.0288X0.0003*%
%ADD684R,0.0532X0.0003*%
%ADD685R,0.0530X0.0003*%
%ADD686R,0.0527X0.0003*%
%ADD687R,0.0265X0.0003*%
%ADD688R,0.0253X0.0003*%
%ADD689R,0.0525X0.0003*%
%ADD690R,0.0245X0.0003*%
%ADD691R,0.0522X0.0003*%
%ADD692R,0.0230X0.0003*%
%ADD693R,0.0215X0.0003*%
%ADD694R,0.0517X0.0003*%
%ADD695R,0.0190X0.0003*%
%ADD696R,0.0512X0.0003*%
%ADD697R,0.0155X0.0003*%
%ADD698R,0.0510X0.0003*%
%ADD699R,0.0508X0.0003*%
%ADD700R,0.0505X0.0003*%
%ADD701R,0.0010X0.0003*%
%ADD702R,0.0503X0.0003*%
%ADD703R,0.0500X0.0003*%
%ADD704R,0.0498X0.0003*%
%ADD705R,0.0495X0.0003*%
%ADD706R,0.0493X0.0003*%
%ADD707R,0.0488X0.0003*%
%ADD708R,0.0485X0.0003*%
%ADD709R,0.0483X0.0003*%
%ADD710R,0.0480X0.0003*%
%ADD711R,0.0478X0.0003*%
%ADD712R,0.0475X0.0003*%
%ADD713R,0.0473X0.0003*%
%ADD714R,0.0470X0.0003*%
%ADD715R,0.0468X0.0003*%
%ADD716R,0.0465X0.0003*%
%ADD717R,0.0462X0.0003*%
%ADD718R,0.0457X0.0003*%
%ADD719R,0.0455X0.0003*%
%ADD720R,0.0452X0.0003*%
%ADD721R,0.0447X0.0003*%
%ADD722R,0.0445X0.0003*%
%ADD723R,0.0442X0.0003*%
%ADD724R,0.0440X0.0003*%
%ADD725R,0.0437X0.0003*%
%ADD726R,0.0435X0.0003*%
%ADD727R,0.0432X0.0003*%
%ADD728R,0.0428X0.0003*%
%ADD729R,0.0425X0.0003*%
%ADD730R,0.0423X0.0003*%
%ADD731R,0.0420X0.0003*%
%ADD732R,0.0418X0.0003*%
%ADD733R,0.0393X0.0003*%
%ADD734R,0.0388X0.0003*%
%ADD735R,0.0382X0.0003*%
%ADD736R,0.0377X0.0003*%
%ADD737R,0.0362X0.0003*%
%ADD738R,0.0343X0.0003*%
%ADD739R,0.0338X0.0003*%
%ADD740R,0.0333X0.0003*%
%ADD741R,0.0328X0.0003*%
%ADD742R,0.0323X0.0003*%
%ADD743R,0.0313X0.0003*%
%ADD744R,0.0308X0.0003*%
%ADD745R,0.0297X0.0003*%
%ADD746R,0.0293X0.0003*%
%ADD747R,0.0283X0.0003*%
%ADD748R,0.0278X0.0003*%
%ADD749R,0.0273X0.0003*%
%ADD750R,0.0262X0.0003*%
%ADD751R,0.0257X0.0003*%
%ADD752R,0.0248X0.0003*%
%ADD753R,0.0238X0.0003*%
%ADD754R,0.0140X0.0003*%
%ADD755R,0.0145X0.0003*%
%ADD756R,0.0158X0.0003*%
%ADD757R,0.0195X0.0003*%
%ADD758R,0.0150X0.0003*%
%ADD759R,0.0165X0.0003*%
%ADD760R,0.0173X0.0003*%
%ADD761R,0.0203X0.0003*%
%ADD762R,0.0018X0.0003*%
%ADD763R,0.0020X0.0003*%
%ADD764R,0.0025X0.0003*%
%ADD765R,0.0015X0.0003*%
%ADD766R,0.0005X0.0003*%
%ADD767R,0.0027X0.0003*%
%ADD768R,0.0127X0.0003*%
%ADD769R,0.0168X0.0003*%
%ADD770R,0.0177X0.0003*%
%ADD771R,0.0182X0.0003*%
%ADD772R,0.0030X0.0003*%
%ADD773R,0.0187X0.0003*%
%ADD774R,0.0022X0.0003*%
%ADD775R,0.0222X0.0003*%
%ADD776R,0.0227X0.0003*%
%ADD777R,0.0213X0.0003*%
%ADD778C,0.0060*%
D10*
X007266Y002760D02*
X007310Y002760D01*
X007310Y002803D01*
X007266Y002803D01*
X007266Y002760D01*
X007394Y002760D02*
X007394Y003020D01*
X007310Y002933D02*
X007310Y002890D01*
X007266Y002890D01*
X007266Y002933D01*
X007310Y002933D01*
X007394Y002760D02*
X007568Y003020D01*
X007568Y002760D01*
X007825Y002760D02*
X007652Y003020D01*
X007910Y002977D02*
X007953Y003020D01*
X008040Y003020D01*
X008083Y002977D01*
X008083Y002933D01*
X008040Y002890D01*
X007953Y002890D01*
X007910Y002847D01*
X007910Y002803D01*
X007953Y002760D01*
X008040Y002760D01*
X008083Y002803D01*
D11*
X007543Y002150D03*
D12*
X008690Y004150D03*
X009302Y004290D03*
X009315Y004295D03*
X009315Y007210D03*
X009302Y007215D03*
X009012Y007448D03*
X008922Y007645D03*
X008650Y007610D03*
X008515Y007505D03*
X008412Y007445D03*
X008227Y007618D03*
X008122Y007448D03*
X008000Y007453D03*
X007785Y007610D03*
X007582Y007610D03*
X007475Y007610D03*
X007342Y007608D03*
X007267Y007640D03*
X010205Y007648D03*
X010330Y007643D03*
X010330Y007485D03*
D13*
X010272Y007480D03*
X010272Y007478D03*
X010015Y007475D03*
X010015Y007473D03*
X009790Y007390D03*
X009565Y007390D03*
X009540Y007668D03*
X009765Y007668D03*
X008955Y007623D03*
X008955Y007443D03*
X008960Y007313D03*
X008057Y007613D03*
X008690Y004153D03*
D14*
X008690Y004155D03*
X008690Y006695D03*
X008140Y007203D03*
X008475Y007318D03*
D15*
X008690Y007348D03*
X008690Y006660D03*
X008690Y006415D03*
X008690Y006413D03*
X007952Y007078D03*
X008690Y004158D03*
D16*
X008690Y004160D03*
X008690Y006445D03*
X008690Y006448D03*
X008690Y006625D03*
X008690Y006628D03*
X008690Y007345D03*
X007870Y007000D03*
X007867Y006998D03*
D17*
X007803Y006928D03*
X007801Y006925D03*
X008688Y006565D03*
X008688Y006510D03*
X008688Y004163D03*
D18*
X008690Y004165D03*
X007745Y006850D03*
X007747Y006853D03*
D19*
X007697Y006773D03*
X007695Y006770D03*
X008690Y007338D03*
X008562Y004193D03*
X008690Y004168D03*
D20*
X008690Y004170D03*
X007665Y006713D03*
X008690Y007335D03*
D21*
X007642Y006665D03*
X007642Y006663D03*
X010122Y007423D03*
X008690Y004173D03*
D22*
X008690Y004175D03*
X007620Y006608D03*
X008690Y007330D03*
D23*
X008690Y007328D03*
X007602Y006555D03*
X007602Y006553D03*
X009162Y005088D03*
X009162Y004848D03*
X008690Y004178D03*
D24*
X008690Y004180D03*
X009145Y004815D03*
X009145Y005123D03*
X007590Y006508D03*
X007590Y006510D03*
X008690Y007325D03*
D25*
X008690Y007323D03*
X007580Y006468D03*
X007580Y006465D03*
X009127Y005145D03*
X008690Y004183D03*
D26*
X008892Y004185D03*
X008690Y006380D03*
X008690Y006693D03*
X008130Y007198D03*
X008125Y007195D03*
X008120Y007193D03*
X008690Y007350D03*
D27*
X008688Y006590D03*
X007818Y006945D03*
X007816Y006943D03*
X008551Y004185D03*
D28*
X008918Y004188D03*
X008918Y007318D03*
X008283Y007268D03*
X008276Y007265D03*
X008263Y007260D03*
D29*
X007775Y006890D03*
X007772Y006888D03*
X008555Y004188D03*
D30*
X008940Y004190D03*
X008690Y006360D03*
X008940Y007315D03*
D31*
X007732Y006830D03*
X007730Y006828D03*
X008560Y004190D03*
D32*
X008958Y004193D03*
X008688Y006718D03*
X008953Y007445D03*
X008953Y007618D03*
X008953Y007620D03*
X009541Y007665D03*
X009766Y007665D03*
X010016Y007480D03*
X010016Y007478D03*
X010271Y007658D03*
X009566Y007393D03*
X008058Y007438D03*
X008058Y007440D03*
D33*
X008053Y007623D03*
X007528Y007445D03*
X008703Y007445D03*
X008958Y007433D03*
X009213Y007480D03*
X009216Y007483D03*
X009546Y007463D03*
X009566Y007385D03*
X009771Y007463D03*
X009791Y007385D03*
X009761Y007675D03*
X009536Y007675D03*
X010276Y007470D03*
X008973Y004195D03*
D34*
X008565Y004195D03*
X007670Y006723D03*
D35*
X007530Y007438D03*
X008460Y007513D03*
X008702Y007438D03*
X008990Y007308D03*
X009212Y007470D03*
X009560Y007485D03*
X009567Y007380D03*
X009792Y007380D03*
X009785Y007485D03*
X009787Y007488D03*
X008990Y004198D03*
D36*
X008567Y004198D03*
X007647Y006675D03*
D37*
X007740Y007615D03*
X007737Y007618D03*
X007735Y007620D03*
X008702Y007433D03*
X009005Y007305D03*
X009222Y007658D03*
X009005Y004200D03*
D38*
X008568Y004200D03*
X007628Y006630D03*
X007628Y006633D03*
X007631Y006635D03*
X010113Y007403D03*
D39*
X009790Y007570D03*
X009222Y007660D03*
X009017Y007303D03*
X008702Y007430D03*
X008452Y007523D03*
X008690Y006728D03*
X008690Y006348D03*
X007530Y007430D03*
X009017Y004203D03*
D40*
X008568Y004203D03*
X009181Y004908D03*
X009181Y004910D03*
X009181Y004913D03*
X009181Y005023D03*
X009181Y005025D03*
X009181Y005028D03*
X009181Y005030D03*
X007616Y006595D03*
D41*
X007528Y007428D03*
X007528Y007630D03*
X007733Y007628D03*
X007736Y007430D03*
X009028Y007300D03*
X009573Y007495D03*
X009566Y007565D03*
X009791Y007565D03*
X009798Y007495D03*
X009028Y004205D03*
D42*
X008571Y004205D03*
X009163Y004850D03*
X009163Y004853D03*
X009166Y004855D03*
X009166Y005080D03*
X009166Y005083D03*
X009163Y005085D03*
X007603Y006558D03*
D43*
X008447Y007528D03*
X008470Y007628D03*
X008702Y007630D03*
X009222Y007665D03*
X009212Y007460D03*
X008690Y006345D03*
X009040Y004208D03*
D44*
X008571Y004208D03*
X009148Y004820D03*
X009151Y004825D03*
X009148Y005115D03*
X007593Y006523D03*
X007593Y006525D03*
D45*
X007528Y007423D03*
X007736Y007425D03*
X007528Y007633D03*
X008443Y007530D03*
X008703Y007423D03*
X009213Y007458D03*
X009566Y007560D03*
X009581Y007498D03*
X009791Y007560D03*
X009051Y004210D03*
D46*
X008572Y004210D03*
X009137Y005133D03*
X007587Y006493D03*
D47*
X007736Y007423D03*
X007528Y007635D03*
X008261Y007600D03*
X008703Y007635D03*
X009063Y007293D03*
X009221Y007670D03*
X009566Y007558D03*
X009791Y007558D03*
X010241Y007660D03*
X008688Y006343D03*
X009063Y004213D03*
D48*
X008571Y004213D03*
X009126Y004790D03*
X007578Y006460D03*
X007578Y006463D03*
D49*
X008688Y006733D03*
X008468Y007635D03*
X007733Y007635D03*
X007123Y007623D03*
X009221Y007673D03*
X009566Y007555D03*
X009791Y007555D03*
X010241Y007663D03*
X009083Y004218D03*
X009073Y004215D03*
D50*
X008571Y004215D03*
X009113Y004778D03*
X009113Y005158D03*
X007573Y006428D03*
X007573Y006430D03*
D51*
X007571Y006405D03*
X009103Y005165D03*
X008571Y004218D03*
D52*
X009093Y004220D03*
X009103Y004223D03*
X009103Y007283D03*
X008923Y007625D03*
X009221Y007675D03*
X009513Y007455D03*
X009568Y007365D03*
X009791Y007365D03*
X010043Y007465D03*
X010241Y007665D03*
X008703Y007418D03*
X008436Y007535D03*
X007528Y007638D03*
X007528Y007418D03*
X007123Y007625D03*
D53*
X007566Y006375D03*
X007566Y006373D03*
X007566Y006370D03*
X009091Y004765D03*
X008571Y004220D03*
D54*
X008571Y004223D03*
X007563Y006348D03*
X007563Y006350D03*
D55*
X008088Y007428D03*
X008496Y007425D03*
X008931Y007428D03*
X008923Y007628D03*
X009113Y007280D03*
X009566Y007553D03*
X009813Y007500D03*
X010043Y007463D03*
X010241Y007668D03*
X007528Y007640D03*
X007123Y007630D03*
X009113Y004225D03*
D56*
X008571Y004225D03*
D57*
X009122Y004228D03*
X008690Y006735D03*
X009122Y007278D03*
X008702Y007640D03*
X008432Y007538D03*
X007737Y007418D03*
D58*
X007561Y006305D03*
X007561Y006303D03*
X008571Y004228D03*
D59*
X009132Y004230D03*
X009132Y007275D03*
X008827Y007523D03*
X008827Y007525D03*
X008827Y007528D03*
X008827Y007530D03*
X008827Y007533D03*
X008827Y007535D03*
X009567Y007363D03*
X009792Y007363D03*
X010045Y007460D03*
X007737Y007415D03*
D60*
X007561Y006283D03*
X007561Y006280D03*
X008571Y004230D03*
D61*
X009138Y004233D03*
X009148Y007270D03*
X009141Y007273D03*
X008931Y007423D03*
X008923Y007633D03*
X008703Y007643D03*
X008078Y007635D03*
X008088Y007423D03*
X007528Y007643D03*
X010241Y007673D03*
D62*
X007562Y006265D03*
X008570Y004233D03*
D63*
X009147Y004235D03*
X008690Y006338D03*
X008702Y007413D03*
X008497Y007420D03*
X009220Y007680D03*
X009675Y007408D03*
X010045Y007458D03*
X010250Y007458D03*
X007270Y007625D03*
X007122Y007635D03*
D64*
X007562Y006245D03*
X007562Y006243D03*
X008570Y004235D03*
D65*
X009156Y004238D03*
X009163Y004240D03*
X009163Y007265D03*
X009156Y007268D03*
X008931Y007420D03*
X008923Y007635D03*
X008466Y007643D03*
X008426Y007540D03*
X008088Y007420D03*
X007733Y007643D03*
X007528Y007413D03*
X009566Y007548D03*
X009791Y007548D03*
X009793Y007545D03*
D66*
X007562Y006233D03*
X007562Y006230D03*
X008570Y004238D03*
D67*
X008570Y004240D03*
X007565Y006208D03*
X007565Y006210D03*
D68*
X007737Y007413D03*
X008077Y007638D03*
X008497Y007418D03*
X009172Y007263D03*
X009212Y007448D03*
X009497Y007653D03*
X009570Y007545D03*
X009575Y007543D03*
X009675Y007445D03*
X009675Y007410D03*
X009722Y007653D03*
X009790Y007683D03*
X010045Y007455D03*
X010250Y007455D03*
X010240Y007675D03*
X007270Y007628D03*
X007210Y007608D03*
X007122Y007638D03*
X009172Y004243D03*
D69*
X008568Y004243D03*
X007566Y006190D03*
X007566Y006193D03*
D70*
X007528Y007645D03*
X009181Y007260D03*
X009188Y007258D03*
X009578Y007540D03*
X009566Y007683D03*
X009798Y007543D03*
X009803Y007540D03*
X009791Y007360D03*
X009188Y004248D03*
X009181Y004245D03*
D71*
X008568Y004245D03*
X007568Y006173D03*
D72*
X007570Y006160D03*
X007570Y006158D03*
X008567Y004248D03*
D73*
X009197Y004250D03*
X008690Y006738D03*
X009197Y007255D03*
X008932Y007418D03*
X008922Y007638D03*
X008702Y007645D03*
X008465Y007645D03*
X009220Y007683D03*
X009567Y007360D03*
X009675Y007413D03*
X009675Y007443D03*
X010240Y007678D03*
X007270Y007630D03*
D74*
X008566Y004250D03*
D75*
X009203Y004253D03*
X009211Y004255D03*
X009211Y007250D03*
X009203Y007253D03*
X009583Y007538D03*
X009673Y007440D03*
X009808Y007538D03*
X010046Y007453D03*
X010251Y007453D03*
X010321Y007648D03*
X008703Y007410D03*
X008498Y007415D03*
X008088Y007418D03*
X008008Y007448D03*
X008078Y007640D03*
X007733Y007645D03*
X007528Y007410D03*
X007268Y007633D03*
X007123Y007640D03*
D76*
X007575Y006130D03*
X007575Y006128D03*
X008567Y004253D03*
D77*
X008566Y004255D03*
X007578Y006113D03*
D78*
X007737Y007410D03*
X007210Y007605D03*
X008505Y007508D03*
X008922Y007640D03*
X009217Y007248D03*
X009225Y007245D03*
X009675Y007415D03*
X009675Y007418D03*
X009225Y004260D03*
X009217Y004258D03*
D79*
X008566Y004258D03*
X007581Y006103D03*
D80*
X008565Y004260D03*
D81*
X009231Y004263D03*
X009238Y004265D03*
X009238Y007240D03*
X009231Y007243D03*
X009213Y007445D03*
X008931Y007415D03*
X008498Y007413D03*
X008418Y007543D03*
X008088Y007415D03*
X008078Y007643D03*
X007268Y007635D03*
X009493Y007650D03*
X009566Y007685D03*
X009718Y007650D03*
X009791Y007685D03*
X009673Y007438D03*
X009673Y007435D03*
X009673Y007433D03*
X010238Y007680D03*
X010323Y007483D03*
D82*
X008565Y004263D03*
D83*
X008563Y004265D03*
X007588Y006065D03*
D84*
X008690Y006335D03*
X009245Y007238D03*
X009252Y007235D03*
X009007Y007608D03*
X009220Y007685D03*
X008702Y007648D03*
X008285Y007598D03*
X007122Y007643D03*
X009675Y007430D03*
X009675Y007428D03*
X009675Y007425D03*
X009675Y007423D03*
X009675Y007420D03*
X009962Y007485D03*
X010045Y007450D03*
X010250Y007450D03*
X009252Y004270D03*
X009245Y004268D03*
D85*
X008563Y004268D03*
X007593Y006053D03*
D86*
X007597Y006040D03*
X008562Y004270D03*
D87*
X009258Y004273D03*
X009266Y004275D03*
X009266Y007230D03*
X009258Y007233D03*
X009621Y007395D03*
X009846Y007395D03*
X010326Y007645D03*
X008921Y007643D03*
X008463Y007648D03*
X008416Y007443D03*
X007733Y007648D03*
X007528Y007648D03*
X007528Y007408D03*
X007268Y007638D03*
D88*
X007600Y006033D03*
X007600Y006030D03*
X008562Y004273D03*
D89*
X008561Y004275D03*
X007603Y006020D03*
D90*
X008690Y007355D03*
X008702Y007408D03*
X008932Y007413D03*
X009272Y007228D03*
X009285Y007223D03*
X009507Y007395D03*
X009492Y007453D03*
X009567Y007358D03*
X009732Y007395D03*
X009717Y007453D03*
X009792Y007358D03*
X010240Y007683D03*
X008090Y007413D03*
X008002Y007450D03*
X008002Y007610D03*
X007210Y007603D03*
X009272Y004278D03*
X009285Y004283D03*
D91*
X008561Y004278D03*
D92*
X009278Y004280D03*
X009291Y004285D03*
X009296Y004288D03*
X008688Y006740D03*
X008498Y007410D03*
X008288Y007595D03*
X008231Y007610D03*
X008228Y007613D03*
X008228Y007615D03*
X008078Y007645D03*
X007738Y007408D03*
X007123Y007645D03*
X008756Y007610D03*
X009011Y007605D03*
X009278Y007225D03*
X009291Y007220D03*
X009296Y007218D03*
X009493Y007648D03*
X009566Y007688D03*
X009718Y007648D03*
X009791Y007688D03*
X009958Y007488D03*
X010046Y007448D03*
X010213Y007483D03*
X010251Y007448D03*
D93*
X007611Y006000D03*
X008561Y004280D03*
D94*
X008560Y004283D03*
X007615Y005990D03*
D95*
X007618Y005983D03*
X008558Y004285D03*
D96*
X008558Y004288D03*
X007621Y005975D03*
D97*
X007626Y005965D03*
X008558Y004290D03*
D98*
X009308Y004293D03*
X009321Y004298D03*
X009326Y004300D03*
X009343Y004308D03*
X009338Y007200D03*
X009326Y007205D03*
X009321Y007208D03*
X009308Y007213D03*
X009213Y007443D03*
X009273Y007485D03*
X009221Y007688D03*
X009013Y007603D03*
X009613Y007503D03*
X009838Y007503D03*
X009956Y007490D03*
X010238Y007685D03*
X008291Y007593D03*
X008226Y007620D03*
X008226Y007623D03*
X008118Y007610D03*
X007211Y007600D03*
D99*
X007630Y005955D03*
X008557Y004293D03*
D100*
X008556Y004295D03*
X007633Y005950D03*
D101*
X007638Y005940D03*
X008556Y004298D03*
D102*
X008556Y004300D03*
X007641Y005935D03*
D103*
X007587Y007448D03*
X007470Y007448D03*
X007345Y007605D03*
X007267Y007643D03*
X007997Y007608D03*
X008077Y007648D03*
X008222Y007628D03*
X008225Y007625D03*
X008090Y007410D03*
X007997Y007455D03*
X008462Y007650D03*
X008702Y007650D03*
X008932Y007410D03*
X009332Y007203D03*
X009345Y007198D03*
X009350Y007195D03*
X009355Y007193D03*
X009360Y007190D03*
X010332Y007640D03*
X009355Y004313D03*
X009350Y004310D03*
X009337Y004305D03*
X009332Y004303D03*
D104*
X008555Y004303D03*
X007645Y005928D03*
D105*
X007651Y005918D03*
X008553Y004305D03*
D106*
X008552Y004308D03*
X007652Y005915D03*
D107*
X007657Y005908D03*
X008552Y004310D03*
D108*
X008551Y004313D03*
D109*
X009358Y004315D03*
X009016Y007450D03*
X008891Y007448D03*
X008761Y007448D03*
X008643Y007448D03*
X008521Y007503D03*
X008498Y007408D03*
X008408Y007448D03*
X008293Y007590D03*
X008221Y007630D03*
X008128Y007450D03*
X007791Y007448D03*
X007791Y007608D03*
X007733Y007650D03*
X007528Y007650D03*
X007528Y007405D03*
X007211Y007598D03*
X007123Y007648D03*
X008883Y007608D03*
X009016Y007600D03*
X009953Y007493D03*
X010046Y007445D03*
X010206Y007485D03*
X010251Y007445D03*
X010333Y007488D03*
X010333Y007638D03*
D110*
X007666Y005895D03*
X008551Y004315D03*
D111*
X009365Y004318D03*
X009370Y004320D03*
X009375Y004323D03*
X009380Y004325D03*
X009380Y007180D03*
X009375Y007183D03*
X009370Y007185D03*
X009365Y007188D03*
X009277Y007488D03*
X009275Y007650D03*
X009017Y007598D03*
X008922Y007648D03*
X008765Y007608D03*
X008642Y007608D03*
X008702Y007405D03*
X008407Y007450D03*
X008295Y007588D03*
X008220Y007633D03*
X007995Y007605D03*
X007995Y007458D03*
X007590Y007608D03*
X007467Y007608D03*
X007347Y007603D03*
X007085Y007608D03*
X009615Y007653D03*
X009840Y007653D03*
X009857Y007398D03*
X009632Y007398D03*
X010082Y007485D03*
X010200Y007645D03*
D112*
X007670Y005890D03*
X007922Y004880D03*
X007925Y004875D03*
X007927Y004873D03*
X007927Y004870D03*
X007930Y004868D03*
X007932Y004863D03*
X007935Y004860D03*
X007935Y004858D03*
X007937Y004855D03*
X007940Y004853D03*
X007940Y004850D03*
X007942Y004848D03*
X007945Y004845D03*
X007947Y004843D03*
X007947Y004840D03*
X007950Y004838D03*
X007952Y004835D03*
X007960Y004825D03*
X008550Y004318D03*
D113*
X008551Y004320D03*
X007976Y004808D03*
X007973Y004810D03*
X007971Y004813D03*
X007913Y004898D03*
X007911Y004900D03*
X007911Y004903D03*
X007908Y004905D03*
X007908Y004908D03*
D114*
X007902Y004920D03*
X007902Y004923D03*
X007900Y004925D03*
X007900Y004928D03*
X007985Y004798D03*
X008550Y004323D03*
X007675Y005880D03*
D115*
X007680Y005875D03*
X007892Y004948D03*
X008000Y004785D03*
X008550Y004325D03*
D116*
X009386Y004328D03*
X009391Y004330D03*
X009396Y004333D03*
X009401Y004335D03*
X009406Y004338D03*
X009411Y004340D03*
X009416Y004343D03*
X009421Y004345D03*
X009421Y007160D03*
X009416Y007163D03*
X009411Y007165D03*
X009406Y007168D03*
X009401Y007170D03*
X009396Y007173D03*
X009391Y007175D03*
X009386Y007178D03*
X009496Y007398D03*
X009483Y007450D03*
X009708Y007450D03*
X009838Y007573D03*
X009791Y007690D03*
X009566Y007690D03*
X009951Y007495D03*
X010196Y007643D03*
X010238Y007688D03*
X010336Y007635D03*
X010336Y007490D03*
X009018Y007453D03*
X008886Y007450D03*
X008766Y007450D03*
X008638Y007450D03*
X008406Y007545D03*
X008413Y007608D03*
X008296Y007585D03*
X008218Y007635D03*
X008123Y007608D03*
X007993Y007460D03*
X007796Y007450D03*
X007738Y007405D03*
X007796Y007605D03*
X007593Y007605D03*
X007463Y007605D03*
X007266Y007645D03*
X007211Y007595D03*
X007211Y007593D03*
D117*
X007683Y005870D03*
X007888Y004963D03*
X007888Y004960D03*
X008011Y004778D03*
X008548Y004328D03*
D118*
X008548Y004330D03*
X008018Y004773D03*
X007883Y004978D03*
D119*
X007880Y004990D03*
X007880Y004993D03*
X008547Y004333D03*
D120*
X008546Y004335D03*
X007878Y005000D03*
X007878Y005003D03*
X007696Y005855D03*
D121*
X007876Y005018D03*
X007876Y005015D03*
X008546Y004338D03*
D122*
X008545Y004340D03*
X008042Y004763D03*
X007875Y005025D03*
X007875Y005028D03*
D123*
X007873Y005035D03*
X008543Y004343D03*
X007706Y005843D03*
D124*
X007711Y005838D03*
X007873Y005045D03*
X008543Y004345D03*
D125*
X009425Y004348D03*
X009430Y004350D03*
X009435Y004353D03*
X009440Y004355D03*
X008690Y006333D03*
X009425Y007158D03*
X009430Y007155D03*
X009435Y007153D03*
X009440Y007150D03*
X009720Y007398D03*
X009742Y007573D03*
X009722Y007645D03*
X009615Y007573D03*
X009517Y007573D03*
X009497Y007645D03*
X009280Y007648D03*
X009167Y007650D03*
X009020Y007595D03*
X009020Y007455D03*
X008932Y007408D03*
X008770Y007453D03*
X008767Y007605D03*
X008877Y007603D03*
X008880Y007605D03*
X008637Y007605D03*
X008405Y007453D03*
X008297Y007583D03*
X008217Y007638D03*
X008127Y007605D03*
X008077Y007650D03*
X007992Y007603D03*
X008090Y007408D03*
X008132Y007453D03*
X007797Y007453D03*
X007592Y007450D03*
X007465Y007450D03*
X007350Y007600D03*
X009282Y007490D03*
X009950Y007498D03*
X010087Y007488D03*
X010200Y007490D03*
X010202Y007488D03*
X010337Y007633D03*
D126*
X007713Y005835D03*
X008056Y004760D03*
X008543Y004348D03*
D127*
X008542Y004350D03*
X007872Y005058D03*
X007872Y005060D03*
D128*
X007873Y005068D03*
X007721Y005828D03*
X008541Y004353D03*
D129*
X008541Y004355D03*
X007873Y005075D03*
X007873Y005078D03*
D130*
X009443Y004358D03*
X009448Y004360D03*
X009453Y004363D03*
X009458Y004365D03*
X009476Y004375D03*
X009476Y007130D03*
X009458Y007140D03*
X009453Y007143D03*
X009448Y007145D03*
X009443Y007148D03*
X009566Y007355D03*
X009703Y007448D03*
X009791Y007355D03*
X009948Y007500D03*
X010196Y007493D03*
X010251Y007443D03*
X010338Y007493D03*
X010338Y007630D03*
X010193Y007640D03*
X010191Y007638D03*
X009621Y007650D03*
X009283Y007645D03*
X009221Y007690D03*
X009021Y007593D03*
X009156Y007485D03*
X009283Y007493D03*
X008883Y007453D03*
X008771Y007603D03*
X008636Y007453D03*
X008533Y007443D03*
X008526Y007500D03*
X008521Y007608D03*
X008403Y007455D03*
X008298Y007580D03*
X008216Y007640D03*
X008213Y007643D03*
X008133Y007455D03*
X007991Y007463D03*
X007896Y007445D03*
X007896Y007443D03*
X007896Y007440D03*
X007896Y007438D03*
X007896Y007435D03*
X007896Y007433D03*
X007896Y007430D03*
X007896Y007428D03*
X007801Y007455D03*
X007801Y007600D03*
X007798Y007603D03*
X007596Y007603D03*
X007461Y007603D03*
X007351Y007598D03*
X007211Y007590D03*
X007081Y007605D03*
X007461Y007453D03*
X007596Y007453D03*
X007598Y007455D03*
D131*
X007873Y005083D03*
X007873Y005080D03*
X008541Y004358D03*
D132*
X008540Y004360D03*
X007875Y005088D03*
X007875Y005090D03*
X007732Y005818D03*
D133*
X008540Y004363D03*
D134*
X008538Y004365D03*
X007876Y005103D03*
X007741Y005810D03*
D135*
X007895Y007425D03*
X007895Y007448D03*
X007805Y007460D03*
X007802Y007458D03*
X007805Y007598D03*
X007990Y007600D03*
X007990Y007465D03*
X008137Y007458D03*
X008132Y007600D03*
X008130Y007603D03*
X008300Y007578D03*
X008410Y007605D03*
X008462Y007653D03*
X008630Y007598D03*
X008632Y007600D03*
X008635Y007603D03*
X008775Y007600D03*
X008875Y007600D03*
X008877Y007458D03*
X008880Y007455D03*
X008775Y007458D03*
X008772Y007455D03*
X008632Y007455D03*
X008530Y007498D03*
X008500Y007405D03*
X009022Y007458D03*
X009022Y007590D03*
X009287Y007495D03*
X009290Y007498D03*
X009480Y007448D03*
X009490Y007400D03*
X009637Y007400D03*
X009715Y007400D03*
X009622Y007505D03*
X009620Y007575D03*
X009845Y007575D03*
X009845Y007650D03*
X010047Y007443D03*
X010090Y007490D03*
X010195Y007495D03*
X010190Y007635D03*
X010340Y007628D03*
X010340Y007495D03*
X009497Y007118D03*
X009490Y007123D03*
X009485Y007125D03*
X009480Y007128D03*
X009472Y007133D03*
X009467Y007135D03*
X009462Y007138D03*
X007600Y007600D03*
X007457Y007600D03*
X007352Y007595D03*
X007212Y007588D03*
X007122Y007650D03*
X007077Y007603D03*
X007460Y007455D03*
X009462Y004368D03*
X009467Y004370D03*
X009472Y004373D03*
X009480Y004378D03*
X009485Y004380D03*
X009490Y004383D03*
X009492Y004385D03*
X009497Y004388D03*
D136*
X008538Y004368D03*
D137*
X008537Y004370D03*
X007747Y005805D03*
D138*
X007751Y005803D03*
X007881Y005118D03*
X008536Y004373D03*
D139*
X008535Y004375D03*
X007882Y005123D03*
D140*
X007883Y005128D03*
X008536Y004378D03*
D141*
X008535Y004380D03*
X007885Y005130D03*
D142*
X008533Y004383D03*
D143*
X008533Y004385D03*
X007888Y005138D03*
X007768Y005790D03*
D144*
X007772Y005788D03*
X007890Y005143D03*
X008532Y004388D03*
D145*
X009501Y004390D03*
X009506Y004393D03*
X009508Y004395D03*
X009513Y004398D03*
X009518Y004400D03*
X009518Y007105D03*
X009513Y007108D03*
X009511Y007110D03*
X009506Y007113D03*
X009501Y007115D03*
X009493Y007120D03*
X009641Y007403D03*
X009476Y007445D03*
X009511Y007575D03*
X009293Y007503D03*
X009291Y007500D03*
X009213Y007440D03*
X009023Y007460D03*
X009023Y007588D03*
X008921Y007650D03*
X008873Y007598D03*
X008871Y007595D03*
X008871Y007593D03*
X008778Y007595D03*
X008776Y007598D03*
X008876Y007460D03*
X008631Y007458D03*
X008628Y007460D03*
X008538Y007445D03*
X008533Y007495D03*
X008626Y007593D03*
X008628Y007595D03*
X008408Y007603D03*
X008301Y007575D03*
X008301Y007573D03*
X008211Y007645D03*
X008136Y007595D03*
X008133Y007598D03*
X008141Y007465D03*
X008141Y007463D03*
X008138Y007460D03*
X007988Y007468D03*
X007896Y007453D03*
X007896Y007450D03*
X007896Y007423D03*
X007896Y007420D03*
X007808Y007465D03*
X007806Y007463D03*
X007808Y007593D03*
X007806Y007595D03*
X007988Y007598D03*
X007606Y007593D03*
X007603Y007595D03*
X007601Y007598D03*
X007528Y007653D03*
X007456Y007598D03*
X007453Y007595D03*
X007353Y007593D03*
X007266Y007648D03*
X007211Y007585D03*
X007076Y007600D03*
X007451Y007465D03*
X007453Y007460D03*
X007456Y007458D03*
X007601Y007458D03*
X007603Y007460D03*
X008401Y007458D03*
X009161Y007648D03*
X009286Y007643D03*
X009288Y007640D03*
X009736Y007575D03*
X009846Y007505D03*
X009946Y007503D03*
X010091Y007493D03*
X010093Y007495D03*
X010191Y007500D03*
X010193Y007498D03*
X010186Y007630D03*
X010188Y007633D03*
X010238Y007690D03*
X010341Y007625D03*
X010341Y007498D03*
D146*
X007892Y005145D03*
X008532Y004390D03*
D147*
X008531Y004393D03*
X007776Y005785D03*
D148*
X007780Y005783D03*
X007897Y005153D03*
X008530Y004395D03*
D149*
X008530Y004398D03*
D150*
X008528Y004400D03*
X007901Y005158D03*
D151*
X008690Y006743D03*
X008932Y007405D03*
X008875Y007463D03*
X008872Y007465D03*
X008872Y007468D03*
X008870Y007470D03*
X008870Y007473D03*
X008785Y007473D03*
X008782Y007468D03*
X008780Y007465D03*
X008780Y007463D03*
X008777Y007460D03*
X008787Y007578D03*
X008785Y007583D03*
X008782Y007588D03*
X008782Y007590D03*
X008780Y007593D03*
X008865Y007580D03*
X008865Y007578D03*
X008867Y007585D03*
X008867Y007588D03*
X008870Y007590D03*
X008702Y007653D03*
X008625Y007590D03*
X008622Y007585D03*
X008620Y007580D03*
X008622Y007470D03*
X008625Y007468D03*
X008625Y007465D03*
X008627Y007463D03*
X008540Y007448D03*
X008400Y007460D03*
X008405Y007600D03*
X008302Y007570D03*
X008210Y007648D03*
X008140Y007590D03*
X008140Y007588D03*
X008142Y007585D03*
X008142Y007583D03*
X008145Y007578D03*
X008137Y007593D03*
X008147Y007480D03*
X008145Y007473D03*
X008145Y007470D03*
X008142Y007468D03*
X007987Y007470D03*
X007987Y007595D03*
X007815Y007580D03*
X007812Y007585D03*
X007810Y007588D03*
X007810Y007590D03*
X007735Y007653D03*
X007687Y007610D03*
X007612Y007580D03*
X007610Y007585D03*
X007607Y007590D03*
X007610Y007470D03*
X007607Y007468D03*
X007607Y007465D03*
X007605Y007463D03*
X007452Y007463D03*
X007450Y007468D03*
X007447Y007473D03*
X007445Y007478D03*
X007447Y007585D03*
X007450Y007588D03*
X007450Y007590D03*
X007452Y007593D03*
X007355Y007590D03*
X007212Y007583D03*
X007212Y007580D03*
X007212Y007578D03*
X007075Y007598D03*
X007072Y007593D03*
X007810Y007468D03*
X007812Y007470D03*
X007812Y007473D03*
X007815Y007475D03*
X007815Y007478D03*
X009025Y007463D03*
X009025Y007585D03*
X009160Y007645D03*
X009295Y007633D03*
X009295Y007505D03*
X009625Y007648D03*
X009627Y007645D03*
X009850Y007648D03*
X009847Y007578D03*
X009945Y007505D03*
X010095Y007500D03*
X010095Y007498D03*
X010097Y007505D03*
X010182Y007518D03*
X010185Y007513D03*
X010185Y007510D03*
X010187Y007508D03*
X010187Y007505D03*
X010190Y007503D03*
X010180Y007610D03*
X010180Y007613D03*
X010182Y007618D03*
X010182Y007620D03*
X010182Y007623D03*
X010185Y007625D03*
X010185Y007628D03*
X010342Y007623D03*
X010342Y007500D03*
X009562Y007078D03*
X009557Y007080D03*
X009555Y007083D03*
X009550Y007085D03*
X009547Y007088D03*
X009542Y007090D03*
X009537Y007093D03*
X009535Y007095D03*
X009530Y007098D03*
X009527Y007100D03*
X009522Y007103D03*
X009565Y004430D03*
X009557Y004425D03*
X009555Y004423D03*
X009550Y004420D03*
X009547Y004418D03*
X009542Y004415D03*
X009537Y004413D03*
X009535Y004410D03*
X009530Y004408D03*
X009527Y004405D03*
X009522Y004403D03*
D152*
X008528Y004403D03*
X007788Y005778D03*
D153*
X008527Y004405D03*
D154*
X008528Y004408D03*
D155*
X008527Y004410D03*
X007800Y005773D03*
D156*
X008526Y004413D03*
D157*
X008526Y004415D03*
D158*
X008525Y004418D03*
D159*
X008523Y004420D03*
X007811Y005768D03*
D160*
X008522Y004423D03*
D161*
X008522Y004425D03*
D162*
X009561Y004428D03*
X009568Y004433D03*
X009573Y004435D03*
X009576Y004438D03*
X009581Y004440D03*
X009583Y004443D03*
X009598Y004453D03*
X009598Y007053D03*
X009583Y007063D03*
X009581Y007065D03*
X009576Y007068D03*
X009573Y007070D03*
X009568Y007073D03*
X009566Y007075D03*
X009486Y007403D03*
X009483Y007405D03*
X009473Y007443D03*
X009393Y007443D03*
X009393Y007445D03*
X009393Y007448D03*
X009393Y007450D03*
X009393Y007453D03*
X009393Y007455D03*
X009393Y007458D03*
X009393Y007460D03*
X009393Y007463D03*
X009393Y007465D03*
X009393Y007468D03*
X009393Y007470D03*
X009393Y007473D03*
X009393Y007475D03*
X009393Y007478D03*
X009393Y007480D03*
X009393Y007483D03*
X009393Y007485D03*
X009393Y007488D03*
X009393Y007490D03*
X009393Y007493D03*
X009393Y007495D03*
X009393Y007498D03*
X009393Y007500D03*
X009393Y007503D03*
X009393Y007505D03*
X009393Y007508D03*
X009393Y007510D03*
X009393Y007513D03*
X009393Y007515D03*
X009393Y007518D03*
X009393Y007520D03*
X009393Y007523D03*
X009393Y007525D03*
X009393Y007528D03*
X009393Y007530D03*
X009393Y007533D03*
X009393Y007535D03*
X009393Y007538D03*
X009393Y007540D03*
X009393Y007543D03*
X009393Y007545D03*
X009393Y007548D03*
X009393Y007550D03*
X009393Y007553D03*
X009393Y007555D03*
X009393Y007558D03*
X009393Y007560D03*
X009393Y007563D03*
X009393Y007565D03*
X009393Y007568D03*
X009393Y007570D03*
X009393Y007573D03*
X009393Y007575D03*
X009393Y007578D03*
X009393Y007580D03*
X009393Y007583D03*
X009393Y007585D03*
X009393Y007588D03*
X009393Y007590D03*
X009393Y007593D03*
X009393Y007595D03*
X009393Y007598D03*
X009393Y007600D03*
X009393Y007603D03*
X009393Y007605D03*
X009393Y007608D03*
X009393Y007610D03*
X009393Y007613D03*
X009393Y007615D03*
X009393Y007618D03*
X009393Y007620D03*
X009393Y007623D03*
X009393Y007625D03*
X009393Y007628D03*
X009393Y007630D03*
X009393Y007633D03*
X009393Y007635D03*
X009393Y007638D03*
X009393Y007640D03*
X009393Y007643D03*
X009393Y007645D03*
X009393Y007648D03*
X009393Y007650D03*
X009393Y007653D03*
X009393Y007655D03*
X009393Y007658D03*
X009393Y007660D03*
X009393Y007663D03*
X009393Y007665D03*
X009393Y007668D03*
X009393Y007670D03*
X009393Y007673D03*
X009393Y007675D03*
X009393Y007678D03*
X009393Y007680D03*
X009393Y007683D03*
X009393Y007685D03*
X009393Y007688D03*
X009393Y007690D03*
X009393Y007693D03*
X009393Y007695D03*
X009393Y007698D03*
X009393Y007700D03*
X009393Y007703D03*
X009393Y007705D03*
X009393Y007708D03*
X009393Y007710D03*
X009393Y007713D03*
X009393Y007715D03*
X009393Y007718D03*
X009393Y007720D03*
X009393Y007723D03*
X009393Y007725D03*
X009393Y007728D03*
X009393Y007730D03*
X009393Y007733D03*
X009393Y007735D03*
X009393Y007738D03*
X009393Y007740D03*
X009393Y007743D03*
X009393Y007745D03*
X009393Y007748D03*
X009393Y007750D03*
X009393Y007753D03*
X009393Y007755D03*
X009393Y007758D03*
X009393Y007760D03*
X009393Y007763D03*
X009393Y007765D03*
X009393Y007768D03*
X009393Y007770D03*
X009393Y007773D03*
X009393Y007775D03*
X009393Y007778D03*
X009393Y007780D03*
X009393Y007783D03*
X009393Y007785D03*
X009393Y007788D03*
X009393Y007790D03*
X009393Y007793D03*
X009393Y007795D03*
X009393Y007798D03*
X009393Y007800D03*
X009291Y007638D03*
X009293Y007635D03*
X009296Y007630D03*
X009303Y007523D03*
X009301Y007518D03*
X009301Y007515D03*
X009298Y007513D03*
X009298Y007510D03*
X009296Y007508D03*
X009156Y007643D03*
X009026Y007583D03*
X009026Y007465D03*
X008868Y007475D03*
X008866Y007478D03*
X008866Y007480D03*
X008866Y007483D03*
X008863Y007485D03*
X008863Y007488D03*
X008863Y007490D03*
X008861Y007495D03*
X008861Y007498D03*
X008861Y007500D03*
X008861Y007503D03*
X008858Y007513D03*
X008858Y007515D03*
X008858Y007518D03*
X008858Y007520D03*
X008858Y007538D03*
X008858Y007540D03*
X008858Y007543D03*
X008858Y007545D03*
X008858Y007548D03*
X008858Y007550D03*
X008861Y007558D03*
X008861Y007560D03*
X008861Y007563D03*
X008861Y007565D03*
X008861Y007568D03*
X008863Y007570D03*
X008863Y007573D03*
X008863Y007575D03*
X008866Y007583D03*
X008791Y007570D03*
X008791Y007568D03*
X008791Y007565D03*
X008791Y007563D03*
X008793Y007558D03*
X008793Y007555D03*
X008793Y007553D03*
X008793Y007550D03*
X008793Y007548D03*
X008788Y007573D03*
X008788Y007575D03*
X008786Y007580D03*
X008783Y007585D03*
X008793Y007508D03*
X008793Y007505D03*
X008793Y007503D03*
X008793Y007500D03*
X008793Y007498D03*
X008791Y007493D03*
X008791Y007490D03*
X008791Y007488D03*
X008788Y007483D03*
X008788Y007480D03*
X008786Y007478D03*
X008786Y007475D03*
X008783Y007470D03*
X008621Y007473D03*
X008621Y007475D03*
X008618Y007478D03*
X008618Y007480D03*
X008616Y007485D03*
X008616Y007488D03*
X008613Y007495D03*
X008613Y007498D03*
X008613Y007500D03*
X008611Y007510D03*
X008611Y007513D03*
X008611Y007515D03*
X008611Y007518D03*
X008611Y007520D03*
X008611Y007523D03*
X008611Y007525D03*
X008611Y007528D03*
X008611Y007530D03*
X008611Y007533D03*
X008611Y007535D03*
X008611Y007538D03*
X008611Y007540D03*
X008611Y007543D03*
X008611Y007545D03*
X008611Y007548D03*
X008613Y007555D03*
X008613Y007558D03*
X008613Y007560D03*
X008613Y007563D03*
X008616Y007568D03*
X008616Y007570D03*
X008616Y007573D03*
X008618Y007575D03*
X008618Y007578D03*
X008621Y007583D03*
X008623Y007588D03*
X008536Y007493D03*
X008538Y007490D03*
X008541Y007450D03*
X008398Y007463D03*
X008401Y007593D03*
X008403Y007595D03*
X008403Y007598D03*
X008303Y007568D03*
X008303Y007565D03*
X008151Y007558D03*
X008151Y007555D03*
X008151Y007553D03*
X008151Y007550D03*
X008151Y007548D03*
X008151Y007545D03*
X008153Y007530D03*
X008153Y007528D03*
X008153Y007525D03*
X008151Y007505D03*
X008151Y007503D03*
X008151Y007500D03*
X008151Y007498D03*
X008151Y007495D03*
X008151Y007493D03*
X008148Y007490D03*
X008148Y007488D03*
X008148Y007485D03*
X008148Y007483D03*
X008146Y007478D03*
X008146Y007475D03*
X008148Y007563D03*
X008148Y007565D03*
X008148Y007568D03*
X008146Y007573D03*
X008146Y007575D03*
X008143Y007580D03*
X008091Y007405D03*
X007986Y007473D03*
X007896Y007455D03*
X007896Y007418D03*
X007816Y007480D03*
X007816Y007483D03*
X007818Y007485D03*
X007818Y007488D03*
X007818Y007490D03*
X007821Y007495D03*
X007821Y007498D03*
X007821Y007500D03*
X007823Y007513D03*
X007823Y007515D03*
X007823Y007518D03*
X007823Y007520D03*
X007823Y007523D03*
X007823Y007525D03*
X007823Y007528D03*
X007823Y007530D03*
X007823Y007533D03*
X007823Y007535D03*
X007823Y007538D03*
X007823Y007540D03*
X007823Y007543D03*
X007823Y007545D03*
X007821Y007555D03*
X007821Y007558D03*
X007821Y007560D03*
X007818Y007565D03*
X007818Y007568D03*
X007818Y007570D03*
X007816Y007573D03*
X007816Y007575D03*
X007816Y007578D03*
X007813Y007583D03*
X007986Y007593D03*
X007681Y007448D03*
X007613Y007478D03*
X007613Y007480D03*
X007613Y007483D03*
X007616Y007485D03*
X007616Y007488D03*
X007616Y007490D03*
X007618Y007495D03*
X007618Y007498D03*
X007618Y007500D03*
X007618Y007503D03*
X007621Y007510D03*
X007621Y007513D03*
X007621Y007515D03*
X007621Y007518D03*
X007621Y007520D03*
X007621Y007523D03*
X007621Y007525D03*
X007621Y007528D03*
X007621Y007530D03*
X007621Y007533D03*
X007621Y007535D03*
X007621Y007538D03*
X007621Y007540D03*
X007621Y007543D03*
X007621Y007545D03*
X007618Y007555D03*
X007618Y007558D03*
X007618Y007560D03*
X007618Y007563D03*
X007616Y007565D03*
X007616Y007568D03*
X007616Y007570D03*
X007616Y007573D03*
X007613Y007575D03*
X007613Y007578D03*
X007611Y007583D03*
X007608Y007588D03*
X007611Y007475D03*
X007611Y007473D03*
X007448Y007470D03*
X007446Y007475D03*
X007443Y007480D03*
X007443Y007483D03*
X007441Y007488D03*
X007441Y007490D03*
X007441Y007493D03*
X007438Y007498D03*
X007438Y007500D03*
X007438Y007503D03*
X007438Y007505D03*
X007436Y007518D03*
X007436Y007520D03*
X007436Y007523D03*
X007436Y007525D03*
X007436Y007528D03*
X007436Y007530D03*
X007436Y007533D03*
X007436Y007535D03*
X007436Y007538D03*
X007438Y007550D03*
X007438Y007553D03*
X007438Y007555D03*
X007438Y007558D03*
X007441Y007565D03*
X007441Y007568D03*
X007441Y007570D03*
X007443Y007573D03*
X007443Y007575D03*
X007443Y007578D03*
X007446Y007580D03*
X007446Y007583D03*
X007356Y007588D03*
X007211Y007575D03*
X007073Y007595D03*
X007071Y007590D03*
X007071Y007588D03*
X007068Y007578D03*
X009508Y007578D03*
X009623Y007578D03*
X009626Y007580D03*
X009628Y007643D03*
X009726Y007643D03*
X009733Y007578D03*
X009851Y007580D03*
X009853Y007643D03*
X009851Y007645D03*
X009943Y007508D03*
X010096Y007503D03*
X010098Y007508D03*
X010098Y007510D03*
X010101Y007523D03*
X010101Y007525D03*
X010101Y007528D03*
X010101Y007530D03*
X010176Y007540D03*
X010176Y007543D03*
X010176Y007545D03*
X010176Y007548D03*
X010176Y007550D03*
X010176Y007553D03*
X010176Y007555D03*
X010176Y007558D03*
X010176Y007560D03*
X010176Y007563D03*
X010176Y007565D03*
X010176Y007568D03*
X010176Y007570D03*
X010176Y007573D03*
X010176Y007575D03*
X010176Y007578D03*
X010176Y007580D03*
X010176Y007583D03*
X010176Y007585D03*
X010176Y007588D03*
X010176Y007590D03*
X010176Y007593D03*
X010176Y007595D03*
X010176Y007598D03*
X010178Y007600D03*
X010178Y007603D03*
X010178Y007605D03*
X010178Y007608D03*
X010181Y007615D03*
X010178Y007535D03*
X010178Y007533D03*
X010178Y007530D03*
X010178Y007528D03*
X010181Y007525D03*
X010181Y007523D03*
X010181Y007520D03*
X010183Y007515D03*
X010343Y007503D03*
X010343Y007425D03*
X010343Y007620D03*
X009711Y007403D03*
X009643Y007405D03*
X009626Y007508D03*
D163*
X008521Y004428D03*
D164*
X008521Y004430D03*
D165*
X008521Y004433D03*
D166*
X008520Y004435D03*
D167*
X008520Y004438D03*
D168*
X008518Y004440D03*
D169*
X008518Y004443D03*
D170*
X009587Y004445D03*
X009592Y004448D03*
X009595Y004450D03*
X009602Y004455D03*
X009605Y004458D03*
X009610Y004460D03*
X009612Y004463D03*
X009617Y004465D03*
X009620Y004468D03*
X009622Y004470D03*
X009627Y004473D03*
X009630Y004475D03*
X009640Y004483D03*
X009630Y007030D03*
X009627Y007033D03*
X009622Y007035D03*
X009620Y007038D03*
X009617Y007040D03*
X009612Y007043D03*
X009610Y007045D03*
X009605Y007048D03*
X009602Y007050D03*
X009595Y007055D03*
X009592Y007058D03*
X009587Y007060D03*
X009707Y007405D03*
X009850Y007508D03*
X009852Y007583D03*
X009855Y007585D03*
X009855Y007640D03*
X009942Y007640D03*
X009942Y007643D03*
X009942Y007645D03*
X009942Y007648D03*
X009942Y007650D03*
X009942Y007653D03*
X009942Y007655D03*
X009942Y007658D03*
X009942Y007660D03*
X009942Y007663D03*
X009942Y007665D03*
X009942Y007668D03*
X009942Y007670D03*
X009942Y007673D03*
X009942Y007675D03*
X009942Y007678D03*
X009942Y007680D03*
X009942Y007683D03*
X009942Y007685D03*
X009942Y007688D03*
X009942Y007690D03*
X009942Y007638D03*
X009942Y007635D03*
X009942Y007633D03*
X009942Y007630D03*
X009942Y007628D03*
X009942Y007625D03*
X009942Y007623D03*
X009942Y007620D03*
X009942Y007618D03*
X009942Y007615D03*
X009942Y007613D03*
X009942Y007610D03*
X009942Y007608D03*
X009942Y007605D03*
X009942Y007603D03*
X009942Y007600D03*
X009942Y007598D03*
X009942Y007595D03*
X009942Y007593D03*
X009942Y007590D03*
X009942Y007588D03*
X009942Y007585D03*
X009942Y007583D03*
X009942Y007580D03*
X009942Y007578D03*
X009942Y007575D03*
X009942Y007573D03*
X009942Y007570D03*
X009942Y007568D03*
X009942Y007565D03*
X009942Y007563D03*
X009942Y007560D03*
X009942Y007558D03*
X009942Y007555D03*
X009942Y007553D03*
X009942Y007550D03*
X009942Y007548D03*
X009942Y007545D03*
X009942Y007543D03*
X009942Y007540D03*
X009942Y007538D03*
X009942Y007535D03*
X009942Y007533D03*
X009942Y007530D03*
X009942Y007528D03*
X009942Y007525D03*
X009942Y007523D03*
X009942Y007520D03*
X009942Y007518D03*
X009942Y007515D03*
X009942Y007513D03*
X009942Y007510D03*
X010100Y007513D03*
X010100Y007515D03*
X010100Y007518D03*
X010100Y007520D03*
X010102Y007533D03*
X010102Y007535D03*
X010102Y007538D03*
X010102Y007540D03*
X010102Y007543D03*
X010102Y007545D03*
X010102Y007548D03*
X010102Y007550D03*
X010102Y007553D03*
X010102Y007555D03*
X010102Y007558D03*
X010102Y007560D03*
X010102Y007563D03*
X010102Y007565D03*
X010102Y007568D03*
X010102Y007570D03*
X010102Y007573D03*
X010102Y007575D03*
X010102Y007578D03*
X010102Y007580D03*
X010102Y007583D03*
X010102Y007585D03*
X010102Y007588D03*
X010102Y007590D03*
X010102Y007593D03*
X010102Y007595D03*
X010102Y007598D03*
X010102Y007600D03*
X010102Y007603D03*
X010102Y007605D03*
X010102Y007608D03*
X010102Y007610D03*
X010102Y007613D03*
X010102Y007615D03*
X010102Y007618D03*
X010102Y007620D03*
X010102Y007623D03*
X010102Y007625D03*
X010102Y007628D03*
X010102Y007630D03*
X010102Y007633D03*
X010102Y007635D03*
X010102Y007638D03*
X010102Y007640D03*
X010102Y007643D03*
X010102Y007645D03*
X010102Y007648D03*
X010102Y007650D03*
X010102Y007653D03*
X010102Y007655D03*
X010102Y007658D03*
X010102Y007660D03*
X010102Y007663D03*
X010102Y007665D03*
X010102Y007668D03*
X010102Y007670D03*
X010102Y007673D03*
X010102Y007675D03*
X010102Y007678D03*
X010102Y007680D03*
X010102Y007683D03*
X010102Y007685D03*
X010102Y007688D03*
X010102Y007690D03*
X010177Y007538D03*
X010345Y007538D03*
X010345Y007540D03*
X010345Y007543D03*
X010345Y007545D03*
X010345Y007548D03*
X010345Y007550D03*
X010345Y007553D03*
X010345Y007555D03*
X010345Y007558D03*
X010345Y007560D03*
X010345Y007563D03*
X010345Y007565D03*
X010345Y007568D03*
X010345Y007570D03*
X010345Y007573D03*
X010345Y007575D03*
X010345Y007578D03*
X010345Y007580D03*
X010345Y007583D03*
X010345Y007585D03*
X010345Y007588D03*
X010345Y007590D03*
X010345Y007593D03*
X010345Y007595D03*
X010345Y007598D03*
X010345Y007600D03*
X010345Y007603D03*
X010345Y007605D03*
X010345Y007608D03*
X010345Y007610D03*
X010345Y007613D03*
X010345Y007615D03*
X010345Y007618D03*
X010345Y007535D03*
X010345Y007533D03*
X010345Y007530D03*
X010345Y007528D03*
X010345Y007525D03*
X010345Y007523D03*
X010345Y007520D03*
X010345Y007518D03*
X010345Y007515D03*
X010345Y007513D03*
X010345Y007510D03*
X010345Y007508D03*
X010345Y007505D03*
X010345Y007458D03*
X010345Y007455D03*
X010345Y007453D03*
X010345Y007450D03*
X010345Y007448D03*
X010345Y007445D03*
X010345Y007443D03*
X010345Y007440D03*
X010345Y007438D03*
X010345Y007435D03*
X010345Y007433D03*
X010345Y007430D03*
X010345Y007428D03*
X010345Y007398D03*
X010345Y007395D03*
X010345Y007393D03*
X010345Y007390D03*
X010345Y007388D03*
X010345Y007385D03*
X010345Y007383D03*
X010345Y007380D03*
X010345Y007378D03*
X010345Y007375D03*
X010345Y007373D03*
X010345Y007370D03*
X010345Y007368D03*
X010345Y007365D03*
X010345Y007363D03*
X010345Y007360D03*
X009730Y007580D03*
X009727Y007583D03*
X009630Y007585D03*
X009627Y007583D03*
X009632Y007638D03*
X009630Y007640D03*
X009502Y007643D03*
X009505Y007580D03*
X009472Y007440D03*
X009472Y007438D03*
X009302Y007520D03*
X009305Y007525D03*
X009305Y007528D03*
X009305Y007530D03*
X009307Y007533D03*
X009307Y007535D03*
X009307Y007538D03*
X009307Y007540D03*
X009307Y007543D03*
X009310Y007548D03*
X009310Y007550D03*
X009310Y007553D03*
X009310Y007555D03*
X009310Y007558D03*
X009307Y007595D03*
X009307Y007598D03*
X009307Y007600D03*
X009307Y007603D03*
X009307Y007605D03*
X009305Y007610D03*
X009305Y007613D03*
X009302Y007615D03*
X009302Y007618D03*
X009302Y007620D03*
X009300Y007623D03*
X009300Y007625D03*
X009297Y007628D03*
X009155Y007640D03*
X009152Y007638D03*
X009027Y007638D03*
X009027Y007640D03*
X009027Y007643D03*
X009027Y007645D03*
X009027Y007648D03*
X009027Y007650D03*
X009027Y007653D03*
X009027Y007655D03*
X009027Y007658D03*
X009027Y007660D03*
X009027Y007663D03*
X009027Y007665D03*
X009027Y007668D03*
X009027Y007670D03*
X009027Y007673D03*
X009027Y007675D03*
X009027Y007678D03*
X009027Y007680D03*
X009027Y007683D03*
X009027Y007685D03*
X009027Y007688D03*
X009027Y007690D03*
X009027Y007693D03*
X009027Y007695D03*
X009027Y007698D03*
X009027Y007700D03*
X009027Y007703D03*
X009027Y007705D03*
X009027Y007708D03*
X009027Y007710D03*
X009027Y007713D03*
X009027Y007715D03*
X009027Y007718D03*
X009027Y007720D03*
X009027Y007723D03*
X009027Y007725D03*
X009027Y007728D03*
X009027Y007730D03*
X009027Y007733D03*
X009027Y007735D03*
X009027Y007738D03*
X009027Y007740D03*
X009027Y007743D03*
X009027Y007745D03*
X009027Y007748D03*
X009027Y007750D03*
X009027Y007753D03*
X009027Y007755D03*
X009027Y007758D03*
X009027Y007760D03*
X009027Y007763D03*
X009027Y007635D03*
X009027Y007633D03*
X009027Y007630D03*
X009027Y007628D03*
X009027Y007625D03*
X009027Y007580D03*
X009027Y007578D03*
X009027Y007575D03*
X009027Y007573D03*
X009027Y007570D03*
X009027Y007568D03*
X009027Y007565D03*
X009027Y007563D03*
X009027Y007560D03*
X009027Y007558D03*
X009027Y007555D03*
X009027Y007553D03*
X009027Y007550D03*
X009027Y007548D03*
X009027Y007545D03*
X009027Y007543D03*
X009027Y007540D03*
X009027Y007538D03*
X009027Y007535D03*
X009027Y007533D03*
X009027Y007530D03*
X009027Y007528D03*
X009027Y007525D03*
X009027Y007523D03*
X009027Y007520D03*
X009027Y007518D03*
X009027Y007515D03*
X009027Y007513D03*
X009027Y007510D03*
X009027Y007508D03*
X009027Y007505D03*
X009027Y007503D03*
X009027Y007500D03*
X009027Y007498D03*
X009027Y007495D03*
X009027Y007493D03*
X009027Y007490D03*
X009027Y007488D03*
X009027Y007485D03*
X009027Y007483D03*
X009027Y007480D03*
X009027Y007478D03*
X009027Y007475D03*
X009027Y007473D03*
X009027Y007470D03*
X009027Y007468D03*
X009152Y007488D03*
X008862Y007493D03*
X008860Y007505D03*
X008860Y007508D03*
X008860Y007510D03*
X008860Y007553D03*
X008860Y007555D03*
X008795Y007545D03*
X008795Y007543D03*
X008795Y007540D03*
X008795Y007538D03*
X008795Y007520D03*
X008795Y007518D03*
X008795Y007515D03*
X008795Y007513D03*
X008795Y007510D03*
X008792Y007495D03*
X008790Y007485D03*
X008792Y007560D03*
X008702Y007403D03*
X008617Y007483D03*
X008615Y007490D03*
X008615Y007493D03*
X008612Y007503D03*
X008612Y007505D03*
X008612Y007508D03*
X008612Y007550D03*
X008612Y007553D03*
X008615Y007565D03*
X008525Y007605D03*
X008540Y007488D03*
X008542Y007483D03*
X008545Y007460D03*
X008545Y007458D03*
X008542Y007453D03*
X008397Y007465D03*
X008397Y007575D03*
X008397Y007578D03*
X008397Y007580D03*
X008397Y007583D03*
X008400Y007585D03*
X008400Y007588D03*
X008400Y007590D03*
X008305Y007563D03*
X008305Y007560D03*
X008152Y007543D03*
X008152Y007540D03*
X008152Y007538D03*
X008152Y007535D03*
X008152Y007533D03*
X008152Y007523D03*
X008152Y007520D03*
X008152Y007518D03*
X008152Y007515D03*
X008152Y007513D03*
X008152Y007510D03*
X008152Y007508D03*
X008150Y007560D03*
X008147Y007570D03*
X008077Y007653D03*
X007985Y007653D03*
X007985Y007655D03*
X007985Y007658D03*
X007985Y007660D03*
X007985Y007663D03*
X007985Y007665D03*
X007985Y007668D03*
X007985Y007670D03*
X007985Y007673D03*
X007985Y007675D03*
X007985Y007678D03*
X007985Y007680D03*
X007985Y007683D03*
X007985Y007685D03*
X007985Y007688D03*
X007985Y007690D03*
X007985Y007693D03*
X007985Y007695D03*
X007985Y007698D03*
X007985Y007700D03*
X007985Y007703D03*
X007985Y007705D03*
X007985Y007708D03*
X007985Y007710D03*
X007985Y007713D03*
X007985Y007715D03*
X007985Y007718D03*
X007985Y007720D03*
X007985Y007723D03*
X007985Y007725D03*
X007985Y007728D03*
X007985Y007730D03*
X007985Y007733D03*
X007985Y007735D03*
X007985Y007738D03*
X007985Y007740D03*
X007985Y007743D03*
X007985Y007745D03*
X007985Y007748D03*
X007985Y007750D03*
X007985Y007753D03*
X007985Y007755D03*
X007985Y007758D03*
X007985Y007760D03*
X007985Y007763D03*
X007985Y007650D03*
X007985Y007648D03*
X007985Y007645D03*
X007985Y007643D03*
X007985Y007640D03*
X007985Y007638D03*
X007985Y007635D03*
X007985Y007590D03*
X007985Y007588D03*
X007985Y007585D03*
X007985Y007583D03*
X007985Y007580D03*
X007985Y007578D03*
X007985Y007575D03*
X007985Y007573D03*
X007985Y007570D03*
X007985Y007568D03*
X007985Y007565D03*
X007985Y007563D03*
X007985Y007560D03*
X007985Y007558D03*
X007985Y007555D03*
X007985Y007553D03*
X007985Y007550D03*
X007985Y007548D03*
X007985Y007545D03*
X007985Y007543D03*
X007985Y007540D03*
X007985Y007538D03*
X007985Y007535D03*
X007985Y007533D03*
X007985Y007530D03*
X007985Y007528D03*
X007985Y007525D03*
X007985Y007523D03*
X007985Y007520D03*
X007985Y007518D03*
X007985Y007515D03*
X007985Y007513D03*
X007985Y007510D03*
X007985Y007508D03*
X007985Y007505D03*
X007985Y007503D03*
X007985Y007500D03*
X007985Y007498D03*
X007985Y007495D03*
X007985Y007493D03*
X007985Y007490D03*
X007985Y007488D03*
X007985Y007485D03*
X007985Y007483D03*
X007985Y007480D03*
X007985Y007478D03*
X007985Y007475D03*
X007895Y007458D03*
X007895Y007415D03*
X007820Y007493D03*
X007822Y007503D03*
X007822Y007505D03*
X007822Y007508D03*
X007822Y007510D03*
X007822Y007548D03*
X007822Y007550D03*
X007822Y007553D03*
X007820Y007563D03*
X007620Y007553D03*
X007620Y007550D03*
X007620Y007548D03*
X007620Y007508D03*
X007620Y007505D03*
X007617Y007493D03*
X007442Y007485D03*
X007440Y007495D03*
X007437Y007508D03*
X007437Y007510D03*
X007437Y007513D03*
X007437Y007515D03*
X007437Y007540D03*
X007437Y007543D03*
X007437Y007545D03*
X007437Y007548D03*
X007440Y007560D03*
X007440Y007563D03*
X007357Y007563D03*
X007357Y007565D03*
X007357Y007568D03*
X007357Y007570D03*
X007357Y007573D03*
X007357Y007575D03*
X007357Y007578D03*
X007357Y007580D03*
X007357Y007583D03*
X007357Y007585D03*
X007357Y007560D03*
X007357Y007558D03*
X007357Y007555D03*
X007357Y007553D03*
X007357Y007550D03*
X007357Y007548D03*
X007357Y007545D03*
X007357Y007543D03*
X007357Y007540D03*
X007357Y007538D03*
X007357Y007535D03*
X007357Y007533D03*
X007357Y007530D03*
X007357Y007528D03*
X007357Y007525D03*
X007357Y007523D03*
X007357Y007520D03*
X007357Y007518D03*
X007357Y007515D03*
X007357Y007513D03*
X007357Y007510D03*
X007357Y007508D03*
X007357Y007505D03*
X007357Y007503D03*
X007357Y007500D03*
X007357Y007498D03*
X007357Y007495D03*
X007357Y007493D03*
X007357Y007490D03*
X007357Y007488D03*
X007357Y007485D03*
X007357Y007483D03*
X007357Y007480D03*
X007357Y007478D03*
X007357Y007475D03*
X007357Y007473D03*
X007357Y007470D03*
X007357Y007468D03*
X007357Y007465D03*
X007357Y007463D03*
X007357Y007460D03*
X007357Y007458D03*
X007357Y007455D03*
X007357Y007453D03*
X007357Y007450D03*
X007357Y007448D03*
X007357Y007445D03*
X007357Y007443D03*
X007357Y007440D03*
X007357Y007438D03*
X007357Y007435D03*
X007357Y007433D03*
X007357Y007430D03*
X007357Y007428D03*
X007357Y007425D03*
X007357Y007423D03*
X007357Y007420D03*
X007357Y007418D03*
X007357Y007415D03*
X007357Y007413D03*
X007357Y007410D03*
X007357Y007408D03*
X007357Y007405D03*
X007212Y007405D03*
X007212Y007408D03*
X007212Y007410D03*
X007212Y007413D03*
X007212Y007415D03*
X007212Y007418D03*
X007212Y007420D03*
X007212Y007423D03*
X007212Y007425D03*
X007212Y007428D03*
X007212Y007430D03*
X007212Y007433D03*
X007212Y007435D03*
X007212Y007438D03*
X007212Y007440D03*
X007212Y007443D03*
X007212Y007445D03*
X007212Y007448D03*
X007212Y007450D03*
X007212Y007453D03*
X007212Y007455D03*
X007212Y007458D03*
X007212Y007460D03*
X007212Y007463D03*
X007212Y007465D03*
X007212Y007468D03*
X007212Y007470D03*
X007212Y007473D03*
X007212Y007475D03*
X007212Y007478D03*
X007212Y007480D03*
X007212Y007483D03*
X007212Y007485D03*
X007212Y007488D03*
X007212Y007490D03*
X007212Y007493D03*
X007212Y007495D03*
X007212Y007498D03*
X007212Y007500D03*
X007212Y007503D03*
X007212Y007505D03*
X007212Y007508D03*
X007212Y007510D03*
X007212Y007513D03*
X007212Y007515D03*
X007212Y007518D03*
X007212Y007520D03*
X007212Y007523D03*
X007212Y007525D03*
X007212Y007528D03*
X007212Y007530D03*
X007212Y007533D03*
X007212Y007535D03*
X007212Y007538D03*
X007212Y007540D03*
X007212Y007543D03*
X007212Y007545D03*
X007212Y007548D03*
X007212Y007550D03*
X007212Y007553D03*
X007212Y007555D03*
X007212Y007558D03*
X007212Y007560D03*
X007212Y007563D03*
X007212Y007565D03*
X007212Y007568D03*
X007212Y007570D03*
X007212Y007573D03*
X007070Y007580D03*
X007070Y007583D03*
X007070Y007585D03*
X007067Y007575D03*
X007067Y007573D03*
X007067Y007570D03*
X007067Y007568D03*
X007067Y007565D03*
X007067Y007563D03*
X007067Y007560D03*
X007067Y007558D03*
X007067Y007555D03*
X007067Y007553D03*
X007067Y007550D03*
X007067Y007548D03*
X007067Y007545D03*
X007067Y007543D03*
X007067Y007540D03*
X007067Y007538D03*
X007067Y007535D03*
X007067Y007533D03*
X007067Y007530D03*
X007067Y007528D03*
X007067Y007525D03*
X007067Y007523D03*
X007067Y007520D03*
X007067Y007518D03*
X007067Y007515D03*
X007067Y007513D03*
X007067Y007510D03*
X007067Y007508D03*
X007067Y007505D03*
X007067Y007503D03*
X007067Y007500D03*
X007067Y007498D03*
X007067Y007495D03*
X007067Y007493D03*
X007067Y007490D03*
X007067Y007488D03*
X007067Y007485D03*
X007067Y007483D03*
X007067Y007480D03*
X007067Y007478D03*
X007067Y007475D03*
X007067Y007473D03*
X007067Y007470D03*
X007067Y007468D03*
X007067Y007465D03*
X007067Y007463D03*
X007067Y007460D03*
X007067Y007458D03*
X007067Y007455D03*
X007067Y007453D03*
X007067Y007450D03*
X007067Y007448D03*
X007067Y007445D03*
X007067Y007443D03*
X007067Y007440D03*
X007067Y007438D03*
X007067Y007435D03*
X007067Y007433D03*
X007067Y007430D03*
X007067Y007428D03*
X007067Y007425D03*
X007067Y007423D03*
X007067Y007420D03*
X007067Y007418D03*
X007067Y007415D03*
X007067Y007413D03*
X007067Y007410D03*
X007067Y007408D03*
X007067Y007405D03*
X009392Y007803D03*
D171*
X008518Y004445D03*
D172*
X008517Y004448D03*
D173*
X008517Y004450D03*
D174*
X008515Y004453D03*
D175*
X008515Y004455D03*
D176*
X008515Y004458D03*
D177*
X008513Y004460D03*
D178*
X008513Y004463D03*
D179*
X008512Y004465D03*
D180*
X008512Y004468D03*
D181*
X008512Y004470D03*
D182*
X008510Y004473D03*
D183*
X008510Y004475D03*
D184*
X009633Y004478D03*
X009636Y004480D03*
X009643Y004485D03*
X009646Y004488D03*
X009653Y004493D03*
X009656Y004495D03*
X009663Y004500D03*
X009666Y004503D03*
X009676Y004510D03*
X009678Y004513D03*
X009688Y006985D03*
X009678Y006993D03*
X009676Y006995D03*
X009666Y007003D03*
X009663Y007005D03*
X009656Y007010D03*
X009653Y007013D03*
X009646Y007018D03*
X009643Y007020D03*
X009641Y007023D03*
X009636Y007025D03*
X009633Y007028D03*
X009481Y007408D03*
X009478Y007410D03*
X009471Y007435D03*
X009503Y007583D03*
X009501Y007585D03*
X009498Y007590D03*
X009498Y007635D03*
X009498Y007638D03*
X009501Y007640D03*
X009566Y007693D03*
X009633Y007635D03*
X009633Y007633D03*
X009636Y007628D03*
X009636Y007625D03*
X009636Y007600D03*
X009633Y007593D03*
X009633Y007590D03*
X009631Y007588D03*
X009723Y007590D03*
X009726Y007585D03*
X009723Y007638D03*
X009726Y007640D03*
X009791Y007693D03*
X009856Y007638D03*
X009858Y007635D03*
X009858Y007633D03*
X009861Y007625D03*
X009861Y007603D03*
X009858Y007593D03*
X009856Y007588D03*
X010346Y007660D03*
X009306Y007608D03*
X009308Y007545D03*
X009148Y007633D03*
X009028Y007430D03*
X009028Y007428D03*
X008546Y007463D03*
X008546Y007465D03*
X008546Y007468D03*
X008546Y007470D03*
X008546Y007473D03*
X008543Y007478D03*
X008543Y007480D03*
X008541Y007485D03*
X008543Y007455D03*
X008396Y007468D03*
X008396Y007470D03*
X008396Y007473D03*
X008396Y007475D03*
X008396Y007478D03*
X008396Y007480D03*
X008396Y007483D03*
X008396Y007485D03*
X008396Y007488D03*
X008396Y007490D03*
X008396Y007493D03*
X008396Y007495D03*
X008396Y007498D03*
X008396Y007500D03*
X008396Y007503D03*
X008396Y007505D03*
X008396Y007508D03*
X008396Y007548D03*
X008396Y007550D03*
X008396Y007553D03*
X008396Y007555D03*
X008396Y007558D03*
X008396Y007560D03*
X008396Y007563D03*
X008396Y007565D03*
X008396Y007568D03*
X008396Y007570D03*
X008396Y007573D03*
X008306Y007558D03*
X008306Y007555D03*
X008306Y007553D03*
X008306Y007550D03*
X008306Y007548D03*
X008306Y007545D03*
X008306Y007543D03*
X008306Y007540D03*
X008306Y007538D03*
X008306Y007535D03*
X008306Y007533D03*
X008306Y007530D03*
X008306Y007528D03*
X008306Y007525D03*
X008306Y007523D03*
X008306Y007520D03*
X008306Y007518D03*
X008306Y007515D03*
X008306Y007513D03*
X008306Y007510D03*
X008306Y007508D03*
X008306Y007505D03*
X008306Y007503D03*
X008306Y007500D03*
X008306Y007498D03*
X008306Y007495D03*
X008306Y007493D03*
X008306Y007490D03*
X008306Y007488D03*
X008306Y007485D03*
X008306Y007483D03*
X008306Y007480D03*
X008306Y007478D03*
X008306Y007475D03*
X008306Y007473D03*
X008306Y007470D03*
X008306Y007468D03*
X008306Y007465D03*
X008306Y007463D03*
X008306Y007460D03*
X008306Y007458D03*
X008306Y007455D03*
X008306Y007453D03*
X008306Y007450D03*
X008306Y007448D03*
X008306Y007445D03*
X008306Y007443D03*
X008306Y007440D03*
X008306Y007438D03*
X008306Y007435D03*
X008306Y007433D03*
X008306Y007430D03*
X008306Y007428D03*
X008306Y007425D03*
X008306Y007423D03*
X008306Y007420D03*
X008306Y007418D03*
X008306Y007415D03*
X008306Y007413D03*
X008306Y007410D03*
X008306Y007408D03*
X008306Y007405D03*
X008208Y007650D03*
X007896Y007460D03*
X007896Y007413D03*
X007738Y007403D03*
X007528Y007403D03*
X007266Y007650D03*
D185*
X008510Y004478D03*
D186*
X008510Y004480D03*
D187*
X008507Y004483D03*
D188*
X008507Y004485D03*
D189*
X008507Y004488D03*
X007887Y005753D03*
D190*
X007982Y007428D03*
X007982Y007430D03*
X007982Y007433D03*
X007982Y007435D03*
X008307Y007610D03*
X008307Y007613D03*
X008307Y007615D03*
X008307Y007618D03*
X008500Y007403D03*
X008545Y007475D03*
X008527Y007603D03*
X009030Y007425D03*
X009030Y007423D03*
X009030Y007420D03*
X009030Y007418D03*
X009030Y007415D03*
X009150Y007490D03*
X009140Y007608D03*
X009142Y007618D03*
X009142Y007620D03*
X009145Y007625D03*
X009145Y007628D03*
X009147Y007630D03*
X009150Y007635D03*
X009495Y007628D03*
X009497Y007630D03*
X009497Y007633D03*
X009495Y007625D03*
X009495Y007623D03*
X009495Y007620D03*
X009495Y007618D03*
X009495Y007608D03*
X009495Y007605D03*
X009495Y007603D03*
X009495Y007600D03*
X009497Y007595D03*
X009497Y007593D03*
X009500Y007588D03*
X009635Y007595D03*
X009635Y007598D03*
X009637Y007603D03*
X009637Y007605D03*
X009637Y007608D03*
X009637Y007610D03*
X009637Y007613D03*
X009637Y007615D03*
X009637Y007618D03*
X009637Y007620D03*
X009637Y007623D03*
X009635Y007630D03*
X009720Y007630D03*
X009720Y007628D03*
X009720Y007625D03*
X009720Y007623D03*
X009722Y007633D03*
X009722Y007635D03*
X009720Y007603D03*
X009720Y007600D03*
X009722Y007595D03*
X009722Y007593D03*
X009725Y007588D03*
X009627Y007510D03*
X009472Y007433D03*
X009472Y007430D03*
X009472Y007428D03*
X009472Y007425D03*
X009477Y007413D03*
X009852Y007510D03*
X009857Y007590D03*
X009860Y007595D03*
X009860Y007598D03*
X009860Y007600D03*
X009862Y007605D03*
X009862Y007608D03*
X009862Y007610D03*
X009862Y007613D03*
X009862Y007615D03*
X009862Y007618D03*
X009862Y007620D03*
X009862Y007623D03*
X009860Y007628D03*
X009860Y007630D03*
X009940Y007468D03*
X009940Y007465D03*
X009940Y007463D03*
X009940Y007460D03*
X009940Y007458D03*
X010047Y007440D03*
X010252Y007440D03*
X010347Y007663D03*
X010347Y007665D03*
X010347Y007668D03*
X010347Y007670D03*
X010347Y007673D03*
X009682Y006990D03*
X009685Y006988D03*
X009692Y006983D03*
X009695Y006980D03*
X009697Y006978D03*
X009700Y006975D03*
X009710Y006968D03*
X009727Y006953D03*
X009672Y006998D03*
X009670Y007000D03*
X009660Y007008D03*
X009650Y007015D03*
X007360Y007625D03*
X007360Y007628D03*
X007360Y007630D03*
X007122Y007653D03*
X009730Y004555D03*
X009727Y004553D03*
X009712Y004540D03*
X009710Y004538D03*
X009700Y004530D03*
X009697Y004528D03*
X009695Y004525D03*
X009692Y004523D03*
X009687Y004520D03*
X009685Y004518D03*
X009682Y004515D03*
X009672Y004508D03*
X009670Y004505D03*
X009660Y004498D03*
X009650Y004490D03*
D191*
X008506Y004490D03*
D192*
X008506Y004493D03*
D193*
X008505Y004495D03*
D194*
X008505Y004498D03*
D195*
X008503Y004500D03*
D196*
X008503Y004503D03*
D197*
X008502Y004505D03*
D198*
X008502Y004508D03*
D199*
X008501Y004510D03*
D200*
X008500Y004513D03*
D201*
X008500Y004515D03*
D202*
X008500Y004518D03*
X007917Y005750D03*
D203*
X008498Y004520D03*
D204*
X008497Y004523D03*
D205*
X008497Y004525D03*
D206*
X008497Y004528D03*
D207*
X008496Y004530D03*
D208*
X009703Y004533D03*
X009706Y004535D03*
X009716Y004543D03*
X009718Y004545D03*
X009721Y004548D03*
X009723Y004550D03*
X009733Y004558D03*
X009736Y004560D03*
X009738Y004563D03*
X009741Y004565D03*
X009743Y004568D03*
X009746Y004570D03*
X009756Y004578D03*
X009758Y004580D03*
X009761Y004583D03*
X009763Y004585D03*
X009763Y006920D03*
X009761Y006923D03*
X009758Y006925D03*
X009756Y006928D03*
X009753Y006930D03*
X009746Y006935D03*
X009743Y006938D03*
X009741Y006940D03*
X009738Y006943D03*
X009736Y006945D03*
X009733Y006948D03*
X009731Y006950D03*
X009723Y006955D03*
X009721Y006958D03*
X009718Y006960D03*
X009716Y006963D03*
X009713Y006965D03*
X009706Y006970D03*
X009703Y006973D03*
X009876Y007425D03*
X009873Y007433D03*
X009868Y007443D03*
X009858Y007453D03*
X009856Y007455D03*
X009853Y007513D03*
X009853Y007515D03*
X009938Y007455D03*
X009938Y007453D03*
X009938Y007450D03*
X009721Y007598D03*
X009718Y007605D03*
X009718Y007608D03*
X009718Y007610D03*
X009718Y007613D03*
X009718Y007615D03*
X009718Y007618D03*
X009718Y007620D03*
X009628Y007513D03*
X009631Y007455D03*
X009633Y007453D03*
X009496Y007598D03*
X009493Y007610D03*
X009493Y007613D03*
X009493Y007615D03*
X009143Y007623D03*
X009141Y007615D03*
X009141Y007613D03*
X009141Y007610D03*
X009138Y007605D03*
X009138Y007603D03*
X009138Y007600D03*
X009138Y007598D03*
X009138Y007595D03*
X009031Y007413D03*
X009031Y007410D03*
X008921Y007653D03*
X008308Y007638D03*
X008308Y007635D03*
X008308Y007633D03*
X008308Y007630D03*
X008308Y007628D03*
X008308Y007625D03*
X008308Y007623D03*
X008308Y007620D03*
X007981Y007425D03*
X007981Y007423D03*
X007981Y007420D03*
X007981Y007418D03*
X007981Y007415D03*
X007896Y007410D03*
X007896Y007463D03*
X007678Y007450D03*
X007683Y007608D03*
X007361Y007633D03*
X007361Y007635D03*
X007361Y007638D03*
X007361Y007640D03*
X010348Y007675D03*
X010348Y007678D03*
X010348Y007680D03*
X010348Y007683D03*
D209*
X007931Y005748D03*
X008496Y004533D03*
D210*
X008495Y004535D03*
D211*
X008493Y004538D03*
D212*
X008493Y004540D03*
D213*
X008493Y004543D03*
X007941Y005745D03*
D214*
X008492Y004545D03*
D215*
X008492Y004548D03*
D216*
X008492Y004550D03*
D217*
X008490Y004553D03*
X007950Y005743D03*
D218*
X008490Y004555D03*
D219*
X008488Y004558D03*
D220*
X008488Y004560D03*
X007956Y005740D03*
D221*
X008488Y004563D03*
D222*
X008487Y004565D03*
D223*
X008487Y004568D03*
D224*
X008486Y004570D03*
X007963Y005738D03*
D225*
X007980Y007410D03*
X007980Y007413D03*
X008310Y007640D03*
X008310Y007643D03*
X008310Y007645D03*
X008392Y007430D03*
X008392Y007428D03*
X008392Y007425D03*
X009032Y007408D03*
X009220Y007693D03*
X009630Y007515D03*
X009637Y007450D03*
X009640Y007448D03*
X009862Y007450D03*
X009865Y007448D03*
X009867Y007445D03*
X009870Y007440D03*
X009872Y007438D03*
X009872Y007435D03*
X009875Y007430D03*
X009875Y007428D03*
X009937Y007445D03*
X009937Y007448D03*
X010237Y007693D03*
X010350Y007685D03*
X009750Y006933D03*
X009767Y006918D03*
X009770Y006915D03*
X009772Y006913D03*
X009775Y006910D03*
X009777Y006908D03*
X009780Y006905D03*
X009782Y006903D03*
X009785Y006900D03*
X009787Y006898D03*
X009790Y006895D03*
X009792Y006893D03*
X009795Y006890D03*
X009797Y006888D03*
X009800Y006885D03*
X009802Y006883D03*
X009805Y006880D03*
X009840Y006845D03*
X009842Y006843D03*
X009845Y006840D03*
X009842Y004663D03*
X009840Y004660D03*
X009807Y004628D03*
X009805Y004625D03*
X009802Y004623D03*
X009800Y004620D03*
X009797Y004618D03*
X009795Y004615D03*
X009792Y004613D03*
X009790Y004610D03*
X009787Y004608D03*
X009785Y004605D03*
X009782Y004603D03*
X009780Y004600D03*
X009777Y004598D03*
X009775Y004595D03*
X009772Y004593D03*
X009770Y004590D03*
X009767Y004588D03*
X009752Y004575D03*
X009750Y004573D03*
X007362Y007643D03*
X007362Y007645D03*
D226*
X008485Y004573D03*
D227*
X008485Y004575D03*
X007970Y005735D03*
D228*
X008483Y004578D03*
D229*
X008483Y004580D03*
D230*
X008482Y004583D03*
X007975Y005733D03*
D231*
X008482Y004585D03*
D232*
X008481Y004588D03*
D233*
X008481Y004590D03*
D234*
X008481Y004593D03*
D235*
X008480Y004595D03*
D236*
X008480Y004598D03*
D237*
X008478Y004600D03*
D238*
X008478Y004603D03*
D239*
X008477Y004605D03*
D240*
X008477Y004608D03*
X007995Y005723D03*
D241*
X008476Y004610D03*
D242*
X008476Y004613D03*
X007998Y005720D03*
D243*
X008475Y004615D03*
D244*
X008475Y004618D03*
X008005Y005718D03*
D245*
X008473Y004620D03*
D246*
X008473Y004623D03*
X008008Y005715D03*
D247*
X008472Y004625D03*
D248*
X008472Y004628D03*
X008012Y005713D03*
D249*
X008091Y007403D03*
X007978Y007408D03*
X008208Y007653D03*
X008311Y007648D03*
X008528Y007600D03*
X008391Y007423D03*
X008391Y007420D03*
X008391Y007418D03*
X008933Y007403D03*
X009033Y007405D03*
X009626Y007525D03*
X009628Y007520D03*
X009628Y007518D03*
X009851Y007525D03*
X009853Y007520D03*
X009853Y007518D03*
X010351Y007688D03*
X009808Y006878D03*
X009811Y006875D03*
X009813Y006873D03*
X009816Y006870D03*
X009818Y006868D03*
X009821Y006865D03*
X009823Y006863D03*
X009826Y006860D03*
X009828Y006858D03*
X009831Y006855D03*
X009833Y006853D03*
X009836Y006850D03*
X009838Y006848D03*
X009846Y006838D03*
X009848Y006835D03*
X009851Y006833D03*
X009853Y006830D03*
X009856Y006828D03*
X009858Y006825D03*
X009861Y006823D03*
X009863Y006820D03*
X009866Y006818D03*
X009868Y006815D03*
X009881Y006800D03*
X009883Y006798D03*
X009896Y006783D03*
X009898Y006780D03*
X009901Y006778D03*
X009911Y006765D03*
X009911Y004740D03*
X009901Y004728D03*
X009898Y004725D03*
X009896Y004723D03*
X009883Y004708D03*
X009881Y004705D03*
X009866Y004688D03*
X009863Y004685D03*
X009861Y004683D03*
X009858Y004680D03*
X009856Y004678D03*
X009853Y004675D03*
X009851Y004673D03*
X009848Y004670D03*
X009846Y004668D03*
X009843Y004665D03*
X009838Y004658D03*
X009836Y004655D03*
X009833Y004653D03*
X009831Y004650D03*
X009828Y004648D03*
X009826Y004645D03*
X009823Y004643D03*
X009821Y004640D03*
X009818Y004638D03*
X009816Y004635D03*
X009813Y004633D03*
X009811Y004630D03*
X007363Y007648D03*
D250*
X008471Y004630D03*
D251*
X008471Y004633D03*
X008016Y005710D03*
D252*
X008470Y004635D03*
D253*
X008470Y004638D03*
X008020Y005708D03*
D254*
X008468Y004640D03*
D255*
X008468Y004643D03*
X008023Y005705D03*
D256*
X008467Y004645D03*
D257*
X008466Y004648D03*
X008026Y005703D03*
D258*
X008466Y004650D03*
D259*
X008465Y004653D03*
X008030Y005700D03*
D260*
X008032Y005698D03*
X008465Y004655D03*
D261*
X008463Y004658D03*
D262*
X008463Y004660D03*
X008036Y005695D03*
D263*
X008462Y004663D03*
D264*
X008462Y004665D03*
D265*
X008461Y004668D03*
X008461Y004670D03*
D266*
X008461Y004673D03*
D267*
X008460Y004675D03*
X008045Y005688D03*
D268*
X008047Y005685D03*
X008460Y004678D03*
D269*
X008458Y004680D03*
D270*
X008457Y004683D03*
X008050Y005683D03*
D271*
X008457Y004685D03*
D272*
X008456Y004688D03*
X008053Y005680D03*
D273*
X008690Y006330D03*
X008390Y007413D03*
X008390Y007415D03*
X008312Y007650D03*
X008460Y007655D03*
X007977Y007405D03*
X007895Y007408D03*
X007895Y007465D03*
X007677Y007453D03*
X007365Y007650D03*
X007265Y007653D03*
X009147Y007493D03*
X009565Y007535D03*
X009617Y007535D03*
X009620Y007533D03*
X009622Y007530D03*
X009625Y007528D03*
X009627Y007523D03*
X009790Y007535D03*
X009842Y007535D03*
X009845Y007533D03*
X009847Y007530D03*
X009850Y007528D03*
X009852Y007523D03*
X009935Y007443D03*
X009870Y006813D03*
X009872Y006810D03*
X009875Y006808D03*
X009877Y006805D03*
X009880Y006803D03*
X009885Y006795D03*
X009887Y006793D03*
X009890Y006790D03*
X009892Y006788D03*
X009895Y006785D03*
X009902Y006775D03*
X009905Y006773D03*
X009907Y006770D03*
X009910Y006768D03*
X009912Y006763D03*
X009915Y006760D03*
X009917Y006758D03*
X009920Y006755D03*
X009922Y006753D03*
X009925Y006748D03*
X009927Y006745D03*
X009930Y006743D03*
X009935Y006735D03*
X009937Y006733D03*
X009940Y006730D03*
X009945Y006723D03*
X009947Y006720D03*
X009950Y006718D03*
X009952Y006713D03*
X009955Y006710D03*
X009957Y006708D03*
X009962Y006700D03*
X009970Y006690D03*
X009982Y006673D03*
X010000Y004858D03*
X009970Y004815D03*
X009962Y004805D03*
X009957Y004798D03*
X009955Y004795D03*
X009952Y004793D03*
X009950Y004788D03*
X009947Y004785D03*
X009945Y004783D03*
X009942Y004780D03*
X009940Y004775D03*
X009937Y004773D03*
X009935Y004770D03*
X009930Y004763D03*
X009927Y004760D03*
X009925Y004758D03*
X009922Y004753D03*
X009920Y004750D03*
X009917Y004748D03*
X009915Y004745D03*
X009912Y004743D03*
X009910Y004738D03*
X009907Y004735D03*
X009905Y004733D03*
X009902Y004730D03*
X009895Y004720D03*
X009892Y004718D03*
X009890Y004715D03*
X009887Y004713D03*
X009885Y004710D03*
X009880Y004703D03*
X009877Y004700D03*
X009875Y004698D03*
X009872Y004695D03*
X009870Y004693D03*
X009867Y004690D03*
D274*
X008456Y004690D03*
X008456Y004693D03*
X008056Y005678D03*
D275*
X008455Y004695D03*
D276*
X008455Y004698D03*
D277*
X008453Y004700D03*
X008061Y005673D03*
D278*
X008452Y004703D03*
D279*
X008452Y004705D03*
D280*
X008451Y004708D03*
X008066Y005668D03*
D281*
X008450Y004710D03*
D282*
X008451Y004713D03*
X008068Y005665D03*
D283*
X008450Y004715D03*
D284*
X008448Y004718D03*
X008071Y005663D03*
D285*
X008073Y005660D03*
X008448Y004720D03*
D286*
X008447Y004723D03*
D287*
X008446Y004725D03*
X008076Y005658D03*
D288*
X008078Y005655D03*
X008081Y005653D03*
X008446Y004730D03*
X008446Y004728D03*
D289*
X008445Y004733D03*
D290*
X008445Y004735D03*
D291*
X008443Y004738D03*
X008086Y005648D03*
D292*
X008442Y004740D03*
D293*
X008443Y004743D03*
X008088Y005645D03*
D294*
X008090Y005643D03*
X008442Y004745D03*
D295*
X008441Y004748D03*
D296*
X008441Y004750D03*
D297*
X008440Y004753D03*
X008440Y004755D03*
X008095Y005638D03*
D298*
X008388Y007408D03*
X008388Y007410D03*
X007681Y007605D03*
X009923Y006750D03*
X009931Y006740D03*
X009933Y006738D03*
X009941Y006728D03*
X009943Y006725D03*
X009951Y006715D03*
X009958Y006705D03*
X009961Y006703D03*
X009963Y006698D03*
X009966Y006695D03*
X009968Y006693D03*
X009971Y006688D03*
X009973Y006685D03*
X009976Y006683D03*
X009976Y006680D03*
X009978Y006678D03*
X009981Y006675D03*
X009983Y006670D03*
X009986Y006668D03*
X009988Y006665D03*
X009988Y006663D03*
X009991Y006660D03*
X009993Y006658D03*
X009993Y006655D03*
X009996Y006653D03*
X009998Y006650D03*
X010001Y006648D03*
X010001Y006645D03*
X010003Y006643D03*
X010006Y006638D03*
X010008Y006635D03*
X010011Y006630D03*
X010013Y006628D03*
X010018Y006620D03*
X010021Y006615D03*
X010023Y006613D03*
X010026Y006608D03*
X010031Y006600D03*
X010033Y006595D03*
X010036Y006593D03*
X010038Y006588D03*
X010041Y006585D03*
X010043Y006580D03*
X010048Y006573D03*
X010051Y006568D03*
X010068Y006538D03*
X010078Y006520D03*
X010353Y007690D03*
X010078Y004985D03*
X010068Y004968D03*
X010058Y004950D03*
X010051Y004938D03*
X010043Y004925D03*
X010041Y004920D03*
X010038Y004918D03*
X010036Y004913D03*
X010033Y004910D03*
X010031Y004905D03*
X010026Y004898D03*
X010023Y004893D03*
X010021Y004890D03*
X010018Y004885D03*
X010016Y004883D03*
X010013Y004878D03*
X010011Y004875D03*
X010008Y004870D03*
X010006Y004868D03*
X010003Y004863D03*
X010001Y004860D03*
X009998Y004855D03*
X009996Y004853D03*
X009993Y004850D03*
X009993Y004848D03*
X009991Y004845D03*
X009988Y004843D03*
X009988Y004840D03*
X009986Y004838D03*
X009983Y004835D03*
X009981Y004833D03*
X009981Y004830D03*
X009978Y004828D03*
X009976Y004825D03*
X009976Y004823D03*
X009973Y004820D03*
X009971Y004818D03*
X009968Y004813D03*
X009966Y004810D03*
X009963Y004808D03*
X009961Y004803D03*
X009958Y004800D03*
X009951Y004790D03*
X009941Y004778D03*
X009933Y004768D03*
X009931Y004765D03*
X009923Y004755D03*
D299*
X008438Y004758D03*
X008096Y005635D03*
D300*
X007562Y006315D03*
X007562Y006318D03*
X009072Y004760D03*
D301*
X009085Y004763D03*
X007565Y006353D03*
X007565Y006355D03*
D302*
X007698Y005853D03*
X007876Y005010D03*
X008033Y004765D03*
D303*
X009096Y004768D03*
X007568Y006388D03*
X007568Y006390D03*
D304*
X007693Y005858D03*
X007878Y004998D03*
X007878Y004995D03*
X008028Y004768D03*
D305*
X009102Y004770D03*
X007570Y006400D03*
X007570Y006403D03*
D306*
X007691Y005860D03*
X007881Y004988D03*
X007881Y004985D03*
X008023Y004770D03*
D307*
X009106Y004773D03*
X007571Y006410D03*
X007571Y006413D03*
X007571Y006415D03*
D308*
X009108Y004775D03*
D309*
X008015Y004775D03*
X007885Y004973D03*
X007885Y004975D03*
X007687Y005865D03*
D310*
X007576Y006438D03*
X009116Y004780D03*
D311*
X008007Y004780D03*
X007890Y004955D03*
X007890Y004958D03*
D312*
X009118Y004783D03*
X007576Y006445D03*
X007576Y006448D03*
D313*
X007681Y005873D03*
X007891Y004953D03*
X007891Y004950D03*
X008003Y004783D03*
D314*
X009121Y004785D03*
X007578Y006455D03*
X007578Y006458D03*
D315*
X009122Y005150D03*
X009125Y005148D03*
X009122Y004788D03*
D316*
X007996Y004788D03*
X007896Y004938D03*
X007893Y004943D03*
X007893Y004945D03*
D317*
X007895Y004940D03*
X007897Y004935D03*
X007897Y004933D03*
X007995Y004790D03*
X007677Y005878D03*
D318*
X007581Y006470D03*
X007581Y006473D03*
X009128Y005143D03*
X009128Y004793D03*
D319*
X007991Y004793D03*
X007988Y004795D03*
X007898Y004930D03*
D320*
X009130Y004795D03*
X007582Y006475D03*
D321*
X007585Y006483D03*
X007585Y006485D03*
X009132Y005138D03*
X009135Y004800D03*
X009132Y004798D03*
D322*
X007983Y004800D03*
X007906Y004913D03*
X007903Y004918D03*
X007673Y005883D03*
D323*
X007586Y006488D03*
X007586Y006490D03*
X009136Y005135D03*
X009136Y004803D03*
D324*
X007980Y004803D03*
X007977Y004805D03*
X007907Y004910D03*
X007905Y004915D03*
D325*
X009138Y004805D03*
X009138Y005130D03*
X007586Y006495D03*
D326*
X007587Y006498D03*
X007587Y006500D03*
X009140Y004808D03*
D327*
X009141Y004810D03*
X009143Y004813D03*
X009143Y005125D03*
X009141Y005128D03*
X007588Y006503D03*
X007588Y006505D03*
D328*
X007672Y005885D03*
X007915Y004895D03*
X007915Y004893D03*
X007917Y004890D03*
X007967Y004815D03*
D329*
X009147Y004818D03*
X009147Y005118D03*
X007592Y006518D03*
X007592Y006520D03*
D330*
X007671Y005888D03*
X007918Y004888D03*
X007918Y004885D03*
X007921Y004883D03*
X007923Y004878D03*
X007931Y004865D03*
X007953Y004833D03*
X007956Y004830D03*
X007958Y004828D03*
X007961Y004823D03*
X007963Y004820D03*
X007966Y004818D03*
D331*
X009150Y004823D03*
X009152Y004828D03*
X009152Y005110D03*
X009150Y005113D03*
X007595Y006528D03*
D332*
X007596Y006530D03*
X007596Y006533D03*
X009153Y005108D03*
X009153Y004830D03*
D333*
X009155Y004833D03*
X009155Y005105D03*
X007597Y006535D03*
X007597Y006538D03*
D334*
X007598Y006540D03*
X007598Y006543D03*
X009156Y005103D03*
X009156Y005100D03*
X009158Y005098D03*
X009156Y004835D03*
D335*
X009157Y004838D03*
X009160Y004840D03*
X009160Y004843D03*
X009160Y005095D03*
X007600Y006545D03*
D336*
X007601Y006548D03*
X007601Y006550D03*
X009161Y005093D03*
X009161Y005090D03*
X009161Y004845D03*
D337*
X009167Y004858D03*
X009167Y004860D03*
X009167Y005075D03*
X009167Y005078D03*
X007605Y006560D03*
X007605Y006563D03*
D338*
X007606Y006565D03*
X007606Y006568D03*
X009168Y005073D03*
X009168Y004865D03*
X009168Y004863D03*
D339*
X010005Y004865D03*
X010010Y004873D03*
X010015Y004880D03*
X010020Y004888D03*
X010025Y004895D03*
X010027Y004900D03*
X010030Y004903D03*
X010032Y004908D03*
X010037Y004915D03*
X010042Y004923D03*
X010045Y004928D03*
X010047Y004930D03*
X010047Y004933D03*
X010050Y004935D03*
X010052Y004940D03*
X010055Y004943D03*
X010055Y004945D03*
X010057Y004948D03*
X010060Y004953D03*
X010062Y004955D03*
X010062Y004958D03*
X010065Y004960D03*
X010065Y004963D03*
X010067Y004965D03*
X010070Y004970D03*
X010072Y004973D03*
X010072Y004975D03*
X010075Y004978D03*
X010075Y004980D03*
X010077Y004983D03*
X010080Y004988D03*
X010082Y004990D03*
X010082Y004993D03*
X010085Y004995D03*
X010085Y004998D03*
X010087Y005000D03*
X010087Y005003D03*
X010090Y005005D03*
X010092Y005010D03*
X010095Y005015D03*
X010097Y005020D03*
X010100Y005025D03*
X010102Y005030D03*
X010105Y005035D03*
X010107Y005040D03*
X010110Y005045D03*
X010112Y005050D03*
X010115Y005055D03*
X010117Y005058D03*
X010117Y005060D03*
X010120Y005065D03*
X010122Y005070D03*
X010125Y005075D03*
X010127Y005080D03*
X010135Y005098D03*
X010137Y005103D03*
X010140Y005108D03*
X010145Y005120D03*
X010147Y005125D03*
X010150Y005130D03*
X010155Y005143D03*
X010155Y006363D03*
X010150Y006375D03*
X010147Y006380D03*
X010145Y006385D03*
X010140Y006398D03*
X010137Y006403D03*
X010135Y006408D03*
X010130Y006420D03*
X010127Y006425D03*
X010125Y006430D03*
X010122Y006435D03*
X010120Y006440D03*
X010117Y006445D03*
X010117Y006448D03*
X010115Y006450D03*
X010115Y006453D03*
X010112Y006455D03*
X010110Y006460D03*
X010107Y006465D03*
X010105Y006470D03*
X010102Y006475D03*
X010100Y006480D03*
X010097Y006485D03*
X010095Y006490D03*
X010092Y006495D03*
X010090Y006500D03*
X010087Y006503D03*
X010087Y006505D03*
X010085Y006508D03*
X010085Y006510D03*
X010082Y006513D03*
X010082Y006515D03*
X010080Y006518D03*
X010077Y006523D03*
X010075Y006525D03*
X010075Y006528D03*
X010072Y006530D03*
X010072Y006533D03*
X010070Y006535D03*
X010067Y006540D03*
X010065Y006543D03*
X010065Y006545D03*
X010062Y006548D03*
X010062Y006550D03*
X010060Y006553D03*
X010060Y006555D03*
X010057Y006558D03*
X010055Y006560D03*
X010055Y006563D03*
X010052Y006565D03*
X010050Y006570D03*
X010047Y006575D03*
X010045Y006578D03*
X010042Y006583D03*
X010037Y006590D03*
X010032Y006598D03*
X010030Y006603D03*
X010027Y006605D03*
X010025Y006610D03*
X010020Y006618D03*
X010017Y006623D03*
X010015Y006625D03*
X010010Y006633D03*
X010005Y006640D03*
X008530Y007598D03*
X008077Y007655D03*
X007675Y007455D03*
D340*
X007607Y006573D03*
X007607Y006570D03*
X009170Y005070D03*
X009170Y005068D03*
X009172Y005063D03*
X009172Y004875D03*
X009170Y004868D03*
D341*
X009171Y004870D03*
X009171Y004873D03*
X009173Y004878D03*
X009173Y004880D03*
X009173Y005058D03*
X009173Y005060D03*
X009171Y005065D03*
X007608Y006575D03*
D342*
X007610Y006578D03*
X007610Y006580D03*
X007612Y006583D03*
X007612Y006585D03*
X009175Y005055D03*
X009175Y005053D03*
X009175Y004885D03*
X009175Y004883D03*
D343*
X009176Y004888D03*
X009176Y004890D03*
X009178Y004898D03*
X009178Y005038D03*
X009178Y005040D03*
X009176Y005045D03*
X009176Y005048D03*
X009176Y005050D03*
X007613Y006588D03*
D344*
X007615Y006590D03*
X007615Y006593D03*
X009177Y005043D03*
X009180Y005035D03*
X009180Y005033D03*
X009180Y004905D03*
X009180Y004903D03*
X009180Y004900D03*
X009177Y004895D03*
X009177Y004893D03*
D345*
X009182Y004915D03*
X009182Y004918D03*
X009182Y004920D03*
X009182Y004923D03*
X009185Y004933D03*
X009185Y004935D03*
X009185Y004938D03*
X009185Y004998D03*
X009185Y005000D03*
X009185Y005003D03*
X009182Y005013D03*
X009182Y005015D03*
X009182Y005018D03*
X009182Y005020D03*
X007617Y006598D03*
X007617Y006600D03*
D346*
X007618Y006603D03*
X007618Y006605D03*
X009183Y005010D03*
X009183Y005008D03*
X009183Y005005D03*
X009186Y004995D03*
X009186Y004993D03*
X009186Y004990D03*
X009186Y004988D03*
X009186Y004985D03*
X009186Y004983D03*
X009186Y004980D03*
X009186Y004978D03*
X009186Y004975D03*
X009186Y004973D03*
X009186Y004970D03*
X009186Y004968D03*
X009186Y004965D03*
X009186Y004963D03*
X009186Y004960D03*
X009186Y004958D03*
X009186Y004955D03*
X009186Y004953D03*
X009186Y004950D03*
X009186Y004948D03*
X009186Y004945D03*
X009186Y004943D03*
X009186Y004940D03*
X009183Y004930D03*
X009183Y004928D03*
X009183Y004925D03*
D347*
X007887Y004965D03*
X007685Y005868D03*
D348*
X007886Y004970D03*
X007886Y004968D03*
D349*
X007882Y004980D03*
X007882Y004983D03*
X007690Y005863D03*
D350*
X007877Y005008D03*
X007877Y005005D03*
D351*
X010091Y005008D03*
X010093Y005013D03*
X010096Y005018D03*
X010098Y005023D03*
X010101Y005028D03*
X010103Y005033D03*
X010106Y005038D03*
X010108Y005043D03*
X010111Y005048D03*
X010113Y005053D03*
X010118Y005063D03*
X010121Y005068D03*
X010123Y005073D03*
X010126Y005078D03*
X010128Y005083D03*
X010128Y005085D03*
X010131Y005088D03*
X010131Y005090D03*
X010133Y005093D03*
X010133Y005095D03*
X010136Y005100D03*
X010138Y005105D03*
X010141Y005110D03*
X010141Y005113D03*
X010143Y005115D03*
X010143Y005118D03*
X010146Y005123D03*
X010148Y005128D03*
X010151Y005133D03*
X010151Y005135D03*
X010153Y005138D03*
X010153Y005140D03*
X010156Y005145D03*
X010156Y005148D03*
X010158Y005150D03*
X010158Y005153D03*
X010161Y005155D03*
X010161Y005158D03*
X010161Y005160D03*
X010163Y005163D03*
X010163Y005165D03*
X010166Y005168D03*
X010166Y005170D03*
X010166Y005173D03*
X010168Y005175D03*
X010168Y005178D03*
X010168Y005180D03*
X010171Y005183D03*
X010171Y005185D03*
X010173Y005188D03*
X010173Y005190D03*
X010173Y005193D03*
X010176Y005195D03*
X010176Y005198D03*
X010178Y005200D03*
X010178Y005203D03*
X010178Y005205D03*
X010181Y005208D03*
X010181Y005210D03*
X010181Y005213D03*
X010183Y005215D03*
X010183Y005218D03*
X010186Y005223D03*
X010186Y005225D03*
X010188Y005230D03*
X010188Y005233D03*
X010191Y005238D03*
X010191Y005240D03*
X010193Y005245D03*
X010193Y005248D03*
X010196Y005253D03*
X010196Y005255D03*
X010198Y005260D03*
X010198Y005263D03*
X010201Y005268D03*
X010201Y005270D03*
X010203Y005275D03*
X010203Y005278D03*
X010206Y005283D03*
X010206Y005285D03*
X010208Y005290D03*
X010208Y005293D03*
X010211Y005300D03*
X010211Y005303D03*
X010213Y005308D03*
X010213Y005310D03*
X010216Y005318D03*
X010216Y005320D03*
X010218Y005328D03*
X010218Y005330D03*
X010221Y005335D03*
X010221Y005338D03*
X010223Y005345D03*
X010223Y005348D03*
X010226Y005353D03*
X010226Y005355D03*
X010228Y005363D03*
X010228Y005365D03*
X010231Y005375D03*
X010233Y005385D03*
X010236Y005395D03*
X010236Y005398D03*
X010238Y005408D03*
X010241Y005418D03*
X010241Y005420D03*
X010243Y005428D03*
X010243Y005430D03*
X010246Y005443D03*
X010248Y005455D03*
X010251Y005470D03*
X010253Y005483D03*
X010253Y005485D03*
X010256Y005498D03*
X010258Y005513D03*
X010258Y005993D03*
X010256Y006008D03*
X010253Y006023D03*
X010251Y006035D03*
X010248Y006050D03*
X010246Y006063D03*
X010243Y006075D03*
X010243Y006078D03*
X010241Y006085D03*
X010241Y006088D03*
X010238Y006098D03*
X010236Y006108D03*
X010236Y006110D03*
X010233Y006120D03*
X010231Y006130D03*
X010228Y006140D03*
X010228Y006143D03*
X010226Y006150D03*
X010226Y006153D03*
X010223Y006158D03*
X010223Y006160D03*
X010221Y006168D03*
X010221Y006170D03*
X010218Y006178D03*
X010218Y006180D03*
X010216Y006185D03*
X010216Y006188D03*
X010213Y006195D03*
X010213Y006198D03*
X010211Y006203D03*
X010211Y006205D03*
X010208Y006213D03*
X010208Y006215D03*
X010206Y006220D03*
X010206Y006223D03*
X010203Y006228D03*
X010203Y006230D03*
X010201Y006235D03*
X010201Y006238D03*
X010198Y006243D03*
X010198Y006245D03*
X010196Y006250D03*
X010196Y006253D03*
X010193Y006258D03*
X010193Y006260D03*
X010191Y006265D03*
X010191Y006268D03*
X010188Y006273D03*
X010188Y006275D03*
X010186Y006280D03*
X010186Y006283D03*
X010183Y006288D03*
X010183Y006290D03*
X010181Y006293D03*
X010181Y006295D03*
X010181Y006298D03*
X010178Y006300D03*
X010178Y006303D03*
X010178Y006305D03*
X010176Y006308D03*
X010176Y006310D03*
X010173Y006313D03*
X010173Y006315D03*
X010173Y006318D03*
X010171Y006320D03*
X010171Y006323D03*
X010168Y006325D03*
X010168Y006328D03*
X010168Y006330D03*
X010166Y006333D03*
X010166Y006335D03*
X010166Y006338D03*
X010163Y006340D03*
X010163Y006343D03*
X010161Y006345D03*
X010161Y006348D03*
X010161Y006350D03*
X010158Y006353D03*
X010158Y006355D03*
X010156Y006358D03*
X010156Y006360D03*
X010153Y006365D03*
X010153Y006368D03*
X010151Y006370D03*
X010151Y006373D03*
X010148Y006378D03*
X010146Y006383D03*
X010143Y006388D03*
X010143Y006390D03*
X010141Y006393D03*
X010141Y006395D03*
X010138Y006400D03*
X010136Y006405D03*
X010133Y006410D03*
X010133Y006413D03*
X010131Y006415D03*
X010131Y006418D03*
X010128Y006423D03*
X010126Y006428D03*
X010123Y006433D03*
X010121Y006438D03*
X010118Y006443D03*
X010111Y006458D03*
X010108Y006463D03*
X010106Y006468D03*
X010103Y006473D03*
X010101Y006478D03*
X010098Y006483D03*
X010096Y006488D03*
X010093Y006493D03*
X010091Y006498D03*
X009216Y007438D03*
X009146Y007495D03*
X008386Y007405D03*
X007896Y007405D03*
X007896Y007468D03*
X007733Y007655D03*
X007678Y007603D03*
X007528Y007655D03*
D352*
X007877Y005013D03*
D353*
X007875Y005020D03*
X007700Y005850D03*
D354*
X007701Y005848D03*
X007876Y005023D03*
D355*
X007873Y005030D03*
X007703Y005845D03*
D356*
X007875Y005033D03*
D357*
X007872Y005038D03*
D358*
X007873Y005040D03*
X007708Y005840D03*
D359*
X007872Y005043D03*
D360*
X007872Y005048D03*
X007872Y005050D03*
D361*
X007872Y005053D03*
X007872Y005055D03*
D362*
X007872Y005063D03*
X007872Y005065D03*
D363*
X007872Y005070D03*
D364*
X007873Y005073D03*
X007723Y005825D03*
D365*
X007873Y005085D03*
D366*
X007875Y005093D03*
X007735Y005815D03*
D367*
X007876Y005095D03*
D368*
X007876Y005098D03*
X007876Y005100D03*
X007738Y005813D03*
D369*
X007877Y005105D03*
D370*
X007877Y005108D03*
X007745Y005808D03*
D371*
X007878Y005110D03*
D372*
X007878Y005113D03*
D373*
X007880Y005115D03*
D374*
X009146Y005120D03*
X007591Y006513D03*
X007591Y006515D03*
D375*
X007753Y005800D03*
X007881Y005120D03*
D376*
X007882Y005125D03*
X007757Y005798D03*
D377*
X007886Y005133D03*
D378*
X007887Y005135D03*
X007765Y005793D03*
D379*
X007583Y006478D03*
X007583Y006480D03*
X009131Y005140D03*
D380*
X007890Y005140D03*
D381*
X007895Y005148D03*
D382*
X007895Y005150D03*
D383*
X009120Y005153D03*
X007577Y006450D03*
X007577Y006453D03*
D384*
X007575Y006443D03*
X007575Y006440D03*
X009117Y005155D03*
D385*
X007898Y005155D03*
D386*
X009110Y005160D03*
X007572Y006423D03*
X007572Y006425D03*
D387*
X007905Y005160D03*
D388*
X009107Y005163D03*
X007572Y006418D03*
X007572Y006420D03*
D389*
X007793Y005775D03*
X007906Y005163D03*
D390*
X007910Y005165D03*
D391*
X009100Y005168D03*
X007567Y006393D03*
D392*
X007912Y005168D03*
D393*
X009093Y005170D03*
X007566Y006380D03*
D394*
X007917Y005170D03*
D395*
X009088Y005173D03*
X007566Y006365D03*
D396*
X007922Y005173D03*
D397*
X009080Y005175D03*
X007562Y006338D03*
D398*
X007930Y005175D03*
D399*
X008278Y005290D03*
X008278Y005293D03*
X008281Y005288D03*
X008281Y005285D03*
X008283Y005280D03*
X008283Y005278D03*
X008318Y005178D03*
D400*
X008317Y005180D03*
X008317Y005183D03*
X008317Y005185D03*
X008315Y005188D03*
X008315Y005190D03*
X008312Y005195D03*
X008312Y005198D03*
X008310Y005205D03*
X008307Y005213D03*
X008305Y005220D03*
X008302Y005228D03*
X008300Y005235D03*
X008297Y005240D03*
X008297Y005243D03*
X008295Y005248D03*
X008292Y005255D03*
X008290Y005260D03*
X008290Y005263D03*
X008287Y005268D03*
X008287Y005270D03*
X008285Y005273D03*
X008285Y005275D03*
X008282Y005283D03*
D401*
X008288Y005265D03*
X008291Y005258D03*
X008293Y005253D03*
X008293Y005250D03*
X008296Y005245D03*
X008298Y005238D03*
X008301Y005233D03*
X008301Y005230D03*
X008303Y005225D03*
X008303Y005223D03*
X008306Y005218D03*
X008306Y005215D03*
X008308Y005210D03*
X008308Y005208D03*
X008311Y005203D03*
X008311Y005200D03*
X008313Y005193D03*
D402*
X010185Y005220D03*
X010187Y005228D03*
X010190Y005235D03*
X010192Y005243D03*
X010195Y005250D03*
X010197Y005258D03*
X010200Y005265D03*
X010202Y005273D03*
X010205Y005280D03*
X010207Y005288D03*
X010210Y005295D03*
X010210Y005298D03*
X010212Y005305D03*
X010215Y005313D03*
X010215Y005315D03*
X010217Y005323D03*
X010217Y005325D03*
X010220Y005333D03*
X010222Y005340D03*
X010222Y005343D03*
X010225Y005350D03*
X010227Y005358D03*
X010227Y005360D03*
X010230Y005368D03*
X010230Y005370D03*
X010230Y005373D03*
X010232Y005378D03*
X010232Y005380D03*
X010232Y005383D03*
X010235Y005388D03*
X010235Y005390D03*
X010235Y005393D03*
X010237Y005400D03*
X010237Y005403D03*
X010237Y005405D03*
X010240Y005410D03*
X010240Y005413D03*
X010240Y005415D03*
X010242Y005423D03*
X010242Y005425D03*
X010245Y005433D03*
X010245Y005435D03*
X010245Y005438D03*
X010245Y005440D03*
X010247Y005445D03*
X010247Y005448D03*
X010247Y005450D03*
X010247Y005453D03*
X010250Y005458D03*
X010250Y005460D03*
X010250Y005463D03*
X010250Y005465D03*
X010250Y005468D03*
X010252Y005473D03*
X010252Y005475D03*
X010252Y005478D03*
X010252Y005480D03*
X010255Y005488D03*
X010255Y005490D03*
X010255Y005493D03*
X010255Y005495D03*
X010257Y005500D03*
X010257Y005503D03*
X010257Y005505D03*
X010257Y005508D03*
X010257Y005510D03*
X010260Y005515D03*
X010260Y005518D03*
X010260Y005520D03*
X010260Y005523D03*
X010260Y005525D03*
X010260Y005528D03*
X010260Y005530D03*
X010262Y005533D03*
X010262Y005535D03*
X010262Y005538D03*
X010262Y005540D03*
X010262Y005543D03*
X010262Y005545D03*
X010262Y005548D03*
X010262Y005550D03*
X010265Y005553D03*
X010265Y005555D03*
X010265Y005558D03*
X010265Y005560D03*
X010265Y005563D03*
X010265Y005565D03*
X010265Y005568D03*
X010265Y005570D03*
X010267Y005573D03*
X010267Y005575D03*
X010267Y005578D03*
X010267Y005580D03*
X010267Y005583D03*
X010267Y005585D03*
X010267Y005588D03*
X010267Y005590D03*
X010270Y005593D03*
X010270Y005595D03*
X010270Y005598D03*
X010270Y005600D03*
X010270Y005603D03*
X010270Y005605D03*
X010270Y005608D03*
X010270Y005610D03*
X010270Y005613D03*
X010270Y005615D03*
X010270Y005618D03*
X010272Y005625D03*
X010272Y005628D03*
X010272Y005630D03*
X010272Y005633D03*
X010272Y005635D03*
X010272Y005638D03*
X010272Y005640D03*
X010272Y005643D03*
X010272Y005645D03*
X010272Y005648D03*
X010272Y005650D03*
X010272Y005653D03*
X010275Y005658D03*
X010275Y005660D03*
X010275Y005663D03*
X010275Y005665D03*
X010275Y005668D03*
X010275Y005670D03*
X010275Y005673D03*
X010275Y005675D03*
X010275Y005678D03*
X010275Y005680D03*
X010275Y005683D03*
X010275Y005685D03*
X010275Y005688D03*
X010275Y005690D03*
X010275Y005693D03*
X010275Y005695D03*
X010275Y005698D03*
X010275Y005700D03*
X010275Y005703D03*
X010275Y005705D03*
X010275Y005708D03*
X010275Y005710D03*
X010277Y005730D03*
X010277Y005733D03*
X010277Y005735D03*
X010277Y005738D03*
X010277Y005740D03*
X010277Y005743D03*
X010277Y005745D03*
X010277Y005748D03*
X010277Y005750D03*
X010277Y005753D03*
X010277Y005755D03*
X010277Y005758D03*
X010277Y005760D03*
X010277Y005763D03*
X010277Y005765D03*
X010277Y005768D03*
X010277Y005770D03*
X010277Y005773D03*
X010277Y005775D03*
X010275Y005795D03*
X010275Y005798D03*
X010275Y005800D03*
X010275Y005803D03*
X010275Y005805D03*
X010275Y005808D03*
X010275Y005810D03*
X010275Y005813D03*
X010275Y005815D03*
X010275Y005818D03*
X010275Y005820D03*
X010275Y005823D03*
X010275Y005825D03*
X010275Y005828D03*
X010275Y005830D03*
X010275Y005833D03*
X010275Y005835D03*
X010275Y005838D03*
X010275Y005840D03*
X010275Y005843D03*
X010275Y005845D03*
X010275Y005848D03*
X010272Y005853D03*
X010272Y005855D03*
X010272Y005858D03*
X010272Y005860D03*
X010272Y005863D03*
X010272Y005865D03*
X010272Y005868D03*
X010272Y005870D03*
X010272Y005873D03*
X010272Y005875D03*
X010272Y005878D03*
X010272Y005880D03*
X010270Y005888D03*
X010270Y005890D03*
X010270Y005893D03*
X010270Y005895D03*
X010270Y005898D03*
X010270Y005900D03*
X010270Y005903D03*
X010270Y005905D03*
X010270Y005908D03*
X010270Y005910D03*
X010270Y005913D03*
X010267Y005915D03*
X010267Y005918D03*
X010267Y005920D03*
X010267Y005923D03*
X010267Y005925D03*
X010267Y005928D03*
X010267Y005930D03*
X010267Y005933D03*
X010265Y005935D03*
X010265Y005938D03*
X010265Y005940D03*
X010265Y005943D03*
X010265Y005945D03*
X010265Y005948D03*
X010265Y005950D03*
X010265Y005953D03*
X010262Y005955D03*
X010262Y005958D03*
X010262Y005960D03*
X010262Y005963D03*
X010262Y005965D03*
X010262Y005968D03*
X010262Y005970D03*
X010262Y005973D03*
X010260Y005975D03*
X010260Y005978D03*
X010260Y005980D03*
X010260Y005983D03*
X010260Y005985D03*
X010260Y005988D03*
X010260Y005990D03*
X010257Y005995D03*
X010257Y005998D03*
X010257Y006000D03*
X010257Y006003D03*
X010257Y006005D03*
X010255Y006010D03*
X010255Y006013D03*
X010255Y006015D03*
X010255Y006018D03*
X010255Y006020D03*
X010252Y006025D03*
X010252Y006028D03*
X010252Y006030D03*
X010252Y006033D03*
X010250Y006038D03*
X010250Y006040D03*
X010250Y006043D03*
X010250Y006045D03*
X010250Y006048D03*
X010247Y006053D03*
X010247Y006055D03*
X010247Y006058D03*
X010247Y006060D03*
X010245Y006065D03*
X010245Y006068D03*
X010245Y006070D03*
X010245Y006073D03*
X010242Y006080D03*
X010242Y006083D03*
X010240Y006090D03*
X010240Y006093D03*
X010240Y006095D03*
X010237Y006100D03*
X010237Y006103D03*
X010237Y006105D03*
X010235Y006113D03*
X010235Y006115D03*
X010235Y006118D03*
X010232Y006123D03*
X010232Y006125D03*
X010232Y006128D03*
X010230Y006133D03*
X010230Y006135D03*
X010230Y006138D03*
X010227Y006145D03*
X010227Y006148D03*
X010225Y006155D03*
X010222Y006163D03*
X010222Y006165D03*
X010220Y006173D03*
X010220Y006175D03*
X010217Y006183D03*
X010215Y006190D03*
X010215Y006193D03*
X010212Y006200D03*
X010210Y006208D03*
X010210Y006210D03*
X010207Y006218D03*
X010205Y006225D03*
X010202Y006233D03*
X010200Y006240D03*
X010197Y006248D03*
X010195Y006255D03*
X010192Y006263D03*
X010190Y006270D03*
X010187Y006278D03*
X010185Y006285D03*
X009790Y007353D03*
X009565Y007353D03*
X008702Y007655D03*
X008532Y007595D03*
X007675Y007458D03*
D403*
X008272Y005310D03*
X008272Y005308D03*
X008275Y005303D03*
X008275Y005300D03*
X008277Y005298D03*
X008277Y005295D03*
D404*
X008273Y005305D03*
X008271Y005313D03*
X008271Y005315D03*
X008268Y005318D03*
D405*
X008267Y005320D03*
X008267Y005323D03*
X008265Y005325D03*
X008265Y005328D03*
D406*
X008263Y005330D03*
X008263Y005333D03*
X008261Y005335D03*
X008261Y005338D03*
X008258Y005343D03*
D407*
X008257Y005345D03*
X008257Y005348D03*
X008255Y005353D03*
X008260Y005340D03*
D408*
X008256Y005350D03*
X008253Y005355D03*
D409*
X008252Y005358D03*
X008252Y005360D03*
X008250Y005363D03*
X008250Y005365D03*
D410*
X008248Y005368D03*
X008248Y005370D03*
X008246Y005373D03*
D411*
X008245Y005375D03*
X008245Y005378D03*
D412*
X008243Y005380D03*
X008241Y005385D03*
D413*
X008242Y005383D03*
X008240Y005388D03*
X008240Y005390D03*
D414*
X008238Y005393D03*
X008236Y005395D03*
X008236Y005398D03*
D415*
X008235Y005400D03*
X008232Y005405D03*
D416*
X008231Y005408D03*
X008233Y005403D03*
D417*
X008230Y005410D03*
X008230Y005413D03*
D418*
X008228Y005415D03*
X008226Y005418D03*
D419*
X008225Y005420D03*
X008225Y005423D03*
D420*
X008223Y005425D03*
X008221Y005428D03*
X008221Y005430D03*
D421*
X008220Y005433D03*
D422*
X008218Y005435D03*
X008216Y005440D03*
D423*
X008217Y005438D03*
X008215Y005443D03*
D424*
X008213Y005445D03*
D425*
X008212Y005448D03*
X008212Y005450D03*
D426*
X008211Y005453D03*
X008208Y005455D03*
D427*
X008207Y005458D03*
D428*
X008206Y005460D03*
X008206Y005463D03*
D429*
X008205Y005465D03*
X008202Y005468D03*
D430*
X008201Y005470D03*
D431*
X008200Y005473D03*
D432*
X008198Y005475D03*
X008198Y005478D03*
D433*
X008197Y005480D03*
X008195Y005483D03*
D434*
X008193Y005485D03*
D435*
X008192Y005488D03*
D436*
X008191Y005490D03*
D437*
X008190Y005493D03*
X008187Y005498D03*
D438*
X008186Y005500D03*
X008188Y005495D03*
D439*
X008185Y005503D03*
D440*
X008183Y005505D03*
D441*
X008182Y005508D03*
X008180Y005510D03*
D442*
X008178Y005513D03*
D443*
X008177Y005515D03*
D444*
X008176Y005518D03*
D445*
X008175Y005520D03*
D446*
X008173Y005523D03*
D447*
X008172Y005525D03*
D448*
X008171Y005528D03*
X008168Y005530D03*
D449*
X008167Y005533D03*
D450*
X008166Y005535D03*
D451*
X008165Y005538D03*
D452*
X008163Y005540D03*
D453*
X008162Y005543D03*
D454*
X008161Y005545D03*
D455*
X008160Y005548D03*
D456*
X008156Y005550D03*
D457*
X008155Y005553D03*
D458*
X008153Y005555D03*
D459*
X008152Y005558D03*
D460*
X008151Y005560D03*
D461*
X008150Y005563D03*
D462*
X008147Y005565D03*
D463*
X008146Y005568D03*
X008143Y005570D03*
D464*
X008142Y005573D03*
D465*
X008141Y005575D03*
D466*
X008140Y005578D03*
D467*
X008137Y005580D03*
D468*
X008136Y005583D03*
D469*
X008135Y005585D03*
D470*
X008132Y005588D03*
X008130Y005590D03*
D471*
X008128Y005593D03*
D472*
X008127Y005595D03*
D473*
X008125Y005598D03*
D474*
X008123Y005600D03*
D475*
X008122Y005603D03*
D476*
X008120Y005605D03*
D477*
X008118Y005608D03*
D478*
X008116Y005610D03*
D479*
X008115Y005613D03*
D480*
X008112Y005615D03*
D481*
X008111Y005618D03*
D482*
X010046Y007438D03*
X010271Y005885D03*
X010271Y005883D03*
X010273Y005850D03*
X010276Y005793D03*
X010276Y005790D03*
X010276Y005788D03*
X010276Y005785D03*
X010276Y005783D03*
X010276Y005780D03*
X010276Y005778D03*
X010276Y005728D03*
X010276Y005725D03*
X010276Y005723D03*
X010276Y005720D03*
X010276Y005718D03*
X010276Y005715D03*
X010276Y005713D03*
X010273Y005655D03*
X010271Y005623D03*
X010271Y005620D03*
D483*
X008110Y005620D03*
D484*
X008106Y005623D03*
D485*
X008103Y005625D03*
D486*
X008102Y005628D03*
D487*
X008100Y005630D03*
D488*
X008098Y005633D03*
D489*
X008092Y005640D03*
D490*
X008083Y005650D03*
D491*
X008063Y005670D03*
D492*
X008058Y005675D03*
D493*
X008042Y005690D03*
D494*
X008038Y005693D03*
D495*
X007990Y005725D03*
D496*
X007986Y005728D03*
D497*
X007980Y005730D03*
D498*
X007857Y005755D03*
D499*
X007843Y005758D03*
D500*
X007833Y005760D03*
D501*
X007825Y005763D03*
D502*
X007818Y005765D03*
D503*
X007805Y005770D03*
D504*
X007785Y005780D03*
D505*
X007761Y005795D03*
D506*
X007730Y005820D03*
D507*
X007727Y005823D03*
D508*
X007718Y005830D03*
D509*
X007716Y005833D03*
D510*
X007667Y005893D03*
D511*
X007663Y005898D03*
D512*
X007662Y005900D03*
D513*
X007660Y005903D03*
D514*
X007658Y005905D03*
D515*
X007655Y005910D03*
D516*
X007653Y005913D03*
D517*
X007650Y005920D03*
D518*
X007648Y005923D03*
D519*
X007647Y005925D03*
D520*
X007643Y005930D03*
D521*
X007642Y005933D03*
D522*
X007641Y005938D03*
D523*
X007637Y005943D03*
D524*
X007636Y005945D03*
D525*
X007635Y005948D03*
D526*
X007632Y005953D03*
D527*
X007630Y005958D03*
D528*
X007628Y005960D03*
D529*
X007627Y005963D03*
D530*
X007625Y005968D03*
D531*
X007623Y005970D03*
D532*
X007622Y005973D03*
D533*
X007621Y005978D03*
D534*
X007620Y005980D03*
D535*
X007617Y005985D03*
D536*
X007616Y005988D03*
D537*
X007613Y005993D03*
D538*
X007612Y005995D03*
D539*
X007612Y005998D03*
D540*
X007610Y006003D03*
D541*
X007608Y006005D03*
D542*
X007607Y006008D03*
D543*
X007607Y006010D03*
D544*
X007606Y006013D03*
X007606Y006015D03*
D545*
X007605Y006018D03*
D546*
X007602Y006023D03*
D547*
X007602Y006025D03*
D548*
X007601Y006028D03*
D549*
X007598Y006035D03*
D550*
X007597Y006038D03*
D551*
X007596Y006043D03*
D552*
X007595Y006045D03*
X007595Y006048D03*
D553*
X007593Y006050D03*
D554*
X007592Y006055D03*
X007592Y006058D03*
D555*
X007591Y006060D03*
D556*
X007590Y006063D03*
D557*
X007588Y006068D03*
X007588Y006070D03*
D558*
X007587Y006073D03*
D559*
X007586Y006075D03*
X007586Y006078D03*
D560*
X007586Y006080D03*
D561*
X007585Y006083D03*
D562*
X007583Y006085D03*
X007583Y006088D03*
D563*
X007583Y006090D03*
D564*
X007582Y006093D03*
X007582Y006095D03*
D565*
X007581Y006098D03*
D566*
X007580Y006100D03*
D567*
X007580Y006105D03*
D568*
X007578Y006108D03*
X007578Y006110D03*
D569*
X007577Y006115D03*
X007577Y006118D03*
D570*
X007576Y006120D03*
D571*
X007576Y006123D03*
X007576Y006125D03*
D572*
X007573Y006133D03*
D573*
X007573Y006135D03*
X007573Y006138D03*
D574*
X007572Y006140D03*
X007572Y006143D03*
D575*
X007572Y006145D03*
X007572Y006148D03*
D576*
X007571Y006150D03*
D577*
X007570Y006153D03*
D578*
X007571Y006155D03*
D579*
X007568Y006163D03*
D580*
X007570Y006165D03*
D581*
X007568Y006168D03*
D582*
X007567Y006170D03*
D583*
X007567Y006175D03*
X007567Y006178D03*
D584*
X007566Y006180D03*
D585*
X007567Y006183D03*
D586*
X007566Y006185D03*
X007566Y006188D03*
D587*
X007565Y006195D03*
X007565Y006198D03*
D588*
X007565Y006200D03*
X007565Y006203D03*
D589*
X007563Y006205D03*
D590*
X007563Y006213D03*
X007563Y006215D03*
D591*
X007563Y006218D03*
X007563Y006220D03*
D592*
X007562Y006223D03*
D593*
X007563Y006225D03*
X007563Y006228D03*
D594*
X007562Y006235D03*
X007562Y006238D03*
D595*
X007561Y006240D03*
D596*
X007561Y006248D03*
D597*
X007562Y006250D03*
D598*
X007561Y006253D03*
X007561Y006255D03*
D599*
X007562Y006258D03*
D600*
X007561Y006260D03*
X007561Y006263D03*
D601*
X007561Y006268D03*
D602*
X007562Y006270D03*
D603*
X007561Y006273D03*
X007561Y006275D03*
D604*
X007562Y006278D03*
D605*
X007562Y006285D03*
D606*
X007561Y006288D03*
X007561Y006290D03*
D607*
X007562Y006293D03*
D608*
X007561Y006295D03*
X007561Y006298D03*
D609*
X007562Y006300D03*
D610*
X007562Y006308D03*
D611*
X007561Y006310D03*
X007561Y006313D03*
D612*
X007562Y006320D03*
X007562Y006323D03*
X007562Y006325D03*
D613*
X007562Y006328D03*
X007562Y006330D03*
D614*
X007563Y006333D03*
X007563Y006335D03*
D615*
X008690Y006340D03*
X008495Y007428D03*
X008467Y007638D03*
X008087Y007430D03*
X007735Y007638D03*
X007125Y007628D03*
X008930Y007430D03*
X009212Y007453D03*
X009590Y007500D03*
X009737Y007455D03*
X009790Y007553D03*
D616*
X007563Y006343D03*
X007563Y006340D03*
D617*
X007565Y006345D03*
D618*
X008690Y006350D03*
X008690Y006725D03*
X008702Y007435D03*
X008457Y007515D03*
X008467Y007610D03*
X008470Y007615D03*
X008472Y007618D03*
X009222Y007653D03*
X009222Y007655D03*
X009212Y007468D03*
X009567Y007378D03*
X009792Y007378D03*
X009790Y007490D03*
X007297Y007618D03*
X007297Y007620D03*
D619*
X007528Y007615D03*
X007528Y007443D03*
X008051Y007628D03*
X008703Y007443D03*
X009211Y007475D03*
X009548Y007473D03*
X009551Y007475D03*
X009553Y007478D03*
X009566Y007383D03*
X009768Y007465D03*
X009773Y007473D03*
X009776Y007475D03*
X009791Y007383D03*
X009758Y007678D03*
X009533Y007678D03*
X010278Y007465D03*
X008688Y006353D03*
D620*
X008690Y006355D03*
X008690Y006720D03*
X008467Y007433D03*
X008467Y007435D03*
X008055Y007620D03*
X008957Y007438D03*
X008957Y007435D03*
X009537Y007673D03*
X009762Y007673D03*
X009790Y007388D03*
X010275Y007473D03*
D621*
X010270Y007655D03*
X010017Y007483D03*
X009775Y007458D03*
X009790Y007393D03*
X009550Y007458D03*
X009542Y007663D03*
X009767Y007663D03*
X008952Y007615D03*
X008952Y007613D03*
X008690Y007353D03*
X008060Y007443D03*
X008060Y007445D03*
X008690Y006358D03*
D622*
X007565Y006358D03*
X007565Y006360D03*
X007565Y006363D03*
D623*
X008690Y006363D03*
X008690Y006713D03*
X009227Y007563D03*
D624*
X008360Y007293D03*
X008342Y007288D03*
X008690Y006365D03*
D625*
X008690Y006368D03*
X008690Y006708D03*
X008397Y007303D03*
X008387Y007300D03*
X008297Y007273D03*
X008290Y007270D03*
X008270Y007263D03*
D626*
X007565Y006368D03*
D627*
X008222Y007243D03*
X008227Y007245D03*
X008432Y007310D03*
X008690Y006370D03*
D628*
X008690Y006373D03*
X008205Y007235D03*
D629*
X008182Y007225D03*
X008177Y007223D03*
X008460Y007315D03*
X008690Y006700D03*
X008690Y006375D03*
D630*
X008688Y006378D03*
X008153Y007210D03*
X008148Y007208D03*
X008143Y007205D03*
D631*
X007567Y006378D03*
D632*
X008100Y007180D03*
X008105Y007183D03*
X008107Y007185D03*
X008690Y006690D03*
X008690Y006383D03*
D633*
X007567Y006383D03*
X007567Y006385D03*
D634*
X008082Y007170D03*
X008087Y007173D03*
X008690Y006385D03*
D635*
X008690Y006388D03*
X008075Y007165D03*
X008070Y007163D03*
X008495Y007320D03*
D636*
X008062Y007158D03*
X008060Y007155D03*
X008055Y007153D03*
X008690Y006685D03*
X008690Y006390D03*
D637*
X008690Y006393D03*
X008690Y006683D03*
X008047Y007148D03*
X008040Y007143D03*
D638*
X008030Y007135D03*
X008690Y006678D03*
X008690Y006395D03*
D639*
X007568Y006395D03*
X007568Y006398D03*
D640*
X008015Y007125D03*
X008690Y006675D03*
X008690Y006398D03*
D641*
X008690Y006400D03*
X008690Y006673D03*
X008005Y007118D03*
X008002Y007115D03*
D642*
X007998Y007113D03*
X008688Y006403D03*
D643*
X008690Y006405D03*
X008690Y006670D03*
X007995Y007110D03*
X007992Y007108D03*
X007987Y007105D03*
X007985Y007103D03*
D644*
X007975Y007095D03*
X008690Y006668D03*
X008690Y006408D03*
D645*
X007570Y006408D03*
D646*
X007962Y007085D03*
X007965Y007088D03*
X008690Y006665D03*
X008690Y006663D03*
X008690Y006410D03*
D647*
X008690Y006418D03*
X008690Y006658D03*
X007945Y007070D03*
X007942Y007068D03*
X007217Y007610D03*
D648*
X007927Y007055D03*
X007930Y007058D03*
X008690Y006655D03*
X008690Y006653D03*
X008690Y006420D03*
D649*
X008688Y006423D03*
X007923Y007053D03*
X007921Y007050D03*
D650*
X008690Y006650D03*
X008690Y006425D03*
D651*
X008690Y006428D03*
X008690Y006430D03*
X008690Y006645D03*
X007910Y007040D03*
X007907Y007038D03*
X007905Y007035D03*
D652*
X007902Y007033D03*
X007900Y007030D03*
X007897Y007028D03*
X007895Y007025D03*
X008690Y006643D03*
X008690Y006640D03*
X008690Y006433D03*
D653*
X007575Y006433D03*
X007575Y006435D03*
D654*
X007887Y007018D03*
X007890Y007020D03*
X008690Y006638D03*
X008690Y006438D03*
X008690Y006435D03*
D655*
X008690Y006440D03*
X008690Y006443D03*
X008690Y006633D03*
X007877Y007008D03*
D656*
X007860Y006990D03*
X007857Y006988D03*
X008690Y006623D03*
X008690Y006620D03*
X008690Y006453D03*
X008690Y006450D03*
D657*
X008690Y006455D03*
X008690Y006458D03*
X008690Y006460D03*
X008690Y006615D03*
X008690Y006618D03*
X007852Y006983D03*
X007850Y006980D03*
X007847Y006978D03*
X007845Y006975D03*
D658*
X007840Y006970D03*
X008690Y006613D03*
X008690Y006610D03*
X008690Y006608D03*
X008690Y006468D03*
X008690Y006465D03*
X008690Y006463D03*
D659*
X008690Y006470D03*
X008690Y006473D03*
X008690Y006600D03*
X008690Y006603D03*
X008690Y006605D03*
X007832Y006960D03*
X007830Y006958D03*
X007827Y006955D03*
D660*
X008688Y006475D03*
D661*
X008690Y006478D03*
X008690Y006480D03*
X008690Y006483D03*
X008690Y006593D03*
X008690Y006595D03*
X008690Y006598D03*
X007825Y006953D03*
X007822Y006950D03*
X007820Y006948D03*
D662*
X007815Y006940D03*
X007812Y006938D03*
X008690Y006588D03*
X008690Y006585D03*
X008690Y006583D03*
X008690Y006493D03*
X008690Y006490D03*
X008690Y006488D03*
X008690Y006485D03*
D663*
X008690Y006495D03*
X008690Y006498D03*
X008690Y006500D03*
X008690Y006503D03*
X008690Y006505D03*
X008690Y006508D03*
X008690Y006568D03*
X008690Y006570D03*
X008690Y006573D03*
X008690Y006575D03*
X008690Y006578D03*
X007807Y006933D03*
X007805Y006930D03*
D664*
X007800Y006923D03*
X007797Y006920D03*
X007795Y006918D03*
X008690Y006563D03*
X008690Y006560D03*
X008690Y006558D03*
X008690Y006555D03*
X008690Y006553D03*
X008690Y006550D03*
X008690Y006548D03*
X008690Y006545D03*
X008690Y006543D03*
X008690Y006540D03*
X008690Y006538D03*
X008690Y006535D03*
X008690Y006533D03*
X008690Y006530D03*
X008690Y006528D03*
X008690Y006525D03*
X008690Y006523D03*
X008690Y006520D03*
X008690Y006518D03*
X008690Y006515D03*
X008690Y006513D03*
X008690Y007343D03*
D665*
X008688Y006580D03*
X007808Y006935D03*
D666*
X007623Y006615D03*
X007621Y006613D03*
X007621Y006610D03*
D667*
X007625Y006618D03*
X007625Y006620D03*
D668*
X007626Y006623D03*
X010111Y007400D03*
D669*
X007627Y006628D03*
X007627Y006625D03*
D670*
X007871Y007003D03*
X007873Y007005D03*
X008688Y006630D03*
D671*
X008688Y006635D03*
X007883Y007015D03*
X007881Y007013D03*
X007878Y007010D03*
X009263Y007400D03*
X009263Y007403D03*
X009263Y007405D03*
X009263Y007408D03*
X009263Y007410D03*
X009263Y007413D03*
D672*
X007632Y006640D03*
X007632Y006638D03*
D673*
X007633Y006643D03*
X010116Y007405D03*
D674*
X010117Y007408D03*
X007635Y006648D03*
X007635Y006645D03*
D675*
X007913Y007043D03*
X007916Y007045D03*
X007918Y007048D03*
X008688Y006648D03*
D676*
X007638Y006655D03*
X007636Y006650D03*
X010118Y007410D03*
D677*
X010120Y007413D03*
X008690Y007333D03*
X007640Y006658D03*
X007637Y006653D03*
D678*
X007641Y006660D03*
X010121Y007415D03*
X010121Y007418D03*
X010121Y007420D03*
D679*
X007646Y006673D03*
X007646Y006670D03*
X007643Y006668D03*
D680*
X007648Y006678D03*
D681*
X008033Y007138D03*
X008036Y007140D03*
X008688Y006680D03*
D682*
X007652Y006685D03*
X007650Y006683D03*
X007650Y006680D03*
D683*
X008078Y007168D03*
X008688Y006688D03*
D684*
X007653Y006688D03*
X007653Y006690D03*
D685*
X007655Y006693D03*
D686*
X007656Y006695D03*
X007658Y006698D03*
X007658Y006700D03*
D687*
X008157Y007213D03*
X008690Y006698D03*
D688*
X008688Y006703D03*
X008216Y007240D03*
X008211Y007238D03*
X008443Y007313D03*
D689*
X007662Y006708D03*
X007660Y006703D03*
D690*
X008245Y007253D03*
X008257Y007258D03*
X008407Y007305D03*
X008420Y007308D03*
X008690Y006705D03*
D691*
X007663Y006710D03*
X007661Y006705D03*
D692*
X008690Y006710D03*
D693*
X008690Y006715D03*
X009545Y007655D03*
X009545Y007658D03*
X009770Y007658D03*
X009770Y007655D03*
D694*
X007668Y006720D03*
X007666Y006718D03*
X007666Y006715D03*
D695*
X008050Y007630D03*
X008702Y007615D03*
X008702Y007440D03*
X009212Y007473D03*
X009545Y007465D03*
X009555Y007480D03*
X009557Y007483D03*
X009532Y007680D03*
X009757Y007680D03*
X009782Y007483D03*
X009780Y007480D03*
X009777Y007478D03*
X010280Y007463D03*
X008690Y006723D03*
D696*
X007673Y006730D03*
X007671Y006728D03*
X007671Y006725D03*
D697*
X007735Y007630D03*
X007125Y007613D03*
X008702Y007633D03*
X009052Y007295D03*
X009222Y007668D03*
X009567Y007370D03*
X008690Y006730D03*
D698*
X007675Y006733D03*
D699*
X007676Y006735D03*
X007678Y006740D03*
D700*
X007677Y006738D03*
X007680Y006743D03*
D701*
X008690Y006745D03*
D702*
X007683Y006748D03*
X007681Y006745D03*
D703*
X007685Y006750D03*
X007685Y006753D03*
D704*
X007686Y006755D03*
X007688Y006758D03*
D705*
X007690Y006760D03*
X007692Y006765D03*
D706*
X007691Y006763D03*
X007693Y006768D03*
D707*
X007698Y006775D03*
X007698Y006778D03*
D708*
X007700Y006780D03*
X007702Y006783D03*
D709*
X007703Y006785D03*
D710*
X007705Y006788D03*
X007707Y006790D03*
D711*
X007708Y006793D03*
X007708Y006795D03*
X007711Y006798D03*
D712*
X007712Y006800D03*
D713*
X007713Y006803D03*
X007716Y006805D03*
D714*
X007717Y006808D03*
X007720Y006810D03*
D715*
X007721Y006813D03*
X007721Y006815D03*
X007723Y006818D03*
D716*
X007725Y006820D03*
X007727Y006823D03*
D717*
X007728Y006825D03*
D718*
X007733Y006833D03*
X007733Y006835D03*
X007736Y006838D03*
D719*
X007737Y006840D03*
X007740Y006843D03*
X008690Y007340D03*
D720*
X007743Y006848D03*
X007741Y006845D03*
D721*
X007748Y006855D03*
D722*
X007750Y006858D03*
X007752Y006860D03*
D723*
X007753Y006863D03*
X007756Y006865D03*
D724*
X007757Y006868D03*
X007760Y006870D03*
D725*
X007761Y006873D03*
X007763Y006875D03*
D726*
X007765Y006878D03*
X007767Y006880D03*
D727*
X007768Y006883D03*
X007771Y006885D03*
D728*
X007776Y006893D03*
X007778Y006895D03*
D729*
X007780Y006898D03*
X007782Y006900D03*
D730*
X007783Y006903D03*
X007786Y006905D03*
X009291Y007415D03*
X009291Y007418D03*
D731*
X009290Y007420D03*
X009290Y007423D03*
X007790Y006910D03*
X007787Y006908D03*
D732*
X007791Y006913D03*
X007793Y006915D03*
D733*
X007833Y006963D03*
X007836Y006965D03*
X007838Y006968D03*
D734*
X007843Y006973D03*
D735*
X007853Y006985D03*
D736*
X007861Y006993D03*
X007863Y006995D03*
D737*
X007891Y007023D03*
D738*
X007933Y007060D03*
X007936Y007063D03*
X007938Y007065D03*
D739*
X007948Y007073D03*
X007951Y007075D03*
D740*
X007956Y007080D03*
X007958Y007083D03*
D741*
X007968Y007090D03*
X007971Y007093D03*
D742*
X007978Y007098D03*
X007981Y007100D03*
D743*
X008008Y007120D03*
X008011Y007123D03*
D744*
X008018Y007128D03*
X008021Y007130D03*
X008026Y007133D03*
D745*
X008043Y007145D03*
X008051Y007150D03*
D746*
X008066Y007160D03*
D747*
X008091Y007175D03*
X008096Y007178D03*
D748*
X008111Y007188D03*
X008116Y007190D03*
D749*
X008133Y007200D03*
X008893Y007320D03*
D750*
X008173Y007220D03*
X008168Y007218D03*
X008163Y007215D03*
D751*
X008188Y007228D03*
X008193Y007230D03*
X008198Y007233D03*
D752*
X008233Y007248D03*
X008238Y007250D03*
X008251Y007255D03*
D753*
X008303Y007275D03*
X008311Y007278D03*
X008318Y007280D03*
X008326Y007283D03*
X008333Y007285D03*
X008351Y007290D03*
X008368Y007295D03*
X008378Y007298D03*
D754*
X008495Y007430D03*
X008702Y007638D03*
X009085Y007288D03*
X009095Y007285D03*
X010042Y007468D03*
X008087Y007433D03*
X007737Y007420D03*
D755*
X007530Y007420D03*
X007125Y007620D03*
X008087Y007435D03*
X008440Y007533D03*
X008702Y007420D03*
X009075Y007290D03*
X009212Y007455D03*
D756*
X009041Y007298D03*
X008703Y007425D03*
X008468Y007630D03*
X007736Y007428D03*
X007528Y007425D03*
X009566Y007563D03*
X009791Y007563D03*
X009791Y007370D03*
D757*
X010277Y007468D03*
X009212Y007478D03*
X008975Y007310D03*
X008702Y007613D03*
X008052Y007625D03*
X007530Y007613D03*
D758*
X007735Y007633D03*
X007125Y007618D03*
X007125Y007615D03*
X008260Y007608D03*
X008260Y007605D03*
X008260Y007603D03*
X008467Y007633D03*
X009567Y007368D03*
X009792Y007368D03*
X009805Y007498D03*
D759*
X009792Y007373D03*
X009567Y007373D03*
X009212Y007463D03*
X009222Y007663D03*
X008702Y007428D03*
X008450Y007525D03*
X008470Y007625D03*
D760*
X008471Y007623D03*
X008453Y007520D03*
X008703Y007625D03*
X009211Y007465D03*
X009568Y007493D03*
X009566Y007375D03*
X009791Y007375D03*
X009793Y007493D03*
X007736Y007435D03*
X007733Y007623D03*
X007528Y007625D03*
D761*
X008056Y007618D03*
X008056Y007615D03*
X008468Y007440D03*
X008468Y007438D03*
X008956Y007440D03*
X009548Y007460D03*
X009566Y007388D03*
X009773Y007460D03*
X009763Y007670D03*
X009538Y007670D03*
X010013Y007470D03*
X010273Y007475D03*
D762*
X009143Y007503D03*
X008933Y007400D03*
X008196Y007598D03*
X007676Y007595D03*
D763*
X007742Y007400D03*
X007527Y007400D03*
X008532Y007590D03*
X008702Y007400D03*
X009790Y007695D03*
D764*
X009145Y007500D03*
X008500Y007400D03*
X007265Y007655D03*
D765*
X007672Y007465D03*
X008092Y007400D03*
D766*
X007895Y007400D03*
X007895Y007473D03*
D767*
X007896Y007470D03*
X007896Y007403D03*
X007673Y007460D03*
D768*
X007528Y007415D03*
X007733Y007640D03*
X008088Y007425D03*
X008496Y007423D03*
X008703Y007415D03*
X008931Y007425D03*
X008923Y007630D03*
X009221Y007678D03*
X009213Y007450D03*
X009566Y007550D03*
X009791Y007550D03*
X010241Y007670D03*
X008466Y007640D03*
X007123Y007633D03*
D769*
X007528Y007628D03*
X007733Y007625D03*
X007736Y007433D03*
X008703Y007628D03*
X009566Y007570D03*
X009566Y007568D03*
X009791Y007568D03*
D770*
X009566Y007490D03*
X008703Y007623D03*
X008471Y007620D03*
X008456Y007518D03*
X007741Y007613D03*
X007736Y007438D03*
X007528Y007433D03*
X007528Y007623D03*
X007298Y007623D03*
D771*
X007296Y007615D03*
X007296Y007613D03*
X007528Y007620D03*
X007528Y007435D03*
X007736Y007440D03*
X007738Y007443D03*
X007738Y007445D03*
X008468Y007613D03*
X008703Y007620D03*
X009563Y007488D03*
D772*
X009145Y007498D03*
X008920Y007655D03*
X008532Y007593D03*
X008207Y007655D03*
X007677Y007600D03*
X007122Y007655D03*
X010252Y007438D03*
D773*
X010281Y007460D03*
X009771Y007470D03*
X009768Y007468D03*
X009546Y007470D03*
X009543Y007468D03*
X008703Y007618D03*
X008461Y007510D03*
X008048Y007633D03*
X007528Y007618D03*
X007528Y007440D03*
D774*
X007673Y007463D03*
X007676Y007598D03*
X009566Y007695D03*
X010238Y007695D03*
D775*
X009228Y007560D03*
D776*
X009226Y007565D03*
X009226Y007568D03*
X009226Y007570D03*
X009226Y007573D03*
X009226Y007575D03*
X009226Y007578D03*
X009226Y007580D03*
X009226Y007583D03*
X009226Y007585D03*
X009226Y007588D03*
X009226Y007590D03*
X009226Y007593D03*
D777*
X008951Y007610D03*
X009543Y007660D03*
X009768Y007660D03*
X010268Y007653D03*
X010268Y007650D03*
D778*
X005063Y004850D02*
X004763Y004900D01*
X004763Y005160D01*
X005063Y005220D01*
X005093Y005200D02*
X004793Y005150D01*
X004793Y004900D01*
X005093Y004900D01*
X005193Y004550D01*
X005043Y004350D01*
X005193Y004200D01*
X005393Y004350D01*
X005493Y004300D01*
X005693Y004700D01*
X005493Y004900D01*
X005493Y005150D01*
X005643Y005400D01*
X005893Y005450D01*
X006193Y005350D01*
X006143Y005350D01*
X006293Y005100D01*
X006193Y004800D01*
X006093Y004700D01*
X006243Y004300D01*
X006343Y004350D01*
X006543Y004200D01*
X006693Y004350D01*
X006543Y004600D01*
X006643Y004850D01*
X006943Y004950D01*
X006943Y004900D01*
X006943Y005150D01*
X006643Y005200D01*
X006543Y005500D01*
X006743Y005700D01*
X006593Y005850D01*
X006293Y005700D01*
X005993Y005850D01*
X006043Y005850D01*
X005993Y006100D01*
X005743Y006100D01*
X005743Y005800D01*
X005443Y005700D01*
X005193Y005850D01*
X005043Y005750D01*
X005193Y005450D01*
X005093Y005200D01*
X005109Y005240D02*
X005547Y005240D01*
X005582Y005298D02*
X005133Y005298D01*
X005156Y005357D02*
X005617Y005357D01*
X005718Y005415D02*
X005179Y005415D01*
X005173Y005470D02*
X004993Y005730D01*
X005183Y005910D01*
X005443Y005730D01*
X005431Y005708D02*
X005065Y005708D01*
X005067Y005766D02*
X005333Y005766D01*
X005236Y005825D02*
X005155Y005825D01*
X005094Y005649D02*
X006692Y005649D01*
X006736Y005708D02*
X006308Y005708D01*
X006313Y005730D02*
X006573Y005910D01*
X006763Y005730D01*
X006583Y005470D01*
X006552Y005474D02*
X005182Y005474D01*
X005152Y005532D02*
X006575Y005532D01*
X006634Y005591D02*
X005123Y005591D01*
X005466Y005708D02*
X006278Y005708D01*
X006161Y005766D02*
X005641Y005766D01*
X005693Y005830D02*
X005743Y006150D01*
X006013Y006150D01*
X006063Y005830D01*
X006044Y005825D02*
X005743Y005825D01*
X005743Y005883D02*
X006037Y005883D01*
X006025Y005942D02*
X005743Y005942D01*
X005743Y006000D02*
X006013Y006000D01*
X006002Y006059D02*
X005743Y006059D01*
X005998Y005415D02*
X006572Y005415D01*
X006591Y005357D02*
X006174Y005357D01*
X006174Y005298D02*
X006611Y005298D01*
X006630Y005240D02*
X006210Y005240D01*
X006245Y005181D02*
X006757Y005181D01*
X006693Y005220D02*
X006993Y005160D01*
X006993Y004900D01*
X006693Y004850D01*
X006635Y004830D02*
X006203Y004830D01*
X006223Y004889D02*
X006759Y004889D01*
X006934Y004947D02*
X006242Y004947D01*
X006262Y005006D02*
X006943Y005006D01*
X006943Y005064D02*
X006281Y005064D01*
X006280Y005123D02*
X006943Y005123D01*
X006612Y004772D02*
X006165Y004772D01*
X006106Y004713D02*
X006589Y004713D01*
X006565Y004655D02*
X006110Y004655D01*
X006132Y004596D02*
X006546Y004596D01*
X006593Y004580D02*
X006753Y004340D01*
X006573Y004150D01*
X006333Y004320D01*
X006233Y004260D01*
X006033Y004710D01*
X006154Y004538D02*
X006581Y004538D01*
X006616Y004479D02*
X006176Y004479D01*
X006198Y004421D02*
X006651Y004421D01*
X006686Y004362D02*
X006220Y004362D01*
X006242Y004304D02*
X006250Y004304D01*
X006405Y004304D02*
X006647Y004304D01*
X006588Y004245D02*
X006483Y004245D01*
X005713Y004710D02*
X005523Y004260D01*
X005423Y004320D01*
X005183Y004150D01*
X004993Y004340D01*
X005163Y004580D01*
X005180Y004596D02*
X005641Y004596D01*
X005612Y004538D02*
X005184Y004538D01*
X005140Y004479D02*
X005583Y004479D01*
X005554Y004421D02*
X005096Y004421D01*
X005052Y004362D02*
X005524Y004362D01*
X005495Y004304D02*
X005486Y004304D01*
X005331Y004304D02*
X005090Y004304D01*
X005148Y004245D02*
X005253Y004245D01*
X005163Y004655D02*
X005671Y004655D01*
X005680Y004713D02*
X005147Y004713D01*
X005130Y004772D02*
X005622Y004772D01*
X005563Y004830D02*
X005113Y004830D01*
X005097Y004889D02*
X005505Y004889D01*
X005493Y004947D02*
X004793Y004947D01*
X004793Y005006D02*
X005493Y005006D01*
X005493Y005064D02*
X004793Y005064D01*
X004793Y005123D02*
X005493Y005123D01*
X005512Y005181D02*
X004979Y005181D01*
X005065Y005220D02*
X005080Y005272D01*
X005099Y005323D01*
X005121Y005373D01*
X005146Y005421D01*
X005175Y005468D01*
X005713Y004720D02*
X005680Y004738D01*
X005650Y004759D01*
X005621Y004783D01*
X005595Y004810D01*
X005573Y004839D01*
X005553Y004871D01*
X005536Y004904D01*
X005523Y004939D01*
X005514Y004975D01*
X005508Y005012D01*
X005506Y005049D01*
X005508Y005086D01*
X005513Y005123D01*
X005523Y005159D01*
X005535Y005194D01*
X005552Y005228D01*
X005571Y005259D01*
X005594Y005289D01*
X005620Y005316D01*
X005648Y005340D01*
X005679Y005361D01*
X005711Y005379D01*
X005745Y005394D01*
X005781Y005405D01*
X005817Y005413D01*
X005854Y005417D01*
X005892Y005417D01*
X005929Y005413D01*
X005965Y005405D01*
X006001Y005394D01*
X006035Y005379D01*
X006067Y005361D01*
X006098Y005340D01*
X006126Y005316D01*
X006152Y005289D01*
X006175Y005259D01*
X006194Y005228D01*
X006211Y005194D01*
X006223Y005159D01*
X006233Y005123D01*
X006238Y005086D01*
X006240Y005049D01*
X006238Y005012D01*
X006232Y004975D01*
X006223Y004939D01*
X006210Y004904D01*
X006193Y004871D01*
X006173Y004839D01*
X006151Y004810D01*
X006125Y004783D01*
X006096Y004759D01*
X006066Y004738D01*
X006033Y004720D01*
X005163Y004580D02*
X005140Y004621D01*
X005119Y004664D01*
X005101Y004709D01*
X005086Y004754D01*
X005073Y004800D01*
X005063Y004847D01*
X005439Y005731D02*
X005486Y005758D01*
X005535Y005781D01*
X005585Y005801D01*
X005636Y005818D01*
X005688Y005832D01*
X006425Y005766D02*
X006677Y005766D01*
X006619Y005825D02*
X006542Y005825D01*
X006310Y005733D02*
X006265Y005758D01*
X006218Y005781D01*
X006170Y005800D01*
X006121Y005817D01*
X006071Y005830D01*
X006582Y005465D02*
X006609Y005418D01*
X006633Y005371D01*
X006654Y005322D01*
X006672Y005271D01*
X006686Y005220D01*
X006693Y004849D02*
X006680Y004793D01*
X006663Y004738D01*
X006642Y004685D01*
X006618Y004633D01*
X006590Y004583D01*
M02*
