G75*
G70*
%OFA0B0*%
%FSLAX24Y24*%
%IPPOS*%
%LPD*%
%AMOC8*
5,1,8,0,0,1.08239X$1,22.5*
%
%ADD10C,0.0030*%
%ADD11C,0.0060*%
%ADD12C,0.0050*%
%ADD13C,0.0020*%
D10*
X005058Y003418D02*
X005058Y003548D01*
X005101Y003591D01*
X005275Y003591D01*
X005318Y003548D01*
X005318Y003418D01*
X005058Y003418D01*
X005362Y003685D02*
X005362Y003858D01*
X005318Y003952D02*
X005318Y004039D01*
X005318Y003995D02*
X005058Y003995D01*
X005058Y003952D02*
X005058Y004039D01*
X005058Y004303D02*
X005318Y004130D01*
X005275Y004397D02*
X005101Y004397D01*
X005058Y004440D01*
X005058Y004527D01*
X005101Y004570D01*
X005275Y004397D01*
X005318Y004440D01*
X005318Y004527D01*
X005275Y004570D01*
X005101Y004570D01*
X005101Y004664D02*
X005058Y004707D01*
X005058Y004794D01*
X005101Y004837D01*
X005145Y004837D01*
X005188Y004794D01*
X005232Y004837D01*
X005275Y004837D01*
X005318Y004794D01*
X005318Y004707D01*
X005275Y004664D01*
X005188Y004751D02*
X005188Y004794D01*
X005232Y004931D02*
X005058Y004931D01*
X005058Y005104D02*
X005232Y005104D01*
X005318Y005018D01*
X005232Y004931D01*
X005275Y005198D02*
X005318Y005241D01*
X005318Y005328D01*
X005275Y005371D01*
X005232Y005371D01*
X005188Y005328D01*
X005188Y005285D01*
X005188Y005328D02*
X005145Y005371D01*
X005101Y005371D01*
X005058Y005328D01*
X005058Y005241D01*
X005101Y005198D01*
X005952Y006620D02*
X005908Y006663D01*
X006082Y006837D01*
X006082Y006663D01*
X006038Y006620D01*
X005952Y006620D01*
X005908Y006663D02*
X005908Y006837D01*
X005952Y006880D01*
X006038Y006880D01*
X006082Y006837D01*
X006175Y006663D02*
X006219Y006663D01*
X006219Y006620D01*
X006175Y006620D01*
X006175Y006663D01*
X006309Y006620D02*
X006482Y006620D01*
X006396Y006620D02*
X006396Y006880D01*
X006309Y006793D01*
X006349Y007020D02*
X006175Y007020D01*
X006349Y007193D01*
X006349Y007237D01*
X006305Y007280D01*
X006219Y007280D01*
X006175Y007237D01*
X006082Y007237D02*
X006038Y007280D01*
X005952Y007280D01*
X005908Y007237D01*
X005908Y007063D01*
X005952Y007020D01*
X006038Y007020D01*
X006082Y007063D01*
X006576Y006793D02*
X006576Y006663D01*
X006619Y006620D01*
X006749Y006620D01*
X006749Y006793D01*
X006843Y006750D02*
X006930Y006750D01*
X007016Y006880D02*
X006843Y006880D01*
X006843Y006620D01*
X008208Y006663D02*
X008382Y006837D01*
X008382Y006663D01*
X008338Y006620D01*
X008252Y006620D01*
X008208Y006663D01*
X008208Y006837D01*
X008252Y006880D01*
X008338Y006880D01*
X008382Y006837D01*
X008475Y006663D02*
X008519Y006663D01*
X008519Y006620D01*
X008475Y006620D01*
X008475Y006663D01*
X008609Y006620D02*
X008782Y006620D01*
X008696Y006620D02*
X008696Y006880D01*
X008609Y006793D01*
X008605Y007020D02*
X008519Y007020D01*
X008475Y007063D01*
X008382Y007063D02*
X008338Y007020D01*
X008252Y007020D01*
X008208Y007063D01*
X008208Y007237D01*
X008252Y007280D01*
X008338Y007280D01*
X008382Y007237D01*
X008475Y007237D02*
X008519Y007280D01*
X008605Y007280D01*
X008649Y007237D01*
X008649Y007193D01*
X008605Y007150D01*
X008649Y007107D01*
X008649Y007063D01*
X008605Y007020D01*
X008605Y007150D02*
X008562Y007150D01*
X008876Y006793D02*
X008876Y006663D01*
X008919Y006620D01*
X009049Y006620D01*
X009049Y006793D01*
X009143Y006750D02*
X009230Y006750D01*
X009316Y006880D02*
X009143Y006880D01*
X009143Y006620D01*
X009768Y005252D02*
X009942Y005252D01*
X010028Y005165D01*
X009942Y005078D01*
X009768Y005078D01*
X009768Y004985D02*
X009768Y004811D01*
X009898Y004811D01*
X009855Y004898D01*
X009855Y004941D01*
X009898Y004985D01*
X009985Y004985D01*
X010028Y004941D01*
X010028Y004854D01*
X009985Y004811D01*
X009985Y004718D02*
X009811Y004718D01*
X009768Y004674D01*
X009768Y004587D01*
X009811Y004544D01*
X009985Y004544D01*
X010028Y004587D01*
X010028Y004674D01*
X009985Y004718D01*
X009768Y004451D02*
X010028Y004277D01*
X010028Y004186D02*
X010028Y004099D01*
X010028Y004142D02*
X009768Y004142D01*
X009768Y004099D02*
X009768Y004186D01*
X010072Y004006D02*
X010072Y003832D01*
X009985Y003738D02*
X009811Y003738D01*
X009768Y003695D01*
X009768Y003565D01*
X010028Y003565D01*
X010028Y003695D01*
X009985Y003738D01*
X008684Y002582D02*
X008684Y002538D01*
X008641Y002495D01*
X008554Y002495D01*
X008510Y002538D01*
X008510Y002582D01*
X008554Y002625D01*
X008641Y002625D01*
X008684Y002582D01*
X008641Y002495D02*
X008684Y002452D01*
X008684Y002408D01*
X008641Y002365D01*
X008554Y002365D01*
X008510Y002408D01*
X008510Y002452D01*
X008554Y002495D01*
X008417Y002408D02*
X008374Y002365D01*
X008287Y002365D01*
X008243Y002408D01*
X008417Y002582D01*
X008417Y002408D01*
X008417Y002582D02*
X008374Y002625D01*
X008287Y002625D01*
X008243Y002582D01*
X008243Y002408D01*
X008150Y002365D02*
X007976Y002365D01*
X008063Y002365D02*
X008063Y002625D01*
X007976Y002538D01*
X007883Y002582D02*
X007709Y002408D01*
X007753Y002365D01*
X007840Y002365D01*
X007883Y002408D01*
X007883Y002582D01*
X007840Y002625D01*
X007753Y002625D01*
X007709Y002582D01*
X007709Y002408D01*
X007616Y002408D02*
X007572Y002365D01*
X007442Y002365D01*
X007442Y002625D01*
X007572Y002625D01*
X007616Y002582D01*
X007616Y002538D01*
X007572Y002495D01*
X007442Y002495D01*
X007572Y002495D02*
X007616Y002452D01*
X007616Y002408D01*
X007349Y002365D02*
X007175Y002625D01*
X007082Y002625D02*
X006908Y002625D01*
X006995Y002625D02*
X006995Y002365D01*
X007175Y002365D02*
X007349Y002625D01*
X007608Y001335D02*
X007753Y001335D01*
X007802Y001287D01*
X007802Y001238D01*
X007753Y001190D01*
X007608Y001190D01*
X007507Y001190D02*
X007314Y001190D01*
X007213Y001045D02*
X007019Y001045D01*
X007019Y001335D01*
X006918Y001335D02*
X006724Y001335D01*
X006821Y001335D02*
X006821Y001045D01*
X006526Y001045D02*
X006526Y001335D01*
X006430Y001335D02*
X006623Y001335D01*
X006477Y000855D02*
X006380Y000855D01*
X006331Y000807D01*
X006331Y000613D01*
X006525Y000807D01*
X006525Y000613D01*
X006477Y000565D01*
X006380Y000565D01*
X006331Y000613D01*
X006233Y000613D02*
X006233Y000565D01*
X006184Y000565D01*
X006184Y000613D01*
X006233Y000613D01*
X006083Y000565D02*
X005890Y000565D01*
X005986Y000565D02*
X005986Y000855D01*
X005890Y000758D01*
X005788Y000758D02*
X005692Y000565D01*
X005595Y000758D01*
X006477Y000855D02*
X006525Y000807D01*
X006675Y000613D02*
X006675Y000565D01*
X006723Y000565D01*
X006723Y000613D01*
X006675Y000613D01*
X006723Y000565D02*
X006626Y000468D01*
X007117Y000565D02*
X007117Y000758D01*
X007214Y000855D01*
X007311Y000758D01*
X007311Y000565D01*
X007412Y000613D02*
X007412Y000758D01*
X007311Y000710D02*
X007117Y000710D01*
X007412Y000613D02*
X007460Y000565D01*
X007605Y000565D01*
X007605Y000758D01*
X007707Y000710D02*
X007707Y000613D01*
X007755Y000565D01*
X007900Y000565D01*
X007900Y000517D02*
X007852Y000468D01*
X007803Y000468D01*
X007900Y000517D02*
X007900Y000758D01*
X007755Y000758D01*
X007707Y000710D01*
X008001Y000613D02*
X008050Y000613D01*
X008050Y000565D01*
X008001Y000565D01*
X008001Y000613D01*
X008443Y000565D02*
X008637Y000758D01*
X008637Y000807D01*
X008588Y000855D01*
X008492Y000855D01*
X008443Y000807D01*
X008443Y000565D02*
X008637Y000565D01*
X008738Y000613D02*
X008931Y000807D01*
X008931Y000613D01*
X008883Y000565D01*
X008786Y000565D01*
X008738Y000613D01*
X008738Y000807D01*
X008786Y000855D01*
X008883Y000855D01*
X008931Y000807D01*
X009032Y000758D02*
X009129Y000855D01*
X009129Y000565D01*
X009032Y000565D02*
X009226Y000565D01*
X009327Y000613D02*
X009375Y000565D01*
X009472Y000565D01*
X009521Y000613D01*
X009521Y000662D01*
X009472Y000710D01*
X009424Y000710D01*
X009472Y000710D02*
X009521Y000758D01*
X009521Y000807D01*
X009472Y000855D01*
X009375Y000855D01*
X009327Y000807D01*
X008391Y001093D02*
X008343Y001045D01*
X008198Y001045D01*
X008198Y001335D01*
X008343Y001335D01*
X008391Y001287D01*
X008391Y001238D01*
X008343Y001190D01*
X008198Y001190D01*
X008096Y001093D02*
X008096Y001287D01*
X008048Y001335D01*
X007951Y001335D01*
X007903Y001287D01*
X007903Y001093D01*
X007951Y001045D01*
X008048Y001045D01*
X008096Y001093D01*
X008343Y001190D02*
X008391Y001142D01*
X008391Y001093D01*
X007802Y001093D02*
X007753Y001045D01*
X007608Y001045D01*
X007608Y001335D01*
X007753Y001190D02*
X007802Y001142D01*
X007802Y001093D01*
X006072Y002120D02*
X005942Y002207D01*
X006072Y002293D01*
X005942Y002380D02*
X005942Y002120D01*
X005849Y002163D02*
X005805Y002120D01*
X005719Y002120D01*
X005675Y002163D01*
X005849Y002337D01*
X005849Y002163D01*
X005675Y002163D02*
X005675Y002337D01*
X005719Y002380D01*
X005805Y002380D01*
X005849Y002337D01*
X005849Y002520D02*
X005675Y002520D01*
X005849Y002693D01*
X005849Y002737D01*
X005805Y002780D01*
X005719Y002780D01*
X005675Y002737D01*
X005582Y002737D02*
X005582Y002650D01*
X005538Y002607D01*
X005408Y002607D01*
X005408Y002520D02*
X005408Y002780D01*
X005538Y002780D01*
X005582Y002737D01*
X005495Y002607D02*
X005582Y002520D01*
X005495Y002380D02*
X005495Y002120D01*
X005408Y002120D02*
X005582Y002120D01*
X005408Y002293D02*
X005495Y002380D01*
X007507Y004661D02*
X007463Y004704D01*
X007463Y004921D01*
X007637Y004921D02*
X007637Y004704D01*
X007593Y004661D01*
X007507Y004661D01*
X007730Y004661D02*
X007904Y004661D01*
X007817Y004661D02*
X007817Y004921D01*
X007730Y004834D01*
X005405Y009420D02*
X005275Y009507D01*
X005405Y009593D01*
X005275Y009680D02*
X005275Y009420D01*
X005182Y009420D02*
X005008Y009420D01*
X005095Y009420D02*
X005095Y009680D01*
X005008Y009593D01*
X005008Y009770D02*
X005008Y010030D01*
X005138Y010030D01*
X005182Y009987D01*
X005182Y009900D01*
X005138Y009857D01*
X005008Y009857D01*
X005095Y009857D02*
X005182Y009770D01*
X005275Y009770D02*
X005449Y009770D01*
X005362Y009770D02*
X005362Y010030D01*
X005275Y009943D01*
D11*
X002793Y001300D02*
X002793Y000800D01*
X003043Y000550D01*
X004543Y000550D01*
X004793Y000800D01*
X004793Y001300D01*
X004543Y001550D01*
X003043Y001550D01*
X002793Y001300D01*
X003043Y001550D02*
X002793Y001800D01*
X002793Y002300D01*
X003043Y002550D01*
X004543Y002550D01*
X004793Y002300D01*
X004793Y001800D01*
X004543Y001550D01*
X004543Y002550D02*
X004793Y002800D01*
X004793Y003300D01*
X004543Y003550D01*
X003043Y003550D01*
X002793Y003300D01*
X002793Y002800D01*
X003043Y002550D01*
X003043Y003550D02*
X002793Y003800D01*
X002793Y004300D01*
X003043Y004550D01*
X004543Y004550D01*
X004793Y004300D01*
X004793Y003800D01*
X004543Y003550D01*
X004543Y004550D02*
X003043Y004550D01*
X002793Y004800D01*
X002793Y005300D01*
X003043Y005550D01*
X004543Y005550D01*
X004793Y005300D01*
X004793Y004800D01*
X004543Y004550D01*
X004543Y005550D02*
X004793Y005800D01*
X004793Y006300D01*
X004543Y006550D01*
X003043Y006550D01*
X002793Y006300D01*
X002793Y005800D01*
X003043Y005550D01*
X003043Y006550D02*
X002793Y006800D01*
X002793Y007300D01*
X003043Y007550D01*
X004543Y007550D01*
X004793Y007300D01*
X004793Y006800D01*
X004543Y006550D01*
X004543Y007550D02*
X004793Y007800D01*
X004793Y008300D01*
X004543Y008550D01*
X003043Y008550D01*
X002793Y008300D01*
X002793Y007800D01*
X003043Y007550D01*
X006670Y005696D02*
X008467Y005696D01*
X006908Y005346D02*
X006910Y005372D01*
X006916Y005398D01*
X006925Y005422D01*
X006938Y005445D01*
X006954Y005466D01*
X006973Y005484D01*
X006994Y005500D01*
X007018Y005512D01*
X007042Y005520D01*
X007068Y005525D01*
X007095Y005526D01*
X007121Y005523D01*
X007146Y005516D01*
X007170Y005506D01*
X007193Y005492D01*
X007213Y005476D01*
X007230Y005456D01*
X007245Y005434D01*
X007256Y005410D01*
X007264Y005385D01*
X007268Y005359D01*
X007268Y005333D01*
X007264Y005307D01*
X007256Y005282D01*
X007245Y005258D01*
X007230Y005236D01*
X007213Y005216D01*
X007193Y005200D01*
X007170Y005186D01*
X007146Y005176D01*
X007121Y005169D01*
X007095Y005166D01*
X007068Y005167D01*
X007042Y005172D01*
X007018Y005180D01*
X006994Y005192D01*
X006973Y005208D01*
X006954Y005226D01*
X006938Y005247D01*
X006925Y005270D01*
X006916Y005294D01*
X006910Y005320D01*
X006908Y005346D01*
X006670Y003204D02*
X008467Y003204D01*
X010293Y003300D02*
X010293Y002800D01*
X010543Y002550D01*
X012043Y002550D01*
X012293Y002300D01*
X012293Y001800D01*
X012043Y001550D01*
X012293Y001300D01*
X012293Y000800D01*
X012043Y000550D01*
X010543Y000550D01*
X010293Y000800D01*
X010293Y001300D01*
X010543Y001550D01*
X012043Y001550D01*
X012043Y002550D02*
X012293Y002800D01*
X012293Y003300D01*
X012043Y003550D01*
X010543Y003550D01*
X010293Y003300D01*
X010543Y003550D02*
X010293Y003800D01*
X010293Y004300D01*
X010543Y004550D01*
X012043Y004550D01*
X012293Y004300D01*
X012293Y003800D01*
X012043Y003550D01*
X012043Y004550D02*
X010543Y004550D01*
X010293Y004800D01*
X010293Y005300D01*
X010543Y005550D01*
X012043Y005550D01*
X012293Y005300D01*
X012293Y004800D01*
X012043Y004550D01*
X012043Y005550D02*
X012293Y005800D01*
X012293Y006300D01*
X012043Y006550D01*
X010543Y006550D01*
X010293Y006300D01*
X010293Y005800D01*
X010543Y005550D01*
X010543Y006550D02*
X010293Y006800D01*
X010293Y007300D01*
X010543Y007550D01*
X012043Y007550D01*
X012293Y007300D01*
X012293Y006800D01*
X012043Y006550D01*
X012043Y007550D02*
X012293Y007800D01*
X012293Y008300D01*
X012043Y008550D01*
X010543Y008550D01*
X010293Y008300D01*
X010293Y007800D01*
X010543Y007550D01*
X010543Y002550D02*
X010293Y002300D01*
X010293Y001800D01*
X010543Y001550D01*
D12*
X006718Y001800D02*
X006118Y001800D01*
X006118Y003000D01*
X006718Y003000D01*
X006718Y001800D01*
X007018Y005900D02*
X005818Y005900D01*
X005818Y006500D01*
X007018Y006500D01*
X007018Y005900D01*
X008118Y005900D02*
X008118Y006500D01*
X009318Y006500D01*
X009318Y005900D01*
X008118Y005900D01*
X006893Y008525D02*
X006893Y009175D01*
X005393Y009175D01*
X005393Y008525D01*
X006893Y008525D01*
X006243Y008700D02*
X006043Y008850D01*
X006243Y009000D01*
X006243Y008700D01*
X006043Y008700D02*
X006043Y009000D01*
X005543Y009350D02*
X005543Y009950D01*
X006743Y009950D01*
X006743Y009350D01*
X005543Y009350D01*
X004493Y009450D02*
X004493Y008650D01*
X003093Y008650D01*
X003093Y009450D01*
X004493Y009450D01*
D13*
X004194Y009695D02*
X004104Y009695D01*
X004018Y009740D02*
X004018Y009560D01*
X003882Y009560D01*
X003837Y009605D01*
X003837Y009740D01*
X003750Y009785D02*
X003750Y009605D01*
X003705Y009560D01*
X003615Y009560D01*
X003570Y009605D01*
X003750Y009785D01*
X003705Y009830D01*
X003615Y009830D01*
X003570Y009785D01*
X003570Y009605D01*
X003483Y009560D02*
X003303Y009560D01*
X003393Y009560D02*
X003393Y009830D01*
X003303Y009740D01*
X003348Y009860D02*
X003438Y009860D01*
X003483Y009905D01*
X003570Y009860D02*
X003750Y009860D01*
X003660Y009860D02*
X003660Y010130D01*
X003570Y010040D01*
X003483Y010085D02*
X003438Y010130D01*
X003348Y010130D01*
X003303Y010085D01*
X003303Y009905D01*
X003348Y009860D01*
X004104Y009830D02*
X004104Y009560D01*
X004104Y009830D02*
X004285Y009830D01*
X007013Y009107D02*
X007283Y009107D01*
X007013Y008927D01*
X007283Y008927D01*
X007238Y008840D02*
X007058Y008840D01*
X007013Y008795D01*
X007013Y008705D01*
X007058Y008660D01*
X007238Y008660D01*
X007283Y008705D01*
X007283Y008795D01*
X007238Y008840D01*
M02*
