G75*
G70*
%OFA0B0*%
%FSLAX24Y24*%
%IPPOS*%
%LPD*%
%AMOC8*
5,1,8,0,0,1.08239X$1,22.5*
%
%ADD10OC8,0.0740*%
%ADD11R,0.0460X0.0680*%
%ADD12R,0.0552X0.0552*%
%ADD13R,0.0430X0.0500*%
%ADD14R,0.0470X0.0200*%
%ADD15R,0.0500X0.0430*%
%ADD16C,0.0456*%
D10*
X003293Y001050D03*
X003293Y002050D03*
X003293Y003050D03*
X003293Y004050D03*
X003293Y005050D03*
X003293Y006050D03*
X003293Y007050D03*
X003293Y008050D03*
X004293Y008050D03*
X004293Y007050D03*
X004293Y006050D03*
X004293Y005050D03*
X004293Y004050D03*
X004293Y003050D03*
X004293Y002050D03*
X004293Y001050D03*
X010793Y001050D03*
X010793Y002050D03*
X011793Y002050D03*
X011793Y001050D03*
X011793Y003050D03*
X010793Y003050D03*
X010793Y004050D03*
X011793Y004050D03*
X011793Y005050D03*
X010793Y005050D03*
X010793Y006050D03*
X011793Y006050D03*
X011793Y007050D03*
X010793Y007050D03*
X010793Y008050D03*
X011793Y008050D03*
D11*
X004203Y009050D03*
X003383Y009050D03*
D12*
X005730Y008850D03*
X006557Y008850D03*
D13*
X006483Y009650D03*
X005803Y009650D03*
X006078Y006200D03*
X006758Y006200D03*
X008378Y006200D03*
X009058Y006200D03*
D14*
X008717Y005602D03*
X008717Y005346D03*
X008717Y005090D03*
X008717Y004834D03*
X008717Y004578D03*
X008717Y004322D03*
X008717Y004066D03*
X008717Y003810D03*
X008717Y003554D03*
X008717Y003298D03*
X006420Y003298D03*
X006420Y003554D03*
X006420Y003810D03*
X006420Y004066D03*
X006420Y004322D03*
X006420Y004578D03*
X006420Y004834D03*
X006420Y005090D03*
X006420Y005346D03*
X006420Y005602D03*
D15*
X006418Y002740D03*
X006418Y002060D03*
D16*
X008718Y002900D03*
M02*
