G75*
G70*
%OFA0B0*%
%FSLAX24Y24*%
%IPPOS*%
%LPD*%
%AMOC8*
5,1,8,0,0,1.08239X$1,22.5*
%
%ADD10OC8,0.0660*%
%ADD11R,0.0380X0.0600*%
%ADD12R,0.0472X0.0472*%
%ADD13R,0.0350X0.0420*%
%ADD14R,0.0390X0.0120*%
%ADD15R,0.0420X0.0350*%
%ADD16C,0.0070*%
%ADD17C,0.0240*%
%ADD18C,0.0270*%
%ADD19C,0.0376*%
%ADD20C,0.0120*%
%ADD21C,0.0100*%
%ADD22C,0.0160*%
D10*
X003293Y001050D03*
X003293Y002050D03*
X003293Y003050D03*
X003293Y004050D03*
X003293Y005050D03*
X003293Y006050D03*
X003293Y007050D03*
X003293Y008050D03*
X004293Y008050D03*
X004293Y007050D03*
X004293Y006050D03*
X004293Y005050D03*
X004293Y004050D03*
X004293Y003050D03*
X004293Y002050D03*
X004293Y001050D03*
X010793Y001050D03*
X010793Y002050D03*
X011793Y002050D03*
X011793Y001050D03*
X011793Y003050D03*
X010793Y003050D03*
X010793Y004050D03*
X011793Y004050D03*
X011793Y005050D03*
X010793Y005050D03*
X010793Y006050D03*
X011793Y006050D03*
X011793Y007050D03*
X010793Y007050D03*
X010793Y008050D03*
X011793Y008050D03*
D11*
X004203Y009050D03*
X003383Y009050D03*
D12*
X005730Y008850D03*
X006557Y008850D03*
D13*
X006483Y009650D03*
X005803Y009650D03*
X006078Y006200D03*
X006758Y006200D03*
X008378Y006200D03*
X009058Y006200D03*
D14*
X008717Y005602D03*
X008717Y005346D03*
X008717Y005090D03*
X008717Y004834D03*
X008717Y004578D03*
X008717Y004322D03*
X008717Y004066D03*
X008717Y003810D03*
X008717Y003554D03*
X008717Y003298D03*
X006420Y003298D03*
X006420Y003554D03*
X006420Y003810D03*
X006420Y004066D03*
X006420Y004322D03*
X006420Y004578D03*
X006420Y004834D03*
X006420Y005090D03*
X006420Y005346D03*
X006420Y005602D03*
D15*
X006418Y002740D03*
X006418Y002060D03*
D16*
X006418Y002740D02*
X006420Y002741D01*
X006420Y003298D01*
X006420Y003554D02*
X006198Y003554D01*
X005443Y002800D01*
X005443Y002200D01*
X004293Y001050D01*
X004293Y002050D02*
X006054Y003810D01*
X006420Y003810D01*
X006420Y004066D02*
X005309Y004066D01*
X004293Y003050D01*
X004293Y004050D02*
X004565Y004322D01*
X006420Y004322D01*
X006420Y004578D02*
X004765Y004578D01*
X004293Y005050D01*
X004293Y006050D02*
X005509Y004834D01*
X006420Y004834D01*
X006420Y005090D02*
X005754Y005090D01*
X005118Y005725D01*
X005118Y006225D01*
X004293Y007050D01*
X005268Y007075D02*
X004293Y008050D01*
X005268Y007075D02*
X005268Y006025D01*
X005692Y005602D01*
X006420Y005602D01*
X008717Y005602D02*
X009520Y005602D01*
X010043Y006125D01*
X010043Y007050D01*
X010543Y007550D01*
X011293Y007550D01*
X011793Y008050D01*
X011793Y007050D02*
X011293Y006550D01*
X010543Y006550D01*
X010293Y006300D01*
X010293Y005750D01*
X009633Y005090D01*
X008717Y005090D01*
X008717Y004834D02*
X009827Y004834D01*
X010543Y005550D01*
X011293Y005550D01*
X011793Y006050D01*
X011793Y005050D02*
X011321Y004578D01*
X008717Y004578D01*
X008717Y004322D02*
X009771Y004322D01*
X010543Y003550D01*
X011293Y003550D01*
X011793Y004050D01*
X011793Y003050D02*
X011293Y002550D01*
X010518Y002550D01*
X009002Y004066D01*
X008717Y004066D01*
X008717Y003810D02*
X009025Y003810D01*
X009793Y003041D01*
X009793Y002300D01*
X010543Y001550D01*
X011293Y001550D01*
X011793Y002050D01*
X011793Y001050D02*
X011293Y000550D01*
X010543Y000550D01*
X009143Y001950D01*
X009143Y003375D01*
X008968Y003550D01*
X008721Y003550D01*
X008717Y003554D01*
D17*
X008718Y003225D02*
X008718Y003100D01*
X008718Y003075D02*
X008718Y002900D01*
X008443Y005350D02*
X008393Y005350D01*
X008293Y005450D01*
X008293Y006115D01*
X008378Y006200D01*
X008353Y006175D01*
X007968Y006175D01*
X008343Y006175D02*
X008343Y006650D01*
X009043Y006650D02*
X009043Y006200D01*
X009058Y006200D02*
X009468Y006200D01*
X007168Y006200D02*
X006768Y006200D01*
X006768Y006650D01*
X006768Y006200D02*
X006758Y006200D01*
X006843Y006115D01*
X006843Y005450D01*
X006743Y005350D01*
X006693Y005350D01*
X006078Y006200D02*
X006068Y006200D01*
X006068Y006650D01*
X006068Y006200D02*
X005668Y006200D01*
X004693Y009050D02*
X004203Y009050D01*
X004193Y009050D02*
X004193Y009650D01*
X003393Y009650D02*
X003393Y009060D01*
X003383Y009050D01*
X002893Y009050D01*
D18*
X002893Y009050D03*
X003393Y009650D03*
X004193Y009650D03*
X004693Y009050D03*
X005243Y008850D03*
X005393Y009650D03*
X006068Y006650D03*
X005668Y006200D03*
X006768Y006650D03*
X007168Y006200D03*
X007968Y006175D03*
X008343Y006650D03*
X009043Y006650D03*
X009468Y006200D03*
X006418Y001650D03*
D19*
X008718Y002900D03*
D20*
X006557Y008850D02*
X006483Y008923D01*
X006483Y009650D01*
X005803Y009650D02*
X005393Y009650D01*
X005243Y008850D02*
X005730Y008850D01*
D21*
X005803Y009650D02*
X005593Y009650D01*
X006424Y005350D02*
X006420Y005346D01*
X006424Y005350D02*
X006693Y005350D01*
X008443Y005350D02*
X008448Y005346D01*
X008717Y005346D01*
D22*
X006418Y002060D02*
X006418Y001650D01*
M02*
