G75*
G70*
%OFA0B0*%
%FSLAX24Y24*%
%IPPOS*%
%LPD*%
%AMOC8*
5,1,8,0,0,1.08239X$1,22.5*
%
%ADD10C,0.0040*%
%ADD11C,0.0060*%
%ADD12C,0.0120*%
%ADD13C,0.0100*%
%ADD14R,0.0003X0.0090*%
%ADD15R,0.0003X0.0205*%
%ADD16R,0.0003X0.0270*%
%ADD17R,0.0003X0.0335*%
%ADD18R,0.0003X0.0375*%
%ADD19R,0.0003X0.0413*%
%ADD20R,0.0003X0.0450*%
%ADD21R,0.0003X0.0490*%
%ADD22R,0.0003X0.0520*%
%ADD23R,0.0003X0.0545*%
%ADD24R,0.0003X0.0575*%
%ADD25R,0.0003X0.0605*%
%ADD26R,0.0003X0.0630*%
%ADD27R,0.0003X0.0655*%
%ADD28R,0.0003X0.0275*%
%ADD29R,0.0003X0.0403*%
%ADD30R,0.0003X0.0243*%
%ADD31R,0.0003X0.0430*%
%ADD32R,0.0003X0.0220*%
%ADD33R,0.0003X0.0460*%
%ADD34R,0.0003X0.0208*%
%ADD35R,0.0003X0.0198*%
%ADD36R,0.0003X0.0515*%
%ADD37R,0.0003X0.0185*%
%ADD38R,0.0003X0.0540*%
%ADD39R,0.0003X0.0175*%
%ADD40R,0.0003X0.0563*%
%ADD41R,0.0003X0.0170*%
%ADD42R,0.0003X0.0583*%
%ADD43R,0.0003X0.0163*%
%ADD44R,0.0003X0.0602*%
%ADD45R,0.0003X0.0160*%
%ADD46R,0.0003X0.0622*%
%ADD47R,0.0003X0.0152*%
%ADD48R,0.0003X0.0640*%
%ADD49R,0.0003X0.0147*%
%ADD50R,0.0003X0.0658*%
%ADD51R,0.0003X0.0143*%
%ADD52R,0.0003X0.0678*%
%ADD53R,0.0003X0.0693*%
%ADD54R,0.0003X0.0138*%
%ADD55R,0.0003X0.0712*%
%ADD56R,0.0003X0.0727*%
%ADD57R,0.0003X0.0132*%
%ADD58R,0.0003X0.0742*%
%ADD59R,0.0003X0.0130*%
%ADD60R,0.0003X0.0757*%
%ADD61R,0.0003X0.0125*%
%ADD62R,0.0003X0.0772*%
%ADD63R,0.0003X0.0123*%
%ADD64R,0.0003X0.0785*%
%ADD65R,0.0003X0.0120*%
%ADD66R,0.0003X0.0800*%
%ADD67R,0.0003X0.0118*%
%ADD68R,0.0003X0.0810*%
%ADD69R,0.0003X0.0825*%
%ADD70R,0.0003X0.0115*%
%ADD71R,0.0003X0.0838*%
%ADD72R,0.0003X0.0112*%
%ADD73R,0.0003X0.0853*%
%ADD74R,0.0003X0.0865*%
%ADD75R,0.0003X0.0110*%
%ADD76R,0.0003X0.0877*%
%ADD77R,0.0003X0.0107*%
%ADD78R,0.0003X0.0890*%
%ADD79R,0.0003X0.0902*%
%ADD80R,0.0003X0.0105*%
%ADD81R,0.0003X0.0912*%
%ADD82R,0.0003X0.0925*%
%ADD83R,0.0003X0.0103*%
%ADD84R,0.0003X0.0935*%
%ADD85R,0.0003X0.0948*%
%ADD86R,0.0003X0.0100*%
%ADD87R,0.0003X0.0958*%
%ADD88R,0.0003X0.0970*%
%ADD89R,0.0003X0.0097*%
%ADD90R,0.0003X0.0980*%
%ADD91R,0.0003X0.0993*%
%ADD92R,0.0003X0.0095*%
%ADD93R,0.0003X0.1003*%
%ADD94R,0.0003X0.0092*%
%ADD95R,0.0003X0.1013*%
%ADD96R,0.0003X0.1025*%
%ADD97R,0.0003X0.1032*%
%ADD98R,0.0003X0.1042*%
%ADD99R,0.0003X0.1052*%
%ADD100R,0.0003X0.0088*%
%ADD101R,0.0003X0.1065*%
%ADD102R,0.0003X0.1072*%
%ADD103R,0.0003X0.1082*%
%ADD104R,0.0003X0.1092*%
%ADD105R,0.0003X0.0085*%
%ADD106R,0.0003X0.1100*%
%ADD107R,0.0003X0.1113*%
%ADD108R,0.0003X0.1120*%
%ADD109R,0.0003X0.1130*%
%ADD110R,0.0003X0.1138*%
%ADD111R,0.0003X0.0083*%
%ADD112R,0.0003X0.1148*%
%ADD113R,0.0003X0.0080*%
%ADD114R,0.0003X0.1155*%
%ADD115R,0.0003X0.1163*%
%ADD116R,0.0003X0.1170*%
%ADD117R,0.0003X0.1180*%
%ADD118R,0.0003X0.0077*%
%ADD119R,0.0003X0.1187*%
%ADD120R,0.0003X0.1197*%
%ADD121R,0.0003X0.1205*%
%ADD122R,0.0003X0.1212*%
%ADD123R,0.0003X0.1222*%
%ADD124R,0.0003X0.1230*%
%ADD125R,0.0003X0.1237*%
%ADD126R,0.0003X0.1247*%
%ADD127R,0.0003X0.0075*%
%ADD128R,0.0003X0.1253*%
%ADD129R,0.0003X0.1260*%
%ADD130R,0.0003X0.1268*%
%ADD131R,0.0003X0.1278*%
%ADD132R,0.0003X0.0073*%
%ADD133R,0.0003X0.1283*%
%ADD134R,0.0003X0.1290*%
%ADD135R,0.0003X0.1300*%
%ADD136R,0.0003X0.1308*%
%ADD137R,0.0003X0.0070*%
%ADD138R,0.0003X0.1313*%
%ADD139R,0.0003X0.1320*%
%ADD140R,0.0003X0.1328*%
%ADD141R,0.0003X0.1335*%
%ADD142R,0.0003X0.1343*%
%ADD143R,0.0003X0.1350*%
%ADD144R,0.0003X0.1358*%
%ADD145R,0.0003X0.1363*%
%ADD146R,0.0003X0.1370*%
%ADD147R,0.0003X0.0067*%
%ADD148R,0.0003X0.1375*%
%ADD149R,0.0003X0.1383*%
%ADD150R,0.0003X0.1390*%
%ADD151R,0.0003X0.1395*%
%ADD152R,0.0003X0.1403*%
%ADD153R,0.0003X0.0065*%
%ADD154R,0.0003X0.1407*%
%ADD155R,0.0003X0.1415*%
%ADD156R,0.0003X0.1422*%
%ADD157R,0.0003X0.1430*%
%ADD158R,0.0003X0.1437*%
%ADD159R,0.0003X0.1442*%
%ADD160R,0.0003X0.1450*%
%ADD161R,0.0003X0.1452*%
%ADD162R,0.0003X0.1460*%
%ADD163R,0.0003X0.1465*%
%ADD164R,0.0003X0.0063*%
%ADD165R,0.0003X0.1472*%
%ADD166R,0.0003X0.1477*%
%ADD167R,0.0003X0.1482*%
%ADD168R,0.0003X0.1490*%
%ADD169R,0.0003X0.1495*%
%ADD170R,0.0003X0.1502*%
%ADD171R,0.0003X0.1507*%
%ADD172R,0.0003X0.0060*%
%ADD173R,0.0003X0.1512*%
%ADD174R,0.0003X0.1520*%
%ADD175R,0.0003X0.1525*%
%ADD176R,0.0003X0.1530*%
%ADD177R,0.0003X0.1535*%
%ADD178R,0.0003X0.1540*%
%ADD179R,0.0003X0.1547*%
%ADD180R,0.0003X0.1552*%
%ADD181R,0.0003X0.1560*%
%ADD182R,0.0003X0.1565*%
%ADD183R,0.0003X0.1570*%
%ADD184R,0.0003X0.1575*%
%ADD185R,0.0003X0.1580*%
%ADD186R,0.0003X0.0057*%
%ADD187R,0.0003X0.1585*%
%ADD188R,0.0003X0.1590*%
%ADD189R,0.0003X0.1595*%
%ADD190R,0.0003X0.1600*%
%ADD191R,0.0003X0.1605*%
%ADD192R,0.0003X0.0055*%
%ADD193R,0.0003X0.1613*%
%ADD194R,0.0003X0.1618*%
%ADD195R,0.0003X0.1620*%
%ADD196R,0.0003X0.1625*%
%ADD197R,0.0003X0.1633*%
%ADD198R,0.0003X0.1638*%
%ADD199R,0.0003X0.1640*%
%ADD200R,0.0003X0.1645*%
%ADD201R,0.0003X0.1653*%
%ADD202R,0.0003X0.1655*%
%ADD203R,0.0003X0.1660*%
%ADD204R,0.0003X0.1665*%
%ADD205R,0.0003X0.1673*%
%ADD206R,0.0003X0.1675*%
%ADD207R,0.0003X0.1680*%
%ADD208R,0.0003X0.1685*%
%ADD209R,0.0003X0.1688*%
%ADD210R,0.0003X0.0053*%
%ADD211R,0.0003X0.1693*%
%ADD212R,0.0003X0.1700*%
%ADD213R,0.0003X0.1703*%
%ADD214R,0.0003X0.1708*%
%ADD215R,0.0003X0.1713*%
%ADD216R,0.0003X0.1715*%
%ADD217R,0.0003X0.1720*%
%ADD218R,0.0003X0.1725*%
%ADD219R,0.0003X0.1730*%
%ADD220R,0.0003X0.1735*%
%ADD221R,0.0003X0.1737*%
%ADD222R,0.0003X0.1742*%
%ADD223R,0.0003X0.1747*%
%ADD224R,0.0003X0.1750*%
%ADD225R,0.0003X0.1755*%
%ADD226R,0.0003X0.1757*%
%ADD227R,0.0003X0.0050*%
%ADD228R,0.0003X0.1765*%
%ADD229R,0.0003X0.1770*%
%ADD230R,0.0003X0.1772*%
%ADD231R,0.0003X0.1777*%
%ADD232R,0.0003X0.1780*%
%ADD233R,0.0003X0.1785*%
%ADD234R,0.0003X0.1787*%
%ADD235R,0.0003X0.1792*%
%ADD236R,0.0003X0.1797*%
%ADD237R,0.0003X0.1800*%
%ADD238R,0.0003X0.1805*%
%ADD239R,0.0003X0.1807*%
%ADD240R,0.0003X0.1812*%
%ADD241R,0.0003X0.1815*%
%ADD242R,0.0003X0.1820*%
%ADD243R,0.0003X0.1822*%
%ADD244R,0.0003X0.1827*%
%ADD245R,0.0003X0.1830*%
%ADD246R,0.0003X0.1835*%
%ADD247R,0.0003X0.1837*%
%ADD248R,0.0003X0.1842*%
%ADD249R,0.0003X0.1845*%
%ADD250R,0.0003X0.1850*%
%ADD251R,0.0003X0.0047*%
%ADD252R,0.0003X0.1852*%
%ADD253R,0.0003X0.1857*%
%ADD254R,0.0003X0.1860*%
%ADD255R,0.0003X0.1865*%
%ADD256R,0.0003X0.1867*%
%ADD257R,0.0003X0.1872*%
%ADD258R,0.0003X0.1875*%
%ADD259R,0.0003X0.1878*%
%ADD260R,0.0003X0.1883*%
%ADD261R,0.0003X0.1885*%
%ADD262R,0.0003X0.1890*%
%ADD263R,0.0003X0.1893*%
%ADD264R,0.0003X0.1898*%
%ADD265R,0.0003X0.1900*%
%ADD266R,0.0003X0.1905*%
%ADD267R,0.0003X0.1908*%
%ADD268R,0.0003X0.1913*%
%ADD269R,0.0003X0.1915*%
%ADD270R,0.0003X0.1920*%
%ADD271R,0.0003X0.1923*%
%ADD272R,0.0003X0.1925*%
%ADD273R,0.0003X0.1930*%
%ADD274R,0.0003X0.1933*%
%ADD275R,0.0003X0.0045*%
%ADD276R,0.0003X0.1938*%
%ADD277R,0.0003X0.1940*%
%ADD278R,0.0003X0.1945*%
%ADD279R,0.0003X0.1948*%
%ADD280R,0.0003X0.1950*%
%ADD281R,0.0003X0.1955*%
%ADD282R,0.0003X0.1958*%
%ADD283R,0.0003X0.1960*%
%ADD284R,0.0003X0.1963*%
%ADD285R,0.0003X0.1965*%
%ADD286R,0.0003X0.1968*%
%ADD287R,0.0003X0.1973*%
%ADD288R,0.0003X0.1975*%
%ADD289R,0.0003X0.1978*%
%ADD290R,0.0003X0.1983*%
%ADD291R,0.0003X0.1985*%
%ADD292R,0.0003X0.1990*%
%ADD293R,0.0003X0.1993*%
%ADD294R,0.0003X0.1995*%
%ADD295R,0.0003X0.1998*%
%ADD296R,0.0003X0.2000*%
%ADD297R,0.0003X0.2003*%
%ADD298R,0.0003X0.2008*%
%ADD299R,0.0003X0.2010*%
%ADD300R,0.0003X0.0043*%
%ADD301R,0.0003X0.2013*%
%ADD302R,0.0003X0.0750*%
%ADD303R,0.0003X0.0725*%
%ADD304R,0.0003X0.1217*%
%ADD305R,0.0003X0.0703*%
%ADD306R,0.0003X0.1207*%
%ADD307R,0.0003X0.0695*%
%ADD308R,0.0003X0.1202*%
%ADD309R,0.0003X0.0688*%
%ADD310R,0.0003X0.0683*%
%ADD311R,0.0003X0.1195*%
%ADD312R,0.0003X0.0673*%
%ADD313R,0.0003X0.1185*%
%ADD314R,0.0003X0.0668*%
%ADD315R,0.0003X0.1182*%
%ADD316R,0.0003X0.0663*%
%ADD317R,0.0003X0.0660*%
%ADD318R,0.0003X0.1177*%
%ADD319R,0.0003X0.1175*%
%ADD320R,0.0003X0.0653*%
%ADD321R,0.0003X0.1172*%
%ADD322R,0.0003X0.0650*%
%ADD323R,0.0003X0.0645*%
%ADD324R,0.0003X0.1168*%
%ADD325R,0.0003X0.0643*%
%ADD326R,0.0003X0.1165*%
%ADD327R,0.0003X0.0638*%
%ADD328R,0.0003X0.0635*%
%ADD329R,0.0003X0.0633*%
%ADD330R,0.0003X0.1160*%
%ADD331R,0.0003X0.0625*%
%ADD332R,0.0003X0.1158*%
%ADD333R,0.0003X0.0620*%
%ADD334R,0.0003X0.0617*%
%ADD335R,0.0003X0.0615*%
%ADD336R,0.0003X0.0612*%
%ADD337R,0.0003X0.0610*%
%ADD338R,0.0003X0.0607*%
%ADD339R,0.0003X0.0600*%
%ADD340R,0.0003X0.0597*%
%ADD341R,0.0003X0.0040*%
%ADD342R,0.0003X0.0595*%
%ADD343R,0.0003X0.0592*%
%ADD344R,0.0003X0.0590*%
%ADD345R,0.0003X0.0587*%
%ADD346R,0.0003X0.0585*%
%ADD347R,0.0003X0.0580*%
%ADD348R,0.0003X0.0578*%
%ADD349R,0.0003X0.1190*%
%ADD350R,0.0003X0.1192*%
%ADD351R,0.0003X0.1200*%
%ADD352R,0.0003X0.1215*%
%ADD353R,0.0003X0.0037*%
%ADD354R,0.0003X0.1220*%
%ADD355R,0.0003X0.1225*%
%ADD356R,0.0003X0.1227*%
%ADD357R,0.0003X0.1232*%
%ADD358R,0.0003X0.1235*%
%ADD359R,0.0003X0.1240*%
%ADD360R,0.0003X0.1242*%
%ADD361R,0.0003X0.1245*%
%ADD362R,0.0003X0.1250*%
%ADD363R,0.0003X0.1255*%
%ADD364R,0.0003X0.1265*%
%ADD365R,0.0003X0.1270*%
%ADD366R,0.0003X0.1273*%
%ADD367R,0.0003X0.1288*%
%ADD368R,0.0003X0.1295*%
%ADD369R,0.0003X0.1298*%
%ADD370R,0.0003X0.1303*%
%ADD371R,0.0003X0.1310*%
%ADD372R,0.0003X0.1315*%
%ADD373R,0.0003X0.1318*%
%ADD374R,0.0003X0.1323*%
%ADD375R,0.0003X0.1325*%
%ADD376R,0.0003X0.0628*%
%ADD377R,0.0003X0.1333*%
%ADD378R,0.0003X0.1340*%
%ADD379R,0.0003X0.1353*%
%ADD380R,0.0003X0.1355*%
%ADD381R,0.0003X0.0648*%
%ADD382R,0.0003X0.1365*%
%ADD383R,0.0003X0.1380*%
%ADD384R,0.0003X0.1385*%
%ADD385R,0.0003X0.0665*%
%ADD386R,0.0003X0.0670*%
%ADD387R,0.0003X0.1398*%
%ADD388R,0.0003X0.0680*%
%ADD389R,0.0003X0.1410*%
%ADD390R,0.0003X0.0685*%
%ADD391R,0.0003X0.1417*%
%ADD392R,0.0003X0.1425*%
%ADD393R,0.0003X0.0700*%
%ADD394R,0.0003X0.1435*%
%ADD395R,0.0003X0.0707*%
%ADD396R,0.0003X0.1445*%
%ADD397R,0.0003X0.0717*%
%ADD398R,0.0003X0.1455*%
%ADD399R,0.0003X0.0735*%
%ADD400R,0.0003X0.1475*%
%ADD401R,0.0003X0.2253*%
%ADD402R,0.0003X0.2255*%
%ADD403R,0.0003X0.2258*%
%ADD404R,0.0003X0.0035*%
%ADD405R,0.0003X0.2250*%
%ADD406R,0.0003X0.2248*%
%ADD407R,0.0003X0.2245*%
%ADD408R,0.0003X0.2243*%
%ADD409R,0.0003X0.2240*%
%ADD410R,0.0003X0.2238*%
%ADD411R,0.0003X0.2235*%
%ADD412R,0.0003X0.2233*%
%ADD413R,0.0003X0.2230*%
%ADD414R,0.0003X0.2228*%
%ADD415R,0.0003X0.2225*%
%ADD416R,0.0003X0.2223*%
%ADD417R,0.0003X0.2220*%
%ADD418R,0.0003X0.2218*%
%ADD419R,0.0003X0.2215*%
%ADD420R,0.0003X0.2213*%
%ADD421R,0.0003X0.2210*%
%ADD422R,0.0003X0.2208*%
%ADD423R,0.0003X0.2205*%
%ADD424R,0.0003X0.2203*%
%ADD425R,0.0003X0.2200*%
%ADD426R,0.0003X0.2198*%
%ADD427R,0.0003X0.2195*%
%ADD428R,0.0003X0.2193*%
%ADD429R,0.0003X0.2190*%
%ADD430R,0.0003X0.2188*%
%ADD431R,0.0003X0.2185*%
%ADD432R,0.0003X0.2182*%
%ADD433R,0.0003X0.2180*%
%ADD434R,0.0003X0.2177*%
%ADD435R,0.0003X0.2175*%
%ADD436R,0.0003X0.2172*%
%ADD437R,0.0003X0.2170*%
%ADD438R,0.0003X0.2167*%
%ADD439R,0.0003X0.2165*%
%ADD440R,0.0003X0.2162*%
%ADD441R,0.0003X0.2160*%
%ADD442R,0.0003X0.2157*%
%ADD443R,0.0003X0.2155*%
%ADD444R,0.0003X0.2152*%
%ADD445R,0.0003X0.2150*%
%ADD446R,0.0003X0.2147*%
%ADD447R,0.0003X0.2145*%
%ADD448R,0.0003X0.2142*%
%ADD449R,0.0003X0.2140*%
%ADD450R,0.0003X0.2137*%
%ADD451R,0.0003X0.2135*%
%ADD452R,0.0003X0.2132*%
%ADD453R,0.0003X0.2130*%
%ADD454R,0.0003X0.2127*%
%ADD455R,0.0003X0.2125*%
%ADD456R,0.0003X0.2122*%
%ADD457R,0.0003X0.2120*%
%ADD458R,0.0003X0.2117*%
%ADD459R,0.0003X0.2115*%
%ADD460R,0.0003X0.2112*%
%ADD461R,0.0003X0.2110*%
%ADD462R,0.0003X0.2107*%
%ADD463R,0.0003X0.2105*%
%ADD464R,0.0003X0.2100*%
%ADD465R,0.0003X0.2097*%
%ADD466R,0.0003X0.2095*%
%ADD467R,0.0003X0.2092*%
%ADD468R,0.0003X0.2090*%
%ADD469R,0.0003X0.2085*%
%ADD470R,0.0003X0.2082*%
%ADD471R,0.0003X0.2080*%
%ADD472R,0.0003X0.2075*%
%ADD473R,0.0003X0.2072*%
%ADD474R,0.0003X0.2070*%
%ADD475R,0.0003X0.2065*%
%ADD476R,0.0003X0.2062*%
%ADD477R,0.0003X0.2060*%
%ADD478R,0.0003X0.2055*%
%ADD479R,0.0003X0.2052*%
%ADD480R,0.0003X0.2047*%
%ADD481R,0.0003X0.2045*%
%ADD482R,0.0003X0.2040*%
%ADD483R,0.0003X0.2037*%
%ADD484R,0.0003X0.0032*%
%ADD485R,0.0003X0.2035*%
%ADD486R,0.0003X0.2032*%
%ADD487R,0.0003X0.2028*%
%ADD488R,0.0003X0.2025*%
%ADD489R,0.0003X0.2020*%
%ADD490R,0.0003X0.2018*%
%ADD491R,0.0003X0.2005*%
%ADD492R,0.0003X0.1988*%
%ADD493R,0.0003X0.1953*%
%ADD494R,0.0003X0.1943*%
%ADD495R,0.0003X0.1910*%
%ADD496R,0.0003X0.1903*%
%ADD497R,0.0003X0.1810*%
%ADD498R,0.0003X0.1802*%
%ADD499R,0.0003X0.1790*%
%ADD500R,0.0003X0.1545*%
%ADD501R,0.0003X0.1517*%
%ADD502R,0.0003X0.1497*%
%ADD503R,0.0003X0.1480*%
%ADD504R,0.0003X0.1467*%
%ADD505R,0.0003X0.1440*%
%ADD506R,0.0003X0.1400*%
%ADD507R,0.0003X0.1348*%
%ADD508R,0.0003X0.1285*%
%ADD509R,0.0003X0.1280*%
%ADD510R,0.0003X0.1263*%
%ADD511R,0.0003X0.1258*%
%ADD512R,0.0003X0.1150*%
%ADD513R,0.0003X0.1143*%
%ADD514R,0.0003X0.1140*%
%ADD515R,0.0003X0.1135*%
%ADD516R,0.0003X0.1133*%
%ADD517R,0.0003X0.1125*%
%ADD518R,0.0003X0.1123*%
%ADD519R,0.0003X0.1110*%
%ADD520R,0.0003X0.1108*%
%ADD521R,0.0003X0.1105*%
%ADD522R,0.0003X0.1098*%
%ADD523R,0.0003X0.1095*%
%ADD524R,0.0003X0.1087*%
%ADD525R,0.0003X0.1080*%
%ADD526R,0.0003X0.1077*%
%ADD527R,0.0003X0.1075*%
%ADD528R,0.0003X0.1070*%
%ADD529R,0.0003X0.1060*%
%ADD530R,0.0003X0.1057*%
%ADD531R,0.0003X0.1055*%
%ADD532R,0.0003X0.1050*%
%ADD533R,0.0003X0.1047*%
%ADD534R,0.0003X0.1045*%
%ADD535R,0.0003X0.1037*%
%ADD536R,0.0003X0.1035*%
%ADD537R,0.0003X0.1030*%
%ADD538R,0.0003X0.1027*%
%ADD539R,0.0003X0.1022*%
%ADD540R,0.0003X0.1020*%
%ADD541R,0.0003X0.1015*%
%ADD542R,0.0003X0.1010*%
%ADD543R,0.0003X0.1008*%
%ADD544R,0.0003X0.1005*%
%ADD545R,0.0003X0.1000*%
%ADD546R,0.0003X0.0998*%
%ADD547R,0.0003X0.0995*%
%ADD548R,0.0003X0.0990*%
%ADD549R,0.0003X0.0985*%
%ADD550R,0.0003X0.0983*%
%ADD551R,0.0003X0.0978*%
%ADD552R,0.0003X0.0975*%
%ADD553R,0.0003X0.0968*%
%ADD554R,0.0003X0.0965*%
%ADD555R,0.0003X0.0963*%
%ADD556R,0.0003X0.0955*%
%ADD557R,0.0003X0.0953*%
%ADD558R,0.0003X0.0950*%
%ADD559R,0.0003X0.0943*%
%ADD560R,0.0003X0.0940*%
%ADD561R,0.0003X0.0938*%
%ADD562R,0.0003X0.0932*%
%ADD563R,0.0003X0.0930*%
%ADD564R,0.0003X0.0927*%
%ADD565R,0.0003X0.0922*%
%ADD566R,0.0003X0.0920*%
%ADD567R,0.0003X0.0917*%
%ADD568R,0.0003X0.0915*%
%ADD569R,0.0003X0.0910*%
%ADD570R,0.0003X0.0907*%
%ADD571R,0.0003X0.0900*%
%ADD572R,0.0003X0.0897*%
%ADD573R,0.0003X0.0892*%
%ADD574R,0.0003X0.0887*%
%ADD575R,0.0003X0.0882*%
%ADD576R,0.0003X0.0880*%
%ADD577R,0.0003X0.0875*%
%ADD578R,0.0003X0.0872*%
%ADD579R,0.0003X0.0870*%
%ADD580R,0.0003X0.0867*%
%ADD581R,0.0003X0.0862*%
%ADD582R,0.0003X0.0860*%
%ADD583R,0.0003X0.0858*%
%ADD584R,0.0003X0.0855*%
%ADD585R,0.0003X0.0850*%
%ADD586R,0.0003X0.0848*%
%ADD587R,0.0003X0.0845*%
%ADD588R,0.0003X0.0843*%
%ADD589R,0.0003X0.0835*%
%ADD590R,0.0003X0.0830*%
%ADD591R,0.0003X0.0828*%
%ADD592R,0.0003X0.0823*%
%ADD593R,0.0003X0.0818*%
%ADD594R,0.0003X0.0815*%
%ADD595R,0.0003X0.0813*%
%ADD596R,0.0003X0.0805*%
%ADD597R,0.0003X0.0803*%
%ADD598R,0.0003X0.0798*%
%ADD599R,0.0003X0.0795*%
%ADD600R,0.0003X0.0793*%
%ADD601R,0.0003X0.0790*%
%ADD602R,0.0003X0.0788*%
%ADD603R,0.0003X0.0783*%
%ADD604R,0.0003X0.0780*%
%ADD605R,0.0003X0.0777*%
%ADD606R,0.0003X0.0775*%
%ADD607R,0.0003X0.0770*%
%ADD608R,0.0003X0.0767*%
%ADD609R,0.0003X0.0765*%
%ADD610R,0.0003X0.0762*%
%ADD611R,0.0003X0.0760*%
%ADD612R,0.0003X0.0755*%
%ADD613R,0.0003X0.0752*%
%ADD614R,0.0003X0.0745*%
%ADD615R,0.0003X0.0740*%
%ADD616R,0.0003X0.0737*%
%ADD617R,0.0003X0.0135*%
%ADD618R,0.0003X0.0732*%
%ADD619R,0.0003X0.0730*%
%ADD620R,0.0003X0.0180*%
%ADD621R,0.0003X0.0192*%
%ADD622R,0.0003X0.0200*%
%ADD623R,0.0003X0.0210*%
%ADD624R,0.0003X0.0720*%
%ADD625R,0.0003X0.0225*%
%ADD626R,0.0003X0.0235*%
%ADD627R,0.0003X0.0240*%
%ADD628R,0.0003X0.0715*%
%ADD629R,0.0003X0.0250*%
%ADD630R,0.0003X0.0255*%
%ADD631R,0.0003X0.0260*%
%ADD632R,0.0003X0.0267*%
%ADD633R,0.0003X0.0710*%
%ADD634R,0.0003X0.0280*%
%ADD635R,0.0003X0.0705*%
%ADD636R,0.0003X0.0285*%
%ADD637R,0.0003X0.0290*%
%ADD638R,0.0003X0.0295*%
%ADD639R,0.0003X0.0300*%
%ADD640R,0.0003X0.0305*%
%ADD641R,0.0003X0.0698*%
%ADD642R,0.0003X0.0310*%
%ADD643R,0.0003X0.0315*%
%ADD644R,0.0003X0.0318*%
%ADD645R,0.0003X0.0320*%
%ADD646R,0.0003X0.0325*%
%ADD647R,0.0003X0.0690*%
%ADD648R,0.0003X0.0330*%
%ADD649R,0.0003X0.0340*%
%ADD650R,0.0003X0.0345*%
%ADD651R,0.0003X0.0348*%
%ADD652R,0.0003X0.0350*%
%ADD653R,0.0003X0.0355*%
%ADD654R,0.0003X0.0360*%
%ADD655R,0.0003X0.0675*%
%ADD656R,0.0003X0.0365*%
%ADD657R,0.0003X0.0370*%
%ADD658R,0.0003X0.0380*%
%ADD659R,0.0003X0.0385*%
%ADD660R,0.0003X0.0390*%
%ADD661R,0.0003X0.0395*%
%ADD662R,0.0003X0.0398*%
%ADD663R,0.0003X0.0400*%
%ADD664R,0.0003X0.0405*%
%ADD665R,0.0003X0.0410*%
%ADD666R,0.0003X0.0415*%
%ADD667R,0.0003X0.0408*%
%ADD668R,0.0003X0.0573*%
%ADD669R,0.0003X0.0570*%
%ADD670R,0.0003X0.0568*%
%ADD671R,0.0003X0.0565*%
%ADD672R,0.0003X0.0372*%
%ADD673R,0.0003X0.0367*%
%ADD674R,0.0003X0.0560*%
%ADD675R,0.0003X0.0558*%
%ADD676R,0.0003X0.0555*%
%ADD677R,0.0003X0.0352*%
%ADD678R,0.0003X0.0553*%
%ADD679R,0.0003X0.0550*%
%ADD680R,0.0003X0.0548*%
%ADD681R,0.0003X0.0542*%
%ADD682R,0.0003X0.0537*%
%ADD683R,0.0003X0.0302*%
%ADD684R,0.0003X0.0535*%
%ADD685R,0.0003X0.0288*%
%ADD686R,0.0003X0.0532*%
%ADD687R,0.0003X0.0530*%
%ADD688R,0.0003X0.0527*%
%ADD689R,0.0003X0.0265*%
%ADD690R,0.0003X0.0253*%
%ADD691R,0.0003X0.0525*%
%ADD692R,0.0003X0.0245*%
%ADD693R,0.0003X0.0522*%
%ADD694R,0.0003X0.0230*%
%ADD695R,0.0003X0.0215*%
%ADD696R,0.0003X0.0517*%
%ADD697R,0.0003X0.0190*%
%ADD698R,0.0003X0.0512*%
%ADD699R,0.0003X0.0155*%
%ADD700R,0.0003X0.0510*%
%ADD701R,0.0003X0.0508*%
%ADD702R,0.0003X0.0505*%
%ADD703R,0.0003X0.0010*%
%ADD704R,0.0003X0.0503*%
%ADD705R,0.0003X0.0500*%
%ADD706R,0.0003X0.0498*%
%ADD707R,0.0003X0.0495*%
%ADD708R,0.0003X0.0493*%
%ADD709R,0.0003X0.0488*%
%ADD710R,0.0003X0.0485*%
%ADD711R,0.0003X0.0483*%
%ADD712R,0.0003X0.0480*%
%ADD713R,0.0003X0.0478*%
%ADD714R,0.0003X0.0475*%
%ADD715R,0.0003X0.0473*%
%ADD716R,0.0003X0.0470*%
%ADD717R,0.0003X0.0467*%
%ADD718R,0.0003X0.0465*%
%ADD719R,0.0003X0.0462*%
%ADD720R,0.0003X0.0457*%
%ADD721R,0.0003X0.0455*%
%ADD722R,0.0003X0.0452*%
%ADD723R,0.0003X0.0447*%
%ADD724R,0.0003X0.0445*%
%ADD725R,0.0003X0.0442*%
%ADD726R,0.0003X0.0440*%
%ADD727R,0.0003X0.0437*%
%ADD728R,0.0003X0.0435*%
%ADD729R,0.0003X0.0432*%
%ADD730R,0.0003X0.0428*%
%ADD731R,0.0003X0.0425*%
%ADD732R,0.0003X0.0423*%
%ADD733R,0.0003X0.0420*%
%ADD734R,0.0003X0.0418*%
%ADD735R,0.0003X0.0393*%
%ADD736R,0.0003X0.0387*%
%ADD737R,0.0003X0.0382*%
%ADD738R,0.0003X0.0377*%
%ADD739R,0.0003X0.0362*%
%ADD740R,0.0003X0.0343*%
%ADD741R,0.0003X0.0338*%
%ADD742R,0.0003X0.0333*%
%ADD743R,0.0003X0.0328*%
%ADD744R,0.0003X0.0323*%
%ADD745R,0.0003X0.0312*%
%ADD746R,0.0003X0.0307*%
%ADD747R,0.0003X0.0297*%
%ADD748R,0.0003X0.0293*%
%ADD749R,0.0003X0.0283*%
%ADD750R,0.0003X0.0278*%
%ADD751R,0.0003X0.0272*%
%ADD752R,0.0003X0.0262*%
%ADD753R,0.0003X0.0257*%
%ADD754R,0.0003X0.0248*%
%ADD755R,0.0003X0.0238*%
%ADD756R,0.0003X0.0140*%
%ADD757R,0.0003X0.0145*%
%ADD758R,0.0003X0.0158*%
%ADD759R,0.0003X0.0195*%
%ADD760R,0.0003X0.0150*%
%ADD761R,0.0003X0.0165*%
%ADD762R,0.0003X0.0173*%
%ADD763R,0.0003X0.0203*%
%ADD764R,0.0003X0.0018*%
%ADD765R,0.0003X0.0020*%
%ADD766R,0.0003X0.0025*%
%ADD767R,0.0003X0.0015*%
%ADD768R,0.0003X0.0005*%
%ADD769R,0.0003X0.0027*%
%ADD770R,0.0003X0.0127*%
%ADD771R,0.0003X0.0168*%
%ADD772R,0.0003X0.0177*%
%ADD773R,0.0003X0.0182*%
%ADD774R,0.0003X0.0030*%
%ADD775R,0.0003X0.0187*%
%ADD776R,0.0003X0.0022*%
%ADD777R,0.0003X0.0222*%
%ADD778R,0.0003X0.0227*%
%ADD779R,0.0003X0.0213*%
D10*
X006328Y001920D02*
X006328Y002227D01*
X006482Y002380D01*
X006635Y002227D01*
X006635Y001920D01*
X006789Y001997D02*
X006789Y002304D01*
X006866Y002380D01*
X007019Y002380D01*
X007096Y002304D01*
X007096Y002150D02*
X006942Y002150D01*
X007096Y002150D02*
X007096Y001997D01*
X007019Y001920D01*
X006866Y001920D01*
X006789Y001997D01*
X006635Y002150D02*
X006328Y002150D01*
X007249Y001920D02*
X007249Y002380D01*
X007556Y001920D01*
X007556Y002380D01*
X007710Y002380D02*
X007710Y001920D01*
X007940Y001920D01*
X008017Y001997D01*
X008017Y002304D01*
X007940Y002380D01*
X007710Y002380D01*
X008170Y007059D02*
X008170Y007289D01*
X008246Y007366D01*
X008323Y007366D01*
X008400Y007289D01*
X008400Y007059D01*
X008400Y007289D02*
X008477Y007366D01*
X008553Y007366D01*
X008630Y007289D01*
X008630Y007059D01*
X008170Y007059D01*
X008170Y007519D02*
X008630Y007826D01*
X008170Y007826D01*
X008246Y007979D02*
X008553Y007979D01*
X008630Y008056D01*
X008630Y008210D01*
X008553Y008286D01*
X008400Y008440D02*
X008400Y008747D01*
X008400Y008900D02*
X008400Y009130D01*
X008477Y009207D01*
X008553Y009207D01*
X008630Y009130D01*
X008630Y008900D01*
X008170Y008900D01*
X008170Y009130D01*
X008246Y009207D01*
X008323Y009207D01*
X008400Y009130D01*
X008246Y009361D02*
X008553Y009361D01*
X008630Y009437D01*
X008630Y009591D01*
X008553Y009668D01*
X008246Y009668D01*
X008170Y009591D01*
X008170Y009437D01*
X008246Y009361D01*
X008170Y009821D02*
X008170Y010051D01*
X008246Y010128D01*
X008323Y010128D01*
X008400Y010051D01*
X008400Y009821D01*
X008630Y009821D02*
X008170Y009821D01*
X008400Y010051D02*
X008477Y010128D01*
X008553Y010128D01*
X008630Y010051D01*
X008630Y009821D01*
X008996Y009322D02*
X009303Y009015D01*
X009380Y009092D01*
X009380Y009245D01*
X009303Y009322D01*
X008996Y009322D01*
X008920Y009245D01*
X008920Y009092D01*
X008996Y009015D01*
X009303Y009015D01*
X009303Y008862D02*
X009380Y008862D01*
X009380Y008785D01*
X009303Y008785D01*
X009303Y008862D01*
X009380Y008632D02*
X009380Y008325D01*
X009073Y008632D01*
X008996Y008632D01*
X008920Y008555D01*
X008920Y008401D01*
X008996Y008325D01*
X009073Y008171D02*
X009380Y008018D01*
X009073Y007864D01*
X008630Y007519D02*
X008170Y007519D01*
X008246Y007979D02*
X008170Y008056D01*
X008170Y008210D01*
X008246Y008286D01*
X012323Y016920D02*
X012170Y017073D01*
X012323Y017227D01*
X012630Y017227D01*
X012553Y017380D02*
X012630Y017457D01*
X012630Y017611D01*
X012553Y017687D01*
X012400Y017687D01*
X012400Y017534D01*
X012246Y017380D02*
X012553Y017380D01*
X012400Y017227D02*
X012400Y016920D01*
X012323Y016920D02*
X012630Y016920D01*
X012246Y017380D02*
X012170Y017457D01*
X012170Y017611D01*
X012246Y017687D01*
X012170Y017841D02*
X012630Y018148D01*
X012170Y018148D01*
X012170Y018301D02*
X012170Y018531D01*
X012246Y018608D01*
X012553Y018608D01*
X012630Y018531D01*
X012630Y018301D01*
X012170Y018301D01*
X012170Y017841D02*
X012630Y017841D01*
X008031Y033170D02*
X007801Y033170D01*
X007801Y033630D01*
X008031Y033630D01*
X008108Y033554D01*
X008108Y033247D01*
X008031Y033170D01*
X007648Y033170D02*
X007648Y033630D01*
X007341Y033630D02*
X007341Y033170D01*
X007187Y033247D02*
X007187Y033400D01*
X007034Y033400D01*
X007187Y033247D02*
X007111Y033170D01*
X006957Y033170D01*
X006880Y033247D01*
X006880Y033554D01*
X006957Y033630D01*
X007111Y033630D01*
X007187Y033554D01*
X007341Y033630D02*
X007648Y033170D01*
X006727Y033170D02*
X006727Y033477D01*
X006573Y033630D01*
X006420Y033477D01*
X006420Y033170D01*
X006420Y033400D02*
X006727Y033400D01*
X002053Y018358D02*
X001746Y018358D01*
X001670Y018281D01*
X001670Y018051D01*
X002130Y018051D01*
X002130Y018281D01*
X002053Y018358D01*
X002130Y017898D02*
X001670Y017898D01*
X001670Y017591D02*
X002130Y017898D01*
X002130Y017591D02*
X001670Y017591D01*
X001746Y017437D02*
X001670Y017361D01*
X001670Y017207D01*
X001746Y017130D01*
X002053Y017130D01*
X002130Y017207D01*
X002130Y017361D01*
X002053Y017437D01*
X001900Y017437D01*
X001900Y017284D01*
X001900Y016977D02*
X001900Y016670D01*
X001823Y016670D02*
X001670Y016823D01*
X001823Y016977D01*
X002130Y016977D01*
X002130Y016670D02*
X001823Y016670D01*
D11*
X001895Y016071D02*
X001681Y016071D01*
X001575Y015964D01*
X001575Y015537D01*
X001681Y015430D01*
X001895Y015430D01*
X002002Y015537D01*
X002002Y015964D01*
X001895Y016071D01*
X002219Y015323D02*
X002646Y015323D01*
X002864Y015430D02*
X002864Y016071D01*
X003184Y016071D01*
X003291Y015964D01*
X003291Y015857D01*
X003184Y015750D01*
X002864Y015750D01*
X002864Y015430D02*
X003184Y015430D01*
X003291Y015537D01*
X003291Y015644D01*
X003184Y015750D01*
X001357Y015750D02*
X000930Y015750D01*
X000930Y015857D02*
X001144Y016071D01*
X001357Y015857D01*
X001357Y015430D01*
X000930Y015430D02*
X000930Y015857D01*
X002469Y024323D02*
X002896Y024323D01*
X003114Y024537D02*
X003220Y024430D01*
X003434Y024430D01*
X003541Y024537D01*
X003541Y024964D02*
X003434Y025071D01*
X003220Y025071D01*
X003114Y024964D01*
X003114Y024537D01*
X002252Y024537D02*
X002252Y024964D01*
X002145Y025071D01*
X001931Y025071D01*
X001825Y024964D01*
X001825Y024537D01*
X001931Y024430D01*
X002145Y024430D01*
X002252Y024537D01*
X001607Y024430D02*
X001607Y024857D01*
X001394Y025071D01*
X001180Y024857D01*
X001180Y024430D01*
X001180Y024750D02*
X001607Y024750D01*
X002680Y033680D02*
X002680Y034107D01*
X002894Y034321D01*
X003107Y034107D01*
X003107Y033680D01*
X003107Y034000D02*
X002680Y034000D01*
X003325Y033787D02*
X003431Y033680D01*
X003645Y033680D01*
X003752Y033787D01*
X003752Y034214D01*
X003645Y034321D01*
X003431Y034321D01*
X003325Y034214D01*
X003325Y033787D01*
X003969Y033573D02*
X004396Y033573D01*
X004614Y033680D02*
X004614Y034321D01*
X004934Y034321D01*
X005041Y034214D01*
X005041Y033787D01*
X004934Y033680D01*
X004614Y033680D01*
X005586Y032541D02*
X005479Y032434D01*
X005479Y032114D01*
X006120Y032114D01*
X006120Y032434D01*
X006013Y032541D01*
X005586Y032541D01*
X006227Y031896D02*
X006227Y031469D01*
X006013Y031252D02*
X005586Y031252D01*
X005479Y031145D01*
X005479Y030931D01*
X005586Y030825D01*
X006013Y030825D01*
X006120Y030931D01*
X006120Y031145D01*
X006013Y031252D01*
X006120Y030607D02*
X005693Y030607D01*
X005479Y030394D01*
X005693Y030180D01*
X006120Y030180D01*
X005800Y030180D02*
X005800Y030607D01*
X008479Y030394D02*
X008693Y030607D01*
X009120Y030607D01*
X009120Y030825D02*
X009120Y031038D01*
X009120Y030931D02*
X008479Y030931D01*
X008479Y030825D02*
X008479Y031038D01*
X008479Y030394D02*
X008693Y030180D01*
X009120Y030180D01*
X008800Y030180D02*
X008800Y030607D01*
X009227Y031254D02*
X009227Y031681D01*
X009120Y031899D02*
X009120Y032219D01*
X009013Y032326D01*
X008586Y032326D01*
X008479Y032219D01*
X008479Y031899D01*
X009120Y031899D01*
X009680Y033680D02*
X009680Y034107D01*
X009894Y034321D01*
X010107Y034107D01*
X010107Y033680D01*
X010107Y034000D02*
X009680Y034000D01*
X010325Y033680D02*
X010538Y033680D01*
X010431Y033680D02*
X010431Y034321D01*
X010325Y034321D02*
X010538Y034321D01*
X010754Y033573D02*
X011181Y033573D01*
X011399Y033680D02*
X011719Y033680D01*
X011826Y033787D01*
X011826Y034214D01*
X011719Y034321D01*
X011399Y034321D01*
X011399Y033680D01*
X011431Y025071D02*
X011431Y024430D01*
X011325Y024430D02*
X011538Y024430D01*
X011754Y024323D02*
X012181Y024323D01*
X012399Y024537D02*
X012506Y024430D01*
X012719Y024430D01*
X012826Y024537D01*
X012826Y024964D02*
X012719Y025071D01*
X012506Y025071D01*
X012399Y024964D01*
X012399Y024537D01*
X011538Y025071D02*
X011325Y025071D01*
X011107Y024857D02*
X011107Y024430D01*
X011107Y024750D02*
X010680Y024750D01*
X010680Y024857D02*
X010894Y025071D01*
X011107Y024857D01*
X010680Y024857D02*
X010680Y024430D01*
X009227Y022681D02*
X009227Y022254D01*
X009120Y022038D02*
X009120Y021825D01*
X009120Y021931D02*
X008479Y021931D01*
X008479Y021825D02*
X008479Y022038D01*
X008693Y021607D02*
X009120Y021607D01*
X009120Y021180D02*
X008693Y021180D01*
X008479Y021394D01*
X008693Y021607D01*
X008800Y021607D02*
X008800Y021180D01*
X008586Y022899D02*
X009013Y022899D01*
X009120Y023006D01*
X009120Y023219D01*
X009013Y023326D01*
X008586Y023326D02*
X008479Y023219D01*
X008479Y023006D01*
X008586Y022899D01*
X006227Y022896D02*
X006227Y022469D01*
X006013Y022252D02*
X006120Y022145D01*
X006120Y021931D01*
X006013Y021825D01*
X005586Y021825D01*
X005479Y021931D01*
X005479Y022145D01*
X005586Y022252D01*
X006013Y022252D01*
X006120Y021607D02*
X005693Y021607D01*
X005479Y021394D01*
X005693Y021180D01*
X006120Y021180D01*
X005800Y021180D02*
X005800Y021607D01*
X006013Y023114D02*
X005586Y023114D01*
X005479Y023220D01*
X005479Y023434D01*
X005586Y023541D01*
X006013Y023541D02*
X006120Y023434D01*
X006120Y023220D01*
X006013Y023114D01*
X005906Y014541D02*
X006013Y014541D01*
X006120Y014434D01*
X006120Y014114D01*
X005479Y014114D01*
X005479Y014434D01*
X005586Y014541D01*
X005693Y014541D01*
X005800Y014434D01*
X005800Y014114D01*
X005800Y014434D02*
X005906Y014541D01*
X006227Y013896D02*
X006227Y013469D01*
X006013Y013252D02*
X005586Y013252D01*
X005479Y013145D01*
X005479Y012931D01*
X005586Y012825D01*
X006013Y012825D01*
X006120Y012931D01*
X006120Y013145D01*
X006013Y013252D01*
X006120Y012607D02*
X005693Y012607D01*
X005479Y012394D01*
X005693Y012180D01*
X006120Y012180D01*
X005800Y012180D02*
X005800Y012607D01*
X003577Y007071D02*
X003791Y006857D01*
X003791Y006430D01*
X003791Y006750D02*
X003364Y006750D01*
X003364Y006857D02*
X003577Y007071D01*
X003364Y006857D02*
X003364Y006430D01*
X003146Y006323D02*
X002719Y006323D01*
X002502Y006537D02*
X002502Y006964D01*
X002395Y007071D01*
X002181Y007071D01*
X002075Y006964D01*
X002075Y006537D01*
X002181Y006430D01*
X002395Y006430D01*
X002502Y006537D01*
X001857Y006430D02*
X001857Y006857D01*
X001644Y007071D01*
X001430Y006857D01*
X001430Y006430D01*
X001430Y006750D02*
X001857Y006750D01*
X005479Y005327D02*
X005693Y005541D01*
X006120Y005541D01*
X006120Y005114D02*
X005693Y005114D01*
X005479Y005327D01*
X005800Y005114D02*
X005800Y005541D01*
X006227Y004896D02*
X006227Y004469D01*
X006013Y004252D02*
X006120Y004145D01*
X006120Y003931D01*
X006013Y003825D01*
X005586Y003825D01*
X005479Y003931D01*
X005479Y004145D01*
X005586Y004252D01*
X006013Y004252D01*
X006120Y003607D02*
X005693Y003607D01*
X005479Y003394D01*
X005693Y003180D01*
X006120Y003180D01*
X005800Y003180D02*
X005800Y003607D01*
X008479Y003394D02*
X008693Y003607D01*
X009120Y003607D01*
X009120Y003825D02*
X009120Y004038D01*
X009120Y003931D02*
X008479Y003931D01*
X008479Y003825D02*
X008479Y004038D01*
X008800Y003607D02*
X008800Y003180D01*
X008693Y003180D02*
X008479Y003394D01*
X008693Y003180D02*
X009120Y003180D01*
X009227Y004254D02*
X009227Y004681D01*
X009120Y004899D02*
X008693Y004899D01*
X008479Y005112D01*
X008693Y005326D01*
X009120Y005326D01*
X008800Y005326D02*
X008800Y004899D01*
X010430Y006430D02*
X010430Y006857D01*
X010644Y007071D01*
X010857Y006857D01*
X010857Y006430D01*
X010857Y006750D02*
X010430Y006750D01*
X011075Y006430D02*
X011288Y006430D01*
X011181Y006430D02*
X011181Y007071D01*
X011075Y007071D02*
X011288Y007071D01*
X011504Y006323D02*
X011931Y006323D01*
X012149Y006430D02*
X012149Y006857D01*
X012362Y007071D01*
X012576Y006857D01*
X012576Y006430D01*
X012576Y006750D02*
X012149Y006750D01*
X009227Y013254D02*
X009227Y013681D01*
X009120Y013899D02*
X009120Y014219D01*
X009013Y014326D01*
X008906Y014326D01*
X008800Y014219D01*
X008800Y013899D01*
X008800Y014219D02*
X008693Y014326D01*
X008586Y014326D01*
X008479Y014219D01*
X008479Y013899D01*
X009120Y013899D01*
X009120Y013038D02*
X009120Y012825D01*
X009120Y012931D02*
X008479Y012931D01*
X008479Y012825D02*
X008479Y013038D01*
X008693Y012607D02*
X008479Y012394D01*
X008693Y012180D01*
X009120Y012180D01*
X009120Y012607D02*
X008693Y012607D01*
X008800Y012607D02*
X008800Y012180D01*
X010680Y015680D02*
X010680Y016107D01*
X010894Y016321D01*
X011107Y016107D01*
X011107Y015680D01*
X011107Y016000D02*
X010680Y016000D01*
X011325Y015680D02*
X011538Y015680D01*
X011431Y015680D02*
X011431Y016321D01*
X011325Y016321D02*
X011538Y016321D01*
X011754Y015573D02*
X012181Y015573D01*
X012399Y015680D02*
X012719Y015680D01*
X012826Y015787D01*
X012826Y015894D01*
X012719Y016000D01*
X012399Y016000D01*
X012399Y015680D02*
X012399Y016321D01*
X012719Y016321D01*
X012826Y016214D01*
X012826Y016107D01*
X012719Y016000D01*
D12*
X012240Y012953D02*
X012223Y012908D01*
X012202Y012864D01*
X012178Y012822D01*
X012151Y012782D01*
X012121Y012744D01*
X012088Y012708D01*
X012052Y012675D01*
X012014Y012645D01*
X011973Y012619D01*
X011931Y012595D01*
X011887Y012575D01*
X011841Y012558D01*
X011794Y012545D01*
X011747Y012536D01*
X011699Y012530D01*
X011650Y012528D01*
X011601Y012530D01*
X011553Y012536D01*
X011506Y012545D01*
X011459Y012558D01*
X011413Y012575D01*
X011369Y012595D01*
X011327Y012619D01*
X011286Y012645D01*
X011248Y012675D01*
X011212Y012708D01*
X011179Y012744D01*
X011149Y012782D01*
X011122Y012822D01*
X011098Y012864D01*
X011077Y012908D01*
X011060Y012953D01*
X011060Y013347D02*
X011077Y013392D01*
X011098Y013436D01*
X011122Y013478D01*
X011149Y013518D01*
X011179Y013556D01*
X011212Y013592D01*
X011248Y013625D01*
X011286Y013655D01*
X011327Y013681D01*
X011369Y013705D01*
X011413Y013725D01*
X011459Y013742D01*
X011506Y013755D01*
X011553Y013764D01*
X011601Y013770D01*
X011650Y013772D01*
X011699Y013770D01*
X011747Y013764D01*
X011794Y013755D01*
X011841Y013742D01*
X011887Y013725D01*
X011931Y013705D01*
X011973Y013681D01*
X012014Y013655D01*
X012052Y013625D01*
X012088Y013592D01*
X012121Y013556D01*
X012151Y013518D01*
X012178Y013478D01*
X012202Y013436D01*
X012223Y013392D01*
X012240Y013347D01*
X012240Y022347D02*
X012223Y022392D01*
X012202Y022436D01*
X012178Y022478D01*
X012151Y022518D01*
X012121Y022556D01*
X012088Y022592D01*
X012052Y022625D01*
X012014Y022655D01*
X011973Y022681D01*
X011931Y022705D01*
X011887Y022725D01*
X011841Y022742D01*
X011794Y022755D01*
X011747Y022764D01*
X011699Y022770D01*
X011650Y022772D01*
X011601Y022770D01*
X011553Y022764D01*
X011506Y022755D01*
X011459Y022742D01*
X011413Y022725D01*
X011369Y022705D01*
X011327Y022681D01*
X011286Y022655D01*
X011248Y022625D01*
X011212Y022592D01*
X011179Y022556D01*
X011149Y022518D01*
X011122Y022478D01*
X011098Y022436D01*
X011077Y022392D01*
X011060Y022347D01*
X011060Y021953D02*
X011077Y021908D01*
X011098Y021864D01*
X011122Y021822D01*
X011149Y021782D01*
X011179Y021744D01*
X011212Y021708D01*
X011248Y021675D01*
X011286Y021645D01*
X011327Y021619D01*
X011369Y021595D01*
X011413Y021575D01*
X011459Y021558D01*
X011506Y021545D01*
X011553Y021536D01*
X011601Y021530D01*
X011650Y021528D01*
X011699Y021530D01*
X011747Y021536D01*
X011794Y021545D01*
X011841Y021558D01*
X011887Y021575D01*
X011931Y021595D01*
X011973Y021619D01*
X012014Y021645D01*
X012052Y021675D01*
X012088Y021708D01*
X012121Y021744D01*
X012151Y021782D01*
X012178Y021822D01*
X012202Y021864D01*
X012223Y021908D01*
X012240Y021953D01*
X012240Y031347D02*
X012223Y031392D01*
X012202Y031436D01*
X012178Y031478D01*
X012151Y031518D01*
X012121Y031556D01*
X012088Y031592D01*
X012052Y031625D01*
X012014Y031655D01*
X011973Y031681D01*
X011931Y031705D01*
X011887Y031725D01*
X011841Y031742D01*
X011794Y031755D01*
X011747Y031764D01*
X011699Y031770D01*
X011650Y031772D01*
X011601Y031770D01*
X011553Y031764D01*
X011506Y031755D01*
X011459Y031742D01*
X011413Y031725D01*
X011369Y031705D01*
X011327Y031681D01*
X011286Y031655D01*
X011248Y031625D01*
X011212Y031592D01*
X011179Y031556D01*
X011149Y031518D01*
X011122Y031478D01*
X011098Y031436D01*
X011077Y031392D01*
X011060Y031347D01*
X011060Y030953D02*
X011077Y030908D01*
X011098Y030864D01*
X011122Y030822D01*
X011149Y030782D01*
X011179Y030744D01*
X011212Y030708D01*
X011248Y030675D01*
X011286Y030645D01*
X011327Y030619D01*
X011369Y030595D01*
X011413Y030575D01*
X011459Y030558D01*
X011506Y030545D01*
X011553Y030536D01*
X011601Y030530D01*
X011650Y030528D01*
X011699Y030530D01*
X011747Y030536D01*
X011794Y030545D01*
X011841Y030558D01*
X011887Y030575D01*
X011931Y030595D01*
X011973Y030619D01*
X012014Y030645D01*
X012052Y030675D01*
X012088Y030708D01*
X012121Y030744D01*
X012151Y030782D01*
X012178Y030822D01*
X012202Y030864D01*
X012223Y030908D01*
X012240Y030953D01*
X003240Y030953D02*
X003223Y030908D01*
X003202Y030864D01*
X003178Y030822D01*
X003151Y030782D01*
X003121Y030744D01*
X003088Y030708D01*
X003052Y030675D01*
X003014Y030645D01*
X002973Y030619D01*
X002931Y030595D01*
X002887Y030575D01*
X002841Y030558D01*
X002794Y030545D01*
X002747Y030536D01*
X002699Y030530D01*
X002650Y030528D01*
X002601Y030530D01*
X002553Y030536D01*
X002506Y030545D01*
X002459Y030558D01*
X002413Y030575D01*
X002369Y030595D01*
X002327Y030619D01*
X002286Y030645D01*
X002248Y030675D01*
X002212Y030708D01*
X002179Y030744D01*
X002149Y030782D01*
X002122Y030822D01*
X002098Y030864D01*
X002077Y030908D01*
X002060Y030953D01*
X002060Y031347D02*
X002077Y031392D01*
X002098Y031436D01*
X002122Y031478D01*
X002149Y031518D01*
X002179Y031556D01*
X002212Y031592D01*
X002248Y031625D01*
X002286Y031655D01*
X002327Y031681D01*
X002369Y031705D01*
X002413Y031725D01*
X002459Y031742D01*
X002506Y031755D01*
X002553Y031764D01*
X002601Y031770D01*
X002650Y031772D01*
X002699Y031770D01*
X002747Y031764D01*
X002794Y031755D01*
X002841Y031742D01*
X002887Y031725D01*
X002931Y031705D01*
X002973Y031681D01*
X003014Y031655D01*
X003052Y031625D01*
X003088Y031592D01*
X003121Y031556D01*
X003151Y031518D01*
X003178Y031478D01*
X003202Y031436D01*
X003223Y031392D01*
X003240Y031347D01*
X003240Y021953D02*
X003223Y021908D01*
X003202Y021864D01*
X003178Y021822D01*
X003151Y021782D01*
X003121Y021744D01*
X003088Y021708D01*
X003052Y021675D01*
X003014Y021645D01*
X002973Y021619D01*
X002931Y021595D01*
X002887Y021575D01*
X002841Y021558D01*
X002794Y021545D01*
X002747Y021536D01*
X002699Y021530D01*
X002650Y021528D01*
X002601Y021530D01*
X002553Y021536D01*
X002506Y021545D01*
X002459Y021558D01*
X002413Y021575D01*
X002369Y021595D01*
X002327Y021619D01*
X002286Y021645D01*
X002248Y021675D01*
X002212Y021708D01*
X002179Y021744D01*
X002149Y021782D01*
X002122Y021822D01*
X002098Y021864D01*
X002077Y021908D01*
X002060Y021953D01*
X002060Y022347D02*
X002077Y022392D01*
X002098Y022436D01*
X002122Y022478D01*
X002149Y022518D01*
X002179Y022556D01*
X002212Y022592D01*
X002248Y022625D01*
X002286Y022655D01*
X002327Y022681D01*
X002369Y022705D01*
X002413Y022725D01*
X002459Y022742D01*
X002506Y022755D01*
X002553Y022764D01*
X002601Y022770D01*
X002650Y022772D01*
X002699Y022770D01*
X002747Y022764D01*
X002794Y022755D01*
X002841Y022742D01*
X002887Y022725D01*
X002931Y022705D01*
X002973Y022681D01*
X003014Y022655D01*
X003052Y022625D01*
X003088Y022592D01*
X003121Y022556D01*
X003151Y022518D01*
X003178Y022478D01*
X003202Y022436D01*
X003223Y022392D01*
X003240Y022347D01*
X003240Y012953D02*
X003223Y012908D01*
X003202Y012864D01*
X003178Y012822D01*
X003151Y012782D01*
X003121Y012744D01*
X003088Y012708D01*
X003052Y012675D01*
X003014Y012645D01*
X002973Y012619D01*
X002931Y012595D01*
X002887Y012575D01*
X002841Y012558D01*
X002794Y012545D01*
X002747Y012536D01*
X002699Y012530D01*
X002650Y012528D01*
X002601Y012530D01*
X002553Y012536D01*
X002506Y012545D01*
X002459Y012558D01*
X002413Y012575D01*
X002369Y012595D01*
X002327Y012619D01*
X002286Y012645D01*
X002248Y012675D01*
X002212Y012708D01*
X002179Y012744D01*
X002149Y012782D01*
X002122Y012822D01*
X002098Y012864D01*
X002077Y012908D01*
X002060Y012953D01*
X002060Y013347D02*
X002077Y013392D01*
X002098Y013436D01*
X002122Y013478D01*
X002149Y013518D01*
X002179Y013556D01*
X002212Y013592D01*
X002248Y013625D01*
X002286Y013655D01*
X002327Y013681D01*
X002369Y013705D01*
X002413Y013725D01*
X002459Y013742D01*
X002506Y013755D01*
X002553Y013764D01*
X002601Y013770D01*
X002650Y013772D01*
X002699Y013770D01*
X002747Y013764D01*
X002794Y013755D01*
X002841Y013742D01*
X002887Y013725D01*
X002931Y013705D01*
X002973Y013681D01*
X003014Y013655D01*
X003052Y013625D01*
X003088Y013592D01*
X003121Y013556D01*
X003151Y013518D01*
X003178Y013478D01*
X003202Y013436D01*
X003223Y013392D01*
X003240Y013347D01*
X003240Y003953D02*
X003223Y003908D01*
X003202Y003864D01*
X003178Y003822D01*
X003151Y003782D01*
X003121Y003744D01*
X003088Y003708D01*
X003052Y003675D01*
X003014Y003645D01*
X002973Y003619D01*
X002931Y003595D01*
X002887Y003575D01*
X002841Y003558D01*
X002794Y003545D01*
X002747Y003536D01*
X002699Y003530D01*
X002650Y003528D01*
X002601Y003530D01*
X002553Y003536D01*
X002506Y003545D01*
X002459Y003558D01*
X002413Y003575D01*
X002369Y003595D01*
X002327Y003619D01*
X002286Y003645D01*
X002248Y003675D01*
X002212Y003708D01*
X002179Y003744D01*
X002149Y003782D01*
X002122Y003822D01*
X002098Y003864D01*
X002077Y003908D01*
X002060Y003953D01*
X002060Y004347D02*
X002077Y004392D01*
X002098Y004436D01*
X002122Y004478D01*
X002149Y004518D01*
X002179Y004556D01*
X002212Y004592D01*
X002248Y004625D01*
X002286Y004655D01*
X002327Y004681D01*
X002369Y004705D01*
X002413Y004725D01*
X002459Y004742D01*
X002506Y004755D01*
X002553Y004764D01*
X002601Y004770D01*
X002650Y004772D01*
X002699Y004770D01*
X002747Y004764D01*
X002794Y004755D01*
X002841Y004742D01*
X002887Y004725D01*
X002931Y004705D01*
X002973Y004681D01*
X003014Y004655D01*
X003052Y004625D01*
X003088Y004592D01*
X003121Y004556D01*
X003151Y004518D01*
X003178Y004478D01*
X003202Y004436D01*
X003223Y004392D01*
X003240Y004347D01*
X011060Y003953D02*
X011077Y003908D01*
X011098Y003864D01*
X011122Y003822D01*
X011149Y003782D01*
X011179Y003744D01*
X011212Y003708D01*
X011248Y003675D01*
X011286Y003645D01*
X011327Y003619D01*
X011369Y003595D01*
X011413Y003575D01*
X011459Y003558D01*
X011506Y003545D01*
X011553Y003536D01*
X011601Y003530D01*
X011650Y003528D01*
X011699Y003530D01*
X011747Y003536D01*
X011794Y003545D01*
X011841Y003558D01*
X011887Y003575D01*
X011931Y003595D01*
X011973Y003619D01*
X012014Y003645D01*
X012052Y003675D01*
X012088Y003708D01*
X012121Y003744D01*
X012151Y003782D01*
X012178Y003822D01*
X012202Y003864D01*
X012223Y003908D01*
X012240Y003953D01*
X012240Y004347D02*
X012223Y004392D01*
X012202Y004436D01*
X012178Y004478D01*
X012151Y004518D01*
X012121Y004556D01*
X012088Y004592D01*
X012052Y004625D01*
X012014Y004655D01*
X011973Y004681D01*
X011931Y004705D01*
X011887Y004725D01*
X011841Y004742D01*
X011794Y004755D01*
X011747Y004764D01*
X011699Y004770D01*
X011650Y004772D01*
X011601Y004770D01*
X011553Y004764D01*
X011506Y004755D01*
X011459Y004742D01*
X011413Y004725D01*
X011369Y004705D01*
X011327Y004681D01*
X011286Y004655D01*
X011248Y004625D01*
X011212Y004592D01*
X011179Y004556D01*
X011149Y004518D01*
X011122Y004478D01*
X011098Y004436D01*
X011077Y004392D01*
X011060Y004347D01*
D13*
X000850Y003750D02*
X000500Y003750D01*
X000500Y004550D01*
X000850Y004550D01*
X001035Y004977D02*
X000998Y004900D01*
X000965Y004821D01*
X000935Y004740D01*
X000909Y004658D01*
X000887Y004575D01*
X000868Y004491D01*
X000854Y004407D01*
X000844Y004321D01*
X000838Y004236D01*
X000836Y004150D01*
X000838Y004064D01*
X000844Y003979D01*
X000854Y003893D01*
X000868Y003809D01*
X000887Y003725D01*
X000909Y003642D01*
X000935Y003560D01*
X000965Y003479D01*
X000998Y003400D01*
X001035Y003323D01*
X001823Y002535D02*
X001900Y002498D01*
X001979Y002465D01*
X002060Y002435D01*
X002142Y002409D01*
X002225Y002387D01*
X002309Y002368D01*
X002393Y002354D01*
X002479Y002344D01*
X002564Y002338D01*
X002650Y002336D01*
X002736Y002338D01*
X002821Y002344D01*
X002907Y002354D01*
X002991Y002368D01*
X003075Y002387D01*
X003158Y002409D01*
X003240Y002435D01*
X003321Y002465D01*
X003400Y002498D01*
X003477Y002535D01*
X003477Y005765D02*
X003400Y005802D01*
X003321Y005835D01*
X003240Y005865D01*
X003158Y005891D01*
X003075Y005913D01*
X002991Y005932D01*
X002907Y005946D01*
X002821Y005956D01*
X002736Y005962D01*
X002650Y005964D01*
X002564Y005962D01*
X002479Y005956D01*
X002393Y005946D01*
X002309Y005932D01*
X002225Y005913D01*
X002142Y005891D01*
X002060Y005865D01*
X001979Y005835D01*
X001900Y005802D01*
X001823Y005765D01*
X004265Y004977D02*
X004302Y004900D01*
X004335Y004821D01*
X004365Y004740D01*
X004391Y004658D01*
X004413Y004575D01*
X004432Y004491D01*
X004446Y004407D01*
X004456Y004321D01*
X004462Y004236D01*
X004464Y004150D01*
X004462Y004064D01*
X004456Y003979D01*
X004446Y003893D01*
X004432Y003809D01*
X004413Y003725D01*
X004391Y003642D01*
X004365Y003560D01*
X004335Y003479D01*
X004302Y003400D01*
X004265Y003323D01*
X004450Y003750D02*
X004800Y003750D01*
X004800Y004550D01*
X004450Y004550D01*
X004450Y012750D02*
X004800Y012750D01*
X004800Y013550D01*
X004450Y013550D01*
X003477Y014765D02*
X003400Y014802D01*
X003321Y014835D01*
X003240Y014865D01*
X003158Y014891D01*
X003075Y014913D01*
X002991Y014932D01*
X002907Y014946D01*
X002821Y014956D01*
X002736Y014962D01*
X002650Y014964D01*
X002564Y014962D01*
X002479Y014956D01*
X002393Y014946D01*
X002309Y014932D01*
X002225Y014913D01*
X002142Y014891D01*
X002060Y014865D01*
X001979Y014835D01*
X001900Y014802D01*
X001823Y014765D01*
X001035Y013977D02*
X000998Y013900D01*
X000965Y013821D01*
X000935Y013740D01*
X000909Y013658D01*
X000887Y013575D01*
X000868Y013491D01*
X000854Y013407D01*
X000844Y013321D01*
X000838Y013236D01*
X000836Y013150D01*
X000838Y013064D01*
X000844Y012979D01*
X000854Y012893D01*
X000868Y012809D01*
X000887Y012725D01*
X000909Y012642D01*
X000935Y012560D01*
X000965Y012479D01*
X000998Y012400D01*
X001035Y012323D01*
X000850Y012750D02*
X000500Y012750D01*
X000500Y013550D01*
X000850Y013550D01*
X004265Y013977D02*
X004302Y013900D01*
X004335Y013821D01*
X004365Y013740D01*
X004391Y013658D01*
X004413Y013575D01*
X004432Y013491D01*
X004446Y013407D01*
X004456Y013321D01*
X004462Y013236D01*
X004464Y013150D01*
X004462Y013064D01*
X004456Y012979D01*
X004446Y012893D01*
X004432Y012809D01*
X004413Y012725D01*
X004391Y012642D01*
X004365Y012560D01*
X004335Y012479D01*
X004302Y012400D01*
X004265Y012323D01*
X003477Y011535D02*
X003400Y011498D01*
X003321Y011465D01*
X003240Y011435D01*
X003158Y011409D01*
X003075Y011387D01*
X002991Y011368D01*
X002907Y011354D01*
X002821Y011344D01*
X002736Y011338D01*
X002650Y011336D01*
X002564Y011338D01*
X002479Y011344D01*
X002393Y011354D01*
X002309Y011368D01*
X002225Y011387D01*
X002142Y011409D01*
X002060Y011435D01*
X001979Y011465D01*
X001900Y011498D01*
X001823Y011535D01*
X000850Y021750D02*
X000500Y021750D01*
X000500Y022550D01*
X000850Y022550D01*
X001035Y022977D02*
X000998Y022900D01*
X000965Y022821D01*
X000935Y022740D01*
X000909Y022658D01*
X000887Y022575D01*
X000868Y022491D01*
X000854Y022407D01*
X000844Y022321D01*
X000838Y022236D01*
X000836Y022150D01*
X000838Y022064D01*
X000844Y021979D01*
X000854Y021893D01*
X000868Y021809D01*
X000887Y021725D01*
X000909Y021642D01*
X000935Y021560D01*
X000965Y021479D01*
X000998Y021400D01*
X001035Y021323D01*
X001823Y020535D02*
X001900Y020498D01*
X001979Y020465D01*
X002060Y020435D01*
X002142Y020409D01*
X002225Y020387D01*
X002309Y020368D01*
X002393Y020354D01*
X002479Y020344D01*
X002564Y020338D01*
X002650Y020336D01*
X002736Y020338D01*
X002821Y020344D01*
X002907Y020354D01*
X002991Y020368D01*
X003075Y020387D01*
X003158Y020409D01*
X003240Y020435D01*
X003321Y020465D01*
X003400Y020498D01*
X003477Y020535D01*
X003477Y023765D02*
X003400Y023802D01*
X003321Y023835D01*
X003240Y023865D01*
X003158Y023891D01*
X003075Y023913D01*
X002991Y023932D01*
X002907Y023946D01*
X002821Y023956D01*
X002736Y023962D01*
X002650Y023964D01*
X002564Y023962D01*
X002479Y023956D01*
X002393Y023946D01*
X002309Y023932D01*
X002225Y023913D01*
X002142Y023891D01*
X002060Y023865D01*
X001979Y023835D01*
X001900Y023802D01*
X001823Y023765D01*
X004265Y022977D02*
X004302Y022900D01*
X004335Y022821D01*
X004365Y022740D01*
X004391Y022658D01*
X004413Y022575D01*
X004432Y022491D01*
X004446Y022407D01*
X004456Y022321D01*
X004462Y022236D01*
X004464Y022150D01*
X004462Y022064D01*
X004456Y021979D01*
X004446Y021893D01*
X004432Y021809D01*
X004413Y021725D01*
X004391Y021642D01*
X004365Y021560D01*
X004335Y021479D01*
X004302Y021400D01*
X004265Y021323D01*
X004450Y021750D02*
X004800Y021750D01*
X004800Y022550D01*
X004450Y022550D01*
X004450Y030750D02*
X004800Y030750D01*
X004800Y031550D01*
X004450Y031550D01*
X003477Y032765D02*
X003400Y032802D01*
X003321Y032835D01*
X003240Y032865D01*
X003158Y032891D01*
X003075Y032913D01*
X002991Y032932D01*
X002907Y032946D01*
X002821Y032956D01*
X002736Y032962D01*
X002650Y032964D01*
X002564Y032962D01*
X002479Y032956D01*
X002393Y032946D01*
X002309Y032932D01*
X002225Y032913D01*
X002142Y032891D01*
X002060Y032865D01*
X001979Y032835D01*
X001900Y032802D01*
X001823Y032765D01*
X001035Y031977D02*
X000998Y031900D01*
X000965Y031821D01*
X000935Y031740D01*
X000909Y031658D01*
X000887Y031575D01*
X000868Y031491D01*
X000854Y031407D01*
X000844Y031321D01*
X000838Y031236D01*
X000836Y031150D01*
X000838Y031064D01*
X000844Y030979D01*
X000854Y030893D01*
X000868Y030809D01*
X000887Y030725D01*
X000909Y030642D01*
X000935Y030560D01*
X000965Y030479D01*
X000998Y030400D01*
X001035Y030323D01*
X000850Y030750D02*
X000500Y030750D01*
X000500Y031550D01*
X000850Y031550D01*
X004265Y031977D02*
X004302Y031900D01*
X004335Y031821D01*
X004365Y031740D01*
X004391Y031658D01*
X004413Y031575D01*
X004432Y031491D01*
X004446Y031407D01*
X004456Y031321D01*
X004462Y031236D01*
X004464Y031150D01*
X004462Y031064D01*
X004456Y030979D01*
X004446Y030893D01*
X004432Y030809D01*
X004413Y030725D01*
X004391Y030642D01*
X004365Y030560D01*
X004335Y030479D01*
X004302Y030400D01*
X004265Y030323D01*
X003477Y029535D02*
X003400Y029498D01*
X003321Y029465D01*
X003240Y029435D01*
X003158Y029409D01*
X003075Y029387D01*
X002991Y029368D01*
X002907Y029354D01*
X002821Y029344D01*
X002736Y029338D01*
X002650Y029336D01*
X002564Y029338D01*
X002479Y029344D01*
X002393Y029354D01*
X002309Y029368D01*
X002225Y029387D01*
X002142Y029409D01*
X002060Y029435D01*
X001979Y029465D01*
X001900Y029498D01*
X001823Y029535D01*
X009500Y030750D02*
X009850Y030750D01*
X009500Y030750D02*
X009500Y031550D01*
X009850Y031550D01*
X010035Y031977D02*
X009998Y031900D01*
X009965Y031821D01*
X009935Y031740D01*
X009909Y031658D01*
X009887Y031575D01*
X009868Y031491D01*
X009854Y031407D01*
X009844Y031321D01*
X009838Y031236D01*
X009836Y031150D01*
X009838Y031064D01*
X009844Y030979D01*
X009854Y030893D01*
X009868Y030809D01*
X009887Y030725D01*
X009909Y030642D01*
X009935Y030560D01*
X009965Y030479D01*
X009998Y030400D01*
X010035Y030323D01*
X010823Y029535D02*
X010900Y029498D01*
X010979Y029465D01*
X011060Y029435D01*
X011142Y029409D01*
X011225Y029387D01*
X011309Y029368D01*
X011393Y029354D01*
X011479Y029344D01*
X011564Y029338D01*
X011650Y029336D01*
X011736Y029338D01*
X011821Y029344D01*
X011907Y029354D01*
X011991Y029368D01*
X012075Y029387D01*
X012158Y029409D01*
X012240Y029435D01*
X012321Y029465D01*
X012400Y029498D01*
X012477Y029535D01*
X012477Y032765D02*
X012400Y032802D01*
X012321Y032835D01*
X012240Y032865D01*
X012158Y032891D01*
X012075Y032913D01*
X011991Y032932D01*
X011907Y032946D01*
X011821Y032956D01*
X011736Y032962D01*
X011650Y032964D01*
X011564Y032962D01*
X011479Y032956D01*
X011393Y032946D01*
X011309Y032932D01*
X011225Y032913D01*
X011142Y032891D01*
X011060Y032865D01*
X010979Y032835D01*
X010900Y032802D01*
X010823Y032765D01*
X013265Y031977D02*
X013302Y031900D01*
X013335Y031821D01*
X013365Y031740D01*
X013391Y031658D01*
X013413Y031575D01*
X013432Y031491D01*
X013446Y031407D01*
X013456Y031321D01*
X013462Y031236D01*
X013464Y031150D01*
X013462Y031064D01*
X013456Y030979D01*
X013446Y030893D01*
X013432Y030809D01*
X013413Y030725D01*
X013391Y030642D01*
X013365Y030560D01*
X013335Y030479D01*
X013302Y030400D01*
X013265Y030323D01*
X013450Y030750D02*
X013800Y030750D01*
X013800Y031550D01*
X013450Y031550D01*
X013450Y022550D02*
X013800Y022550D01*
X013800Y021750D01*
X013450Y021750D01*
X012477Y020535D02*
X012400Y020498D01*
X012321Y020465D01*
X012240Y020435D01*
X012158Y020409D01*
X012075Y020387D01*
X011991Y020368D01*
X011907Y020354D01*
X011821Y020344D01*
X011736Y020338D01*
X011650Y020336D01*
X011564Y020338D01*
X011479Y020344D01*
X011393Y020354D01*
X011309Y020368D01*
X011225Y020387D01*
X011142Y020409D01*
X011060Y020435D01*
X010979Y020465D01*
X010900Y020498D01*
X010823Y020535D01*
X010035Y021323D02*
X009998Y021400D01*
X009965Y021479D01*
X009935Y021560D01*
X009909Y021642D01*
X009887Y021725D01*
X009868Y021809D01*
X009854Y021893D01*
X009844Y021979D01*
X009838Y022064D01*
X009836Y022150D01*
X009838Y022236D01*
X009844Y022321D01*
X009854Y022407D01*
X009868Y022491D01*
X009887Y022575D01*
X009909Y022658D01*
X009935Y022740D01*
X009965Y022821D01*
X009998Y022900D01*
X010035Y022977D01*
X009850Y022550D02*
X009500Y022550D01*
X009500Y021750D01*
X009850Y021750D01*
X010823Y023765D02*
X010900Y023802D01*
X010979Y023835D01*
X011060Y023865D01*
X011142Y023891D01*
X011225Y023913D01*
X011309Y023932D01*
X011393Y023946D01*
X011479Y023956D01*
X011564Y023962D01*
X011650Y023964D01*
X011736Y023962D01*
X011821Y023956D01*
X011907Y023946D01*
X011991Y023932D01*
X012075Y023913D01*
X012158Y023891D01*
X012240Y023865D01*
X012321Y023835D01*
X012400Y023802D01*
X012477Y023765D01*
X013265Y022977D02*
X013302Y022900D01*
X013335Y022821D01*
X013365Y022740D01*
X013391Y022658D01*
X013413Y022575D01*
X013432Y022491D01*
X013446Y022407D01*
X013456Y022321D01*
X013462Y022236D01*
X013464Y022150D01*
X013462Y022064D01*
X013456Y021979D01*
X013446Y021893D01*
X013432Y021809D01*
X013413Y021725D01*
X013391Y021642D01*
X013365Y021560D01*
X013335Y021479D01*
X013302Y021400D01*
X013265Y021323D01*
X013450Y013550D02*
X013800Y013550D01*
X013800Y012750D01*
X013450Y012750D01*
X012477Y011535D02*
X012400Y011498D01*
X012321Y011465D01*
X012240Y011435D01*
X012158Y011409D01*
X012075Y011387D01*
X011991Y011368D01*
X011907Y011354D01*
X011821Y011344D01*
X011736Y011338D01*
X011650Y011336D01*
X011564Y011338D01*
X011479Y011344D01*
X011393Y011354D01*
X011309Y011368D01*
X011225Y011387D01*
X011142Y011409D01*
X011060Y011435D01*
X010979Y011465D01*
X010900Y011498D01*
X010823Y011535D01*
X010035Y012323D02*
X009998Y012400D01*
X009965Y012479D01*
X009935Y012560D01*
X009909Y012642D01*
X009887Y012725D01*
X009868Y012809D01*
X009854Y012893D01*
X009844Y012979D01*
X009838Y013064D01*
X009836Y013150D01*
X009838Y013236D01*
X009844Y013321D01*
X009854Y013407D01*
X009868Y013491D01*
X009887Y013575D01*
X009909Y013658D01*
X009935Y013740D01*
X009965Y013821D01*
X009998Y013900D01*
X010035Y013977D01*
X009850Y013550D02*
X009500Y013550D01*
X009500Y012750D01*
X009850Y012750D01*
X010823Y014765D02*
X010900Y014802D01*
X010979Y014835D01*
X011060Y014865D01*
X011142Y014891D01*
X011225Y014913D01*
X011309Y014932D01*
X011393Y014946D01*
X011479Y014956D01*
X011564Y014962D01*
X011650Y014964D01*
X011736Y014962D01*
X011821Y014956D01*
X011907Y014946D01*
X011991Y014932D01*
X012075Y014913D01*
X012158Y014891D01*
X012240Y014865D01*
X012321Y014835D01*
X012400Y014802D01*
X012477Y014765D01*
X013265Y013977D02*
X013302Y013900D01*
X013335Y013821D01*
X013365Y013740D01*
X013391Y013658D01*
X013413Y013575D01*
X013432Y013491D01*
X013446Y013407D01*
X013456Y013321D01*
X013462Y013236D01*
X013464Y013150D01*
X013462Y013064D01*
X013456Y012979D01*
X013446Y012893D01*
X013432Y012809D01*
X013413Y012725D01*
X013391Y012642D01*
X013365Y012560D01*
X013335Y012479D01*
X013302Y012400D01*
X013265Y012323D01*
X013450Y004550D02*
X013800Y004550D01*
X013800Y003750D01*
X013450Y003750D01*
X012477Y002535D02*
X012400Y002498D01*
X012321Y002465D01*
X012240Y002435D01*
X012158Y002409D01*
X012075Y002387D01*
X011991Y002368D01*
X011907Y002354D01*
X011821Y002344D01*
X011736Y002338D01*
X011650Y002336D01*
X011564Y002338D01*
X011479Y002344D01*
X011393Y002354D01*
X011309Y002368D01*
X011225Y002387D01*
X011142Y002409D01*
X011060Y002435D01*
X010979Y002465D01*
X010900Y002498D01*
X010823Y002535D01*
X010035Y003323D02*
X009998Y003400D01*
X009965Y003479D01*
X009935Y003560D01*
X009909Y003642D01*
X009887Y003725D01*
X009868Y003809D01*
X009854Y003893D01*
X009844Y003979D01*
X009838Y004064D01*
X009836Y004150D01*
X009838Y004236D01*
X009844Y004321D01*
X009854Y004407D01*
X009868Y004491D01*
X009887Y004575D01*
X009909Y004658D01*
X009935Y004740D01*
X009965Y004821D01*
X009998Y004900D01*
X010035Y004977D01*
X009850Y004550D02*
X009500Y004550D01*
X009500Y003750D01*
X009850Y003750D01*
X010823Y005765D02*
X010900Y005802D01*
X010979Y005835D01*
X011060Y005865D01*
X011142Y005891D01*
X011225Y005913D01*
X011309Y005932D01*
X011393Y005946D01*
X011479Y005956D01*
X011564Y005962D01*
X011650Y005964D01*
X011736Y005962D01*
X011821Y005956D01*
X011907Y005946D01*
X011991Y005932D01*
X012075Y005913D01*
X012158Y005891D01*
X012240Y005865D01*
X012321Y005835D01*
X012400Y005802D01*
X012477Y005765D01*
X013265Y004977D02*
X013302Y004900D01*
X013335Y004821D01*
X013365Y004740D01*
X013391Y004658D01*
X013413Y004575D01*
X013432Y004491D01*
X013446Y004407D01*
X013456Y004321D01*
X013462Y004236D01*
X013464Y004150D01*
X013462Y004064D01*
X013456Y003979D01*
X013446Y003893D01*
X013432Y003809D01*
X013413Y003725D01*
X013391Y003642D01*
X013365Y003560D01*
X013335Y003479D01*
X013302Y003400D01*
X013265Y003323D01*
D14*
X007650Y008604D03*
X007510Y007991D03*
X007505Y007979D03*
X004590Y007979D03*
X004585Y007991D03*
X004353Y008281D03*
X004155Y008371D03*
X004190Y008644D03*
X004295Y008779D03*
X004355Y008881D03*
X004183Y009066D03*
X004353Y009171D03*
X004348Y009294D03*
X004190Y009509D03*
X004190Y009711D03*
X004190Y009819D03*
X004193Y009951D03*
X004160Y010026D03*
X004153Y007089D03*
X004158Y006964D03*
X004315Y006964D03*
D15*
X004320Y007021D03*
X004323Y007021D03*
X004325Y007279D03*
X004328Y007279D03*
X004410Y007504D03*
X004410Y007729D03*
X004133Y007754D03*
X004133Y007529D03*
X004178Y008339D03*
X004358Y008339D03*
X004488Y008334D03*
X004188Y009236D03*
X007648Y008604D03*
D16*
X007645Y008604D03*
X005105Y008604D03*
X004598Y009154D03*
X004483Y008819D03*
D17*
X004453Y008604D03*
X004723Y009341D03*
X005140Y008604D03*
X005385Y008604D03*
X005388Y008604D03*
X007643Y008604D03*
D18*
X007640Y008604D03*
X005355Y008604D03*
X005353Y008604D03*
X005175Y008604D03*
X005173Y008604D03*
X004800Y009424D03*
X004803Y009426D03*
X004455Y008604D03*
D19*
X004873Y009490D03*
X004875Y009493D03*
X005235Y008605D03*
X005290Y008605D03*
X007638Y008605D03*
D20*
X007635Y008604D03*
X004950Y009549D03*
X004948Y009546D03*
D21*
X005028Y009596D03*
X005030Y009599D03*
X004463Y008604D03*
X007608Y008731D03*
X007633Y008604D03*
D22*
X007630Y008604D03*
X005088Y009629D03*
X004465Y008604D03*
D23*
X005135Y009651D03*
X005138Y009651D03*
X004378Y007171D03*
X007628Y008604D03*
D24*
X007625Y008604D03*
X005193Y009674D03*
X004470Y008604D03*
D25*
X004473Y008604D03*
X005245Y009691D03*
X005248Y009691D03*
X006713Y008131D03*
X006953Y008131D03*
X007623Y008604D03*
D26*
X007620Y008604D03*
X006985Y008149D03*
X006678Y008149D03*
X005293Y009704D03*
X005290Y009704D03*
X004475Y008604D03*
D27*
X004478Y008604D03*
X005333Y009714D03*
X005335Y009714D03*
X006655Y008166D03*
X007618Y008604D03*
D28*
X007615Y008401D03*
X005420Y008604D03*
X005108Y008604D03*
X004603Y009164D03*
X004605Y009169D03*
X004608Y009174D03*
X004450Y008604D03*
D29*
X004855Y009475D03*
X004858Y009478D03*
X005210Y008605D03*
X007615Y008743D03*
D30*
X007613Y008375D03*
X004483Y008375D03*
X004533Y009010D03*
X004535Y009018D03*
X004540Y009030D03*
D31*
X004910Y009519D03*
X004913Y009521D03*
X007613Y008739D03*
D32*
X007610Y008354D03*
X005440Y008604D03*
X004485Y008354D03*
D33*
X004970Y009561D03*
X004973Y009564D03*
X007610Y008734D03*
D34*
X007608Y008335D03*
X005083Y008605D03*
X004355Y008340D03*
X004183Y008340D03*
X004180Y008340D03*
X004135Y007753D03*
X004135Y007528D03*
X004320Y007278D03*
X004323Y007278D03*
X004408Y007728D03*
X004143Y007023D03*
X004360Y009235D03*
X004363Y009235D03*
D35*
X004178Y009240D03*
X004355Y009765D03*
X004355Y008590D03*
X004368Y008335D03*
X004320Y008080D03*
X004318Y008078D03*
X004338Y007748D03*
X004415Y007728D03*
X004338Y007523D03*
X004415Y007503D03*
X004125Y007533D03*
X004125Y007758D03*
X004330Y007018D03*
X007605Y008320D03*
D36*
X007605Y008729D03*
X005078Y009624D03*
D37*
X004493Y008304D03*
X004330Y008081D03*
X004315Y007734D03*
X004420Y007726D03*
X004420Y007501D03*
X004315Y007509D03*
X004313Y007506D03*
X004363Y008591D03*
X004288Y008834D03*
X004363Y009764D03*
X007603Y008304D03*
D38*
X007603Y008726D03*
X005125Y009646D03*
D39*
X004495Y008289D03*
X004368Y008591D03*
X004143Y008071D03*
X004185Y009554D03*
X004183Y009556D03*
X004180Y009559D03*
X007600Y008289D03*
D40*
X007600Y008725D03*
X005170Y009665D03*
X005168Y009665D03*
X005165Y009663D03*
X004398Y007180D03*
D41*
X004230Y007504D03*
X004140Y008071D03*
X004370Y008591D03*
X004278Y008841D03*
X004498Y008276D03*
X005073Y008604D03*
X005453Y008604D03*
X004370Y009764D03*
X007598Y008276D03*
D42*
X007598Y008725D03*
X006893Y008113D03*
X006890Y008113D03*
X006888Y008113D03*
X006778Y008113D03*
X006775Y008113D03*
X006773Y008113D03*
X006770Y008113D03*
X005205Y009678D03*
D43*
X004500Y008265D03*
X004305Y007720D03*
X004235Y007728D03*
X004235Y007503D03*
X004305Y007495D03*
X004370Y009558D03*
X004173Y009560D03*
X004170Y009765D03*
X004373Y009765D03*
X007595Y008265D03*
D44*
X007595Y008723D03*
X006950Y008130D03*
X006948Y008130D03*
X006945Y008128D03*
X006720Y008128D03*
X006718Y008128D03*
X006715Y008130D03*
X005243Y009690D03*
D45*
X005455Y008604D03*
X004340Y008081D03*
X004135Y008071D03*
X004170Y008591D03*
X004173Y008824D03*
X004273Y008846D03*
X007593Y008254D03*
D46*
X007593Y008723D03*
X006980Y008145D03*
X006975Y008143D03*
X006685Y008145D03*
X005278Y009700D03*
X005275Y009700D03*
D47*
X004378Y009765D03*
X004375Y009558D03*
X004168Y009765D03*
X004270Y008850D03*
X004378Y008590D03*
X004343Y008080D03*
X004240Y007728D03*
X004303Y007713D03*
X004240Y007503D03*
X007590Y008243D03*
D48*
X007590Y008721D03*
X006668Y008156D03*
X005308Y009706D03*
D49*
X005458Y008605D03*
X004508Y008230D03*
X004165Y008590D03*
X004200Y009033D03*
X004378Y009558D03*
X004165Y009765D03*
X004130Y008073D03*
X004243Y007728D03*
X004243Y007503D03*
X004140Y007053D03*
X007588Y008230D03*
D50*
X007588Y008723D03*
X007010Y008168D03*
X005340Y009715D03*
X005338Y009715D03*
D51*
X005068Y008605D03*
X004165Y008825D03*
X004165Y009560D03*
X004178Y010170D03*
X004128Y008073D03*
X004245Y007728D03*
X004245Y007503D03*
X004138Y007053D03*
X007583Y008210D03*
X007585Y008220D03*
D52*
X007585Y008723D03*
X007023Y008180D03*
X006643Y008180D03*
X005373Y009720D03*
X005370Y009720D03*
D53*
X005395Y009723D03*
X006635Y008190D03*
X007583Y008723D03*
D54*
X007580Y008200D03*
X007578Y008190D03*
X004518Y008190D03*
X004383Y008590D03*
X004265Y008858D03*
X004175Y008370D03*
X004125Y008073D03*
X004345Y007780D03*
X004435Y007725D03*
X004435Y007503D03*
X004335Y007250D03*
X004135Y007053D03*
X004163Y009765D03*
X004383Y009765D03*
X004175Y010170D03*
D55*
X005425Y009728D03*
X005428Y009728D03*
X005430Y009728D03*
X007035Y008203D03*
X007580Y008723D03*
D56*
X007578Y008723D03*
X005453Y009730D03*
X005450Y009730D03*
D57*
X004520Y008180D03*
X004373Y008363D03*
X004173Y008370D03*
X004375Y008798D03*
X004373Y009205D03*
X004160Y009765D03*
X004170Y010170D03*
X004248Y007728D03*
X004300Y007480D03*
X004338Y007250D03*
X004133Y007053D03*
X007575Y008180D03*
D58*
X007575Y008723D03*
D59*
X007573Y008171D03*
X005065Y008604D03*
X004523Y008171D03*
X004160Y008591D03*
X004263Y008861D03*
X004383Y009556D03*
D60*
X005495Y009733D03*
X005498Y009733D03*
X007573Y008723D03*
D61*
X007570Y008161D03*
X004525Y008161D03*
X004278Y008466D03*
X004275Y008466D03*
X004273Y008466D03*
X004270Y008466D03*
X004268Y008466D03*
X004265Y008466D03*
X004438Y007726D03*
X004438Y007501D03*
X004340Y007249D03*
X004385Y009556D03*
D62*
X005518Y009733D03*
X005520Y009733D03*
X007570Y008723D03*
D63*
X007568Y008155D03*
X004530Y008145D03*
X004528Y008153D03*
X004378Y008363D03*
X004168Y008370D03*
X004158Y008590D03*
X004165Y009215D03*
X004378Y009205D03*
X004158Y009765D03*
X004128Y007053D03*
D64*
X005535Y009731D03*
X007568Y008724D03*
D65*
X007565Y008146D03*
X005463Y008604D03*
X004388Y008591D03*
X004380Y008796D03*
X004120Y008074D03*
X004393Y007619D03*
X004343Y007249D03*
X004343Y007044D03*
X004175Y010024D03*
X004165Y010171D03*
D66*
X005555Y009731D03*
X005558Y009731D03*
X007565Y008724D03*
D67*
X007563Y008138D03*
X007560Y008130D03*
X004535Y008130D03*
X004533Y008138D03*
X004380Y008363D03*
X004165Y008370D03*
X004158Y008828D03*
X004260Y008868D03*
X004380Y009205D03*
X004158Y009560D03*
X004388Y009765D03*
X004253Y007728D03*
X004253Y007503D03*
X004255Y007500D03*
D68*
X005568Y009731D03*
X005570Y009731D03*
X007563Y008724D03*
D69*
X007560Y008724D03*
X005593Y009729D03*
X005590Y009729D03*
D70*
X004538Y008121D03*
X004353Y008081D03*
X004148Y007796D03*
X004255Y007724D03*
X004258Y007719D03*
X004355Y007619D03*
X004390Y007619D03*
X004148Y007571D03*
X004118Y007504D03*
X004345Y007249D03*
X004345Y007044D03*
X004125Y007054D03*
X004383Y008796D03*
X004163Y009216D03*
X004388Y009556D03*
X004173Y010024D03*
X004193Y010084D03*
X004163Y010171D03*
X007558Y008121D03*
D71*
X007558Y008725D03*
X005610Y009728D03*
X005608Y009728D03*
D72*
X004540Y008113D03*
X004543Y008105D03*
X004440Y007503D03*
X004260Y007490D03*
X004258Y007495D03*
X004260Y007715D03*
X004118Y007728D03*
X004155Y009765D03*
X007555Y008113D03*
X007553Y008105D03*
D73*
X007555Y008725D03*
X005628Y009725D03*
D74*
X005640Y009724D03*
X005643Y009724D03*
X007553Y008726D03*
D75*
X007550Y008096D03*
X005063Y008604D03*
X004545Y008096D03*
X004383Y008361D03*
X004163Y008371D03*
X004155Y008591D03*
X004155Y008829D03*
X004118Y008074D03*
X004358Y007619D03*
X004388Y007619D03*
X004440Y007726D03*
X004123Y007054D03*
X004170Y010024D03*
D76*
X007550Y008728D03*
D77*
X007548Y008090D03*
X007545Y008083D03*
X004550Y008083D03*
X004548Y008090D03*
X004360Y007620D03*
X004263Y007710D03*
X004263Y007485D03*
X004348Y007248D03*
X004348Y007043D03*
X004153Y006973D03*
X004390Y008590D03*
X004385Y008795D03*
X004383Y009205D03*
X004353Y009285D03*
X004160Y009215D03*
X004155Y009560D03*
X004390Y009765D03*
X004168Y010025D03*
X004160Y010170D03*
D78*
X005670Y009719D03*
X005673Y009719D03*
X007548Y008726D03*
D79*
X007545Y008728D03*
X005688Y009715D03*
D80*
X004553Y008076D03*
X004555Y008069D03*
X004385Y007619D03*
X004383Y007619D03*
X004160Y008371D03*
X004293Y008789D03*
X004390Y009556D03*
X004195Y010084D03*
X007543Y008076D03*
X007540Y008069D03*
D81*
X007543Y008728D03*
X005698Y009713D03*
D82*
X007540Y008729D03*
D83*
X007538Y008063D03*
X007535Y008055D03*
X004560Y008055D03*
X004558Y008063D03*
X004355Y008080D03*
X004385Y008363D03*
X004388Y008795D03*
X004258Y008875D03*
X004385Y009205D03*
X004158Y009215D03*
X004165Y010025D03*
X004150Y007800D03*
X004115Y007728D03*
X004150Y007575D03*
X004115Y007503D03*
X004363Y007620D03*
X004365Y007620D03*
X004368Y007620D03*
X004120Y007055D03*
X004318Y006970D03*
D84*
X007538Y008729D03*
D85*
X007535Y008730D03*
X005735Y009705D03*
D86*
X005465Y008604D03*
X004563Y008049D03*
X004565Y008041D03*
X004380Y007619D03*
X004378Y007619D03*
X004375Y007619D03*
X004373Y007619D03*
X004370Y007619D03*
X004315Y007331D03*
X004350Y007249D03*
X004350Y007044D03*
X004115Y008074D03*
X004193Y008286D03*
X004153Y008591D03*
X004203Y009009D03*
X004158Y010171D03*
X007533Y008049D03*
X007530Y008041D03*
D87*
X007533Y008730D03*
X005748Y009700D03*
D88*
X005760Y009696D03*
X007530Y008731D03*
D89*
X007528Y008035D03*
X007525Y008028D03*
X004570Y008028D03*
X004568Y008035D03*
X004405Y007673D03*
X004405Y007448D03*
X004155Y006968D03*
X004158Y008373D03*
X004153Y008830D03*
X004358Y008878D03*
X004153Y009560D03*
X004153Y009765D03*
X004393Y009765D03*
X004163Y010025D03*
D90*
X005768Y009694D03*
X005770Y009694D03*
X007528Y008731D03*
D91*
X007525Y008733D03*
X005780Y009690D03*
D92*
X004578Y008009D03*
X004573Y008021D03*
X004405Y007786D03*
X004348Y007801D03*
X004443Y007726D03*
X004405Y007561D03*
X004348Y007576D03*
X004443Y007501D03*
X004388Y008361D03*
X004393Y008591D03*
X004445Y008604D03*
X004388Y009204D03*
X004350Y009291D03*
X004190Y009291D03*
X004198Y010084D03*
X004118Y007054D03*
X007518Y008009D03*
X007523Y008021D03*
D93*
X007523Y008733D03*
D94*
X007520Y008015D03*
X007515Y008003D03*
X007513Y007998D03*
X005060Y008605D03*
X004580Y008003D03*
X004583Y007998D03*
X004575Y008015D03*
X004195Y008283D03*
X004190Y008538D03*
X004390Y008795D03*
X004205Y009005D03*
X004190Y009063D03*
X004188Y009065D03*
X004185Y009065D03*
X004155Y009215D03*
X004393Y009555D03*
X004155Y010170D03*
X004153Y007800D03*
X004113Y007728D03*
X004153Y007575D03*
X004113Y007503D03*
X004313Y007335D03*
X004353Y007248D03*
X004318Y007080D03*
X004353Y007043D03*
D95*
X005800Y009683D03*
X007520Y008733D03*
D96*
X007518Y008734D03*
X005810Y009679D03*
D97*
X005818Y009675D03*
X007515Y008735D03*
D98*
X007513Y008735D03*
X005825Y009673D03*
D99*
X005835Y009668D03*
X007510Y008735D03*
D100*
X007508Y007985D03*
X007503Y007973D03*
X007500Y007968D03*
X007493Y007950D03*
X004600Y007955D03*
X004595Y007968D03*
X004593Y007973D03*
X004588Y007985D03*
X004358Y008080D03*
X004315Y008020D03*
X004198Y008280D03*
X004113Y008073D03*
X004298Y007680D03*
X004298Y007455D03*
X004310Y007338D03*
X004115Y007055D03*
X004208Y009003D03*
X004180Y009068D03*
X004178Y009068D03*
X004190Y009175D03*
X004200Y010083D03*
D101*
X005845Y009664D03*
X007508Y008736D03*
D102*
X007505Y008738D03*
X005850Y009660D03*
D103*
X005860Y009655D03*
X007503Y008738D03*
D104*
X007500Y008738D03*
X005865Y009653D03*
D105*
X004598Y007961D03*
X004603Y007949D03*
X004605Y007944D03*
X004608Y007939D03*
X004610Y007934D03*
X004390Y008361D03*
X004150Y008591D03*
X004150Y008831D03*
X004175Y009069D03*
X004173Y009071D03*
X004153Y009216D03*
X004193Y009296D03*
X004345Y009296D03*
X004390Y009204D03*
X004353Y009706D03*
X004353Y009824D03*
X004195Y009949D03*
X004158Y010026D03*
X004160Y006961D03*
X007488Y007939D03*
X007490Y007944D03*
X007495Y007956D03*
X007498Y007961D03*
D106*
X007498Y008739D03*
X005873Y009649D03*
D107*
X005883Y009643D03*
X007495Y008740D03*
D108*
X007493Y008741D03*
X005885Y009641D03*
D109*
X005893Y009636D03*
X007490Y008741D03*
D110*
X007488Y008743D03*
D111*
X007485Y007935D03*
X004350Y008278D03*
X004353Y008403D03*
X004353Y008533D03*
X004353Y008650D03*
X004298Y008773D03*
X004393Y008795D03*
X004353Y008885D03*
X004210Y009000D03*
X004170Y009073D03*
X004350Y009165D03*
X004353Y009503D03*
X004193Y009503D03*
X004150Y009560D03*
X004150Y009765D03*
X004395Y009765D03*
X004203Y010083D03*
X004153Y010170D03*
X004193Y008410D03*
X004200Y008278D03*
X004308Y007340D03*
X004355Y007248D03*
X004315Y007088D03*
X004355Y007043D03*
X004313Y006960D03*
X004163Y006960D03*
D112*
X005905Y009628D03*
X007485Y008743D03*
D113*
X007483Y007929D03*
X007480Y007924D03*
X007478Y007919D03*
X007475Y007914D03*
X004620Y007914D03*
X004618Y007919D03*
X004615Y007924D03*
X004613Y007929D03*
X004313Y008016D03*
X004150Y008019D03*
X004203Y008276D03*
X004153Y008371D03*
X004193Y008529D03*
X004193Y008651D03*
X004395Y008591D03*
X004350Y008886D03*
X004213Y008999D03*
X004168Y009074D03*
X004195Y009299D03*
X004343Y009299D03*
X004193Y009704D03*
X004193Y009826D03*
X004198Y009946D03*
X004193Y010209D03*
X004148Y007679D03*
X004148Y007454D03*
X004403Y007436D03*
X004403Y007661D03*
X004315Y007211D03*
X004155Y007094D03*
D114*
X005910Y009624D03*
X006920Y009371D03*
X006925Y009369D03*
X006928Y009366D03*
X006930Y009366D03*
X006933Y009364D03*
X006938Y009361D03*
X006940Y009359D03*
X006943Y009359D03*
X006945Y009356D03*
X006948Y009354D03*
X006950Y009354D03*
X006953Y009351D03*
X006955Y009349D03*
X006958Y009346D03*
X006960Y009346D03*
X006963Y009344D03*
X006965Y009341D03*
X006975Y009334D03*
X007483Y008744D03*
D115*
X007480Y008743D03*
X006993Y009318D03*
X006990Y009320D03*
X006988Y009323D03*
X006903Y009380D03*
X006900Y009383D03*
X006898Y009383D03*
X006895Y009385D03*
X006893Y009385D03*
D116*
X006880Y009391D03*
X006878Y009391D03*
X006875Y009394D03*
X006873Y009394D03*
X007003Y009309D03*
X007478Y008744D03*
X005920Y009619D03*
D117*
X005925Y009614D03*
X006853Y009401D03*
X007015Y009294D03*
X007475Y008744D03*
D118*
X007473Y007908D03*
X007470Y007903D03*
X007468Y007898D03*
X007465Y007893D03*
X007463Y007888D03*
X007460Y007883D03*
X007458Y007878D03*
X007455Y007873D03*
X004640Y007873D03*
X004638Y007878D03*
X004635Y007883D03*
X004633Y007888D03*
X004630Y007893D03*
X004628Y007898D03*
X004625Y007903D03*
X004623Y007908D03*
X004403Y007798D03*
X004350Y007810D03*
X004350Y007585D03*
X004228Y007455D03*
X004110Y007503D03*
X004110Y007728D03*
X004158Y007098D03*
X004113Y007055D03*
X004165Y006958D03*
X004310Y006958D03*
X004305Y007343D03*
X004348Y008275D03*
X004350Y008408D03*
X004350Y008528D03*
X004350Y008655D03*
X004255Y008888D03*
X004193Y008880D03*
X004215Y008998D03*
X004165Y009075D03*
X004193Y009170D03*
X004340Y009300D03*
X004350Y009498D03*
X004395Y009555D03*
X004195Y009498D03*
X004195Y009700D03*
X004195Y009830D03*
X004155Y010028D03*
X004205Y010083D03*
X004208Y010083D03*
D119*
X005930Y009610D03*
X006838Y009405D03*
X006840Y009405D03*
X007023Y009283D03*
X007473Y008745D03*
D120*
X007470Y008745D03*
X007028Y009275D03*
X006823Y009410D03*
D121*
X006810Y009414D03*
X006808Y009414D03*
X007468Y008746D03*
D122*
X007465Y008748D03*
X006800Y009415D03*
X006798Y009415D03*
X005945Y009598D03*
D123*
X006783Y009418D03*
X006785Y009418D03*
X007463Y008748D03*
D124*
X007460Y008749D03*
X007038Y009251D03*
X006775Y009419D03*
X006773Y009419D03*
D125*
X006765Y009420D03*
X007458Y008750D03*
X005958Y009588D03*
D126*
X005963Y009583D03*
X006755Y009420D03*
X007455Y008750D03*
D127*
X007453Y007869D03*
X007450Y007864D03*
X007448Y007859D03*
X007445Y007854D03*
X005468Y008604D03*
X004643Y007869D03*
X004645Y007864D03*
X004648Y007859D03*
X004650Y007854D03*
X004403Y007574D03*
X004228Y007551D03*
X004155Y007571D03*
X004228Y007679D03*
X004228Y007776D03*
X004155Y007796D03*
X004153Y008014D03*
X004150Y008126D03*
X004205Y008274D03*
X004345Y008274D03*
X004393Y008361D03*
X004348Y008524D03*
X004195Y008526D03*
X004198Y008416D03*
X004195Y008414D03*
X004195Y008656D03*
X004348Y008889D03*
X004218Y008996D03*
X004163Y009076D03*
X004195Y009166D03*
X004150Y009216D03*
X004198Y009301D03*
X004348Y009161D03*
X004393Y009204D03*
X004348Y009496D03*
X004350Y009701D03*
X004350Y009829D03*
X004200Y009944D03*
X004310Y008011D03*
X004303Y007344D03*
X004313Y007206D03*
X004310Y007094D03*
X004313Y007091D03*
X004168Y006956D03*
D128*
X005965Y009580D03*
X007040Y009238D03*
X007453Y008750D03*
D129*
X007450Y008751D03*
X006743Y009421D03*
X006740Y009421D03*
D130*
X006733Y009420D03*
X007448Y008753D03*
X005973Y009573D03*
D131*
X006723Y009420D03*
X006725Y009420D03*
X007445Y008753D03*
D132*
X007443Y007850D03*
X007440Y007845D03*
X007438Y007840D03*
X007435Y007835D03*
X007425Y007818D03*
X004670Y007818D03*
X004660Y007835D03*
X004658Y007840D03*
X004655Y007845D03*
X004653Y007850D03*
X004445Y007728D03*
X004353Y007590D03*
X004445Y007503D03*
X004300Y007345D03*
X004308Y007098D03*
X004358Y007043D03*
X004308Y006955D03*
X004170Y006955D03*
X004160Y007100D03*
X004163Y007103D03*
X004150Y007673D03*
X004155Y008010D03*
X004110Y008073D03*
X004208Y008273D03*
X004315Y008138D03*
X004308Y008010D03*
X004348Y008410D03*
X004198Y008523D03*
X004348Y008658D03*
X004358Y008760D03*
X004300Y008768D03*
X004193Y008773D03*
X004345Y008890D03*
X004220Y008995D03*
X004160Y009078D03*
X004158Y009080D03*
X004345Y009160D03*
X004338Y009303D03*
X004355Y009398D03*
X004358Y009398D03*
X004360Y009398D03*
X004363Y009398D03*
X004365Y009398D03*
X004368Y009398D03*
X004370Y009398D03*
X004373Y009398D03*
X004345Y009493D03*
X004200Y009493D03*
X004198Y009495D03*
X004198Y009698D03*
X004198Y009833D03*
X004203Y009943D03*
X004210Y010083D03*
X004195Y010213D03*
X004348Y009833D03*
X004348Y009698D03*
X004345Y009695D03*
D133*
X006718Y009420D03*
X006720Y009420D03*
X007443Y008753D03*
D134*
X007440Y008754D03*
X006713Y009419D03*
X006710Y009419D03*
X005983Y009561D03*
D135*
X007438Y008754D03*
D136*
X007435Y008755D03*
X006698Y009418D03*
X005990Y009553D03*
D137*
X004663Y007831D03*
X004665Y007826D03*
X004668Y007821D03*
X004673Y007814D03*
X004675Y007809D03*
X004678Y007804D03*
X004683Y007796D03*
X004400Y007804D03*
X004353Y007814D03*
X004295Y007671D03*
X004225Y007674D03*
X004400Y007656D03*
X004400Y007579D03*
X004225Y007449D03*
X004150Y007449D03*
X004358Y007246D03*
X004310Y007204D03*
X004305Y007099D03*
X004165Y007104D03*
X004173Y006954D03*
X004305Y006954D03*
X004303Y008004D03*
X004305Y008006D03*
X004343Y008271D03*
X004210Y008271D03*
X004200Y008419D03*
X004200Y008519D03*
X004198Y008659D03*
X004200Y008661D03*
X004203Y008664D03*
X004303Y008764D03*
X004395Y008794D03*
X004345Y008661D03*
X004345Y008521D03*
X004343Y008519D03*
X004343Y008416D03*
X004345Y008414D03*
X004148Y008831D03*
X004195Y008884D03*
X004223Y008994D03*
X004200Y009161D03*
X004198Y009164D03*
X004200Y009304D03*
X004335Y009304D03*
X004353Y009399D03*
X004375Y009399D03*
X004340Y009489D03*
X004343Y009491D03*
X004203Y009489D03*
X004200Y009694D03*
X004200Y009836D03*
X004205Y009941D03*
X004213Y010081D03*
X004150Y010171D03*
X004198Y010216D03*
X004345Y009834D03*
X004343Y009156D03*
X007413Y007796D03*
X007415Y007801D03*
X007418Y007804D03*
X007420Y007809D03*
X007423Y007814D03*
X007428Y007821D03*
X007430Y007826D03*
X007433Y007831D03*
D138*
X007433Y008755D03*
D139*
X007430Y008756D03*
X005995Y009546D03*
D140*
X005998Y009543D03*
X006683Y009413D03*
X007428Y008758D03*
D141*
X007425Y008759D03*
X006678Y009411D03*
D142*
X006673Y009410D03*
X007423Y008758D03*
D143*
X007420Y008759D03*
X006670Y009409D03*
D144*
X007418Y008760D03*
D145*
X007415Y008760D03*
X006663Y009405D03*
X006010Y009525D03*
D146*
X006013Y009521D03*
X006658Y009404D03*
X007413Y008761D03*
D147*
X007410Y007793D03*
X007408Y007788D03*
X007405Y007785D03*
X007403Y007780D03*
X007400Y007775D03*
X004695Y007775D03*
X004693Y007780D03*
X004690Y007783D03*
X004688Y007788D03*
X004685Y007793D03*
X004680Y007800D03*
X004398Y007653D03*
X004355Y007818D03*
X004225Y007783D03*
X004225Y007558D03*
X004295Y007448D03*
X004298Y007348D03*
X004308Y007203D03*
X004305Y007200D03*
X004300Y007103D03*
X004303Y007100D03*
X004170Y007108D03*
X004168Y007105D03*
X004110Y007055D03*
X004175Y006953D03*
X004303Y006953D03*
X004298Y008000D03*
X004300Y008003D03*
X004360Y008080D03*
X004340Y008270D03*
X004213Y008270D03*
X004150Y008373D03*
X004203Y008420D03*
X004205Y008423D03*
X004208Y008423D03*
X004205Y008515D03*
X004203Y008518D03*
X004205Y008665D03*
X004208Y008668D03*
X004340Y008665D03*
X004343Y008663D03*
X004355Y008755D03*
X004305Y008760D03*
X004343Y008893D03*
X004198Y008885D03*
X004225Y008993D03*
X004228Y008993D03*
X004155Y009083D03*
X004205Y009158D03*
X004203Y009160D03*
X004335Y009153D03*
X004338Y009153D03*
X004340Y009155D03*
X004333Y009305D03*
X004348Y009398D03*
X004350Y009398D03*
X004378Y009398D03*
X004380Y009398D03*
X004335Y009485D03*
X004338Y009488D03*
X004208Y009485D03*
X004205Y009488D03*
X004203Y009305D03*
X004208Y009688D03*
X004205Y009690D03*
X004203Y009693D03*
X004148Y009765D03*
X004203Y009838D03*
X004205Y009840D03*
X004208Y009940D03*
X004153Y010028D03*
X004215Y010083D03*
X004200Y010218D03*
X004335Y009843D03*
X004340Y009840D03*
X004343Y009838D03*
X004343Y009693D03*
X004340Y009690D03*
X004340Y008418D03*
X004153Y008133D03*
X004158Y008008D03*
X004160Y008005D03*
D148*
X006655Y009401D03*
X007410Y008761D03*
D149*
X007408Y008763D03*
X006015Y009518D03*
D150*
X006018Y009514D03*
X006648Y009396D03*
X007405Y008764D03*
D151*
X007403Y008764D03*
D152*
X007400Y008765D03*
X006643Y009393D03*
D153*
X007398Y007771D03*
X007395Y007766D03*
X007393Y007764D03*
X007390Y007759D03*
X007388Y007756D03*
X007385Y007751D03*
X007383Y007746D03*
X007380Y007744D03*
X007378Y007739D03*
X007375Y007736D03*
X007370Y007729D03*
X005058Y008604D03*
X004698Y007771D03*
X004700Y007766D03*
X004703Y007764D03*
X004705Y007759D03*
X004708Y007756D03*
X004710Y007751D03*
X004713Y007746D03*
X004715Y007744D03*
X004718Y007739D03*
X004720Y007736D03*
X004723Y007731D03*
X004295Y007999D03*
X004168Y007999D03*
X004155Y008134D03*
X004215Y008269D03*
X004338Y008269D03*
X004395Y008361D03*
X004338Y008419D03*
X004335Y008421D03*
X004333Y008421D03*
X004330Y008424D03*
X004328Y008424D03*
X004328Y008509D03*
X004333Y008511D03*
X004335Y008514D03*
X004338Y008514D03*
X004340Y008516D03*
X004223Y008506D03*
X004218Y008509D03*
X004213Y008511D03*
X004210Y008511D03*
X004208Y008514D03*
X004220Y008429D03*
X004223Y008429D03*
X004215Y008426D03*
X004213Y008426D03*
X004210Y008424D03*
X004148Y008591D03*
X004210Y008669D03*
X004215Y008671D03*
X004220Y008674D03*
X004330Y008671D03*
X004333Y008669D03*
X004335Y008669D03*
X004338Y008666D03*
X004353Y008754D03*
X004340Y008894D03*
X004200Y008889D03*
X004230Y008991D03*
X004153Y009084D03*
X004210Y009154D03*
X004213Y009154D03*
X004215Y009151D03*
X004218Y009151D03*
X004223Y009149D03*
X004208Y009156D03*
X004320Y009146D03*
X004328Y009149D03*
X004330Y009149D03*
X004333Y009151D03*
X004330Y009306D03*
X004205Y009306D03*
X004220Y009479D03*
X004215Y009481D03*
X004213Y009484D03*
X004210Y009484D03*
X004148Y009559D03*
X004190Y009606D03*
X004220Y009681D03*
X004215Y009684D03*
X004210Y009686D03*
X004330Y009684D03*
X004333Y009686D03*
X004335Y009686D03*
X004338Y009689D03*
X004338Y009841D03*
X004333Y009844D03*
X004328Y009846D03*
X004323Y009849D03*
X004215Y009846D03*
X004213Y009844D03*
X004210Y009844D03*
X004208Y009841D03*
X004210Y009939D03*
X004218Y010081D03*
X004220Y010081D03*
X004223Y010081D03*
X004203Y010219D03*
X004208Y010221D03*
X004333Y009484D03*
X004330Y009481D03*
X004328Y009481D03*
X004325Y009479D03*
X004323Y009479D03*
X004153Y007669D03*
X004155Y007666D03*
X004153Y007444D03*
X004223Y007446D03*
X004295Y007349D03*
X004300Y007199D03*
X004303Y007199D03*
X004295Y007196D03*
X004283Y007111D03*
X004288Y007109D03*
X004290Y007109D03*
X004293Y007106D03*
X004295Y007106D03*
X004298Y007104D03*
X004190Y007114D03*
X004188Y007114D03*
X004183Y007111D03*
X004180Y007111D03*
X004178Y007111D03*
X004175Y007109D03*
X004173Y007109D03*
X004178Y006951D03*
X004300Y006951D03*
D154*
X006023Y009505D03*
X007398Y008765D03*
D155*
X007395Y008766D03*
D156*
X007393Y008765D03*
D157*
X007390Y008766D03*
X006028Y009494D03*
D158*
X007388Y008768D03*
D159*
X007385Y008768D03*
D160*
X007383Y008769D03*
D161*
X007380Y008770D03*
X006033Y009483D03*
D162*
X007378Y008771D03*
D163*
X007375Y008771D03*
D164*
X007373Y007733D03*
X007368Y007725D03*
X007365Y007720D03*
X007363Y007718D03*
X007360Y007713D03*
X007358Y007710D03*
X007348Y007695D03*
X004748Y007695D03*
X004738Y007710D03*
X004735Y007713D03*
X004733Y007718D03*
X004730Y007720D03*
X004728Y007725D03*
X004725Y007728D03*
X004398Y007808D03*
X004395Y007810D03*
X004358Y007820D03*
X004358Y007900D03*
X004355Y007900D03*
X004353Y007900D03*
X004350Y007900D03*
X004348Y007900D03*
X004345Y007900D03*
X004343Y007900D03*
X004340Y007900D03*
X004338Y007900D03*
X004335Y007900D03*
X004333Y007900D03*
X004330Y007900D03*
X004328Y007900D03*
X004325Y007900D03*
X004323Y007900D03*
X004320Y007900D03*
X004318Y007900D03*
X004315Y007900D03*
X004313Y007900D03*
X004310Y007900D03*
X004308Y007900D03*
X004305Y007900D03*
X004303Y007900D03*
X004300Y007900D03*
X004298Y007900D03*
X004295Y007900D03*
X004293Y007900D03*
X004290Y007900D03*
X004288Y007900D03*
X004285Y007900D03*
X004283Y007900D03*
X004280Y007900D03*
X004278Y007900D03*
X004275Y007900D03*
X004273Y007900D03*
X004270Y007900D03*
X004268Y007900D03*
X004265Y007900D03*
X004263Y007900D03*
X004260Y007900D03*
X004258Y007900D03*
X004255Y007900D03*
X004253Y007900D03*
X004250Y007900D03*
X004248Y007900D03*
X004245Y007900D03*
X004243Y007900D03*
X004240Y007900D03*
X004238Y007900D03*
X004235Y007900D03*
X004233Y007900D03*
X004230Y007900D03*
X004228Y007900D03*
X004225Y007900D03*
X004223Y007900D03*
X004220Y007900D03*
X004218Y007900D03*
X004215Y007900D03*
X004213Y007900D03*
X004210Y007900D03*
X004208Y007900D03*
X004205Y007900D03*
X004203Y007900D03*
X004200Y007900D03*
X004198Y007900D03*
X004195Y007900D03*
X004193Y007900D03*
X004190Y007900D03*
X004188Y007900D03*
X004185Y007900D03*
X004183Y007900D03*
X004180Y007900D03*
X004178Y007900D03*
X004175Y007900D03*
X004173Y007900D03*
X004170Y007900D03*
X004168Y007900D03*
X004165Y007900D03*
X004163Y007900D03*
X004160Y007900D03*
X004158Y007900D03*
X004155Y007900D03*
X004153Y007900D03*
X004150Y007900D03*
X004148Y007900D03*
X004145Y007900D03*
X004143Y007900D03*
X004140Y007900D03*
X004138Y007900D03*
X004135Y007900D03*
X004133Y007900D03*
X004130Y007900D03*
X004128Y007900D03*
X004125Y007900D03*
X004123Y007900D03*
X004120Y007900D03*
X004118Y007900D03*
X004115Y007900D03*
X004113Y007900D03*
X004110Y007900D03*
X004108Y007900D03*
X004105Y007900D03*
X004103Y007900D03*
X004100Y007900D03*
X004098Y007900D03*
X004095Y007900D03*
X004093Y007900D03*
X004090Y007900D03*
X004088Y007900D03*
X004085Y007900D03*
X004083Y007900D03*
X004080Y007900D03*
X004078Y007900D03*
X004075Y007900D03*
X004073Y007900D03*
X004070Y007900D03*
X004068Y007900D03*
X004065Y007900D03*
X004063Y007900D03*
X004060Y007900D03*
X004058Y007900D03*
X004055Y007900D03*
X004053Y007900D03*
X004050Y007900D03*
X004048Y007900D03*
X004045Y007900D03*
X004043Y007900D03*
X004040Y007900D03*
X004038Y007900D03*
X004035Y007900D03*
X004033Y007900D03*
X004030Y007900D03*
X004028Y007900D03*
X004025Y007900D03*
X004023Y007900D03*
X004020Y007900D03*
X004018Y007900D03*
X004015Y007900D03*
X004013Y007900D03*
X004010Y007900D03*
X004008Y007900D03*
X004005Y007900D03*
X004003Y007900D03*
X004000Y007900D03*
X004163Y008003D03*
X004165Y008000D03*
X004170Y007998D03*
X004278Y007990D03*
X004283Y007993D03*
X004285Y007993D03*
X004288Y007995D03*
X004290Y007995D03*
X004293Y007998D03*
X004158Y008138D03*
X004218Y008268D03*
X004335Y008268D03*
X004325Y008425D03*
X004323Y008428D03*
X004320Y008428D03*
X004318Y008428D03*
X004315Y008430D03*
X004313Y008430D03*
X004310Y008430D03*
X004305Y008433D03*
X004303Y008433D03*
X004300Y008433D03*
X004298Y008433D03*
X004288Y008435D03*
X004285Y008435D03*
X004283Y008435D03*
X004280Y008435D03*
X004263Y008435D03*
X004260Y008435D03*
X004258Y008435D03*
X004255Y008435D03*
X004253Y008435D03*
X004250Y008435D03*
X004243Y008433D03*
X004240Y008433D03*
X004238Y008433D03*
X004235Y008433D03*
X004233Y008433D03*
X004230Y008430D03*
X004228Y008430D03*
X004225Y008430D03*
X004218Y008428D03*
X004230Y008503D03*
X004233Y008503D03*
X004235Y008503D03*
X004238Y008503D03*
X004243Y008500D03*
X004245Y008500D03*
X004248Y008500D03*
X004250Y008500D03*
X004253Y008500D03*
X004228Y008505D03*
X004225Y008505D03*
X004220Y008508D03*
X004215Y008510D03*
X004293Y008500D03*
X004295Y008500D03*
X004298Y008500D03*
X004300Y008500D03*
X004303Y008500D03*
X004308Y008503D03*
X004310Y008503D03*
X004313Y008503D03*
X004318Y008505D03*
X004320Y008505D03*
X004323Y008508D03*
X004325Y008508D03*
X004330Y008510D03*
X004328Y008673D03*
X004325Y008673D03*
X004323Y008675D03*
X004320Y008675D03*
X004315Y008678D03*
X004313Y008678D03*
X004305Y008680D03*
X004303Y008680D03*
X004300Y008680D03*
X004290Y008683D03*
X004288Y008683D03*
X004285Y008683D03*
X004283Y008683D03*
X004280Y008683D03*
X004278Y008683D03*
X004275Y008683D03*
X004273Y008683D03*
X004270Y008683D03*
X004268Y008683D03*
X004265Y008683D03*
X004263Y008683D03*
X004260Y008683D03*
X004258Y008683D03*
X004255Y008683D03*
X004253Y008683D03*
X004245Y008680D03*
X004243Y008680D03*
X004240Y008680D03*
X004238Y008680D03*
X004233Y008678D03*
X004230Y008678D03*
X004228Y008678D03*
X004225Y008675D03*
X004223Y008675D03*
X004218Y008673D03*
X004213Y008670D03*
X004308Y008758D03*
X004310Y008755D03*
X004350Y008753D03*
X004338Y008895D03*
X004208Y008893D03*
X004205Y008890D03*
X004203Y008890D03*
X004233Y008990D03*
X004235Y008990D03*
X004243Y009143D03*
X004245Y009143D03*
X004248Y009143D03*
X004250Y009143D03*
X004253Y009143D03*
X004255Y009143D03*
X004270Y009140D03*
X004273Y009140D03*
X004275Y009140D03*
X004295Y009143D03*
X004298Y009143D03*
X004300Y009143D03*
X004303Y009143D03*
X004305Y009143D03*
X004308Y009143D03*
X004310Y009145D03*
X004313Y009145D03*
X004315Y009145D03*
X004318Y009145D03*
X004323Y009148D03*
X004325Y009148D03*
X004238Y009145D03*
X004235Y009145D03*
X004233Y009145D03*
X004228Y009148D03*
X004225Y009148D03*
X004220Y009150D03*
X004208Y009308D03*
X004328Y009308D03*
X004345Y009398D03*
X004383Y009398D03*
X004320Y009478D03*
X004318Y009478D03*
X004315Y009475D03*
X004313Y009475D03*
X004310Y009475D03*
X004305Y009473D03*
X004303Y009473D03*
X004300Y009473D03*
X004288Y009470D03*
X004285Y009470D03*
X004283Y009470D03*
X004280Y009470D03*
X004278Y009470D03*
X004275Y009470D03*
X004273Y009470D03*
X004270Y009470D03*
X004268Y009470D03*
X004265Y009470D03*
X004263Y009470D03*
X004260Y009470D03*
X004258Y009470D03*
X004255Y009470D03*
X004245Y009473D03*
X004243Y009473D03*
X004240Y009473D03*
X004235Y009475D03*
X004233Y009475D03*
X004230Y009475D03*
X004228Y009478D03*
X004225Y009478D03*
X004223Y009478D03*
X004218Y009480D03*
X004353Y009613D03*
X004323Y009680D03*
X004320Y009680D03*
X004318Y009680D03*
X004315Y009678D03*
X004313Y009678D03*
X004310Y009678D03*
X004305Y009675D03*
X004303Y009675D03*
X004300Y009675D03*
X004298Y009675D03*
X004290Y009673D03*
X004288Y009673D03*
X004285Y009673D03*
X004283Y009673D03*
X004280Y009673D03*
X004278Y009673D03*
X004275Y009673D03*
X004273Y009673D03*
X004270Y009673D03*
X004268Y009673D03*
X004265Y009673D03*
X004263Y009673D03*
X004260Y009673D03*
X004258Y009673D03*
X004255Y009673D03*
X004245Y009675D03*
X004243Y009675D03*
X004240Y009675D03*
X004238Y009675D03*
X004235Y009678D03*
X004233Y009678D03*
X004230Y009678D03*
X004228Y009678D03*
X004225Y009680D03*
X004223Y009680D03*
X004218Y009683D03*
X004213Y009685D03*
X004325Y009683D03*
X004328Y009683D03*
X004330Y009845D03*
X004325Y009848D03*
X004320Y009850D03*
X004318Y009850D03*
X004313Y009853D03*
X004310Y009853D03*
X004308Y009853D03*
X004303Y009855D03*
X004300Y009855D03*
X004298Y009855D03*
X004295Y009855D03*
X004283Y009858D03*
X004280Y009858D03*
X004278Y009858D03*
X004275Y009858D03*
X004273Y009858D03*
X004270Y009858D03*
X004268Y009858D03*
X004265Y009858D03*
X004263Y009858D03*
X004250Y009855D03*
X004248Y009855D03*
X004245Y009855D03*
X004243Y009855D03*
X004235Y009853D03*
X004233Y009853D03*
X004230Y009853D03*
X004228Y009850D03*
X004225Y009850D03*
X004223Y009850D03*
X004220Y009848D03*
X004218Y009848D03*
X004213Y009938D03*
X004225Y010083D03*
X004205Y010220D03*
X004210Y010223D03*
X004213Y010223D03*
X004223Y010225D03*
X004395Y009203D03*
X004223Y007785D03*
X004223Y007670D03*
X004220Y007668D03*
X004158Y007665D03*
X004158Y007568D03*
X004223Y007560D03*
X004220Y007443D03*
X004158Y007440D03*
X004155Y007443D03*
X004293Y007350D03*
X004298Y007198D03*
X004293Y007195D03*
X004290Y007195D03*
X004278Y007193D03*
X004275Y007193D03*
X004273Y007193D03*
X004270Y007193D03*
X004260Y007118D03*
X004258Y007118D03*
X004255Y007118D03*
X004253Y007118D03*
X004250Y007118D03*
X004248Y007118D03*
X004245Y007118D03*
X004243Y007118D03*
X004240Y007118D03*
X004238Y007118D03*
X004235Y007118D03*
X004233Y007118D03*
X004230Y007118D03*
X004228Y007118D03*
X004225Y007118D03*
X004223Y007118D03*
X004220Y007118D03*
X004218Y007118D03*
X004215Y007118D03*
X004213Y007118D03*
X004210Y007118D03*
X004208Y007118D03*
X004205Y007118D03*
X004203Y007118D03*
X004200Y007115D03*
X004198Y007115D03*
X004195Y007115D03*
X004193Y007115D03*
X004185Y007113D03*
X004265Y007115D03*
X004268Y007115D03*
X004270Y007115D03*
X004273Y007115D03*
X004275Y007113D03*
X004278Y007113D03*
X004280Y007113D03*
X004285Y007110D03*
X004298Y006950D03*
X004375Y006950D03*
X004180Y006950D03*
X004398Y007583D03*
X004395Y007650D03*
X004293Y007668D03*
D165*
X007373Y008773D03*
D166*
X007370Y008773D03*
D167*
X007368Y008773D03*
D168*
X007365Y008774D03*
D169*
X007363Y008774D03*
D170*
X007360Y008775D03*
D171*
X007358Y008775D03*
D172*
X007355Y007706D03*
X007353Y007701D03*
X007350Y007699D03*
X007345Y007691D03*
X007343Y007689D03*
X007340Y007684D03*
X007338Y007681D03*
X007335Y007676D03*
X007333Y007674D03*
X007330Y007671D03*
X007328Y007666D03*
X007325Y007664D03*
X007318Y007654D03*
X004770Y007664D03*
X004768Y007666D03*
X004765Y007671D03*
X004763Y007674D03*
X004760Y007676D03*
X004758Y007681D03*
X004755Y007684D03*
X004753Y007689D03*
X004750Y007691D03*
X004745Y007699D03*
X004743Y007701D03*
X004740Y007706D03*
X004440Y006949D03*
X004438Y006949D03*
X004435Y006949D03*
X004433Y006949D03*
X004430Y006949D03*
X004428Y006949D03*
X004425Y006949D03*
X004423Y006949D03*
X004420Y006949D03*
X004418Y006949D03*
X004415Y006949D03*
X004413Y006949D03*
X004410Y006949D03*
X004408Y006949D03*
X004405Y006949D03*
X004403Y006949D03*
X004373Y006949D03*
X004370Y006949D03*
X004368Y006949D03*
X004365Y006949D03*
X004363Y006949D03*
X004360Y006949D03*
X004358Y006949D03*
X004355Y006949D03*
X004353Y006949D03*
X004350Y006949D03*
X004348Y006949D03*
X004345Y006949D03*
X004343Y006949D03*
X004295Y006949D03*
X004293Y006949D03*
X004290Y006949D03*
X004288Y006949D03*
X004285Y006949D03*
X004283Y006949D03*
X004280Y006949D03*
X004278Y006949D03*
X004275Y006949D03*
X004273Y006949D03*
X004270Y006949D03*
X004268Y006949D03*
X004265Y006949D03*
X004263Y006949D03*
X004260Y006949D03*
X004258Y006949D03*
X004255Y006949D03*
X004253Y006949D03*
X004250Y006949D03*
X004248Y006949D03*
X004245Y006949D03*
X004243Y006949D03*
X004240Y006949D03*
X004238Y006949D03*
X004235Y006949D03*
X004233Y006949D03*
X004230Y006949D03*
X004228Y006949D03*
X004225Y006949D03*
X004223Y006949D03*
X004220Y006949D03*
X004218Y006949D03*
X004215Y006949D03*
X004213Y006949D03*
X004210Y006949D03*
X004208Y006949D03*
X004205Y006949D03*
X004203Y006949D03*
X004200Y006949D03*
X004198Y006949D03*
X004195Y006949D03*
X004193Y006949D03*
X004190Y006949D03*
X004188Y006949D03*
X004185Y006949D03*
X004183Y006949D03*
X004263Y007116D03*
X004263Y007191D03*
X004265Y007191D03*
X004268Y007191D03*
X004260Y007191D03*
X004258Y007191D03*
X004255Y007191D03*
X004253Y007191D03*
X004250Y007191D03*
X004248Y007191D03*
X004245Y007191D03*
X004243Y007191D03*
X004240Y007191D03*
X004238Y007191D03*
X004235Y007191D03*
X004233Y007191D03*
X004230Y007191D03*
X004228Y007191D03*
X004225Y007191D03*
X004223Y007191D03*
X004220Y007191D03*
X004218Y007191D03*
X004215Y007191D03*
X004213Y007191D03*
X004210Y007191D03*
X004208Y007191D03*
X004205Y007191D03*
X004203Y007191D03*
X004200Y007191D03*
X004198Y007191D03*
X004195Y007191D03*
X004193Y007191D03*
X004190Y007191D03*
X004188Y007191D03*
X004185Y007191D03*
X004183Y007191D03*
X004180Y007191D03*
X004178Y007191D03*
X004175Y007191D03*
X004173Y007191D03*
X004170Y007191D03*
X004168Y007191D03*
X004165Y007191D03*
X004163Y007191D03*
X004160Y007191D03*
X004158Y007191D03*
X004155Y007191D03*
X004153Y007191D03*
X004150Y007191D03*
X004148Y007191D03*
X004145Y007191D03*
X004143Y007191D03*
X004140Y007191D03*
X004138Y007191D03*
X004135Y007191D03*
X004133Y007191D03*
X004130Y007191D03*
X004128Y007191D03*
X004125Y007191D03*
X004123Y007191D03*
X004120Y007191D03*
X004118Y007191D03*
X004115Y007191D03*
X004113Y007191D03*
X004110Y007191D03*
X004110Y007351D03*
X004113Y007351D03*
X004115Y007351D03*
X004118Y007351D03*
X004120Y007351D03*
X004123Y007351D03*
X004125Y007351D03*
X004128Y007351D03*
X004130Y007351D03*
X004133Y007351D03*
X004135Y007351D03*
X004138Y007351D03*
X004140Y007351D03*
X004143Y007351D03*
X004145Y007351D03*
X004148Y007351D03*
X004150Y007351D03*
X004153Y007351D03*
X004155Y007351D03*
X004158Y007351D03*
X004160Y007351D03*
X004163Y007351D03*
X004165Y007351D03*
X004168Y007351D03*
X004170Y007351D03*
X004173Y007351D03*
X004175Y007351D03*
X004178Y007351D03*
X004180Y007351D03*
X004183Y007351D03*
X004185Y007351D03*
X004188Y007351D03*
X004190Y007351D03*
X004193Y007351D03*
X004195Y007351D03*
X004198Y007351D03*
X004200Y007351D03*
X004203Y007351D03*
X004205Y007351D03*
X004208Y007351D03*
X004210Y007351D03*
X004213Y007351D03*
X004215Y007351D03*
X004218Y007351D03*
X004220Y007351D03*
X004223Y007351D03*
X004225Y007351D03*
X004228Y007351D03*
X004230Y007351D03*
X004233Y007351D03*
X004235Y007351D03*
X004238Y007351D03*
X004240Y007351D03*
X004243Y007351D03*
X004245Y007351D03*
X004248Y007351D03*
X004250Y007351D03*
X004253Y007351D03*
X004255Y007351D03*
X004258Y007351D03*
X004260Y007351D03*
X004263Y007351D03*
X004265Y007351D03*
X004268Y007351D03*
X004270Y007351D03*
X004273Y007351D03*
X004275Y007351D03*
X004278Y007351D03*
X004280Y007351D03*
X004283Y007351D03*
X004285Y007351D03*
X004288Y007351D03*
X004290Y007351D03*
X004293Y007444D03*
X004218Y007441D03*
X004215Y007439D03*
X004160Y007439D03*
X004220Y007564D03*
X004218Y007566D03*
X004215Y007664D03*
X004218Y007666D03*
X004163Y007661D03*
X004160Y007664D03*
X004158Y007791D03*
X004220Y007789D03*
X004360Y007821D03*
X004363Y007821D03*
X004280Y007991D03*
X004275Y007989D03*
X004273Y007989D03*
X004270Y007989D03*
X004268Y007986D03*
X004265Y007986D03*
X004263Y007986D03*
X004260Y007986D03*
X004258Y007986D03*
X004253Y007984D03*
X004250Y007984D03*
X004248Y007984D03*
X004245Y007984D03*
X004243Y007984D03*
X004205Y007986D03*
X004203Y007986D03*
X004200Y007986D03*
X004198Y007986D03*
X004195Y007986D03*
X004190Y007989D03*
X004188Y007989D03*
X004185Y007991D03*
X004183Y007991D03*
X004180Y007991D03*
X004178Y007994D03*
X004175Y007994D03*
X004173Y007996D03*
X004160Y008139D03*
X004163Y008141D03*
X004163Y008266D03*
X004165Y008266D03*
X004168Y008266D03*
X004170Y008266D03*
X004173Y008266D03*
X004175Y008266D03*
X004160Y008266D03*
X004158Y008266D03*
X004155Y008266D03*
X004153Y008266D03*
X004150Y008266D03*
X004148Y008266D03*
X004145Y008266D03*
X004143Y008266D03*
X004140Y008266D03*
X004138Y008266D03*
X004135Y008266D03*
X004133Y008266D03*
X004130Y008266D03*
X004128Y008266D03*
X004125Y008266D03*
X004123Y008266D03*
X004120Y008266D03*
X004118Y008266D03*
X004115Y008266D03*
X004113Y008266D03*
X004110Y008266D03*
X004108Y008266D03*
X004105Y008266D03*
X004103Y008266D03*
X004100Y008266D03*
X004098Y008266D03*
X004095Y008266D03*
X004093Y008266D03*
X004090Y008266D03*
X004088Y008266D03*
X004085Y008266D03*
X004083Y008266D03*
X004080Y008266D03*
X004078Y008266D03*
X004075Y008266D03*
X004073Y008266D03*
X004070Y008266D03*
X004068Y008266D03*
X004065Y008266D03*
X004063Y008266D03*
X004060Y008266D03*
X004058Y008266D03*
X004055Y008266D03*
X004053Y008266D03*
X004050Y008266D03*
X004048Y008266D03*
X004045Y008266D03*
X004043Y008266D03*
X004040Y008266D03*
X004038Y008266D03*
X004220Y008266D03*
X004223Y008266D03*
X004225Y008266D03*
X004228Y008266D03*
X004230Y008266D03*
X004233Y008266D03*
X004235Y008266D03*
X004238Y008266D03*
X004240Y008266D03*
X004243Y008266D03*
X004245Y008266D03*
X004248Y008266D03*
X004250Y008266D03*
X004253Y008266D03*
X004255Y008266D03*
X004258Y008266D03*
X004260Y008266D03*
X004263Y008266D03*
X004265Y008266D03*
X004268Y008266D03*
X004270Y008266D03*
X004273Y008266D03*
X004275Y008266D03*
X004278Y008266D03*
X004280Y008266D03*
X004283Y008266D03*
X004285Y008266D03*
X004288Y008266D03*
X004290Y008266D03*
X004293Y008266D03*
X004295Y008266D03*
X004298Y008266D03*
X004300Y008266D03*
X004303Y008266D03*
X004305Y008266D03*
X004308Y008266D03*
X004310Y008266D03*
X004313Y008266D03*
X004315Y008266D03*
X004318Y008266D03*
X004320Y008266D03*
X004323Y008266D03*
X004325Y008266D03*
X004328Y008266D03*
X004330Y008266D03*
X004333Y008266D03*
X004313Y008141D03*
X004308Y008431D03*
X004295Y008434D03*
X004293Y008434D03*
X004290Y008434D03*
X004248Y008434D03*
X004245Y008434D03*
X004255Y008499D03*
X004258Y008499D03*
X004260Y008499D03*
X004263Y008499D03*
X004280Y008499D03*
X004283Y008499D03*
X004285Y008499D03*
X004288Y008499D03*
X004290Y008499D03*
X004305Y008501D03*
X004315Y008504D03*
X004240Y008501D03*
X004235Y008679D03*
X004248Y008681D03*
X004250Y008681D03*
X004293Y008681D03*
X004295Y008681D03*
X004298Y008681D03*
X004308Y008679D03*
X004310Y008679D03*
X004318Y008676D03*
X004318Y008751D03*
X004313Y008754D03*
X004340Y008749D03*
X004343Y008749D03*
X004348Y008751D03*
X004335Y008896D03*
X004225Y008896D03*
X004223Y008896D03*
X004220Y008896D03*
X004218Y008896D03*
X004215Y008894D03*
X004213Y008894D03*
X004210Y008894D03*
X004238Y008989D03*
X004240Y008989D03*
X004258Y009141D03*
X004260Y009141D03*
X004263Y009141D03*
X004265Y009141D03*
X004268Y009141D03*
X004278Y009141D03*
X004280Y009141D03*
X004283Y009141D03*
X004285Y009141D03*
X004288Y009141D03*
X004290Y009141D03*
X004293Y009141D03*
X004240Y009144D03*
X004230Y009146D03*
X004148Y009216D03*
X004148Y009309D03*
X004150Y009309D03*
X004153Y009309D03*
X004155Y009309D03*
X004158Y009309D03*
X004160Y009309D03*
X004163Y009309D03*
X004165Y009309D03*
X004145Y009309D03*
X004143Y009309D03*
X004140Y009309D03*
X004138Y009309D03*
X004135Y009309D03*
X004133Y009309D03*
X004130Y009309D03*
X004128Y009309D03*
X004125Y009309D03*
X004123Y009309D03*
X004120Y009309D03*
X004118Y009309D03*
X004115Y009309D03*
X004113Y009309D03*
X004110Y009309D03*
X004108Y009309D03*
X004105Y009309D03*
X004103Y009309D03*
X004100Y009309D03*
X004098Y009309D03*
X004095Y009309D03*
X004093Y009309D03*
X004090Y009309D03*
X004088Y009309D03*
X004085Y009309D03*
X004083Y009309D03*
X004080Y009309D03*
X004078Y009309D03*
X004075Y009309D03*
X004073Y009309D03*
X004070Y009309D03*
X004068Y009309D03*
X004065Y009309D03*
X004063Y009309D03*
X004060Y009309D03*
X004058Y009309D03*
X004055Y009309D03*
X004053Y009309D03*
X004050Y009309D03*
X004048Y009309D03*
X004045Y009309D03*
X004043Y009309D03*
X004040Y009309D03*
X004038Y009309D03*
X004210Y009309D03*
X004213Y009309D03*
X004215Y009309D03*
X004218Y009309D03*
X004220Y009309D03*
X004223Y009309D03*
X004225Y009309D03*
X004228Y009309D03*
X004230Y009309D03*
X004233Y009309D03*
X004235Y009309D03*
X004238Y009309D03*
X004240Y009309D03*
X004243Y009309D03*
X004245Y009309D03*
X004248Y009309D03*
X004250Y009309D03*
X004253Y009309D03*
X004255Y009309D03*
X004258Y009309D03*
X004260Y009309D03*
X004263Y009309D03*
X004265Y009309D03*
X004268Y009309D03*
X004270Y009309D03*
X004273Y009309D03*
X004275Y009309D03*
X004278Y009309D03*
X004280Y009309D03*
X004283Y009309D03*
X004285Y009309D03*
X004288Y009309D03*
X004290Y009309D03*
X004293Y009309D03*
X004295Y009309D03*
X004298Y009309D03*
X004300Y009309D03*
X004303Y009309D03*
X004305Y009309D03*
X004308Y009309D03*
X004310Y009309D03*
X004313Y009309D03*
X004315Y009309D03*
X004318Y009309D03*
X004320Y009309D03*
X004323Y009309D03*
X004325Y009309D03*
X004343Y009399D03*
X004385Y009399D03*
X004308Y009474D03*
X004298Y009471D03*
X004295Y009471D03*
X004293Y009471D03*
X004290Y009471D03*
X004253Y009471D03*
X004250Y009471D03*
X004248Y009471D03*
X004238Y009474D03*
X004248Y009674D03*
X004250Y009674D03*
X004253Y009674D03*
X004293Y009674D03*
X004295Y009674D03*
X004308Y009676D03*
X004315Y009851D03*
X004305Y009854D03*
X004293Y009856D03*
X004290Y009856D03*
X004288Y009856D03*
X004285Y009856D03*
X004260Y009856D03*
X004258Y009856D03*
X004255Y009856D03*
X004253Y009856D03*
X004240Y009854D03*
X004238Y009854D03*
X004238Y009936D03*
X004240Y009936D03*
X004243Y009936D03*
X004245Y009936D03*
X004248Y009936D03*
X004250Y009936D03*
X004253Y009936D03*
X004255Y009936D03*
X004258Y009936D03*
X004260Y009936D03*
X004263Y009936D03*
X004265Y009936D03*
X004268Y009936D03*
X004270Y009936D03*
X004273Y009936D03*
X004275Y009936D03*
X004278Y009936D03*
X004280Y009936D03*
X004283Y009936D03*
X004285Y009936D03*
X004288Y009936D03*
X004290Y009936D03*
X004293Y009936D03*
X004295Y009936D03*
X004298Y009936D03*
X004300Y009936D03*
X004303Y009936D03*
X004305Y009936D03*
X004308Y009936D03*
X004310Y009936D03*
X004313Y009936D03*
X004315Y009936D03*
X004318Y009936D03*
X004320Y009936D03*
X004323Y009936D03*
X004325Y009936D03*
X004328Y009936D03*
X004330Y009936D03*
X004333Y009936D03*
X004335Y009936D03*
X004338Y009936D03*
X004340Y009936D03*
X004343Y009936D03*
X004345Y009936D03*
X004348Y009936D03*
X004350Y009936D03*
X004353Y009936D03*
X004355Y009936D03*
X004358Y009936D03*
X004360Y009936D03*
X004363Y009936D03*
X004365Y009936D03*
X004368Y009936D03*
X004370Y009936D03*
X004373Y009936D03*
X004375Y009936D03*
X004378Y009936D03*
X004380Y009936D03*
X004383Y009936D03*
X004385Y009936D03*
X004388Y009936D03*
X004390Y009936D03*
X004393Y009936D03*
X004395Y009936D03*
X004395Y010081D03*
X004393Y010081D03*
X004390Y010081D03*
X004388Y010081D03*
X004385Y010081D03*
X004383Y010081D03*
X004380Y010081D03*
X004378Y010081D03*
X004375Y010081D03*
X004373Y010081D03*
X004370Y010081D03*
X004368Y010081D03*
X004365Y010081D03*
X004363Y010081D03*
X004360Y010081D03*
X004358Y010081D03*
X004355Y010081D03*
X004353Y010081D03*
X004350Y010081D03*
X004348Y010081D03*
X004345Y010081D03*
X004343Y010081D03*
X004340Y010081D03*
X004338Y010081D03*
X004335Y010081D03*
X004333Y010081D03*
X004330Y010081D03*
X004328Y010081D03*
X004325Y010081D03*
X004323Y010081D03*
X004320Y010081D03*
X004318Y010081D03*
X004315Y010081D03*
X004313Y010081D03*
X004310Y010081D03*
X004308Y010081D03*
X004305Y010081D03*
X004303Y010081D03*
X004300Y010081D03*
X004298Y010081D03*
X004295Y010081D03*
X004293Y010081D03*
X004290Y010081D03*
X004288Y010081D03*
X004285Y010081D03*
X004283Y010081D03*
X004280Y010081D03*
X004278Y010081D03*
X004275Y010081D03*
X004273Y010081D03*
X004270Y010081D03*
X004268Y010081D03*
X004265Y010081D03*
X004263Y010081D03*
X004260Y010081D03*
X004258Y010081D03*
X004255Y010081D03*
X004253Y010081D03*
X004250Y010081D03*
X004248Y010081D03*
X004245Y010081D03*
X004243Y010081D03*
X004240Y010081D03*
X004238Y010081D03*
X004235Y010081D03*
X004233Y010081D03*
X004230Y010081D03*
X004228Y010081D03*
X004220Y010224D03*
X004218Y010224D03*
X004215Y010224D03*
X004225Y010226D03*
X004228Y010226D03*
X004230Y010226D03*
X004233Y010226D03*
X004235Y010226D03*
X004238Y010226D03*
X004240Y010226D03*
X004243Y010226D03*
X004245Y010226D03*
X004248Y010226D03*
X004250Y010226D03*
X004253Y010226D03*
X004255Y010226D03*
X004258Y010226D03*
X004260Y010226D03*
X004263Y010226D03*
X004265Y010226D03*
X004268Y010226D03*
X004270Y010226D03*
X004273Y010226D03*
X004275Y010226D03*
X004278Y010226D03*
X004280Y010226D03*
X004283Y010226D03*
X004285Y010226D03*
X004288Y010226D03*
X004290Y010226D03*
X004293Y010226D03*
X004295Y010226D03*
X004298Y010226D03*
X004300Y010226D03*
X004303Y010226D03*
X004305Y010226D03*
X004308Y010226D03*
X004310Y010226D03*
X004313Y010226D03*
X004315Y010226D03*
X004318Y010226D03*
X004320Y010226D03*
X004323Y010226D03*
X004325Y010226D03*
X004328Y010226D03*
X004330Y010226D03*
X004333Y010226D03*
X004335Y010226D03*
X004338Y010226D03*
X004340Y010226D03*
X004343Y010226D03*
X004345Y010226D03*
X004348Y010226D03*
X004350Y010226D03*
X004353Y010226D03*
X004355Y010226D03*
X004358Y010226D03*
X004360Y010226D03*
X004363Y010226D03*
X004365Y010226D03*
X004368Y010226D03*
X004370Y010226D03*
X004373Y010226D03*
X004375Y010226D03*
X004378Y010226D03*
X004380Y010226D03*
X004383Y010226D03*
X004385Y010226D03*
X004388Y010226D03*
X004390Y010226D03*
X004393Y010226D03*
X004395Y010226D03*
X004235Y009936D03*
X004233Y009936D03*
X004230Y009936D03*
X004228Y009936D03*
X004225Y009936D03*
X004223Y009936D03*
X004220Y009936D03*
X004218Y009936D03*
X004215Y009936D03*
X004195Y008769D03*
X004398Y008591D03*
X003998Y007901D03*
X004280Y007194D03*
X004283Y007194D03*
X004285Y007194D03*
X004288Y007194D03*
X004395Y007586D03*
D173*
X007355Y008775D03*
D174*
X007353Y008776D03*
D175*
X007350Y008776D03*
D176*
X007348Y008779D03*
D177*
X007345Y008779D03*
D178*
X007343Y008779D03*
D179*
X007340Y008780D03*
D180*
X007338Y008780D03*
D181*
X007335Y008781D03*
D182*
X007333Y008781D03*
D183*
X007330Y008781D03*
D184*
X007328Y008784D03*
D185*
X007325Y008784D03*
D186*
X007323Y007660D03*
X007320Y007658D03*
X007315Y007650D03*
X007313Y007648D03*
X007308Y007640D03*
X007305Y007638D03*
X007300Y007630D03*
X007298Y007628D03*
X007290Y007618D03*
X007288Y007615D03*
X004815Y007605D03*
X004808Y007615D03*
X004805Y007618D03*
X004798Y007628D03*
X004795Y007630D03*
X004790Y007638D03*
X004788Y007640D03*
X004783Y007648D03*
X004780Y007650D03*
X004778Y007653D03*
X004775Y007658D03*
X004773Y007660D03*
X004393Y007813D03*
X004390Y007815D03*
X004365Y007823D03*
X004218Y007790D03*
X004215Y007793D03*
X004210Y007795D03*
X004165Y007795D03*
X004163Y007795D03*
X004160Y007793D03*
X004108Y007728D03*
X004165Y007660D03*
X004168Y007660D03*
X004173Y007658D03*
X004175Y007658D03*
X004200Y007658D03*
X004208Y007660D03*
X004210Y007660D03*
X004213Y007663D03*
X004210Y007570D03*
X004215Y007568D03*
X004163Y007570D03*
X004160Y007568D03*
X004108Y007503D03*
X004163Y007438D03*
X004165Y007435D03*
X004168Y007435D03*
X004175Y007433D03*
X004198Y007433D03*
X004208Y007435D03*
X004213Y007438D03*
X004255Y007985D03*
X004193Y007988D03*
X004168Y008145D03*
X004370Y008265D03*
X004373Y008265D03*
X004338Y008748D03*
X004335Y008748D03*
X004333Y008748D03*
X004330Y008748D03*
X004328Y008748D03*
X004323Y008750D03*
X004320Y008750D03*
X004315Y008753D03*
X004345Y008750D03*
X004333Y008898D03*
X004330Y008898D03*
X004328Y008898D03*
X004325Y008898D03*
X004323Y008898D03*
X004320Y008898D03*
X004318Y008898D03*
X004315Y008898D03*
X004313Y008898D03*
X004310Y008898D03*
X004308Y008898D03*
X004305Y008898D03*
X004303Y008898D03*
X004300Y008898D03*
X004298Y008898D03*
X004295Y008898D03*
X004293Y008898D03*
X004253Y008898D03*
X004250Y008898D03*
X004248Y008898D03*
X004245Y008898D03*
X004243Y008898D03*
X004240Y008898D03*
X004238Y008898D03*
X004235Y008898D03*
X004233Y008898D03*
X004230Y008898D03*
X004228Y008898D03*
X004243Y008988D03*
X004245Y008988D03*
X004248Y008988D03*
X004250Y008988D03*
X004253Y008988D03*
X004255Y008988D03*
X004258Y008988D03*
X004260Y008988D03*
X004263Y008988D03*
X004265Y008988D03*
X004268Y008988D03*
X004270Y008988D03*
X004273Y008988D03*
X004275Y008988D03*
X004278Y008988D03*
X004280Y008988D03*
X004283Y008988D03*
X004285Y008988D03*
X004288Y008988D03*
X004290Y008988D03*
X004293Y008988D03*
X004295Y008988D03*
X004298Y008988D03*
X004300Y008988D03*
X004303Y008988D03*
X004305Y008988D03*
X004308Y008988D03*
X004310Y008988D03*
X004313Y008988D03*
X004315Y008988D03*
X004318Y008988D03*
X004320Y008988D03*
X004323Y008988D03*
X004325Y008988D03*
X004328Y008988D03*
X004330Y008988D03*
X004333Y008988D03*
X004335Y008988D03*
X004338Y008988D03*
X004340Y008988D03*
X004343Y008988D03*
X004345Y008988D03*
X004348Y008988D03*
X004350Y008988D03*
X004353Y008988D03*
X004355Y008988D03*
X004358Y008988D03*
X004360Y008988D03*
X004363Y008988D03*
X004365Y008988D03*
X004368Y008988D03*
X004370Y008988D03*
X004373Y008988D03*
X004375Y008988D03*
X004378Y008988D03*
X004380Y008988D03*
X004383Y008988D03*
X004385Y008988D03*
X004388Y008988D03*
X004390Y008988D03*
X004393Y008988D03*
X004395Y008988D03*
X004150Y009085D03*
X004340Y009398D03*
X004388Y009398D03*
X004398Y009555D03*
X004398Y009765D03*
X004150Y010028D03*
X004140Y006948D03*
D187*
X007323Y008784D03*
D188*
X007320Y008784D03*
D189*
X007318Y008786D03*
D190*
X007315Y008786D03*
D191*
X007313Y008786D03*
X006048Y009406D03*
D192*
X007293Y007621D03*
X007295Y007624D03*
X007303Y007634D03*
X007310Y007644D03*
X007285Y007611D03*
X007283Y007609D03*
X007280Y007606D03*
X007278Y007601D03*
X007275Y007599D03*
X007273Y007596D03*
X007270Y007594D03*
X007263Y007584D03*
X007260Y007581D03*
X007248Y007566D03*
X007245Y007564D03*
X004848Y007566D03*
X004833Y007584D03*
X004825Y007594D03*
X004823Y007596D03*
X004820Y007599D03*
X004818Y007601D03*
X004813Y007609D03*
X004810Y007611D03*
X004803Y007621D03*
X004800Y007624D03*
X004793Y007634D03*
X004785Y007644D03*
X004388Y007816D03*
X004375Y007821D03*
X004373Y007821D03*
X004370Y007821D03*
X004368Y007821D03*
X004213Y007794D03*
X004208Y007796D03*
X004205Y007796D03*
X004200Y007799D03*
X004198Y007799D03*
X004195Y007799D03*
X004193Y007799D03*
X004183Y007799D03*
X004180Y007799D03*
X004178Y007799D03*
X004175Y007799D03*
X004173Y007799D03*
X004170Y007796D03*
X004168Y007796D03*
X004170Y007659D03*
X004178Y007656D03*
X004180Y007656D03*
X004183Y007656D03*
X004185Y007656D03*
X004188Y007656D03*
X004190Y007656D03*
X004193Y007656D03*
X004195Y007656D03*
X004198Y007656D03*
X004203Y007659D03*
X004205Y007659D03*
X004290Y007666D03*
X004213Y007569D03*
X004208Y007571D03*
X004205Y007571D03*
X004200Y007574D03*
X004198Y007574D03*
X004178Y007574D03*
X004175Y007574D03*
X004173Y007574D03*
X004170Y007574D03*
X004168Y007571D03*
X004165Y007571D03*
X004170Y007434D03*
X004173Y007434D03*
X004178Y007431D03*
X004180Y007431D03*
X004183Y007431D03*
X004185Y007431D03*
X004188Y007431D03*
X004190Y007431D03*
X004193Y007431D03*
X004195Y007431D03*
X004200Y007434D03*
X004203Y007434D03*
X004205Y007434D03*
X004210Y007436D03*
X004290Y007441D03*
X004333Y007354D03*
X004335Y007354D03*
X004338Y007354D03*
X004340Y007354D03*
X004343Y007354D03*
X004360Y007246D03*
X004360Y007041D03*
X004138Y006946D03*
X004135Y006946D03*
X004133Y006946D03*
X004130Y006946D03*
X004128Y006946D03*
X004165Y008144D03*
X004170Y008146D03*
X004173Y008149D03*
X004175Y008149D03*
X004180Y008151D03*
X004183Y008151D03*
X004193Y008154D03*
X004310Y008144D03*
X004375Y008264D03*
X004378Y008264D03*
X004380Y008264D03*
X004383Y008264D03*
X004385Y008264D03*
X004325Y008749D03*
X004398Y008794D03*
X004198Y008766D03*
X004190Y008986D03*
X004188Y008986D03*
X004185Y008986D03*
X004183Y008986D03*
X004365Y009311D03*
X004368Y009311D03*
X004370Y009311D03*
X004373Y009311D03*
X004175Y009934D03*
X004173Y009934D03*
X004170Y009934D03*
X004148Y010171D03*
D193*
X007310Y008788D03*
D194*
X007308Y008788D03*
D195*
X007305Y008789D03*
D196*
X007303Y008789D03*
D197*
X007300Y008790D03*
D198*
X007298Y008790D03*
D199*
X007295Y008791D03*
D200*
X007293Y008791D03*
D201*
X007290Y008793D03*
D202*
X007288Y008794D03*
D203*
X007285Y008794D03*
D204*
X007283Y008794D03*
X006050Y009376D03*
D205*
X007280Y008795D03*
D206*
X007278Y008796D03*
D207*
X007275Y008796D03*
D208*
X007273Y008796D03*
D209*
X007270Y008798D03*
D210*
X007268Y007590D03*
X007265Y007588D03*
X007258Y007578D03*
X007255Y007575D03*
X007253Y007573D03*
X007250Y007570D03*
X007243Y007560D03*
X007240Y007558D03*
X007238Y007555D03*
X007235Y007553D03*
X007233Y007550D03*
X007230Y007548D03*
X007223Y007538D03*
X007220Y007535D03*
X007218Y007533D03*
X007215Y007530D03*
X004880Y007530D03*
X004878Y007533D03*
X004875Y007535D03*
X004873Y007538D03*
X004870Y007540D03*
X004865Y007548D03*
X004863Y007550D03*
X004860Y007553D03*
X004858Y007555D03*
X004855Y007558D03*
X004853Y007560D03*
X004850Y007563D03*
X004845Y007570D03*
X004843Y007573D03*
X004840Y007575D03*
X004838Y007578D03*
X004835Y007580D03*
X004830Y007588D03*
X004828Y007590D03*
X004375Y007418D03*
X004368Y007420D03*
X004358Y007425D03*
X004348Y007435D03*
X004345Y007438D03*
X004288Y007440D03*
X004285Y007440D03*
X004345Y007355D03*
X004348Y007355D03*
X004350Y007355D03*
X004203Y007573D03*
X004195Y007575D03*
X004193Y007575D03*
X004190Y007575D03*
X004188Y007575D03*
X004185Y007575D03*
X004183Y007575D03*
X004180Y007575D03*
X004288Y007665D03*
X004345Y007663D03*
X004348Y007660D03*
X004203Y007798D03*
X004190Y007800D03*
X004188Y007800D03*
X004185Y007800D03*
X004178Y008150D03*
X004185Y008153D03*
X004188Y008153D03*
X004190Y008153D03*
X004195Y008155D03*
X004198Y008155D03*
X004200Y008155D03*
X004203Y008155D03*
X004205Y008155D03*
X004388Y008263D03*
X004390Y008263D03*
X004148Y008373D03*
X004163Y008985D03*
X004165Y008985D03*
X004168Y008985D03*
X004170Y008985D03*
X004173Y008985D03*
X004175Y008985D03*
X004178Y008985D03*
X004180Y008985D03*
X004375Y009313D03*
X004378Y009313D03*
X004380Y009313D03*
X004383Y009313D03*
X004385Y009313D03*
X004390Y009398D03*
X004338Y009398D03*
X004350Y009615D03*
X004193Y009610D03*
X004168Y009933D03*
X004165Y009933D03*
X004163Y009933D03*
X004160Y009933D03*
X004125Y006945D03*
X004123Y006945D03*
X004120Y006945D03*
X004118Y006945D03*
D211*
X006053Y009363D03*
X007268Y008798D03*
D212*
X007265Y008799D03*
D213*
X007263Y008800D03*
D214*
X007260Y008800D03*
D215*
X007258Y008800D03*
X006055Y009353D03*
D216*
X007255Y008801D03*
D217*
X007253Y008801D03*
D218*
X007250Y008801D03*
D219*
X007248Y008804D03*
X006058Y009344D03*
D220*
X007245Y008804D03*
D221*
X007243Y008805D03*
D222*
X007240Y008805D03*
X006060Y009338D03*
D223*
X007238Y008805D03*
D224*
X007235Y008806D03*
D225*
X007233Y008806D03*
D226*
X007230Y008808D03*
X006063Y009330D03*
D227*
X007140Y007454D03*
X007138Y007451D03*
X007173Y007486D03*
X007175Y007489D03*
X007178Y007491D03*
X007180Y007494D03*
X007183Y007496D03*
X007185Y007499D03*
X007188Y007501D03*
X007190Y007504D03*
X007193Y007506D03*
X007195Y007509D03*
X007198Y007511D03*
X007200Y007514D03*
X007203Y007516D03*
X007205Y007519D03*
X007208Y007521D03*
X007210Y007524D03*
X007213Y007526D03*
X007225Y007541D03*
X007228Y007544D03*
X004960Y007449D03*
X004958Y007451D03*
X004955Y007454D03*
X004920Y007489D03*
X004918Y007491D03*
X004915Y007494D03*
X004913Y007496D03*
X004910Y007499D03*
X004908Y007501D03*
X004905Y007504D03*
X004903Y007506D03*
X004900Y007509D03*
X004898Y007511D03*
X004895Y007514D03*
X004893Y007516D03*
X004890Y007519D03*
X004888Y007521D03*
X004885Y007524D03*
X004883Y007526D03*
X004868Y007544D03*
X004373Y007419D03*
X004370Y007419D03*
X004365Y007421D03*
X004363Y007421D03*
X004360Y007424D03*
X004355Y007426D03*
X004353Y007429D03*
X004350Y007431D03*
X004353Y007356D03*
X004355Y007356D03*
X004353Y007654D03*
X004350Y007656D03*
X004285Y007664D03*
X004108Y008074D03*
X004393Y008261D03*
X004375Y008901D03*
X004373Y008901D03*
X004370Y008901D03*
X004160Y008984D03*
X004158Y008984D03*
X004155Y008984D03*
X004388Y009314D03*
X004390Y009314D03*
X004158Y009931D03*
X004155Y009931D03*
X004108Y007056D03*
X004115Y006944D03*
D228*
X007228Y008809D03*
D229*
X007225Y008809D03*
X006065Y009324D03*
D230*
X007223Y008810D03*
D231*
X007220Y008810D03*
D232*
X007218Y008811D03*
X006068Y009319D03*
D233*
X007215Y008811D03*
D234*
X007213Y008813D03*
D235*
X007210Y008813D03*
D236*
X007208Y008813D03*
D237*
X007205Y008814D03*
D238*
X007203Y008814D03*
D239*
X007200Y008815D03*
D240*
X007198Y008815D03*
D241*
X007195Y008816D03*
D242*
X007193Y008816D03*
X006078Y009299D03*
D243*
X007190Y008818D03*
D244*
X007188Y008818D03*
X006080Y009295D03*
D245*
X007185Y008819D03*
D246*
X007183Y008819D03*
X006083Y009289D03*
D247*
X007180Y008820D03*
D248*
X007178Y008820D03*
X006085Y009285D03*
D249*
X007175Y008821D03*
D250*
X007173Y008821D03*
X006088Y009281D03*
D251*
X007148Y007460D03*
X007150Y007463D03*
X007153Y007465D03*
X007155Y007468D03*
X007158Y007470D03*
X007160Y007473D03*
X007163Y007475D03*
X007165Y007478D03*
X007168Y007480D03*
X007170Y007483D03*
X007145Y007458D03*
X007143Y007455D03*
X007135Y007450D03*
X007133Y007448D03*
X007130Y007445D03*
X007128Y007443D03*
X007125Y007440D03*
X007123Y007438D03*
X007120Y007435D03*
X007118Y007433D03*
X007115Y007430D03*
X007113Y007428D03*
X007095Y007413D03*
X007093Y007410D03*
X007078Y007398D03*
X007075Y007395D03*
X007073Y007393D03*
X007060Y007383D03*
X005035Y007383D03*
X005023Y007393D03*
X005020Y007395D03*
X005018Y007398D03*
X005003Y007410D03*
X005000Y007413D03*
X004985Y007425D03*
X004983Y007428D03*
X004980Y007430D03*
X004978Y007433D03*
X004975Y007435D03*
X004973Y007438D03*
X004970Y007440D03*
X004968Y007443D03*
X004965Y007445D03*
X004963Y007448D03*
X004953Y007455D03*
X004950Y007458D03*
X004948Y007460D03*
X004945Y007463D03*
X004943Y007465D03*
X004940Y007468D03*
X004938Y007470D03*
X004935Y007473D03*
X004933Y007475D03*
X004930Y007478D03*
X004928Y007480D03*
X004925Y007483D03*
X004923Y007485D03*
X004395Y008260D03*
X004398Y008360D03*
X004200Y008765D03*
X004153Y008983D03*
X004148Y009085D03*
X004398Y009203D03*
X004393Y009315D03*
X004383Y008903D03*
X004380Y008903D03*
X004378Y008903D03*
X004153Y009930D03*
X004275Y007668D03*
X004280Y007665D03*
X004283Y007665D03*
X004275Y007443D03*
X004280Y007440D03*
X004283Y007440D03*
X004113Y006943D03*
D252*
X007170Y008823D03*
D253*
X007168Y008823D03*
X006090Y009278D03*
D254*
X007165Y008824D03*
D255*
X007163Y008824D03*
X006093Y009274D03*
D256*
X007160Y008825D03*
D257*
X007158Y008825D03*
X006095Y009270D03*
D258*
X007155Y008826D03*
D259*
X007153Y008828D03*
X006098Y009268D03*
D260*
X007150Y008828D03*
D261*
X007148Y008829D03*
X006100Y009264D03*
D262*
X006103Y009261D03*
X007145Y008829D03*
D263*
X007143Y008830D03*
D264*
X007140Y008830D03*
X006105Y009258D03*
D265*
X007138Y008831D03*
D266*
X007135Y008831D03*
D267*
X007133Y008833D03*
X007130Y008833D03*
D268*
X007128Y008833D03*
D269*
X007125Y008834D03*
X006113Y009249D03*
D270*
X006115Y009246D03*
X007123Y008834D03*
D271*
X007120Y008835D03*
D272*
X007118Y008836D03*
X006118Y009244D03*
D273*
X007115Y008836D03*
D274*
X007113Y008838D03*
X006120Y009240D03*
D275*
X005470Y008604D03*
X004988Y007424D03*
X004990Y007421D03*
X004993Y007419D03*
X004995Y007416D03*
X004998Y007414D03*
X005005Y007409D03*
X005008Y007406D03*
X005010Y007404D03*
X005013Y007401D03*
X005015Y007399D03*
X005025Y007391D03*
X005028Y007389D03*
X005030Y007386D03*
X005033Y007384D03*
X005038Y007381D03*
X005040Y007379D03*
X005043Y007376D03*
X005045Y007374D03*
X005048Y007371D03*
X005053Y007369D03*
X005055Y007366D03*
X005058Y007364D03*
X005065Y007359D03*
X005068Y007356D03*
X005070Y007354D03*
X005078Y007349D03*
X005080Y007346D03*
X005083Y007344D03*
X005088Y007341D03*
X005090Y007339D03*
X005093Y007336D03*
X005100Y007331D03*
X005110Y007324D03*
X005128Y007311D03*
X004358Y007359D03*
X004278Y007441D03*
X004273Y007444D03*
X004270Y007446D03*
X004268Y007449D03*
X004265Y007451D03*
X004265Y007504D03*
X004278Y007666D03*
X004273Y007669D03*
X004270Y007671D03*
X004268Y007674D03*
X004265Y007676D03*
X004265Y007729D03*
X004308Y008146D03*
X004145Y008834D03*
X004150Y008981D03*
X004385Y008904D03*
X004388Y008904D03*
X004395Y009316D03*
X004393Y009399D03*
X004335Y009399D03*
X004348Y009616D03*
X004150Y009929D03*
X004148Y010029D03*
X006943Y007294D03*
X006985Y007324D03*
X006995Y007331D03*
X007003Y007336D03*
X007005Y007339D03*
X007008Y007341D03*
X007013Y007344D03*
X007015Y007346D03*
X007018Y007349D03*
X007020Y007351D03*
X007025Y007354D03*
X007028Y007356D03*
X007030Y007359D03*
X007038Y007364D03*
X007040Y007366D03*
X007043Y007369D03*
X007048Y007371D03*
X007050Y007374D03*
X007053Y007376D03*
X007055Y007379D03*
X007058Y007381D03*
X007063Y007384D03*
X007065Y007386D03*
X007068Y007389D03*
X007070Y007391D03*
X007080Y007399D03*
X007083Y007401D03*
X007085Y007404D03*
X007088Y007406D03*
X007090Y007409D03*
X007098Y007414D03*
X007100Y007416D03*
X007103Y007419D03*
X007105Y007421D03*
X007108Y007424D03*
X007110Y007426D03*
D276*
X007110Y008838D03*
X007108Y008838D03*
X006123Y009238D03*
D277*
X007105Y008839D03*
D278*
X007103Y008839D03*
D279*
X007100Y008840D03*
X006128Y009233D03*
D280*
X007098Y008841D03*
D281*
X007095Y008841D03*
D282*
X007093Y008843D03*
X006133Y009228D03*
D283*
X007090Y008844D03*
D284*
X007088Y008843D03*
X006135Y009225D03*
D285*
X007085Y008844D03*
D286*
X007083Y008845D03*
X006138Y009223D03*
D287*
X006140Y009220D03*
X007080Y008845D03*
D288*
X007078Y008846D03*
D289*
X007075Y008848D03*
X006143Y009218D03*
D290*
X006145Y009215D03*
X006148Y009213D03*
X007070Y008848D03*
X007073Y008848D03*
D291*
X007068Y008849D03*
D292*
X007065Y008849D03*
D293*
X007063Y008850D03*
X006153Y009208D03*
D294*
X007060Y008851D03*
D295*
X007058Y008850D03*
X006155Y009205D03*
D296*
X006158Y009204D03*
X007055Y008851D03*
D297*
X007053Y008853D03*
D298*
X007050Y008853D03*
D299*
X007048Y008854D03*
X007045Y008854D03*
X006163Y009199D03*
D300*
X007045Y007370D03*
X007035Y007363D03*
X007033Y007360D03*
X007023Y007353D03*
X007010Y007343D03*
X007000Y007335D03*
X006998Y007333D03*
X006993Y007330D03*
X006990Y007328D03*
X006988Y007325D03*
X006983Y007323D03*
X006980Y007320D03*
X006978Y007318D03*
X006975Y007318D03*
X006973Y007315D03*
X006970Y007313D03*
X006968Y007313D03*
X006965Y007310D03*
X006963Y007308D03*
X006960Y007305D03*
X006958Y007305D03*
X006955Y007303D03*
X006953Y007300D03*
X006950Y007300D03*
X006948Y007298D03*
X006945Y007295D03*
X006940Y007293D03*
X006938Y007290D03*
X006933Y007288D03*
X006930Y007285D03*
X006925Y007283D03*
X006923Y007280D03*
X006918Y007278D03*
X006915Y007275D03*
X006910Y007273D03*
X006908Y007270D03*
X006903Y007268D03*
X006895Y007263D03*
X006890Y007260D03*
X006888Y007258D03*
X006883Y007255D03*
X006880Y007253D03*
X006875Y007250D03*
X006863Y007243D03*
X006850Y007235D03*
X006833Y007225D03*
X006815Y007215D03*
X005280Y007215D03*
X005263Y007225D03*
X005233Y007243D03*
X005228Y007245D03*
X005220Y007250D03*
X005215Y007253D03*
X005213Y007255D03*
X005208Y007258D03*
X005205Y007260D03*
X005200Y007263D03*
X005193Y007268D03*
X005188Y007270D03*
X005185Y007273D03*
X005180Y007275D03*
X005173Y007280D03*
X005170Y007283D03*
X005165Y007285D03*
X005163Y007288D03*
X005158Y007290D03*
X005155Y007293D03*
X005153Y007293D03*
X005150Y007295D03*
X005148Y007298D03*
X005145Y007300D03*
X005143Y007300D03*
X005140Y007303D03*
X005138Y007305D03*
X005135Y007305D03*
X005133Y007308D03*
X005130Y007310D03*
X005125Y007313D03*
X005123Y007315D03*
X005120Y007318D03*
X005118Y007318D03*
X005115Y007320D03*
X005113Y007323D03*
X005108Y007325D03*
X005105Y007328D03*
X005103Y007330D03*
X005098Y007333D03*
X005095Y007335D03*
X005085Y007343D03*
X005075Y007350D03*
X005073Y007353D03*
X005063Y007360D03*
X005060Y007363D03*
X005050Y007370D03*
X004393Y008905D03*
X004390Y008905D03*
X004195Y009613D03*
X004110Y006940D03*
D301*
X006165Y009198D03*
X007043Y008855D03*
D302*
X007040Y008221D03*
X005485Y009731D03*
X005483Y009731D03*
D303*
X005448Y009729D03*
X005445Y009729D03*
X007038Y008209D03*
D304*
X007035Y009260D03*
X006790Y009418D03*
X005948Y009595D03*
D305*
X005413Y009725D03*
X005410Y009725D03*
X007033Y008198D03*
D306*
X007033Y009265D03*
X006805Y009415D03*
X006803Y009415D03*
X005943Y009600D03*
D307*
X005400Y009724D03*
X005398Y009724D03*
X007030Y008191D03*
D308*
X007030Y009270D03*
X006815Y009413D03*
X006813Y009413D03*
X005940Y009603D03*
D309*
X005390Y009723D03*
X005388Y009723D03*
X005385Y009723D03*
X007028Y008188D03*
D310*
X007025Y008185D03*
D311*
X007025Y009279D03*
X006828Y009409D03*
X006825Y009409D03*
X005935Y009606D03*
D312*
X005363Y009718D03*
X007020Y008178D03*
D313*
X007020Y009286D03*
X006845Y009404D03*
X006843Y009404D03*
D314*
X007018Y008175D03*
X005355Y009718D03*
X005353Y009718D03*
D315*
X005928Y009613D03*
X006848Y009403D03*
X006850Y009403D03*
X007018Y009290D03*
D316*
X007015Y008173D03*
X005345Y009715D03*
X005343Y009715D03*
D317*
X006650Y008171D03*
X006653Y008169D03*
X007013Y008171D03*
D318*
X007013Y009298D03*
X006863Y009398D03*
X006858Y009400D03*
X006855Y009400D03*
D319*
X006860Y009399D03*
X006865Y009396D03*
X006868Y009396D03*
X007010Y009299D03*
X005923Y009616D03*
D320*
X005330Y009713D03*
X005328Y009713D03*
X006658Y008165D03*
X007008Y008165D03*
D321*
X007008Y009303D03*
X007005Y009305D03*
X006870Y009395D03*
D322*
X007005Y008164D03*
X005325Y009711D03*
D323*
X005318Y009709D03*
X005315Y009709D03*
X006663Y008161D03*
X007000Y008159D03*
X007003Y008161D03*
D324*
X007000Y009310D03*
X006888Y009388D03*
X006883Y009390D03*
X005918Y009620D03*
D325*
X005313Y009708D03*
X005310Y009708D03*
X006665Y008158D03*
X006998Y008158D03*
D326*
X006998Y009314D03*
X006995Y009316D03*
X006890Y009386D03*
X006885Y009389D03*
D327*
X006995Y008155D03*
X006670Y008155D03*
X005305Y009708D03*
D328*
X005303Y009706D03*
X005300Y009706D03*
X006993Y008154D03*
D329*
X006990Y008153D03*
X006988Y008150D03*
X006675Y008150D03*
X006673Y008153D03*
X005298Y009705D03*
X005295Y009705D03*
D330*
X005915Y009621D03*
X006905Y009379D03*
X006908Y009379D03*
X006910Y009376D03*
X006985Y009326D03*
D331*
X006983Y008146D03*
X006683Y008146D03*
X005283Y009701D03*
X005280Y009701D03*
D332*
X005913Y009623D03*
X006913Y009375D03*
X006915Y009375D03*
X006918Y009373D03*
X006923Y009370D03*
X006935Y009363D03*
X006968Y009340D03*
X006970Y009338D03*
X006973Y009335D03*
X006978Y009333D03*
X006980Y009330D03*
X006983Y009328D03*
D333*
X006978Y008144D03*
X006973Y008141D03*
X006690Y008141D03*
X006688Y008144D03*
X005273Y009699D03*
D334*
X005270Y009698D03*
X005268Y009698D03*
X006693Y008140D03*
X006970Y008140D03*
D335*
X006968Y008139D03*
X006695Y008139D03*
X005265Y009696D03*
X005263Y009696D03*
D336*
X005260Y009695D03*
X005258Y009695D03*
X006698Y008138D03*
X006700Y008138D03*
X006703Y008135D03*
X006965Y008138D03*
D337*
X006963Y008136D03*
X006960Y008134D03*
X006958Y008134D03*
X006705Y008134D03*
X005255Y009694D03*
D338*
X005253Y009693D03*
X005250Y009693D03*
X006708Y008133D03*
X006710Y008133D03*
X006955Y008133D03*
D339*
X006943Y008126D03*
X006940Y008126D03*
X006725Y008126D03*
X006723Y008126D03*
X005240Y009689D03*
X005238Y009689D03*
D340*
X005235Y009688D03*
X005233Y009688D03*
X006728Y008125D03*
X006935Y008125D03*
X006938Y008125D03*
D341*
X006935Y007289D03*
X006928Y007284D03*
X006920Y007279D03*
X006913Y007274D03*
X006905Y007269D03*
X006900Y007266D03*
X006898Y007264D03*
X006893Y007261D03*
X006885Y007256D03*
X006878Y007251D03*
X006873Y007249D03*
X006870Y007246D03*
X006868Y007246D03*
X006865Y007244D03*
X006860Y007241D03*
X006858Y007239D03*
X006855Y007239D03*
X006853Y007236D03*
X006848Y007234D03*
X006845Y007231D03*
X006843Y007231D03*
X006840Y007229D03*
X006838Y007229D03*
X006835Y007226D03*
X006830Y007224D03*
X006828Y007221D03*
X006825Y007221D03*
X006823Y007219D03*
X006820Y007219D03*
X006818Y007216D03*
X006813Y007214D03*
X006810Y007211D03*
X006808Y007211D03*
X006805Y007209D03*
X006803Y007209D03*
X006800Y007206D03*
X006798Y007206D03*
X006795Y007204D03*
X006790Y007201D03*
X006785Y007199D03*
X006780Y007196D03*
X006775Y007194D03*
X006770Y007191D03*
X006765Y007189D03*
X006760Y007186D03*
X006755Y007184D03*
X006750Y007181D03*
X006745Y007179D03*
X006743Y007176D03*
X006740Y007176D03*
X006735Y007174D03*
X006730Y007171D03*
X006725Y007169D03*
X006720Y007166D03*
X006703Y007159D03*
X006698Y007156D03*
X006693Y007154D03*
X006680Y007149D03*
X006675Y007146D03*
X006670Y007144D03*
X006658Y007139D03*
X005438Y007139D03*
X005425Y007144D03*
X005420Y007146D03*
X005415Y007149D03*
X005403Y007154D03*
X005398Y007156D03*
X005393Y007159D03*
X005380Y007164D03*
X005375Y007166D03*
X005370Y007169D03*
X005365Y007171D03*
X005360Y007174D03*
X005355Y007176D03*
X005353Y007176D03*
X005350Y007179D03*
X005348Y007179D03*
X005345Y007181D03*
X005340Y007184D03*
X005335Y007186D03*
X005330Y007189D03*
X005325Y007191D03*
X005320Y007194D03*
X005315Y007196D03*
X005310Y007199D03*
X005305Y007201D03*
X005300Y007204D03*
X005298Y007206D03*
X005295Y007206D03*
X005293Y007209D03*
X005290Y007209D03*
X005288Y007211D03*
X005285Y007211D03*
X005283Y007214D03*
X005278Y007216D03*
X005275Y007219D03*
X005273Y007219D03*
X005270Y007221D03*
X005268Y007221D03*
X005265Y007224D03*
X005260Y007226D03*
X005258Y007229D03*
X005255Y007229D03*
X005253Y007231D03*
X005250Y007231D03*
X005248Y007234D03*
X005245Y007234D03*
X005243Y007236D03*
X005240Y007239D03*
X005238Y007239D03*
X005235Y007241D03*
X005230Y007244D03*
X005225Y007246D03*
X005223Y007249D03*
X005218Y007251D03*
X005210Y007256D03*
X005203Y007261D03*
X005198Y007264D03*
X005195Y007266D03*
X005190Y007269D03*
X005183Y007274D03*
X005178Y007276D03*
X005175Y007279D03*
X005168Y007284D03*
X005160Y007289D03*
X004203Y008764D03*
X004145Y009216D03*
X004345Y009619D03*
D342*
X005228Y009686D03*
X005230Y009686D03*
X006730Y008124D03*
X006733Y008124D03*
X006738Y008121D03*
X006925Y008121D03*
X006933Y008124D03*
D343*
X006930Y008123D03*
X006928Y008123D03*
X006923Y008120D03*
X006920Y008120D03*
X006743Y008120D03*
X006740Y008120D03*
X006735Y008123D03*
X005225Y009685D03*
D344*
X005223Y009684D03*
X005220Y009684D03*
X005218Y009681D03*
X005215Y009681D03*
X006745Y008119D03*
X006748Y008119D03*
X006915Y008119D03*
X006918Y008119D03*
D345*
X006913Y008118D03*
X006910Y008118D03*
X006903Y008115D03*
X006763Y008115D03*
X006760Y008115D03*
X006755Y008118D03*
X006753Y008118D03*
X006750Y008118D03*
X005213Y009680D03*
D346*
X005210Y009679D03*
X005208Y009679D03*
X006758Y008116D03*
X006765Y008114D03*
X006768Y008114D03*
X006895Y008114D03*
X006898Y008114D03*
X006900Y008114D03*
X006905Y008116D03*
X006908Y008116D03*
D347*
X006885Y008111D03*
X006883Y008111D03*
X006880Y008111D03*
X006878Y008111D03*
X006868Y008109D03*
X006865Y008109D03*
X006863Y008109D03*
X006803Y008109D03*
X006800Y008109D03*
X006798Y008109D03*
X006788Y008111D03*
X006785Y008111D03*
X006783Y008111D03*
X006780Y008111D03*
X005203Y009676D03*
X005200Y009676D03*
D348*
X005198Y009675D03*
X005195Y009675D03*
X006790Y008110D03*
X006793Y008110D03*
X006795Y008110D03*
X006805Y008108D03*
X006808Y008108D03*
X006810Y008108D03*
X006813Y008108D03*
X006815Y008108D03*
X006818Y008108D03*
X006820Y008108D03*
X006823Y008108D03*
X006825Y008108D03*
X006828Y008108D03*
X006830Y008108D03*
X006833Y008108D03*
X006835Y008108D03*
X006838Y008108D03*
X006840Y008108D03*
X006843Y008108D03*
X006845Y008108D03*
X006848Y008108D03*
X006850Y008108D03*
X006853Y008108D03*
X006855Y008108D03*
X006858Y008108D03*
X006860Y008108D03*
X006870Y008110D03*
X006873Y008110D03*
X006875Y008110D03*
D349*
X006835Y009406D03*
X005933Y009609D03*
D350*
X006830Y009408D03*
X006833Y009408D03*
D351*
X006820Y009411D03*
X006818Y009411D03*
X005938Y009604D03*
D352*
X006793Y009416D03*
X006795Y009416D03*
D353*
X006793Y007203D03*
X006788Y007200D03*
X006783Y007198D03*
X006778Y007195D03*
X006773Y007193D03*
X006768Y007190D03*
X006763Y007188D03*
X006758Y007185D03*
X006753Y007183D03*
X006748Y007180D03*
X006738Y007175D03*
X006733Y007173D03*
X006728Y007170D03*
X006723Y007168D03*
X006718Y007165D03*
X006715Y007165D03*
X006713Y007163D03*
X006710Y007163D03*
X006708Y007160D03*
X006705Y007160D03*
X006700Y007158D03*
X006695Y007155D03*
X006690Y007153D03*
X006688Y007153D03*
X006685Y007150D03*
X006683Y007150D03*
X006678Y007148D03*
X006673Y007145D03*
X006668Y007143D03*
X006665Y007143D03*
X006663Y007140D03*
X006660Y007140D03*
X006655Y007138D03*
X006653Y007138D03*
X006650Y007135D03*
X006648Y007135D03*
X006645Y007133D03*
X006643Y007133D03*
X006640Y007133D03*
X006638Y007130D03*
X006635Y007130D03*
X006633Y007128D03*
X006630Y007128D03*
X006628Y007128D03*
X006625Y007125D03*
X006623Y007125D03*
X006620Y007125D03*
X006618Y007123D03*
X006615Y007123D03*
X006613Y007120D03*
X006610Y007120D03*
X006608Y007120D03*
X006605Y007118D03*
X006603Y007118D03*
X006600Y007115D03*
X006598Y007115D03*
X006595Y007115D03*
X006593Y007113D03*
X006590Y007113D03*
X006588Y007113D03*
X006585Y007110D03*
X006583Y007110D03*
X006578Y007108D03*
X006575Y007108D03*
X006570Y007105D03*
X006568Y007105D03*
X006563Y007103D03*
X006560Y007103D03*
X006555Y007100D03*
X006553Y007100D03*
X006548Y007098D03*
X006545Y007098D03*
X006540Y007095D03*
X006538Y007095D03*
X006533Y007093D03*
X006530Y007093D03*
X006525Y007090D03*
X006523Y007090D03*
X006518Y007088D03*
X006515Y007088D03*
X006510Y007085D03*
X006508Y007085D03*
X006500Y007083D03*
X006498Y007083D03*
X006493Y007080D03*
X006490Y007080D03*
X006483Y007078D03*
X006480Y007078D03*
X006473Y007075D03*
X006470Y007075D03*
X006465Y007073D03*
X006463Y007073D03*
X006455Y007070D03*
X006453Y007070D03*
X006448Y007068D03*
X006445Y007068D03*
X006438Y007065D03*
X006435Y007065D03*
X006425Y007063D03*
X006415Y007060D03*
X006405Y007058D03*
X006403Y007058D03*
X006393Y007055D03*
X006383Y007053D03*
X006380Y007053D03*
X006373Y007050D03*
X006370Y007050D03*
X006358Y007048D03*
X006345Y007045D03*
X006330Y007043D03*
X006318Y007040D03*
X006315Y007040D03*
X006303Y007038D03*
X006288Y007035D03*
X005808Y007035D03*
X005793Y007038D03*
X005778Y007040D03*
X005765Y007043D03*
X005750Y007045D03*
X005738Y007048D03*
X005725Y007050D03*
X005723Y007050D03*
X005715Y007053D03*
X005713Y007053D03*
X005703Y007055D03*
X005693Y007058D03*
X005690Y007058D03*
X005680Y007060D03*
X005670Y007063D03*
X005660Y007065D03*
X005658Y007065D03*
X005650Y007068D03*
X005648Y007068D03*
X005643Y007070D03*
X005640Y007070D03*
X005633Y007073D03*
X005630Y007073D03*
X005623Y007075D03*
X005620Y007075D03*
X005615Y007078D03*
X005613Y007078D03*
X005605Y007080D03*
X005603Y007080D03*
X005598Y007083D03*
X005595Y007083D03*
X005588Y007085D03*
X005585Y007085D03*
X005580Y007088D03*
X005578Y007088D03*
X005573Y007090D03*
X005570Y007090D03*
X005565Y007093D03*
X005563Y007093D03*
X005558Y007095D03*
X005555Y007095D03*
X005550Y007098D03*
X005548Y007098D03*
X005543Y007100D03*
X005540Y007100D03*
X005535Y007103D03*
X005533Y007103D03*
X005528Y007105D03*
X005525Y007105D03*
X005520Y007108D03*
X005518Y007108D03*
X005513Y007110D03*
X005510Y007110D03*
X005508Y007113D03*
X005505Y007113D03*
X005503Y007113D03*
X005500Y007115D03*
X005498Y007115D03*
X005495Y007115D03*
X005493Y007118D03*
X005490Y007118D03*
X005488Y007120D03*
X005485Y007120D03*
X005483Y007120D03*
X005480Y007123D03*
X005478Y007123D03*
X005475Y007125D03*
X005473Y007125D03*
X005470Y007125D03*
X005468Y007128D03*
X005465Y007128D03*
X005463Y007128D03*
X005460Y007130D03*
X005458Y007130D03*
X005455Y007133D03*
X005453Y007133D03*
X005450Y007133D03*
X005448Y007135D03*
X005445Y007135D03*
X005443Y007138D03*
X005440Y007138D03*
X005435Y007140D03*
X005433Y007140D03*
X005430Y007143D03*
X005428Y007143D03*
X005423Y007145D03*
X005418Y007148D03*
X005413Y007150D03*
X005410Y007150D03*
X005408Y007153D03*
X005405Y007153D03*
X005400Y007155D03*
X005395Y007158D03*
X005390Y007160D03*
X005388Y007160D03*
X005385Y007163D03*
X005383Y007163D03*
X005378Y007165D03*
X005373Y007168D03*
X005368Y007170D03*
X005363Y007173D03*
X005358Y007175D03*
X005343Y007183D03*
X005338Y007185D03*
X005333Y007188D03*
X005328Y007190D03*
X005323Y007193D03*
X005318Y007195D03*
X005313Y007198D03*
X005308Y007200D03*
X005303Y007203D03*
X004363Y008078D03*
X004305Y008148D03*
X004395Y008908D03*
X004395Y009398D03*
X004333Y009398D03*
X004198Y009615D03*
X004145Y009560D03*
X004145Y009765D03*
D354*
X006788Y009416D03*
D355*
X006780Y009419D03*
X005950Y009594D03*
D356*
X005953Y009593D03*
X006778Y009418D03*
D357*
X006770Y009420D03*
X005955Y009590D03*
D358*
X006768Y009419D03*
D359*
X006763Y009421D03*
D360*
X006760Y009420D03*
X005960Y009585D03*
D361*
X006758Y009421D03*
D362*
X006753Y009421D03*
X006750Y009421D03*
D363*
X006748Y009421D03*
X006745Y009421D03*
D364*
X006738Y009421D03*
X006735Y009421D03*
D365*
X006730Y009421D03*
D366*
X006728Y009420D03*
X005975Y009570D03*
D367*
X006715Y009420D03*
D368*
X006708Y009419D03*
X005985Y009559D03*
D369*
X006705Y009418D03*
D370*
X006703Y009418D03*
X006700Y009418D03*
X005988Y009555D03*
D371*
X006695Y009416D03*
D372*
X006693Y009416D03*
X005993Y009549D03*
D373*
X006690Y009415D03*
D374*
X006688Y009415D03*
D375*
X006685Y009414D03*
D376*
X006680Y008148D03*
X005288Y009703D03*
X005285Y009703D03*
D377*
X006000Y009540D03*
X006680Y009413D03*
D378*
X006675Y009411D03*
X006003Y009536D03*
D379*
X006668Y009408D03*
D380*
X006665Y009406D03*
X006008Y009529D03*
D381*
X006660Y008163D03*
X005323Y009710D03*
X005320Y009710D03*
D382*
X006660Y009404D03*
D383*
X006653Y009399D03*
D384*
X006650Y009399D03*
D385*
X006648Y008174D03*
X005350Y009716D03*
X005348Y009716D03*
D386*
X005358Y009719D03*
X005360Y009719D03*
X006645Y008176D03*
D387*
X006645Y009395D03*
D388*
X006640Y008184D03*
X005378Y009721D03*
X005375Y009721D03*
D389*
X006640Y009389D03*
D390*
X006638Y008186D03*
X005383Y009721D03*
X005380Y009721D03*
D391*
X006025Y009500D03*
X006638Y009388D03*
D392*
X006635Y009384D03*
D393*
X006633Y008194D03*
X005408Y009726D03*
D394*
X006633Y009381D03*
D395*
X006630Y008200D03*
X005420Y009728D03*
D396*
X006630Y009376D03*
D397*
X006628Y008205D03*
X005435Y009728D03*
D398*
X006628Y009371D03*
D399*
X006625Y008214D03*
X005463Y009731D03*
D400*
X006625Y009364D03*
D401*
X006510Y009015D03*
X006508Y009015D03*
X006513Y009013D03*
X006515Y009013D03*
X006520Y009010D03*
X006523Y009010D03*
X006623Y008975D03*
D402*
X006620Y008976D03*
X006618Y008976D03*
X006615Y008976D03*
X006613Y008979D03*
X006610Y008979D03*
X006605Y008981D03*
X006603Y008981D03*
X006595Y008984D03*
X006588Y008986D03*
X006580Y008989D03*
X006573Y008991D03*
X006565Y008994D03*
X006560Y008996D03*
X006558Y008996D03*
X006553Y008999D03*
X006545Y009001D03*
X006540Y009004D03*
X006538Y009004D03*
X006533Y009006D03*
X006530Y009006D03*
X006528Y009009D03*
X006525Y009009D03*
X006518Y009011D03*
D403*
X006535Y009005D03*
X006543Y009003D03*
X006548Y009000D03*
X006550Y009000D03*
X006555Y008998D03*
X006563Y008995D03*
X006568Y008993D03*
X006570Y008993D03*
X006575Y008990D03*
X006578Y008990D03*
X006583Y008988D03*
X006585Y008988D03*
X006590Y008985D03*
X006593Y008985D03*
X006598Y008983D03*
X006600Y008983D03*
X006608Y008980D03*
D404*
X006580Y007109D03*
X006573Y007106D03*
X006565Y007104D03*
X006558Y007101D03*
X006550Y007099D03*
X006543Y007096D03*
X006535Y007094D03*
X006528Y007091D03*
X006520Y007089D03*
X006513Y007086D03*
X006505Y007084D03*
X006503Y007084D03*
X006495Y007081D03*
X006488Y007079D03*
X006485Y007079D03*
X006478Y007076D03*
X006475Y007076D03*
X006468Y007074D03*
X006460Y007071D03*
X006458Y007071D03*
X006450Y007069D03*
X006443Y007066D03*
X006440Y007066D03*
X006433Y007064D03*
X006430Y007064D03*
X006428Y007064D03*
X006423Y007061D03*
X006420Y007061D03*
X006418Y007061D03*
X006413Y007059D03*
X006410Y007059D03*
X006408Y007059D03*
X006400Y007056D03*
X006398Y007056D03*
X006395Y007056D03*
X006390Y007054D03*
X006388Y007054D03*
X006385Y007054D03*
X006378Y007051D03*
X006375Y007051D03*
X006368Y007049D03*
X006365Y007049D03*
X006363Y007049D03*
X006360Y007049D03*
X006355Y007046D03*
X006353Y007046D03*
X006350Y007046D03*
X006348Y007046D03*
X006343Y007044D03*
X006340Y007044D03*
X006338Y007044D03*
X006335Y007044D03*
X006333Y007044D03*
X006328Y007041D03*
X006325Y007041D03*
X006323Y007041D03*
X006320Y007041D03*
X006313Y007039D03*
X006310Y007039D03*
X006308Y007039D03*
X006305Y007039D03*
X006300Y007036D03*
X006298Y007036D03*
X006295Y007036D03*
X006293Y007036D03*
X006290Y007036D03*
X006285Y007034D03*
X006283Y007034D03*
X006280Y007034D03*
X006278Y007034D03*
X006275Y007034D03*
X006273Y007034D03*
X006270Y007034D03*
X006268Y007031D03*
X006265Y007031D03*
X006263Y007031D03*
X006260Y007031D03*
X006258Y007031D03*
X006255Y007031D03*
X006253Y007031D03*
X006250Y007031D03*
X006248Y007029D03*
X006245Y007029D03*
X006243Y007029D03*
X006240Y007029D03*
X006238Y007029D03*
X006235Y007029D03*
X006233Y007029D03*
X006230Y007029D03*
X006228Y007026D03*
X006225Y007026D03*
X006223Y007026D03*
X006220Y007026D03*
X006218Y007026D03*
X006215Y007026D03*
X006213Y007026D03*
X006210Y007026D03*
X006208Y007024D03*
X006205Y007024D03*
X006203Y007024D03*
X006200Y007024D03*
X006198Y007024D03*
X006195Y007024D03*
X006193Y007024D03*
X006190Y007024D03*
X006188Y007024D03*
X006185Y007024D03*
X006183Y007024D03*
X006175Y007021D03*
X006173Y007021D03*
X006170Y007021D03*
X006168Y007021D03*
X006165Y007021D03*
X006163Y007021D03*
X006160Y007021D03*
X006158Y007021D03*
X006155Y007021D03*
X006153Y007021D03*
X006150Y007021D03*
X006148Y007021D03*
X006143Y007019D03*
X006140Y007019D03*
X006138Y007019D03*
X006135Y007019D03*
X006133Y007019D03*
X006130Y007019D03*
X006128Y007019D03*
X006125Y007019D03*
X006123Y007019D03*
X006120Y007019D03*
X006118Y007019D03*
X006115Y007019D03*
X006113Y007019D03*
X006110Y007019D03*
X006108Y007019D03*
X006105Y007019D03*
X006103Y007019D03*
X006100Y007019D03*
X006098Y007019D03*
X006095Y007019D03*
X006093Y007019D03*
X006090Y007019D03*
X006070Y007016D03*
X006068Y007016D03*
X006065Y007016D03*
X006063Y007016D03*
X006060Y007016D03*
X006058Y007016D03*
X006055Y007016D03*
X006053Y007016D03*
X006050Y007016D03*
X006048Y007016D03*
X006045Y007016D03*
X006043Y007016D03*
X006040Y007016D03*
X006038Y007016D03*
X006035Y007016D03*
X006033Y007016D03*
X006030Y007016D03*
X006028Y007016D03*
X006025Y007016D03*
X006005Y007019D03*
X006003Y007019D03*
X006000Y007019D03*
X005998Y007019D03*
X005995Y007019D03*
X005993Y007019D03*
X005990Y007019D03*
X005988Y007019D03*
X005985Y007019D03*
X005983Y007019D03*
X005980Y007019D03*
X005978Y007019D03*
X005975Y007019D03*
X005973Y007019D03*
X005970Y007019D03*
X005968Y007019D03*
X005965Y007019D03*
X005963Y007019D03*
X005960Y007019D03*
X005958Y007019D03*
X005955Y007019D03*
X005953Y007019D03*
X005948Y007021D03*
X005945Y007021D03*
X005943Y007021D03*
X005940Y007021D03*
X005938Y007021D03*
X005935Y007021D03*
X005933Y007021D03*
X005930Y007021D03*
X005928Y007021D03*
X005925Y007021D03*
X005923Y007021D03*
X005920Y007021D03*
X005913Y007024D03*
X005910Y007024D03*
X005908Y007024D03*
X005905Y007024D03*
X005903Y007024D03*
X005900Y007024D03*
X005898Y007024D03*
X005895Y007024D03*
X005893Y007024D03*
X005890Y007024D03*
X005888Y007024D03*
X005885Y007026D03*
X005883Y007026D03*
X005880Y007026D03*
X005878Y007026D03*
X005875Y007026D03*
X005873Y007026D03*
X005870Y007026D03*
X005868Y007026D03*
X005865Y007029D03*
X005863Y007029D03*
X005860Y007029D03*
X005858Y007029D03*
X005855Y007029D03*
X005853Y007029D03*
X005850Y007029D03*
X005848Y007029D03*
X005845Y007031D03*
X005843Y007031D03*
X005840Y007031D03*
X005838Y007031D03*
X005835Y007031D03*
X005833Y007031D03*
X005830Y007031D03*
X005828Y007031D03*
X005825Y007034D03*
X005823Y007034D03*
X005820Y007034D03*
X005818Y007034D03*
X005815Y007034D03*
X005813Y007034D03*
X005810Y007034D03*
X005805Y007036D03*
X005803Y007036D03*
X005800Y007036D03*
X005798Y007036D03*
X005795Y007036D03*
X005790Y007039D03*
X005788Y007039D03*
X005785Y007039D03*
X005783Y007039D03*
X005780Y007039D03*
X005775Y007041D03*
X005773Y007041D03*
X005770Y007041D03*
X005768Y007041D03*
X005763Y007044D03*
X005760Y007044D03*
X005758Y007044D03*
X005755Y007044D03*
X005753Y007044D03*
X005748Y007046D03*
X005745Y007046D03*
X005743Y007046D03*
X005740Y007046D03*
X005735Y007049D03*
X005733Y007049D03*
X005730Y007049D03*
X005728Y007049D03*
X005720Y007051D03*
X005718Y007051D03*
X005710Y007054D03*
X005708Y007054D03*
X005705Y007054D03*
X005700Y007056D03*
X005698Y007056D03*
X005695Y007056D03*
X005688Y007059D03*
X005685Y007059D03*
X005683Y007059D03*
X005678Y007061D03*
X005675Y007061D03*
X005673Y007061D03*
X005668Y007064D03*
X005665Y007064D03*
X005663Y007064D03*
X005655Y007066D03*
X005653Y007066D03*
X005645Y007069D03*
X005638Y007071D03*
X005635Y007071D03*
X005628Y007074D03*
X005625Y007074D03*
X005618Y007076D03*
X005610Y007079D03*
X005608Y007079D03*
X005600Y007081D03*
X005593Y007084D03*
X005590Y007084D03*
X005583Y007086D03*
X005575Y007089D03*
X005568Y007091D03*
X005560Y007094D03*
X005553Y007096D03*
X005545Y007099D03*
X005538Y007101D03*
X005530Y007104D03*
X005523Y007106D03*
X005515Y007109D03*
X004448Y007504D03*
X004448Y007729D03*
X004145Y008591D03*
X004205Y008761D03*
X004343Y009619D03*
D405*
X006490Y009021D03*
X006493Y009021D03*
X006498Y009019D03*
X006500Y009019D03*
X006503Y009016D03*
X006505Y009016D03*
D406*
X006495Y009020D03*
X006488Y009023D03*
X006485Y009023D03*
X006483Y009025D03*
D407*
X006480Y009026D03*
X006478Y009026D03*
X006475Y009029D03*
X006473Y009029D03*
D408*
X006470Y009030D03*
X006468Y009030D03*
X006465Y009033D03*
X006463Y009033D03*
X006458Y009035D03*
D409*
X006460Y009034D03*
X006455Y009036D03*
X006453Y009036D03*
X006448Y009039D03*
D410*
X006450Y009038D03*
X006445Y009040D03*
D411*
X006443Y009041D03*
X006440Y009041D03*
X006438Y009044D03*
X006435Y009044D03*
D412*
X006433Y009045D03*
X006430Y009045D03*
X006428Y009048D03*
D413*
X006425Y009049D03*
X006423Y009049D03*
D414*
X006420Y009050D03*
X006415Y009053D03*
D415*
X006413Y009054D03*
X006410Y009054D03*
X006418Y009051D03*
D416*
X006408Y009055D03*
X006405Y009058D03*
X006403Y009058D03*
D417*
X006400Y009059D03*
X006395Y009061D03*
D418*
X006398Y009060D03*
X006393Y009063D03*
D419*
X006390Y009064D03*
X006388Y009064D03*
D420*
X006385Y009065D03*
X006383Y009068D03*
D421*
X006380Y009069D03*
X006378Y009069D03*
D422*
X006375Y009070D03*
X006373Y009073D03*
X006370Y009073D03*
D423*
X006368Y009074D03*
D424*
X006365Y009075D03*
X006360Y009078D03*
D425*
X006358Y009079D03*
X006363Y009076D03*
D426*
X006355Y009080D03*
D427*
X006353Y009081D03*
X006350Y009081D03*
D428*
X006348Y009083D03*
X006345Y009085D03*
D429*
X006343Y009086D03*
D430*
X006340Y009088D03*
X006338Y009088D03*
D431*
X006335Y009089D03*
X006333Y009091D03*
D432*
X006330Y009093D03*
D433*
X006328Y009094D03*
D434*
X006325Y009095D03*
X006323Y009095D03*
D435*
X006320Y009096D03*
X006318Y009099D03*
D436*
X006315Y009100D03*
D437*
X006313Y009101D03*
D438*
X006310Y009103D03*
D439*
X006308Y009104D03*
X006303Y009106D03*
D440*
X006305Y009105D03*
X006300Y009108D03*
D441*
X006298Y009109D03*
D442*
X006295Y009110D03*
D443*
X006293Y009111D03*
X006290Y009114D03*
D444*
X006288Y009115D03*
D445*
X006285Y009116D03*
D446*
X006283Y009118D03*
D447*
X006280Y009119D03*
D448*
X006278Y009120D03*
D449*
X006275Y009121D03*
D450*
X006273Y009123D03*
X006270Y009125D03*
D451*
X006268Y009126D03*
D452*
X006265Y009128D03*
D453*
X006263Y009129D03*
D454*
X006260Y009130D03*
D455*
X006258Y009131D03*
D456*
X006255Y009133D03*
D457*
X006253Y009134D03*
D458*
X006250Y009138D03*
D459*
X006248Y009139D03*
D460*
X006245Y009140D03*
D461*
X006243Y009141D03*
D462*
X006240Y009143D03*
D463*
X006238Y009144D03*
D464*
X006235Y009146D03*
D465*
X006233Y009148D03*
X006230Y009150D03*
D466*
X006228Y009151D03*
D467*
X006225Y009153D03*
D468*
X006223Y009154D03*
D469*
X006220Y009156D03*
D470*
X006218Y009158D03*
D471*
X006215Y009159D03*
D472*
X006213Y009161D03*
X006210Y009164D03*
D473*
X006208Y009165D03*
D474*
X006205Y009166D03*
D475*
X006203Y009169D03*
D476*
X006200Y009170D03*
D477*
X006198Y009171D03*
D478*
X006195Y009174D03*
D479*
X006193Y009175D03*
D480*
X006190Y009178D03*
D481*
X006188Y009179D03*
D482*
X006185Y009181D03*
D483*
X006183Y009183D03*
D484*
X006180Y007023D03*
X006178Y007023D03*
X006145Y007020D03*
X006088Y007018D03*
X006085Y007018D03*
X006083Y007018D03*
X006080Y007018D03*
X006078Y007018D03*
X006075Y007018D03*
X006073Y007018D03*
X006023Y007018D03*
X006020Y007018D03*
X006018Y007018D03*
X006015Y007018D03*
X006013Y007018D03*
X006010Y007018D03*
X006008Y007018D03*
X005950Y007020D03*
X005918Y007023D03*
X005915Y007023D03*
X004363Y007248D03*
D485*
X006180Y009184D03*
D486*
X006178Y009188D03*
D487*
X006175Y009190D03*
D488*
X006173Y009191D03*
D489*
X006170Y009194D03*
D490*
X006168Y009195D03*
D491*
X006160Y009201D03*
D492*
X006150Y009210D03*
D493*
X006130Y009230D03*
D494*
X006125Y009235D03*
D495*
X006110Y009251D03*
D496*
X006108Y009255D03*
D497*
X006075Y009304D03*
D498*
X006073Y009308D03*
D499*
X006070Y009314D03*
D500*
X006045Y009436D03*
D501*
X006043Y009450D03*
D502*
X006040Y009460D03*
D503*
X006038Y009469D03*
D504*
X006035Y009475D03*
D505*
X006030Y009489D03*
D506*
X006020Y009509D03*
D507*
X006005Y009533D03*
D508*
X005980Y009564D03*
D509*
X005978Y009566D03*
D510*
X005970Y009575D03*
D511*
X005968Y009578D03*
D512*
X005908Y009626D03*
D513*
X005903Y009630D03*
D514*
X005900Y009631D03*
D515*
X005898Y009634D03*
D516*
X005895Y009635D03*
D517*
X005890Y009639D03*
D518*
X005888Y009640D03*
D519*
X005880Y009644D03*
D520*
X005878Y009645D03*
D521*
X005875Y009646D03*
D522*
X005870Y009650D03*
D523*
X005868Y009651D03*
D524*
X005863Y009653D03*
D525*
X005858Y009656D03*
D526*
X005855Y009658D03*
D527*
X005853Y009659D03*
D528*
X005848Y009661D03*
D529*
X005843Y009664D03*
D530*
X005840Y009665D03*
D531*
X005838Y009666D03*
D532*
X005833Y009669D03*
D533*
X005830Y009670D03*
D534*
X005828Y009671D03*
D535*
X005823Y009673D03*
D536*
X005820Y009674D03*
D537*
X005815Y009676D03*
D538*
X005813Y009678D03*
D539*
X005808Y009680D03*
D540*
X005805Y009681D03*
D541*
X005803Y009681D03*
D542*
X005798Y009684D03*
D543*
X005795Y009685D03*
D544*
X005793Y009686D03*
D545*
X005790Y009686D03*
D546*
X005788Y009688D03*
X005785Y009688D03*
D547*
X005783Y009689D03*
D548*
X005778Y009691D03*
D549*
X005775Y009691D03*
D550*
X005773Y009693D03*
D551*
X005765Y009695D03*
D552*
X005763Y009696D03*
D553*
X005758Y009698D03*
D554*
X005755Y009699D03*
X005753Y009699D03*
D555*
X005750Y009700D03*
D556*
X005745Y009701D03*
X005743Y009701D03*
D557*
X005740Y009703D03*
D558*
X005738Y009704D03*
D559*
X005733Y009705D03*
X005730Y009705D03*
D560*
X005728Y009706D03*
D561*
X005725Y009708D03*
X005723Y009708D03*
D562*
X005720Y009708D03*
D563*
X005718Y009709D03*
D564*
X005715Y009710D03*
X005713Y009710D03*
D565*
X005710Y009710D03*
D566*
X005708Y009711D03*
X005705Y009711D03*
D567*
X005703Y009713D03*
D568*
X005700Y009714D03*
D569*
X005695Y009714D03*
D570*
X005693Y009715D03*
X005690Y009715D03*
D571*
X005685Y009716D03*
X005683Y009716D03*
D572*
X005680Y009718D03*
D573*
X005678Y009718D03*
X005675Y009718D03*
D574*
X005668Y009720D03*
D575*
X005665Y009720D03*
X005663Y009720D03*
D576*
X005660Y009721D03*
X005658Y009721D03*
D577*
X005655Y009721D03*
X005653Y009721D03*
D578*
X005650Y009723D03*
D579*
X005648Y009724D03*
D580*
X005645Y009723D03*
D581*
X005638Y009725D03*
D582*
X005635Y009724D03*
D583*
X005633Y009725D03*
D584*
X005630Y009726D03*
D585*
X005625Y009726D03*
X005623Y009726D03*
D586*
X005620Y009728D03*
D587*
X005618Y009726D03*
D588*
X005615Y009728D03*
X005613Y009728D03*
D589*
X005605Y009729D03*
X005603Y009729D03*
D590*
X005600Y009729D03*
X005598Y009729D03*
D591*
X005595Y009730D03*
D592*
X005588Y009730D03*
X005585Y009730D03*
D593*
X005583Y009730D03*
X005580Y009730D03*
D594*
X005578Y009731D03*
D595*
X005575Y009730D03*
X005573Y009730D03*
D596*
X005565Y009731D03*
X005563Y009731D03*
D597*
X005560Y009733D03*
D598*
X005553Y009733D03*
D599*
X005550Y009731D03*
D600*
X005548Y009733D03*
X005545Y009733D03*
D601*
X005543Y009731D03*
D602*
X005540Y009733D03*
X005538Y009733D03*
D603*
X005533Y009733D03*
D604*
X005530Y009731D03*
D605*
X005528Y009733D03*
X005525Y009733D03*
D606*
X005523Y009731D03*
D607*
X005515Y009731D03*
D608*
X005513Y009733D03*
X005510Y009733D03*
D609*
X005508Y009731D03*
D610*
X005505Y009733D03*
X005503Y009733D03*
D611*
X005500Y009731D03*
D612*
X005493Y009731D03*
D613*
X005490Y009733D03*
X005488Y009733D03*
D614*
X005480Y009731D03*
X005478Y009731D03*
X005475Y009731D03*
D615*
X005473Y009731D03*
X005470Y009731D03*
D616*
X005468Y009730D03*
X005465Y009730D03*
D617*
X005460Y008604D03*
X004373Y008799D03*
X004163Y008826D03*
X004370Y009206D03*
X004163Y009559D03*
X004173Y010169D03*
X004370Y008364D03*
X004348Y008081D03*
X004300Y007704D03*
X004345Y007556D03*
X004248Y007504D03*
D618*
X005458Y009730D03*
X005460Y009730D03*
D619*
X005455Y009729D03*
D620*
X005450Y008604D03*
X005075Y008604D03*
X004365Y008591D03*
X004285Y008836D03*
X004190Y008826D03*
X004185Y008824D03*
X004183Y008821D03*
X004148Y008071D03*
X004145Y008071D03*
X004333Y008081D03*
X004423Y007726D03*
X004423Y007501D03*
X004310Y007504D03*
X004183Y009996D03*
X004180Y009996D03*
D621*
X004185Y009765D03*
X004358Y009765D03*
X004173Y009243D03*
X004358Y008590D03*
X004325Y008083D03*
X004328Y007745D03*
X004325Y007743D03*
X004323Y007740D03*
X004418Y007728D03*
X004335Y007525D03*
X004328Y007520D03*
X004325Y007518D03*
X004418Y007503D03*
X004123Y007535D03*
X004123Y007760D03*
X004335Y007015D03*
X005448Y008605D03*
D622*
X005445Y008604D03*
X005080Y008604D03*
X004368Y008826D03*
X004365Y008826D03*
X004180Y009239D03*
X004363Y008336D03*
X004365Y008336D03*
X004128Y007756D03*
X004128Y007531D03*
X004413Y007504D03*
X004328Y007019D03*
D623*
X004318Y007276D03*
X004343Y007519D03*
X004408Y007504D03*
X004343Y007744D03*
X004138Y007751D03*
X004138Y007526D03*
X004145Y007024D03*
X004185Y008341D03*
X004188Y008341D03*
X004448Y008604D03*
X004358Y009234D03*
X004355Y009234D03*
X005443Y008604D03*
D624*
X005443Y009729D03*
X005440Y009729D03*
X005438Y009729D03*
D625*
X005438Y008604D03*
X005088Y008604D03*
X004238Y008066D03*
D626*
X004508Y008934D03*
X004513Y008951D03*
X005435Y008604D03*
D627*
X005433Y008604D03*
X005093Y008604D03*
X004498Y008896D03*
X004500Y008906D03*
X004528Y008996D03*
X004530Y009004D03*
X004538Y009024D03*
D628*
X005433Y009729D03*
D629*
X005430Y008604D03*
X004490Y008861D03*
X004555Y009066D03*
X004558Y009071D03*
D630*
X004565Y009089D03*
X005428Y008604D03*
D631*
X005425Y008604D03*
X005100Y008604D03*
X004578Y009116D03*
X004575Y009111D03*
X004485Y008834D03*
D632*
X004590Y009140D03*
X004593Y009145D03*
X004595Y009150D03*
X005423Y008605D03*
D633*
X005423Y009726D03*
D634*
X005418Y008604D03*
X005110Y008604D03*
X004615Y009186D03*
X004618Y009189D03*
X004620Y009194D03*
D635*
X005415Y009726D03*
X005418Y009726D03*
D636*
X005415Y008604D03*
X004628Y009206D03*
X004630Y009211D03*
D637*
X004635Y009219D03*
X004638Y009224D03*
X004480Y008799D03*
X005413Y008604D03*
D638*
X005410Y008604D03*
X005115Y008604D03*
X004643Y009231D03*
X004645Y009234D03*
X004648Y009239D03*
D639*
X004653Y009246D03*
X004658Y009254D03*
X005118Y008604D03*
X005408Y008604D03*
D640*
X005405Y008604D03*
X005123Y008604D03*
X004665Y009264D03*
D641*
X005403Y009725D03*
X005405Y009725D03*
D642*
X005403Y008604D03*
X005125Y008604D03*
X004675Y009279D03*
D643*
X004683Y009289D03*
X004685Y009291D03*
X005128Y008604D03*
X005400Y008604D03*
D644*
X005398Y008605D03*
X004688Y009295D03*
D645*
X004690Y009299D03*
X004693Y009301D03*
X004695Y009306D03*
X004698Y009309D03*
X005130Y008604D03*
X005395Y008604D03*
D646*
X005393Y008604D03*
X005133Y008604D03*
X004705Y009319D03*
D647*
X005393Y009724D03*
D648*
X005390Y008604D03*
X005138Y008604D03*
X005135Y008604D03*
X004713Y009329D03*
X004715Y009331D03*
D649*
X004730Y009349D03*
X004733Y009351D03*
X005143Y008604D03*
X005383Y008604D03*
X004190Y010076D03*
D650*
X004745Y009366D03*
X004743Y009364D03*
X005145Y008604D03*
X005148Y008604D03*
X005380Y008604D03*
D651*
X005378Y008605D03*
X004748Y009370D03*
X004750Y009373D03*
D652*
X005150Y008604D03*
X005375Y008604D03*
D653*
X005373Y008604D03*
X005370Y008604D03*
X005155Y008604D03*
X004760Y009384D03*
X004763Y009386D03*
X004765Y009389D03*
D654*
X004768Y009391D03*
X004770Y009394D03*
X004773Y009396D03*
X004775Y009399D03*
X005158Y008604D03*
X005160Y008604D03*
X005368Y008604D03*
D655*
X005368Y009719D03*
X005365Y009719D03*
D656*
X005365Y008604D03*
X005363Y008604D03*
X005163Y008604D03*
X004780Y009404D03*
X004783Y009406D03*
D657*
X004793Y009416D03*
X005168Y008604D03*
X005358Y008604D03*
X005360Y008604D03*
D658*
X005350Y008604D03*
X005348Y008604D03*
X005180Y008604D03*
X005178Y008604D03*
X004810Y009434D03*
X004813Y009436D03*
D659*
X004818Y009441D03*
X004820Y009444D03*
X004823Y009446D03*
X004825Y009449D03*
X005183Y008604D03*
X005185Y008604D03*
X005340Y008604D03*
X005343Y008604D03*
X005345Y008604D03*
D660*
X005338Y008604D03*
X005335Y008604D03*
X005333Y008604D03*
X005193Y008604D03*
X005190Y008604D03*
X005188Y008604D03*
X004830Y009454D03*
D661*
X004840Y009461D03*
X004843Y009464D03*
X004845Y009466D03*
X005195Y008604D03*
X005198Y008604D03*
X005200Y008604D03*
X005328Y008604D03*
X005330Y008604D03*
D662*
X005325Y008605D03*
D663*
X005323Y008604D03*
X005320Y008604D03*
X005318Y008604D03*
X005208Y008604D03*
X005205Y008604D03*
X005203Y008604D03*
X004848Y009469D03*
X004850Y009471D03*
X004853Y009474D03*
D664*
X004860Y009479D03*
X004863Y009481D03*
X005213Y008604D03*
X005215Y008604D03*
X005218Y008604D03*
X005308Y008604D03*
X005310Y008604D03*
X005313Y008604D03*
X005315Y008604D03*
D665*
X005305Y008604D03*
X005303Y008604D03*
X005300Y008604D03*
X005298Y008604D03*
X005295Y008604D03*
X005293Y008604D03*
X005233Y008604D03*
X005230Y008604D03*
X005228Y008604D03*
X005225Y008604D03*
X005223Y008604D03*
X004868Y009486D03*
X004870Y009489D03*
D666*
X004878Y009494D03*
X004880Y009496D03*
X004883Y009499D03*
X005238Y008604D03*
X005240Y008604D03*
X005243Y008604D03*
X005245Y008604D03*
X005248Y008604D03*
X005250Y008604D03*
X005253Y008604D03*
X005255Y008604D03*
X005258Y008604D03*
X005260Y008604D03*
X005263Y008604D03*
X005265Y008604D03*
X005268Y008604D03*
X005270Y008604D03*
X005273Y008604D03*
X005275Y008604D03*
X005278Y008604D03*
X005280Y008604D03*
X005283Y008604D03*
X005285Y008604D03*
X005288Y008604D03*
X004458Y008604D03*
D667*
X004865Y009485D03*
X005220Y008605D03*
D668*
X005185Y009670D03*
X005188Y009673D03*
X005190Y009673D03*
D669*
X005183Y009669D03*
X005180Y009669D03*
D670*
X005178Y009668D03*
X004400Y007183D03*
D671*
X005173Y009666D03*
X005175Y009666D03*
D672*
X004798Y009423D03*
X004795Y009420D03*
X005170Y008605D03*
D673*
X005165Y008605D03*
X004785Y009410D03*
X004788Y009413D03*
X004790Y009415D03*
X004400Y008030D03*
X004398Y008030D03*
X004395Y008030D03*
X004393Y008030D03*
X004390Y008030D03*
X004388Y008030D03*
D674*
X005160Y009661D03*
X005163Y009661D03*
D675*
X005158Y009660D03*
X004395Y007178D03*
D676*
X004393Y007176D03*
X005153Y009659D03*
X005155Y009659D03*
D677*
X004758Y009380D03*
X004755Y009378D03*
X004753Y009375D03*
X005153Y008605D03*
D678*
X005145Y009655D03*
X005150Y009658D03*
X004390Y007175D03*
D679*
X004388Y007174D03*
X004468Y008604D03*
X005143Y009654D03*
X005148Y009656D03*
D680*
X005140Y009653D03*
X004385Y007173D03*
X004383Y007173D03*
X004380Y007173D03*
D681*
X005128Y009648D03*
X005130Y009648D03*
X005133Y009650D03*
D682*
X005123Y009645D03*
D683*
X004663Y009260D03*
X004660Y009258D03*
X005120Y008605D03*
D684*
X005115Y009641D03*
X005118Y009644D03*
X005120Y009644D03*
D685*
X004633Y009215D03*
X005113Y008605D03*
D686*
X005113Y009640D03*
X005110Y009640D03*
D687*
X005108Y009639D03*
D688*
X005105Y009638D03*
X005103Y009635D03*
X005100Y009635D03*
D689*
X004588Y009136D03*
X005103Y008604D03*
D690*
X005098Y008605D03*
X004488Y008850D03*
X004560Y009078D03*
X004563Y009083D03*
D691*
X005093Y009631D03*
X005098Y009634D03*
D692*
X005095Y008604D03*
X004493Y008874D03*
X004495Y008886D03*
X004543Y009036D03*
X004548Y009049D03*
D693*
X005090Y009630D03*
X005095Y009633D03*
D694*
X005090Y008604D03*
D695*
X005085Y008604D03*
X004145Y007749D03*
X004143Y007749D03*
X004143Y007524D03*
X004145Y007524D03*
D696*
X005080Y009625D03*
X005083Y009628D03*
X005085Y009628D03*
D697*
X005078Y008604D03*
X004360Y008591D03*
X004185Y008591D03*
X004328Y008081D03*
X004335Y007749D03*
X004320Y007739D03*
X004318Y007736D03*
X004323Y007516D03*
X004320Y007514D03*
X004318Y007511D03*
X004120Y007536D03*
X004120Y007761D03*
X004338Y007014D03*
X004170Y009244D03*
D698*
X005070Y009620D03*
X005073Y009623D03*
X005075Y009623D03*
D699*
X005070Y008604D03*
X004505Y008241D03*
X004168Y008591D03*
X004133Y008071D03*
X004430Y007726D03*
X004170Y009559D03*
X004188Y010169D03*
D700*
X005068Y009619D03*
D701*
X005065Y009618D03*
X005060Y009615D03*
D702*
X005058Y009614D03*
X005063Y009616D03*
D703*
X005055Y008604D03*
D704*
X005053Y009610D03*
X005055Y009613D03*
D705*
X005050Y009609D03*
X005048Y009609D03*
D706*
X005045Y009608D03*
X005043Y009605D03*
D707*
X005040Y009604D03*
X005035Y009601D03*
D708*
X005033Y009600D03*
X005038Y009603D03*
D709*
X005025Y009595D03*
X005023Y009595D03*
D710*
X005020Y009594D03*
X005018Y009591D03*
D711*
X005015Y009590D03*
D712*
X005013Y009589D03*
X005010Y009586D03*
D713*
X005008Y009585D03*
X005005Y009585D03*
X005003Y009583D03*
D714*
X005000Y009581D03*
D715*
X004998Y009580D03*
X004995Y009578D03*
D716*
X004993Y009576D03*
X004990Y009574D03*
D717*
X004988Y009573D03*
X004985Y009573D03*
X004983Y009570D03*
D718*
X004980Y009569D03*
X004978Y009566D03*
D719*
X004975Y009565D03*
D720*
X004968Y009560D03*
X004965Y009560D03*
X004963Y009558D03*
D721*
X004960Y009556D03*
X004958Y009554D03*
X004460Y008604D03*
D722*
X004953Y009550D03*
X004955Y009553D03*
D723*
X004945Y009545D03*
D724*
X004943Y009544D03*
X004940Y009541D03*
D725*
X004938Y009540D03*
X004935Y009538D03*
D726*
X004933Y009536D03*
X004930Y009534D03*
D727*
X004928Y009533D03*
X004925Y009530D03*
D728*
X004923Y009529D03*
X004920Y009526D03*
D729*
X004918Y009525D03*
X004915Y009523D03*
D730*
X004908Y009518D03*
X004905Y009515D03*
D731*
X004903Y009514D03*
X004900Y009511D03*
D732*
X004898Y009510D03*
X004895Y009508D03*
X004385Y008003D03*
X004383Y008003D03*
D733*
X004380Y008004D03*
X004378Y008004D03*
X004890Y009504D03*
X004893Y009506D03*
D734*
X004888Y009503D03*
X004885Y009500D03*
D735*
X004838Y009460D03*
X004835Y009458D03*
X004833Y009455D03*
D736*
X004828Y009450D03*
D737*
X004815Y009440D03*
D738*
X004808Y009433D03*
X004805Y009430D03*
D739*
X004778Y009403D03*
D740*
X004740Y009360D03*
X004738Y009358D03*
X004735Y009355D03*
D741*
X004728Y009345D03*
X004725Y009343D03*
D742*
X004720Y009338D03*
X004718Y009335D03*
D743*
X004710Y009325D03*
X004708Y009323D03*
D744*
X004703Y009315D03*
X004700Y009313D03*
D745*
X004680Y009285D03*
X004678Y009283D03*
D746*
X004673Y009275D03*
X004670Y009273D03*
X004668Y009268D03*
D747*
X004655Y009250D03*
X004650Y009243D03*
D748*
X004640Y009228D03*
D749*
X004625Y009203D03*
X004623Y009198D03*
D750*
X004613Y009183D03*
X004610Y009178D03*
D751*
X004600Y009160D03*
X004480Y008400D03*
D752*
X004580Y009120D03*
X004583Y009125D03*
X004585Y009130D03*
D753*
X004573Y009105D03*
X004570Y009100D03*
X004568Y009095D03*
D754*
X004553Y009060D03*
X004550Y009055D03*
X004545Y009043D03*
D755*
X004525Y008990D03*
X004523Y008983D03*
X004520Y008975D03*
X004518Y008968D03*
X004515Y008960D03*
X004510Y008943D03*
X004505Y008925D03*
X004503Y008915D03*
D756*
X004370Y008799D03*
X004163Y008591D03*
X004513Y008209D03*
X004515Y008199D03*
X004333Y007251D03*
X004368Y009206D03*
X004380Y009556D03*
D757*
X004380Y009764D03*
X004180Y010169D03*
X004365Y009206D03*
X004268Y008854D03*
X004380Y008591D03*
X004510Y008219D03*
X004345Y008081D03*
D758*
X004503Y008253D03*
X004375Y008590D03*
X004170Y008825D03*
X004373Y009558D03*
X004375Y009765D03*
X004238Y007728D03*
X004238Y007503D03*
X004430Y007503D03*
D759*
X004323Y008081D03*
X004490Y008319D03*
X004188Y008591D03*
X004175Y009241D03*
X004188Y009764D03*
X004333Y007016D03*
D760*
X004303Y007489D03*
X004433Y007501D03*
X004433Y007726D03*
X004168Y008826D03*
X004193Y009034D03*
X004195Y009034D03*
X004198Y009034D03*
X004168Y009559D03*
X004183Y010169D03*
X004185Y010169D03*
D761*
X004275Y008844D03*
X004175Y008824D03*
X004373Y008591D03*
X004338Y008081D03*
X004428Y007726D03*
X004428Y007501D03*
X004138Y008071D03*
D762*
X004335Y008083D03*
X004308Y007725D03*
X004425Y007728D03*
X004425Y007503D03*
X004308Y007500D03*
X004175Y008590D03*
X004178Y008823D03*
X004280Y008840D03*
X004365Y009558D03*
X004178Y009560D03*
X004175Y009765D03*
D763*
X004183Y009238D03*
X004185Y009238D03*
X004360Y008825D03*
X004363Y008825D03*
X004360Y008338D03*
X004340Y007745D03*
X004413Y007728D03*
X004340Y007520D03*
X004330Y007280D03*
X004325Y007020D03*
X004130Y007530D03*
X004130Y007755D03*
D764*
X004298Y008150D03*
X004400Y008360D03*
X004203Y009098D03*
X004205Y009618D03*
D765*
X004400Y009551D03*
X004400Y009766D03*
X004210Y008761D03*
X004400Y008591D03*
X004105Y007504D03*
D766*
X004300Y008149D03*
X004400Y008794D03*
X004145Y010029D03*
D767*
X004335Y009621D03*
X004400Y009201D03*
D768*
X004400Y009399D03*
X004328Y009399D03*
D769*
X004330Y009398D03*
X004398Y009398D03*
X004340Y009620D03*
D770*
X004385Y009765D03*
X004160Y009560D03*
X004375Y009205D03*
X004160Y008828D03*
X004378Y008798D03*
X004385Y008590D03*
X004375Y008363D03*
X004170Y008370D03*
X004123Y008073D03*
X004250Y007728D03*
X004250Y007503D03*
X004350Y008080D03*
X004130Y007053D03*
X004168Y010170D03*
D771*
X004173Y009765D03*
X004175Y009560D03*
X004368Y009558D03*
X004173Y008590D03*
X004230Y007728D03*
X004233Y007728D03*
X004233Y007503D03*
D772*
X004310Y007728D03*
X004178Y008590D03*
X004180Y008823D03*
X004283Y008838D03*
X004188Y009553D03*
X004363Y009558D03*
X004368Y009765D03*
X004178Y009765D03*
X004178Y009995D03*
D773*
X004185Y009998D03*
X004188Y009998D03*
X004180Y009765D03*
X004365Y009765D03*
X004360Y009558D03*
X004358Y009555D03*
X004355Y009555D03*
X004188Y008825D03*
X004180Y008590D03*
X004313Y007730D03*
D774*
X004303Y008149D03*
X004208Y008761D03*
X004145Y009086D03*
X004200Y009616D03*
X004145Y010171D03*
X004145Y008374D03*
X004363Y007041D03*
D775*
X004340Y007013D03*
X004330Y007523D03*
X004333Y007525D03*
X004330Y007748D03*
X004333Y007750D03*
X004183Y008590D03*
X004290Y008833D03*
X004168Y009245D03*
X004183Y009765D03*
X004360Y009765D03*
D776*
X004338Y009620D03*
X004203Y009618D03*
X004105Y007728D03*
X004105Y007055D03*
D777*
X004240Y008065D03*
D778*
X004235Y008068D03*
X004233Y008068D03*
X004230Y008068D03*
X004228Y008068D03*
X004225Y008068D03*
X004223Y008068D03*
X004220Y008068D03*
X004218Y008068D03*
X004215Y008068D03*
X004213Y008068D03*
X004210Y008068D03*
X004208Y008068D03*
D779*
X004190Y008343D03*
X004140Y007750D03*
X004140Y007525D03*
X004148Y007025D03*
X004150Y007025D03*
M02*
