G75*
G70*
%OFA0B0*%
%FSLAX24Y24*%
%IPPOS*%
%LPD*%
%AMOC8*
5,1,8,0,0,1.08239X$1,22.5*
%
%ADD10C,0.0040*%
%ADD11C,0.0060*%
%ADD12C,0.0020*%
%ADD13R,0.1000X0.6000*%
%ADD14C,0.0050*%
%ADD15C,0.0080*%
D10*
X006519Y012045D02*
X006442Y012122D01*
X006442Y012429D01*
X006519Y012505D01*
X006749Y012505D01*
X006749Y012045D01*
X006519Y012045D01*
X006902Y012045D02*
X006902Y012505D01*
X007209Y012505D02*
X006902Y012045D01*
X007209Y012045D02*
X007209Y012505D01*
X007363Y012429D02*
X007439Y012505D01*
X007593Y012505D01*
X007670Y012429D01*
X007670Y012122D01*
X007593Y012045D01*
X007439Y012045D01*
X007363Y012122D01*
X007363Y012275D01*
X007516Y012275D01*
X007823Y012275D02*
X008130Y012275D01*
X008130Y012352D02*
X007977Y012505D01*
X007823Y012352D01*
X007823Y012045D01*
X008130Y012045D02*
X008130Y012352D01*
X004352Y016045D02*
X004505Y016198D01*
X004352Y016352D01*
X004045Y016352D01*
X004275Y016352D02*
X004275Y016045D01*
X004352Y016045D02*
X004045Y016045D01*
X004045Y017045D02*
X004045Y017275D01*
X004122Y017352D01*
X004198Y017352D01*
X004275Y017275D01*
X004275Y017045D01*
X004045Y017045D02*
X004505Y017045D01*
X004505Y017275D01*
X004429Y017352D01*
X004352Y017352D01*
X004275Y017275D01*
X004122Y018045D02*
X004045Y018122D01*
X004045Y018275D01*
X004122Y018352D01*
X004122Y018045D02*
X004429Y018045D01*
X004505Y018122D01*
X004505Y018275D01*
X004429Y018352D01*
X004505Y019045D02*
X004045Y019045D01*
X004045Y019275D01*
X004122Y019352D01*
X004429Y019352D01*
X004505Y019275D01*
X004505Y019045D01*
X005920Y021670D02*
X005920Y021900D01*
X005997Y021977D01*
X006304Y021977D01*
X006380Y021900D01*
X006380Y021670D01*
X005920Y021670D01*
X005920Y022130D02*
X006227Y022130D01*
X006380Y022284D01*
X006227Y022437D01*
X005920Y022437D01*
X005997Y022591D02*
X005920Y022668D01*
X005920Y022821D01*
X005997Y022898D01*
X005997Y022591D02*
X006304Y022591D01*
X006380Y022668D01*
X006380Y022821D01*
X006304Y022898D01*
X006150Y022437D02*
X006150Y022130D01*
X007920Y022130D02*
X007920Y022361D01*
X007997Y022437D01*
X008304Y022437D01*
X008380Y022361D01*
X008380Y022130D01*
X007920Y022130D01*
X007920Y021977D02*
X008227Y021977D01*
X008380Y021823D01*
X008227Y021670D01*
X007920Y021670D01*
X008150Y021670D02*
X008150Y021977D01*
X007997Y022591D02*
X007920Y022668D01*
X007920Y022821D01*
X007997Y022898D01*
X007997Y022591D02*
X008304Y022591D01*
X008380Y022668D01*
X008380Y022821D01*
X008304Y022898D01*
D11*
X007275Y020650D02*
X007275Y015650D01*
X006995Y012900D02*
X005525Y012900D01*
X005505Y012902D01*
X005486Y012906D01*
X005468Y012914D01*
X005452Y012924D01*
X005437Y012937D01*
X005424Y012952D01*
X005414Y012968D01*
X005406Y012986D01*
X005402Y013005D01*
X005400Y013025D01*
X005412Y011382D02*
X005995Y011382D01*
X005990Y011410D02*
X005370Y011380D01*
X005250Y010620D01*
X004580Y010350D01*
X003950Y010760D01*
X003540Y010350D01*
X003970Y009680D01*
X003710Y009070D01*
X002940Y008920D01*
X002950Y008300D01*
X003720Y008160D01*
X003970Y007520D01*
X003520Y006860D01*
X003970Y006440D01*
X004600Y006870D01*
X005260Y006580D01*
X005400Y005820D01*
X006000Y005840D01*
X006140Y006630D01*
X006880Y006840D01*
X007430Y006450D01*
X007850Y006870D01*
X007440Y007480D01*
X007580Y007710D01*
X006480Y008170D01*
X006110Y007780D01*
X005540Y007710D01*
X005000Y007980D01*
X004770Y008590D01*
X004930Y009170D01*
X005360Y009500D01*
X005860Y009540D01*
X006340Y009320D01*
X006520Y009060D01*
X007590Y009500D01*
X007420Y009750D01*
X007850Y010360D01*
X007430Y010780D01*
X006810Y010350D01*
X006120Y010650D01*
X005990Y011410D01*
X006005Y011324D02*
X005361Y011324D01*
X005352Y011265D02*
X006015Y011265D01*
X006025Y011207D02*
X005343Y011207D01*
X005333Y011148D02*
X006035Y011148D01*
X006045Y011090D02*
X005324Y011090D01*
X005315Y011031D02*
X006055Y011031D01*
X006065Y010973D02*
X005306Y010973D01*
X005296Y010914D02*
X006075Y010914D01*
X006085Y010856D02*
X005287Y010856D01*
X005278Y010797D02*
X006095Y010797D01*
X006105Y010739D02*
X005269Y010739D01*
X005259Y010680D02*
X006115Y010680D01*
X006185Y010622D02*
X005250Y010622D01*
X005109Y010563D02*
X006320Y010563D01*
X006455Y010505D02*
X004963Y010505D01*
X004818Y010446D02*
X006589Y010446D01*
X006724Y010388D02*
X004673Y010388D01*
X004522Y010388D02*
X003578Y010388D01*
X003553Y010329D02*
X007828Y010329D01*
X007822Y010388D02*
X006864Y010388D01*
X006948Y010446D02*
X007764Y010446D01*
X007705Y010505D02*
X007033Y010505D01*
X007117Y010563D02*
X007647Y010563D01*
X007588Y010622D02*
X007202Y010622D01*
X007286Y010680D02*
X007530Y010680D01*
X007471Y010739D02*
X007370Y010739D01*
X007704Y010154D02*
X003666Y010154D01*
X003629Y010212D02*
X007746Y010212D01*
X007787Y010271D02*
X003591Y010271D01*
X003636Y010446D02*
X004432Y010446D01*
X004343Y010505D02*
X003695Y010505D01*
X003753Y010563D02*
X004253Y010563D01*
X004163Y010622D02*
X003812Y010622D01*
X003870Y010680D02*
X004073Y010680D01*
X003983Y010739D02*
X003929Y010739D01*
X003704Y010095D02*
X007663Y010095D01*
X007622Y010037D02*
X003741Y010037D01*
X003779Y009978D02*
X007581Y009978D01*
X007540Y009920D02*
X003816Y009920D01*
X003854Y009861D02*
X007498Y009861D01*
X007457Y009803D02*
X003891Y009803D01*
X003929Y009744D02*
X007424Y009744D01*
X007464Y009686D02*
X003966Y009686D01*
X003947Y009627D02*
X007504Y009627D01*
X007543Y009569D02*
X003922Y009569D01*
X003898Y009510D02*
X005485Y009510D01*
X005297Y009452D02*
X003873Y009452D01*
X003848Y009393D02*
X005221Y009393D01*
X005144Y009335D02*
X003823Y009335D01*
X003798Y009276D02*
X005068Y009276D01*
X004992Y009218D02*
X003773Y009218D01*
X003748Y009159D02*
X004927Y009159D01*
X004911Y009101D02*
X003723Y009101D01*
X003566Y009042D02*
X004895Y009042D01*
X004879Y008984D02*
X003266Y008984D01*
X002966Y008925D02*
X004862Y008925D01*
X004846Y008867D02*
X002941Y008867D01*
X002942Y008808D02*
X004830Y008808D01*
X004814Y008750D02*
X002943Y008750D01*
X002944Y008691D02*
X004798Y008691D01*
X004782Y008633D02*
X002945Y008633D01*
X002946Y008574D02*
X004776Y008574D01*
X004798Y008516D02*
X002947Y008516D01*
X002947Y008457D02*
X004820Y008457D01*
X004842Y008399D02*
X002948Y008399D01*
X002949Y008340D02*
X004864Y008340D01*
X004886Y008282D02*
X003052Y008282D01*
X003373Y008223D02*
X004908Y008223D01*
X004930Y008165D02*
X003695Y008165D01*
X003741Y008106D02*
X004952Y008106D01*
X004975Y008048D02*
X003764Y008048D01*
X003787Y007989D02*
X004997Y007989D01*
X005099Y007931D02*
X003810Y007931D01*
X003832Y007872D02*
X005216Y007872D01*
X005333Y007814D02*
X003855Y007814D01*
X003878Y007755D02*
X005450Y007755D01*
X005907Y007755D02*
X007472Y007755D01*
X007572Y007697D02*
X003901Y007697D01*
X003924Y007638D02*
X007536Y007638D01*
X007501Y007580D02*
X003947Y007580D01*
X003970Y007521D02*
X007465Y007521D01*
X007452Y007463D02*
X003931Y007463D01*
X003891Y007404D02*
X007491Y007404D01*
X007530Y007346D02*
X003851Y007346D01*
X003811Y007287D02*
X007570Y007287D01*
X007609Y007229D02*
X003771Y007229D01*
X003731Y007170D02*
X007648Y007170D01*
X007688Y007112D02*
X003691Y007112D01*
X003652Y007053D02*
X007727Y007053D01*
X007766Y006995D02*
X003612Y006995D01*
X003572Y006936D02*
X007806Y006936D01*
X007845Y006878D02*
X003532Y006878D01*
X003564Y006819D02*
X004525Y006819D01*
X004440Y006761D02*
X003627Y006761D01*
X003689Y006702D02*
X004354Y006702D01*
X004268Y006644D02*
X003752Y006644D01*
X003815Y006585D02*
X004182Y006585D01*
X004097Y006527D02*
X003877Y006527D01*
X003940Y006468D02*
X004011Y006468D01*
X004716Y006819D02*
X006806Y006819D01*
X006910Y006819D02*
X007799Y006819D01*
X007741Y006761D02*
X006992Y006761D01*
X007075Y006702D02*
X007682Y006702D01*
X007624Y006644D02*
X007157Y006644D01*
X007240Y006585D02*
X007565Y006585D01*
X007507Y006527D02*
X007322Y006527D01*
X007405Y006468D02*
X007448Y006468D01*
X007332Y007814D02*
X006142Y007814D01*
X006197Y007872D02*
X007193Y007872D01*
X007053Y007931D02*
X006253Y007931D01*
X006308Y007989D02*
X006913Y007989D01*
X006773Y008048D02*
X006364Y008048D01*
X006419Y008106D02*
X006633Y008106D01*
X006493Y008165D02*
X006475Y008165D01*
X006492Y009101D02*
X006619Y009101D01*
X006761Y009159D02*
X006451Y009159D01*
X006411Y009218D02*
X006903Y009218D01*
X007045Y009276D02*
X006370Y009276D01*
X006308Y009335D02*
X007188Y009335D01*
X007330Y009393D02*
X006181Y009393D01*
X006053Y009452D02*
X007472Y009452D01*
X007583Y009510D02*
X005925Y009510D01*
X006600Y006761D02*
X004849Y006761D01*
X004982Y006702D02*
X006394Y006702D01*
X006188Y006644D02*
X005115Y006644D01*
X005249Y006585D02*
X006132Y006585D01*
X006122Y006527D02*
X005270Y006527D01*
X005281Y006468D02*
X006111Y006468D01*
X006101Y006410D02*
X005291Y006410D01*
X005302Y006351D02*
X006091Y006351D01*
X006080Y006293D02*
X005313Y006293D01*
X005324Y006234D02*
X006070Y006234D01*
X006059Y006176D02*
X005335Y006176D01*
X005345Y006117D02*
X006049Y006117D01*
X006039Y006059D02*
X005356Y006059D01*
X005367Y006000D02*
X006028Y006000D01*
X006018Y005942D02*
X005378Y005942D01*
X005388Y005883D02*
X006008Y005883D01*
X005536Y005825D02*
X005399Y005825D01*
X007260Y012790D02*
X007233Y012815D01*
X007203Y012837D01*
X007172Y012856D01*
X007139Y012871D01*
X007104Y012884D01*
X007068Y012893D01*
X007032Y012898D01*
X006995Y012900D01*
X007260Y012790D02*
X007275Y012775D01*
X007290Y012790D01*
X007555Y012900D02*
X008775Y012900D01*
X008795Y012902D01*
X008814Y012906D01*
X008832Y012914D01*
X008848Y012924D01*
X008863Y012937D01*
X008876Y012952D01*
X008886Y012968D01*
X008894Y012986D01*
X008898Y013005D01*
X008900Y013025D01*
X008650Y015650D02*
X005775Y015650D01*
X005775Y016650D02*
X008650Y016650D01*
X008650Y017650D02*
X005775Y017650D01*
X005775Y018650D02*
X008650Y018650D01*
X007555Y012900D02*
X007518Y012898D01*
X007482Y012893D01*
X007446Y012884D01*
X007411Y012871D01*
X007378Y012856D01*
X007347Y012837D01*
X007317Y012815D01*
X007290Y012790D01*
D12*
X008930Y012574D02*
X008930Y012531D01*
X008973Y012531D01*
X008973Y012574D01*
X008930Y012574D01*
X008930Y012447D02*
X009190Y012447D01*
X009103Y012531D02*
X009060Y012531D01*
X009060Y012574D01*
X009103Y012574D01*
X009103Y012531D01*
X008930Y012447D02*
X009190Y012273D01*
X008930Y012273D01*
X008930Y012015D02*
X009190Y012189D01*
X009147Y011931D02*
X009190Y011888D01*
X009190Y011801D01*
X009147Y011758D01*
X009103Y011758D01*
X009060Y011801D01*
X009060Y011888D01*
X009017Y011931D01*
X008973Y011931D01*
X008930Y011888D01*
X008930Y011801D01*
X008973Y011758D01*
D13*
X009000Y008650D03*
D14*
X008900Y013150D02*
X008900Y021150D01*
X005400Y021150D01*
X005400Y019425D01*
X005400Y018850D02*
X005400Y018425D01*
X005400Y017850D02*
X005400Y017425D01*
X005425Y017850D02*
X005850Y017850D01*
X005850Y018425D02*
X005850Y018850D01*
X005850Y019425D02*
X005850Y020650D01*
X008450Y020650D01*
X008450Y013650D01*
X005850Y013650D01*
X005850Y014875D01*
X005850Y015425D02*
X005850Y015850D01*
X005850Y016450D02*
X005425Y016450D01*
X005400Y016425D02*
X005400Y016850D01*
X005400Y015850D02*
X005400Y015425D01*
X005400Y014800D02*
X005400Y013150D01*
X008900Y013150D01*
X008250Y014050D02*
X008250Y014350D01*
X008100Y014500D01*
X007950Y014350D01*
X007950Y014050D01*
X007790Y013975D02*
X007489Y013975D01*
X007329Y014050D02*
X007179Y014050D01*
X007254Y014050D02*
X007254Y014500D01*
X007329Y014500D02*
X007179Y014500D01*
X007200Y014700D02*
X007200Y015600D01*
X006750Y015150D01*
X007200Y014700D01*
X006722Y014500D02*
X007022Y014050D01*
X006562Y014125D02*
X006487Y014050D01*
X006337Y014050D01*
X006262Y014125D01*
X006262Y014425D01*
X006337Y014500D01*
X006487Y014500D01*
X006562Y014425D01*
X006562Y014125D01*
X007950Y014275D02*
X008250Y014275D01*
D15*
X003690Y008140D02*
X002910Y008290D01*
X002910Y008940D01*
X003690Y009090D01*
X003940Y009690D02*
X003500Y010350D01*
X003960Y010810D01*
X004600Y010370D01*
X005220Y010640D02*
X005370Y011400D01*
X006020Y011400D01*
X006160Y010650D01*
X006810Y010390D02*
X007430Y010810D01*
X007890Y010350D01*
X007480Y009750D01*
X007630Y009490D01*
X006490Y009020D01*
X006490Y008210D02*
X007630Y007730D01*
X007480Y007470D01*
X007890Y006870D01*
X007440Y006410D01*
X006820Y006830D01*
X006160Y006570D02*
X006020Y005820D01*
X005370Y005820D01*
X005220Y006580D01*
X004600Y006850D02*
X003960Y006410D01*
X003490Y006870D01*
X003940Y007530D01*
X006480Y008210D02*
X006450Y008159D01*
X006418Y008111D01*
X006382Y008064D01*
X006343Y008020D01*
X006301Y007978D01*
X006257Y007940D01*
X006210Y007904D01*
X006161Y007872D01*
X006110Y007843D01*
X006057Y007817D01*
X006002Y007795D01*
X005946Y007777D01*
X005889Y007763D01*
X005831Y007752D01*
X005773Y007745D01*
X005714Y007742D01*
X005655Y007743D01*
X005597Y007748D01*
X005539Y007757D01*
X005481Y007770D01*
X005425Y007786D01*
X005369Y007806D01*
X005316Y007830D01*
X005264Y007857D01*
X005213Y007888D01*
X005165Y007922D01*
X005120Y007959D01*
X005077Y007999D01*
X005037Y008042D01*
X004999Y008088D01*
X004965Y008136D01*
X004934Y008186D01*
X004906Y008238D01*
X004882Y008291D01*
X004862Y008347D01*
X004845Y008403D01*
X004832Y008460D01*
X004823Y008518D01*
X004818Y008577D01*
X004817Y008636D01*
X004820Y008695D01*
X004826Y008753D01*
X004837Y008811D01*
X004851Y008868D01*
X004869Y008924D01*
X004891Y008979D01*
X004916Y009032D01*
X004945Y009083D01*
X004977Y009132D01*
X005013Y009179D01*
X005051Y009224D01*
X005092Y009266D01*
X005136Y009305D01*
X005183Y009341D01*
X005232Y009374D01*
X005283Y009403D01*
X005335Y009429D01*
X005390Y009452D01*
X005445Y009471D01*
X005502Y009486D01*
X005560Y009497D01*
X005618Y009504D01*
X005677Y009508D01*
X005736Y009507D01*
X005795Y009503D01*
X005853Y009495D01*
X005910Y009483D01*
X005967Y009467D01*
X006022Y009447D01*
X006077Y009424D01*
X006129Y009397D01*
X006179Y009367D01*
X006228Y009333D01*
X006274Y009296D01*
X006317Y009257D01*
X006358Y009214D01*
X006395Y009169D01*
X006430Y009122D01*
X006462Y009072D01*
X006490Y009020D01*
X006810Y010390D02*
X006723Y010440D01*
X006634Y010486D01*
X006542Y010528D01*
X006449Y010565D01*
X006354Y010598D01*
X006258Y010626D01*
X006160Y010650D01*
X003940Y009690D02*
X003894Y009609D01*
X003852Y009527D01*
X003814Y009442D01*
X003780Y009356D01*
X003749Y009269D01*
X003723Y009180D01*
X003700Y009090D01*
X003690Y008140D02*
X003713Y008049D01*
X003741Y007958D01*
X003773Y007869D01*
X003809Y007782D01*
X003849Y007696D01*
X003892Y007612D01*
X003940Y007530D01*
X004600Y006850D02*
X004683Y006799D01*
X004768Y006752D01*
X004855Y006709D01*
X004944Y006671D01*
X005035Y006636D01*
X005127Y006606D01*
X005220Y006580D01*
X006161Y006570D02*
X006247Y006590D01*
X006333Y006613D01*
X006418Y006640D01*
X006502Y006671D01*
X006584Y006706D01*
X006665Y006744D01*
X006744Y006785D01*
X006821Y006830D01*
X005220Y010640D02*
X005126Y010614D01*
X005034Y010584D01*
X004944Y010549D01*
X004855Y010510D01*
X004768Y010468D01*
X004683Y010421D01*
X004600Y010370D01*
M02*
