G75*
G70*
%OFA0B0*%
%FSLAX24Y24*%
%IPPOS*%
%LPD*%
%AMOC8*
5,1,8,0,0,1.08239X$1,22.5*
%
%ADD10C,0.0100*%
%ADD11C,0.0000*%
D10*
X000150Y000650D02*
X000150Y034650D01*
X000152Y034694D01*
X000158Y034737D01*
X000167Y034779D01*
X000180Y034821D01*
X000197Y034861D01*
X000217Y034900D01*
X000240Y034937D01*
X000267Y034971D01*
X000296Y035004D01*
X000329Y035033D01*
X000363Y035060D01*
X000400Y035083D01*
X000439Y035103D01*
X000479Y035120D01*
X000521Y035133D01*
X000563Y035142D01*
X000606Y035148D01*
X000650Y035150D01*
X013650Y035150D01*
X013694Y035148D01*
X013737Y035142D01*
X013779Y035133D01*
X013821Y035120D01*
X013861Y035103D01*
X013900Y035083D01*
X013937Y035060D01*
X013971Y035033D01*
X014004Y035004D01*
X014033Y034971D01*
X014060Y034937D01*
X014083Y034900D01*
X014103Y034861D01*
X014120Y034821D01*
X014133Y034779D01*
X014142Y034737D01*
X014148Y034694D01*
X014150Y034650D01*
X014150Y000525D01*
X014148Y000488D01*
X014143Y000452D01*
X014134Y000416D01*
X014121Y000381D01*
X014106Y000348D01*
X014087Y000317D01*
X014065Y000287D01*
X014040Y000260D01*
X014013Y000235D01*
X013983Y000213D01*
X013952Y000194D01*
X013919Y000179D01*
X013884Y000166D01*
X013848Y000157D01*
X013812Y000152D01*
X013775Y000150D01*
X000650Y000150D01*
X000606Y000152D01*
X000563Y000158D01*
X000521Y000167D01*
X000479Y000180D01*
X000439Y000197D01*
X000400Y000217D01*
X000363Y000240D01*
X000329Y000267D01*
X000296Y000296D01*
X000267Y000329D01*
X000240Y000363D01*
X000217Y000400D01*
X000197Y000439D01*
X000180Y000479D01*
X000167Y000521D01*
X000158Y000563D01*
X000152Y000606D01*
X000150Y000650D01*
D11*
X000507Y001150D02*
X000509Y001200D01*
X000515Y001251D01*
X000525Y001300D01*
X000538Y001349D01*
X000556Y001396D01*
X000577Y001442D01*
X000602Y001486D01*
X000630Y001528D01*
X000661Y001568D01*
X000695Y001605D01*
X000732Y001639D01*
X000772Y001670D01*
X000814Y001698D01*
X000858Y001723D01*
X000904Y001744D01*
X000951Y001762D01*
X001000Y001775D01*
X001049Y001785D01*
X001100Y001791D01*
X001150Y001793D01*
X001200Y001791D01*
X001251Y001785D01*
X001300Y001775D01*
X001349Y001762D01*
X001396Y001744D01*
X001442Y001723D01*
X001486Y001698D01*
X001528Y001670D01*
X001568Y001639D01*
X001605Y001605D01*
X001639Y001568D01*
X001670Y001528D01*
X001698Y001486D01*
X001723Y001442D01*
X001744Y001396D01*
X001762Y001349D01*
X001775Y001300D01*
X001785Y001251D01*
X001791Y001200D01*
X001793Y001150D01*
X001791Y001100D01*
X001785Y001049D01*
X001775Y001000D01*
X001762Y000951D01*
X001744Y000904D01*
X001723Y000858D01*
X001698Y000814D01*
X001670Y000772D01*
X001639Y000732D01*
X001605Y000695D01*
X001568Y000661D01*
X001528Y000630D01*
X001486Y000602D01*
X001442Y000577D01*
X001396Y000556D01*
X001349Y000538D01*
X001300Y000525D01*
X001251Y000515D01*
X001200Y000509D01*
X001150Y000507D01*
X001100Y000509D01*
X001049Y000515D01*
X001000Y000525D01*
X000951Y000538D01*
X000904Y000556D01*
X000858Y000577D01*
X000814Y000602D01*
X000772Y000630D01*
X000732Y000661D01*
X000695Y000695D01*
X000661Y000732D01*
X000630Y000772D01*
X000602Y000814D01*
X000577Y000858D01*
X000556Y000904D01*
X000538Y000951D01*
X000525Y001000D01*
X000515Y001049D01*
X000509Y001100D01*
X000507Y001150D01*
X012507Y001150D02*
X012509Y001200D01*
X012515Y001251D01*
X012525Y001300D01*
X012538Y001349D01*
X012556Y001396D01*
X012577Y001442D01*
X012602Y001486D01*
X012630Y001528D01*
X012661Y001568D01*
X012695Y001605D01*
X012732Y001639D01*
X012772Y001670D01*
X012814Y001698D01*
X012858Y001723D01*
X012904Y001744D01*
X012951Y001762D01*
X013000Y001775D01*
X013049Y001785D01*
X013100Y001791D01*
X013150Y001793D01*
X013200Y001791D01*
X013251Y001785D01*
X013300Y001775D01*
X013349Y001762D01*
X013396Y001744D01*
X013442Y001723D01*
X013486Y001698D01*
X013528Y001670D01*
X013568Y001639D01*
X013605Y001605D01*
X013639Y001568D01*
X013670Y001528D01*
X013698Y001486D01*
X013723Y001442D01*
X013744Y001396D01*
X013762Y001349D01*
X013775Y001300D01*
X013785Y001251D01*
X013791Y001200D01*
X013793Y001150D01*
X013791Y001100D01*
X013785Y001049D01*
X013775Y001000D01*
X013762Y000951D01*
X013744Y000904D01*
X013723Y000858D01*
X013698Y000814D01*
X013670Y000772D01*
X013639Y000732D01*
X013605Y000695D01*
X013568Y000661D01*
X013528Y000630D01*
X013486Y000602D01*
X013442Y000577D01*
X013396Y000556D01*
X013349Y000538D01*
X013300Y000525D01*
X013251Y000515D01*
X013200Y000509D01*
X013150Y000507D01*
X013100Y000509D01*
X013049Y000515D01*
X013000Y000525D01*
X012951Y000538D01*
X012904Y000556D01*
X012858Y000577D01*
X012814Y000602D01*
X012772Y000630D01*
X012732Y000661D01*
X012695Y000695D01*
X012661Y000732D01*
X012630Y000772D01*
X012602Y000814D01*
X012577Y000858D01*
X012556Y000904D01*
X012538Y000951D01*
X012525Y001000D01*
X012515Y001049D01*
X012509Y001100D01*
X012507Y001150D01*
X012507Y034150D02*
X012509Y034200D01*
X012515Y034251D01*
X012525Y034300D01*
X012538Y034349D01*
X012556Y034396D01*
X012577Y034442D01*
X012602Y034486D01*
X012630Y034528D01*
X012661Y034568D01*
X012695Y034605D01*
X012732Y034639D01*
X012772Y034670D01*
X012814Y034698D01*
X012858Y034723D01*
X012904Y034744D01*
X012951Y034762D01*
X013000Y034775D01*
X013049Y034785D01*
X013100Y034791D01*
X013150Y034793D01*
X013200Y034791D01*
X013251Y034785D01*
X013300Y034775D01*
X013349Y034762D01*
X013396Y034744D01*
X013442Y034723D01*
X013486Y034698D01*
X013528Y034670D01*
X013568Y034639D01*
X013605Y034605D01*
X013639Y034568D01*
X013670Y034528D01*
X013698Y034486D01*
X013723Y034442D01*
X013744Y034396D01*
X013762Y034349D01*
X013775Y034300D01*
X013785Y034251D01*
X013791Y034200D01*
X013793Y034150D01*
X013791Y034100D01*
X013785Y034049D01*
X013775Y034000D01*
X013762Y033951D01*
X013744Y033904D01*
X013723Y033858D01*
X013698Y033814D01*
X013670Y033772D01*
X013639Y033732D01*
X013605Y033695D01*
X013568Y033661D01*
X013528Y033630D01*
X013486Y033602D01*
X013442Y033577D01*
X013396Y033556D01*
X013349Y033538D01*
X013300Y033525D01*
X013251Y033515D01*
X013200Y033509D01*
X013150Y033507D01*
X013100Y033509D01*
X013049Y033515D01*
X013000Y033525D01*
X012951Y033538D01*
X012904Y033556D01*
X012858Y033577D01*
X012814Y033602D01*
X012772Y033630D01*
X012732Y033661D01*
X012695Y033695D01*
X012661Y033732D01*
X012630Y033772D01*
X012602Y033814D01*
X012577Y033858D01*
X012556Y033904D01*
X012538Y033951D01*
X012525Y034000D01*
X012515Y034049D01*
X012509Y034100D01*
X012507Y034150D01*
X000507Y034150D02*
X000509Y034200D01*
X000515Y034251D01*
X000525Y034300D01*
X000538Y034349D01*
X000556Y034396D01*
X000577Y034442D01*
X000602Y034486D01*
X000630Y034528D01*
X000661Y034568D01*
X000695Y034605D01*
X000732Y034639D01*
X000772Y034670D01*
X000814Y034698D01*
X000858Y034723D01*
X000904Y034744D01*
X000951Y034762D01*
X001000Y034775D01*
X001049Y034785D01*
X001100Y034791D01*
X001150Y034793D01*
X001200Y034791D01*
X001251Y034785D01*
X001300Y034775D01*
X001349Y034762D01*
X001396Y034744D01*
X001442Y034723D01*
X001486Y034698D01*
X001528Y034670D01*
X001568Y034639D01*
X001605Y034605D01*
X001639Y034568D01*
X001670Y034528D01*
X001698Y034486D01*
X001723Y034442D01*
X001744Y034396D01*
X001762Y034349D01*
X001775Y034300D01*
X001785Y034251D01*
X001791Y034200D01*
X001793Y034150D01*
X001791Y034100D01*
X001785Y034049D01*
X001775Y034000D01*
X001762Y033951D01*
X001744Y033904D01*
X001723Y033858D01*
X001698Y033814D01*
X001670Y033772D01*
X001639Y033732D01*
X001605Y033695D01*
X001568Y033661D01*
X001528Y033630D01*
X001486Y033602D01*
X001442Y033577D01*
X001396Y033556D01*
X001349Y033538D01*
X001300Y033525D01*
X001251Y033515D01*
X001200Y033509D01*
X001150Y033507D01*
X001100Y033509D01*
X001049Y033515D01*
X001000Y033525D01*
X000951Y033538D01*
X000904Y033556D01*
X000858Y033577D01*
X000814Y033602D01*
X000772Y033630D01*
X000732Y033661D01*
X000695Y033695D01*
X000661Y033732D01*
X000630Y033772D01*
X000602Y033814D01*
X000577Y033858D01*
X000556Y033904D01*
X000538Y033951D01*
X000525Y034000D01*
X000515Y034049D01*
X000509Y034100D01*
X000507Y034150D01*
M02*
