G75*
G70*
%OFA0B0*%
%FSLAX24Y24*%
%IPPOS*%
%LPD*%
%AMOC8*
5,1,8,0,0,1.08239X$1,22.5*
%
%ADD10R,0.0591X0.0591*%
%ADD11C,0.0591*%
%ADD12OC8,0.1005*%
%ADD13C,0.0540*%
%ADD14OC8,0.0600*%
%ADD15C,0.0600*%
%ADD16C,0.0290*%
%ADD17C,0.0120*%
%ADD18C,0.0337*%
%ADD19C,0.0416*%
%ADD20C,0.0376*%
%ADD21C,0.0240*%
%ADD22C,0.0320*%
%ADD23C,0.0100*%
%ADD24C,0.0500*%
D10*
X002250Y008000D03*
X015500Y003250D03*
X021250Y008000D03*
D11*
X021250Y009000D03*
X021250Y010000D03*
X021250Y011000D03*
X021250Y012000D03*
X021250Y013000D03*
X021250Y014000D03*
X021250Y015000D03*
X021250Y016000D03*
X021250Y017000D03*
X021250Y018000D03*
X021250Y019000D03*
X021250Y020000D03*
X021250Y021000D03*
X021250Y022000D03*
X021250Y023000D03*
X021250Y024000D03*
X021250Y025000D03*
X021250Y026000D03*
X021250Y027000D03*
X021250Y028000D03*
X021250Y029000D03*
X021250Y030000D03*
X020250Y030000D03*
X020250Y029000D03*
X020250Y028000D03*
X020250Y027000D03*
X020250Y026000D03*
X020250Y025000D03*
X020250Y024000D03*
X020250Y023000D03*
X020250Y022000D03*
X020250Y021000D03*
X020250Y020000D03*
X020250Y019000D03*
X020250Y018000D03*
X020250Y017000D03*
X020250Y016000D03*
X020250Y015000D03*
X020250Y014000D03*
X020250Y013000D03*
X020250Y012000D03*
X020250Y011000D03*
X020250Y010000D03*
X020250Y009000D03*
X020250Y008000D03*
X020300Y006950D03*
X018000Y007050D03*
X015500Y007250D03*
X015500Y006250D03*
X015500Y005250D03*
X015500Y004250D03*
X014500Y004250D03*
X014500Y003250D03*
X014500Y005250D03*
X014500Y006250D03*
X014500Y007250D03*
X002250Y009000D03*
X002250Y010000D03*
X002250Y011000D03*
X002250Y012000D03*
X002250Y013000D03*
X002250Y014000D03*
X002250Y015000D03*
X002250Y016000D03*
X002250Y017000D03*
X002250Y018000D03*
X002250Y019000D03*
X002250Y020000D03*
X002250Y021000D03*
X002250Y022000D03*
X002250Y023000D03*
X002250Y024000D03*
X002250Y025000D03*
X002250Y026000D03*
X002250Y027000D03*
X002250Y028000D03*
X002250Y029000D03*
X002250Y030000D03*
X001250Y030000D03*
X001250Y029000D03*
X001250Y028000D03*
X001250Y027000D03*
X001250Y026000D03*
X001250Y025000D03*
X001250Y024000D03*
X001250Y023000D03*
X001250Y022000D03*
X001250Y021000D03*
X001250Y020000D03*
X001250Y019000D03*
X001250Y018000D03*
X001250Y017000D03*
X001250Y016000D03*
X001250Y015000D03*
X001250Y014000D03*
X001250Y013000D03*
X001250Y012000D03*
X001250Y011000D03*
X001250Y010000D03*
X001250Y009000D03*
X001250Y008000D03*
D12*
X002150Y031500D03*
X003300Y032800D03*
X020400Y031500D03*
X019150Y001600D03*
X017000Y001600D03*
D13*
X016600Y009980D02*
X016600Y010520D01*
X016600Y011330D02*
X016600Y011870D01*
X015600Y011870D02*
X015600Y011330D01*
X015600Y010520D02*
X015600Y009980D01*
X017600Y009980D02*
X017600Y010520D01*
X017600Y011330D02*
X017600Y011870D01*
X005300Y008820D02*
X005300Y008280D01*
X004300Y008280D02*
X004300Y008820D01*
D14*
X005900Y031100D03*
X005900Y032100D03*
X006900Y032100D03*
X006900Y031100D03*
X007900Y031100D03*
X007900Y032100D03*
X008900Y032100D03*
X008900Y031100D03*
X009900Y031100D03*
X009900Y032100D03*
D15*
X014900Y016050D03*
X015900Y016050D03*
X016900Y016050D03*
D16*
X017200Y017100D03*
X016750Y017600D03*
X016250Y018050D03*
X016650Y018350D03*
X015800Y017600D03*
X015200Y017300D03*
X014750Y016850D03*
X014050Y016850D03*
X013600Y017300D03*
X013800Y018400D03*
X014950Y020150D03*
X016100Y022500D03*
X015600Y022650D03*
X016300Y023150D03*
X016250Y023900D03*
X017150Y024700D03*
X017600Y025150D03*
X018250Y025150D03*
X018950Y025300D03*
X017750Y023500D03*
X018250Y023000D03*
X018950Y021950D03*
X019450Y021600D03*
X018500Y021350D03*
X018000Y021350D03*
X017600Y021350D03*
X017600Y020150D03*
X017150Y019700D03*
X016750Y020800D03*
X018800Y018650D03*
X018400Y017550D03*
X018000Y017100D03*
X018950Y014650D03*
X018450Y014450D03*
X019750Y014300D03*
X013650Y023550D03*
X014100Y023950D03*
X014700Y024700D03*
X014350Y025250D03*
X015300Y025800D03*
X014750Y027150D03*
X014450Y028000D03*
X014000Y027550D03*
X013350Y027700D03*
X012850Y027250D03*
X012200Y027250D03*
X011750Y027650D03*
X012150Y028750D03*
X011400Y030300D03*
X011750Y031350D03*
X012200Y030900D03*
X012850Y030900D03*
X013350Y031350D03*
X014000Y031200D03*
X014450Y031700D03*
X014750Y031200D03*
X014750Y030200D03*
X015450Y030300D03*
X015800Y031300D03*
X016250Y030900D03*
X016950Y030900D03*
X017400Y031350D03*
X018050Y031200D03*
X018500Y031700D03*
X018500Y032350D03*
X018050Y032800D03*
X016200Y032400D03*
X016050Y034100D03*
X014750Y032850D03*
X014450Y032350D03*
X014000Y032800D03*
X012150Y032400D03*
X011400Y034150D03*
X009750Y033000D03*
X009950Y029150D03*
X010400Y028700D03*
X010400Y028050D03*
X009950Y027550D03*
X009300Y027700D03*
X008800Y027250D03*
X008150Y027250D03*
X007700Y027650D03*
X007400Y026750D03*
X007650Y025500D03*
X008100Y025100D03*
X007700Y024000D03*
X008150Y023600D03*
X008800Y023600D03*
X009300Y024050D03*
X009950Y023900D03*
X010400Y024400D03*
X010400Y025050D03*
X010550Y025500D03*
X009900Y025500D03*
X009750Y025850D03*
X010550Y026400D03*
X012000Y025400D03*
X013100Y024400D03*
X012900Y022100D03*
X011900Y022100D03*
X011250Y022700D03*
X011050Y023450D03*
X010500Y023450D03*
X009550Y021050D03*
X009700Y020050D03*
X009200Y019650D03*
X008850Y018950D03*
X009300Y018700D03*
X009450Y018000D03*
X009100Y017050D03*
X010000Y016250D03*
X011000Y016250D03*
X011850Y016150D03*
X012200Y014350D03*
X011700Y013900D03*
X013000Y014350D03*
X013100Y012650D03*
X013100Y011650D03*
X013100Y010650D03*
X010100Y014450D03*
X009400Y014450D03*
X008950Y014900D03*
X007850Y015400D03*
X007850Y016200D03*
X007850Y017000D03*
X007850Y017750D03*
X006950Y018300D03*
X005750Y017300D03*
X005250Y016450D03*
X005250Y015300D03*
X004650Y014850D03*
X004700Y012700D03*
X003550Y011500D03*
X003100Y011050D03*
X003100Y010400D03*
X003550Y009900D03*
X003950Y007450D03*
X003850Y005050D03*
X007450Y009600D03*
X007450Y010550D03*
X007450Y011600D03*
X006550Y012300D03*
X006450Y014850D03*
X007250Y014900D03*
X004600Y017750D03*
X004600Y018200D03*
X004050Y018750D03*
X005500Y019550D03*
X005800Y020100D03*
X005800Y021100D03*
X007250Y021100D03*
X007250Y020100D03*
X007200Y022100D03*
X006700Y023450D03*
X006350Y024400D03*
X006350Y025050D03*
X005900Y025500D03*
X005250Y024050D03*
X004750Y023600D03*
X004150Y023600D03*
X003650Y024050D03*
X003000Y021600D03*
X005900Y023900D03*
X004750Y027250D03*
X005250Y027700D03*
X005900Y027550D03*
X006350Y028050D03*
X006350Y028700D03*
X005900Y029150D03*
X006700Y029250D03*
X006950Y029800D03*
X008100Y028750D03*
X010750Y029250D03*
X013900Y029600D03*
X013950Y029150D03*
X014450Y028700D03*
X015750Y029150D03*
X016200Y028750D03*
X015800Y027600D03*
X016250Y027100D03*
X016900Y027150D03*
X017400Y027600D03*
X018050Y027550D03*
X018500Y028050D03*
X018500Y028700D03*
X018000Y029150D03*
X017900Y029550D03*
X012450Y020050D03*
X011750Y019600D03*
X011000Y019650D03*
X011000Y019150D03*
X010450Y020050D03*
X008500Y019450D03*
X004150Y027250D03*
X003650Y027700D03*
X003000Y029300D03*
D17*
X006700Y029250D02*
X006700Y023450D01*
X007200Y022100D02*
X006500Y021400D01*
X006500Y019550D01*
X005850Y018900D01*
X004200Y018900D01*
X004050Y018750D01*
X004600Y018200D02*
X006000Y018200D01*
X007600Y019750D01*
X007600Y020950D01*
X009150Y022500D01*
X010000Y022500D01*
X010600Y023100D01*
X011400Y023100D01*
X012000Y023700D01*
X012000Y025400D01*
X012300Y025150D02*
X012950Y025800D01*
X015300Y025800D01*
X014350Y025250D02*
X013050Y025250D01*
X012550Y024750D01*
X012550Y022300D01*
X011000Y020750D01*
X009800Y020750D01*
X008500Y019450D01*
X008150Y019650D02*
X009550Y021050D01*
X009050Y021950D02*
X011050Y021950D01*
X012300Y023200D01*
X012300Y025150D01*
X010750Y025250D02*
X010750Y023700D01*
X010500Y023450D01*
X010750Y025250D02*
X010550Y025450D01*
X010550Y025500D01*
X010550Y026400D02*
X010550Y027400D01*
X010750Y027600D01*
X010750Y029250D01*
X011400Y030300D02*
X011150Y030550D01*
X009700Y030550D01*
X009400Y030850D01*
X009400Y031600D01*
X008900Y032100D01*
X009750Y033000D02*
X011550Y033000D01*
X011750Y033200D01*
X015150Y033200D01*
X016050Y034100D01*
X014750Y032850D02*
X014750Y031200D01*
X015150Y030600D02*
X015450Y030300D01*
X015150Y030600D02*
X011850Y030600D01*
X011550Y030900D01*
X010700Y030900D01*
X010400Y031200D01*
X010400Y031600D01*
X009900Y032100D01*
X007900Y032100D02*
X007400Y031600D01*
X007400Y030650D01*
X007700Y030350D01*
X007700Y029350D01*
X007400Y029050D01*
X007400Y026750D01*
X009050Y021950D02*
X007900Y020800D01*
X007900Y019700D01*
X005950Y017750D01*
X004600Y017750D01*
X005800Y020100D02*
X005800Y021100D01*
X007250Y021100D02*
X007250Y020100D01*
X008150Y019650D02*
X008150Y017350D01*
X008400Y017050D01*
X009100Y017050D01*
X008850Y018950D02*
X009150Y019250D01*
X010150Y019250D01*
X010900Y020000D01*
X010900Y020250D01*
X012750Y022100D01*
X012900Y022100D01*
X014100Y023950D02*
X014400Y024250D01*
X018750Y024250D01*
X018950Y024450D01*
X018950Y025300D01*
X014750Y027150D02*
X014750Y030200D01*
D18*
X016550Y013450D03*
X017150Y013450D03*
D19*
X008500Y015650D03*
X008500Y017600D03*
D20*
X006150Y005700D03*
X019350Y017650D03*
D21*
X017100Y020150D02*
X018000Y021050D01*
X018000Y021350D01*
X018500Y021350D02*
X018550Y021450D01*
X018550Y022650D01*
X018250Y022950D01*
X018250Y023000D01*
X017750Y022950D02*
X017750Y023500D01*
X017750Y022950D02*
X017500Y022700D01*
X016300Y022700D01*
X016100Y022500D01*
X016300Y023150D02*
X015900Y023550D01*
X013650Y023550D01*
X013100Y024400D02*
X013100Y022450D01*
X013800Y021800D01*
X013800Y018400D01*
X014950Y020150D02*
X017100Y020150D01*
X019450Y021600D02*
X019450Y028900D01*
X018800Y029550D01*
X017900Y029550D01*
X017500Y029150D01*
X015750Y029150D01*
X016200Y028750D02*
X017600Y028750D01*
X017650Y028700D01*
X018500Y028700D01*
X018500Y032350D02*
X016250Y032350D01*
X016200Y032400D01*
X014450Y032350D02*
X012200Y032350D01*
X012150Y032400D01*
X011400Y034150D02*
X006750Y034150D01*
X003000Y030400D01*
X003000Y029800D01*
X003000Y029300D01*
X003000Y021600D01*
X007650Y025500D02*
X009400Y025500D01*
X009750Y025850D01*
X009700Y025850D01*
X009750Y025850D02*
X010900Y025850D01*
X011350Y026300D01*
X011350Y028750D01*
X011750Y029150D01*
X013450Y029150D01*
X013900Y029600D01*
X013550Y028750D02*
X013600Y028700D01*
X014450Y028700D01*
X013550Y028750D02*
X012150Y028750D01*
X010400Y028700D02*
X009650Y028700D01*
X009600Y028750D01*
X008100Y028750D01*
X006950Y029800D02*
X006550Y029800D01*
X006400Y029950D01*
X005400Y029950D01*
X005250Y029800D01*
X003000Y029800D01*
X008100Y025100D02*
X009500Y025100D01*
X009550Y025050D01*
X010400Y025050D01*
D22*
X014900Y016050D02*
X014900Y012300D01*
X015600Y011600D01*
X016100Y010750D02*
X016100Y013700D01*
X016800Y014400D01*
X016800Y015950D01*
X016900Y016050D01*
X017600Y016750D02*
X017600Y017400D01*
X016650Y018350D01*
X017600Y016750D02*
X017800Y016550D01*
X017800Y012800D01*
X016600Y011600D01*
X016100Y010750D02*
X015600Y010250D01*
X016600Y010250D02*
X016600Y009700D01*
X016900Y009400D01*
X018900Y009400D01*
X019350Y009850D01*
X019350Y017650D01*
X018450Y014450D02*
X018450Y011100D01*
X017600Y010250D01*
X020250Y010000D02*
X021250Y010000D01*
D23*
X003850Y005050D02*
X003400Y005500D01*
X003400Y008900D01*
X004400Y009900D01*
X004400Y014600D01*
X004650Y014850D01*
X005250Y015300D02*
X007400Y015300D01*
X007600Y015100D01*
X008550Y015100D01*
X008650Y015200D01*
X010600Y015200D01*
X010750Y015350D01*
X010750Y016000D01*
X011000Y016250D01*
X011300Y015996D02*
X011300Y016530D01*
X011109Y016991D02*
X010841Y017259D01*
X010380Y017450D02*
X010249Y017450D01*
X009824Y017626D02*
X009450Y018000D01*
X009823Y017626D02*
X009858Y017594D01*
X009895Y017565D01*
X009934Y017539D01*
X009976Y017516D01*
X010019Y017496D01*
X010063Y017479D01*
X010108Y017467D01*
X010155Y017457D01*
X010202Y017452D01*
X010249Y017450D01*
X010380Y017450D02*
X010427Y017448D01*
X010473Y017443D01*
X010519Y017435D01*
X010564Y017424D01*
X010608Y017409D01*
X010651Y017391D01*
X010692Y017370D01*
X010732Y017346D01*
X010771Y017320D01*
X010807Y017291D01*
X010841Y017259D01*
X011109Y016991D02*
X011141Y016957D01*
X011170Y016921D01*
X011196Y016882D01*
X011220Y016842D01*
X011241Y016801D01*
X011259Y016758D01*
X011274Y016714D01*
X011285Y016669D01*
X011293Y016623D01*
X011298Y016577D01*
X011300Y016530D01*
X011300Y015996D02*
X011302Y015961D01*
X011307Y015927D01*
X011315Y015893D01*
X011327Y015861D01*
X011342Y015829D01*
X011360Y015799D01*
X011380Y015771D01*
X011404Y015746D01*
X011538Y015612D01*
X011700Y015221D02*
X011700Y013900D01*
X011700Y015221D02*
X011698Y015264D01*
X011693Y015307D01*
X011685Y015350D01*
X011673Y015392D01*
X011658Y015432D01*
X011640Y015472D01*
X011619Y015509D01*
X011595Y015545D01*
X011568Y015579D01*
X011538Y015611D01*
X005250Y015300D02*
X005250Y016450D01*
D24*
X020300Y006950D02*
X020900Y006950D01*
X021250Y007300D01*
X021250Y008000D01*
M02*
