G75*
G70*
%OFA0B0*%
%FSLAX24Y24*%
%IPPOS*%
%LPD*%
%AMOC8*
5,1,8,0,0,1.08239X$1,22.5*
%
%ADD10C,0.0591*%
%ADD11C,0.1005*%
%ADD12C,0.0540*%
%ADD13C,0.0600*%
%ADD14C,0.0290*%
%ADD15C,0.0337*%
%ADD16C,0.0100*%
%ADD17C,0.0416*%
%ADD18C,0.0376*%
%ADD19C,0.0500*%
%ADD20C,0.0240*%
D10*
X001250Y008000D03*
X001250Y009000D03*
X001250Y010000D03*
X001250Y011000D03*
X001250Y012000D03*
X001250Y013000D03*
X001250Y014000D03*
X001250Y015000D03*
X001250Y016000D03*
X001250Y017000D03*
X001250Y018000D03*
X001250Y019000D03*
X001250Y020000D03*
X001250Y021000D03*
X001250Y022000D03*
X001250Y023000D03*
X001250Y024000D03*
X001250Y025000D03*
X001250Y026000D03*
X001250Y027000D03*
X001250Y028000D03*
X001250Y029000D03*
X001250Y030000D03*
X002250Y030000D03*
X002250Y029000D03*
X002250Y028000D03*
X002250Y027000D03*
X002250Y026000D03*
X002250Y025000D03*
X002250Y024000D03*
X002250Y023000D03*
X002250Y022000D03*
X002250Y021000D03*
X002250Y020000D03*
X002250Y019000D03*
X002250Y018000D03*
X002250Y017000D03*
X002250Y016000D03*
X002250Y015000D03*
X002250Y014000D03*
X002250Y013000D03*
X002250Y012000D03*
X002250Y011000D03*
X002250Y010000D03*
X002250Y009000D03*
X002250Y008000D03*
X014500Y007250D03*
X014500Y006250D03*
X014500Y005250D03*
X014500Y004250D03*
X014500Y003250D03*
X015500Y003250D03*
X015500Y004250D03*
X015500Y005250D03*
X015500Y006250D03*
X015500Y007250D03*
X018000Y007050D03*
X020300Y006950D03*
X020250Y008000D03*
X020250Y009000D03*
X020250Y010000D03*
X020250Y011000D03*
X020250Y012000D03*
X020250Y013000D03*
X020250Y014000D03*
X020250Y015000D03*
X020250Y016000D03*
X020250Y017000D03*
X020250Y018000D03*
X020250Y019000D03*
X020250Y020000D03*
X020250Y021000D03*
X020250Y022000D03*
X020250Y023000D03*
X020250Y024000D03*
X020250Y025000D03*
X020250Y026000D03*
X020250Y027000D03*
X020250Y028000D03*
X020250Y029000D03*
X020250Y030000D03*
X021250Y030000D03*
X021250Y029000D03*
X021250Y028000D03*
X021250Y027000D03*
X021250Y026000D03*
X021250Y025000D03*
X021250Y024000D03*
X021250Y023000D03*
X021250Y022000D03*
X021250Y021000D03*
X021250Y020000D03*
X021250Y019000D03*
X021250Y018000D03*
X021250Y017000D03*
X021250Y016000D03*
X021250Y015000D03*
X021250Y014000D03*
X021250Y013000D03*
X021250Y012000D03*
X021250Y011000D03*
X021250Y010000D03*
X021250Y009000D03*
X021250Y008000D03*
D11*
X019150Y001600D03*
X017000Y001600D03*
X020400Y031500D03*
X003300Y032800D03*
X002150Y031500D03*
D12*
X015600Y011600D03*
X016600Y011600D03*
X016600Y010250D03*
X015600Y010250D03*
X017600Y010250D03*
X017600Y011600D03*
X005300Y008550D03*
X004300Y008550D03*
D13*
X014900Y016050D03*
X015900Y016050D03*
X016900Y016050D03*
X009900Y031100D03*
X009900Y032100D03*
X008900Y032100D03*
X008900Y031100D03*
X007900Y031100D03*
X007900Y032100D03*
X006900Y032100D03*
X006900Y031100D03*
X005900Y031100D03*
X005900Y032100D03*
D14*
X006950Y029800D03*
X006700Y029250D03*
X006350Y028700D03*
X005900Y029150D03*
X006350Y028050D03*
X005900Y027550D03*
X005250Y027700D03*
X004750Y027250D03*
X004150Y027250D03*
X003650Y027700D03*
X003000Y029300D03*
X005900Y025500D03*
X006350Y025050D03*
X006350Y024400D03*
X005900Y023900D03*
X005250Y024050D03*
X004750Y023600D03*
X004150Y023600D03*
X003650Y024050D03*
X003000Y021600D03*
X004050Y018750D03*
X004600Y018200D03*
X004600Y017750D03*
X005250Y016450D03*
X005750Y017300D03*
X005250Y015300D03*
X004650Y014850D03*
X004700Y012700D03*
X003550Y011500D03*
X003100Y011050D03*
X003100Y010400D03*
X003550Y009900D03*
X003950Y007450D03*
X003850Y005050D03*
X007450Y009600D03*
X007450Y010550D03*
X007450Y011600D03*
X006550Y012300D03*
X006450Y014850D03*
X007250Y014900D03*
X007850Y015400D03*
X007850Y016200D03*
X007850Y017000D03*
X007850Y017750D03*
X006950Y018300D03*
X007250Y020100D03*
X007250Y021100D03*
X007200Y022100D03*
X006700Y023450D03*
X007700Y024000D03*
X008150Y023600D03*
X008800Y023600D03*
X009300Y024050D03*
X009950Y023900D03*
X010400Y024400D03*
X010400Y025050D03*
X010550Y025500D03*
X009900Y025500D03*
X009750Y025850D03*
X010550Y026400D03*
X009950Y027550D03*
X010400Y028050D03*
X010400Y028700D03*
X009950Y029150D03*
X010750Y029250D03*
X011400Y030300D03*
X011750Y031350D03*
X012200Y030900D03*
X012850Y030900D03*
X013350Y031350D03*
X014000Y031200D03*
X014450Y031700D03*
X014750Y031200D03*
X014750Y030200D03*
X015450Y030300D03*
X015800Y031300D03*
X016250Y030900D03*
X016950Y030900D03*
X017400Y031350D03*
X018050Y031200D03*
X018500Y031700D03*
X018500Y032350D03*
X018050Y032800D03*
X016200Y032400D03*
X016050Y034100D03*
X014750Y032850D03*
X014450Y032350D03*
X014000Y032800D03*
X012150Y032400D03*
X011400Y034150D03*
X009750Y033000D03*
X008100Y028750D03*
X007700Y027650D03*
X008150Y027250D03*
X008800Y027250D03*
X009300Y027700D03*
X007650Y025500D03*
X008100Y025100D03*
X007400Y026750D03*
X010500Y023450D03*
X011050Y023450D03*
X011250Y022700D03*
X011900Y022100D03*
X012900Y022100D03*
X013650Y023550D03*
X014100Y023950D03*
X014700Y024700D03*
X014350Y025250D03*
X015300Y025800D03*
X014750Y027150D03*
X014450Y028000D03*
X014000Y027550D03*
X013350Y027700D03*
X012850Y027250D03*
X012200Y027250D03*
X011750Y027650D03*
X012150Y028750D03*
X013950Y029150D03*
X013900Y029600D03*
X014450Y028700D03*
X015750Y029150D03*
X016200Y028750D03*
X015800Y027600D03*
X016250Y027100D03*
X016900Y027150D03*
X017400Y027600D03*
X018050Y027550D03*
X018500Y028050D03*
X018500Y028700D03*
X018000Y029150D03*
X017900Y029550D03*
X018950Y025300D03*
X018250Y025150D03*
X017600Y025150D03*
X017150Y024700D03*
X016250Y023900D03*
X016300Y023150D03*
X016100Y022500D03*
X015600Y022650D03*
X016750Y020800D03*
X017600Y021350D03*
X018000Y021350D03*
X018500Y021350D03*
X018950Y021950D03*
X019450Y021600D03*
X018250Y023000D03*
X017750Y023500D03*
X017600Y020150D03*
X017150Y019700D03*
X016650Y018350D03*
X016250Y018050D03*
X015800Y017600D03*
X015200Y017300D03*
X014750Y016850D03*
X014050Y016850D03*
X013600Y017300D03*
X013800Y018400D03*
X014950Y020150D03*
X016750Y017600D03*
X017200Y017100D03*
X018000Y017100D03*
X018400Y017550D03*
X018800Y018650D03*
X018950Y014650D03*
X018450Y014450D03*
X019750Y014300D03*
X013100Y012650D03*
X013100Y011650D03*
X013100Y010650D03*
X011700Y013900D03*
X012200Y014350D03*
X013000Y014350D03*
X011850Y016150D03*
X011000Y016250D03*
X010000Y016250D03*
X009100Y017050D03*
X009450Y018000D03*
X009300Y018700D03*
X008850Y018950D03*
X008500Y019450D03*
X009200Y019650D03*
X009700Y020050D03*
X009550Y021050D03*
X010450Y020050D03*
X011000Y019650D03*
X011000Y019150D03*
X011750Y019600D03*
X012450Y020050D03*
X013100Y024400D03*
X012000Y025400D03*
X005800Y021100D03*
X005800Y020100D03*
X005500Y019550D03*
X008950Y014900D03*
X009400Y014450D03*
X010100Y014450D03*
D15*
X016550Y013450D03*
X017150Y013450D03*
D16*
X000725Y019200D02*
X000725Y003045D01*
X006525Y003045D01*
X006525Y008450D01*
X006625Y008625D01*
X006625Y008625D01*
X006625Y008625D01*
X006800Y008725D01*
X013700Y008725D01*
X013875Y008625D01*
X013875Y008625D01*
X013875Y008625D01*
X013975Y008450D01*
X013975Y000725D01*
X019500Y000725D01*
X019755Y000739D01*
X020251Y000853D01*
X020710Y001074D01*
X021109Y001391D01*
X021426Y001790D01*
X021647Y002249D01*
X021647Y002249D01*
X021761Y002745D01*
X021775Y003000D01*
X021775Y007200D01*
X020623Y007200D01*
X020644Y007180D01*
X020705Y007031D01*
X020705Y006869D01*
X020644Y006720D01*
X020530Y006606D01*
X020381Y006545D01*
X020219Y006545D01*
X020070Y006606D01*
X019956Y006720D01*
X019895Y006869D01*
X019895Y007031D01*
X019956Y007180D01*
X019977Y007200D01*
X018700Y007200D01*
X018622Y007207D01*
X018546Y007227D01*
X018475Y007260D01*
X018411Y007305D01*
X018355Y007361D01*
X018310Y007425D01*
X018277Y007496D01*
X018257Y007572D01*
X018250Y007650D01*
X018250Y009050D01*
X018244Y009109D01*
X018227Y009165D01*
X018199Y009217D01*
X018162Y009262D01*
X018117Y009299D01*
X018065Y009327D01*
X018009Y009344D01*
X017950Y009350D01*
X016350Y009350D01*
X016025Y009370D01*
X015704Y009428D01*
X015393Y009525D01*
X015095Y009659D01*
X014816Y009828D01*
X014560Y010029D01*
X014329Y010260D01*
X014128Y010516D01*
X013959Y010795D01*
X013825Y011093D01*
X013728Y011404D01*
X013670Y011725D01*
X013650Y012050D01*
X013650Y014748D01*
X013618Y014999D01*
X013553Y015243D01*
X013456Y015476D01*
X013330Y015695D01*
X013177Y015896D01*
X012998Y016074D01*
X012798Y016228D01*
X012580Y016354D01*
X012346Y016451D01*
X012102Y016516D01*
X011852Y016549D01*
X011599Y016549D01*
X008200Y016550D01*
X008180Y016554D01*
X008159Y016552D01*
X008140Y016546D01*
X008123Y016534D01*
X008109Y016519D01*
X008100Y016500D01*
X008091Y016481D01*
X008077Y016466D01*
X008060Y016454D01*
X008041Y016448D01*
X008020Y016446D01*
X008000Y016450D01*
X007913Y016450D01*
X007994Y016416D01*
X008066Y016344D01*
X008105Y016251D01*
X008105Y016149D01*
X008066Y016056D01*
X007994Y015984D01*
X007901Y015945D01*
X007799Y015945D01*
X007706Y015984D01*
X007634Y016056D01*
X007595Y016149D01*
X007595Y016251D01*
X007634Y016344D01*
X007706Y016416D01*
X007787Y016450D01*
X005505Y016450D01*
X005505Y016399D01*
X005466Y016306D01*
X005394Y016234D01*
X005301Y016195D01*
X005199Y016195D01*
X005106Y016234D01*
X005034Y016306D01*
X004995Y016399D01*
X004995Y016465D01*
X004777Y016506D01*
X004550Y016579D01*
X004334Y016682D01*
X004134Y016812D01*
X003952Y016967D01*
X003792Y017144D01*
X003657Y017341D01*
X003548Y017553D01*
X003469Y017778D01*
X003419Y018012D01*
X003400Y018250D01*
X003393Y018395D01*
X003362Y018537D01*
X003311Y018673D01*
X003238Y018798D01*
X003147Y018911D01*
X003039Y019009D01*
X002917Y019088D01*
X002784Y019147D01*
X002644Y019185D01*
X002611Y019188D01*
X002655Y019081D01*
X002655Y018919D01*
X002594Y018770D01*
X002480Y018656D01*
X002331Y018595D01*
X002169Y018595D01*
X002020Y018656D01*
X001906Y018770D01*
X001845Y018919D01*
X001845Y019081D01*
X001894Y019200D01*
X001606Y019200D01*
X001655Y019081D01*
X001655Y018919D01*
X001594Y018770D01*
X001480Y018656D01*
X001331Y018595D01*
X001169Y018595D01*
X001020Y018656D01*
X000906Y018770D01*
X000845Y018919D01*
X000845Y019081D01*
X000894Y019200D01*
X000725Y019200D01*
X000725Y019117D02*
X000860Y019117D01*
X000845Y019018D02*
X000725Y019018D01*
X000725Y018920D02*
X000845Y018920D01*
X000885Y018821D02*
X000725Y018821D01*
X000725Y018723D02*
X000954Y018723D01*
X001099Y018624D02*
X000725Y018624D01*
X000725Y018526D02*
X003365Y018526D01*
X003386Y018427D02*
X000725Y018427D01*
X000725Y018329D02*
X001005Y018329D01*
X001020Y018344D02*
X000906Y018230D01*
X000845Y018081D01*
X000845Y017919D01*
X000906Y017770D01*
X001020Y017656D01*
X001169Y017595D01*
X001331Y017595D01*
X001480Y017656D01*
X001594Y017770D01*
X001655Y017919D01*
X001655Y018081D01*
X001594Y018230D01*
X001480Y018344D01*
X001331Y018405D01*
X001169Y018405D01*
X001020Y018344D01*
X000907Y018230D02*
X000725Y018230D01*
X000725Y018132D02*
X000866Y018132D01*
X000845Y018033D02*
X000725Y018033D01*
X000725Y017935D02*
X000845Y017935D01*
X000879Y017836D02*
X000725Y017836D01*
X000725Y017738D02*
X000939Y017738D01*
X001062Y017639D02*
X000725Y017639D01*
X000725Y017541D02*
X003555Y017541D01*
X003518Y017639D02*
X002438Y017639D01*
X002480Y017656D02*
X002331Y017595D01*
X002169Y017595D01*
X002020Y017656D01*
X001906Y017770D01*
X001845Y017919D01*
X001845Y018081D01*
X001906Y018230D01*
X002020Y018344D01*
X002169Y018405D01*
X002331Y018405D01*
X002480Y018344D01*
X002594Y018230D01*
X002655Y018081D01*
X002655Y017919D01*
X002594Y017770D01*
X002480Y017656D01*
X002561Y017738D02*
X003483Y017738D01*
X003456Y017836D02*
X002621Y017836D01*
X002655Y017935D02*
X003435Y017935D01*
X003417Y018033D02*
X002655Y018033D01*
X002634Y018132D02*
X003409Y018132D01*
X003402Y018230D02*
X002593Y018230D01*
X002495Y018329D02*
X003396Y018329D01*
X003600Y018350D02*
X003586Y018503D01*
X003549Y018652D01*
X003492Y018794D01*
X003416Y018927D01*
X003321Y019048D01*
X003210Y019154D01*
X003085Y019243D01*
X002949Y019313D01*
X002804Y019363D01*
X002653Y019393D01*
X002500Y019400D01*
X002343Y019400D01*
X002331Y019405D01*
X002169Y019405D01*
X002157Y019400D01*
X001343Y019400D01*
X001331Y019405D01*
X001169Y019405D01*
X001157Y019400D01*
X000725Y019400D01*
X000725Y029500D01*
X000740Y029875D01*
X000857Y030615D01*
X001088Y031327D01*
X001429Y031995D01*
X001869Y032601D01*
X002399Y033131D01*
X003005Y033571D01*
X003673Y033912D01*
X004385Y034143D01*
X005125Y034260D01*
X005500Y034275D01*
X011176Y034275D01*
X011145Y034201D01*
X011145Y034099D01*
X011184Y034006D01*
X011256Y033934D01*
X011349Y033895D01*
X011451Y033895D01*
X011544Y033934D01*
X011616Y034006D01*
X011655Y034099D01*
X011655Y034201D01*
X011624Y034275D01*
X015864Y034275D01*
X015834Y034244D01*
X015795Y034151D01*
X015795Y034049D01*
X015834Y033956D01*
X015906Y033884D01*
X015999Y033845D01*
X016101Y033845D01*
X016194Y033884D01*
X016266Y033956D01*
X016305Y034049D01*
X016305Y034151D01*
X016266Y034244D01*
X016236Y034275D01*
X017000Y034275D01*
X017375Y034260D01*
X018115Y034143D01*
X018827Y033912D01*
X019495Y033571D01*
X020101Y033131D01*
X020631Y032601D01*
X021071Y031995D01*
X021412Y031327D01*
X021643Y030615D01*
X021760Y029875D01*
X021775Y029500D01*
X021775Y007400D01*
X018700Y007400D01*
X018651Y007405D01*
X018604Y007419D01*
X018561Y007442D01*
X018523Y007473D01*
X018492Y007511D01*
X018469Y007554D01*
X018455Y007601D01*
X018450Y007650D01*
X018450Y009097D01*
X018443Y009176D01*
X018423Y009252D01*
X018389Y009324D01*
X018344Y009388D01*
X018288Y009444D01*
X018224Y009489D01*
X018152Y009523D01*
X018076Y009543D01*
X017997Y009550D01*
X016350Y009550D01*
X016046Y009571D01*
X015746Y009629D01*
X015456Y009723D01*
X015179Y009851D01*
X014920Y010011D01*
X014682Y010202D01*
X014468Y010419D01*
X014283Y010661D01*
X014128Y010924D01*
X014005Y011203D01*
X013917Y011495D01*
X013865Y011795D01*
X013850Y012100D01*
X013850Y014799D01*
X013813Y015054D01*
X013746Y015303D01*
X013650Y015542D01*
X013525Y015767D01*
X013374Y015976D01*
X013199Y016165D01*
X013003Y016331D01*
X012788Y016473D01*
X012557Y016588D01*
X012314Y016674D01*
X012063Y016730D01*
X011807Y016756D01*
X011549Y016750D01*
X008050Y016750D01*
X008030Y016754D01*
X008009Y016752D01*
X007990Y016746D01*
X007973Y016734D01*
X007959Y016719D01*
X007941Y016681D01*
X007927Y016666D01*
X007910Y016654D01*
X005407Y016654D01*
X005411Y016650D02*
X005394Y016666D01*
X005301Y016705D01*
X005199Y016705D01*
X005106Y016666D01*
X005101Y016662D01*
X005032Y016668D01*
X004817Y016714D01*
X004611Y016787D01*
X004416Y016887D01*
X004235Y017011D01*
X004073Y017158D01*
X003931Y017325D01*
X003812Y017509D01*
X003718Y017707D01*
X003651Y017916D01*
X003611Y018131D01*
X003600Y018350D01*
X003601Y018329D02*
X004377Y018329D01*
X004384Y018344D02*
X004345Y018251D01*
X004345Y018149D01*
X004384Y018056D01*
X004456Y017984D01*
X004477Y017975D01*
X004456Y017966D01*
X004384Y017894D01*
X004345Y017801D01*
X004345Y017699D01*
X004384Y017606D01*
X004456Y017534D01*
X004549Y017495D01*
X004651Y017495D01*
X004744Y017534D01*
X004816Y017606D01*
X004855Y017699D01*
X004855Y017801D01*
X004816Y017894D01*
X004744Y017966D01*
X004723Y017975D01*
X004744Y017984D01*
X004816Y018056D01*
X004855Y018149D01*
X004855Y018251D01*
X004816Y018344D01*
X004744Y018416D01*
X004651Y018455D01*
X004549Y018455D01*
X004456Y018416D01*
X004384Y018344D01*
X004345Y018230D02*
X003606Y018230D01*
X003611Y018132D02*
X004352Y018132D01*
X004406Y018033D02*
X003629Y018033D01*
X003647Y017935D02*
X004424Y017935D01*
X004360Y017836D02*
X003676Y017836D01*
X003708Y017738D02*
X004345Y017738D01*
X004370Y017639D02*
X003750Y017639D01*
X003797Y017541D02*
X004449Y017541D01*
X004751Y017541D02*
X013514Y017541D01*
X013549Y017555D02*
X013456Y017516D01*
X013384Y017444D01*
X013345Y017351D01*
X013345Y017249D01*
X013384Y017156D01*
X013456Y017084D01*
X013549Y017045D01*
X013651Y017045D01*
X013744Y017084D01*
X013816Y017156D01*
X013855Y017249D01*
X013855Y017351D01*
X013816Y017444D01*
X013744Y017516D01*
X013651Y017555D01*
X013549Y017555D01*
X013686Y017541D02*
X016499Y017541D01*
X016495Y017549D02*
X016534Y017456D01*
X016606Y017384D01*
X016699Y017345D01*
X016801Y017345D01*
X016894Y017384D01*
X016966Y017456D01*
X017005Y017549D01*
X017005Y017651D01*
X016966Y017744D01*
X016894Y017816D01*
X016801Y017855D01*
X016699Y017855D01*
X016606Y017816D01*
X016534Y017744D01*
X016495Y017651D01*
X016495Y017549D01*
X016495Y017639D02*
X004830Y017639D01*
X004855Y017738D02*
X016531Y017738D01*
X016654Y017836D02*
X009647Y017836D01*
X009666Y017856D02*
X009705Y017949D01*
X009705Y018051D01*
X009666Y018144D01*
X009594Y018216D01*
X009501Y018255D01*
X009399Y018255D01*
X009306Y018216D01*
X009234Y018144D01*
X009195Y018051D01*
X009195Y017949D01*
X009234Y017856D01*
X009306Y017784D01*
X009399Y017745D01*
X009501Y017745D01*
X009594Y017784D01*
X009666Y017856D01*
X009699Y017935D02*
X019258Y017935D01*
X019291Y017948D02*
X019181Y017903D01*
X019097Y017819D01*
X019052Y017709D01*
X019052Y017591D01*
X019097Y017481D01*
X019181Y017397D01*
X019291Y017352D01*
X019409Y017352D01*
X019519Y017397D01*
X019603Y017481D01*
X019648Y017591D01*
X019648Y017709D01*
X019603Y017819D01*
X019519Y017903D01*
X019409Y017948D01*
X019291Y017948D01*
X019442Y017935D02*
X019845Y017935D01*
X019845Y017919D02*
X019906Y017770D01*
X020020Y017656D01*
X020169Y017595D01*
X020331Y017595D01*
X020480Y017656D01*
X020594Y017770D01*
X020655Y017919D01*
X020655Y018081D01*
X020594Y018230D01*
X020480Y018344D01*
X020331Y018405D01*
X020169Y018405D01*
X020020Y018344D01*
X019906Y018230D01*
X019845Y018081D01*
X019845Y017919D01*
X019879Y017836D02*
X019586Y017836D01*
X019636Y017738D02*
X019939Y017738D01*
X020062Y017639D02*
X019648Y017639D01*
X019627Y017541D02*
X021775Y017541D01*
X021775Y017639D02*
X021438Y017639D01*
X021480Y017656D02*
X021594Y017770D01*
X021655Y017919D01*
X021655Y018081D01*
X021594Y018230D01*
X021480Y018344D01*
X021331Y018405D01*
X021169Y018405D01*
X021020Y018344D01*
X020906Y018230D01*
X020845Y018081D01*
X020845Y017919D01*
X020906Y017770D01*
X021020Y017656D01*
X021169Y017595D01*
X021331Y017595D01*
X021480Y017656D01*
X021561Y017738D02*
X021775Y017738D01*
X021775Y017836D02*
X021621Y017836D01*
X021655Y017935D02*
X021775Y017935D01*
X021775Y018033D02*
X021655Y018033D01*
X021634Y018132D02*
X021775Y018132D01*
X021775Y018230D02*
X021593Y018230D01*
X021495Y018329D02*
X021775Y018329D01*
X021775Y018427D02*
X016894Y018427D01*
X016905Y018401D02*
X016866Y018494D01*
X016794Y018566D01*
X016701Y018605D01*
X016599Y018605D01*
X016506Y018566D01*
X016434Y018494D01*
X016395Y018401D01*
X016395Y018299D01*
X016434Y018206D01*
X016506Y018134D01*
X016599Y018095D01*
X016701Y018095D01*
X016794Y018134D01*
X016866Y018206D01*
X016905Y018299D01*
X016905Y018401D01*
X016905Y018329D02*
X020005Y018329D01*
X019907Y018230D02*
X016876Y018230D01*
X016789Y018132D02*
X019866Y018132D01*
X019845Y018033D02*
X009705Y018033D01*
X009672Y018132D02*
X016511Y018132D01*
X016424Y018230D02*
X013991Y018230D01*
X014016Y018256D02*
X014055Y018349D01*
X014055Y018451D01*
X014016Y018544D01*
X013944Y018616D01*
X013851Y018655D01*
X013749Y018655D01*
X013656Y018616D01*
X013584Y018544D01*
X013545Y018451D01*
X013545Y018349D01*
X013584Y018256D01*
X013656Y018184D01*
X013749Y018145D01*
X013851Y018145D01*
X013944Y018184D01*
X014016Y018256D01*
X014046Y018329D02*
X016395Y018329D01*
X016406Y018427D02*
X014055Y018427D01*
X014024Y018526D02*
X016465Y018526D01*
X016835Y018526D02*
X021775Y018526D01*
X021775Y018624D02*
X021401Y018624D01*
X021331Y018595D02*
X021480Y018656D01*
X021594Y018770D01*
X021655Y018919D01*
X021655Y019081D01*
X021594Y019230D01*
X021480Y019344D01*
X021331Y019405D01*
X021169Y019405D01*
X021020Y019344D01*
X020906Y019230D01*
X020845Y019081D01*
X020845Y018919D01*
X020906Y018770D01*
X021020Y018656D01*
X021169Y018595D01*
X021331Y018595D01*
X021099Y018624D02*
X020401Y018624D01*
X020331Y018595D02*
X020480Y018656D01*
X020594Y018770D01*
X020655Y018919D01*
X020655Y019081D01*
X020594Y019230D01*
X020480Y019344D01*
X020331Y019405D01*
X020169Y019405D01*
X020020Y019344D01*
X019906Y019230D01*
X019845Y019081D01*
X019845Y018919D01*
X019906Y018770D01*
X020020Y018656D01*
X020169Y018595D01*
X020331Y018595D01*
X020099Y018624D02*
X013925Y018624D01*
X013675Y018624D02*
X004274Y018624D01*
X004266Y018606D02*
X004305Y018699D01*
X004305Y018801D01*
X004266Y018894D01*
X004194Y018966D01*
X004101Y019005D01*
X003999Y019005D01*
X003906Y018966D01*
X003834Y018894D01*
X003795Y018801D01*
X003795Y018699D01*
X003834Y018606D01*
X003906Y018534D01*
X003999Y018495D01*
X004101Y018495D01*
X004194Y018534D01*
X004266Y018606D01*
X004174Y018526D02*
X013576Y018526D01*
X013545Y018427D02*
X004718Y018427D01*
X004823Y018329D02*
X013554Y018329D01*
X013609Y018230D02*
X009561Y018230D01*
X009339Y018230D02*
X004855Y018230D01*
X004848Y018132D02*
X009228Y018132D01*
X009195Y018033D02*
X004794Y018033D01*
X004776Y017935D02*
X009201Y017935D01*
X009253Y017836D02*
X004840Y017836D01*
X004482Y018427D02*
X003593Y018427D01*
X003580Y018526D02*
X003926Y018526D01*
X003826Y018624D02*
X003556Y018624D01*
X003521Y018723D02*
X003795Y018723D01*
X003803Y018821D02*
X003477Y018821D01*
X003420Y018920D02*
X003859Y018920D01*
X004241Y018920D02*
X008595Y018920D01*
X008595Y018899D02*
X008634Y018806D01*
X008706Y018734D01*
X008799Y018695D01*
X008901Y018695D01*
X008994Y018734D01*
X009066Y018806D01*
X009105Y018899D01*
X009105Y019001D01*
X009066Y019094D01*
X008994Y019166D01*
X008901Y019205D01*
X008799Y019205D01*
X008706Y019166D01*
X008634Y019094D01*
X008595Y019001D01*
X008595Y018899D01*
X008627Y018821D02*
X004297Y018821D01*
X004305Y018723D02*
X008733Y018723D01*
X008967Y018723D02*
X019954Y018723D01*
X019885Y018821D02*
X009073Y018821D01*
X009105Y018920D02*
X019845Y018920D01*
X019845Y019018D02*
X009098Y019018D01*
X009044Y019117D02*
X019860Y019117D01*
X019900Y019215D02*
X008599Y019215D01*
X008644Y019234D02*
X008716Y019306D01*
X008755Y019399D01*
X008755Y019501D01*
X008716Y019594D01*
X008644Y019666D01*
X008551Y019705D01*
X008449Y019705D01*
X008356Y019666D01*
X008284Y019594D01*
X008245Y019501D01*
X008245Y019399D01*
X008284Y019306D01*
X008356Y019234D01*
X008449Y019195D01*
X008551Y019195D01*
X008644Y019234D01*
X008719Y019314D02*
X019990Y019314D01*
X020135Y019609D02*
X011255Y019609D01*
X011255Y019599D02*
X011216Y019506D01*
X011144Y019434D01*
X011051Y019395D01*
X010949Y019395D01*
X010856Y019434D01*
X010784Y019506D01*
X010745Y019599D01*
X010745Y019701D01*
X010784Y019794D01*
X010856Y019866D01*
X010949Y019905D01*
X011051Y019905D01*
X011144Y019866D01*
X011216Y019794D01*
X011255Y019701D01*
X011255Y019599D01*
X011218Y019511D02*
X021775Y019511D01*
X021775Y019609D02*
X021365Y019609D01*
X021331Y019595D02*
X021480Y019656D01*
X021594Y019770D01*
X021655Y019919D01*
X021655Y020081D01*
X021594Y020230D01*
X021480Y020344D01*
X021331Y020405D01*
X021169Y020405D01*
X021020Y020344D01*
X020906Y020230D01*
X020845Y020081D01*
X020845Y019919D01*
X020906Y019770D01*
X021020Y019656D01*
X021169Y019595D01*
X021331Y019595D01*
X021135Y019609D02*
X020365Y019609D01*
X020331Y019595D02*
X020480Y019656D01*
X020594Y019770D01*
X020655Y019919D01*
X020655Y020081D01*
X020594Y020230D01*
X020480Y020344D01*
X020331Y020405D01*
X020169Y020405D01*
X020020Y020344D01*
X019906Y020230D01*
X019845Y020081D01*
X019845Y019919D01*
X019906Y019770D01*
X020020Y019656D01*
X020169Y019595D01*
X020331Y019595D01*
X020531Y019708D02*
X020969Y019708D01*
X020892Y019806D02*
X020608Y019806D01*
X020649Y019905D02*
X020851Y019905D01*
X020845Y020003D02*
X020655Y020003D01*
X020647Y020102D02*
X020853Y020102D01*
X020894Y020200D02*
X020606Y020200D01*
X020525Y020299D02*
X020975Y020299D01*
X021150Y020397D02*
X020350Y020397D01*
X020331Y020595D02*
X020169Y020595D01*
X020020Y020656D01*
X019906Y020770D01*
X019845Y020919D01*
X019845Y021081D01*
X019906Y021230D01*
X020020Y021344D01*
X020169Y021405D01*
X020331Y021405D01*
X020480Y021344D01*
X020594Y021230D01*
X020655Y021081D01*
X020655Y020919D01*
X020594Y020770D01*
X020480Y020656D01*
X020331Y020595D01*
X020516Y020693D02*
X020984Y020693D01*
X021020Y020656D02*
X021169Y020595D01*
X021331Y020595D01*
X021480Y020656D01*
X021594Y020770D01*
X021655Y020919D01*
X021655Y021081D01*
X021594Y021230D01*
X021480Y021344D01*
X021331Y021405D01*
X021169Y021405D01*
X021020Y021344D01*
X020906Y021230D01*
X020845Y021081D01*
X020845Y020919D01*
X020906Y020770D01*
X021020Y020656D01*
X020898Y020791D02*
X020602Y020791D01*
X020643Y020890D02*
X020857Y020890D01*
X020845Y020988D02*
X020655Y020988D01*
X020653Y021087D02*
X020847Y021087D01*
X020888Y021185D02*
X020612Y021185D01*
X020540Y021284D02*
X020960Y021284D01*
X021113Y021382D02*
X020387Y021382D01*
X020331Y021595D02*
X020169Y021595D01*
X020020Y021656D01*
X019906Y021770D01*
X019845Y021919D01*
X019845Y022081D01*
X019906Y022230D01*
X020020Y022344D01*
X020169Y022405D01*
X020331Y022405D01*
X020480Y022344D01*
X020594Y022230D01*
X020655Y022081D01*
X020655Y021919D01*
X020594Y021770D01*
X020480Y021656D01*
X020331Y021595D01*
X020501Y021678D02*
X020999Y021678D01*
X021020Y021656D02*
X021169Y021595D01*
X021331Y021595D01*
X021480Y021656D01*
X021594Y021770D01*
X021655Y021919D01*
X021655Y022081D01*
X021594Y022230D01*
X021480Y022344D01*
X021331Y022405D01*
X021169Y022405D01*
X021020Y022344D01*
X020906Y022230D01*
X020845Y022081D01*
X020845Y021919D01*
X020906Y021770D01*
X021020Y021656D01*
X020904Y021776D02*
X020596Y021776D01*
X020637Y021875D02*
X020863Y021875D01*
X020845Y021973D02*
X020655Y021973D01*
X020655Y022072D02*
X020845Y022072D01*
X020882Y022170D02*
X020618Y022170D01*
X020555Y022269D02*
X020945Y022269D01*
X021077Y022367D02*
X020423Y022367D01*
X020331Y022595D02*
X020480Y022656D01*
X020594Y022770D01*
X020655Y022919D01*
X020655Y023081D01*
X020594Y023230D01*
X020480Y023344D01*
X020331Y023405D01*
X020169Y023405D01*
X020020Y023344D01*
X019906Y023230D01*
X019845Y023081D01*
X019845Y022919D01*
X019906Y022770D01*
X020020Y022656D01*
X020169Y022595D01*
X020331Y022595D01*
X020486Y022663D02*
X021014Y022663D01*
X021020Y022656D02*
X021169Y022595D01*
X021331Y022595D01*
X021480Y022656D01*
X021594Y022770D01*
X021655Y022919D01*
X021655Y023081D01*
X021594Y023230D01*
X021480Y023344D01*
X021331Y023405D01*
X021169Y023405D01*
X021020Y023344D01*
X020906Y023230D01*
X020845Y023081D01*
X020845Y022919D01*
X020906Y022770D01*
X021020Y022656D01*
X020916Y022761D02*
X020584Y022761D01*
X020630Y022860D02*
X020870Y022860D01*
X020845Y022958D02*
X020655Y022958D01*
X020655Y023057D02*
X020845Y023057D01*
X020876Y023155D02*
X020624Y023155D01*
X020570Y023254D02*
X020930Y023254D01*
X021041Y023352D02*
X020459Y023352D01*
X020331Y023595D02*
X020480Y023656D01*
X020594Y023770D01*
X020655Y023919D01*
X020655Y024081D01*
X020594Y024230D01*
X020480Y024344D01*
X020331Y024405D01*
X020169Y024405D01*
X020020Y024344D01*
X019906Y024230D01*
X019845Y024081D01*
X019845Y023919D01*
X019906Y023770D01*
X020020Y023656D01*
X020169Y023595D01*
X020331Y023595D01*
X020458Y023648D02*
X021042Y023648D01*
X021020Y023656D02*
X021169Y023595D01*
X021331Y023595D01*
X021480Y023656D01*
X021594Y023770D01*
X021655Y023919D01*
X021655Y024081D01*
X021594Y024230D01*
X021480Y024344D01*
X021331Y024405D01*
X021169Y024405D01*
X021020Y024344D01*
X020906Y024230D01*
X020845Y024081D01*
X020845Y023919D01*
X020906Y023770D01*
X021020Y023656D01*
X020931Y023746D02*
X020569Y023746D01*
X020624Y023845D02*
X020876Y023845D01*
X020845Y023943D02*
X020655Y023943D01*
X020655Y024042D02*
X020845Y024042D01*
X020869Y024140D02*
X020631Y024140D01*
X020585Y024239D02*
X020915Y024239D01*
X021014Y024337D02*
X020486Y024337D01*
X020331Y024595D02*
X020480Y024656D01*
X020594Y024770D01*
X020655Y024919D01*
X020655Y025081D01*
X020594Y025230D01*
X020480Y025344D01*
X020331Y025405D01*
X020169Y025405D01*
X020020Y025344D01*
X019906Y025230D01*
X019845Y025081D01*
X019845Y024919D01*
X019906Y024770D01*
X020020Y024656D01*
X020169Y024595D01*
X020331Y024595D01*
X020422Y024633D02*
X021078Y024633D01*
X021020Y024656D02*
X021169Y024595D01*
X021331Y024595D01*
X021480Y024656D01*
X021594Y024770D01*
X021655Y024919D01*
X021655Y025081D01*
X021594Y025230D01*
X021480Y025344D01*
X021331Y025405D01*
X021169Y025405D01*
X021020Y025344D01*
X020906Y025230D01*
X020845Y025081D01*
X020845Y024919D01*
X020906Y024770D01*
X021020Y024656D01*
X020946Y024731D02*
X020554Y024731D01*
X020618Y024830D02*
X020882Y024830D01*
X020845Y024928D02*
X020655Y024928D01*
X020655Y025027D02*
X020845Y025027D01*
X020863Y025125D02*
X020637Y025125D01*
X020596Y025224D02*
X020904Y025224D01*
X020999Y025322D02*
X020501Y025322D01*
X020386Y025618D02*
X021114Y025618D01*
X021169Y025595D02*
X021331Y025595D01*
X021480Y025656D01*
X021594Y025770D01*
X021655Y025919D01*
X021655Y026081D01*
X021594Y026230D01*
X021480Y026344D01*
X021331Y026405D01*
X021169Y026405D01*
X021020Y026344D01*
X020906Y026230D01*
X020845Y026081D01*
X020845Y025919D01*
X020906Y025770D01*
X021020Y025656D01*
X021169Y025595D01*
X021386Y025618D02*
X021775Y025618D01*
X021775Y025716D02*
X021539Y025716D01*
X021612Y025815D02*
X021775Y025815D01*
X021775Y025913D02*
X021653Y025913D01*
X021655Y026012D02*
X021775Y026012D01*
X021775Y026110D02*
X021643Y026110D01*
X021602Y026209D02*
X021775Y026209D01*
X021775Y026307D02*
X021516Y026307D01*
X021775Y026406D02*
X010805Y026406D01*
X010805Y026451D02*
X010766Y026544D01*
X010694Y026616D01*
X010601Y026655D01*
X010499Y026655D01*
X010406Y026616D01*
X010334Y026544D01*
X010295Y026451D01*
X010295Y026349D01*
X010334Y026256D01*
X010406Y026184D01*
X010499Y026145D01*
X010601Y026145D01*
X010694Y026184D01*
X010766Y026256D01*
X010805Y026349D01*
X010805Y026451D01*
X010783Y026504D02*
X021775Y026504D01*
X021775Y026603D02*
X021350Y026603D01*
X021331Y026595D02*
X021480Y026656D01*
X021594Y026770D01*
X021655Y026919D01*
X021655Y027081D01*
X021594Y027230D01*
X021480Y027344D01*
X021331Y027405D01*
X021169Y027405D01*
X021020Y027344D01*
X020906Y027230D01*
X020845Y027081D01*
X020845Y026919D01*
X020906Y026770D01*
X021020Y026656D01*
X021169Y026595D01*
X021331Y026595D01*
X021150Y026603D02*
X020350Y026603D01*
X020331Y026595D02*
X020480Y026656D01*
X020594Y026770D01*
X020655Y026919D01*
X020655Y027081D01*
X020594Y027230D01*
X020480Y027344D01*
X020331Y027405D01*
X020169Y027405D01*
X020020Y027344D01*
X019906Y027230D01*
X019845Y027081D01*
X019845Y026919D01*
X019906Y026770D01*
X020020Y026656D01*
X020169Y026595D01*
X020331Y026595D01*
X020150Y026603D02*
X010708Y026603D01*
X010788Y026307D02*
X019984Y026307D01*
X020020Y026344D02*
X019906Y026230D01*
X019845Y026081D01*
X019845Y025919D01*
X019906Y025770D01*
X020020Y025656D01*
X020169Y025595D01*
X020331Y025595D01*
X020480Y025656D01*
X020594Y025770D01*
X020655Y025919D01*
X020655Y026081D01*
X020594Y026230D01*
X020480Y026344D01*
X020331Y026405D01*
X020169Y026405D01*
X020020Y026344D01*
X019898Y026209D02*
X010719Y026209D01*
X010601Y025755D02*
X010499Y025755D01*
X010406Y025716D01*
X010334Y025644D01*
X010295Y025551D01*
X010295Y025449D01*
X010334Y025356D01*
X010384Y025305D01*
X010349Y025305D01*
X010256Y025266D01*
X010184Y025194D01*
X010145Y025101D01*
X010145Y024999D01*
X010184Y024906D01*
X010256Y024834D01*
X010349Y024795D01*
X010451Y024795D01*
X010544Y024834D01*
X010616Y024906D01*
X010655Y024999D01*
X010655Y025101D01*
X010616Y025194D01*
X010566Y025245D01*
X010601Y025245D01*
X010694Y025284D01*
X010766Y025356D01*
X010805Y025449D01*
X010805Y025551D01*
X010766Y025644D01*
X010694Y025716D01*
X010601Y025755D01*
X010695Y025716D02*
X015059Y025716D01*
X015045Y025749D02*
X015084Y025656D01*
X015156Y025584D01*
X015249Y025545D01*
X015351Y025545D01*
X015444Y025584D01*
X015516Y025656D01*
X015555Y025749D01*
X015555Y025851D01*
X015516Y025944D01*
X015444Y026016D01*
X015351Y026055D01*
X015249Y026055D01*
X015156Y026016D01*
X015084Y025944D01*
X015045Y025851D01*
X015045Y025749D01*
X015045Y025815D02*
X010005Y025815D01*
X010005Y025799D02*
X010005Y025901D01*
X009966Y025994D01*
X009894Y026066D01*
X009801Y026105D01*
X009699Y026105D01*
X009606Y026066D01*
X009534Y025994D01*
X009495Y025901D01*
X009495Y025799D01*
X009534Y025706D01*
X009606Y025634D01*
X009669Y025608D01*
X009645Y025551D01*
X009645Y025449D01*
X009684Y025356D01*
X009756Y025284D01*
X009849Y025245D01*
X009951Y025245D01*
X010044Y025284D01*
X010116Y025356D01*
X010155Y025449D01*
X010155Y025551D01*
X010116Y025644D01*
X010044Y025716D01*
X009981Y025742D01*
X010005Y025799D01*
X010045Y025716D02*
X010405Y025716D01*
X010323Y025618D02*
X010127Y025618D01*
X010155Y025519D02*
X010295Y025519D01*
X010307Y025421D02*
X010143Y025421D01*
X010083Y025322D02*
X010367Y025322D01*
X010213Y025224D02*
X008325Y025224D01*
X008316Y025244D02*
X008244Y025316D01*
X008151Y025355D01*
X008049Y025355D01*
X007956Y025316D01*
X007884Y025244D01*
X007845Y025151D01*
X007845Y025049D01*
X007884Y024956D01*
X007956Y024884D01*
X008049Y024845D01*
X008151Y024845D01*
X008244Y024884D01*
X008316Y024956D01*
X008355Y025049D01*
X008355Y025151D01*
X008316Y025244D01*
X008230Y025322D02*
X009717Y025322D01*
X009657Y025421D02*
X007893Y025421D01*
X007905Y025449D02*
X007866Y025356D01*
X007794Y025284D01*
X007701Y025245D01*
X007599Y025245D01*
X007506Y025284D01*
X007434Y025356D01*
X007395Y025449D01*
X007395Y025551D01*
X007434Y025644D01*
X007506Y025716D01*
X007599Y025755D01*
X007701Y025755D01*
X007794Y025716D01*
X007866Y025644D01*
X007905Y025551D01*
X007905Y025449D01*
X007905Y025519D02*
X009645Y025519D01*
X009645Y025618D02*
X007877Y025618D01*
X007795Y025716D02*
X009529Y025716D01*
X009495Y025815D02*
X002612Y025815D01*
X002594Y025770D02*
X002655Y025919D01*
X002655Y026081D01*
X002594Y026230D01*
X002480Y026344D01*
X002331Y026405D01*
X002169Y026405D01*
X002020Y026344D01*
X001906Y026230D01*
X001845Y026081D01*
X001845Y025919D01*
X001906Y025770D01*
X002020Y025656D01*
X002169Y025595D01*
X002331Y025595D01*
X002480Y025656D01*
X002594Y025770D01*
X002539Y025716D02*
X005755Y025716D01*
X005756Y025716D02*
X005684Y025644D01*
X005645Y025551D01*
X005645Y025449D01*
X005684Y025356D01*
X005756Y025284D01*
X005849Y025245D01*
X005951Y025245D01*
X006044Y025284D01*
X006116Y025356D01*
X006155Y025449D01*
X006155Y025551D01*
X006116Y025644D01*
X006044Y025716D01*
X005951Y025755D01*
X005849Y025755D01*
X005756Y025716D01*
X005673Y025618D02*
X002386Y025618D01*
X002331Y025405D02*
X002169Y025405D01*
X002020Y025344D01*
X001906Y025230D01*
X001845Y025081D01*
X001845Y024919D01*
X001906Y024770D01*
X002020Y024656D01*
X002169Y024595D01*
X002331Y024595D01*
X002480Y024656D01*
X002594Y024770D01*
X002655Y024919D01*
X002655Y025081D01*
X002594Y025230D01*
X002480Y025344D01*
X002331Y025405D01*
X002501Y025322D02*
X005717Y025322D01*
X005657Y025421D02*
X000725Y025421D01*
X000725Y025519D02*
X005645Y025519D01*
X006045Y025716D02*
X007505Y025716D01*
X007423Y025618D02*
X006127Y025618D01*
X006155Y025519D02*
X007395Y025519D01*
X007407Y025421D02*
X006143Y025421D01*
X006083Y025322D02*
X007467Y025322D01*
X007833Y025322D02*
X007970Y025322D01*
X007875Y025224D02*
X006537Y025224D01*
X006566Y025194D02*
X006494Y025266D01*
X006401Y025305D01*
X006299Y025305D01*
X006206Y025266D01*
X006134Y025194D01*
X006095Y025101D01*
X006095Y024999D01*
X006134Y024906D01*
X006206Y024834D01*
X006299Y024795D01*
X006401Y024795D01*
X006494Y024834D01*
X006566Y024906D01*
X006605Y024999D01*
X006605Y025101D01*
X006566Y025194D01*
X006595Y025125D02*
X007845Y025125D01*
X007854Y025027D02*
X006605Y025027D01*
X006575Y024928D02*
X007911Y024928D01*
X008289Y024928D02*
X010174Y024928D01*
X010145Y025027D02*
X008346Y025027D01*
X008355Y025125D02*
X010155Y025125D01*
X010266Y024830D02*
X006484Y024830D01*
X006216Y024830D02*
X002618Y024830D01*
X002655Y024928D02*
X006124Y024928D01*
X006095Y025027D02*
X002655Y025027D01*
X002637Y025125D02*
X006105Y025125D01*
X006163Y025224D02*
X002596Y025224D01*
X002554Y024731D02*
X019946Y024731D01*
X019882Y024830D02*
X010534Y024830D01*
X010625Y024928D02*
X018119Y024928D01*
X018106Y024934D02*
X018199Y024895D01*
X018301Y024895D01*
X018394Y024934D01*
X018466Y025006D01*
X018505Y025099D01*
X018505Y025201D01*
X018466Y025294D01*
X018394Y025366D01*
X018301Y025405D01*
X018199Y025405D01*
X018106Y025366D01*
X018034Y025294D01*
X017995Y025201D01*
X017995Y025099D01*
X018034Y025006D01*
X018106Y024934D01*
X018025Y025027D02*
X014477Y025027D01*
X014494Y025034D02*
X014566Y025106D01*
X014605Y025199D01*
X014605Y025301D01*
X014566Y025394D01*
X014494Y025466D01*
X014401Y025505D01*
X014299Y025505D01*
X014206Y025466D01*
X014134Y025394D01*
X014095Y025301D01*
X014095Y025199D01*
X014134Y025106D01*
X014206Y025034D01*
X014299Y024995D01*
X014401Y024995D01*
X014494Y025034D01*
X014574Y025125D02*
X017995Y025125D01*
X018004Y025224D02*
X014605Y025224D01*
X014596Y025322D02*
X018061Y025322D01*
X018439Y025322D02*
X018695Y025322D01*
X018695Y025351D02*
X018695Y025249D01*
X018734Y025156D01*
X018806Y025084D01*
X018899Y025045D01*
X019001Y025045D01*
X019094Y025084D01*
X019166Y025156D01*
X019205Y025249D01*
X019205Y025351D01*
X019166Y025444D01*
X019094Y025516D01*
X019001Y025555D01*
X018899Y025555D01*
X018806Y025516D01*
X018734Y025444D01*
X018695Y025351D01*
X018724Y025421D02*
X014540Y025421D01*
X014223Y025027D02*
X010655Y025027D01*
X010645Y025125D02*
X014126Y025125D01*
X014095Y025224D02*
X012184Y025224D01*
X012216Y025256D02*
X012144Y025184D01*
X012051Y025145D01*
X011949Y025145D01*
X011856Y025184D01*
X011784Y025256D01*
X011745Y025349D01*
X011745Y025451D01*
X011784Y025544D01*
X011856Y025616D01*
X011949Y025655D01*
X012051Y025655D01*
X012144Y025616D01*
X012216Y025544D01*
X012255Y025451D01*
X012255Y025349D01*
X012216Y025256D01*
X012244Y025322D02*
X014104Y025322D01*
X014160Y025421D02*
X012255Y025421D01*
X012227Y025519D02*
X018813Y025519D01*
X018706Y025224D02*
X018496Y025224D01*
X018505Y025125D02*
X018764Y025125D01*
X018475Y025027D02*
X019845Y025027D01*
X019845Y024928D02*
X018381Y024928D01*
X017894Y023716D02*
X017801Y023755D01*
X017699Y023755D01*
X017606Y023716D01*
X017534Y023644D01*
X017495Y023551D01*
X017495Y023449D01*
X017534Y023356D01*
X017606Y023284D01*
X017699Y023245D01*
X017801Y023245D01*
X017894Y023284D01*
X017966Y023356D01*
X018005Y023449D01*
X018005Y023551D01*
X017966Y023644D01*
X017894Y023716D01*
X017822Y023746D02*
X019931Y023746D01*
X019876Y023845D02*
X014332Y023845D01*
X014316Y023806D02*
X014355Y023899D01*
X014355Y024001D01*
X014316Y024094D01*
X014244Y024166D01*
X014151Y024205D01*
X014049Y024205D01*
X013956Y024166D01*
X013884Y024094D01*
X013845Y024001D01*
X013845Y023899D01*
X013884Y023806D01*
X013956Y023734D01*
X014049Y023695D01*
X014151Y023695D01*
X014244Y023734D01*
X014316Y023806D01*
X014257Y023746D02*
X017678Y023746D01*
X017537Y023648D02*
X013886Y023648D01*
X013866Y023694D02*
X013794Y023766D01*
X013701Y023805D01*
X013599Y023805D01*
X013506Y023766D01*
X013434Y023694D01*
X013395Y023601D01*
X013395Y023499D01*
X013434Y023406D01*
X013506Y023334D01*
X013599Y023295D01*
X013701Y023295D01*
X013794Y023334D01*
X013866Y023406D01*
X013905Y023499D01*
X013905Y023601D01*
X013866Y023694D01*
X013815Y023746D02*
X013943Y023746D01*
X013868Y023845D02*
X008226Y023845D01*
X008201Y023855D02*
X008294Y023816D01*
X008366Y023744D01*
X008405Y023651D01*
X008405Y023549D01*
X010265Y023549D01*
X010284Y023594D02*
X010245Y023501D01*
X010245Y023399D01*
X010284Y023306D01*
X010356Y023234D01*
X010449Y023195D01*
X010551Y023195D01*
X010644Y023234D01*
X010716Y023306D01*
X010755Y023399D01*
X010755Y023501D01*
X010716Y023594D01*
X010644Y023666D01*
X010551Y023705D01*
X010449Y023705D01*
X010356Y023666D01*
X010284Y023594D01*
X010337Y023648D02*
X008405Y023648D01*
X008405Y023549D02*
X008366Y023456D01*
X008294Y023384D01*
X008201Y023345D01*
X008099Y023345D01*
X008006Y023384D01*
X007934Y023456D01*
X007895Y023549D01*
X006935Y023549D01*
X006916Y023594D02*
X006955Y023501D01*
X006955Y023399D01*
X006916Y023306D01*
X006844Y023234D01*
X006751Y023195D01*
X006649Y023195D01*
X006556Y023234D01*
X006484Y023306D01*
X006445Y023399D01*
X006445Y023501D01*
X006484Y023594D01*
X006556Y023666D01*
X006649Y023705D01*
X006751Y023705D01*
X006844Y023666D01*
X006916Y023594D01*
X006863Y023648D02*
X007895Y023648D01*
X007895Y023651D02*
X007895Y023549D01*
X007895Y023651D02*
X007934Y023744D01*
X008006Y023816D01*
X008099Y023855D01*
X008201Y023855D01*
X008074Y023845D02*
X007905Y023845D01*
X007916Y023856D02*
X007955Y023949D01*
X007955Y024051D01*
X007916Y024144D01*
X007844Y024216D01*
X007751Y024255D01*
X007649Y024255D01*
X007556Y024216D01*
X007484Y024144D01*
X007445Y024051D01*
X007445Y023949D01*
X007484Y023856D01*
X007556Y023784D01*
X007649Y023745D01*
X007751Y023745D01*
X007844Y023784D01*
X007916Y023856D01*
X007952Y023943D02*
X013845Y023943D01*
X013862Y024042D02*
X007955Y024042D01*
X007918Y024140D02*
X013929Y024140D01*
X014271Y024140D02*
X019869Y024140D01*
X019845Y024042D02*
X014338Y024042D01*
X014355Y023943D02*
X019845Y023943D01*
X019915Y024239D02*
X013299Y024239D01*
X013316Y024256D02*
X013244Y024184D01*
X013151Y024145D01*
X013049Y024145D01*
X012956Y024184D01*
X012884Y024256D01*
X012845Y024349D01*
X012845Y024451D01*
X012884Y024544D01*
X012956Y024616D01*
X013049Y024655D01*
X013151Y024655D01*
X013244Y024616D01*
X013316Y024544D01*
X013355Y024451D01*
X013355Y024349D01*
X013316Y024256D01*
X013350Y024337D02*
X020014Y024337D01*
X020078Y024633D02*
X013205Y024633D01*
X013320Y024534D02*
X021775Y024534D01*
X021775Y024436D02*
X013355Y024436D01*
X012995Y024633D02*
X002422Y024633D01*
X002331Y024405D02*
X002169Y024405D01*
X002020Y024344D01*
X001906Y024230D01*
X001845Y024081D01*
X001845Y023919D01*
X001906Y023770D01*
X002020Y023656D01*
X002169Y023595D01*
X002331Y023595D01*
X002480Y023656D01*
X002594Y023770D01*
X002655Y023919D01*
X002655Y024081D01*
X002594Y024230D01*
X002480Y024344D01*
X002331Y024405D01*
X002486Y024337D02*
X012850Y024337D01*
X012845Y024436D02*
X000725Y024436D01*
X000725Y024534D02*
X012880Y024534D01*
X012901Y024239D02*
X007790Y024239D01*
X007610Y024239D02*
X003822Y024239D01*
X003794Y024266D02*
X003866Y024194D01*
X003905Y024101D01*
X003905Y023999D01*
X003866Y023906D01*
X003794Y023834D01*
X003701Y023795D01*
X003599Y023795D01*
X003506Y023834D01*
X003434Y023906D01*
X003395Y023999D01*
X003395Y024101D01*
X003434Y024194D01*
X003506Y024266D01*
X003599Y024305D01*
X003701Y024305D01*
X003794Y024266D01*
X003889Y024140D02*
X007482Y024140D01*
X007445Y024042D02*
X003905Y024042D01*
X003882Y023943D02*
X007448Y023943D01*
X007495Y023845D02*
X004226Y023845D01*
X004201Y023855D02*
X004294Y023816D01*
X004366Y023744D01*
X004405Y023651D01*
X004405Y023549D01*
X006465Y023549D01*
X006445Y023451D02*
X004361Y023451D01*
X004366Y023456D02*
X004405Y023549D01*
X004405Y023648D02*
X006537Y023648D01*
X006465Y023352D02*
X004218Y023352D01*
X004201Y023345D02*
X004294Y023384D01*
X004366Y023456D01*
X004201Y023345D02*
X004099Y023345D01*
X004006Y023384D01*
X003934Y023456D01*
X003895Y023549D01*
X000725Y023549D01*
X000725Y023451D02*
X003939Y023451D01*
X003895Y023549D02*
X003895Y023651D01*
X003934Y023744D01*
X004006Y023816D01*
X004099Y023855D01*
X004201Y023855D01*
X004074Y023845D02*
X003805Y023845D01*
X003935Y023746D02*
X002569Y023746D01*
X002624Y023845D02*
X003495Y023845D01*
X003418Y023943D02*
X002655Y023943D01*
X002655Y024042D02*
X003395Y024042D01*
X003411Y024140D02*
X002631Y024140D01*
X002585Y024239D02*
X003478Y024239D01*
X003895Y023648D02*
X002458Y023648D01*
X002331Y023405D02*
X002169Y023405D01*
X002020Y023344D01*
X001906Y023230D01*
X001845Y023081D01*
X001845Y022919D01*
X001906Y022770D01*
X002020Y022656D01*
X002169Y022595D01*
X002331Y022595D01*
X002480Y022656D01*
X002594Y022770D01*
X002655Y022919D01*
X002655Y023081D01*
X002594Y023230D01*
X002480Y023344D01*
X002331Y023405D01*
X002459Y023352D02*
X004082Y023352D01*
X004365Y023746D02*
X007647Y023746D01*
X007753Y023746D02*
X007935Y023746D01*
X007939Y023451D02*
X006955Y023451D01*
X006935Y023352D02*
X008082Y023352D01*
X008218Y023352D02*
X010265Y023352D01*
X010245Y023451D02*
X008361Y023451D01*
X008365Y023746D02*
X013485Y023746D01*
X013414Y023648D02*
X011213Y023648D01*
X011194Y023666D02*
X011101Y023705D01*
X010999Y023705D01*
X010906Y023666D01*
X010834Y023594D01*
X010795Y023501D01*
X010795Y023399D01*
X010834Y023306D01*
X010906Y023234D01*
X010999Y023195D01*
X011101Y023195D01*
X011194Y023234D01*
X011266Y023306D01*
X011305Y023399D01*
X011305Y023501D01*
X011266Y023594D01*
X011194Y023666D01*
X011285Y023549D02*
X013395Y023549D01*
X013415Y023451D02*
X011305Y023451D01*
X011285Y023352D02*
X013487Y023352D01*
X013813Y023352D02*
X016141Y023352D01*
X016156Y023366D02*
X016084Y023294D01*
X016045Y023201D01*
X016045Y023099D01*
X016084Y023006D01*
X016156Y022934D01*
X016249Y022895D01*
X016351Y022895D01*
X016444Y022934D01*
X016516Y023006D01*
X016555Y023099D01*
X016555Y023201D01*
X016516Y023294D01*
X016444Y023366D01*
X016351Y023405D01*
X016249Y023405D01*
X016156Y023366D01*
X016067Y023254D02*
X011214Y023254D01*
X010886Y023254D02*
X010664Y023254D01*
X010735Y023352D02*
X010815Y023352D01*
X010795Y023451D02*
X010755Y023451D01*
X010735Y023549D02*
X010815Y023549D01*
X010887Y023648D02*
X010663Y023648D01*
X010336Y023254D02*
X006864Y023254D01*
X006536Y023254D02*
X002570Y023254D01*
X002624Y023155D02*
X016045Y023155D01*
X016063Y023057D02*
X002655Y023057D01*
X002655Y022958D02*
X016131Y022958D01*
X016151Y022755D02*
X016049Y022755D01*
X015956Y022716D01*
X015884Y022644D01*
X015845Y022551D01*
X015845Y022449D01*
X015884Y022356D01*
X015956Y022284D01*
X016049Y022245D01*
X016151Y022245D01*
X016244Y022284D01*
X016316Y022356D01*
X016355Y022449D01*
X016355Y022551D01*
X016316Y022644D01*
X016244Y022716D01*
X016151Y022755D01*
X016298Y022663D02*
X020014Y022663D01*
X019916Y022761D02*
X018339Y022761D01*
X018301Y022745D02*
X018394Y022784D01*
X018466Y022856D01*
X018505Y022949D01*
X018505Y023051D01*
X018466Y023144D01*
X018394Y023216D01*
X018301Y023255D01*
X018199Y023255D01*
X018106Y023216D01*
X018034Y023144D01*
X017995Y023051D01*
X017995Y022949D01*
X018034Y022856D01*
X018106Y022784D01*
X018199Y022745D01*
X018301Y022745D01*
X018161Y022761D02*
X015830Y022761D01*
X015816Y022794D02*
X015744Y022866D01*
X015651Y022905D01*
X015549Y022905D01*
X015456Y022866D01*
X015384Y022794D01*
X015345Y022701D01*
X015345Y022599D01*
X015384Y022506D01*
X015456Y022434D01*
X015549Y022395D01*
X015651Y022395D01*
X015744Y022434D01*
X015816Y022506D01*
X015855Y022599D01*
X015855Y022701D01*
X015816Y022794D01*
X015751Y022860D02*
X018032Y022860D01*
X017995Y022958D02*
X016469Y022958D01*
X016537Y023057D02*
X017997Y023057D01*
X018044Y023155D02*
X016555Y023155D01*
X016533Y023254D02*
X017679Y023254D01*
X017821Y023254D02*
X018196Y023254D01*
X018304Y023254D02*
X019930Y023254D01*
X019876Y023155D02*
X018456Y023155D01*
X018503Y023057D02*
X019845Y023057D01*
X019845Y022958D02*
X018505Y022958D01*
X018468Y022860D02*
X019870Y022860D01*
X020077Y022367D02*
X016321Y022367D01*
X016355Y022466D02*
X021775Y022466D01*
X021775Y022564D02*
X016349Y022564D01*
X016208Y022269D02*
X019945Y022269D01*
X019882Y022170D02*
X013147Y022170D01*
X013155Y022151D02*
X013116Y022244D01*
X013044Y022316D01*
X012951Y022355D01*
X012849Y022355D01*
X012756Y022316D01*
X012684Y022244D01*
X012645Y022151D01*
X012645Y022049D01*
X012684Y021956D01*
X012756Y021884D01*
X012849Y021845D01*
X012951Y021845D01*
X013044Y021884D01*
X013116Y021956D01*
X013155Y022049D01*
X013155Y022151D01*
X013155Y022072D02*
X019845Y022072D01*
X019845Y021973D02*
X013123Y021973D01*
X013022Y021875D02*
X019863Y021875D01*
X019904Y021776D02*
X019635Y021776D01*
X019666Y021744D02*
X019594Y021816D01*
X019501Y021855D01*
X019399Y021855D01*
X019306Y021816D01*
X019234Y021744D01*
X019195Y021651D01*
X019195Y021549D01*
X019234Y021456D01*
X019306Y021384D01*
X019399Y021345D01*
X019501Y021345D01*
X019594Y021384D01*
X019666Y021456D01*
X019705Y021549D01*
X019705Y021651D01*
X019666Y021744D01*
X019694Y021678D02*
X019999Y021678D01*
X020113Y021382D02*
X019590Y021382D01*
X019677Y021481D02*
X021775Y021481D01*
X021775Y021579D02*
X019705Y021579D01*
X019960Y021284D02*
X018748Y021284D01*
X018755Y021299D02*
X018755Y021401D01*
X018716Y021494D01*
X018644Y021566D01*
X018551Y021605D01*
X018449Y021605D01*
X018356Y021566D01*
X018284Y021494D01*
X018250Y021413D01*
X018216Y021494D01*
X018144Y021566D01*
X018051Y021605D01*
X017949Y021605D01*
X017856Y021566D01*
X017784Y021494D01*
X017745Y021401D01*
X017745Y021299D01*
X017784Y021206D01*
X017856Y021134D01*
X017949Y021095D01*
X018051Y021095D01*
X018144Y021134D01*
X018216Y021206D01*
X018250Y021287D01*
X018284Y021206D01*
X018356Y021134D01*
X018449Y021095D01*
X018551Y021095D01*
X018644Y021134D01*
X018716Y021206D01*
X018755Y021299D01*
X018755Y021382D02*
X019310Y021382D01*
X019223Y021481D02*
X018722Y021481D01*
X018613Y021579D02*
X019195Y021579D01*
X019206Y021678D02*
X003244Y021678D01*
X003255Y021651D02*
X003216Y021744D01*
X003144Y021816D01*
X003051Y021855D01*
X002949Y021855D01*
X002856Y021816D01*
X002784Y021744D01*
X002745Y021651D01*
X002745Y021549D01*
X002784Y021456D01*
X002856Y021384D01*
X002949Y021345D01*
X003051Y021345D01*
X003144Y021384D01*
X003216Y021456D01*
X003255Y021549D01*
X003255Y021651D01*
X003255Y021579D02*
X017887Y021579D01*
X017778Y021481D02*
X003227Y021481D01*
X003140Y021382D02*
X017745Y021382D01*
X017752Y021284D02*
X009653Y021284D01*
X009694Y021266D02*
X009601Y021305D01*
X009499Y021305D01*
X009406Y021266D01*
X009334Y021194D01*
X009295Y021101D01*
X009295Y020999D01*
X009334Y020906D01*
X009406Y020834D01*
X009499Y020795D01*
X009601Y020795D01*
X009694Y020834D01*
X009766Y020906D01*
X009805Y020999D01*
X009805Y021101D01*
X009766Y021194D01*
X009694Y021266D01*
X009770Y021185D02*
X017804Y021185D01*
X018113Y021579D02*
X018387Y021579D01*
X018278Y021481D02*
X018222Y021481D01*
X018248Y021284D02*
X018252Y021284D01*
X018304Y021185D02*
X018196Y021185D01*
X018696Y021185D02*
X019888Y021185D01*
X019847Y021087D02*
X009805Y021087D01*
X009800Y020988D02*
X019845Y020988D01*
X019857Y020890D02*
X009750Y020890D01*
X009350Y020890D02*
X007400Y020890D01*
X007394Y020884D02*
X007466Y020956D01*
X007505Y021049D01*
X007505Y021151D01*
X007466Y021244D01*
X007394Y021316D01*
X007301Y021355D01*
X007199Y021355D01*
X007106Y021316D01*
X007034Y021244D01*
X006995Y021151D01*
X006995Y021049D01*
X007034Y020956D01*
X007106Y020884D01*
X007199Y020845D01*
X007301Y020845D01*
X007394Y020884D01*
X007480Y020988D02*
X009300Y020988D01*
X009295Y021087D02*
X007505Y021087D01*
X007491Y021185D02*
X009330Y021185D01*
X009448Y021284D02*
X007427Y021284D01*
X007100Y020890D02*
X005950Y020890D01*
X005944Y020884D02*
X006016Y020956D01*
X006055Y021049D01*
X006055Y021151D01*
X006016Y021244D01*
X005944Y021316D01*
X005851Y021355D01*
X005749Y021355D01*
X005656Y021316D01*
X005584Y021244D01*
X005545Y021151D01*
X005545Y021049D01*
X005584Y020956D01*
X005656Y020884D01*
X005749Y020845D01*
X005851Y020845D01*
X005944Y020884D01*
X006030Y020988D02*
X007020Y020988D01*
X006995Y021087D02*
X006055Y021087D01*
X006041Y021185D02*
X007009Y021185D01*
X007073Y021284D02*
X005977Y021284D01*
X005623Y021284D02*
X002540Y021284D01*
X002594Y021230D02*
X002480Y021344D01*
X002331Y021405D01*
X002169Y021405D01*
X002020Y021344D01*
X001906Y021230D01*
X001845Y021081D01*
X001845Y020919D01*
X001906Y020770D01*
X002020Y020656D01*
X002169Y020595D01*
X002331Y020595D01*
X002480Y020656D01*
X002594Y020770D01*
X002655Y020919D01*
X002655Y021081D01*
X002594Y021230D01*
X002612Y021185D02*
X005559Y021185D01*
X005545Y021087D02*
X002653Y021087D01*
X002655Y020988D02*
X005570Y020988D01*
X005650Y020890D02*
X002643Y020890D01*
X002602Y020791D02*
X019898Y020791D01*
X019984Y020693D02*
X002516Y020693D01*
X002350Y020397D02*
X014880Y020397D01*
X014899Y020405D02*
X014806Y020366D01*
X014734Y020294D01*
X014695Y020201D01*
X014695Y020099D01*
X014734Y020006D01*
X014806Y019934D01*
X014899Y019895D01*
X015001Y019895D01*
X015094Y019934D01*
X015166Y020006D01*
X015205Y020099D01*
X015205Y020201D01*
X015166Y020294D01*
X015094Y020366D01*
X015001Y020405D01*
X014899Y020405D01*
X015020Y020397D02*
X020150Y020397D01*
X019975Y020299D02*
X015162Y020299D01*
X015205Y020200D02*
X019894Y020200D01*
X019853Y020102D02*
X015205Y020102D01*
X015164Y020003D02*
X019845Y020003D01*
X019851Y019905D02*
X015024Y019905D01*
X014876Y019905D02*
X011052Y019905D01*
X010948Y019905D02*
X010665Y019905D01*
X010666Y019906D02*
X010705Y019999D01*
X010705Y020101D01*
X010666Y020194D01*
X010594Y020266D01*
X010501Y020305D01*
X010399Y020305D01*
X010306Y020266D01*
X010234Y020194D01*
X010195Y020101D01*
X010195Y019999D01*
X010234Y019906D01*
X010306Y019834D01*
X010399Y019795D01*
X010501Y019795D01*
X010594Y019834D01*
X010666Y019906D01*
X010705Y020003D02*
X014736Y020003D01*
X014695Y020102D02*
X010705Y020102D01*
X010661Y020200D02*
X014695Y020200D01*
X014738Y020299D02*
X010516Y020299D01*
X010384Y020299D02*
X007412Y020299D01*
X007394Y020316D02*
X007301Y020355D01*
X007199Y020355D01*
X007106Y020316D01*
X007034Y020244D01*
X006995Y020151D01*
X006995Y020049D01*
X007034Y019956D01*
X007106Y019884D01*
X007199Y019845D01*
X007301Y019845D01*
X007394Y019884D01*
X007466Y019956D01*
X007505Y020049D01*
X007505Y020151D01*
X007466Y020244D01*
X007394Y020316D01*
X007485Y020200D02*
X010239Y020200D01*
X010195Y020102D02*
X007505Y020102D01*
X007486Y020003D02*
X010195Y020003D01*
X010235Y019905D02*
X007415Y019905D01*
X007085Y019905D02*
X005965Y019905D01*
X005944Y019884D02*
X006016Y019956D01*
X006055Y020049D01*
X006055Y020151D01*
X006016Y020244D01*
X005944Y020316D01*
X005851Y020355D01*
X005749Y020355D01*
X005656Y020316D01*
X005584Y020244D01*
X005545Y020151D01*
X005545Y020049D01*
X005584Y019956D01*
X005656Y019884D01*
X005749Y019845D01*
X005851Y019845D01*
X005944Y019884D01*
X006036Y020003D02*
X007014Y020003D01*
X006995Y020102D02*
X006055Y020102D01*
X006035Y020200D02*
X007015Y020200D01*
X007088Y020299D02*
X005962Y020299D01*
X005638Y020299D02*
X002525Y020299D01*
X002480Y020344D02*
X002331Y020405D01*
X002169Y020405D01*
X002020Y020344D01*
X001906Y020230D01*
X001845Y020081D01*
X001845Y019919D01*
X001906Y019770D01*
X002020Y019656D01*
X002169Y019595D01*
X002331Y019595D01*
X002480Y019656D01*
X002594Y019770D01*
X002655Y019919D01*
X002655Y020081D01*
X002594Y020230D01*
X002480Y020344D01*
X002606Y020200D02*
X005565Y020200D01*
X005545Y020102D02*
X002647Y020102D01*
X002655Y020003D02*
X005564Y020003D01*
X005635Y019905D02*
X002649Y019905D01*
X002608Y019806D02*
X010373Y019806D01*
X010527Y019806D02*
X010795Y019806D01*
X010748Y019708D02*
X002531Y019708D01*
X002365Y019609D02*
X008298Y019609D01*
X008249Y019511D02*
X000725Y019511D01*
X000725Y019609D02*
X001135Y019609D01*
X001169Y019595D02*
X001331Y019595D01*
X001480Y019656D01*
X001594Y019770D01*
X001655Y019919D01*
X001655Y020081D01*
X001594Y020230D01*
X001480Y020344D01*
X001331Y020405D01*
X001169Y020405D01*
X001020Y020344D01*
X000906Y020230D01*
X000845Y020081D01*
X000845Y019919D01*
X000906Y019770D01*
X001020Y019656D01*
X001169Y019595D01*
X001365Y019609D02*
X002135Y019609D01*
X001969Y019708D02*
X001531Y019708D01*
X001608Y019806D02*
X001892Y019806D01*
X001851Y019905D02*
X001649Y019905D01*
X001655Y020003D02*
X001845Y020003D01*
X001853Y020102D02*
X001647Y020102D01*
X001606Y020200D02*
X001894Y020200D01*
X001975Y020299D02*
X001525Y020299D01*
X001350Y020397D02*
X002150Y020397D01*
X001984Y020693D02*
X001516Y020693D01*
X001480Y020656D02*
X001594Y020770D01*
X001655Y020919D01*
X001655Y021081D01*
X001594Y021230D01*
X001480Y021344D01*
X001331Y021405D01*
X001169Y021405D01*
X001020Y021344D01*
X000906Y021230D01*
X000845Y021081D01*
X000845Y020919D01*
X000906Y020770D01*
X001020Y020656D01*
X001169Y020595D01*
X001331Y020595D01*
X001480Y020656D01*
X001602Y020791D02*
X001898Y020791D01*
X001857Y020890D02*
X001643Y020890D01*
X001655Y020988D02*
X001845Y020988D01*
X001847Y021087D02*
X001653Y021087D01*
X001612Y021185D02*
X001888Y021185D01*
X001960Y021284D02*
X001540Y021284D01*
X001387Y021382D02*
X002113Y021382D01*
X002169Y021595D02*
X002331Y021595D01*
X002480Y021656D01*
X002594Y021770D01*
X002655Y021919D01*
X002655Y022081D01*
X002594Y022230D01*
X002480Y022344D01*
X002331Y022405D01*
X002169Y022405D01*
X002020Y022344D01*
X001906Y022230D01*
X001845Y022081D01*
X001845Y021919D01*
X001906Y021770D01*
X002020Y021656D01*
X002169Y021595D01*
X001999Y021678D02*
X001501Y021678D01*
X001480Y021656D02*
X001594Y021770D01*
X001655Y021919D01*
X001655Y022081D01*
X001594Y022230D01*
X001480Y022344D01*
X001331Y022405D01*
X001169Y022405D01*
X001020Y022344D01*
X000906Y022230D01*
X000845Y022081D01*
X000845Y021919D01*
X000906Y021770D01*
X001020Y021656D01*
X001169Y021595D01*
X001331Y021595D01*
X001480Y021656D01*
X001596Y021776D02*
X001904Y021776D01*
X001863Y021875D02*
X001637Y021875D01*
X001655Y021973D02*
X001845Y021973D01*
X001845Y022072D02*
X001655Y022072D01*
X001618Y022170D02*
X001882Y022170D01*
X001945Y022269D02*
X001555Y022269D01*
X001423Y022367D02*
X002077Y022367D01*
X002014Y022663D02*
X001486Y022663D01*
X001480Y022656D02*
X001594Y022770D01*
X001655Y022919D01*
X001655Y023081D01*
X001594Y023230D01*
X001480Y023344D01*
X001331Y023405D01*
X001169Y023405D01*
X001020Y023344D01*
X000906Y023230D01*
X000845Y023081D01*
X000845Y022919D01*
X000906Y022770D01*
X001020Y022656D01*
X001169Y022595D01*
X001331Y022595D01*
X001480Y022656D01*
X001584Y022761D02*
X001916Y022761D01*
X001870Y022860D02*
X001630Y022860D01*
X001655Y022958D02*
X001845Y022958D01*
X001845Y023057D02*
X001655Y023057D01*
X001624Y023155D02*
X001876Y023155D01*
X001930Y023254D02*
X001570Y023254D01*
X001459Y023352D02*
X002041Y023352D01*
X002042Y023648D02*
X001458Y023648D01*
X001480Y023656D02*
X001594Y023770D01*
X001655Y023919D01*
X001655Y024081D01*
X001594Y024230D01*
X001480Y024344D01*
X001331Y024405D01*
X001169Y024405D01*
X001020Y024344D01*
X000906Y024230D01*
X000845Y024081D01*
X000845Y023919D01*
X000906Y023770D01*
X001020Y023656D01*
X001169Y023595D01*
X001331Y023595D01*
X001480Y023656D01*
X001569Y023746D02*
X001931Y023746D01*
X001876Y023845D02*
X001624Y023845D01*
X001655Y023943D02*
X001845Y023943D01*
X001845Y024042D02*
X001655Y024042D01*
X001631Y024140D02*
X001869Y024140D01*
X001915Y024239D02*
X001585Y024239D01*
X001486Y024337D02*
X002014Y024337D01*
X002078Y024633D02*
X001422Y024633D01*
X001480Y024656D02*
X001594Y024770D01*
X001655Y024919D01*
X001655Y025081D01*
X001594Y025230D01*
X001480Y025344D01*
X001331Y025405D01*
X001169Y025405D01*
X001020Y025344D01*
X000906Y025230D01*
X000845Y025081D01*
X000845Y024919D01*
X000906Y024770D01*
X001020Y024656D01*
X001169Y024595D01*
X001331Y024595D01*
X001480Y024656D01*
X001554Y024731D02*
X001946Y024731D01*
X001882Y024830D02*
X001618Y024830D01*
X001655Y024928D02*
X001845Y024928D01*
X001845Y025027D02*
X001655Y025027D01*
X001637Y025125D02*
X001863Y025125D01*
X001904Y025224D02*
X001596Y025224D01*
X001501Y025322D02*
X001999Y025322D01*
X002114Y025618D02*
X001386Y025618D01*
X001331Y025595D02*
X001480Y025656D01*
X001594Y025770D01*
X001655Y025919D01*
X001655Y026081D01*
X001594Y026230D01*
X001480Y026344D01*
X001331Y026405D01*
X001169Y026405D01*
X001020Y026344D01*
X000906Y026230D01*
X000845Y026081D01*
X000845Y025919D01*
X000906Y025770D01*
X001020Y025656D01*
X001169Y025595D01*
X001331Y025595D01*
X001114Y025618D02*
X000725Y025618D01*
X000725Y025716D02*
X000961Y025716D01*
X000888Y025815D02*
X000725Y025815D01*
X000725Y025913D02*
X000847Y025913D01*
X000845Y026012D02*
X000725Y026012D01*
X000725Y026110D02*
X000857Y026110D01*
X000898Y026209D02*
X000725Y026209D01*
X000725Y026307D02*
X000984Y026307D01*
X000725Y026406D02*
X010295Y026406D01*
X010312Y026307D02*
X002516Y026307D01*
X002602Y026209D02*
X010381Y026209D01*
X010317Y026504D02*
X007473Y026504D01*
X007451Y026495D02*
X007544Y026534D01*
X007616Y026606D01*
X007655Y026699D01*
X007655Y026801D01*
X007616Y026894D01*
X007544Y026966D01*
X007451Y027005D01*
X007349Y027005D01*
X007256Y026966D01*
X007184Y026894D01*
X007145Y026801D01*
X007145Y026699D01*
X007184Y026606D01*
X007256Y026534D01*
X007349Y026495D01*
X007451Y026495D01*
X007327Y026504D02*
X000725Y026504D01*
X000725Y026603D02*
X001150Y026603D01*
X001169Y026595D02*
X001331Y026595D01*
X001480Y026656D01*
X001594Y026770D01*
X001655Y026919D01*
X001655Y027081D01*
X001594Y027230D01*
X001480Y027344D01*
X001331Y027405D01*
X001169Y027405D01*
X001020Y027344D01*
X000906Y027230D01*
X000845Y027081D01*
X000845Y026919D01*
X000906Y026770D01*
X001020Y026656D01*
X001169Y026595D01*
X001350Y026603D02*
X002150Y026603D01*
X002169Y026595D02*
X002331Y026595D01*
X002480Y026656D01*
X002594Y026770D01*
X002655Y026919D01*
X002655Y027081D01*
X002594Y027230D01*
X002480Y027344D01*
X002331Y027405D01*
X002169Y027405D01*
X002020Y027344D01*
X001906Y027230D01*
X001845Y027081D01*
X001845Y026919D01*
X001906Y026770D01*
X002020Y026656D01*
X002169Y026595D01*
X002350Y026603D02*
X007187Y026603D01*
X007145Y026701D02*
X002524Y026701D01*
X002606Y026800D02*
X007145Y026800D01*
X007187Y026898D02*
X002646Y026898D01*
X002655Y026997D02*
X004095Y026997D01*
X004099Y026995D02*
X004201Y026995D01*
X004294Y027034D01*
X004366Y027106D01*
X004405Y027199D01*
X004405Y027301D01*
X004366Y027394D01*
X004294Y027466D01*
X004201Y027505D01*
X004099Y027505D01*
X004006Y027466D01*
X003934Y027394D01*
X003895Y027301D01*
X003895Y027199D01*
X003934Y027106D01*
X004006Y027034D01*
X004099Y026995D01*
X004205Y026997D02*
X007329Y026997D01*
X007471Y026997D02*
X008095Y026997D01*
X008099Y026995D02*
X008201Y026995D01*
X008294Y027034D01*
X008366Y027106D01*
X008405Y027199D01*
X008405Y027301D01*
X008366Y027394D01*
X008294Y027466D01*
X008201Y027505D01*
X008099Y027505D01*
X008006Y027466D01*
X007934Y027394D01*
X007895Y027301D01*
X007895Y027199D01*
X007934Y027106D01*
X008006Y027034D01*
X008099Y026995D01*
X008205Y026997D02*
X012145Y026997D01*
X012149Y026995D02*
X012251Y026995D01*
X012344Y027034D01*
X012416Y027106D01*
X012455Y027199D01*
X012455Y027301D01*
X012416Y027394D01*
X012344Y027466D01*
X012251Y027505D01*
X012149Y027505D01*
X012056Y027466D01*
X011984Y027394D01*
X011945Y027301D01*
X011945Y027199D01*
X011984Y027106D01*
X012056Y027034D01*
X012149Y026995D01*
X012255Y026997D02*
X014543Y026997D01*
X014534Y027006D02*
X014606Y026934D01*
X014699Y026895D01*
X014801Y026895D01*
X014894Y026934D01*
X014966Y027006D01*
X015005Y027099D01*
X015005Y027201D01*
X014966Y027294D01*
X014894Y027366D01*
X014801Y027405D01*
X014699Y027405D01*
X014606Y027366D01*
X014534Y027294D01*
X014495Y027201D01*
X014495Y027099D01*
X014534Y027006D01*
X014497Y027095D02*
X012406Y027095D01*
X012453Y027194D02*
X014495Y027194D01*
X014533Y027292D02*
X012455Y027292D01*
X012418Y027391D02*
X014664Y027391D01*
X014836Y027391D02*
X015649Y027391D01*
X015656Y027384D02*
X015749Y027345D01*
X015851Y027345D01*
X015944Y027384D01*
X016016Y027456D01*
X016055Y027549D01*
X016055Y027651D01*
X016016Y027744D01*
X015944Y027816D01*
X015851Y027855D01*
X015749Y027855D01*
X015656Y027816D01*
X015584Y027744D01*
X015545Y027651D01*
X015545Y027549D01*
X015584Y027456D01*
X015656Y027384D01*
X015570Y027489D02*
X012289Y027489D01*
X012111Y027489D02*
X011950Y027489D01*
X011966Y027506D02*
X012005Y027599D01*
X012005Y027701D01*
X011966Y027794D01*
X011894Y027866D01*
X011801Y027905D01*
X011699Y027905D01*
X011606Y027866D01*
X011534Y027794D01*
X011495Y027701D01*
X011495Y027599D01*
X011534Y027506D01*
X011606Y027434D01*
X011699Y027395D01*
X011801Y027395D01*
X011894Y027434D01*
X011966Y027506D01*
X012000Y027588D02*
X015545Y027588D01*
X015560Y027686D02*
X012005Y027686D01*
X011970Y027785D02*
X015624Y027785D01*
X015951Y027391D02*
X020134Y027391D01*
X019969Y027292D02*
X016419Y027292D01*
X016394Y027316D02*
X016466Y027244D01*
X016505Y027151D01*
X016505Y027049D01*
X016466Y026956D01*
X016394Y026884D01*
X016301Y026845D01*
X016199Y026845D01*
X016106Y026884D01*
X016034Y026956D01*
X015995Y027049D01*
X015995Y027151D01*
X016034Y027244D01*
X016106Y027316D01*
X016199Y027355D01*
X016301Y027355D01*
X016394Y027316D01*
X016487Y027194D02*
X019892Y027194D01*
X019851Y027095D02*
X016505Y027095D01*
X016483Y026997D02*
X019845Y026997D01*
X019854Y026898D02*
X016409Y026898D01*
X016091Y026898D02*
X014808Y026898D01*
X014692Y026898D02*
X007613Y026898D01*
X007655Y026800D02*
X019894Y026800D01*
X019976Y026701D02*
X007655Y026701D01*
X007613Y026603D02*
X010392Y026603D01*
X009949Y026012D02*
X015151Y026012D01*
X015071Y025913D02*
X010000Y025913D01*
X009551Y026012D02*
X002655Y026012D01*
X002643Y026110D02*
X019857Y026110D01*
X019845Y026012D02*
X015449Y026012D01*
X015529Y025913D02*
X019847Y025913D01*
X019888Y025815D02*
X015555Y025815D01*
X015541Y025716D02*
X019961Y025716D01*
X020114Y025618D02*
X015478Y025618D01*
X015122Y025618D02*
X012141Y025618D01*
X011859Y025618D02*
X010777Y025618D01*
X010805Y025519D02*
X011773Y025519D01*
X011745Y025421D02*
X010793Y025421D01*
X010733Y025322D02*
X011756Y025322D01*
X011816Y025224D02*
X010587Y025224D01*
X009500Y025913D02*
X002653Y025913D01*
X001961Y025716D02*
X001539Y025716D01*
X001612Y025815D02*
X001888Y025815D01*
X001847Y025913D02*
X001653Y025913D01*
X001655Y026012D02*
X001845Y026012D01*
X001857Y026110D02*
X001643Y026110D01*
X001602Y026209D02*
X001898Y026209D01*
X001984Y026307D02*
X001516Y026307D01*
X001524Y026701D02*
X001976Y026701D01*
X001894Y026800D02*
X001606Y026800D01*
X001646Y026898D02*
X001854Y026898D01*
X001845Y026997D02*
X001655Y026997D01*
X001649Y027095D02*
X001851Y027095D01*
X001892Y027194D02*
X001608Y027194D01*
X001531Y027292D02*
X001969Y027292D01*
X002134Y027391D02*
X001366Y027391D01*
X001331Y027595D02*
X001480Y027656D01*
X001594Y027770D01*
X001655Y027919D01*
X001655Y028081D01*
X001594Y028230D01*
X001480Y028344D01*
X001331Y028405D01*
X001169Y028405D01*
X001020Y028344D01*
X000906Y028230D01*
X000845Y028081D01*
X000845Y027919D01*
X000906Y027770D01*
X001020Y027656D01*
X001169Y027595D01*
X001331Y027595D01*
X001509Y027686D02*
X001991Y027686D01*
X002020Y027656D02*
X001906Y027770D01*
X001845Y027919D01*
X001845Y028081D01*
X001906Y028230D01*
X002020Y028344D01*
X002169Y028405D01*
X002331Y028405D01*
X002480Y028344D01*
X002594Y028230D01*
X002655Y028081D01*
X002655Y027919D01*
X002594Y027770D01*
X002480Y027656D01*
X002331Y027595D01*
X002169Y027595D01*
X002020Y027656D01*
X001901Y027785D02*
X001599Y027785D01*
X001640Y027883D02*
X001860Y027883D01*
X001845Y027982D02*
X001655Y027982D01*
X001655Y028080D02*
X001845Y028080D01*
X001885Y028179D02*
X001615Y028179D01*
X001546Y028277D02*
X001954Y028277D01*
X002098Y028376D02*
X001402Y028376D01*
X001331Y028595D02*
X001480Y028656D01*
X001594Y028770D01*
X001655Y028919D01*
X001655Y029081D01*
X001594Y029230D01*
X001480Y029344D01*
X001331Y029405D01*
X001169Y029405D01*
X001020Y029344D01*
X000906Y029230D01*
X000845Y029081D01*
X000845Y028919D01*
X000906Y028770D01*
X001020Y028656D01*
X001169Y028595D01*
X001331Y028595D01*
X001494Y028671D02*
X002006Y028671D01*
X002020Y028656D02*
X002169Y028595D01*
X002331Y028595D01*
X002480Y028656D01*
X002594Y028770D01*
X002655Y028919D01*
X002655Y029081D01*
X002594Y029230D01*
X002480Y029344D01*
X002331Y029405D01*
X002169Y029405D01*
X002020Y029344D01*
X001906Y029230D01*
X001845Y029081D01*
X001845Y028919D01*
X001906Y028770D01*
X002020Y028656D01*
X001907Y028770D02*
X001593Y028770D01*
X001634Y028868D02*
X001866Y028868D01*
X001845Y028967D02*
X001655Y028967D01*
X001655Y029065D02*
X001845Y029065D01*
X001879Y029164D02*
X001621Y029164D01*
X001561Y029262D02*
X001939Y029262D01*
X002061Y029361D02*
X001439Y029361D01*
X001331Y029595D02*
X001480Y029656D01*
X001594Y029770D01*
X001655Y029919D01*
X001655Y030081D01*
X001594Y030230D01*
X001480Y030344D01*
X001331Y030405D01*
X001169Y030405D01*
X001020Y030344D01*
X000906Y030230D01*
X000845Y030081D01*
X000845Y029919D01*
X000906Y029770D01*
X001020Y029656D01*
X001169Y029595D01*
X001331Y029595D01*
X001479Y029656D02*
X002021Y029656D01*
X002020Y029656D02*
X002169Y029595D01*
X002331Y029595D01*
X002480Y029656D01*
X002594Y029770D01*
X002655Y029919D01*
X002655Y030081D01*
X002594Y030230D01*
X002480Y030344D01*
X002331Y030405D01*
X002169Y030405D01*
X002020Y030344D01*
X001906Y030230D01*
X001845Y030081D01*
X001845Y029919D01*
X001906Y029770D01*
X002020Y029656D01*
X001922Y029755D02*
X001578Y029755D01*
X001628Y029853D02*
X001872Y029853D01*
X001845Y029952D02*
X001655Y029952D01*
X001655Y030050D02*
X001845Y030050D01*
X001873Y030149D02*
X001627Y030149D01*
X001576Y030247D02*
X001924Y030247D01*
X002025Y030346D02*
X001475Y030346D01*
X001025Y030346D02*
X000814Y030346D01*
X000830Y030444D02*
X011184Y030444D01*
X011145Y030351D01*
X011145Y030249D01*
X011184Y030156D01*
X011256Y030084D01*
X011349Y030045D01*
X011451Y030045D01*
X011544Y030084D01*
X011616Y030156D01*
X011655Y030249D01*
X011655Y030351D01*
X011616Y030444D01*
X014673Y030444D01*
X014699Y030455D02*
X014606Y030416D01*
X014534Y030344D01*
X014495Y030251D01*
X014495Y030149D01*
X014534Y030056D01*
X014606Y029984D01*
X014699Y029945D01*
X014801Y029945D01*
X014894Y029984D01*
X014966Y030056D01*
X015005Y030149D01*
X015005Y030251D01*
X014966Y030344D01*
X014894Y030416D01*
X014801Y030455D01*
X014699Y030455D01*
X014827Y030444D02*
X015234Y030444D01*
X015195Y030351D01*
X015195Y030249D01*
X015234Y030156D01*
X015306Y030084D01*
X015399Y030045D01*
X015501Y030045D01*
X015594Y030084D01*
X015666Y030156D01*
X015705Y030249D01*
X015705Y030351D01*
X015666Y030444D01*
X021670Y030444D01*
X021686Y030346D02*
X021475Y030346D01*
X021480Y030344D02*
X021331Y030405D01*
X021169Y030405D01*
X021020Y030344D01*
X020906Y030230D01*
X020845Y030081D01*
X020845Y029919D01*
X020906Y029770D01*
X021020Y029656D01*
X021169Y029595D01*
X021331Y029595D01*
X021480Y029656D01*
X021594Y029770D01*
X021655Y029919D01*
X021655Y030081D01*
X021594Y030230D01*
X021480Y030344D01*
X021576Y030247D02*
X021701Y030247D01*
X021717Y030149D02*
X021627Y030149D01*
X021655Y030050D02*
X021732Y030050D01*
X021748Y029952D02*
X021655Y029952D01*
X021628Y029853D02*
X021761Y029853D01*
X021765Y029755D02*
X021578Y029755D01*
X021479Y029656D02*
X021769Y029656D01*
X021773Y029558D02*
X018155Y029558D01*
X018155Y029601D02*
X018116Y029694D01*
X018044Y029766D01*
X017951Y029805D01*
X017849Y029805D01*
X017756Y029766D01*
X017684Y029694D01*
X017645Y029601D01*
X017645Y029499D01*
X017684Y029406D01*
X017756Y029334D01*
X017803Y029314D01*
X017784Y029294D01*
X017745Y029201D01*
X017745Y029099D01*
X017784Y029006D01*
X017856Y028934D01*
X017949Y028895D01*
X018051Y028895D01*
X018144Y028934D01*
X018216Y029006D01*
X018255Y029099D01*
X018255Y029201D01*
X018216Y029294D01*
X018144Y029366D01*
X018097Y029386D01*
X018116Y029406D01*
X018155Y029499D01*
X018155Y029601D01*
X018132Y029656D02*
X020021Y029656D01*
X020020Y029656D02*
X020169Y029595D01*
X020331Y029595D01*
X020480Y029656D01*
X020594Y029770D01*
X020655Y029919D01*
X020655Y030081D01*
X020594Y030230D01*
X020480Y030344D01*
X020331Y030405D01*
X020169Y030405D01*
X020020Y030344D01*
X019906Y030230D01*
X019845Y030081D01*
X019845Y029919D01*
X019906Y029770D01*
X020020Y029656D01*
X019922Y029755D02*
X018056Y029755D01*
X018138Y029459D02*
X021775Y029459D01*
X021775Y029361D02*
X021439Y029361D01*
X021480Y029344D02*
X021331Y029405D01*
X021169Y029405D01*
X021020Y029344D01*
X020906Y029230D01*
X020845Y029081D01*
X020845Y028919D01*
X020906Y028770D01*
X021020Y028656D01*
X021169Y028595D01*
X021331Y028595D01*
X021480Y028656D01*
X021594Y028770D01*
X021655Y028919D01*
X021655Y029081D01*
X021594Y029230D01*
X021480Y029344D01*
X021561Y029262D02*
X021775Y029262D01*
X021775Y029164D02*
X021621Y029164D01*
X021655Y029065D02*
X021775Y029065D01*
X021775Y028967D02*
X021655Y028967D01*
X021634Y028868D02*
X021775Y028868D01*
X021775Y028770D02*
X021593Y028770D01*
X021494Y028671D02*
X021775Y028671D01*
X021775Y028573D02*
X018723Y028573D01*
X018716Y028556D02*
X018755Y028649D01*
X018755Y028751D01*
X018716Y028844D01*
X018644Y028916D01*
X018551Y028955D01*
X018449Y028955D01*
X018356Y028916D01*
X018284Y028844D01*
X018245Y028751D01*
X018245Y028649D01*
X018284Y028556D01*
X018356Y028484D01*
X018449Y028445D01*
X018551Y028445D01*
X018644Y028484D01*
X018716Y028556D01*
X018755Y028671D02*
X020006Y028671D01*
X020020Y028656D02*
X020169Y028595D01*
X020331Y028595D01*
X020480Y028656D01*
X020594Y028770D01*
X020655Y028919D01*
X020655Y029081D01*
X020594Y029230D01*
X020480Y029344D01*
X020331Y029405D01*
X020169Y029405D01*
X020020Y029344D01*
X019906Y029230D01*
X019845Y029081D01*
X019845Y028919D01*
X019906Y028770D01*
X020020Y028656D01*
X019907Y028770D02*
X018747Y028770D01*
X018693Y028868D02*
X019866Y028868D01*
X019845Y028967D02*
X018177Y028967D01*
X018241Y029065D02*
X019845Y029065D01*
X019879Y029164D02*
X018255Y029164D01*
X018230Y029262D02*
X019939Y029262D01*
X020061Y029361D02*
X018150Y029361D01*
X017770Y029262D02*
X015980Y029262D01*
X015966Y029294D02*
X016005Y029201D01*
X016005Y029099D01*
X015966Y029006D01*
X015894Y028934D01*
X015801Y028895D01*
X015699Y028895D01*
X015606Y028934D01*
X015534Y029006D01*
X015495Y029099D01*
X015495Y029201D01*
X015534Y029294D01*
X015606Y029366D01*
X015699Y029405D01*
X015801Y029405D01*
X015894Y029366D01*
X015966Y029294D01*
X015900Y029361D02*
X017729Y029361D01*
X017662Y029459D02*
X014118Y029459D01*
X014116Y029456D02*
X014155Y029549D01*
X014155Y029651D01*
X014116Y029744D01*
X014044Y029816D01*
X013951Y029855D01*
X013849Y029855D01*
X013756Y029816D01*
X013684Y029744D01*
X013645Y029651D01*
X013645Y029549D01*
X013684Y029456D01*
X013756Y029384D01*
X013803Y029364D01*
X013734Y029294D01*
X013695Y029201D01*
X013695Y029099D01*
X013734Y029006D01*
X013806Y028934D01*
X013899Y028895D01*
X014001Y028895D01*
X014094Y028934D01*
X014166Y029006D01*
X014205Y029099D01*
X014205Y029201D01*
X014166Y029294D01*
X014094Y029366D01*
X014047Y029386D01*
X014116Y029456D01*
X014100Y029361D02*
X015600Y029361D01*
X015520Y029262D02*
X014180Y029262D01*
X014205Y029164D02*
X015495Y029164D01*
X015509Y029065D02*
X014191Y029065D01*
X014127Y028967D02*
X015573Y028967D01*
X015927Y028967D02*
X016057Y028967D01*
X016056Y028966D02*
X015984Y028894D01*
X015945Y028801D01*
X015945Y028699D01*
X015984Y028606D01*
X016056Y028534D01*
X016149Y028495D01*
X016251Y028495D01*
X016344Y028534D01*
X016416Y028606D01*
X016455Y028699D01*
X016455Y028801D01*
X016416Y028894D01*
X016344Y028966D01*
X016251Y029005D01*
X016149Y029005D01*
X016056Y028966D01*
X015991Y029065D02*
X017759Y029065D01*
X017745Y029164D02*
X016005Y029164D01*
X015973Y028868D02*
X014643Y028868D01*
X014666Y028844D02*
X014594Y028916D01*
X014501Y028955D01*
X014399Y028955D01*
X014306Y028916D01*
X014234Y028844D01*
X014195Y028751D01*
X014195Y028649D01*
X014234Y028556D01*
X014306Y028484D01*
X014399Y028445D01*
X014501Y028445D01*
X014594Y028484D01*
X014666Y028556D01*
X014705Y028649D01*
X014705Y028751D01*
X014666Y028844D01*
X014697Y028770D02*
X015945Y028770D01*
X015957Y028671D02*
X014705Y028671D01*
X014673Y028573D02*
X016017Y028573D01*
X016383Y028573D02*
X018277Y028573D01*
X018245Y028671D02*
X016443Y028671D01*
X016455Y028770D02*
X018253Y028770D01*
X018307Y028868D02*
X016427Y028868D01*
X016343Y028967D02*
X017823Y028967D01*
X017645Y029558D02*
X014155Y029558D01*
X014153Y029656D02*
X017668Y029656D01*
X017744Y029755D02*
X014106Y029755D01*
X013955Y029853D02*
X019872Y029853D01*
X019845Y029952D02*
X014817Y029952D01*
X014683Y029952D02*
X007159Y029952D01*
X007166Y029944D02*
X007094Y030016D01*
X007001Y030055D01*
X006899Y030055D01*
X006806Y030016D01*
X006734Y029944D01*
X006695Y029851D01*
X006695Y029749D01*
X006734Y029656D01*
X002479Y029656D01*
X002578Y029755D02*
X006695Y029755D01*
X006696Y029853D02*
X002628Y029853D01*
X002655Y029952D02*
X006741Y029952D01*
X006887Y030050D02*
X002655Y030050D01*
X002627Y030149D02*
X011191Y030149D01*
X011146Y030247D02*
X002576Y030247D01*
X002475Y030346D02*
X011145Y030346D01*
X011184Y030444D02*
X011256Y030516D01*
X011349Y030555D01*
X011451Y030555D01*
X011544Y030516D01*
X011616Y030444D01*
X011655Y030346D02*
X014535Y030346D01*
X014495Y030247D02*
X011654Y030247D01*
X011609Y030149D02*
X014495Y030149D01*
X014539Y030050D02*
X011463Y030050D01*
X011337Y030050D02*
X007013Y030050D01*
X007166Y029944D02*
X007205Y029851D01*
X007205Y029749D01*
X007166Y029656D01*
X013647Y029656D01*
X013645Y029558D02*
X007031Y029558D01*
X007001Y029545D02*
X007094Y029584D01*
X007166Y029656D01*
X007205Y029755D02*
X013694Y029755D01*
X013845Y029853D02*
X007204Y029853D01*
X007001Y029545D02*
X006899Y029545D01*
X006806Y029584D01*
X006734Y029656D01*
X006751Y029505D02*
X006649Y029505D01*
X006556Y029466D01*
X006484Y029394D01*
X006445Y029301D01*
X006445Y029199D01*
X006484Y029106D01*
X006556Y029034D01*
X006649Y028995D01*
X006751Y028995D01*
X006844Y029034D01*
X006916Y029106D01*
X006955Y029199D01*
X006955Y029301D01*
X006916Y029394D01*
X006844Y029466D01*
X006751Y029505D01*
X006852Y029459D02*
X010598Y029459D01*
X010606Y029466D02*
X010534Y029394D01*
X010495Y029301D01*
X010495Y029199D01*
X010534Y029106D01*
X010606Y029034D01*
X010699Y028995D01*
X010801Y028995D01*
X010894Y029034D01*
X010966Y029106D01*
X011005Y029199D01*
X011005Y029301D01*
X010966Y029394D01*
X010894Y029466D01*
X010801Y029505D01*
X010699Y029505D01*
X010606Y029466D01*
X010520Y029361D02*
X010100Y029361D01*
X010094Y029366D02*
X010001Y029405D01*
X009899Y029405D01*
X009806Y029366D01*
X009734Y029294D01*
X009695Y029201D01*
X009695Y029099D01*
X009734Y029006D01*
X009806Y028934D01*
X009899Y028895D01*
X010001Y028895D01*
X010094Y028934D01*
X010166Y029006D01*
X010205Y029099D01*
X010205Y029201D01*
X010166Y029294D01*
X010094Y029366D01*
X010180Y029262D02*
X010495Y029262D01*
X010510Y029164D02*
X010205Y029164D01*
X010191Y029065D02*
X010574Y029065D01*
X010544Y028916D02*
X010451Y028955D01*
X010349Y028955D01*
X010256Y028916D01*
X010184Y028844D01*
X010145Y028751D01*
X010145Y028649D01*
X010184Y028556D01*
X010256Y028484D01*
X010349Y028445D01*
X010451Y028445D01*
X010544Y028484D01*
X010616Y028556D01*
X010655Y028649D01*
X010655Y028751D01*
X010616Y028844D01*
X010544Y028916D01*
X010593Y028868D02*
X011923Y028868D01*
X011934Y028894D02*
X011895Y028801D01*
X011895Y028699D01*
X011934Y028606D01*
X012006Y028534D01*
X012099Y028495D01*
X012201Y028495D01*
X012294Y028534D01*
X012366Y028606D01*
X012405Y028699D01*
X012405Y028801D01*
X012366Y028894D01*
X012294Y028966D01*
X012201Y029005D01*
X012099Y029005D01*
X012006Y028966D01*
X011934Y028894D01*
X012007Y028967D02*
X010127Y028967D01*
X010207Y028868D02*
X008327Y028868D01*
X008316Y028894D02*
X008244Y028966D01*
X008151Y029005D01*
X008049Y029005D01*
X007956Y028966D01*
X007884Y028894D01*
X007845Y028801D01*
X007845Y028699D01*
X007884Y028606D01*
X007956Y028534D01*
X008049Y028495D01*
X008151Y028495D01*
X008244Y028534D01*
X008316Y028606D01*
X008355Y028699D01*
X008355Y028801D01*
X008316Y028894D01*
X008243Y028967D02*
X009773Y028967D01*
X009709Y029065D02*
X006876Y029065D01*
X006940Y029164D02*
X009695Y029164D01*
X009720Y029262D02*
X006955Y029262D01*
X006930Y029361D02*
X009800Y029361D01*
X010153Y028770D02*
X008355Y028770D01*
X008343Y028671D02*
X010145Y028671D01*
X010177Y028573D02*
X008283Y028573D01*
X007917Y028573D02*
X006573Y028573D01*
X006566Y028556D02*
X006605Y028649D01*
X006605Y028751D01*
X006566Y028844D01*
X006494Y028916D01*
X006401Y028955D01*
X006299Y028955D01*
X006206Y028916D01*
X006134Y028844D01*
X006095Y028751D01*
X006095Y028649D01*
X006134Y028556D01*
X006206Y028484D01*
X006299Y028445D01*
X006401Y028445D01*
X006494Y028484D01*
X006566Y028556D01*
X006605Y028671D02*
X007857Y028671D01*
X007845Y028770D02*
X006597Y028770D01*
X006543Y028868D02*
X007873Y028868D01*
X007957Y028967D02*
X006077Y028967D01*
X006044Y028934D02*
X006116Y029006D01*
X006155Y029099D01*
X006155Y029201D01*
X006116Y029294D01*
X006044Y029366D01*
X005951Y029405D01*
X005849Y029405D01*
X005756Y029366D01*
X005684Y029294D01*
X005645Y029201D01*
X005645Y029099D01*
X005684Y029006D01*
X005756Y028934D01*
X005849Y028895D01*
X005951Y028895D01*
X006044Y028934D01*
X006157Y028868D02*
X002634Y028868D01*
X002655Y028967D02*
X005723Y028967D01*
X005659Y029065D02*
X003099Y029065D01*
X003144Y029084D02*
X003051Y029045D01*
X002949Y029045D01*
X002856Y029084D01*
X002784Y029156D01*
X002745Y029249D01*
X002745Y029351D01*
X002784Y029444D01*
X002856Y029516D01*
X002949Y029555D01*
X003051Y029555D01*
X003144Y029516D01*
X003216Y029444D01*
X003255Y029351D01*
X003255Y029249D01*
X003216Y029156D01*
X003144Y029084D01*
X003219Y029164D02*
X005645Y029164D01*
X005670Y029262D02*
X003255Y029262D01*
X003251Y029361D02*
X005750Y029361D01*
X006050Y029361D02*
X006470Y029361D01*
X006445Y029262D02*
X006130Y029262D01*
X006155Y029164D02*
X006460Y029164D01*
X006524Y029065D02*
X006141Y029065D01*
X006103Y028770D02*
X002593Y028770D01*
X002494Y028671D02*
X006095Y028671D01*
X006127Y028573D02*
X000725Y028573D01*
X000725Y028671D02*
X001006Y028671D01*
X000907Y028770D02*
X000725Y028770D01*
X000725Y028868D02*
X000866Y028868D01*
X000845Y028967D02*
X000725Y028967D01*
X000725Y029065D02*
X000845Y029065D01*
X000879Y029164D02*
X000725Y029164D01*
X000725Y029262D02*
X000939Y029262D01*
X001061Y029361D02*
X000725Y029361D01*
X000725Y029459D02*
X002798Y029459D01*
X002749Y029361D02*
X002439Y029361D01*
X002561Y029262D02*
X002745Y029262D01*
X002780Y029164D02*
X002621Y029164D01*
X002655Y029065D02*
X002901Y029065D01*
X003202Y029459D02*
X006548Y029459D01*
X006869Y029558D02*
X000727Y029558D01*
X000731Y029656D02*
X001021Y029656D01*
X000922Y029755D02*
X000735Y029755D01*
X000739Y029853D02*
X000872Y029853D01*
X000845Y029952D02*
X000752Y029952D01*
X000768Y030050D02*
X000845Y030050D01*
X000873Y030149D02*
X000783Y030149D01*
X000799Y030247D02*
X000924Y030247D01*
X000846Y030543D02*
X011319Y030543D01*
X011481Y030543D02*
X015369Y030543D01*
X015399Y030555D02*
X015306Y030516D01*
X015234Y030444D01*
X015195Y030346D02*
X014965Y030346D01*
X015005Y030247D02*
X015196Y030247D01*
X015241Y030149D02*
X015005Y030149D01*
X014961Y030050D02*
X015387Y030050D01*
X015513Y030050D02*
X019845Y030050D01*
X019873Y030149D02*
X015659Y030149D01*
X015704Y030247D02*
X019924Y030247D01*
X020025Y030346D02*
X015705Y030346D01*
X015666Y030444D02*
X015594Y030516D01*
X015501Y030555D01*
X015399Y030555D01*
X015531Y030543D02*
X021654Y030543D01*
X021634Y030641D02*
X000866Y030641D01*
X000898Y030740D02*
X005630Y030740D01*
X005607Y030757D02*
X005664Y030715D01*
X005727Y030683D01*
X005795Y030661D01*
X005850Y030652D01*
X005850Y031050D01*
X005950Y031050D01*
X005950Y031150D01*
X006348Y031150D01*
X006339Y031205D01*
X006317Y031273D01*
X006285Y031336D01*
X006243Y031393D01*
X006193Y031443D01*
X006136Y031485D01*
X006073Y031517D01*
X006005Y031539D01*
X005950Y031548D01*
X005950Y031150D01*
X005850Y031150D01*
X005850Y031548D01*
X005795Y031539D01*
X005727Y031517D01*
X005664Y031485D01*
X005607Y031443D01*
X005557Y031393D01*
X005515Y031336D01*
X005483Y031273D01*
X005461Y031205D01*
X005452Y031150D01*
X005850Y031150D01*
X005850Y031050D01*
X005452Y031050D01*
X005461Y030995D01*
X005483Y030927D01*
X005515Y030864D01*
X005557Y030807D01*
X005607Y030757D01*
X005534Y030838D02*
X000930Y030838D01*
X000962Y030937D02*
X001821Y030937D01*
X001787Y030956D02*
X001861Y030914D01*
X001940Y030881D01*
X002022Y030859D01*
X002100Y030848D01*
X002100Y031450D01*
X002200Y031450D01*
X002200Y031550D01*
X002802Y031550D01*
X002791Y031628D01*
X002769Y031710D01*
X002736Y031789D01*
X002694Y031863D01*
X002642Y031931D01*
X002581Y031992D01*
X002513Y032044D01*
X002439Y032086D01*
X002360Y032119D01*
X002278Y032141D01*
X002200Y032152D01*
X002200Y031550D01*
X002100Y031550D01*
X002100Y032152D01*
X002022Y032141D01*
X001940Y032119D01*
X001861Y032086D01*
X001787Y032044D01*
X001719Y031992D01*
X001658Y031931D01*
X001606Y031863D01*
X001564Y031789D01*
X001531Y031710D01*
X001509Y031628D01*
X001498Y031550D01*
X002100Y031550D01*
X002100Y031450D01*
X001498Y031450D01*
X001509Y031372D01*
X001531Y031290D01*
X001564Y031211D01*
X001606Y031137D01*
X001658Y031069D01*
X001719Y031008D01*
X001787Y030956D01*
X001692Y031035D02*
X000994Y031035D01*
X001026Y031134D02*
X001609Y031134D01*
X001555Y031232D02*
X001058Y031232D01*
X001090Y031331D02*
X001520Y031331D01*
X001501Y031429D02*
X001140Y031429D01*
X001191Y031528D02*
X002100Y031528D01*
X002100Y031626D02*
X002200Y031626D01*
X002200Y031528D02*
X005760Y031528D01*
X005850Y031528D02*
X005950Y031528D01*
X006040Y031528D02*
X011567Y031528D01*
X011534Y031494D02*
X011606Y031566D01*
X011699Y031605D01*
X011801Y031605D01*
X011894Y031566D01*
X011966Y031494D01*
X012005Y031401D01*
X012005Y031299D01*
X011966Y031206D01*
X011894Y031134D01*
X012098Y031134D01*
X012056Y031116D02*
X011984Y031044D01*
X011945Y030951D01*
X011945Y030849D01*
X011984Y030756D01*
X012056Y030684D01*
X012149Y030645D01*
X012251Y030645D01*
X012344Y030684D01*
X012416Y030756D01*
X012455Y030849D01*
X012455Y030951D01*
X012416Y031044D01*
X012344Y031116D01*
X012251Y031155D01*
X012149Y031155D01*
X012056Y031116D01*
X011980Y031035D02*
X010310Y031035D01*
X010310Y031018D02*
X010248Y030868D01*
X010132Y030752D01*
X009982Y030690D01*
X009818Y030690D01*
X009668Y030752D01*
X009552Y030868D01*
X009490Y031018D01*
X009490Y031182D01*
X009552Y031332D01*
X009668Y031448D01*
X009818Y031510D01*
X009982Y031510D01*
X010132Y031448D01*
X010248Y031332D01*
X010310Y031182D01*
X010310Y031018D01*
X010276Y030937D02*
X011945Y030937D01*
X011950Y030838D02*
X010218Y030838D01*
X010101Y030740D02*
X012000Y030740D01*
X012400Y030740D02*
X016050Y030740D01*
X016034Y030756D02*
X016106Y030684D01*
X016199Y030645D01*
X016301Y030645D01*
X016394Y030684D01*
X016466Y030756D01*
X016505Y030849D01*
X016505Y030951D01*
X016466Y031044D01*
X016394Y031116D01*
X016301Y031155D01*
X016199Y031155D01*
X016106Y031116D01*
X016034Y031044D01*
X015995Y030951D01*
X015995Y030849D01*
X016034Y030756D01*
X016000Y030838D02*
X012450Y030838D01*
X012455Y030937D02*
X015995Y030937D01*
X016030Y031035D02*
X014946Y031035D01*
X014966Y031056D02*
X015005Y031149D01*
X015005Y031251D01*
X014966Y031344D01*
X014894Y031416D01*
X014801Y031455D01*
X014699Y031455D01*
X014606Y031416D01*
X014534Y031344D01*
X014495Y031251D01*
X014495Y031149D01*
X014534Y031056D01*
X014606Y030984D01*
X014699Y030945D01*
X014801Y030945D01*
X014894Y030984D01*
X014966Y031056D01*
X014998Y031134D02*
X015606Y031134D01*
X015584Y031156D02*
X015656Y031084D01*
X015749Y031045D01*
X015851Y031045D01*
X015944Y031084D01*
X016016Y031156D01*
X016055Y031249D01*
X016055Y031351D01*
X016016Y031444D01*
X015944Y031516D01*
X015851Y031555D01*
X015749Y031555D01*
X015656Y031516D01*
X015584Y031444D01*
X015545Y031351D01*
X015545Y031249D01*
X015584Y031156D01*
X015552Y031232D02*
X015005Y031232D01*
X014972Y031331D02*
X015545Y031331D01*
X015577Y031429D02*
X014863Y031429D01*
X014637Y031429D02*
X011993Y031429D01*
X012005Y031331D02*
X014528Y031331D01*
X014495Y031232D02*
X011977Y031232D01*
X011894Y031134D02*
X011801Y031095D01*
X011699Y031095D01*
X011606Y031134D01*
X010310Y031134D01*
X010289Y031232D02*
X011523Y031232D01*
X011534Y031206D02*
X011606Y031134D01*
X011534Y031206D02*
X011495Y031299D01*
X011495Y031401D01*
X011534Y031494D01*
X011507Y031429D02*
X010151Y031429D01*
X010248Y031331D02*
X011495Y031331D01*
X011933Y031528D02*
X015683Y031528D01*
X015917Y031528D02*
X020350Y031528D01*
X020350Y031550D02*
X020350Y031450D01*
X020450Y031450D01*
X020450Y031550D01*
X021052Y031550D01*
X021041Y031628D01*
X021019Y031710D01*
X020986Y031789D01*
X020944Y031863D01*
X020892Y031931D01*
X020831Y031992D01*
X020763Y032044D01*
X020689Y032086D01*
X020610Y032119D01*
X020528Y032141D01*
X020450Y032152D01*
X020450Y031550D01*
X020350Y031550D01*
X020350Y032152D01*
X020272Y032141D01*
X020190Y032119D01*
X020111Y032086D01*
X020037Y032044D01*
X019969Y031992D01*
X019908Y031931D01*
X019856Y031863D01*
X019814Y031789D01*
X019781Y031710D01*
X019759Y031628D01*
X019748Y031550D01*
X020350Y031550D01*
X020350Y031626D02*
X020450Y031626D01*
X020450Y031528D02*
X021309Y031528D01*
X021259Y031626D02*
X021042Y031626D01*
X021013Y031725D02*
X021209Y031725D01*
X021159Y031823D02*
X020967Y031823D01*
X020899Y031922D02*
X021109Y031922D01*
X021053Y032020D02*
X020794Y032020D01*
X020612Y032119D02*
X020982Y032119D01*
X020910Y032217D02*
X018721Y032217D01*
X018716Y032206D02*
X018755Y032299D01*
X018755Y032401D01*
X018716Y032494D01*
X018644Y032566D01*
X018551Y032605D01*
X018449Y032605D01*
X018356Y032566D01*
X018284Y032494D01*
X018245Y032401D01*
X018245Y032299D01*
X018284Y032206D01*
X018356Y032134D01*
X018449Y032095D01*
X018551Y032095D01*
X018644Y032134D01*
X018716Y032206D01*
X018755Y032316D02*
X020838Y032316D01*
X020767Y032414D02*
X018749Y032414D01*
X018698Y032513D02*
X020695Y032513D01*
X020621Y032611D02*
X018222Y032611D01*
X018194Y032584D02*
X018266Y032656D01*
X018305Y032749D01*
X018305Y032851D01*
X018266Y032944D01*
X018194Y033016D01*
X018101Y033055D01*
X017999Y033055D01*
X017906Y033016D01*
X017834Y032944D01*
X017795Y032851D01*
X017795Y032749D01*
X017834Y032656D01*
X017906Y032584D01*
X017999Y032545D01*
X018101Y032545D01*
X018194Y032584D01*
X018302Y032513D02*
X016429Y032513D01*
X016416Y032544D02*
X016344Y032616D01*
X016251Y032655D01*
X016149Y032655D01*
X016056Y032616D01*
X015984Y032544D01*
X015945Y032451D01*
X015945Y032349D01*
X015984Y032256D01*
X016056Y032184D01*
X016149Y032145D01*
X016251Y032145D01*
X016344Y032184D01*
X016416Y032256D01*
X016455Y032349D01*
X016455Y032451D01*
X016416Y032544D01*
X016350Y032611D02*
X017878Y032611D01*
X017811Y032710D02*
X014968Y032710D01*
X014966Y032706D02*
X015005Y032799D01*
X015005Y032901D01*
X014966Y032994D01*
X014894Y033066D01*
X014801Y033105D01*
X014699Y033105D01*
X014606Y033066D01*
X014534Y032994D01*
X014495Y032901D01*
X014495Y032799D01*
X014534Y032706D01*
X014606Y032634D01*
X014699Y032595D01*
X014801Y032595D01*
X014894Y032634D01*
X014966Y032706D01*
X015005Y032808D02*
X017795Y032808D01*
X017818Y032907D02*
X015003Y032907D01*
X014956Y033005D02*
X017894Y033005D01*
X018206Y033005D02*
X020227Y033005D01*
X020325Y032907D02*
X018282Y032907D01*
X018305Y032808D02*
X020424Y032808D01*
X020522Y032710D02*
X018289Y032710D01*
X018251Y032414D02*
X016455Y032414D01*
X016441Y032316D02*
X018245Y032316D01*
X018279Y032217D02*
X016378Y032217D01*
X016022Y032217D02*
X014671Y032217D01*
X014666Y032206D02*
X014705Y032299D01*
X014705Y032401D01*
X014666Y032494D01*
X014594Y032566D01*
X014501Y032605D01*
X014399Y032605D01*
X014306Y032566D01*
X014234Y032494D01*
X014195Y032401D01*
X014195Y032299D01*
X014234Y032206D01*
X014306Y032134D01*
X014399Y032095D01*
X014501Y032095D01*
X014594Y032134D01*
X014666Y032206D01*
X014705Y032316D02*
X015959Y032316D01*
X015945Y032414D02*
X014699Y032414D01*
X014648Y032513D02*
X015971Y032513D01*
X016050Y032611D02*
X014840Y032611D01*
X014660Y032611D02*
X014172Y032611D01*
X014144Y032584D02*
X014216Y032656D01*
X014255Y032749D01*
X014255Y032851D01*
X014216Y032944D01*
X014144Y033016D01*
X014051Y033055D01*
X013949Y033055D01*
X013856Y033016D01*
X013784Y032944D01*
X013745Y032851D01*
X013745Y032749D01*
X013784Y032656D01*
X013856Y032584D01*
X013949Y032545D01*
X014051Y032545D01*
X014144Y032584D01*
X014252Y032513D02*
X012379Y032513D01*
X012366Y032544D02*
X012294Y032616D01*
X012201Y032655D01*
X012099Y032655D01*
X012006Y032616D01*
X011934Y032544D01*
X011895Y032451D01*
X011895Y032349D01*
X011934Y032256D01*
X012006Y032184D01*
X012099Y032145D01*
X012201Y032145D01*
X012294Y032184D01*
X012366Y032256D01*
X012405Y032349D01*
X012405Y032451D01*
X012366Y032544D01*
X012300Y032611D02*
X013828Y032611D01*
X013761Y032710D02*
X003912Y032710D01*
X003912Y032678D02*
X003819Y032453D01*
X003647Y032281D01*
X003422Y032188D01*
X003178Y032188D01*
X002953Y032281D01*
X002781Y032453D01*
X002688Y032678D01*
X002688Y032922D01*
X002781Y033147D01*
X002953Y033319D01*
X003178Y033412D01*
X003422Y033412D01*
X003647Y033319D01*
X003819Y033147D01*
X003912Y032922D01*
X003912Y032678D01*
X003885Y032611D02*
X012000Y032611D01*
X011921Y032513D02*
X006081Y032513D01*
X006073Y032517D02*
X006005Y032539D01*
X005950Y032548D01*
X005950Y032150D01*
X006348Y032150D01*
X006339Y032205D01*
X006317Y032273D01*
X006285Y032336D01*
X006243Y032393D01*
X006193Y032443D01*
X006136Y032485D01*
X006073Y032517D01*
X005950Y032513D02*
X005850Y032513D01*
X005850Y032548D02*
X005795Y032539D01*
X005727Y032517D01*
X005664Y032485D01*
X005607Y032443D01*
X005557Y032393D01*
X005515Y032336D01*
X005483Y032273D01*
X005461Y032205D01*
X005452Y032150D01*
X005850Y032150D01*
X005850Y032548D01*
X005850Y032414D02*
X005950Y032414D01*
X005950Y032316D02*
X005850Y032316D01*
X005850Y032217D02*
X005950Y032217D01*
X005950Y032150D02*
X005850Y032150D01*
X005850Y032050D01*
X005950Y032050D01*
X005950Y032150D01*
X005950Y032119D02*
X006490Y032119D01*
X006490Y032182D02*
X006490Y032018D01*
X006552Y031868D01*
X006668Y031752D01*
X006818Y031690D01*
X006982Y031690D01*
X007132Y031752D01*
X007248Y031868D01*
X007310Y032018D01*
X007310Y032182D01*
X007248Y032332D01*
X007132Y032448D01*
X006982Y032510D01*
X006818Y032510D01*
X006668Y032448D01*
X006552Y032332D01*
X006490Y032182D01*
X006505Y032217D02*
X006335Y032217D01*
X006295Y032316D02*
X006546Y032316D01*
X006634Y032414D02*
X006222Y032414D01*
X006348Y032050D02*
X005950Y032050D01*
X005950Y031652D01*
X006005Y031661D01*
X006073Y031683D01*
X006136Y031715D01*
X006193Y031757D01*
X006243Y031807D01*
X006285Y031864D01*
X006317Y031927D01*
X006339Y031995D01*
X006348Y032050D01*
X006343Y032020D02*
X006490Y032020D01*
X006530Y031922D02*
X006314Y031922D01*
X006255Y031823D02*
X006597Y031823D01*
X006735Y031725D02*
X006149Y031725D01*
X005950Y031725D02*
X005850Y031725D01*
X005850Y031652D02*
X005850Y032050D01*
X005452Y032050D01*
X005461Y031995D01*
X005483Y031927D01*
X005515Y031864D01*
X005557Y031807D01*
X005607Y031757D01*
X005664Y031715D01*
X005727Y031683D01*
X005795Y031661D01*
X005850Y031652D01*
X005850Y031823D02*
X005950Y031823D01*
X005950Y031922D02*
X005850Y031922D01*
X005850Y032020D02*
X005950Y032020D01*
X005850Y032119D02*
X002362Y032119D01*
X002200Y032119D02*
X002100Y032119D01*
X002100Y032020D02*
X002200Y032020D01*
X002200Y031922D02*
X002100Y031922D01*
X002100Y031823D02*
X002200Y031823D01*
X002200Y031725D02*
X002100Y031725D01*
X002200Y031450D02*
X002802Y031450D01*
X002791Y031372D01*
X002769Y031290D01*
X002736Y031211D01*
X002694Y031137D01*
X002642Y031069D01*
X002581Y031008D01*
X002513Y030956D01*
X002439Y030914D01*
X002360Y030881D01*
X002278Y030859D01*
X002200Y030848D01*
X002200Y031450D01*
X002200Y031429D02*
X002100Y031429D01*
X002100Y031331D02*
X002200Y031331D01*
X002200Y031232D02*
X002100Y031232D01*
X002100Y031134D02*
X002200Y031134D01*
X002200Y031035D02*
X002100Y031035D01*
X002100Y030937D02*
X002200Y030937D01*
X002479Y030937D02*
X005480Y030937D01*
X005455Y031035D02*
X002608Y031035D01*
X002691Y031134D02*
X005850Y031134D01*
X005850Y031232D02*
X005950Y031232D01*
X005950Y031134D02*
X006490Y031134D01*
X006490Y031182D02*
X006490Y031018D01*
X006552Y030868D01*
X006668Y030752D01*
X006818Y030690D01*
X006982Y030690D01*
X007132Y030752D01*
X007248Y030868D01*
X007310Y031018D01*
X007310Y031182D01*
X007248Y031332D01*
X007132Y031448D01*
X006982Y031510D01*
X006818Y031510D01*
X006668Y031448D01*
X006552Y031332D01*
X006490Y031182D01*
X006511Y031232D02*
X006330Y031232D01*
X006288Y031331D02*
X006552Y031331D01*
X006649Y031429D02*
X006207Y031429D01*
X005950Y031429D02*
X005850Y031429D01*
X005850Y031331D02*
X005950Y031331D01*
X005950Y031050D02*
X006348Y031050D01*
X006339Y030995D01*
X006317Y030927D01*
X006285Y030864D01*
X006243Y030807D01*
X006193Y030757D01*
X006136Y030715D01*
X006073Y030683D01*
X006005Y030661D01*
X005950Y030652D01*
X005950Y031050D01*
X005950Y031035D02*
X005850Y031035D01*
X005850Y030937D02*
X005950Y030937D01*
X005950Y030838D02*
X005850Y030838D01*
X005850Y030740D02*
X005950Y030740D01*
X006170Y030740D02*
X006699Y030740D01*
X006582Y030838D02*
X006266Y030838D01*
X006320Y030937D02*
X006524Y030937D01*
X006490Y031035D02*
X006345Y031035D01*
X005593Y031429D02*
X002799Y031429D01*
X002780Y031331D02*
X005512Y031331D01*
X005470Y031232D02*
X002745Y031232D01*
X002792Y031626D02*
X019758Y031626D01*
X019787Y031725D02*
X010065Y031725D01*
X010132Y031752D02*
X010248Y031868D01*
X010310Y032018D01*
X010310Y032182D01*
X010248Y032332D01*
X010132Y032448D01*
X009982Y032510D01*
X009818Y032510D01*
X009668Y032448D01*
X009552Y032332D01*
X009490Y032182D01*
X009490Y032018D01*
X009552Y031868D01*
X009668Y031752D01*
X009818Y031690D01*
X009982Y031690D01*
X010132Y031752D01*
X010203Y031823D02*
X019833Y031823D01*
X019901Y031922D02*
X010270Y031922D01*
X010310Y032020D02*
X020006Y032020D01*
X020188Y032119D02*
X018608Y032119D01*
X018392Y032119D02*
X014558Y032119D01*
X014342Y032119D02*
X010310Y032119D01*
X010295Y032217D02*
X011972Y032217D01*
X011909Y032316D02*
X010254Y032316D01*
X010166Y032414D02*
X011895Y032414D01*
X012328Y032217D02*
X014229Y032217D01*
X014195Y032316D02*
X012391Y032316D01*
X012405Y032414D02*
X014201Y032414D01*
X014239Y032710D02*
X014532Y032710D01*
X014495Y032808D02*
X014255Y032808D01*
X014232Y032907D02*
X014497Y032907D01*
X014544Y033005D02*
X014156Y033005D01*
X013844Y033005D02*
X010005Y033005D01*
X010005Y033051D02*
X009966Y033144D01*
X009894Y033216D01*
X009801Y033255D01*
X009699Y033255D01*
X009606Y033216D01*
X009534Y033144D01*
X009495Y033051D01*
X009495Y032949D01*
X009534Y032856D01*
X009606Y032784D01*
X009699Y032745D01*
X009801Y032745D01*
X009894Y032784D01*
X009966Y032856D01*
X010005Y032949D01*
X010005Y033051D01*
X009983Y033104D02*
X014696Y033104D01*
X014804Y033104D02*
X020128Y033104D01*
X020003Y033202D02*
X009909Y033202D01*
X009987Y032907D02*
X013768Y032907D01*
X013745Y032808D02*
X009919Y032808D01*
X009581Y032808D02*
X003912Y032808D01*
X003912Y032907D02*
X009513Y032907D01*
X009495Y033005D02*
X003878Y033005D01*
X003837Y033104D02*
X009517Y033104D01*
X009591Y033202D02*
X003764Y033202D01*
X003666Y033301D02*
X019868Y033301D01*
X019732Y033399D02*
X003454Y033399D01*
X003146Y033399D02*
X002768Y033399D01*
X002632Y033301D02*
X002934Y033301D01*
X002836Y033202D02*
X002497Y033202D01*
X002372Y033104D02*
X002763Y033104D01*
X002722Y033005D02*
X002273Y033005D01*
X002175Y032907D02*
X002688Y032907D01*
X002688Y032808D02*
X002076Y032808D01*
X001978Y032710D02*
X002688Y032710D01*
X002715Y032611D02*
X001879Y032611D01*
X001805Y032513D02*
X002756Y032513D01*
X002820Y032414D02*
X001733Y032414D01*
X001662Y032316D02*
X002918Y032316D01*
X003107Y032217D02*
X001590Y032217D01*
X001518Y032119D02*
X001938Y032119D01*
X001756Y032020D02*
X001447Y032020D01*
X001391Y031922D02*
X001651Y031922D01*
X001583Y031823D02*
X001341Y031823D01*
X001291Y031725D02*
X001537Y031725D01*
X001508Y031626D02*
X001241Y031626D01*
X002544Y032020D02*
X005457Y032020D01*
X005486Y031922D02*
X002649Y031922D01*
X002717Y031823D02*
X005545Y031823D01*
X005651Y031725D02*
X002763Y031725D01*
X003493Y032217D02*
X005465Y032217D01*
X005505Y032316D02*
X003682Y032316D01*
X003780Y032414D02*
X005578Y032414D01*
X005719Y032513D02*
X003844Y032513D01*
X003247Y033695D02*
X019253Y033695D01*
X019060Y033793D02*
X003440Y033793D01*
X003634Y033892D02*
X015898Y033892D01*
X015820Y033990D02*
X011601Y033990D01*
X011651Y034089D02*
X015795Y034089D01*
X015810Y034187D02*
X011655Y034187D01*
X011199Y033990D02*
X003914Y033990D01*
X004218Y034089D02*
X011149Y034089D01*
X011145Y034187D02*
X004663Y034187D01*
X003054Y033596D02*
X019446Y033596D01*
X019596Y033498D02*
X002904Y033498D01*
X000725Y028474D02*
X006229Y028474D01*
X006471Y028474D02*
X010279Y028474D01*
X010521Y028474D02*
X014329Y028474D01*
X014227Y028573D02*
X012333Y028573D01*
X012393Y028671D02*
X014195Y028671D01*
X014203Y028770D02*
X012405Y028770D01*
X012377Y028868D02*
X014257Y028868D01*
X014571Y028474D02*
X018379Y028474D01*
X018621Y028474D02*
X021775Y028474D01*
X021775Y028376D02*
X021402Y028376D01*
X021331Y028405D02*
X021169Y028405D01*
X021020Y028344D01*
X020906Y028230D01*
X020845Y028081D01*
X020845Y027919D01*
X020906Y027770D01*
X021020Y027656D01*
X021169Y027595D01*
X021331Y027595D01*
X021480Y027656D01*
X021594Y027770D01*
X021655Y027919D01*
X021655Y028081D01*
X021594Y028230D01*
X021480Y028344D01*
X021331Y028405D01*
X021098Y028376D02*
X020402Y028376D01*
X020331Y028405D02*
X020169Y028405D01*
X020020Y028344D01*
X019906Y028230D01*
X019845Y028081D01*
X019845Y027919D01*
X019906Y027770D01*
X020020Y027656D01*
X020169Y027595D01*
X020331Y027595D01*
X020480Y027656D01*
X020594Y027770D01*
X020655Y027919D01*
X020655Y028081D01*
X020594Y028230D01*
X020480Y028344D01*
X020331Y028405D01*
X020098Y028376D02*
X002402Y028376D01*
X002546Y028277D02*
X019954Y028277D01*
X019885Y028179D02*
X002615Y028179D01*
X002655Y028080D02*
X019845Y028080D01*
X019845Y027982D02*
X002655Y027982D01*
X002640Y027883D02*
X003472Y027883D01*
X003506Y027916D02*
X003434Y027844D01*
X003395Y027751D01*
X003395Y027649D01*
X003434Y027556D01*
X003506Y027484D01*
X003599Y027445D01*
X003701Y027445D01*
X003794Y027484D01*
X003866Y027556D01*
X003905Y027649D01*
X003905Y027751D01*
X003866Y027844D01*
X003794Y027916D01*
X003701Y027955D01*
X003599Y027955D01*
X003506Y027916D01*
X003409Y027785D02*
X002599Y027785D01*
X002509Y027686D02*
X003395Y027686D01*
X003421Y027588D02*
X000725Y027588D01*
X000725Y027686D02*
X000991Y027686D01*
X000901Y027785D02*
X000725Y027785D01*
X000725Y027883D02*
X000860Y027883D01*
X000845Y027982D02*
X000725Y027982D01*
X000725Y028080D02*
X000845Y028080D01*
X000885Y028179D02*
X000725Y028179D01*
X000725Y028277D02*
X000954Y028277D01*
X001098Y028376D02*
X000725Y028376D01*
X000725Y027489D02*
X003500Y027489D01*
X003800Y027489D02*
X004061Y027489D01*
X003932Y027391D02*
X002366Y027391D01*
X002531Y027292D02*
X003895Y027292D01*
X003897Y027194D02*
X002608Y027194D01*
X002649Y027095D02*
X003944Y027095D01*
X003879Y027588D02*
X007450Y027588D01*
X007445Y027599D02*
X007484Y027506D01*
X007556Y027434D01*
X007649Y027395D01*
X007751Y027395D01*
X007844Y027434D01*
X007916Y027506D01*
X007955Y027599D01*
X007955Y027701D01*
X007916Y027794D01*
X007844Y027866D01*
X007751Y027905D01*
X007649Y027905D01*
X007556Y027866D01*
X007484Y027794D01*
X007445Y027701D01*
X007445Y027599D01*
X007445Y027686D02*
X003905Y027686D01*
X003891Y027785D02*
X007480Y027785D01*
X007596Y027883D02*
X003828Y027883D01*
X004239Y027489D02*
X007500Y027489D01*
X007900Y027489D02*
X008061Y027489D01*
X007950Y027588D02*
X011500Y027588D01*
X011495Y027686D02*
X007955Y027686D01*
X007920Y027785D02*
X011530Y027785D01*
X011646Y027883D02*
X007804Y027883D01*
X007932Y027391D02*
X004368Y027391D01*
X004405Y027292D02*
X007895Y027292D01*
X007897Y027194D02*
X004403Y027194D01*
X004356Y027095D02*
X007944Y027095D01*
X008356Y027095D02*
X011994Y027095D01*
X011947Y027194D02*
X008403Y027194D01*
X008405Y027292D02*
X011945Y027292D01*
X011982Y027391D02*
X008368Y027391D01*
X008239Y027489D02*
X011550Y027489D01*
X011854Y027883D02*
X019860Y027883D01*
X019901Y027785D02*
X015976Y027785D01*
X016040Y027686D02*
X019991Y027686D01*
X020366Y027391D02*
X021134Y027391D01*
X020969Y027292D02*
X020531Y027292D01*
X020608Y027194D02*
X020892Y027194D01*
X020851Y027095D02*
X020649Y027095D01*
X020655Y026997D02*
X020845Y026997D01*
X020854Y026898D02*
X020646Y026898D01*
X020606Y026800D02*
X020894Y026800D01*
X020976Y026701D02*
X020524Y026701D01*
X020516Y026307D02*
X020984Y026307D01*
X020898Y026209D02*
X020602Y026209D01*
X020643Y026110D02*
X020857Y026110D01*
X020845Y026012D02*
X020655Y026012D01*
X020653Y025913D02*
X020847Y025913D01*
X020888Y025815D02*
X020612Y025815D01*
X020539Y025716D02*
X020961Y025716D01*
X021501Y025322D02*
X021775Y025322D01*
X021775Y025224D02*
X021596Y025224D01*
X021637Y025125D02*
X021775Y025125D01*
X021775Y025027D02*
X021655Y025027D01*
X021655Y024928D02*
X021775Y024928D01*
X021775Y024830D02*
X021618Y024830D01*
X021554Y024731D02*
X021775Y024731D01*
X021775Y024633D02*
X021422Y024633D01*
X021486Y024337D02*
X021775Y024337D01*
X021775Y024239D02*
X021585Y024239D01*
X021631Y024140D02*
X021775Y024140D01*
X021775Y024042D02*
X021655Y024042D01*
X021655Y023943D02*
X021775Y023943D01*
X021775Y023845D02*
X021624Y023845D01*
X021569Y023746D02*
X021775Y023746D01*
X021775Y023648D02*
X021458Y023648D01*
X021459Y023352D02*
X021775Y023352D01*
X021775Y023254D02*
X021570Y023254D01*
X021624Y023155D02*
X021775Y023155D01*
X021775Y023057D02*
X021655Y023057D01*
X021655Y022958D02*
X021775Y022958D01*
X021775Y022860D02*
X021630Y022860D01*
X021584Y022761D02*
X021775Y022761D01*
X021775Y022663D02*
X021486Y022663D01*
X021423Y022367D02*
X021775Y022367D01*
X021775Y022269D02*
X021555Y022269D01*
X021618Y022170D02*
X021775Y022170D01*
X021775Y022072D02*
X021655Y022072D01*
X021655Y021973D02*
X021775Y021973D01*
X021775Y021875D02*
X021637Y021875D01*
X021596Y021776D02*
X021775Y021776D01*
X021775Y021678D02*
X021501Y021678D01*
X021387Y021382D02*
X021775Y021382D01*
X021775Y021284D02*
X021540Y021284D01*
X021612Y021185D02*
X021775Y021185D01*
X021775Y021087D02*
X021653Y021087D01*
X021655Y020988D02*
X021775Y020988D01*
X021775Y020890D02*
X021643Y020890D01*
X021602Y020791D02*
X021775Y020791D01*
X021775Y020693D02*
X021516Y020693D01*
X021775Y020594D02*
X000725Y020594D01*
X000725Y020496D02*
X021775Y020496D01*
X021775Y020397D02*
X021350Y020397D01*
X021525Y020299D02*
X021775Y020299D01*
X021775Y020200D02*
X021606Y020200D01*
X021647Y020102D02*
X021775Y020102D01*
X021775Y020003D02*
X021655Y020003D01*
X021649Y019905D02*
X021775Y019905D01*
X021775Y019806D02*
X021608Y019806D01*
X021531Y019708D02*
X021775Y019708D01*
X021775Y019412D02*
X011092Y019412D01*
X010908Y019412D02*
X008755Y019412D01*
X008751Y019511D02*
X010782Y019511D01*
X010745Y019609D02*
X008702Y019609D01*
X008656Y019117D02*
X003249Y019117D01*
X003344Y019018D02*
X008602Y019018D01*
X008401Y019215D02*
X003124Y019215D01*
X002948Y019314D02*
X008281Y019314D01*
X008245Y019412D02*
X000725Y019412D01*
X000725Y019708D02*
X000969Y019708D01*
X000892Y019806D02*
X000725Y019806D01*
X000725Y019905D02*
X000851Y019905D01*
X000845Y020003D02*
X000725Y020003D01*
X000725Y020102D02*
X000853Y020102D01*
X000894Y020200D02*
X000725Y020200D01*
X000725Y020299D02*
X000975Y020299D01*
X001150Y020397D02*
X000725Y020397D01*
X000725Y020693D02*
X000984Y020693D01*
X000898Y020791D02*
X000725Y020791D01*
X000725Y020890D02*
X000857Y020890D01*
X000845Y020988D02*
X000725Y020988D01*
X000725Y021087D02*
X000847Y021087D01*
X000888Y021185D02*
X000725Y021185D01*
X000725Y021284D02*
X000960Y021284D01*
X001113Y021382D02*
X000725Y021382D01*
X000725Y021481D02*
X002773Y021481D01*
X002745Y021579D02*
X000725Y021579D01*
X000725Y021678D02*
X000999Y021678D01*
X000904Y021776D02*
X000725Y021776D01*
X000725Y021875D02*
X000863Y021875D01*
X000845Y021973D02*
X000725Y021973D01*
X000725Y022072D02*
X000845Y022072D01*
X000882Y022170D02*
X000725Y022170D01*
X000725Y022269D02*
X000945Y022269D01*
X001077Y022367D02*
X000725Y022367D01*
X000725Y022466D02*
X015424Y022466D01*
X015360Y022564D02*
X000725Y022564D01*
X000725Y022663D02*
X001014Y022663D01*
X000916Y022761D02*
X000725Y022761D01*
X000725Y022860D02*
X000870Y022860D01*
X000845Y022958D02*
X000725Y022958D01*
X000725Y023057D02*
X000845Y023057D01*
X000876Y023155D02*
X000725Y023155D01*
X000725Y023254D02*
X000930Y023254D01*
X001041Y023352D02*
X000725Y023352D01*
X000725Y023648D02*
X001042Y023648D01*
X000931Y023746D02*
X000725Y023746D01*
X000725Y023845D02*
X000876Y023845D01*
X000845Y023943D02*
X000725Y023943D01*
X000725Y024042D02*
X000845Y024042D01*
X000869Y024140D02*
X000725Y024140D01*
X000725Y024239D02*
X000915Y024239D01*
X001014Y024337D02*
X000725Y024337D01*
X000725Y024633D02*
X001078Y024633D01*
X000946Y024731D02*
X000725Y024731D01*
X000725Y024830D02*
X000882Y024830D01*
X000845Y024928D02*
X000725Y024928D01*
X000725Y025027D02*
X000845Y025027D01*
X000863Y025125D02*
X000725Y025125D01*
X000725Y025224D02*
X000904Y025224D01*
X000999Y025322D02*
X000725Y025322D01*
X000725Y026701D02*
X000976Y026701D01*
X000894Y026800D02*
X000725Y026800D01*
X000725Y026898D02*
X000854Y026898D01*
X000845Y026997D02*
X000725Y026997D01*
X000725Y027095D02*
X000851Y027095D01*
X000892Y027194D02*
X000725Y027194D01*
X000725Y027292D02*
X000969Y027292D01*
X001134Y027391D02*
X000725Y027391D01*
X002630Y022860D02*
X015449Y022860D01*
X015370Y022761D02*
X002584Y022761D01*
X002486Y022663D02*
X015345Y022663D01*
X015776Y022466D02*
X015845Y022466D01*
X015840Y022564D02*
X015851Y022564D01*
X015855Y022663D02*
X015902Y022663D01*
X015879Y022367D02*
X002423Y022367D01*
X002555Y022269D02*
X007008Y022269D01*
X006984Y022244D02*
X006945Y022151D01*
X006945Y022049D01*
X006984Y021956D01*
X007056Y021884D01*
X007149Y021845D01*
X007251Y021845D01*
X007344Y021884D01*
X007416Y021956D01*
X007455Y022049D01*
X007455Y022151D01*
X007416Y022244D01*
X007344Y022316D01*
X007251Y022355D01*
X007149Y022355D01*
X007056Y022316D01*
X006984Y022244D01*
X006953Y022170D02*
X002618Y022170D01*
X002655Y022072D02*
X006945Y022072D01*
X006977Y021973D02*
X002655Y021973D01*
X002637Y021875D02*
X007078Y021875D01*
X007322Y021875D02*
X012778Y021875D01*
X012677Y021973D02*
X007423Y021973D01*
X007455Y022072D02*
X012645Y022072D01*
X012653Y022170D02*
X007447Y022170D01*
X007392Y022269D02*
X012708Y022269D01*
X013092Y022269D02*
X015992Y022269D01*
X016459Y023352D02*
X017537Y023352D01*
X017495Y023451D02*
X013885Y023451D01*
X013905Y023549D02*
X017495Y023549D01*
X017963Y023648D02*
X020042Y023648D01*
X020041Y023352D02*
X017963Y023352D01*
X018005Y023451D02*
X021775Y023451D01*
X021775Y023549D02*
X018005Y023549D01*
X019136Y025125D02*
X019863Y025125D01*
X019904Y025224D02*
X019194Y025224D01*
X019205Y025322D02*
X019999Y025322D01*
X019176Y025421D02*
X021775Y025421D01*
X021775Y025519D02*
X019087Y025519D01*
X020509Y027686D02*
X020991Y027686D01*
X020901Y027785D02*
X020599Y027785D01*
X020640Y027883D02*
X020860Y027883D01*
X020845Y027982D02*
X020655Y027982D01*
X020655Y028080D02*
X020845Y028080D01*
X020885Y028179D02*
X020615Y028179D01*
X020546Y028277D02*
X020954Y028277D01*
X021006Y028671D02*
X020494Y028671D01*
X020593Y028770D02*
X020907Y028770D01*
X020866Y028868D02*
X020634Y028868D01*
X020655Y028967D02*
X020845Y028967D01*
X020845Y029065D02*
X020655Y029065D01*
X020621Y029164D02*
X020879Y029164D01*
X020939Y029262D02*
X020561Y029262D01*
X020439Y029361D02*
X021061Y029361D01*
X021021Y029656D02*
X020479Y029656D01*
X020578Y029755D02*
X020922Y029755D01*
X020872Y029853D02*
X020628Y029853D01*
X020655Y029952D02*
X020845Y029952D01*
X020845Y030050D02*
X020655Y030050D01*
X020627Y030149D02*
X020873Y030149D01*
X020924Y030247D02*
X020576Y030247D01*
X020475Y030346D02*
X021025Y030346D01*
X020689Y030914D02*
X020610Y030881D01*
X020528Y030859D01*
X020450Y030848D01*
X020450Y031450D01*
X021052Y031450D01*
X021041Y031372D01*
X021019Y031290D01*
X020986Y031211D01*
X020944Y031137D01*
X020892Y031069D01*
X020831Y031008D01*
X020763Y030956D01*
X020689Y030914D01*
X020729Y030937D02*
X021538Y030937D01*
X021506Y031035D02*
X020858Y031035D01*
X020941Y031134D02*
X021474Y031134D01*
X021442Y031232D02*
X020995Y031232D01*
X021030Y031331D02*
X021410Y031331D01*
X021360Y031429D02*
X021049Y031429D01*
X020450Y031429D02*
X020350Y031429D01*
X020350Y031450D02*
X020350Y030848D01*
X020272Y030859D01*
X020190Y030881D01*
X020111Y030914D01*
X020037Y030956D01*
X019969Y031008D01*
X019908Y031069D01*
X019856Y031137D01*
X019814Y031211D01*
X019781Y031290D01*
X019759Y031372D01*
X019748Y031450D01*
X020350Y031450D01*
X020350Y031331D02*
X020450Y031331D01*
X020450Y031232D02*
X020350Y031232D01*
X020350Y031134D02*
X020450Y031134D01*
X020450Y031035D02*
X020350Y031035D01*
X020350Y030937D02*
X020450Y030937D01*
X020071Y030937D02*
X016505Y030937D01*
X016500Y030838D02*
X021570Y030838D01*
X021602Y030740D02*
X016450Y030740D01*
X016470Y031035D02*
X019942Y031035D01*
X019859Y031134D02*
X016352Y031134D01*
X016148Y031134D02*
X015994Y031134D01*
X016048Y031232D02*
X019805Y031232D01*
X019770Y031331D02*
X016055Y031331D01*
X016023Y031429D02*
X019751Y031429D01*
X020350Y031725D02*
X020450Y031725D01*
X020450Y031823D02*
X020350Y031823D01*
X020350Y031922D02*
X020450Y031922D01*
X020450Y032020D02*
X020350Y032020D01*
X020350Y032119D02*
X020450Y032119D01*
X018866Y033892D02*
X016202Y033892D01*
X016280Y033990D02*
X018586Y033990D01*
X018282Y034089D02*
X016305Y034089D01*
X016290Y034187D02*
X017837Y034187D01*
X014502Y031134D02*
X012302Y031134D01*
X012420Y031035D02*
X014554Y031035D01*
X013682Y029459D02*
X010902Y029459D01*
X010980Y029361D02*
X013800Y029361D01*
X013720Y029262D02*
X011005Y029262D01*
X010990Y029164D02*
X013695Y029164D01*
X013709Y029065D02*
X010926Y029065D01*
X010647Y028770D02*
X011895Y028770D01*
X011907Y028671D02*
X010655Y028671D01*
X010623Y028573D02*
X011967Y028573D01*
X012293Y028967D02*
X013773Y028967D01*
X014967Y027292D02*
X016081Y027292D01*
X016013Y027194D02*
X015005Y027194D01*
X015003Y027095D02*
X015995Y027095D01*
X016017Y026997D02*
X014957Y026997D01*
X016030Y027489D02*
X021775Y027489D01*
X021775Y027391D02*
X021366Y027391D01*
X021531Y027292D02*
X021775Y027292D01*
X021775Y027194D02*
X021608Y027194D01*
X021649Y027095D02*
X021775Y027095D01*
X021775Y026997D02*
X021655Y026997D01*
X021646Y026898D02*
X021775Y026898D01*
X021775Y026800D02*
X021606Y026800D01*
X021524Y026701D02*
X021775Y026701D01*
X021775Y027588D02*
X016055Y027588D01*
X019265Y021776D02*
X003185Y021776D01*
X002815Y021776D02*
X002596Y021776D01*
X002501Y021678D02*
X002756Y021678D01*
X002860Y021382D02*
X002387Y021382D01*
X002640Y019117D02*
X002853Y019117D01*
X003024Y019018D02*
X002655Y019018D01*
X002655Y018920D02*
X003138Y018920D01*
X003220Y018821D02*
X002615Y018821D01*
X002546Y018723D02*
X003282Y018723D01*
X003329Y018624D02*
X002401Y018624D01*
X002099Y018624D02*
X001401Y018624D01*
X001546Y018723D02*
X001954Y018723D01*
X001885Y018821D02*
X001615Y018821D01*
X001655Y018920D02*
X001845Y018920D01*
X001845Y019018D02*
X001655Y019018D01*
X001640Y019117D02*
X001860Y019117D01*
X002005Y018329D02*
X001495Y018329D01*
X001593Y018230D02*
X001907Y018230D01*
X001866Y018132D02*
X001634Y018132D01*
X001655Y018033D02*
X001845Y018033D01*
X001845Y017935D02*
X001655Y017935D01*
X001621Y017836D02*
X001879Y017836D01*
X001939Y017738D02*
X001561Y017738D01*
X001438Y017639D02*
X002062Y017639D01*
X002169Y017405D02*
X002020Y017344D01*
X001906Y017230D01*
X001845Y017081D01*
X001845Y016919D01*
X001906Y016770D01*
X002020Y016656D01*
X002169Y016595D01*
X002331Y016595D01*
X002480Y016656D01*
X002594Y016770D01*
X002655Y016919D01*
X002655Y017081D01*
X002594Y017230D01*
X002480Y017344D01*
X002331Y017405D01*
X002169Y017405D01*
X002020Y017344D02*
X001480Y017344D01*
X001331Y017405D01*
X001169Y017405D01*
X001020Y017344D01*
X000906Y017230D01*
X000845Y017081D01*
X000845Y016919D01*
X000906Y016770D01*
X001020Y016656D01*
X001169Y016595D01*
X001331Y016595D01*
X001480Y016656D01*
X001594Y016770D01*
X001655Y016919D01*
X001655Y017081D01*
X001594Y017230D01*
X001480Y017344D01*
X001578Y017245D02*
X001922Y017245D01*
X001872Y017147D02*
X001628Y017147D01*
X001655Y017048D02*
X001845Y017048D01*
X001845Y016950D02*
X001655Y016950D01*
X001627Y016851D02*
X001873Y016851D01*
X001924Y016753D02*
X001576Y016753D01*
X001474Y016654D02*
X002026Y016654D01*
X002169Y016405D02*
X002020Y016344D01*
X001906Y016230D01*
X001845Y016081D01*
X001845Y015919D01*
X001906Y015770D01*
X002020Y015656D01*
X002169Y015595D01*
X002331Y015595D01*
X002480Y015656D01*
X002594Y015770D01*
X002655Y015919D01*
X002655Y016081D01*
X002594Y016230D01*
X002480Y016344D01*
X002331Y016405D01*
X002169Y016405D01*
X002057Y016359D02*
X001443Y016359D01*
X001480Y016344D02*
X001331Y016405D01*
X001169Y016405D01*
X001020Y016344D01*
X000906Y016230D01*
X000845Y016081D01*
X000845Y015919D01*
X000906Y015770D01*
X001020Y015656D01*
X001169Y015595D01*
X001331Y015595D01*
X001480Y015656D01*
X001594Y015770D01*
X001655Y015919D01*
X001655Y016081D01*
X001594Y016230D01*
X001480Y016344D01*
X001563Y016260D02*
X001937Y016260D01*
X001878Y016162D02*
X001622Y016162D01*
X001655Y016063D02*
X001845Y016063D01*
X001845Y015965D02*
X001655Y015965D01*
X001633Y015866D02*
X001867Y015866D01*
X001909Y015768D02*
X001591Y015768D01*
X001492Y015669D02*
X002008Y015669D01*
X002093Y015374D02*
X001407Y015374D01*
X001480Y015344D02*
X001331Y015405D01*
X001169Y015405D01*
X001020Y015344D01*
X000906Y015230D01*
X000845Y015081D01*
X000845Y014919D01*
X000906Y014770D01*
X001020Y014656D01*
X001169Y014595D01*
X001331Y014595D01*
X001480Y014656D01*
X001594Y014770D01*
X001655Y014919D01*
X001655Y015081D01*
X001594Y015230D01*
X001480Y015344D01*
X001548Y015275D02*
X001952Y015275D01*
X001906Y015230D02*
X001845Y015081D01*
X001845Y014919D01*
X001906Y014770D01*
X002020Y014656D01*
X002169Y014595D01*
X002331Y014595D01*
X002480Y014656D01*
X002594Y014770D01*
X002655Y014919D01*
X002655Y015081D01*
X002594Y015230D01*
X002480Y015344D01*
X002331Y015405D01*
X002169Y015405D01*
X002020Y015344D01*
X001906Y015230D01*
X001884Y015177D02*
X001616Y015177D01*
X001655Y015078D02*
X001845Y015078D01*
X001845Y014980D02*
X001655Y014980D01*
X001639Y014881D02*
X001861Y014881D01*
X001901Y014783D02*
X001599Y014783D01*
X001507Y014684D02*
X001993Y014684D01*
X002129Y014389D02*
X001371Y014389D01*
X001331Y014405D02*
X001480Y014344D01*
X001594Y014230D01*
X001655Y014081D01*
X001655Y013919D01*
X001594Y013770D01*
X001480Y013656D01*
X001331Y013595D01*
X001169Y013595D01*
X001020Y013656D01*
X000906Y013770D01*
X000845Y013919D01*
X000845Y014081D01*
X000906Y014230D01*
X001020Y014344D01*
X001169Y014405D01*
X001331Y014405D01*
X001129Y014389D02*
X000725Y014389D01*
X000725Y014487D02*
X009845Y014487D01*
X009845Y014501D02*
X009845Y014399D01*
X009884Y014306D01*
X009956Y014234D01*
X010049Y014195D01*
X010151Y014195D01*
X010244Y014234D01*
X010316Y014306D01*
X010355Y014399D01*
X010355Y014501D01*
X010316Y014594D01*
X010244Y014666D01*
X010151Y014705D01*
X010049Y014705D01*
X009956Y014666D01*
X009884Y014594D01*
X009845Y014501D01*
X009880Y014586D02*
X000725Y014586D01*
X000725Y014684D02*
X000993Y014684D01*
X000901Y014783D02*
X000725Y014783D01*
X000725Y014881D02*
X000861Y014881D01*
X000845Y014980D02*
X000725Y014980D01*
X000725Y015078D02*
X000845Y015078D01*
X000884Y015177D02*
X000725Y015177D01*
X000725Y015275D02*
X000952Y015275D01*
X001093Y015374D02*
X000725Y015374D01*
X000725Y015472D02*
X005061Y015472D01*
X005034Y015444D02*
X004995Y015351D01*
X004995Y015249D01*
X005034Y015156D01*
X005106Y015084D01*
X005199Y015045D01*
X005301Y015045D01*
X005394Y015084D01*
X005466Y015156D01*
X005505Y015249D01*
X005505Y015351D01*
X005466Y015444D01*
X005394Y015516D01*
X005301Y015555D01*
X005199Y015555D01*
X005106Y015516D01*
X005034Y015444D01*
X005004Y015374D02*
X002407Y015374D01*
X002548Y015275D02*
X004995Y015275D01*
X005025Y015177D02*
X002616Y015177D01*
X002655Y015078D02*
X004534Y015078D01*
X004506Y015066D02*
X004434Y014994D01*
X004395Y014901D01*
X004395Y014799D01*
X004434Y014706D01*
X004506Y014634D01*
X004599Y014595D01*
X004701Y014595D01*
X004794Y014634D01*
X004866Y014706D01*
X004905Y014799D01*
X004905Y014901D01*
X004866Y014994D01*
X004794Y015066D01*
X004701Y015105D01*
X004599Y015105D01*
X004506Y015066D01*
X004428Y014980D02*
X002655Y014980D01*
X002639Y014881D02*
X004395Y014881D01*
X004402Y014783D02*
X002599Y014783D01*
X002507Y014684D02*
X004455Y014684D01*
X004845Y014684D02*
X006255Y014684D01*
X006234Y014706D02*
X006306Y014634D01*
X006399Y014595D01*
X006501Y014595D01*
X006594Y014634D01*
X006666Y014706D01*
X006705Y014799D01*
X006705Y014901D01*
X006666Y014994D01*
X006594Y015066D01*
X006501Y015105D01*
X006399Y015105D01*
X006306Y015066D01*
X006234Y014994D01*
X006195Y014901D01*
X006195Y014799D01*
X006234Y014706D01*
X006202Y014783D02*
X004898Y014783D01*
X004905Y014881D02*
X006195Y014881D01*
X006228Y014980D02*
X004872Y014980D01*
X004766Y015078D02*
X005120Y015078D01*
X005380Y015078D02*
X006334Y015078D01*
X006566Y015078D02*
X013596Y015078D01*
X013620Y014980D02*
X006672Y014980D01*
X006705Y014881D02*
X013633Y014881D01*
X013646Y014783D02*
X006698Y014783D01*
X006645Y014684D02*
X009999Y014684D01*
X010201Y014684D02*
X013650Y014684D01*
X013650Y014586D02*
X013098Y014586D01*
X013144Y014566D02*
X013051Y014605D01*
X012949Y014605D01*
X012856Y014566D01*
X012784Y014494D01*
X012745Y014401D01*
X012745Y014299D01*
X012784Y014206D01*
X012856Y014134D01*
X012949Y014095D01*
X013051Y014095D01*
X013144Y014134D01*
X013216Y014206D01*
X013255Y014299D01*
X013255Y014401D01*
X013216Y014494D01*
X013144Y014566D01*
X013219Y014487D02*
X013650Y014487D01*
X013650Y014389D02*
X013255Y014389D01*
X013251Y014290D02*
X013650Y014290D01*
X013650Y014192D02*
X013202Y014192D01*
X012798Y014192D02*
X012402Y014192D01*
X012416Y014206D02*
X012455Y014299D01*
X012455Y014401D01*
X012416Y014494D01*
X012344Y014566D01*
X012251Y014605D01*
X012149Y014605D01*
X012056Y014566D01*
X011984Y014494D01*
X011945Y014401D01*
X011945Y014299D01*
X011984Y014206D01*
X012056Y014134D01*
X012149Y014095D01*
X012251Y014095D01*
X012344Y014134D01*
X012416Y014206D01*
X012451Y014290D02*
X012749Y014290D01*
X012745Y014389D02*
X012455Y014389D01*
X012419Y014487D02*
X012781Y014487D01*
X012902Y014586D02*
X012298Y014586D01*
X012102Y014586D02*
X010320Y014586D01*
X010355Y014487D02*
X011981Y014487D01*
X011945Y014389D02*
X010351Y014389D01*
X010301Y014290D02*
X011949Y014290D01*
X011998Y014192D02*
X002609Y014192D01*
X002594Y014230D02*
X002655Y014081D01*
X002655Y013919D01*
X002594Y013770D01*
X002480Y013656D01*
X002331Y013595D01*
X002169Y013595D01*
X002020Y013656D01*
X001906Y013770D01*
X001845Y013919D01*
X001845Y014081D01*
X001906Y014230D01*
X002020Y014344D01*
X002169Y014405D01*
X002331Y014405D01*
X002480Y014344D01*
X002594Y014230D01*
X002533Y014290D02*
X009899Y014290D01*
X009849Y014389D02*
X002371Y014389D01*
X002650Y014093D02*
X011532Y014093D01*
X011556Y014116D02*
X011484Y014044D01*
X011445Y013951D01*
X011445Y013849D01*
X011484Y013756D01*
X011556Y013684D01*
X011649Y013645D01*
X011751Y013645D01*
X011844Y013684D01*
X011916Y013756D01*
X011955Y013849D01*
X011955Y013951D01*
X011916Y014044D01*
X011844Y014116D01*
X011751Y014155D01*
X011649Y014155D01*
X011556Y014116D01*
X011463Y013995D02*
X002655Y013995D01*
X002646Y013896D02*
X011445Y013896D01*
X011466Y013798D02*
X002605Y013798D01*
X002522Y013699D02*
X011540Y013699D01*
X011860Y013699D02*
X013650Y013699D01*
X013650Y013601D02*
X002345Y013601D01*
X002155Y013601D02*
X001345Y013601D01*
X001155Y013601D02*
X000725Y013601D01*
X000725Y013699D02*
X000978Y013699D01*
X000895Y013798D02*
X000725Y013798D01*
X000725Y013896D02*
X000854Y013896D01*
X000845Y013995D02*
X000725Y013995D01*
X000725Y014093D02*
X000850Y014093D01*
X000891Y014192D02*
X000725Y014192D01*
X000725Y014290D02*
X000967Y014290D01*
X001533Y014290D02*
X001967Y014290D01*
X001891Y014192D02*
X001609Y014192D01*
X001650Y014093D02*
X001850Y014093D01*
X001845Y013995D02*
X001655Y013995D01*
X001646Y013896D02*
X001854Y013896D01*
X001895Y013798D02*
X001605Y013798D01*
X001522Y013699D02*
X001978Y013699D01*
X002165Y013404D02*
X001335Y013404D01*
X001331Y013405D02*
X001480Y013344D01*
X001594Y013230D01*
X001655Y013081D01*
X001655Y012919D01*
X001594Y012770D01*
X001480Y012656D01*
X001331Y012595D01*
X001169Y012595D01*
X001020Y012656D01*
X000906Y012770D01*
X000845Y012919D01*
X000845Y013081D01*
X000906Y013230D01*
X001020Y013344D01*
X001169Y013405D01*
X001331Y013405D01*
X001165Y013404D02*
X000725Y013404D01*
X000725Y013502D02*
X013650Y013502D01*
X013650Y013404D02*
X002335Y013404D01*
X002331Y013405D02*
X002169Y013405D01*
X002020Y013344D01*
X001906Y013230D01*
X001845Y013081D01*
X001845Y012919D01*
X001906Y012770D01*
X002020Y012656D01*
X002169Y012595D01*
X002331Y012595D01*
X002480Y012656D01*
X002594Y012770D01*
X002655Y012919D01*
X002655Y013081D01*
X002594Y013230D01*
X002480Y013344D01*
X002331Y013405D01*
X002518Y013305D02*
X013650Y013305D01*
X013650Y013207D02*
X002603Y013207D01*
X002644Y013108D02*
X013650Y013108D01*
X013650Y013010D02*
X002655Y013010D01*
X002652Y012911D02*
X004550Y012911D01*
X004556Y012916D02*
X004484Y012844D01*
X004445Y012751D01*
X004445Y012649D01*
X004484Y012556D01*
X004556Y012484D01*
X004649Y012445D01*
X004751Y012445D01*
X004844Y012484D01*
X004916Y012556D01*
X004955Y012649D01*
X004955Y012751D01*
X004916Y012844D01*
X004844Y012916D01*
X004751Y012955D01*
X004649Y012955D01*
X004556Y012916D01*
X004471Y012813D02*
X002611Y012813D01*
X002537Y012714D02*
X004445Y012714D01*
X004459Y012616D02*
X002381Y012616D01*
X002331Y012405D02*
X002169Y012405D01*
X002020Y012344D01*
X001906Y012230D01*
X001845Y012081D01*
X001845Y011919D01*
X001906Y011770D01*
X002020Y011656D01*
X002169Y011595D01*
X002331Y011595D01*
X002480Y011656D01*
X002594Y011770D01*
X002655Y011919D01*
X002655Y012081D01*
X002594Y012230D01*
X002480Y012344D01*
X002331Y012405D01*
X002503Y012320D02*
X013650Y012320D01*
X013650Y012222D02*
X002597Y012222D01*
X002638Y012123D02*
X013650Y012123D01*
X013652Y012025D02*
X002655Y012025D01*
X002655Y011926D02*
X013657Y011926D01*
X013663Y011828D02*
X007567Y011828D01*
X007594Y011816D02*
X007501Y011855D01*
X007399Y011855D01*
X007306Y011816D01*
X007234Y011744D01*
X007195Y011651D01*
X007195Y011549D01*
X007234Y011456D01*
X007306Y011384D01*
X007399Y011345D01*
X007501Y011345D01*
X007594Y011384D01*
X007666Y011456D01*
X007705Y011549D01*
X007705Y011651D01*
X007666Y011744D01*
X007594Y011816D01*
X007673Y011729D02*
X013669Y011729D01*
X013687Y011631D02*
X007705Y011631D01*
X007698Y011532D02*
X013705Y011532D01*
X013723Y011434D02*
X007644Y011434D01*
X007501Y010805D02*
X007399Y010805D01*
X007306Y010766D01*
X007234Y010694D01*
X007195Y010601D01*
X007195Y010499D01*
X007234Y010406D01*
X007306Y010334D01*
X007399Y010295D01*
X007501Y010295D01*
X007594Y010334D01*
X007666Y010406D01*
X007705Y010499D01*
X007705Y010601D01*
X007666Y010694D01*
X007594Y010766D01*
X007501Y010805D01*
X007617Y010744D02*
X013990Y010744D01*
X013938Y010843D02*
X002623Y010843D01*
X002594Y010770D02*
X002655Y010919D01*
X002655Y011081D01*
X002594Y011230D01*
X002480Y011344D01*
X002331Y011405D01*
X002169Y011405D01*
X002020Y011344D01*
X001906Y011230D01*
X001845Y011081D01*
X001845Y010919D01*
X001906Y010770D01*
X002020Y010656D01*
X002169Y010595D01*
X002331Y010595D01*
X002480Y010656D01*
X002594Y010770D01*
X002567Y010744D02*
X007283Y010744D01*
X007214Y010646D02*
X003174Y010646D01*
X003151Y010655D02*
X003049Y010655D01*
X002956Y010616D01*
X002884Y010544D01*
X002845Y010451D01*
X002845Y010349D01*
X002884Y010256D01*
X002956Y010184D01*
X003049Y010145D01*
X003151Y010145D01*
X003244Y010184D01*
X003316Y010256D01*
X003355Y010349D01*
X003355Y010451D01*
X003316Y010544D01*
X003244Y010616D01*
X003151Y010655D01*
X003026Y010646D02*
X002453Y010646D01*
X002331Y010405D02*
X002480Y010344D01*
X002594Y010230D01*
X002655Y010081D01*
X002655Y009919D01*
X002594Y009770D01*
X002480Y009656D01*
X002331Y009595D01*
X002169Y009595D01*
X002020Y009656D01*
X001906Y009770D01*
X001845Y009919D01*
X001845Y010081D01*
X001906Y010230D01*
X002020Y010344D01*
X002169Y010405D01*
X002331Y010405D01*
X002464Y010350D02*
X002845Y010350D01*
X002845Y010449D02*
X000725Y010449D01*
X000725Y010547D02*
X002886Y010547D01*
X002888Y010252D02*
X002572Y010252D01*
X002625Y010153D02*
X003030Y010153D01*
X003170Y010153D02*
X003495Y010153D01*
X003499Y010155D02*
X003406Y010116D01*
X003334Y010044D01*
X003295Y009951D01*
X003295Y009849D01*
X003334Y009756D01*
X003406Y009684D01*
X003499Y009645D01*
X003601Y009645D01*
X003694Y009684D01*
X003766Y009756D01*
X003805Y009849D01*
X003805Y009951D01*
X003766Y010044D01*
X003694Y010116D01*
X003601Y010155D01*
X003499Y010155D01*
X003605Y010153D02*
X014436Y010153D01*
X014534Y010055D02*
X003756Y010055D01*
X003803Y009956D02*
X014653Y009956D01*
X014778Y009858D02*
X003805Y009858D01*
X003768Y009759D02*
X007248Y009759D01*
X007234Y009744D02*
X007195Y009651D01*
X007195Y009549D01*
X007234Y009456D01*
X007306Y009384D01*
X007399Y009345D01*
X007501Y009345D01*
X007594Y009384D01*
X007666Y009456D01*
X007705Y009549D01*
X007705Y009651D01*
X007666Y009744D01*
X007594Y009816D01*
X007501Y009855D01*
X007399Y009855D01*
X007306Y009816D01*
X007234Y009744D01*
X007199Y009661D02*
X003638Y009661D01*
X003462Y009661D02*
X002484Y009661D01*
X002582Y009759D02*
X003332Y009759D01*
X003295Y009858D02*
X002630Y009858D01*
X002655Y009956D02*
X003297Y009956D01*
X003344Y010055D02*
X002655Y010055D01*
X002036Y010350D02*
X001464Y010350D01*
X001480Y010344D02*
X001331Y010405D01*
X001169Y010405D01*
X001020Y010344D01*
X000906Y010230D01*
X000845Y010081D01*
X000845Y009919D01*
X000906Y009770D01*
X001020Y009656D01*
X001169Y009595D01*
X001331Y009595D01*
X001480Y009656D01*
X001594Y009770D01*
X001655Y009919D01*
X001655Y010081D01*
X001594Y010230D01*
X001480Y010344D01*
X001572Y010252D02*
X001928Y010252D01*
X001875Y010153D02*
X001625Y010153D01*
X001655Y010055D02*
X001845Y010055D01*
X001845Y009956D02*
X001655Y009956D01*
X001630Y009858D02*
X001870Y009858D01*
X001918Y009759D02*
X001582Y009759D01*
X001484Y009661D02*
X002016Y009661D01*
X002169Y009405D02*
X002020Y009344D01*
X001906Y009230D01*
X001845Y009081D01*
X001845Y008919D01*
X001906Y008770D01*
X002020Y008656D01*
X002169Y008595D01*
X002331Y008595D01*
X002480Y008656D01*
X002594Y008770D01*
X002655Y008919D01*
X002655Y009081D01*
X002594Y009230D01*
X002480Y009344D01*
X002331Y009405D01*
X002169Y009405D01*
X002072Y009365D02*
X001428Y009365D01*
X001480Y009344D02*
X001331Y009405D01*
X001169Y009405D01*
X001020Y009344D01*
X000906Y009230D01*
X000845Y009081D01*
X000845Y008919D01*
X000906Y008770D01*
X001020Y008656D01*
X001169Y008595D01*
X001331Y008595D01*
X001480Y008656D01*
X001594Y008770D01*
X001655Y008919D01*
X001655Y009081D01*
X001594Y009230D01*
X001480Y009344D01*
X001557Y009267D02*
X001943Y009267D01*
X001881Y009168D02*
X001619Y009168D01*
X001655Y009070D02*
X001845Y009070D01*
X001845Y008971D02*
X001655Y008971D01*
X001636Y008873D02*
X001864Y008873D01*
X001905Y008774D02*
X001595Y008774D01*
X001499Y008676D02*
X002001Y008676D01*
X002108Y008380D02*
X001392Y008380D01*
X001331Y008405D02*
X001480Y008344D01*
X001594Y008230D01*
X001655Y008081D01*
X001655Y007919D01*
X001594Y007770D01*
X001480Y007656D01*
X001331Y007595D01*
X001169Y007595D01*
X001020Y007656D01*
X000906Y007770D01*
X000845Y007919D01*
X000845Y008081D01*
X000906Y008230D01*
X001020Y008344D01*
X001169Y008405D01*
X001331Y008405D01*
X001542Y008282D02*
X001958Y008282D01*
X001906Y008230D02*
X001845Y008081D01*
X001845Y007919D01*
X001906Y007770D01*
X002020Y007656D01*
X002169Y007595D01*
X002331Y007595D01*
X002480Y007656D01*
X002594Y007770D01*
X002655Y007919D01*
X002655Y008081D01*
X002594Y008230D01*
X002480Y008344D01*
X002331Y008405D01*
X002169Y008405D01*
X002020Y008344D01*
X001906Y008230D01*
X001887Y008183D02*
X001613Y008183D01*
X001654Y008085D02*
X001846Y008085D01*
X001845Y007986D02*
X001655Y007986D01*
X001642Y007888D02*
X001858Y007888D01*
X001899Y007789D02*
X001601Y007789D01*
X001514Y007691D02*
X001986Y007691D01*
X002392Y008380D02*
X003959Y008380D01*
X003978Y008335D02*
X004085Y008228D01*
X004224Y008170D01*
X004376Y008170D01*
X004515Y008228D01*
X004622Y008335D01*
X004680Y008474D01*
X004680Y008626D01*
X004622Y008765D01*
X004515Y008872D01*
X004376Y008930D01*
X004224Y008930D01*
X004085Y008872D01*
X003978Y008765D01*
X003920Y008626D01*
X003920Y008474D01*
X003978Y008335D01*
X004031Y008282D02*
X002542Y008282D01*
X002613Y008183D02*
X004193Y008183D01*
X004407Y008183D02*
X005193Y008183D01*
X005224Y008170D02*
X005376Y008170D01*
X005515Y008228D01*
X005622Y008335D01*
X005680Y008474D01*
X005680Y008626D01*
X005622Y008765D01*
X005515Y008872D01*
X005376Y008930D01*
X005224Y008930D01*
X005085Y008872D01*
X004978Y008765D01*
X004920Y008626D01*
X004920Y008474D01*
X004978Y008335D01*
X005085Y008228D01*
X005224Y008170D01*
X005407Y008183D02*
X006525Y008183D01*
X006525Y008085D02*
X002654Y008085D01*
X002655Y007986D02*
X006525Y007986D01*
X006525Y007888D02*
X002642Y007888D01*
X002601Y007789D02*
X006525Y007789D01*
X006525Y007691D02*
X004036Y007691D01*
X004001Y007705D02*
X003899Y007705D01*
X003806Y007666D01*
X003734Y007594D01*
X003695Y007501D01*
X003695Y007399D01*
X003734Y007306D01*
X003806Y007234D01*
X003899Y007195D01*
X004001Y007195D01*
X004094Y007234D01*
X004166Y007306D01*
X004205Y007399D01*
X004205Y007501D01*
X004166Y007594D01*
X004094Y007666D01*
X004001Y007705D01*
X003864Y007691D02*
X002514Y007691D01*
X002499Y008676D02*
X003941Y008676D01*
X003920Y008577D02*
X000725Y008577D01*
X000725Y008479D02*
X003920Y008479D01*
X003987Y008774D02*
X002595Y008774D01*
X002636Y008873D02*
X004086Y008873D01*
X004514Y008873D02*
X005086Y008873D01*
X004987Y008774D02*
X004613Y008774D01*
X004659Y008676D02*
X004941Y008676D01*
X004920Y008577D02*
X004680Y008577D01*
X004680Y008479D02*
X004920Y008479D01*
X004959Y008380D02*
X004641Y008380D01*
X004569Y008282D02*
X005031Y008282D01*
X005514Y008873D02*
X018250Y008873D01*
X018250Y008971D02*
X002655Y008971D01*
X002655Y009070D02*
X018248Y009070D01*
X018225Y009168D02*
X002619Y009168D01*
X002557Y009267D02*
X018157Y009267D01*
X018260Y009464D02*
X021775Y009464D01*
X021775Y009562D02*
X016179Y009562D01*
X016102Y009365D02*
X007549Y009365D01*
X007669Y009464D02*
X015591Y009464D01*
X015650Y009661D02*
X020016Y009661D01*
X020020Y009656D02*
X020169Y009595D01*
X020331Y009595D01*
X020480Y009656D01*
X020594Y009770D01*
X020655Y009919D01*
X020655Y010081D01*
X020594Y010230D01*
X020480Y010344D01*
X020331Y010405D01*
X020169Y010405D01*
X020020Y010344D01*
X019906Y010230D01*
X019845Y010081D01*
X019845Y009919D01*
X019906Y009770D01*
X020020Y009656D01*
X019918Y009759D02*
X015378Y009759D01*
X015385Y009928D02*
X015524Y009870D01*
X015676Y009870D01*
X015815Y009928D01*
X015922Y010035D01*
X015980Y010174D01*
X015980Y010326D01*
X015922Y010465D01*
X015815Y010572D01*
X015676Y010630D01*
X015524Y010630D01*
X015385Y010572D01*
X015278Y010465D01*
X015220Y010326D01*
X015220Y010174D01*
X015278Y010035D01*
X015385Y009928D01*
X015357Y009956D02*
X015009Y009956D01*
X014866Y010055D02*
X015270Y010055D01*
X015229Y010153D02*
X014743Y010153D01*
X014633Y010252D02*
X015220Y010252D01*
X015230Y010350D02*
X014536Y010350D01*
X014446Y010449D02*
X015271Y010449D01*
X015360Y010547D02*
X014370Y010547D01*
X014295Y010646D02*
X020047Y010646D01*
X020020Y010656D02*
X020169Y010595D01*
X020331Y010595D01*
X020480Y010656D01*
X020594Y010770D01*
X020655Y010919D01*
X020655Y011081D01*
X020594Y011230D01*
X020480Y011344D01*
X020331Y011405D01*
X020169Y011405D01*
X020020Y011344D01*
X019906Y011230D01*
X019845Y011081D01*
X019845Y010919D01*
X019906Y010770D01*
X020020Y010656D01*
X019933Y010744D02*
X014234Y010744D01*
X014176Y010843D02*
X019877Y010843D01*
X019845Y010941D02*
X014120Y010941D01*
X014077Y011040D02*
X019845Y011040D01*
X019869Y011138D02*
X014034Y011138D01*
X013995Y011237D02*
X015485Y011237D01*
X015524Y011220D02*
X015676Y011220D01*
X015815Y011278D01*
X015922Y011385D01*
X015980Y011524D01*
X015980Y011676D01*
X015922Y011815D01*
X015815Y011922D01*
X015676Y011980D01*
X015524Y011980D01*
X015385Y011922D01*
X015278Y011815D01*
X015220Y011676D01*
X015220Y011524D01*
X015278Y011385D01*
X015385Y011278D01*
X015524Y011220D01*
X015715Y011237D02*
X016485Y011237D01*
X016524Y011220D02*
X016676Y011220D01*
X016815Y011278D01*
X016922Y011385D01*
X016980Y011524D01*
X016980Y011676D01*
X016922Y011815D01*
X016815Y011922D01*
X016676Y011980D01*
X016524Y011980D01*
X016385Y011922D01*
X016278Y011815D01*
X016220Y011676D01*
X016220Y011524D01*
X016278Y011385D01*
X016385Y011278D01*
X016524Y011220D01*
X016715Y011237D02*
X017485Y011237D01*
X017524Y011220D02*
X017385Y011278D01*
X017278Y011385D01*
X017220Y011524D01*
X017220Y011676D01*
X017278Y011815D01*
X017385Y011922D01*
X017524Y011980D01*
X017676Y011980D01*
X017815Y011922D01*
X017922Y011815D01*
X017980Y011676D01*
X017980Y011524D01*
X017922Y011385D01*
X017815Y011278D01*
X017676Y011220D01*
X017524Y011220D01*
X017715Y011237D02*
X019913Y011237D01*
X020012Y011335D02*
X017872Y011335D01*
X017942Y011434D02*
X021775Y011434D01*
X021775Y011532D02*
X017980Y011532D01*
X017980Y011631D02*
X020083Y011631D01*
X020020Y011656D02*
X020169Y011595D01*
X020331Y011595D01*
X020480Y011656D01*
X020594Y011770D01*
X020655Y011919D01*
X020655Y012081D01*
X020594Y012230D01*
X020480Y012344D01*
X020331Y012405D01*
X020169Y012405D01*
X020020Y012344D01*
X019906Y012230D01*
X019845Y012081D01*
X019845Y011919D01*
X019906Y011770D01*
X020020Y011656D01*
X019948Y011729D02*
X017958Y011729D01*
X017910Y011828D02*
X019883Y011828D01*
X019845Y011926D02*
X017806Y011926D01*
X017394Y011926D02*
X016806Y011926D01*
X016910Y011828D02*
X017290Y011828D01*
X017242Y011729D02*
X016958Y011729D01*
X016980Y011631D02*
X017220Y011631D01*
X017220Y011532D02*
X016980Y011532D01*
X016942Y011434D02*
X017258Y011434D01*
X017328Y011335D02*
X016872Y011335D01*
X016676Y010630D02*
X016524Y010630D01*
X016385Y010572D01*
X016278Y010465D01*
X016220Y010326D01*
X016220Y010174D01*
X016278Y010035D01*
X016385Y009928D01*
X016524Y009870D01*
X016676Y009870D01*
X016815Y009928D01*
X016922Y010035D01*
X016980Y010174D01*
X016980Y010326D01*
X016922Y010465D01*
X016815Y010572D01*
X016676Y010630D01*
X016840Y010547D02*
X017360Y010547D01*
X017385Y010572D02*
X017278Y010465D01*
X017220Y010326D01*
X017220Y010174D01*
X017278Y010035D01*
X017385Y009928D01*
X017524Y009870D01*
X017676Y009870D01*
X017815Y009928D01*
X017922Y010035D01*
X017980Y010174D01*
X017980Y010326D01*
X017922Y010465D01*
X017815Y010572D01*
X017676Y010630D01*
X017524Y010630D01*
X017385Y010572D01*
X017271Y010449D02*
X016929Y010449D01*
X016970Y010350D02*
X017230Y010350D01*
X017220Y010252D02*
X016980Y010252D01*
X016971Y010153D02*
X017229Y010153D01*
X017270Y010055D02*
X016930Y010055D01*
X016843Y009956D02*
X017357Y009956D01*
X017843Y009956D02*
X019845Y009956D01*
X019845Y010055D02*
X017930Y010055D01*
X017971Y010153D02*
X019875Y010153D01*
X019928Y010252D02*
X017980Y010252D01*
X017970Y010350D02*
X020036Y010350D01*
X019870Y009858D02*
X015169Y009858D01*
X015093Y009661D02*
X007701Y009661D01*
X007705Y009562D02*
X015311Y009562D01*
X014930Y009759D02*
X007652Y009759D01*
X007351Y009365D02*
X002428Y009365D01*
X002047Y010646D02*
X001453Y010646D01*
X001480Y010656D02*
X001594Y010770D01*
X001655Y010919D01*
X001655Y011081D01*
X001594Y011230D01*
X001480Y011344D01*
X001331Y011405D01*
X001169Y011405D01*
X001020Y011344D01*
X000906Y011230D01*
X000845Y011081D01*
X000845Y010919D01*
X000906Y010770D01*
X001020Y010656D01*
X001169Y010595D01*
X001331Y010595D01*
X001480Y010656D01*
X001567Y010744D02*
X001933Y010744D01*
X001877Y010843D02*
X001623Y010843D01*
X001655Y010941D02*
X001845Y010941D01*
X001845Y011040D02*
X001655Y011040D01*
X001631Y011138D02*
X001869Y011138D01*
X001913Y011237D02*
X001587Y011237D01*
X001488Y011335D02*
X002012Y011335D01*
X002083Y011631D02*
X001417Y011631D01*
X001480Y011656D02*
X001594Y011770D01*
X001655Y011919D01*
X001655Y012081D01*
X001594Y012230D01*
X001480Y012344D01*
X001331Y012405D01*
X001169Y012405D01*
X001020Y012344D01*
X000906Y012230D01*
X000845Y012081D01*
X000845Y011919D01*
X000906Y011770D01*
X001020Y011656D01*
X001169Y011595D01*
X001331Y011595D01*
X001480Y011656D01*
X001552Y011729D02*
X001948Y011729D01*
X001883Y011828D02*
X001617Y011828D01*
X001655Y011926D02*
X001845Y011926D01*
X001845Y012025D02*
X001655Y012025D01*
X001638Y012123D02*
X001862Y012123D01*
X001903Y012222D02*
X001597Y012222D01*
X001503Y012320D02*
X001997Y012320D01*
X002119Y012616D02*
X001381Y012616D01*
X001537Y012714D02*
X001963Y012714D01*
X001889Y012813D02*
X001611Y012813D01*
X001652Y012911D02*
X001848Y012911D01*
X001845Y013010D02*
X001655Y013010D01*
X001644Y013108D02*
X001856Y013108D01*
X001897Y013207D02*
X001603Y013207D01*
X001518Y013305D02*
X001982Y013305D01*
X001119Y012616D02*
X000725Y012616D01*
X000725Y012714D02*
X000963Y012714D01*
X000889Y012813D02*
X000725Y012813D01*
X000725Y012911D02*
X000848Y012911D01*
X000845Y013010D02*
X000725Y013010D01*
X000725Y013108D02*
X000856Y013108D01*
X000897Y013207D02*
X000725Y013207D01*
X000725Y013305D02*
X000982Y013305D01*
X000725Y012517D02*
X004522Y012517D01*
X004878Y012517D02*
X013650Y012517D01*
X013650Y012419D02*
X000725Y012419D01*
X000725Y012320D02*
X000997Y012320D01*
X000903Y012222D02*
X000725Y012222D01*
X000725Y012123D02*
X000862Y012123D01*
X000845Y012025D02*
X000725Y012025D01*
X000725Y011926D02*
X000845Y011926D01*
X000883Y011828D02*
X000725Y011828D01*
X000725Y011729D02*
X000948Y011729D01*
X001083Y011631D02*
X000725Y011631D01*
X000725Y011532D02*
X007202Y011532D01*
X007195Y011631D02*
X002417Y011631D01*
X002552Y011729D02*
X007227Y011729D01*
X007333Y011828D02*
X002617Y011828D01*
X002488Y011335D02*
X013750Y011335D01*
X013781Y011237D02*
X002587Y011237D01*
X002631Y011138D02*
X013811Y011138D01*
X013849Y011040D02*
X002655Y011040D01*
X002655Y010941D02*
X013894Y010941D01*
X014050Y010646D02*
X007686Y010646D01*
X007705Y010547D02*
X014109Y010547D01*
X014181Y010449D02*
X007684Y010449D01*
X007611Y010350D02*
X014258Y010350D01*
X014337Y010252D02*
X003312Y010252D01*
X003355Y010350D02*
X007289Y010350D01*
X007216Y010449D02*
X003355Y010449D01*
X003314Y010547D02*
X007195Y010547D01*
X007256Y011434D02*
X000725Y011434D01*
X000725Y011335D02*
X001012Y011335D01*
X000913Y011237D02*
X000725Y011237D01*
X000725Y011138D02*
X000869Y011138D01*
X000845Y011040D02*
X000725Y011040D01*
X000725Y010941D02*
X000845Y010941D01*
X000877Y010843D02*
X000725Y010843D01*
X000725Y010744D02*
X000933Y010744D01*
X001047Y010646D02*
X000725Y010646D01*
X000725Y010350D02*
X001036Y010350D01*
X000928Y010252D02*
X000725Y010252D01*
X000725Y010153D02*
X000875Y010153D01*
X000845Y010055D02*
X000725Y010055D01*
X000725Y009956D02*
X000845Y009956D01*
X000870Y009858D02*
X000725Y009858D01*
X000725Y009759D02*
X000918Y009759D01*
X001016Y009661D02*
X000725Y009661D01*
X000725Y009562D02*
X007195Y009562D01*
X007231Y009464D02*
X000725Y009464D01*
X000725Y009365D02*
X001072Y009365D01*
X000943Y009267D02*
X000725Y009267D01*
X000725Y009168D02*
X000881Y009168D01*
X000845Y009070D02*
X000725Y009070D01*
X000725Y008971D02*
X000845Y008971D01*
X000864Y008873D02*
X000725Y008873D01*
X000725Y008774D02*
X000905Y008774D01*
X001001Y008676D02*
X000725Y008676D01*
X000725Y008380D02*
X001108Y008380D01*
X000958Y008282D02*
X000725Y008282D01*
X000725Y008183D02*
X000887Y008183D01*
X000846Y008085D02*
X000725Y008085D01*
X000725Y007986D02*
X000845Y007986D01*
X000858Y007888D02*
X000725Y007888D01*
X000725Y007789D02*
X000899Y007789D01*
X000986Y007691D02*
X000725Y007691D01*
X000725Y007592D02*
X003733Y007592D01*
X003695Y007494D02*
X000725Y007494D01*
X000725Y007395D02*
X003697Y007395D01*
X003743Y007297D02*
X000725Y007297D01*
X000725Y007198D02*
X003892Y007198D01*
X004008Y007198D02*
X006525Y007198D01*
X006525Y007100D02*
X000725Y007100D01*
X000725Y007001D02*
X006525Y007001D01*
X006525Y006903D02*
X000725Y006903D01*
X000725Y006804D02*
X006525Y006804D01*
X006525Y006706D02*
X000725Y006706D01*
X000725Y006607D02*
X006525Y006607D01*
X006525Y006509D02*
X000725Y006509D01*
X000725Y006410D02*
X006525Y006410D01*
X006525Y006312D02*
X000725Y006312D01*
X000725Y006213D02*
X006525Y006213D01*
X006525Y006115D02*
X000725Y006115D01*
X000725Y006016D02*
X006525Y006016D01*
X006525Y005918D02*
X000725Y005918D01*
X000725Y005819D02*
X006525Y005819D01*
X006525Y005721D02*
X000725Y005721D01*
X000725Y005622D02*
X006525Y005622D01*
X006525Y005524D02*
X000725Y005524D01*
X000725Y005425D02*
X006525Y005425D01*
X006525Y005327D02*
X000725Y005327D01*
X000725Y005228D02*
X003667Y005228D01*
X003634Y005194D02*
X003706Y005266D01*
X003799Y005305D01*
X003901Y005305D01*
X003994Y005266D01*
X004066Y005194D01*
X004105Y005101D01*
X004105Y004999D01*
X004066Y004906D01*
X003994Y004834D01*
X003901Y004795D01*
X003799Y004795D01*
X003706Y004834D01*
X003634Y004906D01*
X003595Y004999D01*
X003595Y005101D01*
X003634Y005194D01*
X003607Y005130D02*
X000725Y005130D01*
X000725Y005031D02*
X003595Y005031D01*
X003623Y004933D02*
X000725Y004933D01*
X000725Y004834D02*
X003705Y004834D01*
X003995Y004834D02*
X006525Y004834D01*
X006525Y004736D02*
X000725Y004736D01*
X000725Y004637D02*
X006525Y004637D01*
X006525Y004539D02*
X000725Y004539D01*
X000725Y004440D02*
X006525Y004440D01*
X006525Y004342D02*
X000725Y004342D01*
X000725Y004243D02*
X006525Y004243D01*
X006525Y004145D02*
X000725Y004145D01*
X000725Y004046D02*
X006525Y004046D01*
X006525Y003948D02*
X000725Y003948D01*
X000725Y003849D02*
X006525Y003849D01*
X006525Y003751D02*
X000725Y003751D01*
X000725Y003652D02*
X006525Y003652D01*
X006525Y003554D02*
X000725Y003554D01*
X000725Y003455D02*
X006525Y003455D01*
X006525Y003357D02*
X000725Y003357D01*
X000725Y003258D02*
X006525Y003258D01*
X006525Y003160D02*
X000725Y003160D01*
X000725Y003061D02*
X006525Y003061D01*
X006525Y004933D02*
X004077Y004933D01*
X004105Y005031D02*
X006525Y005031D01*
X006525Y005130D02*
X004093Y005130D01*
X004033Y005228D02*
X006525Y005228D01*
X006525Y007297D02*
X004157Y007297D01*
X004203Y007395D02*
X006525Y007395D01*
X006525Y007494D02*
X004205Y007494D01*
X004167Y007592D02*
X006525Y007592D01*
X006525Y008282D02*
X005569Y008282D01*
X005641Y008380D02*
X006525Y008380D01*
X006541Y008479D02*
X005680Y008479D01*
X005680Y008577D02*
X006598Y008577D01*
X006714Y008676D02*
X005659Y008676D01*
X005613Y008774D02*
X018250Y008774D01*
X018250Y008676D02*
X013786Y008676D01*
X013902Y008577D02*
X018250Y008577D01*
X018250Y008479D02*
X013959Y008479D01*
X013975Y008380D02*
X018250Y008380D01*
X018250Y008282D02*
X013975Y008282D01*
X013975Y008183D02*
X018250Y008183D01*
X018250Y008085D02*
X013975Y008085D01*
X013975Y007986D02*
X018250Y007986D01*
X018250Y007888D02*
X013975Y007888D01*
X013975Y007789D02*
X018250Y007789D01*
X018250Y007691D02*
X013975Y007691D01*
X013975Y007592D02*
X014269Y007592D01*
X014270Y007594D02*
X014156Y007480D01*
X014095Y007331D01*
X014095Y007169D01*
X014156Y007020D01*
X014270Y006906D01*
X014419Y006845D01*
X014581Y006845D01*
X014730Y006906D01*
X014844Y007020D01*
X014905Y007169D01*
X014905Y007331D01*
X014844Y007480D01*
X014730Y007594D01*
X014581Y007655D01*
X014419Y007655D01*
X014270Y007594D01*
X014170Y007494D02*
X013975Y007494D01*
X013975Y007395D02*
X014121Y007395D01*
X014095Y007297D02*
X013975Y007297D01*
X013975Y007198D02*
X014095Y007198D01*
X014124Y007100D02*
X013975Y007100D01*
X013975Y007001D02*
X014176Y007001D01*
X014280Y006903D02*
X013975Y006903D01*
X013975Y006804D02*
X019922Y006804D01*
X019895Y006903D02*
X015720Y006903D01*
X015730Y006906D02*
X015844Y007020D01*
X015905Y007169D01*
X015905Y007331D01*
X015844Y007480D01*
X015730Y007594D01*
X015581Y007655D01*
X015419Y007655D01*
X015270Y007594D01*
X015156Y007480D01*
X015095Y007331D01*
X015095Y007169D01*
X015156Y007020D01*
X015270Y006906D01*
X015419Y006845D01*
X015581Y006845D01*
X015730Y006906D01*
X015824Y007001D02*
X019895Y007001D01*
X019923Y007100D02*
X015876Y007100D01*
X015905Y007198D02*
X019975Y007198D01*
X020079Y007587D02*
X020146Y007566D01*
X020202Y007557D01*
X020202Y007952D01*
X019807Y007952D01*
X019816Y007896D01*
X019837Y007829D01*
X019869Y007767D01*
X019910Y007710D01*
X019960Y007660D01*
X020017Y007619D01*
X020079Y007587D01*
X020070Y007592D02*
X018458Y007592D01*
X018450Y007691D02*
X019930Y007691D01*
X019858Y007789D02*
X018450Y007789D01*
X018450Y007888D02*
X019818Y007888D01*
X019807Y008048D02*
X020202Y008048D01*
X020202Y007952D01*
X020298Y007952D01*
X020298Y008048D01*
X020202Y008048D01*
X020202Y008443D01*
X020146Y008434D01*
X020079Y008413D01*
X020017Y008381D01*
X019960Y008340D01*
X019910Y008290D01*
X019869Y008233D01*
X019837Y008171D01*
X019816Y008104D01*
X019807Y008048D01*
X019813Y008085D02*
X018450Y008085D01*
X018450Y008183D02*
X019844Y008183D01*
X019904Y008282D02*
X018450Y008282D01*
X018450Y008380D02*
X020016Y008380D01*
X020202Y008380D02*
X020298Y008380D01*
X020298Y008443D02*
X020298Y008048D01*
X020693Y008048D01*
X020684Y008104D01*
X020663Y008171D01*
X020631Y008233D01*
X020590Y008290D01*
X020540Y008340D01*
X020483Y008381D01*
X020421Y008413D01*
X020354Y008434D01*
X020298Y008443D01*
X020331Y008595D02*
X020480Y008656D01*
X020594Y008770D01*
X020655Y008919D01*
X020655Y009081D01*
X020594Y009230D01*
X020480Y009344D01*
X020331Y009405D01*
X020169Y009405D01*
X020020Y009344D01*
X019906Y009230D01*
X019845Y009081D01*
X019845Y008919D01*
X019906Y008770D01*
X020020Y008656D01*
X020169Y008595D01*
X020331Y008595D01*
X020499Y008676D02*
X021001Y008676D01*
X021020Y008656D02*
X020906Y008770D01*
X020845Y008919D01*
X020845Y009081D01*
X020906Y009230D01*
X021020Y009344D01*
X021169Y009405D01*
X021331Y009405D01*
X021480Y009344D01*
X021594Y009230D01*
X021655Y009081D01*
X021655Y008919D01*
X021594Y008770D01*
X021480Y008656D01*
X021331Y008595D01*
X021169Y008595D01*
X021020Y008656D01*
X020905Y008774D02*
X020595Y008774D01*
X020636Y008873D02*
X020864Y008873D01*
X020845Y008971D02*
X020655Y008971D01*
X020655Y009070D02*
X020845Y009070D01*
X020881Y009168D02*
X020619Y009168D01*
X020557Y009267D02*
X020943Y009267D01*
X021072Y009365D02*
X020428Y009365D01*
X020484Y009661D02*
X021016Y009661D01*
X021020Y009656D02*
X021169Y009595D01*
X021331Y009595D01*
X021480Y009656D01*
X021594Y009770D01*
X021655Y009919D01*
X021655Y010081D01*
X021594Y010230D01*
X021480Y010344D01*
X021331Y010405D01*
X021169Y010405D01*
X021020Y010344D01*
X020906Y010230D01*
X020845Y010081D01*
X020845Y009919D01*
X020906Y009770D01*
X021020Y009656D01*
X020918Y009759D02*
X020582Y009759D01*
X020630Y009858D02*
X020870Y009858D01*
X020845Y009956D02*
X020655Y009956D01*
X020655Y010055D02*
X020845Y010055D01*
X020875Y010153D02*
X020625Y010153D01*
X020572Y010252D02*
X020928Y010252D01*
X021036Y010350D02*
X020464Y010350D01*
X020453Y010646D02*
X021047Y010646D01*
X021020Y010656D02*
X021169Y010595D01*
X021331Y010595D01*
X021480Y010656D01*
X021594Y010770D01*
X021655Y010919D01*
X021655Y011081D01*
X021594Y011230D01*
X021480Y011344D01*
X021331Y011405D01*
X021169Y011405D01*
X021020Y011344D01*
X020906Y011230D01*
X020845Y011081D01*
X020845Y010919D01*
X020906Y010770D01*
X021020Y010656D01*
X020933Y010744D02*
X020567Y010744D01*
X020623Y010843D02*
X020877Y010843D01*
X020845Y010941D02*
X020655Y010941D01*
X020655Y011040D02*
X020845Y011040D01*
X020869Y011138D02*
X020631Y011138D01*
X020587Y011237D02*
X020913Y011237D01*
X021012Y011335D02*
X020488Y011335D01*
X020417Y011631D02*
X021083Y011631D01*
X021020Y011656D02*
X021169Y011595D01*
X021331Y011595D01*
X021480Y011656D01*
X021594Y011770D01*
X021655Y011919D01*
X021655Y012081D01*
X021594Y012230D01*
X021480Y012344D01*
X021331Y012405D01*
X021169Y012405D01*
X021020Y012344D01*
X020906Y012230D01*
X020845Y012081D01*
X020845Y011919D01*
X020906Y011770D01*
X021020Y011656D01*
X020948Y011729D02*
X020552Y011729D01*
X020617Y011828D02*
X020883Y011828D01*
X020845Y011926D02*
X020655Y011926D01*
X020655Y012025D02*
X020845Y012025D01*
X020862Y012123D02*
X020638Y012123D01*
X020597Y012222D02*
X020903Y012222D01*
X020997Y012320D02*
X020503Y012320D01*
X020381Y012616D02*
X021119Y012616D01*
X021169Y012595D02*
X021331Y012595D01*
X021480Y012656D01*
X021594Y012770D01*
X021655Y012919D01*
X021655Y013081D01*
X021594Y013230D01*
X021480Y013344D01*
X021331Y013405D01*
X021169Y013405D01*
X021020Y013344D01*
X020906Y013230D01*
X020845Y013081D01*
X020845Y012919D01*
X020906Y012770D01*
X021020Y012656D01*
X021169Y012595D01*
X021381Y012616D02*
X021775Y012616D01*
X021775Y012714D02*
X021537Y012714D01*
X021611Y012813D02*
X021775Y012813D01*
X021775Y012911D02*
X021652Y012911D01*
X021655Y013010D02*
X021775Y013010D01*
X021775Y013108D02*
X021644Y013108D01*
X021603Y013207D02*
X021775Y013207D01*
X021775Y013305D02*
X021518Y013305D01*
X021335Y013404D02*
X021775Y013404D01*
X021775Y013502D02*
X013850Y013502D01*
X013850Y013404D02*
X020165Y013404D01*
X020169Y013405D02*
X020020Y013344D01*
X019906Y013230D01*
X019845Y013081D01*
X019845Y012919D01*
X019906Y012770D01*
X020020Y012656D01*
X020169Y012595D01*
X020331Y012595D01*
X020480Y012656D01*
X020594Y012770D01*
X020655Y012919D01*
X020655Y013081D01*
X020594Y013230D01*
X020480Y013344D01*
X020331Y013405D01*
X020169Y013405D01*
X020335Y013404D02*
X021165Y013404D01*
X021169Y013595D02*
X021020Y013656D01*
X020906Y013770D01*
X020845Y013919D01*
X020845Y014081D01*
X020906Y014230D01*
X021020Y014344D01*
X021169Y014405D01*
X021331Y014405D01*
X021480Y014344D01*
X021594Y014230D01*
X021655Y014081D01*
X021655Y013919D01*
X021594Y013770D01*
X021480Y013656D01*
X021331Y013595D01*
X021169Y013595D01*
X021155Y013601D02*
X020345Y013601D01*
X020331Y013595D02*
X020480Y013656D01*
X020594Y013770D01*
X020655Y013919D01*
X020655Y014081D01*
X020594Y014230D01*
X020480Y014344D01*
X020331Y014405D01*
X020169Y014405D01*
X020020Y014344D01*
X019906Y014230D01*
X019845Y014081D01*
X019845Y013919D01*
X019906Y013770D01*
X020020Y013656D01*
X020169Y013595D01*
X020331Y013595D01*
X020155Y013601D02*
X013850Y013601D01*
X013850Y013699D02*
X019978Y013699D01*
X019895Y013798D02*
X013850Y013798D01*
X013850Y013896D02*
X019854Y013896D01*
X019845Y013995D02*
X013850Y013995D01*
X013850Y014093D02*
X019850Y014093D01*
X019891Y014192D02*
X013850Y014192D01*
X013850Y014290D02*
X018249Y014290D01*
X018234Y014306D02*
X018306Y014234D01*
X018399Y014195D01*
X018501Y014195D01*
X018594Y014234D01*
X018666Y014306D01*
X018705Y014399D01*
X018705Y014501D01*
X018666Y014594D01*
X018594Y014666D01*
X018501Y014705D01*
X018399Y014705D01*
X018306Y014666D01*
X018234Y014594D01*
X018195Y014501D01*
X018195Y014399D01*
X018234Y014306D01*
X018199Y014389D02*
X013850Y014389D01*
X013850Y014487D02*
X018195Y014487D01*
X018230Y014586D02*
X013850Y014586D01*
X013850Y014684D02*
X018349Y014684D01*
X018551Y014684D02*
X019993Y014684D01*
X020020Y014656D02*
X020169Y014595D01*
X020331Y014595D01*
X020480Y014656D01*
X020594Y014770D01*
X020655Y014919D01*
X020655Y015081D01*
X020594Y015230D01*
X020480Y015344D01*
X020331Y015405D01*
X020169Y015405D01*
X020020Y015344D01*
X019906Y015230D01*
X019845Y015081D01*
X019845Y014919D01*
X019906Y014770D01*
X020020Y014656D01*
X019901Y014783D02*
X013850Y014783D01*
X013838Y014881D02*
X019861Y014881D01*
X019845Y014980D02*
X013824Y014980D01*
X013807Y015078D02*
X019845Y015078D01*
X019884Y015177D02*
X013780Y015177D01*
X013754Y015275D02*
X019952Y015275D01*
X020093Y015374D02*
X013718Y015374D01*
X013678Y015472D02*
X021775Y015472D01*
X021775Y015374D02*
X021407Y015374D01*
X021480Y015344D02*
X021331Y015405D01*
X021169Y015405D01*
X021020Y015344D01*
X020906Y015230D01*
X020845Y015081D01*
X020845Y014919D01*
X020906Y014770D01*
X021020Y014656D01*
X021169Y014595D01*
X021331Y014595D01*
X021480Y014656D01*
X021594Y014770D01*
X021655Y014919D01*
X021655Y015081D01*
X021594Y015230D01*
X021480Y015344D01*
X021548Y015275D02*
X021775Y015275D01*
X021775Y015177D02*
X021616Y015177D01*
X021655Y015078D02*
X021775Y015078D01*
X021775Y014980D02*
X021655Y014980D01*
X021639Y014881D02*
X021775Y014881D01*
X021775Y014783D02*
X021599Y014783D01*
X021507Y014684D02*
X021775Y014684D01*
X021775Y014586D02*
X018670Y014586D01*
X018705Y014487D02*
X021775Y014487D01*
X021775Y014389D02*
X021371Y014389D01*
X021533Y014290D02*
X021775Y014290D01*
X021775Y014192D02*
X021609Y014192D01*
X021650Y014093D02*
X021775Y014093D01*
X021775Y013995D02*
X021655Y013995D01*
X021646Y013896D02*
X021775Y013896D01*
X021775Y013798D02*
X021605Y013798D01*
X021522Y013699D02*
X021775Y013699D01*
X021775Y013601D02*
X021345Y013601D01*
X020978Y013699D02*
X020522Y013699D01*
X020605Y013798D02*
X020895Y013798D01*
X020854Y013896D02*
X020646Y013896D01*
X020655Y013995D02*
X020845Y013995D01*
X020850Y014093D02*
X020650Y014093D01*
X020609Y014192D02*
X020891Y014192D01*
X020967Y014290D02*
X020533Y014290D01*
X020371Y014389D02*
X021129Y014389D01*
X020993Y014684D02*
X020507Y014684D01*
X020599Y014783D02*
X020901Y014783D01*
X020861Y014881D02*
X020639Y014881D01*
X020655Y014980D02*
X020845Y014980D01*
X020845Y015078D02*
X020655Y015078D01*
X020616Y015177D02*
X020884Y015177D01*
X020952Y015275D02*
X020548Y015275D01*
X020407Y015374D02*
X021093Y015374D01*
X021169Y015595D02*
X021020Y015656D01*
X020906Y015770D01*
X020845Y015919D01*
X020845Y016081D01*
X020906Y016230D01*
X021020Y016344D01*
X021169Y016405D01*
X021331Y016405D01*
X021480Y016344D01*
X021594Y016230D01*
X021655Y016081D01*
X021655Y015919D01*
X021594Y015770D01*
X021480Y015656D01*
X021331Y015595D01*
X021169Y015595D01*
X021008Y015669D02*
X020492Y015669D01*
X020480Y015656D02*
X020594Y015770D01*
X020655Y015919D01*
X020655Y016081D01*
X020594Y016230D01*
X020480Y016344D01*
X020331Y016405D01*
X020169Y016405D01*
X020020Y016344D01*
X019906Y016230D01*
X019845Y016081D01*
X019845Y015919D01*
X019906Y015770D01*
X020020Y015656D01*
X020169Y015595D01*
X020331Y015595D01*
X020480Y015656D01*
X020591Y015768D02*
X020909Y015768D01*
X020867Y015866D02*
X020633Y015866D01*
X020655Y015965D02*
X020845Y015965D01*
X020845Y016063D02*
X020655Y016063D01*
X020622Y016162D02*
X020878Y016162D01*
X020937Y016260D02*
X020563Y016260D01*
X020443Y016359D02*
X021057Y016359D01*
X021169Y016595D02*
X021020Y016656D01*
X020906Y016770D01*
X020845Y016919D01*
X020845Y017081D01*
X020906Y017230D01*
X021020Y017344D01*
X021169Y017405D01*
X021331Y017405D01*
X021480Y017344D01*
X021594Y017230D01*
X021655Y017081D01*
X021655Y016919D01*
X021594Y016770D01*
X021480Y016656D01*
X021331Y016595D01*
X021169Y016595D01*
X021026Y016654D02*
X020474Y016654D01*
X020480Y016656D02*
X020594Y016770D01*
X020655Y016919D01*
X020655Y017081D01*
X020594Y017230D01*
X020480Y017344D01*
X020331Y017405D01*
X020169Y017405D01*
X020020Y017344D01*
X019906Y017230D01*
X019845Y017081D01*
X019845Y016919D01*
X019906Y016770D01*
X020020Y016656D01*
X020169Y016595D01*
X020331Y016595D01*
X020480Y016656D01*
X020576Y016753D02*
X020924Y016753D01*
X020873Y016851D02*
X020627Y016851D01*
X020655Y016950D02*
X020845Y016950D01*
X020845Y017048D02*
X020655Y017048D01*
X020628Y017147D02*
X020872Y017147D01*
X020922Y017245D02*
X020578Y017245D01*
X020480Y017344D02*
X021020Y017344D01*
X021062Y017639D02*
X020438Y017639D01*
X020561Y017738D02*
X020939Y017738D01*
X020879Y017836D02*
X020621Y017836D01*
X020655Y017935D02*
X020845Y017935D01*
X020845Y018033D02*
X020655Y018033D01*
X020634Y018132D02*
X020866Y018132D01*
X020907Y018230D02*
X020593Y018230D01*
X020495Y018329D02*
X021005Y018329D01*
X020954Y018723D02*
X020546Y018723D01*
X020615Y018821D02*
X020885Y018821D01*
X020845Y018920D02*
X020655Y018920D01*
X020655Y019018D02*
X020845Y019018D01*
X020860Y019117D02*
X020640Y019117D01*
X020600Y019215D02*
X020900Y019215D01*
X020990Y019314D02*
X020510Y019314D01*
X019969Y019708D02*
X011252Y019708D01*
X011205Y019806D02*
X019892Y019806D01*
X019114Y017836D02*
X016846Y017836D01*
X016969Y017738D02*
X019064Y017738D01*
X019052Y017639D02*
X017005Y017639D01*
X017001Y017541D02*
X019073Y017541D01*
X019136Y017442D02*
X016953Y017442D01*
X017056Y017316D02*
X016984Y017244D01*
X016945Y017151D01*
X016945Y017049D01*
X016984Y016956D01*
X017056Y016884D01*
X017149Y016845D01*
X017251Y016845D01*
X017344Y016884D01*
X017416Y016956D01*
X017455Y017049D01*
X017455Y017151D01*
X017416Y017244D01*
X017344Y017316D01*
X017251Y017355D01*
X017149Y017355D01*
X017056Y017316D01*
X017122Y017344D02*
X013855Y017344D01*
X013853Y017245D02*
X016984Y017245D01*
X016945Y017147D02*
X013807Y017147D01*
X013906Y017066D02*
X013834Y016994D01*
X013795Y016901D01*
X013795Y016799D01*
X013834Y016706D01*
X013906Y016634D01*
X013999Y016595D01*
X014101Y016595D01*
X014194Y016634D01*
X014266Y016706D01*
X014305Y016799D01*
X014305Y016901D01*
X014266Y016994D01*
X014194Y017066D01*
X014101Y017105D01*
X013999Y017105D01*
X013906Y017066D01*
X013887Y017048D02*
X013658Y017048D01*
X013542Y017048D02*
X009355Y017048D01*
X009355Y016999D02*
X009316Y016906D01*
X009244Y016834D01*
X009151Y016795D01*
X009049Y016795D01*
X008956Y016834D01*
X008884Y016906D01*
X008845Y016999D01*
X008845Y017101D01*
X008884Y017194D01*
X008956Y017266D01*
X009049Y017305D01*
X009151Y017305D01*
X009244Y017266D01*
X009316Y017194D01*
X009355Y017101D01*
X009355Y016999D01*
X009334Y016950D02*
X013815Y016950D01*
X013795Y016851D02*
X009262Y016851D01*
X009336Y017147D02*
X013393Y017147D01*
X013347Y017245D02*
X009266Y017245D01*
X008934Y017245D02*
X007925Y017245D01*
X007901Y017255D02*
X007799Y017255D01*
X007706Y017216D01*
X007634Y017144D01*
X007595Y017051D01*
X007595Y016949D01*
X007634Y016856D01*
X007706Y016784D01*
X007799Y016745D01*
X007901Y016745D01*
X007994Y016784D01*
X008066Y016856D01*
X008105Y016949D01*
X008105Y017051D01*
X008066Y017144D01*
X007994Y017216D01*
X007901Y017255D01*
X007775Y017245D02*
X003999Y017245D01*
X003919Y017344D02*
X013345Y017344D01*
X013383Y017442D02*
X003855Y017442D01*
X003656Y017344D02*
X002480Y017344D01*
X002578Y017245D02*
X003723Y017245D01*
X003791Y017147D02*
X002628Y017147D01*
X002655Y017048D02*
X003879Y017048D01*
X003972Y016950D02*
X002655Y016950D01*
X002627Y016851D02*
X004088Y016851D01*
X004225Y016753D02*
X002576Y016753D01*
X002474Y016654D02*
X004392Y016654D01*
X004486Y016851D02*
X007638Y016851D01*
X007595Y016950D02*
X004325Y016950D01*
X004195Y017048D02*
X007595Y017048D01*
X007636Y017147D02*
X004086Y017147D01*
X003605Y017442D02*
X000725Y017442D01*
X000725Y017344D02*
X001020Y017344D01*
X000922Y017245D02*
X000725Y017245D01*
X000725Y017147D02*
X000872Y017147D01*
X000845Y017048D02*
X000725Y017048D01*
X000725Y016950D02*
X000845Y016950D01*
X000873Y016851D02*
X000725Y016851D01*
X000725Y016753D02*
X000924Y016753D01*
X001026Y016654D02*
X000725Y016654D01*
X000725Y016556D02*
X004622Y016556D01*
X004708Y016753D02*
X007781Y016753D01*
X007850Y016650D02*
X005411Y016650D01*
X005488Y016359D02*
X007648Y016359D01*
X007599Y016260D02*
X005421Y016260D01*
X005079Y016260D02*
X002563Y016260D01*
X002622Y016162D02*
X007595Y016162D01*
X007631Y016063D02*
X002655Y016063D01*
X002655Y015965D02*
X007752Y015965D01*
X007948Y015965D02*
X013108Y015965D01*
X013199Y015866D02*
X002633Y015866D01*
X002591Y015768D02*
X013275Y015768D01*
X013345Y015669D02*
X002492Y015669D01*
X002443Y016359D02*
X005012Y016359D01*
X004995Y016457D02*
X000725Y016457D01*
X000725Y016359D02*
X001057Y016359D01*
X000937Y016260D02*
X000725Y016260D01*
X000725Y016162D02*
X000878Y016162D01*
X000845Y016063D02*
X000725Y016063D01*
X000725Y015965D02*
X000845Y015965D01*
X000867Y015866D02*
X000725Y015866D01*
X000725Y015768D02*
X000909Y015768D01*
X001008Y015669D02*
X000725Y015669D01*
X000725Y015571D02*
X013402Y015571D01*
X013458Y015472D02*
X005439Y015472D01*
X005496Y015374D02*
X013499Y015374D01*
X013539Y015275D02*
X005505Y015275D01*
X005475Y015177D02*
X013570Y015177D01*
X013634Y015571D02*
X021775Y015571D01*
X021775Y015669D02*
X021492Y015669D01*
X021591Y015768D02*
X021775Y015768D01*
X021775Y015866D02*
X021633Y015866D01*
X021655Y015965D02*
X021775Y015965D01*
X021775Y016063D02*
X021655Y016063D01*
X021622Y016162D02*
X021775Y016162D01*
X021775Y016260D02*
X021563Y016260D01*
X021443Y016359D02*
X021775Y016359D01*
X021775Y016457D02*
X016989Y016457D01*
X016982Y016460D02*
X016818Y016460D01*
X016668Y016398D01*
X016552Y016282D01*
X016490Y016132D01*
X016490Y015968D01*
X016552Y015818D01*
X016668Y015702D01*
X016818Y015640D01*
X016982Y015640D01*
X017132Y015702D01*
X017248Y015818D01*
X017310Y015968D01*
X017310Y016132D01*
X017248Y016282D01*
X017132Y016398D01*
X016982Y016460D01*
X016811Y016457D02*
X016092Y016457D01*
X016073Y016467D02*
X016005Y016489D01*
X015950Y016498D01*
X015950Y016100D01*
X015850Y016100D01*
X015850Y016498D01*
X015795Y016489D01*
X015727Y016467D01*
X015664Y016435D01*
X015607Y016393D01*
X015557Y016343D01*
X015515Y016286D01*
X015483Y016223D01*
X015461Y016155D01*
X015452Y016100D01*
X015850Y016100D01*
X015850Y016000D01*
X015452Y016000D01*
X015461Y015945D01*
X015483Y015877D01*
X015515Y015814D01*
X015557Y015757D01*
X015607Y015707D01*
X015664Y015665D01*
X015727Y015633D01*
X015795Y015611D01*
X015850Y015602D01*
X015850Y016000D01*
X015950Y016000D01*
X015950Y016100D01*
X016348Y016100D01*
X016339Y016155D01*
X016317Y016223D01*
X016285Y016286D01*
X016243Y016343D01*
X016193Y016393D01*
X016136Y016435D01*
X016073Y016467D01*
X015950Y016457D02*
X015850Y016457D01*
X015850Y016359D02*
X015950Y016359D01*
X015950Y016260D02*
X015850Y016260D01*
X015850Y016162D02*
X015950Y016162D01*
X015950Y016063D02*
X016490Y016063D01*
X016492Y015965D02*
X016342Y015965D01*
X016339Y015945D02*
X016348Y016000D01*
X015950Y016000D01*
X015950Y015602D01*
X016005Y015611D01*
X016073Y015633D01*
X016136Y015665D01*
X016193Y015707D01*
X016243Y015757D01*
X016285Y015814D01*
X016317Y015877D01*
X016339Y015945D01*
X016311Y015866D02*
X016532Y015866D01*
X016603Y015768D02*
X016251Y015768D01*
X016141Y015669D02*
X016748Y015669D01*
X017052Y015669D02*
X020008Y015669D01*
X019909Y015768D02*
X017197Y015768D01*
X017268Y015866D02*
X019867Y015866D01*
X019845Y015965D02*
X017308Y015965D01*
X017310Y016063D02*
X019845Y016063D01*
X019878Y016162D02*
X017298Y016162D01*
X017257Y016260D02*
X019937Y016260D01*
X020057Y016359D02*
X017171Y016359D01*
X017135Y016851D02*
X014305Y016851D01*
X014286Y016753D02*
X019924Y016753D01*
X019873Y016851D02*
X017265Y016851D01*
X017410Y016950D02*
X019845Y016950D01*
X019845Y017048D02*
X017454Y017048D01*
X017455Y017147D02*
X019872Y017147D01*
X019922Y017245D02*
X017416Y017245D01*
X017278Y017344D02*
X020020Y017344D01*
X019564Y017442D02*
X021775Y017442D01*
X021775Y017344D02*
X021480Y017344D01*
X021578Y017245D02*
X021775Y017245D01*
X021775Y017147D02*
X021628Y017147D01*
X021655Y017048D02*
X021775Y017048D01*
X021775Y016950D02*
X021655Y016950D01*
X021627Y016851D02*
X021775Y016851D01*
X021775Y016753D02*
X021576Y016753D01*
X021474Y016654D02*
X021775Y016654D01*
X021775Y016556D02*
X012622Y016556D01*
X012570Y016359D02*
X011231Y016359D01*
X011216Y016394D02*
X011144Y016466D01*
X011051Y016505D01*
X010949Y016505D01*
X010856Y016466D01*
X010784Y016394D01*
X010745Y016301D01*
X010745Y016199D01*
X010784Y016106D01*
X010856Y016034D01*
X010949Y015995D01*
X011051Y015995D01*
X011144Y016034D01*
X011216Y016106D01*
X011255Y016199D01*
X011255Y016301D01*
X011216Y016394D01*
X011154Y016457D02*
X012324Y016457D01*
X012371Y016654D02*
X013885Y016654D01*
X013814Y016753D02*
X011838Y016753D01*
X011666Y016753D02*
X008037Y016753D01*
X008010Y016753D02*
X007919Y016753D01*
X007910Y016654D02*
X007891Y016648D01*
X007870Y016646D01*
X007850Y016650D01*
X008064Y016457D02*
X010846Y016457D01*
X010769Y016359D02*
X008052Y016359D01*
X008101Y016260D02*
X010745Y016260D01*
X010761Y016162D02*
X008105Y016162D01*
X008069Y016063D02*
X010826Y016063D01*
X011174Y016063D02*
X013010Y016063D01*
X012885Y016162D02*
X011239Y016162D01*
X011255Y016260D02*
X012743Y016260D01*
X012812Y016457D02*
X014811Y016457D01*
X014818Y016460D02*
X014668Y016398D01*
X014552Y016282D01*
X014490Y016132D01*
X014490Y015968D01*
X014552Y015818D01*
X014668Y015702D01*
X014818Y015640D01*
X014982Y015640D01*
X015132Y015702D01*
X015248Y015818D01*
X015310Y015968D01*
X015310Y016132D01*
X015248Y016282D01*
X015132Y016398D01*
X014982Y016460D01*
X014818Y016460D01*
X014989Y016457D02*
X015708Y016457D01*
X015572Y016359D02*
X015171Y016359D01*
X015257Y016260D02*
X015502Y016260D01*
X015463Y016162D02*
X015298Y016162D01*
X015310Y016063D02*
X015850Y016063D01*
X015850Y015965D02*
X015950Y015965D01*
X015950Y015866D02*
X015850Y015866D01*
X015850Y015768D02*
X015950Y015768D01*
X015950Y015669D02*
X015850Y015669D01*
X015659Y015669D02*
X015052Y015669D01*
X015197Y015768D02*
X015549Y015768D01*
X015489Y015866D02*
X015268Y015866D01*
X015308Y015965D02*
X015458Y015965D01*
X014748Y015669D02*
X013579Y015669D01*
X013525Y015768D02*
X014603Y015768D01*
X014532Y015866D02*
X013454Y015866D01*
X013383Y015965D02*
X014492Y015965D01*
X014490Y016063D02*
X013294Y016063D01*
X013202Y016162D02*
X014502Y016162D01*
X014543Y016260D02*
X013087Y016260D01*
X012962Y016359D02*
X014629Y016359D01*
X014215Y016654D02*
X020026Y016654D01*
X020129Y014389D02*
X018701Y014389D01*
X018651Y014290D02*
X019967Y014290D01*
X019982Y013305D02*
X013850Y013305D01*
X013850Y013207D02*
X019897Y013207D01*
X019856Y013108D02*
X013850Y013108D01*
X013850Y013010D02*
X019845Y013010D01*
X019848Y012911D02*
X013850Y012911D01*
X013850Y012813D02*
X019889Y012813D01*
X019963Y012714D02*
X013850Y012714D01*
X013850Y012616D02*
X020119Y012616D01*
X019997Y012320D02*
X013850Y012320D01*
X013850Y012222D02*
X019903Y012222D01*
X019862Y012123D02*
X013850Y012123D01*
X013854Y012025D02*
X019845Y012025D01*
X020537Y012714D02*
X020963Y012714D01*
X020889Y012813D02*
X020611Y012813D01*
X020652Y012911D02*
X020848Y012911D01*
X020845Y013010D02*
X020655Y013010D01*
X020644Y013108D02*
X020856Y013108D01*
X020897Y013207D02*
X020603Y013207D01*
X020518Y013305D02*
X020982Y013305D01*
X021503Y012320D02*
X021775Y012320D01*
X021775Y012222D02*
X021597Y012222D01*
X021638Y012123D02*
X021775Y012123D01*
X021775Y012025D02*
X021655Y012025D01*
X021655Y011926D02*
X021775Y011926D01*
X021775Y011828D02*
X021617Y011828D01*
X021552Y011729D02*
X021775Y011729D01*
X021775Y011631D02*
X021417Y011631D01*
X021488Y011335D02*
X021775Y011335D01*
X021775Y011237D02*
X021587Y011237D01*
X021631Y011138D02*
X021775Y011138D01*
X021775Y011040D02*
X021655Y011040D01*
X021655Y010941D02*
X021775Y010941D01*
X021775Y010843D02*
X021623Y010843D01*
X021567Y010744D02*
X021775Y010744D01*
X021775Y010646D02*
X021453Y010646D01*
X021464Y010350D02*
X021775Y010350D01*
X021775Y010252D02*
X021572Y010252D01*
X021625Y010153D02*
X021775Y010153D01*
X021775Y010055D02*
X021655Y010055D01*
X021655Y009956D02*
X021775Y009956D01*
X021775Y009858D02*
X021630Y009858D01*
X021582Y009759D02*
X021775Y009759D01*
X021775Y009661D02*
X021484Y009661D01*
X021428Y009365D02*
X021775Y009365D01*
X021775Y009267D02*
X021557Y009267D01*
X021619Y009168D02*
X021775Y009168D01*
X021775Y009070D02*
X021655Y009070D01*
X021655Y008971D02*
X021775Y008971D01*
X021775Y008873D02*
X021636Y008873D01*
X021595Y008774D02*
X021775Y008774D01*
X021775Y008676D02*
X021499Y008676D01*
X021392Y008380D02*
X021775Y008380D01*
X021775Y008282D02*
X021542Y008282D01*
X021594Y008230D02*
X021480Y008344D01*
X021331Y008405D01*
X021169Y008405D01*
X021020Y008344D01*
X020906Y008230D01*
X020845Y008081D01*
X020845Y007919D01*
X020906Y007770D01*
X021020Y007656D01*
X021169Y007595D01*
X021331Y007595D01*
X021480Y007656D01*
X021594Y007770D01*
X021655Y007919D01*
X021655Y008081D01*
X021594Y008230D01*
X021613Y008183D02*
X021775Y008183D01*
X021775Y008085D02*
X021654Y008085D01*
X021655Y007986D02*
X021775Y007986D01*
X021775Y007888D02*
X021642Y007888D01*
X021601Y007789D02*
X021775Y007789D01*
X021775Y007691D02*
X021514Y007691D01*
X021775Y007592D02*
X020430Y007592D01*
X020421Y007587D02*
X020483Y007619D01*
X020540Y007660D01*
X020590Y007710D01*
X020631Y007767D01*
X020663Y007829D01*
X020684Y007896D01*
X020693Y007952D01*
X020298Y007952D01*
X020298Y007557D01*
X020354Y007566D01*
X020421Y007587D01*
X020298Y007592D02*
X020202Y007592D01*
X020202Y007691D02*
X020298Y007691D01*
X020298Y007789D02*
X020202Y007789D01*
X020202Y007888D02*
X020298Y007888D01*
X020298Y007986D02*
X020845Y007986D01*
X020846Y008085D02*
X020687Y008085D01*
X020656Y008183D02*
X020887Y008183D01*
X020958Y008282D02*
X020596Y008282D01*
X020484Y008380D02*
X021108Y008380D01*
X020858Y007888D02*
X020682Y007888D01*
X020642Y007789D02*
X020899Y007789D01*
X020986Y007691D02*
X020570Y007691D01*
X020202Y007986D02*
X018450Y007986D01*
X018450Y008479D02*
X021775Y008479D01*
X021775Y008577D02*
X018450Y008577D01*
X018450Y008676D02*
X020001Y008676D01*
X019905Y008774D02*
X018450Y008774D01*
X018450Y008873D02*
X019864Y008873D01*
X019845Y008971D02*
X018450Y008971D01*
X018450Y009070D02*
X019845Y009070D01*
X019881Y009168D02*
X018444Y009168D01*
X018416Y009267D02*
X019943Y009267D01*
X020072Y009365D02*
X018360Y009365D01*
X017929Y010449D02*
X021775Y010449D01*
X021775Y010547D02*
X017840Y010547D01*
X016360Y010547D02*
X015840Y010547D01*
X015929Y010449D02*
X016271Y010449D01*
X016230Y010350D02*
X015970Y010350D01*
X015980Y010252D02*
X016220Y010252D01*
X016229Y010153D02*
X015971Y010153D01*
X015930Y010055D02*
X016270Y010055D01*
X016357Y009956D02*
X015843Y009956D01*
X015872Y011335D02*
X016328Y011335D01*
X016258Y011434D02*
X015942Y011434D01*
X015980Y011532D02*
X016220Y011532D01*
X016220Y011631D02*
X015980Y011631D01*
X015958Y011729D02*
X016242Y011729D01*
X016290Y011828D02*
X015910Y011828D01*
X015806Y011926D02*
X016394Y011926D01*
X015394Y011926D02*
X013859Y011926D01*
X013864Y011828D02*
X015290Y011828D01*
X015242Y011729D02*
X013877Y011729D01*
X013894Y011631D02*
X015220Y011631D01*
X015220Y011532D02*
X013911Y011532D01*
X013936Y011434D02*
X015258Y011434D01*
X015328Y011335D02*
X013966Y011335D01*
X013850Y012419D02*
X021775Y012419D01*
X021775Y012517D02*
X013850Y012517D01*
X013650Y012616D02*
X004941Y012616D01*
X004955Y012714D02*
X013650Y012714D01*
X013650Y012813D02*
X004929Y012813D01*
X004850Y012911D02*
X013650Y012911D01*
X013650Y013798D02*
X011934Y013798D01*
X011955Y013896D02*
X013650Y013896D01*
X013650Y013995D02*
X011937Y013995D01*
X011868Y014093D02*
X013650Y014093D01*
X014285Y016950D02*
X016990Y016950D01*
X016946Y017048D02*
X014213Y017048D01*
X013817Y017442D02*
X016547Y017442D01*
X016629Y016359D02*
X016228Y016359D01*
X016298Y016260D02*
X016543Y016260D01*
X016502Y016162D02*
X016337Y016162D01*
X021510Y019314D02*
X021775Y019314D01*
X021775Y019215D02*
X021600Y019215D01*
X021640Y019117D02*
X021775Y019117D01*
X021775Y019018D02*
X021655Y019018D01*
X021655Y018920D02*
X021775Y018920D01*
X021775Y018821D02*
X021615Y018821D01*
X021546Y018723D02*
X021775Y018723D01*
X021775Y027686D02*
X021509Y027686D01*
X021599Y027785D02*
X021775Y027785D01*
X021775Y027883D02*
X021640Y027883D01*
X021655Y027982D02*
X021775Y027982D01*
X021775Y028080D02*
X021655Y028080D01*
X021615Y028179D02*
X021775Y028179D01*
X021775Y028277D02*
X021546Y028277D01*
X009699Y030740D02*
X009101Y030740D01*
X009132Y030752D02*
X009248Y030868D01*
X009310Y031018D01*
X009310Y031182D01*
X009248Y031332D01*
X009132Y031448D01*
X008982Y031510D01*
X008818Y031510D01*
X008668Y031448D01*
X008552Y031332D01*
X008490Y031182D01*
X008490Y031018D01*
X008552Y030868D01*
X008668Y030752D01*
X008818Y030690D01*
X008982Y030690D01*
X009132Y030752D01*
X009218Y030838D02*
X009582Y030838D01*
X009524Y030937D02*
X009276Y030937D01*
X009310Y031035D02*
X009490Y031035D01*
X009490Y031134D02*
X009310Y031134D01*
X009289Y031232D02*
X009511Y031232D01*
X009552Y031331D02*
X009248Y031331D01*
X009151Y031429D02*
X009649Y031429D01*
X009735Y031725D02*
X009065Y031725D01*
X009132Y031752D02*
X008982Y031690D01*
X008818Y031690D01*
X008668Y031752D01*
X008552Y031868D01*
X008490Y032018D01*
X008490Y032182D01*
X008552Y032332D01*
X008668Y032448D01*
X008818Y032510D01*
X008982Y032510D01*
X009132Y032448D01*
X009248Y032332D01*
X009310Y032182D01*
X009310Y032018D01*
X009248Y031868D01*
X009132Y031752D01*
X009203Y031823D02*
X009597Y031823D01*
X009530Y031922D02*
X009270Y031922D01*
X009310Y032020D02*
X009490Y032020D01*
X009490Y032119D02*
X009310Y032119D01*
X009295Y032217D02*
X009505Y032217D01*
X009546Y032316D02*
X009254Y032316D01*
X009166Y032414D02*
X009634Y032414D01*
X008735Y031725D02*
X008065Y031725D01*
X008132Y031752D02*
X008248Y031868D01*
X008310Y032018D01*
X008310Y032182D01*
X008248Y032332D01*
X008132Y032448D01*
X007982Y032510D01*
X007818Y032510D01*
X007668Y032448D01*
X007552Y032332D01*
X007490Y032182D01*
X007490Y032018D01*
X007552Y031868D01*
X007668Y031752D01*
X007818Y031690D01*
X007982Y031690D01*
X008132Y031752D01*
X008203Y031823D02*
X008597Y031823D01*
X008530Y031922D02*
X008270Y031922D01*
X008310Y032020D02*
X008490Y032020D01*
X008490Y032119D02*
X008310Y032119D01*
X008295Y032217D02*
X008505Y032217D01*
X008546Y032316D02*
X008254Y032316D01*
X008166Y032414D02*
X008634Y032414D01*
X008649Y031429D02*
X008151Y031429D01*
X008132Y031448D02*
X007982Y031510D01*
X007818Y031510D01*
X007668Y031448D01*
X007552Y031332D01*
X007490Y031182D01*
X007490Y031018D01*
X007552Y030868D01*
X007668Y030752D01*
X007818Y030690D01*
X007982Y030690D01*
X008132Y030752D01*
X008248Y030868D01*
X008310Y031018D01*
X008310Y031182D01*
X008248Y031332D01*
X008132Y031448D01*
X008248Y031331D02*
X008552Y031331D01*
X008511Y031232D02*
X008289Y031232D01*
X008310Y031134D02*
X008490Y031134D01*
X008490Y031035D02*
X008310Y031035D01*
X008276Y030937D02*
X008524Y030937D01*
X008582Y030838D02*
X008218Y030838D01*
X008101Y030740D02*
X008699Y030740D01*
X007699Y030740D02*
X007101Y030740D01*
X007218Y030838D02*
X007582Y030838D01*
X007524Y030937D02*
X007276Y030937D01*
X007310Y031035D02*
X007490Y031035D01*
X007490Y031134D02*
X007310Y031134D01*
X007289Y031232D02*
X007511Y031232D01*
X007552Y031331D02*
X007248Y031331D01*
X007151Y031429D02*
X007649Y031429D01*
X007735Y031725D02*
X007065Y031725D01*
X007203Y031823D02*
X007597Y031823D01*
X007530Y031922D02*
X007270Y031922D01*
X007310Y032020D02*
X007490Y032020D01*
X007490Y032119D02*
X007310Y032119D01*
X007295Y032217D02*
X007505Y032217D01*
X007546Y032316D02*
X007254Y032316D01*
X007166Y032414D02*
X007634Y032414D01*
X008064Y017147D02*
X008864Y017147D01*
X008845Y017048D02*
X008105Y017048D01*
X008105Y016950D02*
X008866Y016950D01*
X008938Y016851D02*
X008062Y016851D01*
X013975Y006706D02*
X019971Y006706D01*
X020070Y006607D02*
X015697Y006607D01*
X015730Y006594D02*
X015581Y006655D01*
X015419Y006655D01*
X015270Y006594D01*
X015156Y006480D01*
X015095Y006331D01*
X015095Y006169D01*
X015156Y006020D01*
X015270Y005906D01*
X015419Y005845D01*
X015581Y005845D01*
X015730Y005906D01*
X015844Y006020D01*
X015905Y006169D01*
X015905Y006331D01*
X015844Y006480D01*
X015730Y006594D01*
X015815Y006509D02*
X021775Y006509D01*
X021775Y006607D02*
X020530Y006607D01*
X020629Y006706D02*
X021775Y006706D01*
X021775Y006804D02*
X020678Y006804D01*
X020705Y006903D02*
X021775Y006903D01*
X021775Y007001D02*
X020705Y007001D01*
X020677Y007100D02*
X021775Y007100D01*
X021775Y007198D02*
X020625Y007198D01*
X020298Y008085D02*
X020202Y008085D01*
X020202Y008183D02*
X020298Y008183D01*
X020298Y008282D02*
X020202Y008282D01*
X021775Y007494D02*
X018507Y007494D01*
X018331Y007395D02*
X015879Y007395D01*
X015905Y007297D02*
X018423Y007297D01*
X018278Y007494D02*
X015830Y007494D01*
X015731Y007592D02*
X018255Y007592D01*
X015872Y006410D02*
X021775Y006410D01*
X021775Y006312D02*
X015905Y006312D01*
X015905Y006213D02*
X021775Y006213D01*
X021775Y006115D02*
X015883Y006115D01*
X015839Y006016D02*
X021775Y006016D01*
X021775Y005918D02*
X015741Y005918D01*
X015661Y005622D02*
X021775Y005622D01*
X021775Y005524D02*
X015800Y005524D01*
X015844Y005480D02*
X015730Y005594D01*
X015581Y005655D01*
X015419Y005655D01*
X015270Y005594D01*
X015156Y005480D01*
X015095Y005331D01*
X015095Y005169D01*
X015156Y005020D01*
X015270Y004906D01*
X015419Y004845D01*
X015581Y004845D01*
X015730Y004906D01*
X015844Y005020D01*
X015905Y005169D01*
X015905Y005331D01*
X015844Y005480D01*
X015866Y005425D02*
X021775Y005425D01*
X021775Y005327D02*
X015905Y005327D01*
X015905Y005228D02*
X021775Y005228D01*
X021775Y005130D02*
X015889Y005130D01*
X015848Y005031D02*
X021775Y005031D01*
X021775Y004933D02*
X015756Y004933D01*
X015625Y004637D02*
X021775Y004637D01*
X021775Y004539D02*
X015785Y004539D01*
X015730Y004594D02*
X015844Y004480D01*
X015905Y004331D01*
X015905Y004169D01*
X015844Y004020D01*
X015730Y003906D01*
X015581Y003845D01*
X015419Y003845D01*
X015270Y003906D01*
X015156Y004020D01*
X015095Y004169D01*
X015095Y004331D01*
X015156Y004480D01*
X015270Y004594D01*
X015419Y004655D01*
X015581Y004655D01*
X015730Y004594D01*
X015860Y004440D02*
X021775Y004440D01*
X021775Y004342D02*
X015901Y004342D01*
X015905Y004243D02*
X021775Y004243D01*
X021775Y004145D02*
X015895Y004145D01*
X015854Y004046D02*
X021775Y004046D01*
X021775Y003948D02*
X015771Y003948D01*
X015591Y003849D02*
X021775Y003849D01*
X021775Y003751D02*
X013975Y003751D01*
X013975Y003849D02*
X014409Y003849D01*
X014419Y003845D02*
X014270Y003906D01*
X014156Y004020D01*
X014095Y004169D01*
X014095Y004331D01*
X014156Y004480D01*
X014270Y004594D01*
X014419Y004655D01*
X014581Y004655D01*
X014730Y004594D01*
X014844Y004480D01*
X014905Y004331D01*
X014905Y004169D01*
X014844Y004020D01*
X014730Y003906D01*
X014581Y003845D01*
X014419Y003845D01*
X014591Y003849D02*
X015409Y003849D01*
X015419Y003655D02*
X015270Y003594D01*
X015156Y003480D01*
X015095Y003331D01*
X015095Y003169D01*
X015156Y003020D01*
X015270Y002906D01*
X015419Y002845D01*
X015581Y002845D01*
X015730Y002906D01*
X015844Y003020D01*
X015905Y003169D01*
X015905Y003331D01*
X015844Y003480D01*
X015730Y003594D01*
X015581Y003655D01*
X015419Y003655D01*
X015411Y003652D02*
X014589Y003652D01*
X014581Y003655D02*
X014419Y003655D01*
X014270Y003594D01*
X014156Y003480D01*
X014095Y003331D01*
X014095Y003169D01*
X014156Y003020D01*
X014270Y002906D01*
X014419Y002845D01*
X014581Y002845D01*
X014730Y002906D01*
X014844Y003020D01*
X014905Y003169D01*
X014905Y003331D01*
X014844Y003480D01*
X014730Y003594D01*
X014581Y003655D01*
X014411Y003652D02*
X013975Y003652D01*
X013975Y003554D02*
X014230Y003554D01*
X014146Y003455D02*
X013975Y003455D01*
X013975Y003357D02*
X014105Y003357D01*
X014095Y003258D02*
X013975Y003258D01*
X013975Y003160D02*
X014099Y003160D01*
X014140Y003061D02*
X013975Y003061D01*
X013975Y002963D02*
X014214Y002963D01*
X014373Y002864D02*
X013975Y002864D01*
X013975Y002766D02*
X021762Y002766D01*
X021767Y002864D02*
X015627Y002864D01*
X015786Y002963D02*
X021773Y002963D01*
X021775Y003061D02*
X015860Y003061D01*
X015901Y003160D02*
X021775Y003160D01*
X021775Y003258D02*
X015905Y003258D01*
X015895Y003357D02*
X021775Y003357D01*
X021775Y003455D02*
X015854Y003455D01*
X015770Y003554D02*
X021775Y003554D01*
X021775Y003652D02*
X015589Y003652D01*
X015230Y003554D02*
X014770Y003554D01*
X014854Y003455D02*
X015146Y003455D01*
X015105Y003357D02*
X014895Y003357D01*
X014905Y003258D02*
X015095Y003258D01*
X015099Y003160D02*
X014901Y003160D01*
X014860Y003061D02*
X015140Y003061D01*
X015214Y002963D02*
X014786Y002963D01*
X014627Y002864D02*
X015373Y002864D01*
X015229Y003948D02*
X014771Y003948D01*
X014854Y004046D02*
X015146Y004046D01*
X015105Y004145D02*
X014895Y004145D01*
X014905Y004243D02*
X015095Y004243D01*
X015099Y004342D02*
X014901Y004342D01*
X014860Y004440D02*
X015140Y004440D01*
X015215Y004539D02*
X014785Y004539D01*
X014625Y004637D02*
X015375Y004637D01*
X015244Y004933D02*
X014756Y004933D01*
X014730Y004906D02*
X014844Y005020D01*
X014905Y005169D01*
X014905Y005331D01*
X014844Y005480D01*
X014730Y005594D01*
X014581Y005655D01*
X014419Y005655D01*
X014270Y005594D01*
X014156Y005480D01*
X014095Y005331D01*
X014095Y005169D01*
X014156Y005020D01*
X014270Y004906D01*
X014419Y004845D01*
X014581Y004845D01*
X014730Y004906D01*
X014848Y005031D02*
X015152Y005031D01*
X015111Y005130D02*
X014889Y005130D01*
X014905Y005228D02*
X015095Y005228D01*
X015095Y005327D02*
X014905Y005327D01*
X014866Y005425D02*
X015134Y005425D01*
X015200Y005524D02*
X014800Y005524D01*
X014661Y005622D02*
X015339Y005622D01*
X015259Y005918D02*
X014741Y005918D01*
X014730Y005906D02*
X014844Y006020D01*
X014905Y006169D01*
X014905Y006331D01*
X014844Y006480D01*
X014730Y006594D01*
X014581Y006655D01*
X014419Y006655D01*
X014270Y006594D01*
X014156Y006480D01*
X014095Y006331D01*
X014095Y006169D01*
X014156Y006020D01*
X014270Y005906D01*
X014419Y005845D01*
X014581Y005845D01*
X014730Y005906D01*
X014839Y006016D02*
X015161Y006016D01*
X015117Y006115D02*
X014883Y006115D01*
X014905Y006213D02*
X015095Y006213D01*
X015095Y006312D02*
X014905Y006312D01*
X014872Y006410D02*
X015128Y006410D01*
X015185Y006509D02*
X014815Y006509D01*
X014697Y006607D02*
X015303Y006607D01*
X015280Y006903D02*
X014720Y006903D01*
X014824Y007001D02*
X015176Y007001D01*
X015124Y007100D02*
X014876Y007100D01*
X014905Y007198D02*
X015095Y007198D01*
X015095Y007297D02*
X014905Y007297D01*
X014879Y007395D02*
X015121Y007395D01*
X015170Y007494D02*
X014830Y007494D01*
X014731Y007592D02*
X015269Y007592D01*
X014303Y006607D02*
X013975Y006607D01*
X013975Y006509D02*
X014185Y006509D01*
X014128Y006410D02*
X013975Y006410D01*
X013975Y006312D02*
X014095Y006312D01*
X014095Y006213D02*
X013975Y006213D01*
X013975Y006115D02*
X014117Y006115D01*
X014161Y006016D02*
X013975Y006016D01*
X013975Y005918D02*
X014259Y005918D01*
X013975Y005819D02*
X021775Y005819D01*
X021775Y005721D02*
X013975Y005721D01*
X013975Y005622D02*
X014339Y005622D01*
X014200Y005524D02*
X013975Y005524D01*
X013975Y005425D02*
X014134Y005425D01*
X014095Y005327D02*
X013975Y005327D01*
X013975Y005228D02*
X014095Y005228D01*
X014111Y005130D02*
X013975Y005130D01*
X013975Y005031D02*
X014152Y005031D01*
X014244Y004933D02*
X013975Y004933D01*
X013975Y004834D02*
X021775Y004834D01*
X021775Y004736D02*
X013975Y004736D01*
X013975Y004637D02*
X014375Y004637D01*
X014215Y004539D02*
X013975Y004539D01*
X013975Y004440D02*
X014140Y004440D01*
X014099Y004342D02*
X013975Y004342D01*
X013975Y004243D02*
X014095Y004243D01*
X014105Y004145D02*
X013975Y004145D01*
X013975Y004046D02*
X014146Y004046D01*
X014229Y003948D02*
X013975Y003948D01*
X013975Y002667D02*
X021743Y002667D01*
X021720Y002569D02*
X013975Y002569D01*
X013975Y002470D02*
X021698Y002470D01*
X021675Y002372D02*
X013975Y002372D01*
X013975Y002273D02*
X021653Y002273D01*
X021612Y002175D02*
X019460Y002175D01*
X019439Y002186D02*
X019360Y002219D01*
X019278Y002241D01*
X019200Y002252D01*
X019200Y001650D01*
X019802Y001650D01*
X019791Y001728D01*
X019769Y001810D01*
X019736Y001889D01*
X019694Y001963D01*
X019642Y002031D01*
X019581Y002092D01*
X019513Y002144D01*
X019439Y002186D01*
X019597Y002076D02*
X021564Y002076D01*
X021517Y001978D02*
X019683Y001978D01*
X019741Y001879D02*
X021469Y001879D01*
X021419Y001781D02*
X019777Y001781D01*
X019797Y001682D02*
X021340Y001682D01*
X021262Y001584D02*
X019200Y001584D01*
X019200Y001550D02*
X019200Y001650D01*
X019100Y001650D01*
X019100Y002252D01*
X019022Y002241D01*
X018940Y002219D01*
X018861Y002186D01*
X018787Y002144D01*
X018719Y002092D01*
X018658Y002031D01*
X018606Y001963D01*
X018564Y001889D01*
X018531Y001810D01*
X018509Y001728D01*
X018498Y001650D01*
X019100Y001650D01*
X019100Y001550D01*
X019200Y001550D01*
X019802Y001550D01*
X019791Y001472D01*
X019769Y001390D01*
X019736Y001311D01*
X019694Y001237D01*
X019642Y001169D01*
X019581Y001108D01*
X019513Y001056D01*
X019439Y001014D01*
X019360Y000981D01*
X019278Y000959D01*
X019200Y000948D01*
X019200Y001550D01*
X019200Y001485D02*
X019100Y001485D01*
X019100Y001550D02*
X019100Y000948D01*
X019022Y000959D01*
X018940Y000981D01*
X018861Y001014D01*
X018787Y001056D01*
X018719Y001108D01*
X018658Y001169D01*
X018606Y001237D01*
X018564Y001311D01*
X018531Y001390D01*
X018509Y001472D01*
X018498Y001550D01*
X019100Y001550D01*
X019100Y001584D02*
X017612Y001584D01*
X017612Y001682D02*
X018503Y001682D01*
X018523Y001781D02*
X017588Y001781D01*
X017612Y001722D02*
X017519Y001947D01*
X017347Y002119D01*
X017122Y002212D01*
X016878Y002212D01*
X016653Y002119D01*
X016481Y001947D01*
X016388Y001722D01*
X016388Y001478D01*
X016481Y001253D01*
X016653Y001081D01*
X016878Y000988D01*
X017122Y000988D01*
X017347Y001081D01*
X017519Y001253D01*
X017612Y001478D01*
X017612Y001722D01*
X017547Y001879D02*
X018559Y001879D01*
X018617Y001978D02*
X017489Y001978D01*
X017390Y002076D02*
X018703Y002076D01*
X018840Y002175D02*
X017214Y002175D01*
X016786Y002175D02*
X013975Y002175D01*
X013975Y002076D02*
X016610Y002076D01*
X016511Y001978D02*
X013975Y001978D01*
X013975Y001879D02*
X016453Y001879D01*
X016412Y001781D02*
X013975Y001781D01*
X013975Y001682D02*
X016388Y001682D01*
X016388Y001584D02*
X013975Y001584D01*
X013975Y001485D02*
X016388Y001485D01*
X016425Y001387D02*
X013975Y001387D01*
X013975Y001288D02*
X016466Y001288D01*
X016544Y001190D02*
X013975Y001190D01*
X013975Y001091D02*
X016643Y001091D01*
X016866Y000993D02*
X013975Y000993D01*
X013975Y000894D02*
X020337Y000894D01*
X020542Y000993D02*
X019388Y000993D01*
X019200Y000993D02*
X019100Y000993D01*
X019100Y001091D02*
X019200Y001091D01*
X019200Y001190D02*
X019100Y001190D01*
X019100Y001288D02*
X019200Y001288D01*
X019200Y001387D02*
X019100Y001387D01*
X019100Y001682D02*
X019200Y001682D01*
X019200Y001781D02*
X019100Y001781D01*
X019100Y001879D02*
X019200Y001879D01*
X019200Y001978D02*
X019100Y001978D01*
X019100Y002076D02*
X019200Y002076D01*
X019200Y002175D02*
X019100Y002175D01*
X018507Y001485D02*
X017612Y001485D01*
X017575Y001387D02*
X018532Y001387D01*
X018577Y001288D02*
X017534Y001288D01*
X017456Y001190D02*
X018643Y001190D01*
X018741Y001091D02*
X017357Y001091D01*
X017134Y000993D02*
X018912Y000993D01*
X019559Y001091D02*
X020732Y001091D01*
X020856Y001190D02*
X019657Y001190D01*
X019723Y001288D02*
X020979Y001288D01*
X021103Y001387D02*
X019768Y001387D01*
X019793Y001485D02*
X021183Y001485D01*
X020001Y000796D02*
X013975Y000796D01*
D17*
X008500Y015650D03*
X008500Y017600D03*
D18*
X006150Y005700D03*
X019350Y017650D03*
D19*
X018000Y007050D02*
X017950Y007050D01*
D20*
X013450Y010650D02*
X013100Y010650D01*
X013100Y011650D02*
X013250Y011650D01*
X013350Y012650D02*
X013100Y012650D01*
M02*
