%
M48
M72
T01C0.0150
T02C0.0197
T03C0.0236
T04C0.0276
T05C0.0360
T06C0.0394
T07C0.0400
T08C0.0670
%
T01
X3850Y5050
X3950Y7450
X3550Y9900
X3100Y10400
X3100Y11050
X3550Y11500
X4700Y12700
X4650Y14850
X5250Y15300
X5250Y16450
X5750Y17300
X4600Y17750
X4600Y18200
X4050Y18750
X5500Y19550
X5800Y20100
X5800Y21100
X7250Y21100
X7250Y20100
X7200Y22100
X6700Y23450
X6350Y24400
X6350Y25050
X5900Y25500
X5250Y24050
X4750Y23600
X4150Y23600
X3650Y24050
X3000Y21600
X5900Y23900
X7700Y24000
X8150Y23600
X8800Y23600
X9300Y24050
X9950Y23900
X10400Y24400
X10400Y25050
X10550Y25500
X9900Y25500
X9750Y25850
X10550Y26400
X9950Y27550
X10400Y28050
X10400Y28700
X9950Y29150
X10750Y29250
X11400Y30300
X11750Y31350
X12200Y30900
X12850Y30900
X13350Y31350
X14000Y31200
X14450Y31700
X14750Y31200
X14750Y30200
X15450Y30300
X15800Y31300
X16250Y30900
X16950Y30900
X17400Y31350
X18050Y31200
X18500Y31700
X18500Y32350
X18050Y32800
X16200Y32400
X16050Y34100
X14750Y32850
X14450Y32350
X14000Y32800
X12150Y32400
X11400Y34150
X9750Y33000
X6950Y29800
X6700Y29250
X6350Y28700
X5900Y29150
X6350Y28050
X5900Y27550
X5250Y27700
X4750Y27250
X4150Y27250
X3650Y27700
X3000Y29300
X7400Y26750
X7700Y27650
X8150Y27250
X8800Y27250
X9300Y27700
X8100Y28750
X7650Y25500
X8100Y25100
X10500Y23450
X11050Y23450
X11250Y22700
X11900Y22100
X12900Y22100
X13650Y23550
X14100Y23950
X14700Y24700
X14350Y25250
X15300Y25800
X14750Y27150
X14450Y28000
X14000Y27550
X13350Y27700
X12850Y27250
X12200Y27250
X11750Y27650
X12150Y28750
X13950Y29150
X13900Y29600
X14450Y28700
X15750Y29150
X16200Y28750
X15800Y27600
X16250Y27100
X16900Y27150
X17400Y27600
X18050Y27550
X18500Y28050
X18500Y28700
X18000Y29150
X17900Y29550
X18950Y25300
X18250Y25150
X17600Y25150
X17150Y24700
X16250Y23900
X16300Y23150
X16100Y22500
X15600Y22650
X16750Y20800
X17600Y21350
X18000Y21350
X18500Y21350
X18950Y21950
X19450Y21600
X18250Y23000
X17750Y23500
X17600Y20150
X17150Y19700
X16650Y18350
X16250Y18050
X15800Y17600
X15200Y17300
X14750Y16850
X14050Y16850
X13600Y17300
X13800Y18400
X14950Y20150
X16750Y17600
X17200Y17100
X18000Y17100
X18400Y17550
X18800Y18650
X18950Y14650
X18450Y14450
X19750Y14300
X13100Y12650
X13100Y11650
X13100Y10650
X11700Y13900
X12200Y14350
X13000Y14350
X11850Y16150
X11000Y16250
X10000Y16250
X9100Y17050
X9450Y18000
X9300Y18700
X8850Y18950
X8500Y19450
X9200Y19650
X9700Y20050
X9550Y21050
X10450Y20050
X11000Y19650
X11000Y19150
X11750Y19600
X12450Y20050
X13100Y24400
X12000Y25400
X7850Y17750
X7850Y17000
X7850Y16200
X7850Y15400
X7250Y14900
X6450Y14850
X6550Y12300
X7450Y11600
X7450Y10550
X7450Y9600
X9400Y14450
X8950Y14900
X10100Y14450
X6950Y18300
T02
X16550Y13450
X17150Y13450
T03
X19350Y17650
X6150Y5700
T04
X8500Y15650
X8500Y17600
T05
X5300Y8550
X4300Y8550
X15600Y10250
X16600Y10250
X16600Y11600
X15600Y11600
X17600Y11600
X17600Y10250
T06
X18000Y7050
X20300Y6950
X20250Y8000
X20250Y9000
X20250Y10000
X20250Y11000
X20250Y12000
X20250Y13000
X20250Y14000
X20250Y15000
X20250Y16000
X20250Y17000
X20250Y18000
X20250Y19000
X20250Y20000
X20250Y21000
X20250Y22000
X20250Y23000
X20250Y24000
X20250Y25000
X20250Y26000
X20250Y27000
X20250Y28000
X20250Y29000
X20250Y30000
X21250Y30000
X21250Y29000
X21250Y28000
X21250Y27000
X21250Y26000
X21250Y25000
X21250Y24000
X21250Y23000
X21250Y22000
X21250Y21000
X21250Y20000
X21250Y19000
X21250Y18000
X21250Y17000
X21250Y16000
X21250Y15000
X21250Y14000
X21250Y13000
X21250Y12000
X21250Y11000
X21250Y10000
X21250Y9000
X21250Y8000
X15500Y7250
X15500Y6250
X15500Y5250
X15500Y4250
X15500Y3250
X14500Y3250
X14500Y4250
X14500Y5250
X14500Y6250
X14500Y7250
X2250Y8000
X2250Y9000
X2250Y10000
X2250Y11000
X2250Y12000
X2250Y13000
X2250Y14000
X2250Y15000
X2250Y16000
X2250Y17000
X2250Y18000
X2250Y19000
X2250Y20000
X2250Y21000
X2250Y22000
X2250Y23000
X2250Y24000
X2250Y25000
X2250Y26000
X2250Y27000
X2250Y28000
X2250Y29000
X2250Y30000
X1250Y30000
X1250Y29000
X1250Y28000
X1250Y27000
X1250Y26000
X1250Y25000
X1250Y24000
X1250Y23000
X1250Y22000
X1250Y21000
X1250Y20000
X1250Y19000
X1250Y18000
X1250Y17000
X1250Y16000
X1250Y15000
X1250Y14000
X1250Y13000
X1250Y12000
X1250Y11000
X1250Y10000
X1250Y9000
X1250Y8000
T07
X14900Y16050
X15900Y16050
X16900Y16050
X9900Y31100
X9900Y32100
X8900Y32100
X8900Y31100
X7900Y31100
X7900Y32100
X6900Y32100
X6900Y31100
X5900Y31100
X5900Y32100
T08
X3300Y32800
X2150Y31500
X20400Y31500
X19150Y1600
X17000Y1600
M30
