G04 ================== begin FILE IDENTIFICATION RECORD ==================*
G04 Layout Name:  BeagleBone_Battery_Cape_20Feb.brd*
G04 Film Name:    Bbone_batt_sms*
G04 File Format:  Gerber RS274X*
G04 File Origin:  Cadence Allegro 16.5-P002*
G04 Origin Date:  Mon Feb 20 23:45:24 2012*
G04 *
G04 Layer:  BOARD GEOMETRY/TOOLING_CORNERS*
G04 Layer:  PIN/SOLDERMASK_BOTTOM*
G04 Layer:  DRAWING FORMAT/TITLE_BLOCK*
G04 Layer:  BOARD GEOMETRY/SOLDERMASK_BOTTOM*
G04 *
G04 Offset:    (0.00 0.00)*
G04 Mirror:    No*
G04 Mode:      Positive*
G04 Rotation:  0*
G04 FullContactRelief:  No*
G04 UndefLineWidth:     5.00*
G04 ================== end FILE IDENTIFICATION RECORD ====================*
%FSLAX25Y25*MOIN*%
%IR0*IPPOS*OFA0.00000B0.00000*MIA0B0*SFA1.00000B1.00000*%
%ADD11C,.064*%
%ADD16C,.084*%
%ADD13C,.066*%
%ADD10C,.094*%
%ADD14R,.064X.064*%
%ADD12R,.066X.066*%
%ADD15C,.16*%
%ADD17C,.185*%
%ADD18C,.02*%
%ADD19C,.008*%
G75*
%LPD*%
G75*
G36*
G01X-5000Y-15000D02*
Y-5000D01*
X-15000D01*
Y0D01*
X0D01*
Y-15000D01*
X-5000D01*
G37*
G54D10*
X7600Y24800D03*
X35100D03*
G54D11*
X12500Y15000D03*
X30200D03*
X52650Y-35000D03*
X47500Y17500D03*
Y197500D03*
X52650Y250000D03*
X72650Y-35000D03*
Y250000D03*
X257350Y-35000D03*
Y250000D03*
X277350Y-35000D03*
Y250000D03*
G54D12*
X27500Y65000D03*
X77500Y7500D03*
Y197500D03*
G54D13*
X27500Y75000D03*
X37500Y65000D03*
Y75000D03*
X47500Y65000D03*
Y75000D03*
X57500Y65000D03*
Y75000D03*
X67500Y65000D03*
Y75000D03*
X87500Y7500D03*
X77500Y17500D03*
X87500D03*
Y197500D03*
X77500Y207500D03*
X87500D03*
X97500Y7500D03*
X107500D03*
X97500Y17500D03*
X107500D03*
X97500Y197500D03*
X107500D03*
X97500Y207500D03*
X107500D03*
X117500Y7500D03*
X127500D03*
X117500Y17500D03*
X127500D03*
X117500Y197500D03*
X127500D03*
X117500Y207500D03*
X127500D03*
X137500Y7500D03*
X147500D03*
X157500D03*
X137500Y17500D03*
X147500D03*
X157500D03*
X137500Y197500D03*
X147500D03*
X157500D03*
X137500Y207500D03*
X147500D03*
X157500D03*
X167500Y7500D03*
X177500D03*
X167500Y17500D03*
X177500D03*
X167500Y197500D03*
X177500D03*
X167500Y207500D03*
X177500D03*
X187500Y7500D03*
X197500D03*
X187500Y17500D03*
X197500D03*
X187500Y197500D03*
X197500D03*
X187500Y207500D03*
X197500D03*
X207500Y7500D03*
X217500D03*
X207500Y17500D03*
X217500D03*
X207500Y197500D03*
X217500D03*
X207500Y207500D03*
X217500D03*
X227500Y7500D03*
X237500D03*
X227500Y17500D03*
X237500D03*
X227500Y197500D03*
X237500D03*
X227500Y207500D03*
X237500D03*
X247500Y7500D03*
Y17500D03*
X257500Y7500D03*
Y17500D03*
X247500Y197500D03*
Y207500D03*
X257500Y197500D03*
Y207500D03*
X267500Y7500D03*
Y17500D03*
X277500D03*
Y7500D03*
X267500Y197500D03*
Y207500D03*
X277500D03*
Y197500D03*
X297500Y17500D03*
X287500D03*
X297500Y7500D03*
X287500D03*
X297500Y207500D03*
X287500D03*
X297500Y197500D03*
X287500D03*
G54D14*
X47500Y7500D03*
Y207500D03*
G54D15*
X63500Y-11400D03*
Y273600D03*
X83500Y-58600D03*
Y226400D03*
X246500Y-58600D03*
Y226400D03*
X266500Y-11400D03*
Y273600D03*
G54D16*
X135000Y103750D03*
Y128750D03*
G54D17*
X317500Y25000D03*
Y190000D03*
G54D18*
G01X60000Y-333500D02*
X59990Y-415790D01*
G01X59500Y-415500D02*
X292500D01*
X292490Y-415290D01*
X292500Y-333000D01*
X60000D01*
G01X59990Y-387790D02*
X292490D01*
G01X59990Y-360290D02*
X292490D01*
G54D19*
G01X87333Y-407000D02*
Y-397000D01*
X90667D01*
X92000Y-397500D01*
X93000Y-398167D01*
X93833Y-399167D01*
X94500Y-400334D01*
X94667Y-402000D01*
X94500Y-403667D01*
X93833Y-404833D01*
X93000Y-405834D01*
X92000Y-406500D01*
X90667Y-407000D01*
X87333D01*
G01X97833D02*
X102000Y-397000D01*
X106167Y-407000D01*
G01X104667Y-403500D02*
X99333D01*
G01X113000Y-397000D02*
Y-407000D01*
G01X109167Y-397000D02*
X116833D01*
G01X127333Y-407000D02*
X120667D01*
Y-397000D01*
X127333D01*
G01X124667Y-401833D02*
X120667D01*
G01X135000Y-407333D02*
X134667Y-407167D01*
Y-406833D01*
X135000Y-406667D01*
X135333Y-406833D01*
Y-407167D01*
X135000Y-407333D01*
G01Y-402834D02*
X134667Y-402667D01*
Y-402333D01*
X135000Y-402167D01*
X135333Y-402333D01*
Y-402667D01*
X135000Y-402834D01*
G01X76117Y-373233D02*
X76550Y-372833D01*
X76875Y-372167D01*
X77092Y-371233D01*
X76875Y-370433D01*
X76442Y-369900D01*
X75683Y-369500D01*
X72758D01*
Y-377500D01*
X76333D01*
X77092Y-376967D01*
X77525Y-376167D01*
X77742Y-375233D01*
X77525Y-374300D01*
X76875Y-373500D01*
X76117Y-373233D01*
X72758D01*
G01X81125Y-373900D02*
X84592D01*
X84267Y-372967D01*
X83725Y-372433D01*
X82967Y-372167D01*
X82208Y-372300D01*
X81558Y-372700D01*
X81125Y-373633D01*
X80908Y-374434D01*
Y-375233D01*
X81125Y-376033D01*
X81667Y-376833D01*
X82317Y-377367D01*
X83075Y-377500D01*
X83833Y-377233D01*
X84592Y-376434D01*
G01X92200Y-377500D02*
Y-372167D01*
G01Y-373100D02*
X91767Y-372567D01*
X91117Y-372300D01*
X90358Y-372167D01*
X89600Y-372433D01*
X88950Y-372967D01*
X88517Y-373767D01*
X88300Y-374833D01*
X88517Y-375900D01*
X88950Y-376700D01*
X89600Y-377233D01*
X90358Y-377500D01*
X91117Y-377367D01*
X91767Y-376967D01*
X92200Y-376434D01*
G01X96233Y-379500D02*
X96992Y-380033D01*
X97858Y-380167D01*
X98617Y-380033D01*
X99267Y-379367D01*
X99700Y-378433D01*
Y-372167D01*
G01Y-373233D02*
X99267Y-372700D01*
X98617Y-372300D01*
X97858Y-372167D01*
X96992Y-372433D01*
X96450Y-372967D01*
X96017Y-373900D01*
X95800Y-374833D01*
X95908Y-375633D01*
X96342Y-376567D01*
X96992Y-377233D01*
X97858Y-377500D01*
X98508Y-377367D01*
X99267Y-376833D01*
X99700Y-376300D01*
G01X105250Y-377500D02*
Y-369500D01*
G01X111125Y-373900D02*
X114592D01*
X114267Y-372967D01*
X113725Y-372433D01*
X112967Y-372167D01*
X112208Y-372300D01*
X111558Y-372700D01*
X111125Y-373633D01*
X110908Y-374434D01*
Y-375233D01*
X111125Y-376033D01*
X111667Y-376833D01*
X112317Y-377367D01*
X113075Y-377500D01*
X113833Y-377233D01*
X114592Y-376434D01*
G01X121117Y-373233D02*
X121550Y-372833D01*
X121875Y-372167D01*
X122092Y-371233D01*
X121875Y-370433D01*
X121442Y-369900D01*
X120683Y-369500D01*
X117758D01*
Y-377500D01*
X121333D01*
X122092Y-376967D01*
X122525Y-376167D01*
X122742Y-375233D01*
X122525Y-374300D01*
X121875Y-373500D01*
X121117Y-373233D01*
X117758D01*
G01X127750Y-377500D02*
X127100Y-377367D01*
X126450Y-376833D01*
X126017Y-375900D01*
X125800Y-374833D01*
X126017Y-373767D01*
X126450Y-372833D01*
X127100Y-372300D01*
X127750Y-372167D01*
X128400Y-372300D01*
X129050Y-372833D01*
X129483Y-373767D01*
X129592Y-374833D01*
X129483Y-375900D01*
X129050Y-376833D01*
X128400Y-377367D01*
X127750Y-377500D01*
G01X133408D02*
Y-372167D01*
G01Y-373500D02*
X133842Y-372833D01*
X134492Y-372300D01*
X135358Y-372167D01*
X136117Y-372300D01*
X136767Y-372833D01*
X137092Y-373767D01*
Y-377500D01*
G01X141125Y-373900D02*
X144592D01*
X144267Y-372967D01*
X143725Y-372433D01*
X142967Y-372167D01*
X142208Y-372300D01*
X141558Y-372700D01*
X141125Y-373633D01*
X140908Y-374434D01*
Y-375233D01*
X141125Y-376033D01*
X141667Y-376833D01*
X142317Y-377367D01*
X143075Y-377500D01*
X143833Y-377233D01*
X144592Y-376434D01*
G01X158617Y-373233D02*
X159050Y-372833D01*
X159375Y-372167D01*
X159592Y-371233D01*
X159375Y-370433D01*
X158942Y-369900D01*
X158183Y-369500D01*
X155258D01*
Y-377500D01*
X158833D01*
X159592Y-376967D01*
X160025Y-376167D01*
X160242Y-375233D01*
X160025Y-374300D01*
X159375Y-373500D01*
X158617Y-373233D01*
X155258D01*
G01X167200Y-377500D02*
Y-372167D01*
G01Y-373100D02*
X166767Y-372567D01*
X166117Y-372300D01*
X165358Y-372167D01*
X164600Y-372433D01*
X163950Y-372967D01*
X163517Y-373767D01*
X163300Y-374833D01*
X163517Y-375900D01*
X163950Y-376700D01*
X164600Y-377233D01*
X165358Y-377500D01*
X166117Y-377367D01*
X166767Y-376967D01*
X167200Y-376434D01*
G01X172750Y-369500D02*
Y-377500D01*
G01X171233Y-372167D02*
X174267D01*
G01X180250Y-369500D02*
Y-377500D01*
G01X178733Y-372167D02*
X181767D01*
G01X186125Y-373900D02*
X189592D01*
X189267Y-372967D01*
X188725Y-372433D01*
X187967Y-372167D01*
X187208Y-372300D01*
X186558Y-372700D01*
X186125Y-373633D01*
X185908Y-374434D01*
Y-375233D01*
X186125Y-376033D01*
X186667Y-376833D01*
X187317Y-377367D01*
X188075Y-377500D01*
X188833Y-377233D01*
X189592Y-376434D01*
G01X193733Y-377500D02*
Y-372167D01*
G01Y-373233D02*
X194275Y-372700D01*
X194817Y-372300D01*
X195575Y-372167D01*
X196117Y-372300D01*
X196767Y-372700D01*
G01X200475Y-379900D02*
X201125Y-380167D01*
X201992Y-379900D01*
X202533Y-379367D01*
X202967Y-378700D01*
X203617Y-376567D01*
X205025Y-372167D01*
G01X201558D02*
X203617Y-376567D01*
G01X220133Y-370167D02*
X219483Y-369767D01*
X218725Y-369500D01*
X217858D01*
X216883Y-369900D01*
X216125Y-370567D01*
X215583Y-371367D01*
X215150Y-372700D01*
X215042Y-373900D01*
X215258Y-375100D01*
X215583Y-375900D01*
X216233Y-376700D01*
X216992Y-377233D01*
X217750Y-377500D01*
X218508D01*
X219267Y-377233D01*
X219917Y-376833D01*
X220458Y-376300D01*
G01X227200Y-377500D02*
Y-372167D01*
G01Y-373100D02*
X226767Y-372567D01*
X226117Y-372300D01*
X225358Y-372167D01*
X224600Y-372433D01*
X223950Y-372967D01*
X223517Y-373767D01*
X223300Y-374833D01*
X223517Y-375900D01*
X223950Y-376700D01*
X224600Y-377233D01*
X225358Y-377500D01*
X226117Y-377367D01*
X226767Y-376967D01*
X227200Y-376434D01*
G01X230800Y-380167D02*
Y-372167D01*
G01Y-373367D02*
X231342Y-372700D01*
X231883Y-372300D01*
X232750Y-372167D01*
X233508Y-372300D01*
X234267Y-372967D01*
X234592Y-373900D01*
X234700Y-374833D01*
X234592Y-375767D01*
X234267Y-376700D01*
X233617Y-377233D01*
X232750Y-377500D01*
X231992Y-377367D01*
X231233Y-376967D01*
X230800Y-376434D01*
G01X238625Y-373900D02*
X242092D01*
X241767Y-372967D01*
X241225Y-372433D01*
X240467Y-372167D01*
X239708Y-372300D01*
X239058Y-372700D01*
X238625Y-373633D01*
X238408Y-374434D01*
Y-375233D01*
X238625Y-376033D01*
X239167Y-376833D01*
X239817Y-377367D01*
X240575Y-377500D01*
X241333Y-377233D01*
X242092Y-376434D01*
G01X134167Y-341833D02*
X133167Y-341333D01*
X132000Y-341000D01*
X130667D01*
X129166Y-341500D01*
X128000Y-342333D01*
X127167Y-343333D01*
X126500Y-345000D01*
X126333Y-346500D01*
X126667Y-348000D01*
X127167Y-349000D01*
X128167Y-350000D01*
X129333Y-350667D01*
X130500Y-351000D01*
X131667D01*
X132833Y-350667D01*
X133833Y-350167D01*
X134667Y-349500D01*
G01X141500Y-344334D02*
Y-351000D01*
G01Y-341667D02*
X141167Y-341500D01*
Y-341167D01*
X141500Y-341000D01*
X141833Y-341167D01*
Y-341500D01*
X141500Y-341667D01*
G01X150167Y-351000D02*
Y-344334D01*
G01Y-345667D02*
X151000Y-345000D01*
X151833Y-344500D01*
X153000Y-344334D01*
X153833Y-344500D01*
X154833Y-345000D01*
G01X166167Y-345167D02*
X165000Y-344500D01*
X164000Y-344334D01*
X162667Y-344667D01*
X161667Y-345333D01*
X161000Y-346500D01*
X160833Y-347667D01*
X161000Y-348833D01*
X161667Y-349834D01*
X162667Y-350667D01*
X164000Y-351000D01*
X165167Y-350667D01*
X166167Y-350000D01*
G01X171667Y-344334D02*
Y-349000D01*
X172333Y-350167D01*
X173333Y-350833D01*
X174500Y-351000D01*
X175667Y-350833D01*
X176667Y-350167D01*
X177333Y-349000D01*
G01Y-351000D02*
Y-344334D01*
G01X185500D02*
Y-351000D01*
G01Y-341667D02*
X185167Y-341500D01*
Y-341167D01*
X185500Y-341000D01*
X185833Y-341167D01*
Y-341500D01*
X185500Y-341667D01*
G01X196500Y-341000D02*
Y-351000D01*
G01X194167Y-344334D02*
X198833D01*
G01X222167Y-341833D02*
X221167Y-341333D01*
X220000Y-341000D01*
X218667D01*
X217166Y-341500D01*
X216000Y-342333D01*
X215167Y-343333D01*
X214500Y-345000D01*
X214333Y-346500D01*
X214667Y-348000D01*
X215167Y-349000D01*
X216167Y-350000D01*
X217333Y-350667D01*
X218500Y-351000D01*
X219667D01*
X220833Y-350667D01*
X221833Y-350167D01*
X222667Y-349500D01*
G01X229500Y-351000D02*
X228500Y-350833D01*
X227500Y-350167D01*
X226833Y-349000D01*
X226500Y-347667D01*
X226833Y-346333D01*
X227500Y-345167D01*
X228500Y-344500D01*
X229500Y-344334D01*
X230500Y-344500D01*
X231500Y-345167D01*
X232167Y-346333D01*
X232333Y-347667D01*
X232167Y-349000D01*
X231500Y-350167D01*
X230500Y-350833D01*
X229500Y-351000D01*
G01X240500Y-351333D02*
X240167Y-351167D01*
Y-350833D01*
X240500Y-350667D01*
X240833Y-350833D01*
Y-351167D01*
X240500Y-351333D01*
G01X148500Y-397000D02*
X147166Y-397333D01*
X146167Y-398167D01*
X145500Y-399167D01*
X145000Y-400500D01*
X144833Y-402000D01*
X145000Y-403500D01*
X145500Y-404833D01*
X146167Y-405834D01*
X147166Y-406667D01*
X148500Y-407000D01*
X149833Y-406667D01*
X150833Y-405834D01*
X151500Y-404833D01*
X152000Y-403500D01*
X152167Y-402000D01*
X152000Y-400500D01*
X151500Y-399167D01*
X150833Y-398167D01*
X149833Y-397333D01*
X148500Y-397000D01*
G01X156333Y-398667D02*
X157333Y-397667D01*
X158500Y-397167D01*
X159833Y-397000D01*
X161500Y-397333D01*
X162667Y-398167D01*
X163000Y-399167D01*
X162833Y-400167D01*
X162167Y-401000D01*
X158833Y-402667D01*
X157333Y-403833D01*
X156333Y-405500D01*
X156000Y-407000D01*
X163000D01*
G01X167500Y-407333D02*
X173500Y-397000D01*
G01X181500D02*
X180166Y-397333D01*
X179167Y-398167D01*
X178500Y-399167D01*
X178000Y-400500D01*
X177833Y-402000D01*
X178000Y-403500D01*
X178500Y-404833D01*
X179167Y-405834D01*
X180166Y-406667D01*
X181500Y-407000D01*
X182833Y-406667D01*
X183833Y-405834D01*
X184500Y-404833D01*
X185000Y-403500D01*
X185167Y-402000D01*
X185000Y-400500D01*
X184500Y-399167D01*
X183833Y-398167D01*
X182833Y-397333D01*
X181500Y-397000D01*
G01X192500Y-407000D02*
X193667Y-406833D01*
X195000Y-406333D01*
X195833Y-405500D01*
X196167Y-404333D01*
X195833Y-403167D01*
X194833Y-402167D01*
X193333Y-401667D01*
X191667D01*
X190667Y-401333D01*
X189833Y-400500D01*
X189500Y-399333D01*
X190000Y-398167D01*
X191166Y-397333D01*
X192500Y-397000D01*
X193833Y-397333D01*
X195000Y-398167D01*
X195500Y-399333D01*
X195167Y-400500D01*
X194333Y-401333D01*
X193333Y-401667D01*
X191667D01*
X190167Y-402167D01*
X189167Y-403167D01*
X188833Y-404333D01*
X189167Y-405500D01*
X190000Y-406333D01*
X191333Y-406833D01*
X192500Y-407000D01*
G01X200500Y-407333D02*
X206500Y-397000D01*
G01X211333Y-398667D02*
X212333Y-397667D01*
X213500Y-397167D01*
X214833Y-397000D01*
X216500Y-397333D01*
X217667Y-398167D01*
X218000Y-399167D01*
X217833Y-400167D01*
X217167Y-401000D01*
X213833Y-402667D01*
X212333Y-403833D01*
X211333Y-405500D01*
X211000Y-407000D01*
X218000D01*
G01X225500Y-397000D02*
X224166Y-397333D01*
X223167Y-398167D01*
X222500Y-399167D01*
X222000Y-400500D01*
X221833Y-402000D01*
X222000Y-403500D01*
X222500Y-404833D01*
X223167Y-405834D01*
X224166Y-406667D01*
X225500Y-407000D01*
X226833Y-406667D01*
X227833Y-405834D01*
X228500Y-404833D01*
X229000Y-403500D01*
X229167Y-402000D01*
X229000Y-400500D01*
X228500Y-399167D01*
X227833Y-398167D01*
X226833Y-397333D01*
X225500Y-397000D01*
G01X236500Y-407000D02*
Y-397000D01*
X234500Y-399000D01*
G01Y-407000D02*
X238500D01*
G01X244333Y-398667D02*
X245333Y-397667D01*
X246500Y-397167D01*
X247833Y-397000D01*
X249500Y-397333D01*
X250667Y-398167D01*
X251000Y-399167D01*
X250833Y-400167D01*
X250167Y-401000D01*
X246833Y-402667D01*
X245333Y-403833D01*
X244333Y-405500D01*
X244000Y-407000D01*
X251000D01*
G01X146475Y-283434D02*
X147342Y-284100D01*
X148317Y-284500D01*
X149183D01*
X150050Y-284100D01*
X150700Y-283434D01*
X151025Y-282500D01*
X150808Y-281567D01*
X150267Y-280767D01*
X149292Y-280233D01*
X147992Y-279967D01*
X147233Y-279433D01*
X146908Y-278500D01*
X147125Y-277567D01*
X147667Y-276900D01*
X148425Y-276500D01*
X149183D01*
X149942Y-276767D01*
X150592Y-277433D01*
G01X153433Y-284500D02*
Y-276500D01*
X156250Y-283167D01*
X159067Y-276500D01*
Y-284500D01*
G01X161475Y-283434D02*
X162342Y-284100D01*
X163317Y-284500D01*
X164183D01*
X165050Y-284100D01*
X165700Y-283434D01*
X166025Y-282500D01*
X165808Y-281567D01*
X165267Y-280767D01*
X164292Y-280233D01*
X162992Y-279967D01*
X162233Y-279433D01*
X161908Y-278500D01*
X162125Y-277567D01*
X162667Y-276900D01*
X163425Y-276500D01*
X164183D01*
X164942Y-276767D01*
X165592Y-277433D01*
G01X252083Y-377500D02*
Y-369500D01*
X254792D01*
X255658Y-369900D01*
X256200Y-370433D01*
X256417Y-371500D01*
X256200Y-372567D01*
X255550Y-373233D01*
X254792Y-373633D01*
X252083D01*
G01X254792D02*
X256417Y-377500D01*
G01X260125Y-373900D02*
X263592D01*
X263267Y-372967D01*
X262725Y-372433D01*
X261967Y-372167D01*
X261208Y-372300D01*
X260558Y-372700D01*
X260125Y-373633D01*
X259908Y-374434D01*
Y-375233D01*
X260125Y-376033D01*
X260667Y-376833D01*
X261317Y-377367D01*
X262075Y-377500D01*
X262833Y-377233D01*
X263592Y-376434D01*
G01X267300Y-372167D02*
X269250Y-377500D01*
X271200Y-372167D01*
G01X274042Y-377500D02*
X276750Y-369500D01*
X279458Y-377500D01*
G01X278483Y-374700D02*
X275017D01*
M02*
