G04 ================== begin FILE IDENTIFICATION RECORD ==================*
G04 Layout Name:  BeagleBone_Battery_Cape_20Feb.brd*
G04 Film Name:    Bbone_batt_lyr1*
G04 File Format:  Gerber RS274X*
G04 File Origin:  Cadence Allegro 16.5-P002*
G04 Origin Date:  Mon Feb 20 23:45:24 2012*
G04 *
G04 Layer:  BOARD GEOMETRY/TOOLING_CORNERS*
G04 Layer:  VIA CLASS/TOP*
G04 Layer:  PIN/TOP*
G04 Layer:  ETCH/TOP*
G04 Layer:  DRAWING FORMAT/TITLE_BLOCK*
G04 Layer:  BOARD GEOMETRY/PLATING_BAR*
G04 *
G04 Offset:    (0.00 0.00)*
G04 Mirror:    No*
G04 Mode:      Positive*
G04 Rotation:  0*
G04 FullContactRelief:  No*
G04 UndefLineWidth:     5.00*
G04 ================== end FILE IDENTIFICATION RECORD ====================*
%FSLAX25Y25*MOIN*%
%IR0*IPPOS*OFA0.00000B0.00000*MIA0B0*SFA1.00000B1.00000*%
%ADD15C,.04*%
%ADD14C,.022*%
%ADD13C,.06*%
%ADD10C,.025*%
%ADD21C,.08*%
%ADD20C,.018*%
%ADD11C,.09*%
%ADD12R,.031X.031*%
%ADD16R,.06X.06*%
%ADD32R,.02362X.02362*%
%ADD18R,.02X.025*%
%ADD24R,.025X.02*%
%ADD30R,.05X.045*%
%ADD29R,.045X.05*%
%ADD25R,.08X.07*%
%ADD17C,.15*%
%ADD19O,.024X.086*%
%ADD31R,.067X.051*%
%ADD22R,.024X.086*%
%ADD33C,.175*%
%ADD23R,.045X.095*%
%ADD26R,.1063X.1063*%
%ADD28R,.03346X.01378*%
%ADD27R,.01378X.03346*%
%ADD34C,.02*%
%ADD35C,.03*%
%ADD36C,.05*%
%ADD37C,.015*%
%ADD38C,.1*%
%ADD39C,.005*%
%ADD40C,.006*%
%ADD41C,.008*%
%ADD42C,.00475*%
G75*
%LPD*%
G75*
G36*
G01X-5000Y-15000D02*
Y-5000D01*
X-15000D01*
Y0D01*
X0D01*
Y-15000D01*
X-5000D01*
G37*
G54D10*
X8000Y35000D03*
X12000D03*
G54D11*
X7600Y24800D03*
X35100D03*
G54D20*
X110000Y91250D03*
X115000D03*
X183000Y76000D03*
X196021Y115229D03*
X203500Y111000D03*
X207500D03*
X211500D03*
Y115000D03*
X207500D03*
X203500D03*
X211500Y119000D03*
X207500D03*
X203500D03*
G54D30*
X228000Y102000D03*
Y109000D03*
G54D12*
X7050Y42500D03*
X12950D03*
G54D21*
X135000Y103750D03*
Y128750D03*
G54D40*
G01X70267Y-297458D02*
X69717Y-297183D01*
X69075Y-297000D01*
X68342D01*
X67517Y-297275D01*
X66875Y-297733D01*
X66417Y-298283D01*
X66050Y-299200D01*
X65958Y-300025D01*
X66142Y-300850D01*
X66417Y-301400D01*
X66967Y-301950D01*
X67608Y-302317D01*
X68250Y-302500D01*
X68892D01*
X69533Y-302317D01*
X70083Y-302042D01*
X70542Y-301675D01*
G01X74550Y-302500D02*
X73817Y-302408D01*
X73175Y-302042D01*
X72625Y-301492D01*
X72258Y-300850D01*
X72075Y-300117D01*
Y-299383D01*
X72258Y-298650D01*
X72625Y-298008D01*
X73175Y-297458D01*
X73817Y-297092D01*
X74550Y-297000D01*
X75283Y-297092D01*
X75925Y-297458D01*
X76475Y-298008D01*
X76842Y-298650D01*
X77025Y-299383D01*
Y-300117D01*
X76842Y-300850D01*
X76475Y-301492D01*
X75925Y-302042D01*
X75283Y-302408D01*
X74550Y-302500D01*
G01X78467D02*
Y-297000D01*
X80850Y-301583D01*
X83233Y-297000D01*
Y-302500D01*
G01X85317D02*
Y-297000D01*
X87517D01*
X88250Y-297275D01*
X88800Y-297917D01*
X88983Y-298650D01*
X88800Y-299383D01*
X88342Y-299933D01*
X87517Y-300208D01*
X85317D01*
G01X93450Y-302500D02*
X92717Y-302408D01*
X92075Y-302042D01*
X91525Y-301492D01*
X91158Y-300850D01*
X90975Y-300117D01*
Y-299383D01*
X91158Y-298650D01*
X91525Y-298008D01*
X92075Y-297458D01*
X92717Y-297092D01*
X93450Y-297000D01*
X94183Y-297092D01*
X94825Y-297458D01*
X95375Y-298008D01*
X95742Y-298650D01*
X95925Y-299383D01*
Y-300117D01*
X95742Y-300850D01*
X95375Y-301492D01*
X94825Y-302042D01*
X94183Y-302408D01*
X93450Y-302500D01*
G01X97642D02*
Y-297000D01*
X101858Y-302500D01*
Y-297000D01*
G01X107883Y-302500D02*
X104217D01*
Y-297000D01*
X107883D01*
G01X106417Y-299658D02*
X104217D01*
G01X110242Y-302500D02*
Y-297000D01*
X114458Y-302500D01*
Y-297000D01*
G01X118650D02*
Y-302500D01*
G01X116542Y-297000D02*
X120758D01*
G01X64917Y-284000D02*
Y-289500D01*
X68583D01*
G01X70758D02*
X73050Y-284000D01*
X75342Y-289500D01*
G01X74517Y-287575D02*
X71583D01*
G01X79350Y-289500D02*
Y-287025D01*
X77517Y-284000D01*
G01X81183D02*
X79350Y-287025D01*
G01X87483Y-289500D02*
X83817D01*
Y-284000D01*
X87483D01*
G01X86017Y-286658D02*
X83817D01*
G01X90117Y-289500D02*
Y-284000D01*
X92408D01*
X93142Y-284275D01*
X93600Y-284642D01*
X93783Y-285375D01*
X93600Y-286108D01*
X93050Y-286567D01*
X92408Y-286842D01*
X90117D01*
G01X92408D02*
X93783Y-289500D01*
G01X104550D02*
Y-284000D01*
X103450Y-285100D01*
G01Y-289500D02*
X105650D01*
G54D22*
X125000Y117750D03*
G54D31*
X238000Y99776D03*
Y109224D03*
G54D13*
X12500Y15000D03*
X30200D03*
X27500Y75000D03*
X52650Y-35000D03*
X47500Y17500D03*
X37500Y65000D03*
Y75000D03*
X47500Y65000D03*
Y75000D03*
Y197500D03*
X52650Y250000D03*
X72650Y-35000D03*
X57500Y65000D03*
Y75000D03*
X67500Y65000D03*
Y75000D03*
X72650Y250000D03*
X87500Y7500D03*
X77500Y17500D03*
X87500D03*
Y197500D03*
X77500Y207500D03*
X87500D03*
X97500Y7500D03*
X107500D03*
X97500Y17500D03*
X107500D03*
X97500Y197500D03*
X107500D03*
X97500Y207500D03*
X107500D03*
X117500Y7500D03*
X127500D03*
X117500Y17500D03*
X127500D03*
X117500Y197500D03*
X127500D03*
X117500Y207500D03*
X127500D03*
X137500Y7500D03*
X147500D03*
X157500D03*
X137500Y17500D03*
X147500D03*
X157500D03*
X137500Y197500D03*
X147500D03*
X157500D03*
X137500Y207500D03*
X147500D03*
X157500D03*
X167500Y7500D03*
X177500D03*
X167500Y17500D03*
X177500D03*
X167500Y197500D03*
X177500D03*
X167500Y207500D03*
X177500D03*
X187500Y7500D03*
X197500D03*
X187500Y17500D03*
X197500D03*
X187500Y197500D03*
X197500D03*
X187500Y207500D03*
X197500D03*
X207500Y7500D03*
X217500D03*
X207500Y17500D03*
X217500D03*
X207500Y197500D03*
X217500D03*
X207500Y207500D03*
X217500D03*
X227500Y7500D03*
X237500D03*
X227500Y17500D03*
X237500D03*
X227500Y197500D03*
X237500D03*
X227500Y207500D03*
X237500D03*
X257350Y-35000D03*
X247500Y7500D03*
Y17500D03*
X257500Y7500D03*
Y17500D03*
X247500Y197500D03*
Y207500D03*
X257500Y197500D03*
Y207500D03*
X257350Y250000D03*
X277350Y-35000D03*
X267500Y7500D03*
Y17500D03*
X277500D03*
Y7500D03*
X267500Y197500D03*
Y207500D03*
X277500D03*
Y197500D03*
X277350Y250000D03*
X297500Y17500D03*
X287500D03*
X297500Y7500D03*
X287500D03*
X297500Y207500D03*
X287500D03*
X297500Y197500D03*
X287500D03*
G54D41*
G01X87333Y-407000D02*
Y-397000D01*
X90667D01*
X92000Y-397500D01*
X93000Y-398167D01*
X93833Y-399167D01*
X94500Y-400334D01*
X94667Y-402000D01*
X94500Y-403667D01*
X93833Y-404833D01*
X93000Y-405834D01*
X92000Y-406500D01*
X90667Y-407000D01*
X87333D01*
G01X97833D02*
X102000Y-397000D01*
X106167Y-407000D01*
G01X104667Y-403500D02*
X99333D01*
G01X113000Y-397000D02*
Y-407000D01*
G01X109167Y-397000D02*
X116833D01*
G01X127333Y-407000D02*
X120667D01*
Y-397000D01*
X127333D01*
G01X124667Y-401833D02*
X120667D01*
G01X135000Y-407333D02*
X134667Y-407167D01*
Y-406833D01*
X135000Y-406667D01*
X135333Y-406833D01*
Y-407167D01*
X135000Y-407333D01*
G01Y-402834D02*
X134667Y-402667D01*
Y-402333D01*
X135000Y-402167D01*
X135333Y-402333D01*
Y-402667D01*
X135000Y-402834D01*
G01X76117Y-373233D02*
X76550Y-372833D01*
X76875Y-372167D01*
X77092Y-371233D01*
X76875Y-370433D01*
X76442Y-369900D01*
X75683Y-369500D01*
X72758D01*
Y-377500D01*
X76333D01*
X77092Y-376967D01*
X77525Y-376167D01*
X77742Y-375233D01*
X77525Y-374300D01*
X76875Y-373500D01*
X76117Y-373233D01*
X72758D01*
G01X81125Y-373900D02*
X84592D01*
X84267Y-372967D01*
X83725Y-372433D01*
X82967Y-372167D01*
X82208Y-372300D01*
X81558Y-372700D01*
X81125Y-373633D01*
X80908Y-374434D01*
Y-375233D01*
X81125Y-376033D01*
X81667Y-376833D01*
X82317Y-377367D01*
X83075Y-377500D01*
X83833Y-377233D01*
X84592Y-376434D01*
G01X92200Y-377500D02*
Y-372167D01*
G01Y-373100D02*
X91767Y-372567D01*
X91117Y-372300D01*
X90358Y-372167D01*
X89600Y-372433D01*
X88950Y-372967D01*
X88517Y-373767D01*
X88300Y-374833D01*
X88517Y-375900D01*
X88950Y-376700D01*
X89600Y-377233D01*
X90358Y-377500D01*
X91117Y-377367D01*
X91767Y-376967D01*
X92200Y-376434D01*
G01X96233Y-379500D02*
X96992Y-380033D01*
X97858Y-380167D01*
X98617Y-380033D01*
X99267Y-379367D01*
X99700Y-378433D01*
Y-372167D01*
G01Y-373233D02*
X99267Y-372700D01*
X98617Y-372300D01*
X97858Y-372167D01*
X96992Y-372433D01*
X96450Y-372967D01*
X96017Y-373900D01*
X95800Y-374833D01*
X95908Y-375633D01*
X96342Y-376567D01*
X96992Y-377233D01*
X97858Y-377500D01*
X98508Y-377367D01*
X99267Y-376833D01*
X99700Y-376300D01*
G01X105250Y-377500D02*
Y-369500D01*
G01X111125Y-373900D02*
X114592D01*
X114267Y-372967D01*
X113725Y-372433D01*
X112967Y-372167D01*
X112208Y-372300D01*
X111558Y-372700D01*
X111125Y-373633D01*
X110908Y-374434D01*
Y-375233D01*
X111125Y-376033D01*
X111667Y-376833D01*
X112317Y-377367D01*
X113075Y-377500D01*
X113833Y-377233D01*
X114592Y-376434D01*
G01X121117Y-373233D02*
X121550Y-372833D01*
X121875Y-372167D01*
X122092Y-371233D01*
X121875Y-370433D01*
X121442Y-369900D01*
X120683Y-369500D01*
X117758D01*
Y-377500D01*
X121333D01*
X122092Y-376967D01*
X122525Y-376167D01*
X122742Y-375233D01*
X122525Y-374300D01*
X121875Y-373500D01*
X121117Y-373233D01*
X117758D01*
G01X127750Y-377500D02*
X127100Y-377367D01*
X126450Y-376833D01*
X126017Y-375900D01*
X125800Y-374833D01*
X126017Y-373767D01*
X126450Y-372833D01*
X127100Y-372300D01*
X127750Y-372167D01*
X128400Y-372300D01*
X129050Y-372833D01*
X129483Y-373767D01*
X129592Y-374833D01*
X129483Y-375900D01*
X129050Y-376833D01*
X128400Y-377367D01*
X127750Y-377500D01*
G01X133408D02*
Y-372167D01*
G01Y-373500D02*
X133842Y-372833D01*
X134492Y-372300D01*
X135358Y-372167D01*
X136117Y-372300D01*
X136767Y-372833D01*
X137092Y-373767D01*
Y-377500D01*
G01X141125Y-373900D02*
X144592D01*
X144267Y-372967D01*
X143725Y-372433D01*
X142967Y-372167D01*
X142208Y-372300D01*
X141558Y-372700D01*
X141125Y-373633D01*
X140908Y-374434D01*
Y-375233D01*
X141125Y-376033D01*
X141667Y-376833D01*
X142317Y-377367D01*
X143075Y-377500D01*
X143833Y-377233D01*
X144592Y-376434D01*
G01X158617Y-373233D02*
X159050Y-372833D01*
X159375Y-372167D01*
X159592Y-371233D01*
X159375Y-370433D01*
X158942Y-369900D01*
X158183Y-369500D01*
X155258D01*
Y-377500D01*
X158833D01*
X159592Y-376967D01*
X160025Y-376167D01*
X160242Y-375233D01*
X160025Y-374300D01*
X159375Y-373500D01*
X158617Y-373233D01*
X155258D01*
G01X167200Y-377500D02*
Y-372167D01*
G01Y-373100D02*
X166767Y-372567D01*
X166117Y-372300D01*
X165358Y-372167D01*
X164600Y-372433D01*
X163950Y-372967D01*
X163517Y-373767D01*
X163300Y-374833D01*
X163517Y-375900D01*
X163950Y-376700D01*
X164600Y-377233D01*
X165358Y-377500D01*
X166117Y-377367D01*
X166767Y-376967D01*
X167200Y-376434D01*
G01X172750Y-369500D02*
Y-377500D01*
G01X171233Y-372167D02*
X174267D01*
G01X180250Y-369500D02*
Y-377500D01*
G01X178733Y-372167D02*
X181767D01*
G01X186125Y-373900D02*
X189592D01*
X189267Y-372967D01*
X188725Y-372433D01*
X187967Y-372167D01*
X187208Y-372300D01*
X186558Y-372700D01*
X186125Y-373633D01*
X185908Y-374434D01*
Y-375233D01*
X186125Y-376033D01*
X186667Y-376833D01*
X187317Y-377367D01*
X188075Y-377500D01*
X188833Y-377233D01*
X189592Y-376434D01*
G01X193733Y-377500D02*
Y-372167D01*
G01Y-373233D02*
X194275Y-372700D01*
X194817Y-372300D01*
X195575Y-372167D01*
X196117Y-372300D01*
X196767Y-372700D01*
G01X200475Y-379900D02*
X201125Y-380167D01*
X201992Y-379900D01*
X202533Y-379367D01*
X202967Y-378700D01*
X203617Y-376567D01*
X205025Y-372167D01*
G01X201558D02*
X203617Y-376567D01*
G01X220133Y-370167D02*
X219483Y-369767D01*
X218725Y-369500D01*
X217858D01*
X216883Y-369900D01*
X216125Y-370567D01*
X215583Y-371367D01*
X215150Y-372700D01*
X215042Y-373900D01*
X215258Y-375100D01*
X215583Y-375900D01*
X216233Y-376700D01*
X216992Y-377233D01*
X217750Y-377500D01*
X218508D01*
X219267Y-377233D01*
X219917Y-376833D01*
X220458Y-376300D01*
G01X227200Y-377500D02*
Y-372167D01*
G01Y-373100D02*
X226767Y-372567D01*
X226117Y-372300D01*
X225358Y-372167D01*
X224600Y-372433D01*
X223950Y-372967D01*
X223517Y-373767D01*
X223300Y-374833D01*
X223517Y-375900D01*
X223950Y-376700D01*
X224600Y-377233D01*
X225358Y-377500D01*
X226117Y-377367D01*
X226767Y-376967D01*
X227200Y-376434D01*
G01X230800Y-380167D02*
Y-372167D01*
G01Y-373367D02*
X231342Y-372700D01*
X231883Y-372300D01*
X232750Y-372167D01*
X233508Y-372300D01*
X234267Y-372967D01*
X234592Y-373900D01*
X234700Y-374833D01*
X234592Y-375767D01*
X234267Y-376700D01*
X233617Y-377233D01*
X232750Y-377500D01*
X231992Y-377367D01*
X231233Y-376967D01*
X230800Y-376434D01*
G01X238625Y-373900D02*
X242092D01*
X241767Y-372967D01*
X241225Y-372433D01*
X240467Y-372167D01*
X239708Y-372300D01*
X239058Y-372700D01*
X238625Y-373633D01*
X238408Y-374434D01*
Y-375233D01*
X238625Y-376033D01*
X239167Y-376833D01*
X239817Y-377367D01*
X240575Y-377500D01*
X241333Y-377233D01*
X242092Y-376434D01*
G01X134167Y-341833D02*
X133167Y-341333D01*
X132000Y-341000D01*
X130667D01*
X129166Y-341500D01*
X128000Y-342333D01*
X127167Y-343333D01*
X126500Y-345000D01*
X126333Y-346500D01*
X126667Y-348000D01*
X127167Y-349000D01*
X128167Y-350000D01*
X129333Y-350667D01*
X130500Y-351000D01*
X131667D01*
X132833Y-350667D01*
X133833Y-350167D01*
X134667Y-349500D01*
G01X141500Y-344334D02*
Y-351000D01*
G01Y-341667D02*
X141167Y-341500D01*
Y-341167D01*
X141500Y-341000D01*
X141833Y-341167D01*
Y-341500D01*
X141500Y-341667D01*
G01X150167Y-351000D02*
Y-344334D01*
G01Y-345667D02*
X151000Y-345000D01*
X151833Y-344500D01*
X153000Y-344334D01*
X153833Y-344500D01*
X154833Y-345000D01*
G01X166167Y-345167D02*
X165000Y-344500D01*
X164000Y-344334D01*
X162667Y-344667D01*
X161667Y-345333D01*
X161000Y-346500D01*
X160833Y-347667D01*
X161000Y-348833D01*
X161667Y-349834D01*
X162667Y-350667D01*
X164000Y-351000D01*
X165167Y-350667D01*
X166167Y-350000D01*
G01X171667Y-344334D02*
Y-349000D01*
X172333Y-350167D01*
X173333Y-350833D01*
X174500Y-351000D01*
X175667Y-350833D01*
X176667Y-350167D01*
X177333Y-349000D01*
G01Y-351000D02*
Y-344334D01*
G01X185500D02*
Y-351000D01*
G01Y-341667D02*
X185167Y-341500D01*
Y-341167D01*
X185500Y-341000D01*
X185833Y-341167D01*
Y-341500D01*
X185500Y-341667D01*
G01X196500Y-341000D02*
Y-351000D01*
G01X194167Y-344334D02*
X198833D01*
G01X222167Y-341833D02*
X221167Y-341333D01*
X220000Y-341000D01*
X218667D01*
X217166Y-341500D01*
X216000Y-342333D01*
X215167Y-343333D01*
X214500Y-345000D01*
X214333Y-346500D01*
X214667Y-348000D01*
X215167Y-349000D01*
X216167Y-350000D01*
X217333Y-350667D01*
X218500Y-351000D01*
X219667D01*
X220833Y-350667D01*
X221833Y-350167D01*
X222667Y-349500D01*
G01X229500Y-351000D02*
X228500Y-350833D01*
X227500Y-350167D01*
X226833Y-349000D01*
X226500Y-347667D01*
X226833Y-346333D01*
X227500Y-345167D01*
X228500Y-344500D01*
X229500Y-344334D01*
X230500Y-344500D01*
X231500Y-345167D01*
X232167Y-346333D01*
X232333Y-347667D01*
X232167Y-349000D01*
X231500Y-350167D01*
X230500Y-350833D01*
X229500Y-351000D01*
G01X240500Y-351333D02*
X240167Y-351167D01*
Y-350833D01*
X240500Y-350667D01*
X240833Y-350833D01*
Y-351167D01*
X240500Y-351333D01*
G01X148500Y-397000D02*
X147166Y-397333D01*
X146167Y-398167D01*
X145500Y-399167D01*
X145000Y-400500D01*
X144833Y-402000D01*
X145000Y-403500D01*
X145500Y-404833D01*
X146167Y-405834D01*
X147166Y-406667D01*
X148500Y-407000D01*
X149833Y-406667D01*
X150833Y-405834D01*
X151500Y-404833D01*
X152000Y-403500D01*
X152167Y-402000D01*
X152000Y-400500D01*
X151500Y-399167D01*
X150833Y-398167D01*
X149833Y-397333D01*
X148500Y-397000D01*
G01X156333Y-398667D02*
X157333Y-397667D01*
X158500Y-397167D01*
X159833Y-397000D01*
X161500Y-397333D01*
X162667Y-398167D01*
X163000Y-399167D01*
X162833Y-400167D01*
X162167Y-401000D01*
X158833Y-402667D01*
X157333Y-403833D01*
X156333Y-405500D01*
X156000Y-407000D01*
X163000D01*
G01X167500Y-407333D02*
X173500Y-397000D01*
G01X181500D02*
X180166Y-397333D01*
X179167Y-398167D01*
X178500Y-399167D01*
X178000Y-400500D01*
X177833Y-402000D01*
X178000Y-403500D01*
X178500Y-404833D01*
X179167Y-405834D01*
X180166Y-406667D01*
X181500Y-407000D01*
X182833Y-406667D01*
X183833Y-405834D01*
X184500Y-404833D01*
X185000Y-403500D01*
X185167Y-402000D01*
X185000Y-400500D01*
X184500Y-399167D01*
X183833Y-398167D01*
X182833Y-397333D01*
X181500Y-397000D01*
G01X192500Y-407000D02*
X193667Y-406833D01*
X195000Y-406333D01*
X195833Y-405500D01*
X196167Y-404333D01*
X195833Y-403167D01*
X194833Y-402167D01*
X193333Y-401667D01*
X191667D01*
X190667Y-401333D01*
X189833Y-400500D01*
X189500Y-399333D01*
X190000Y-398167D01*
X191166Y-397333D01*
X192500Y-397000D01*
X193833Y-397333D01*
X195000Y-398167D01*
X195500Y-399333D01*
X195167Y-400500D01*
X194333Y-401333D01*
X193333Y-401667D01*
X191667D01*
X190167Y-402167D01*
X189167Y-403167D01*
X188833Y-404333D01*
X189167Y-405500D01*
X190000Y-406333D01*
X191333Y-406833D01*
X192500Y-407000D01*
G01X200500Y-407333D02*
X206500Y-397000D01*
G01X211333Y-398667D02*
X212333Y-397667D01*
X213500Y-397167D01*
X214833Y-397000D01*
X216500Y-397333D01*
X217667Y-398167D01*
X218000Y-399167D01*
X217833Y-400167D01*
X217167Y-401000D01*
X213833Y-402667D01*
X212333Y-403833D01*
X211333Y-405500D01*
X211000Y-407000D01*
X218000D01*
G01X225500Y-397000D02*
X224166Y-397333D01*
X223167Y-398167D01*
X222500Y-399167D01*
X222000Y-400500D01*
X221833Y-402000D01*
X222000Y-403500D01*
X222500Y-404833D01*
X223167Y-405834D01*
X224166Y-406667D01*
X225500Y-407000D01*
X226833Y-406667D01*
X227833Y-405834D01*
X228500Y-404833D01*
X229000Y-403500D01*
X229167Y-402000D01*
X229000Y-400500D01*
X228500Y-399167D01*
X227833Y-398167D01*
X226833Y-397333D01*
X225500Y-397000D01*
G01X236500Y-407000D02*
Y-397000D01*
X234500Y-399000D01*
G01Y-407000D02*
X238500D01*
G01X244333Y-398667D02*
X245333Y-397667D01*
X246500Y-397167D01*
X247833Y-397000D01*
X249500Y-397333D01*
X250667Y-398167D01*
X251000Y-399167D01*
X250833Y-400167D01*
X250167Y-401000D01*
X246833Y-402667D01*
X245333Y-403833D01*
X244333Y-405500D01*
X244000Y-407000D01*
X251000D01*
G01X252083Y-377500D02*
Y-369500D01*
X254792D01*
X255658Y-369900D01*
X256200Y-370433D01*
X256417Y-371500D01*
X256200Y-372567D01*
X255550Y-373233D01*
X254792Y-373633D01*
X252083D01*
G01X254792D02*
X256417Y-377500D01*
G01X260125Y-373900D02*
X263592D01*
X263267Y-372967D01*
X262725Y-372433D01*
X261967Y-372167D01*
X261208Y-372300D01*
X260558Y-372700D01*
X260125Y-373633D01*
X259908Y-374434D01*
Y-375233D01*
X260125Y-376033D01*
X260667Y-376833D01*
X261317Y-377367D01*
X262075Y-377500D01*
X262833Y-377233D01*
X263592Y-376434D01*
G01X267300Y-372167D02*
X269250Y-377500D01*
X271200Y-372167D01*
G01X274042Y-377500D02*
X276750Y-369500D01*
X279458Y-377500D01*
G01X278483Y-374700D02*
X275017D01*
G54D23*
X125000Y143050D03*
X115000D03*
Y176950D03*
X125000D03*
G54D32*
X249500Y100669D03*
Y109331D03*
G54D14*
X17500Y42500D03*
X24500Y50000D03*
X84500Y62500D03*
X110000Y125000D03*
X112000Y132000D03*
X118000Y29000D03*
X130000Y83000D03*
X120000Y136000D03*
X129000Y132000D03*
X115000Y187500D03*
X125000D03*
X195500Y100500D03*
X220500D03*
Y127500D03*
Y176500D03*
Y168500D03*
G54D42*
G01X189250Y117519D02*
Y115000D01*
G54D33*
X317500Y25000D03*
Y190000D03*
G54D24*
X193250Y120000D03*
X189250D03*
X193250Y110000D03*
X189250D03*
X193250Y105000D03*
X189250D03*
Y115000D03*
X193250D03*
X210500Y100250D03*
X214500D03*
X200500D03*
X204500D03*
X223000Y29000D03*
X227000D03*
X232500D03*
X236500D03*
G54D15*
G01X249500Y100669D02*
Y92500D01*
G01X221500Y109000D02*
Y107500D01*
X217661Y103661D01*
X214500D01*
G01X228000Y109000D02*
X237776D01*
G01X249500Y109331D02*
X238107D01*
G01X228000Y109000D02*
X221500D01*
X15000Y70000D03*
X98750Y176250D03*
X317500Y42500D03*
Y172500D03*
G54D34*
G01X12000Y35000D02*
Y29200D01*
X7600Y24800D01*
G01X7050Y42500D02*
Y35950D01*
X8000Y35000D01*
G01X60000Y-333500D02*
X59990Y-415790D01*
G01X59500Y-415500D02*
X292500D01*
X292490Y-415290D01*
X292500Y-333000D01*
X60000D01*
G01X59990Y-387790D02*
X292490D01*
G01X59990Y-360290D02*
X292490D01*
G01X110000Y83000D02*
Y74000D01*
G01Y117750D02*
Y125000D01*
G01X115000Y132000D02*
X112000D01*
G01X223000Y29000D02*
X118000D01*
G01X115000Y83000D02*
Y74500D01*
X114500Y74000D01*
G01X120000Y83000D02*
Y74000D01*
G01X125000Y83000D02*
X130000D01*
G01X125000Y87000D02*
X145500D01*
G01X120000Y136000D02*
Y132000D01*
G01X125000D02*
X129000D01*
G01X140750Y136250D02*
X133250D01*
X129000Y132000D01*
G01X189250Y105000D02*
X145500D01*
G01X195500Y100500D02*
X200250D01*
X200500Y100250D01*
G01X193250Y115000D02*
X195792D01*
X196021Y115229D01*
G01X193500Y127500D02*
X193250Y127250D01*
Y120000D01*
G01X184500Y127500D02*
Y111500D01*
X186000Y110000D01*
X189250D01*
G01X193500Y127500D02*
X202000D01*
G01X200500Y100250D02*
Y103000D01*
G01X220000Y118839D02*
X220255D01*
G01D02*
X223125D01*
X227000Y122714D01*
G01X232500Y29000D02*
Y12500D01*
X237500Y7500D01*
G01X236500Y29000D02*
X276000D01*
X287500Y17500D01*
G01X227000Y29000D02*
X232500D01*
G54D25*
X193189Y146250D03*
X216811D03*
G54D16*
X27500Y65000D03*
X47500Y7500D03*
Y207500D03*
X77500Y7500D03*
Y197500D03*
G54D35*
G01X24500Y50000D02*
Y27000D01*
X12500Y15000D01*
G01X17500Y42500D02*
X12950D01*
G01X115000Y176950D02*
Y187500D01*
G01X125000Y176950D02*
Y187500D01*
G01X214500Y103661D02*
Y100250D01*
G01X211339Y103661D02*
X214500D01*
G01X219000Y111161D02*
X221161Y109000D01*
X221500D01*
G01X238000Y99776D02*
X230224D01*
X228000Y102000D01*
G01D02*
X224500D01*
X223000Y100500D01*
X220500D01*
G01X237776Y109000D02*
X238000Y109224D01*
G01X238107Y109331D02*
X238000Y109224D01*
G54D26*
X207500Y115000D03*
G54D17*
X63500Y-11400D03*
Y273600D03*
X83500Y-58600D03*
Y226400D03*
X246500Y-58600D03*
Y226400D03*
X266500Y-11400D03*
Y273600D03*
G54D36*
G01X87500Y7500D02*
Y17500D01*
G01X110000Y74000D02*
X87500Y51500D01*
Y17500D01*
G01X195500Y179500D02*
X200250Y174750D01*
Y168750D01*
G01X110000Y74000D02*
X114500D01*
G01D02*
X120000D01*
G01D02*
X139500D01*
X145500Y80000D01*
Y87000D01*
G01Y105000D02*
Y131500D01*
X140750Y136250D01*
G01X145500Y87000D02*
Y105000D01*
G01X193500Y127500D02*
X184500D01*
G01D02*
X180500Y131500D01*
Y146250D01*
G01X200250Y168750D02*
X185750D01*
X180500Y163500D01*
Y146250D01*
G01D02*
X193189D01*
G01X227000Y122714D02*
Y142000D01*
X222750Y146250D01*
X216811D01*
G01X220500Y168500D02*
X220250Y168750D01*
X207250D01*
G01X220500Y168500D02*
Y176500D01*
G54D27*
X211339Y107224D03*
X208780D03*
X206220D03*
X203661D03*
Y122776D03*
X206220D03*
X208780D03*
X211339D03*
G54D18*
X110000Y83000D03*
Y87000D03*
X125000Y83000D03*
Y87000D03*
X120000Y83000D03*
Y87000D03*
X115000Y83000D03*
Y87000D03*
X125000Y132000D03*
Y128000D03*
X115000Y132000D03*
Y128000D03*
X120000Y132000D03*
Y128000D03*
G54D37*
G01X125000Y97250D02*
Y87000D01*
G01X202000Y127500D02*
X203661Y125839D01*
Y122776D01*
G01X200500Y103000D02*
X203661Y106161D01*
Y107224D01*
G01X199724Y116280D02*
X197135D01*
X196867Y116012D01*
X196804D01*
X196021Y115229D01*
G01X215276Y118839D02*
X220000D01*
G01X220255D02*
Y117010D01*
X219525Y116280D01*
X215276D01*
G01X208780Y107224D02*
Y104636D01*
X209755Y103661D01*
X211339D01*
G01D02*
Y107224D01*
G01X215276Y111161D02*
X219000D01*
G01X208780Y122776D02*
Y127500D01*
G01D02*
X211500D01*
G01X208780D02*
X207195D01*
X206220Y126525D01*
Y122776D01*
G01X211500Y127500D02*
X211339Y127339D01*
Y122776D01*
G01X211500Y127500D02*
X220500D01*
G54D28*
X199724Y111161D03*
Y113720D03*
Y116280D03*
Y118839D03*
X215276D03*
Y116280D03*
Y113720D03*
Y111161D03*
G54D19*
X110000Y97250D03*
Y117750D03*
X125000Y97250D03*
X120000D03*
X115000D03*
Y117750D03*
X120000D03*
G54D38*
G01X52650Y-35000D02*
X47500Y-29850D01*
Y7500D01*
G01D02*
X55500D01*
X65500Y17500D01*
Y43500D01*
X84500Y62500D01*
G01X52650Y250000D02*
X47500Y244850D01*
Y207500D01*
G01X90000Y161500D02*
X77500D01*
X63999Y175001D01*
Y199501D01*
X56000Y207500D01*
X47500D01*
G01X249500Y92500D02*
X209500Y52500D01*
X121000D01*
X97500Y29000D01*
Y17500D01*
G01X84500Y62500D02*
X90000Y68000D01*
Y161500D01*
G01D02*
X143500D01*
X161500Y179500D01*
X195500D01*
G01X97500Y7500D02*
Y17500D01*
G01X257350Y-35000D02*
X277350D01*
G01X257350Y250000D02*
X277350D01*
G54D29*
X207250Y168750D03*
X200250D03*
G54D39*
G01X110000Y87000D02*
Y91250D01*
G01D02*
Y97250D01*
G01X115000Y87000D02*
Y91250D01*
G01D02*
Y97250D01*
G01X120000D02*
Y87000D01*
G01X135000Y103750D02*
X122500D01*
X120000Y101250D01*
Y97250D01*
G01X125000Y117750D02*
Y128000D01*
G01X120000Y117750D02*
Y128000D01*
G01X115000Y117750D02*
Y128000D01*
G01X125000Y143050D02*
Y137500D01*
X122500Y135000D01*
Y130500D01*
X125000Y128000D01*
G01X120000D02*
X117500Y130500D01*
Y135000D01*
X115000Y137500D01*
Y143050D01*
G01X193250Y105000D02*
Y86250D01*
X183000Y76000D01*
G01X189250Y120000D02*
Y117519D01*
G01X199724Y118839D02*
X197589D01*
X196250Y117500D01*
X189269D01*
X189250Y117519D01*
G01X199724Y113720D02*
X197720D01*
X194000Y110000D01*
X193250D01*
G01X199724Y111161D02*
X197540D01*
X196000Y109621D01*
Y107750D01*
X193250Y105000D01*
G01X204500Y100250D02*
X210500D01*
G01X204500D02*
Y102500D01*
X206220Y104220D01*
Y107224D01*
M02*
